<?xml version="1.0" standalone="no"?>
<!DOCTYPE svg PUBLIC "-//W3C//DTD SVG 1.1//EN" "http://www.w3.org/Graphics/SVG/1.1/DTD/svg11.dtd" >
<svg xmlns="http://www.w3.org/2000/svg">
<metadata>
Created by FontPrep 20130207 at Sat Jan 16 19:53:56 2016
 By Jirayu L.
Copyright 2014 Monotype Imaging Inc.  All rights reserved.
</metadata>
<defs>
<font id="6316f8e9926ea31fb1e5767590a3e562" horiz-adv-x='1024' >
  <font-face 
    font-family="NeueFrutigerW31Trad-Bold"
    font-weight="700"
    font-stretch="normal"
    units-per-em="2048"
    panose-1="2 11 8 3 4 3 4 2 2 3"
    ascent="1638"
    descent="-410"
    x-height="1055"
    cap-height="1430"
    bbox="-1157 -635 2609 2478"
    underline-thickness="102"
    underline-position="-256"
    unicode-range="U+000D-FB02"
  />
<missing-glyph horiz-adv-x="1048" 
d="M455 240v137h114v-137h-114zM524 1145q-143 0 -168 -195l-102 17q14 141 88 210.5t186 69.5t184 -73.5t72 -194.5q0 -70 -26.5 -123t-102.5 -122t-88 -107.5t-12 -147.5h-94l-4 35q1 115 29 169t92 118q63 59 82.5 94t19.5 93t-46 107.5t-110 49.5zM102 102h844v1264
h-844v-1264zM0 0v1470h1049v-1470h-1049z" />
    <glyph glyph-name="uniFB01" unicode="fi" horiz-adv-x="1372" 
d="M646 1346q-66 0 -96 -48t-30 -165v-78h242v-203h-242v-852h-274v852h-207v203h207v73q0 220 91 324t290 104q85 0 157 -20l-22 -213q-51 23 -116 23zM940 0v1055h274v-1055h-274zM940 1255v263h274v-263h-274z" />
    <glyph glyph-name="uniFB02" unicode="fl" horiz-adv-x="1372" 
d="M646 1346q-66 0 -96 -48t-30 -165v-78h242v-203h-242v-852h-274v852h-207v203h207v73q0 220 91 324t290 104q85 0 157 -20l-22 -213q-51 23 -116 23zM940 0v1548h274v-1548h-274z" />
    <glyph glyph-name="uni0E24_uni0E45.liga" unicode="&#xe24;&#xe45;" horiz-adv-x="2043" 
d="M360 196.5q0 -32.5 19.5 -54t50.5 -21.5t50.5 21.5t19.5 54t-19.5 54t-50.5 21.5t-50.5 -21.5t-19.5 -54zM1884 721v-1149h-262v1130q0 150 -55.5 224.5t-189.5 74.5t-242 -90q31 -86 30 -190v-1149h-262v1130q0 150 -62.5 224.5t-205.5 74.5q-102 0 -176 -43t-101 -100
l187 -67v-127q-57 -18 -88 -70.5t-31 -105t-14 -80.5l2 -2q16 8 47 8q82 0 144.5 -62.5t62.5 -155.5t-66.5 -154.5t-176.5 -61.5t-185.5 63t-75.5 176v191q0 104 46 176.5t109 103.5v6l-227 78v109q33 78 107.5 155.5t189.5 129t254 51.5q236 0 373 -125q170 125 390 125
t349 -136.5t129 -361.5z" />
    <glyph glyph-name="uni0E26_uni0E45.liga" unicode="&#xe26;&#xe45;" horiz-adv-x="2068" 
d="M205 196.5q0 -32.5 19.5 -54t50 -21.5t50 21.5t19.5 54t-19.5 54t-50 21.5t-50 -21.5t-19.5 -54zM293 481q0 138 121 201v6l-273 86v109q33 78 109 155.5t190.5 129t253.5 51.5q223 0 363 -113q170 113 382 113t341 -136.5t129 -361.5v-1149h-262v1130q0 150 -55.5 224.5
t-180.5 74.5t-227 -71q37 -94 37 -209v-1149h-263v1130q0 150 -64.5 224.5t-207.5 74.5q-102 0 -177 -43t-101 -100l231 -76v-127q-57 -18 -77.5 -77.5t-20.5 -151.5v-207q0 -113 -76 -176t-185.5 -63t-176 61t-66.5 154.5t63.5 156t143.5 62.5q31 0 47 -8l2 2v73z" />
    <glyph glyph-name=".notdef" horiz-adv-x="1048" 
d="M455 240v137h114v-137h-114zM524 1145q-143 0 -168 -195l-102 17q14 141 88 210.5t186 69.5t184 -73.5t72 -194.5q0 -70 -26.5 -123t-102.5 -122t-88 -107.5t-12 -147.5h-94l-4 35q1 115 29 169t92 118q63 59 82.5 94t19.5 93t-46 107.5t-110 49.5zM102 102h844v1264
h-844v-1264zM0 0v1470h1049v-1470h-1049z" />
    <glyph glyph-name="glyph1" horiz-adv-x="1228" 
 />
    <glyph glyph-name="glyph1" horiz-adv-x="1228" 
 />
    <glyph glyph-name="uni000D" unicode="&#xd;" horiz-adv-x="512" 
 />
    <glyph glyph-name="space" unicode=" " horiz-adv-x="512" 
 />
    <glyph glyph-name="exclam" unicode="!" horiz-adv-x="700" 
d="M207 0v274h285v-274h-285zM236 414l-46 1016h324l-49 -1016h-229z" />
    <glyph glyph-name="quotedbl" unicode="&#x22;" horiz-adv-x="935" 
d="M580 819l-39 611h219l-39 -611h-141zM215 819l-39 611h217l-35 -611h-143z" />
    <glyph glyph-name="numbersign" unicode="#" horiz-adv-x="1220" 
d="M489 571h218l55 291h-219zM1171 1034v-172h-208l-54 -291h178v-172h-208l-76 -399h-203l74 399h-217l-76 -399h-201l74 399h-178v172h209l53 291h-174v172h207l71 396h205l-72 -396h216l75 396h205l-74 -396h174z" />
    <glyph glyph-name="dollar" unicode="$" horiz-adv-x="1220" 
d="M829 397q0 66 -36.5 109t-128.5 74v-363q165 24 165 180zM393 1058q0 -68 38 -106.5t126 -64.5v332q-76 -11 -120 -52t-44 -109zM670 1219v-361q162 -53 255 -111.5t137 -138.5t44 -196q0 -180 -111.5 -291t-330.5 -133v-178h-117v174q-223 0 -408 63l29 258
q72 -39 180.5 -65.5t198.5 -26.5v399l-64 23q-141 51 -220 105.5t-112.5 126t-33.5 175.5q0 164 115.5 268.5t324.5 127.5v180h113v-178q227 0 340 -47l-25 -242q-57 31 -147 49.5t-168 18.5z" />
    <glyph glyph-name="percent" unicode="%" horiz-adv-x="1929" 
d="M1298 355q0 -108 39 -162t100.5 -54t100.5 54.5t39 161.5t-38 157.5t-101.5 50.5t-101.5 -50t-38 -158zM1798 362q0 -178 -98 -282.5t-262 -104.5t-262.5 104.5t-98.5 281.5t97.5 273.5t263.5 96.5t263 -95.5t97 -273.5zM352 1078q0 -108 39 -162t100.5 -54t100.5 54.5
t39 161.5t-38 157.5t-101.5 50.5t-101.5 -50t-38 -158zM852 1084q0 -178 -98.5 -282t-262 -104t-262 104.5t-98.5 281.5t97.5 273.5t263 96.5t263 -96t97.5 -274zM428 -43l911 1550h172l-911 -1550h-172z" />
    <glyph glyph-name="ampersand" unicode="&#x26;" horiz-adv-x="1488" 
d="M385 390q0 -89 77 -148.5t170 -59.5t155.5 20.5t115.5 69.5l-340 369q-98 -41 -138 -101.5t-40 -149.5zM535 1128q0 -108 135 -241q102 49 151 104t49 127t-48 107t-119.5 35t-119.5 -37t-48 -95zM602 -23q-140 0 -255.5 51.5t-180 144.5t-64.5 216q0 272 342 406
q-170 165 -170 321t118 240t304 84t301 -75t115 -219t-79 -235.5t-247 -167.5l279 -301q96 135 100 336h240q-11 -262 -191 -485l277 -293h-336l-117 133q-100 -82 -198 -119t-238 -37z" />
    <glyph glyph-name="quotesingle" unicode="'" horiz-adv-x="573" 
d="M219 819l-43 611h221l-43 -611h-135z" />
    <glyph glyph-name="parenleft" unicode="(" horiz-adv-x="737" 
d="M82 634.5q0 470.5 328 921.5h262q-158 -256 -229.5 -475t-71.5 -447t71.5 -446.5t229.5 -474.5h-262q-328 451 -328 921.5z" />
    <glyph glyph-name="parenright" unicode=")" horiz-adv-x="737" 
d="M655 635.5q0 -470.5 -327 -922.5h-262q158 256 229.5 474.5t71.5 446.5t-72 447t-229 475h262q327 -450 327 -920.5z" />
    <glyph glyph-name="asterisk" unicode="*" horiz-adv-x="1146" 
d="M932 1366l63 -217l-284 -62l196 -221l-186 -135l-150 254l-155 -254l-189 135l203 221l-283 64l70 221l275 -125l-29 301h225l-31 -299z" />
    <glyph glyph-name="plus" unicode="+" horiz-adv-x="1220" 
d="M1147 645v-221h-416v-424h-237v424h-420v221h420v426h237v-426h416z" />
    <glyph glyph-name="comma" unicode="," horiz-adv-x="532" 
d="M49 -229l133 516h283l-186 -516h-230z" />
    <glyph glyph-name="hyphen" unicode="-" horiz-adv-x="686" 
d="M76 438v230h545v-230h-545z" />
    <glyph glyph-name="period" unicode="." horiz-adv-x="532" 
d="M121 0v295h293v-295h-293z" />
    <glyph glyph-name="slash" unicode="/" horiz-adv-x="1034" 
d="M143 0l502 1430h246l-500 -1430h-248z" />
    <glyph glyph-name="zero" unicode="0" horiz-adv-x="1220" 
d="M375 720q0 -261 60.5 -397.5t174.5 -136.5t175 134.5t61 395.5t-60.5 394t-175 133t-175 -131t-60.5 -392zM612 -25q-526 -1 -526 743q0 366 131 551t406 185q510 0 510 -739t-521 -740z" />
    <glyph glyph-name="one" unicode="1" horiz-adv-x="1220" 
d="M555 0v748q0 240 8 391h-4q-47 -47 -174 -150l-74 -59l-141 192l416 308h260v-1430h-291z" />
    <glyph glyph-name="two" unicode="2" horiz-adv-x="1220" 
d="M565 1454q135 0 247 -46t177.5 -139t65.5 -231t-77.5 -272t-245.5 -292t-310 -253v-4q195 6 424 6h239v-223h-974v238q242 197 378 327.5t200.5 236t64.5 212.5t-71 161t-185 54q-162 0 -330 -96l-29 237q176 84 426 84z" />
    <glyph glyph-name="three" unicode="3" horiz-adv-x="1220" 
d="M1057 1081q0 -139 -91.5 -225t-248.5 -106v-7q162 -16 260 -110.5t98 -230.5t-74.5 -230t-209.5 -145.5t-323 -51.5t-357 54l14 239q189 -74 339 -74t235 54.5t85 165.5q0 217 -387 217q-47 0 -71 -2v213q45 -4 69 -4q379 0 379 204q0 94 -75 145.5t-225 51.5t-304 -72
l-18 226q162 61 396 61t371.5 -99.5t137.5 -273.5z" />
    <glyph glyph-name="four" unicode="4" horiz-adv-x="1220" 
d="M711 510v242q0 254 8 467h-4q-64 -124 -203 -353l-221 -356h420zM1171 510v-217h-194v-293h-272v293h-662v229l586 908h348v-920h194z" />
    <glyph glyph-name="five" unicode="5" horiz-adv-x="1220" 
d="M805 453q0 258 -342 258q-135 0 -281 -47l11 766h847v-216h-598l-8 -313q70 14 188 14t231.5 -54t176 -154.5t62.5 -244.5t-73 -255t-207 -171.5t-310 -60.5t-334 43l4 242q147 -63 301 -63t243 66.5t89 189.5z" />
    <glyph glyph-name="six" unicode="6" horiz-adv-x="1220" 
d="M389 459q0 -121 68.5 -202t177.5 -81t170 78t61 198t-54 193.5t-169 73.5q-63 0 -122.5 -35t-95.5 -95.5t-36 -129.5zM756 1239q-180 0 -282.5 -124t-106.5 -347h4q53 72 143 114t188 42q203 0 323 -125t120 -330q0 -143 -63.5 -255t-182.5 -175.5t-278 -63.5
q-262 0 -396.5 177.5t-134.5 513.5q0 250 78 427t224 269t338 92t319 -45l-29 -225q-129 55 -264 55z" />
    <glyph glyph-name="seven" unicode="7" horiz-adv-x="1220" 
d="M98 1202v228h987v-236l-522 -1194h-317l547 1202h-695z" />
    <glyph glyph-name="eight" unicode="8" horiz-adv-x="1220" 
d="M362 391q0 -98 69 -155.5t179 -57.5t182 57.5t72 151.5t-66.5 155.5t-211.5 106.5q-224 -81 -224 -258zM381 1077q0 -84 63.5 -139t188.5 -98q190 82 190 231q0 90 -58.5 138t-156.5 48t-162.5 -48t-64.5 -132zM1104 1104q0 -115 -64.5 -196t-203.5 -146
q168 -61 240.5 -148.5t72.5 -219.5t-70.5 -226t-193.5 -143.5t-279 -49.5q-240 0 -386 106.5t-146 291.5q0 129 76.5 220t236.5 155q-152 59 -215 139.5t-63 194.5t63.5 198t178 129t263.5 45q217 0 353.5 -94t136.5 -256z" />
    <glyph glyph-name="nine" unicode="9" horiz-adv-x="1220" 
d="M369 976q0 -118 59.5 -187.5t165.5 -69.5t171.5 71.5t65.5 186.5t-64.5 195.5t-169.5 80.5t-166.5 -79.5t-61.5 -197.5zM604 1454q526 0 526 -710q0 -360 -171 -564.5t-484 -204.5q-188 0 -323 52l26 227q137 -63 281 -64q193 0 292 126t103 356h-4q-53 -78 -142.5 -119
t-189.5 -41q-197 0 -315.5 120t-118.5 322q0 143 62.5 257t180 178.5t277.5 64.5z" />
    <glyph glyph-name="colon" unicode=":" horiz-adv-x="573" 
d="M141 0v295h293v-295h-293zM141 760v295h293v-295h-293z" />
    <glyph glyph-name="semicolon" unicode=";" horiz-adv-x="573" 
d="M49 -229l133 516h283l-186 -516h-230zM141 760v295h293v-295h-293z" />
    <glyph glyph-name="less" unicode="&#x3c;" horiz-adv-x="1220" 
d="M616 637q-198 -67 -335 -96v-4q90 -23 335 -103l523 -176v-268l-1057 391v307l1057 393v-266z" />
    <glyph glyph-name="equal" unicode="=" horiz-adv-x="1220" 
d="M74 199v221h1073v-221h-1073zM74 651v221h1073v-221h-1073z" />
    <glyph glyph-name="greater" unicode="&#x3e;" horiz-adv-x="1220" 
d="M1139 381l-1057 -391v268l522 176q246 80 336 103v4q-155 33 -336 96l-522 178v266l1057 -393v-307z" />
    <glyph glyph-name="question" unicode="?" horiz-adv-x="1032" 
d="M360 0v274h287v-274h-287zM446 1229q-164 0 -315 -80l-29 235q203 70 413 70t338 -93t128 -267q0 -90 -44.5 -171t-148.5 -191t-130.5 -171t-26.5 -125v-26h-250v26q0 117 29.5 187.5t115.5 166.5t119 152.5t33 114.5q0 88 -62.5 130t-169.5 42z" />
    <glyph glyph-name="at" unicode="@" horiz-adv-x="2048" 
d="M836 509q0 -179 114 -179q133 0 187.5 192.5t54.5 248.5t-30 95t-86 39t-112.5 -60.5t-92 -154.5t-35.5 -181zM1032 1079q176 0 232 -151h4l26 112h222l-125 -460q-35 -133 -35 -177q0 -80 80 -79q66 0 122 58t87.5 158t31.5 242t-71.5 263.5t-200.5 187t-313 65.5
t-346 -95t-255.5 -264t-93.5 -379t85 -358.5t238.5 -228t387.5 -79.5t457 110l53 -174q-236 -113 -526 -113t-491.5 102.5t-309 293t-107.5 446.5t120 461t327 320.5t447 115.5t416.5 -83t274 -240.5t97.5 -376.5q0 -162 -57.5 -302.5t-165 -224.5t-250.5 -84
q-88 0 -148.5 44t-60.5 120q0 20 2 39h-4q-47 -98 -127 -150.5t-176 -52.5q-141 0 -218 99.5t-77 255.5t61.5 288t163.5 211.5t223 79.5z" />
    <glyph glyph-name="A" unicode="A" horiz-adv-x="1488" 
d="M731 1204q-41 -140 -104 -323l-119 -334h444l-118 334q-41 112 -99 323h-4zM1155 0l-125 330h-596l-125 -330h-297l561 1430h326l569 -1430h-313z" />
    <glyph glyph-name="B" unicode="B" horiz-adv-x="1282" 
d="M451 215h94q178 0 261 49t83 159t-86 157t-273 47h-79v-412zM451 827h75q164 0 248 41t84 153t-81 154t-222 42h-104v-390zM610 1430q531 0 531 -367q0 -125 -76 -211t-221 -117v-4q158 -20 246 -109.5t88 -230.5q0 -207 -160 -299t-402 -92h-444v1430h438z" />
    <glyph glyph-name="C" unicode="C" horiz-adv-x="1267" 
d="M877 1210q-217 0 -345.5 -127t-128.5 -360q0 -154 62.5 -266.5t171 -172t261.5 -59.5t298 56l10 -248q-137 -47 -351 -47t-389 87t-272.5 251t-97.5 386t98.5 388t271.5 256t377 90t357 -51l-20 -248q-141 65 -303 65z" />
    <glyph glyph-name="D" unicode="D" horiz-adv-x="1505" 
d="M461 219h76q260 0 415.5 117t155.5 381t-153.5 375.5t-417.5 111.5h-76v-985zM1407 709q0 -242 -161.5 -475.5t-682.5 -233.5h-391v1430h391q389 0 616.5 -172.5t227.5 -548.5z" />
    <glyph glyph-name="E" unicode="E" horiz-adv-x="1148" 
d="M457 1192v-344h516v-232h-516v-376h567v-240h-852v1430h846v-238h-561z" />
    <glyph glyph-name="F" unicode="F" horiz-adv-x="1048" 
d="M461 1190v-361h483v-233h-483v-596h-289v1430h799v-240h-510z" />
    <glyph glyph-name="G" unicode="G" horiz-adv-x="1482" 
d="M905 1212q-150 0 -263.5 -60t-174.5 -172t-61 -261q0 -227 130 -361.5t363 -134.5q104 0 168 21v356h-305v229h579v-768q-219 -75 -459 -75t-414.5 89t-273 256t-98.5 389t99.5 385t283 251t425.5 88t401 -55l-21 -256q-158 79 -379 79z" />
    <glyph glyph-name="H" unicode="H" horiz-adv-x="1497" 
d="M1036 0v618h-573v-618h-291v1430h291v-570h573v570h289v-1430h-289z" />
    <glyph glyph-name="I" unicode="I" horiz-adv-x="632" 
d="M172 0v1430h289v-1430h-289z" />
    <glyph glyph-name="J" unicode="J" horiz-adv-x="802" 
d="M221 -25q-109 0 -194 29l8 250q63 -20 147 -20t126 56t42 181v959h291v-988q0 -227 -99.5 -347t-320.5 -120z" />
    <glyph glyph-name="K" unicode="K" horiz-adv-x="1378" 
d="M461 688v-688h-289v1430h289v-623h4q135 172 248 307l268 316h358l-604 -668l662 -762h-389l-316 385q-94 113 -227 303h-4z" />
    <glyph glyph-name="L" unicode="L" horiz-adv-x="1052" 
d="M1016 246v-246h-844v1430h289v-1184h555z" />
    <glyph glyph-name="M" unicode="M" horiz-adv-x="1959" 
d="M1511 0v698q0 279 7 525h-5q-33 -115 -110 -355l-29 -92l-276 -776h-258l-267 768q-55 156 -139 455h-4q6 -246 6 -525v-698h-264v1430h463l223 -682q66 -203 121 -424h4l21 71q80 272 106 353l229 682h449v-1430h-277z" />
    <glyph glyph-name="N" unicode="N" horiz-adv-x="1536" 
d="M432 668v-668h-260v1430h385l361 -707q77 -150 194 -418h4q-12 234 -12 524v601h260v-1430h-365l-366 700q-120 235 -207 441h-4q10 -153 10 -473z" />
    <glyph glyph-name="O" unicode="O" horiz-adv-x="1605" 
d="M414 714q0 -154 49 -271t138 -180.5t204 -63.5t203 64.5t137 182t49 272.5t-49 271.5t-138 179t-206 62.5t-204 -64.5t-135 -181.5t-48 -271zM1501 720q0 -224 -87 -393t-245.5 -260.5t-368.5 -91.5t-368 90.5t-243 257t-85 390.5q0 354 186.5 547.5t524.5 193.5
q209 0 363.5 -89t238.5 -255t84 -390z" />
    <glyph glyph-name="P" unicode="P" horiz-adv-x="1175" 
d="M461 764h51q160 0 244 48t84 174t-80 176t-248 50h-51v-448zM1135 994q0 -243 -165 -346t-438 -103h-71v-545h-289v1430h360q275 0 439 -96.5t164 -339.5z" />
    <glyph glyph-name="Q" unicode="Q" horiz-adv-x="1605" 
d="M414 714q0 -154 49 -272t138 -182.5t204 -64.5t203 65.5t137 184t49 273.5t-49 271.5t-138 179t-206 62.5t-204 -64.5t-135 -181.5t-48 -271zM1501 714q0 -230 -93 -402.5t-261 -260.5l319 -325h-350l-233 256q-43 -6 -84 -7q-209 0 -367 90.5t-243 257t-85 390.5
q0 354 186.5 547.5t524.5 193.5q209 0 363.5 -89t238.5 -255t84 -396z" />
    <glyph glyph-name="R" unicode="R" horiz-adv-x="1273" 
d="M461 815h84q172 0 250.5 47t78.5 156t-79.5 147.5t-249.5 38.5h-84v-389zM1171 1055q0 -139 -77.5 -224.5t-221.5 -113.5v-4q72 -18 109 -60.5t74 -130.5l221 -522h-318l-159 406q-33 84 -58.5 120.5t-70.5 52t-133 15.5h-76v-594h-289v1430h414q288 0 436.5 -82
t148.5 -293z" />
    <glyph glyph-name="S" unicode="S" horiz-adv-x="1122" 
d="M399 1071q0 -72 53.5 -118.5t229.5 -110.5t265 -163t89 -245t-65.5 -248t-187 -156.5t-303.5 -54.5t-361 62l26 252q169 -82 311 -82t213.5 47t71.5 131q0 55 -35 112t-234 131q-200 73 -285 167t-85 232t64.5 232.5t180.5 144.5t287 50t327 -51l-23 -234
q-154 61 -279 61t-192.5 -43.5t-67.5 -115.5z" />
    <glyph glyph-name="T" unicode="T" horiz-adv-x="1157" 
d="M721 0h-293v1194l-391 -6v242h1083v-242l-399 6v-1194z" />
    <glyph glyph-name="U" unicode="U" horiz-adv-x="1486" 
d="M733 -25q-295 0 -433 146.5t-138 445.5v863h291v-842q0 -199 70.5 -290t224.5 -91t227.5 91t73.5 290v842h276v-863q0 -293 -148.5 -442.5t-443.5 -149.5z" />
    <glyph glyph-name="V" unicode="V" horiz-adv-x="1386" 
d="M516 0l-506 1430h309l304 -932q14 -45 24 -74l53 -174h5q39 139 73 248l307 932h291l-510 -1430h-350z" />
    <glyph glyph-name="W" unicode="W" horiz-adv-x="2121" 
d="M1339 0l-225 956q-45 207 -53 269h-4q-16 -121 -47 -269l-213 -956h-365l-395 1430h309l207 -857q55 -254 68 -350h4q16 101 65 350l187 857h383l196 -857q25 -107 66 -350h4q27 170 67 350l205 857h287l-383 -1430h-363z" />
    <glyph glyph-name="X" unicode="X" horiz-adv-x="1382" 
d="M1346 0h-342l-146 246q-104 175 -170 311q-45 -84 -184 -311l-150 -246h-327l487 735l-459 695h344l154 -263q92 -162 154 -274q96 186 145 272l152 265h307l-441 -695z" />
    <glyph glyph-name="Y" unicode="Y" horiz-adv-x="1361" 
d="M829 0h-288v569l-529 861h338l162 -289q72 -125 180 -344h4q55 109 183 344l157 289h314l-521 -863v-567z" />
    <glyph glyph-name="Z" unicode="Z" horiz-adv-x="1146" 
d="M1081 240v-240h-1013v244q238 342 436 612t252 336h-662v238h971v-240q-534 -762 -690 -950h706z" />
    <glyph glyph-name="bracketleft" unicode="[" horiz-adv-x="737" 
d="M424 1366v-1460h205v-193h-457v1843h457v-190h-205z" />
    <glyph glyph-name="backslash" unicode="\" horiz-adv-x="1034" 
d="M643 0l-500 1430h246l502 -1430h-248z" />
    <glyph glyph-name="bracketright" unicode="]" horiz-adv-x="737" 
d="M109 -287v193h202v1460h-202v190h456v-1843h-456z" />
    <glyph glyph-name="underscore" unicode="_" horiz-adv-x="1024" 
d="M0 -262v102h1024v-102h-1024z" />
    <glyph glyph-name="grave" unicode="`" horiz-adv-x="1024" 
d="M516 1186l-293 362h285l172 -362h-164z" />
    <glyph glyph-name="a" unicode="a" horiz-adv-x="1140" 
d="M676 489q-336 1 -336 -155t164 -156q115 0 188.5 77t73.5 230q-39 4 -90 4zM561 1079q457 0 457 -430q0 -98 -2 -155l-2 -158q0 -174 14 -336h-240q-4 33 -4 72t4 104h-4q-119 -197 -362 -196q-156 0 -254 88t-98 246t140 247.5t402 89.5q76 0 150 -6q0 121 -59.5 177.5
t-206.5 56.5t-303 -95l-11 213q164 82 379 82z" />
    <glyph glyph-name="b" unicode="b" horiz-adv-x="1296" 
d="M426 526.5q0 -147.5 71.5 -243t188.5 -95.5t183.5 95t66.5 247t-64.5 244t-182.5 92t-190.5 -96t-72.5 -243.5zM756 -25q-234 0 -346 195h-4q0 -88 -9 -170h-254q10 111 11 315v1233h270v-364q0 -172 -6 -293h4q125 188 354 188q133 0 232.5 -68.5t152.5 -192.5t53 -284
t-55 -287.5t-159.5 -199.5t-243.5 -72z" />
    <glyph glyph-name="c" unicode="c" horiz-adv-x="942" 
d="M672 862q-150 0 -233 -94t-83 -242t81 -238.5t241 -90.5q96 0 178 36l14 -215q-100 -32 -248 -32t-278.5 65.5t-202 187t-71.5 285.5t76.5 287t206 189.5t271.5 66.5t234 -29l-20 -209q-78 33 -166 33z" />
    <glyph glyph-name="d" unicode="d" horiz-adv-x="1294" 
d="M365 526.5q0 -149.5 68.5 -245t182.5 -95.5t186 95t72 245t-71 246t-187 96t-183.5 -96t-67.5 -245.5zM541 1079q224 0 331 -188h5q-6 121 -7 293v364h271v-1233q0 -204 10 -315h-250q-6 74 -6 184h-4q-117 -209 -352 -209q-139 0 -242.5 68t-159 192.5t-55.5 288.5
t57.5 290t160.5 195.5t241 69.5z" />
    <glyph glyph-name="e" unicode="e" horiz-adv-x="1150" 
d="M819 639q0 125 -58.5 185.5t-158.5 60.5t-167.5 -63.5t-78.5 -182.5h463zM1071 516q0 -37 -4 -65h-707q2 -121 93 -194t247 -73t293 86l4 -225q-145 -70 -331 -70t-315.5 65.5t-200 191.5t-70.5 292t66.5 290t186.5 194.5t275 70.5q463 0 463 -563z" />
    <glyph glyph-name="f" unicode="f" horiz-adv-x="802" 
d="M646 1346q-65 0 -95.5 -48.5t-30.5 -164.5v-78h242v-203h-242v-852h-274v852h-207v203h207v73q0 221 91 324.5t290 103.5q85 0 157 -20l-22 -213q-51 23 -116 23z" />
    <glyph glyph-name="g" unicode="g" horiz-adv-x="1290" 
d="M365 536.5q0 -143.5 66.5 -232.5t180.5 -89t186 92.5t72 232.5t-73 234t-185 94t-179.5 -94t-67.5 -237.5zM874 190q-112 -190 -346 -190q-126 0 -229.5 65.5t-160 185t-56.5 277.5t57.5 284t165 196.5t248.5 70.5q225 1 334 -192h4q-4 66 -4 168h254v-973
q0 -248 -138.5 -392.5t-416.5 -144.5q-233 0 -420 70l20 233q184 -98 377 -98q143 0 227 83t84 249q0 72 5 108h-5z" />
    <glyph glyph-name="h" unicode="h" horiz-adv-x="1290" 
d="M757 1079q208 0 299 -120.5t91 -346.5v-612h-270v508q0 119 -20 235.5t-177 116.5q-125 0 -190.5 -101.5t-65.5 -281.5v-477h-270v1548h270v-415q0 -66 -6 -256h4q127 202 335 202z" />
    <glyph glyph-name="i" unicode="i" horiz-adv-x="589" 
d="M158 0v1055h274v-1055h-274zM158 1255v263h274v-263h-274z" />
    <glyph glyph-name="j" unicode="j" horiz-adv-x="589" 
d="M88 -455q-70 0 -113 11l11 204l41 -4q76 0 103.5 46t27.5 161v1092h274v-1129q0 -188 -87 -284.5t-257 -96.5zM158 1255v263h274v-263h-274z" />
    <glyph glyph-name="k" unicode="k" horiz-adv-x="1163" 
d="M432 537v-537h-278v1548h278v-940h4q55 78 185 236l180 211h315l-426 -469l473 -586h-342l-205 276q-94 129 -180 261h-4z" />
    <glyph glyph-name="l" unicode="l" horiz-adv-x="589" 
d="M158 0v1548h274v-1548h-274z" />
    <glyph glyph-name="m" unicode="m" horiz-adv-x="1914" 
d="M1772 614v-614h-277v586q0 274 -176 274q-100 0 -160.5 -90t-60.5 -248v-522h-277v637q0 100 -45 161.5t-134 61.5t-153.5 -92t-64.5 -236v-532h-274v727q0 186 -11 328h256q6 -68 6 -181h5q49 94 146 149.5t205.5 55.5t190.5 -55t109 -154q55 100 153.5 154.5
t214.5 54.5q185 0 266 -126t81 -339z" />
    <glyph glyph-name="n" unicode="n" horiz-adv-x="1284" 
d="M762 1079q201 0 290 -120.5t89 -344.5v-614h-271v508q0 123 -17.5 237.5t-172.5 114.5q-142 0 -221 -150q-39 -74 -39 -233v-477h-270v727q0 186 -11 328h260q8 -90 9 -176h4q123 200 350 200z" />
    <glyph glyph-name="o" unicode="o" horiz-adv-x="1269" 
d="M373 530q0 -162 70.5 -254t191.5 -92t193.5 94.5t72.5 256t-70.5 252t-194.5 90.5t-193.5 -92.5t-69.5 -254.5zM1190 525q0 -165 -69.5 -288.5t-195.5 -192.5t-289 -69t-289 70t-196.5 195.5t-70.5 289.5t69.5 289t197.5 192.5t292 67.5t288 -68.5t193.5 -194.5
t69.5 -291z" />
    <glyph glyph-name="p" unicode="p" horiz-adv-x="1292" 
d="M420 526.5q0 -147.5 71.5 -244t188.5 -96.5t182.5 95.5t65.5 249t-65.5 243.5t-181.5 90t-188.5 -95t-72.5 -242.5zM1210 536q0 -164 -56 -291.5t-158.5 -198.5t-239.5 -71q-219 0 -338 191h-4q6 -61 6 -256v-340h-275v1165q0 209 -10 320h262q8 -86 9 -170h4
q70 100 153.5 147t210.5 47t227.5 -66.5t154.5 -189.5t54 -287z" />
    <glyph glyph-name="q" unicode="q" horiz-adv-x="1292" 
d="M365 532q0 -152 67.5 -245.5t183.5 -93.5t187 91.5t71 241.5t-74 246t-190 96t-180.5 -92t-64.5 -244zM539 1079q229 0 344 -194h4q0 63 12 170h256q-6 -68 -6 -162v-1323h-275v340q0 143 9 258h-6q-124 -191 -336 -191q-139 0 -242.5 70t-160 197t-56.5 293t55.5 287.5
t158.5 188t243 66.5z" />
    <glyph glyph-name="r" unicode="r" horiz-adv-x="806" 
d="M424 430v-430h-279v741q0 203 -10 314h258q8 -94 8 -201h5q90 225 303 225q55 0 90 -12l-6 -236q-43 14 -95 15q-274 0 -274 -416z" />
    <glyph glyph-name="s" unicode="s" horiz-adv-x="915" 
d="M350 775q0 -52 38 -79.5t172 -72.5t208 -115t74 -197q0 -160 -118 -248t-305 -88t-335 56l14 217q150 -72 297 -72q74 0 123 30t49 75t-22.5 79t-179.5 89t-221 123.5t-64 183.5q0 150 113.5 236.5t291.5 86.5t299 -49l-22 -205q-132 59 -228 59t-140 -28.5t-44 -80.5z
" />
    <glyph glyph-name="t" unicode="t" horiz-adv-x="794" 
d="M737 1055v-203h-252v-412q0 -125 34 -178t130 -53q51 0 101 16l6 -211q-74 -27 -189 -26q-180 0 -262 94t-82 303v467h-203v203h207v221l258 88v-309h252z" />
    <glyph glyph-name="u" unicode="u" horiz-adv-x="1284" 
d="M881 174h-4q-123 -199 -363 -199q-168 0 -269.5 112t-101.5 298v670h271v-547q0 -152 43 -229.5t157 -77.5t181 93t67 234v527h273v-742q0 -225 10 -313h-256q-8 86 -8 174z" />
    <glyph glyph-name="v" unicode="v" horiz-adv-x="1144" 
d="M416 0l-387 1055h297l184 -586q49 -158 72 -256h4q39 152 73 256l187 586h276l-383 -1055h-323z" />
    <glyph glyph-name="w" unicode="w" horiz-adv-x="1837" 
d="M1145 0l-166 604q-25 92 -53 252h-4q-29 -139 -60 -252l-166 -604h-340l-327 1055h293l155 -572q39 -160 60 -270h4q19 117 63 268l152 574h338l163 -572q36 -131 62 -270h4q24 124 59 268l154 574h272l-325 -1055h-338z" />
    <glyph glyph-name="x" unicode="x" horiz-adv-x="1144" 
d="M1118 0h-319l-125 211q-41 68 -107 192h-4q-31 -59 -110 -198l-121 -205h-309l372 545l-344 510h322l110 -189q33 -57 101 -184h4q29 63 98 184l107 189h299l-342 -510z" />
    <glyph glyph-name="y" unicode="y" horiz-adv-x="1146" 
d="M276 -455q-102 0 -196 29l20 205q170 -54 236.5 7.5t97.5 168.5l-409 1100h299l163 -510q35 -111 97 -324h4q49 182 96 324l164 510h276l-415 -1129q-70 -182 -169.5 -281.5t-263.5 -99.5z" />
    <glyph glyph-name="z" unicode="z" horiz-adv-x="1032" 
d="M963 207v-207h-893v229q408 465 563 621h-545v205h856v-219q-409 -475 -563 -629h582z" />
    <glyph glyph-name="braceleft" unicode="{" horiz-adv-x="737" 
d="M461 1112v-84q0 -133 -21.5 -214t-76 -124t-154.5 -53v-4q100 -14 154.5 -59.5t76 -124t21.5 -207.5v-86q0 -143 45 -209t153 -76v-158q-176 12 -271 57.5t-135 137.5t-40 256v115q0 94 -24.5 175t-180.5 103v156q156 26 180.5 106t24.5 172v113q0 162 40 255t135 139
t271 58v-157q-108 -10 -153 -77t-45 -210z" />
    <glyph glyph-name="braceright" unicode="}" horiz-adv-x="737" 
d="M524 1106v-115q0 -94 24.5 -175t180.5 -103v-156q-156 -26 -180.5 -106t-24.5 -172v-113q0 -162 -40 -255t-135 -139t-271 -59v158q109 10 153.5 76.5t44.5 210.5v84q0 133 21.5 214t76 124t154.5 53v4q-100 14 -154.5 59t-76 124t-21.5 208v86q0 143 -45 209t-153 76
v157q176 -12 271 -57t135 -137t40 -256z" />
    <glyph glyph-name="asciitilde" unicode="~" horiz-adv-x="1220" 
d="M887 547q72 0 137.5 43t103.5 106v-256q-45 -55 -119.5 -88t-153.5 -33t-138.5 23t-138.5 65t-129.5 61t-122.5 19t-137.5 -43t-104.5 -106v256q45 55 120.5 88t153.5 33t137.5 -22.5t138.5 -64.5t130 -61.5t123 -19.5z" />
    <glyph glyph-name="uni00A0" unicode="&#xa0;" horiz-adv-x="512" 
 />
    <glyph glyph-name="exclamdown" unicode="&#xa1;" horiz-adv-x="700" 
d="M186 -375l50 1016h229l45 -1016h-324zM209 780v275h285v-275h-285z" />
    <glyph glyph-name="cent" unicode="&#xa2;" horiz-adv-x="1220" 
d="M496 521q0 -128 77 -216l168 539q-114 -23 -179.5 -109t-65.5 -214zM826 209q98 0 184 37l10 -228q-100 -32 -216 -32t-206 22l-84 -272h-117l97 309q-135 63 -210 186t-75 290t76.5 290t208 189.5t286.5 66.5h31l78 252h119l-82 -262q41 -7 82 -19l-25 -221
q-66 25 -123 31l-190 -612q58 -27 156 -27z" />
    <glyph glyph-name="sterling" unicode="&#xa3;" horiz-adv-x="1220" 
d="M887 1214q-127 0 -199 -85t-72 -236v-62h306v-155h-306v-459h461v-217h-930v217h181v459h-154v155h154v68q0 268 134 406.5t396 138.5q123 0 238 -35l-17 -231q-101 36 -192 36z" />
    <glyph glyph-name="currency" unicode="&#xa4;" horiz-adv-x="1220" 
d="M426 715q0 -84 52 -140.5t133 -56.5t134.5 56.5t53.5 141.5t-54.5 140t-134.5 55t-132 -56t-52 -140zM215 714q0 110 53 197l-186 187l141 141l187 -186q100 57 204 57t195 -55l184 184l144 -141l-185 -185q55 -94 55.5 -198.5t-57.5 -202.5l187 -184l-144 -142l-186 185
q-92 -53 -200 -53t-197 55l-187 -187l-141 142l186 186q-53 90 -53 200z" />
    <glyph glyph-name="yen" unicode="&#xa5;" horiz-adv-x="1220" 
d="M1065 758v-152h-291l-14 -31v-94h305v-151h-305v-330h-293v330h-307v151h307v86l-23 39h-284v152h205l-355 672h314l141 -289q39 -80 156 -344h4q47 111 157 344l138 289h290l-354 -672h209z" />
    <glyph glyph-name="dieresis" unicode="&#xa8;" horiz-adv-x="1024" 
d="M606 1266v239h236v-239h-236zM182 1266v239h236v-239h-236z" />
    <glyph glyph-name="ordfeminine" unicode="&#xaa;" horiz-adv-x="897" 
d="M522 989q-239 0 -239 -123q0 -49 31.5 -76.5t84.5 -27.5q86 0 134.5 57.5t48.5 167.5q-20 2 -60 2zM438 1438q363 0 363 -332l-2 -199v-16q0 -145 12 -268h-209q-4 12 -4 58t2 73h-2q-86 -142 -270 -142q-123 0 -200 65.5t-77 184.5t106.5 186.5t307.5 67.5q76 0 115 -4
q0 84 -44 124t-156 40t-230 -68l-9 172q118 58 297 58z" />
    <glyph glyph-name="guillemotleft" unicode="&#xab;" horiz-adv-x="1122" 
d="M1026 106h-250l-237 412l237 414h250l-217 -414zM571 106h-252l-237 412l237 414h252l-219 -414z" />
    <glyph glyph-name="logicalnot" unicode="&#xac;" horiz-adv-x="1220" 
d="M893 201v450h-832v209h1057v-659h-225z" />
    <glyph glyph-name="uni00AD" unicode="&#xad;" horiz-adv-x="686" 
d="M76 438v230h545v-230h-545z" />
    <glyph glyph-name="plusminus" unicode="&#xb1;" horiz-adv-x="1220" 
d="M74 0v221h1073v-221h-1073zM1147 801v-221h-416v-269h-237v269h-420v221h420v270h237v-270h416z" />
    <glyph glyph-name="uni00B2" unicode="&#xb2;" 
d="M344 1749q146 0 233 -63t87 -189q0 -165 -184 -330q-96 -86 -177 -141v-4q78 4 252 4h127v-149h-604v151q211 166 295 262t84 171q0 136 -146 134q-100 0 -198 -57l-19 160q104 51 250 51z" />
    <glyph glyph-name="uni00B3" unicode="&#xb3;" 
d="M262 1384q209 0 209 110t-176 110q-92 0 -180 -43l-13 151q102 37 249 37t232 -59t85 -164q0 -168 -197 -199v-4q97 -11 153 -67t56 -142q0 -116 -104 -184t-252 -68t-246 29l10 162q119 -43 209 -43q184 0 184 120t-219 117l-47 -4v143q14 -2 47 -2z" />
    <glyph glyph-name="acute" unicode="&#xb4;" horiz-adv-x="1024" 
d="M344 1186l172 362h285l-293 -362h-164z" />
    <glyph glyph-name="periodcentered" unicode="&#xb7;" horiz-adv-x="532" 
d="M121 410v286h293v-286h-293z" />
    <glyph glyph-name="cedilla" unicode="&#xb8;" horiz-adv-x="1024" 
d="M510 -125q86 0 143.5 -38t57.5 -126t-74 -135t-166 -47t-158 14l13 103q66 -10 106 -11q113 0 113 70t-103 70q-51 0 -102 -11l25 254h129l-25 -145q16 2 41 2z" />
    <glyph glyph-name="uni00B9" unicode="&#xb9;" 
d="M346 877v426q0 170 6 237h-4q-31 -31 -112 -94l-43 -33l-93 133l267 189h180v-858h-201z" />
    <glyph glyph-name="ordmasculine" unicode="&#xba;" horiz-adv-x="989" 
d="M307 1019.5q0 -110.5 51.5 -178t136.5 -67.5t137 66.5t52 179.5t-51 179.5t-137 66.5t-137.5 -68t-51.5 -178.5zM934 1018q0 -125 -55.5 -219t-154.5 -146.5t-229 -52.5t-229.5 52.5t-155 147.5t-55.5 218q0 193 121 305.5t324 112.5q129 0 227 -51.5t152.5 -146.5
t54.5 -220z" />
    <glyph glyph-name="guillemotright" unicode="&#xbb;" horiz-adv-x="1122" 
d="M803 106h-252l217 412l-217 414h252l237 -414zM346 106h-250l217 412l-217 414h250l238 -414z" />
    <glyph glyph-name="onequarter" unicode="&#xbc;" horiz-adv-x="1843" 
d="M346 575v426q0 170 6 238h-4q-31 -31 -112 -94l-43 -33l-93 133l267 189h180v-859h-201zM420 -45l850 1565h172l-850 -1565h-172zM1499 315v97q0 145 6 295h-2q-43 -85 -133 -228l-104 -164h233zM1800 315v-145h-119v-170h-186v170h-393v156l352 532h227v-543h119z" />
    <glyph glyph-name="onehalf" unicode="&#xbd;" horiz-adv-x="1843" 
d="M346 575v426q0 170 6 238h-4q-31 -31 -112 -94l-43 -33l-93 133l267 189h180v-859h-201zM420 -45l850 1565h172l-850 -1565h-172zM1409 872q145 0 232 -63t88 -188q0 -163 -184 -331q-95 -86 -177 -140v-5q78 4 252 5h127v-150h-604v152q211 166 295 262t84 170t-40 105
q-40 30 -123 30t-181 -57l-19 159q105 51 250 51z" />
    <glyph glyph-name="threequarters" unicode="&#xbe;" horiz-adv-x="1843" 
d="M262 1083q209 0 209 110t-176 110q-92 0 -180 -43l-13 151q102 37 249 37t232 -59t85 -164q0 -168 -197 -199v-4q97 -12 153 -68t56 -141q0 -117 -104 -185t-252 -67q-148 0 -246 29l10 162q119 -43 209 -43q184 0 184 120t-219 117l-47 -4v143q14 -2 47 -2zM420 -45
l850 1565h172l-850 -1565h-172zM1499 315v97q0 145 6 295h-2q-43 -85 -133 -228l-104 -164h233zM1800 315v-145h-119v-170h-186v170h-393v156l352 532h227v-543h119z" />
    <glyph glyph-name="questiondown" unicode="&#xbf;" horiz-adv-x="1032" 
d="M586 -178q164 0 315 80l29 -236q-203 -70 -413 -70t-338 95.5t-128 269.5q0 90 44.5 171.5t148.5 191.5t130.5 170.5t26.5 123.5v27h250v-27q0 -116 -29.5 -187t-115.5 -167t-119 -152.5t-33 -113.5q0 -90 63.5 -133t168.5 -43zM385 780v275h287v-275h-287z" />
    <glyph glyph-name="Agrave" unicode="&#xc0;" horiz-adv-x="1488" 
d="M731 1204q-36 -124 -104 -323l-119 -334h444l-118 334q-54 148 -99 323h-4zM1155 0l-125 330h-596l-125 -330h-297l561 1430h326l569 -1430h-313zM684 1536l-293 309h293l172 -309h-172z" />
    <glyph glyph-name="Aacute" unicode="&#xc1;" horiz-adv-x="1488" 
d="M731 1204q-36 -124 -104 -323l-119 -334h444l-118 334q-54 148 -99 323h-4zM1155 0l-125 330h-596l-125 -330h-297l561 1430h326l569 -1430h-313zM612 1536l172 309h293l-293 -309h-172z" />
    <glyph glyph-name="Acircumflex" unicode="&#xc2;" horiz-adv-x="1488" 
d="M731 1204q-36 -124 -104 -323l-119 -334h444l-118 334q-54 148 -99 323h-4zM1155 0l-125 330h-596l-125 -330h-297l561 1430h326l569 -1430h-313zM883 1536l-146 176l-143 -176h-182l231 309h211l217 -309h-188z" />
    <glyph glyph-name="Atilde" unicode="&#xc3;" horiz-adv-x="1488" 
d="M731 1204q-36 -124 -104 -323l-119 -334h444l-118 334q-54 148 -99 323h-4zM1155 0l-125 330h-596l-125 -330h-297l561 1430h326l569 -1430h-313zM903 1714q74 0 86 103h107q-11 -123 -65 -189t-144 -65q-55 0 -165 41t-150 42t-62 -21t-33 -75h-106q14 117 71 184
t150 66q63 0 169 -43t142 -43z" />
    <glyph glyph-name="Adieresis" unicode="&#xc4;" horiz-adv-x="1488" 
d="M731 1204q-36 -124 -104 -323l-119 -334h444l-118 334q-54 148 -99 323h-4zM1155 0l-125 330h-596l-125 -330h-297l561 1430h326l569 -1430h-313zM834 1583v240h235v-240h-235zM410 1583v240h235v-240h-235z" />
    <glyph glyph-name="Aring" unicode="&#xc5;" horiz-adv-x="1488" 
d="M731 1204q-36 -124 -104 -323l-119 -334h444l-118 334q-54 148 -99 323h-4zM1155 0l-125 330h-596l-125 -330h-297l561 1430h326l569 -1430h-313zM737 1593q47 0 82 35t35 83t-35 83t-82 35t-81 -34t-34 -82t34 -84t81 -36zM952 1712q0 -88 -63 -150t-151 -62t-149 62
q-62 62 -63 150q0 88 64 150t150 63q88 0 150 -63q62 -62 62 -150z" />
    <glyph glyph-name="AE" unicode="&#xc6;" horiz-adv-x="1947" 
d="M961 1247q-70 -158 -166 -338l-187 -352h414l-33 352q-20 225 -24 338h-4zM1765 848v-232h-458l32 -376h484v-240h-756l-27 328h-555l-174 -328h-307l784 1430h1018v-238h-553l31 -344h481z" />
    <glyph glyph-name="Ccedilla" unicode="&#xc7;" horiz-adv-x="1267" 
d="M403 723q0 -154 62.5 -266.5t171 -172t261.5 -59.5t298 56l10 -248q-137 -47 -334 -47q-41 0 -57 2l-18 -115q16 2 41 2q86 0 143 -38t57 -126t-74 -135t-166 -47t-157 14l12 103q66 -10 107 -11q113 0 112 72q0 68 -102 68q-51 0 -102 -11l22 236q-279 45 -436.5 231.5
t-157.5 483.5q0 219 99.5 384t275 255t371.5 90t358 -51l-20 -248q-145 66 -303 65q-217 0 -345.5 -127t-128.5 -360z" />
    <glyph glyph-name="Egrave" unicode="&#xc8;" horiz-adv-x="1148" 
d="M457 1192v-344h516v-232h-516v-376h567v-240h-852v1430h846v-238h-561zM549 1536l-293 309h293l172 -309h-172z" />
    <glyph glyph-name="Eacute" unicode="&#xc9;" horiz-adv-x="1148" 
d="M457 1192v-344h516v-232h-516v-376h567v-240h-852v1430h846v-238h-561zM477 1536l172 309h293l-293 -309h-172z" />
    <glyph glyph-name="Ecircumflex" unicode="&#xca;" horiz-adv-x="1148" 
d="M457 1192v-344h516v-232h-516v-376h567v-240h-852v1430h846v-238h-561zM737 1536l-145 176l-143 -176h-183l232 309h211l217 -309h-189z" />
    <glyph glyph-name="Edieresis" unicode="&#xcb;" horiz-adv-x="1148" 
d="M457 1192v-344h516v-232h-516v-376h567v-240h-852v1430h846v-238h-561zM705 1583v240h235v-240h-235zM281 1583v240h235v-240h-235z" />
    <glyph glyph-name="Igrave" unicode="&#xcc;" horiz-adv-x="632" 
d="M172 0v1430h289v-1430h-289zM264 1536l-293 309h293l172 -309h-172z" />
    <glyph glyph-name="Iacute" unicode="&#xcd;" horiz-adv-x="632" 
d="M172 0v1430h289v-1430h-289zM188 1536l172 309h293l-293 -309h-172z" />
    <glyph glyph-name="Icircumflex" unicode="&#xce;" horiz-adv-x="632" 
d="M172 0v1430h289v-1430h-289zM457 1536l-146 176l-143 -176h-182l231 309h211l217 -309h-188z" />
    <glyph glyph-name="Idieresis" unicode="&#xcf;" horiz-adv-x="632" 
d="M172 0v1430h289v-1430h-289zM414 1583v240h235v-240h-235zM-10 1583v240h235v-240h-235z" />
    <glyph glyph-name="Eth" unicode="&#xd0;" horiz-adv-x="1505" 
d="M461 797h262v-129h-262v-449h76q260 0 415.5 117t155.5 381t-153.5 375.5t-417.5 111.5h-76v-407zM1407 709q0 -242 -161.5 -475.5t-682.5 -233.5h-391v668h-109v129h109v633h391q389 0 616.5 -172.5t227.5 -548.5z" />
    <glyph glyph-name="Ntilde" unicode="&#xd1;" horiz-adv-x="1536" 
d="M432 668v-668h-260v1430h385l361 -707q77 -150 194 -418h4q-12 234 -12 524v601h260v-1430h-365l-366 700q-120 235 -207 441h-4q10 -153 10 -473zM952 1714q74 0 86 103h107q-11 -123 -65 -189t-144 -65q-55 0 -165 41t-150 42q-39 1 -61 -21t-34 -75h-106
q14 117 72 184t149 66q63 0 169 -43t142 -43z" />
    <glyph glyph-name="Ograve" unicode="&#xd2;" horiz-adv-x="1605" 
d="M414 714q0 -154 49 -272q49 -117 138 -180t204 -63q115 1 203 65t137 182t49 272q0 156 -49 272t-138 178t-206 62t-204 -64q-87 -66 -135 -182t-48 -270zM1501 720q0 -224 -87 -393t-246 -260q-158 -91 -368 -91t-368 90t-243 257t-85 390q0 354 186 548t525 193
q209 0 364 -89t239 -255t83 -390zM758 1536l-293 309h293l172 -309h-172z" />
    <glyph glyph-name="Oacute" unicode="&#xd3;" horiz-adv-x="1605" 
d="M414 714q0 -154 49 -272q49 -117 138 -180t204 -63q115 1 203 65t137 182t49 272q0 156 -49 272t-138 178t-206 62t-204 -64q-87 -66 -135 -182t-48 -270zM1501 720q0 -224 -87 -393t-246 -260q-158 -91 -368 -91t-368 90t-243 257t-85 390q0 354 186 548t525 193
q209 0 364 -89t239 -255t83 -390zM664 1536l172 309h292l-292 -309h-172z" />
    <glyph glyph-name="Ocircumflex" unicode="&#xd4;" horiz-adv-x="1605" 
d="M414 714q0 -154 49 -272q49 -117 138 -180t204 -63q115 1 203 65t137 182t49 272q0 156 -49 272t-138 178t-206 62t-204 -64q-87 -66 -135 -182t-48 -270zM1501 720q0 -224 -87 -393t-246 -260q-158 -91 -368 -91t-368 90t-243 257t-85 390q0 354 186 548t525 193
q209 0 364 -89t239 -255t83 -390zM938 1536l-145 176l-144 -176h-182l231 309h211l217 -309h-188z" />
    <glyph glyph-name="Otilde" unicode="&#xd5;" horiz-adv-x="1605" 
d="M414 714q0 -154 49 -272q49 -117 138 -180t204 -63q115 1 203 65t137 182t49 272q0 156 -49 272t-138 178t-206 62t-204 -64q-87 -66 -135 -182t-48 -270zM1501 720q0 -224 -87 -393t-246 -260q-158 -91 -368 -91t-368 90t-243 257t-85 390q0 354 186 548t525 193
q209 0 364 -89t239 -255t83 -390zM958 1714q74 0 86 103h107q-11 -123 -65 -189t-144 -65q-55 0 -165 41t-150 42q-39 1 -61 -21t-34 -75h-106q14 117 72 184t149 66q63 0 169 -43t142 -43z" />
    <glyph glyph-name="Odieresis" unicode="&#xd6;" horiz-adv-x="1605" 
d="M414 714q0 -154 49 -272q49 -117 138 -180t204 -63q115 1 203 65t137 182t49 272q0 156 -49 272t-138 178t-206 62t-204 -64q-87 -66 -135 -182t-48 -270zM1501 720q0 -224 -87 -393t-246 -260q-158 -91 -368 -91t-368 90t-243 257t-85 390q0 354 186 548t525 193
q209 0 364 -89t239 -255t83 -390zM893 1583v240h235v-240h-235zM469 1583v240h236v-240h-236z" />
    <glyph glyph-name="multiply" unicode="&#xd7;" horiz-adv-x="1220" 
d="M774 530l367 -364l-168 -166l-365 365l-364 -365l-166 166l364 364l-364 365l166 166l364 -365l365 365l168 -166z" />
    <glyph glyph-name="Oslash" unicode="&#xd8;" horiz-adv-x="1605" 
d="M807 199q113 0 201 64.5t137 182t49 287.5t-70 303l-571 -735q102 -102 254 -102zM414 700q0 -168 65 -297l570 734q-103 98 -233 98t-218 -65.5t-136 -183.5t-48 -286zM1501 721q0 -225 -87 -394t-245.5 -260.5t-382.5 -91.5t-397 115l-119 -153l-94 75l121 158
q-193 197 -193 547t187.5 545.5t523.5 195.5q231 0 395 -110l115 147l96 -76l-116 -149q196 -204 196 -549z" />
    <glyph glyph-name="Ugrave" unicode="&#xd9;" horiz-adv-x="1486" 
d="M734 -25q-296 1 -434 147t-138 445v863h291v-842q1 -199 71 -290t224 -91t227 91q74 91 74 290v842h276v-863q0 -292 -148 -442q-147 -150 -443 -150zM705 1536l-293 309h293l172 -309h-172z" />
    <glyph glyph-name="Uacute" unicode="&#xda;" horiz-adv-x="1486" 
d="M734 -25q-296 1 -434 147t-138 445v863h291v-842q1 -199 71 -290t224 -91t227 91q74 91 74 290v842h276v-863q0 -292 -148 -442q-147 -150 -443 -150zM592 1536l172 309h293l-293 -309h-172z" />
    <glyph glyph-name="Ucircumflex" unicode="&#xdb;" horiz-adv-x="1486" 
d="M734 -25q-296 1 -434 147t-138 445v863h291v-842q1 -199 71 -290t224 -91t227 91q74 91 74 290v842h276v-863q0 -292 -148 -442q-147 -150 -443 -150zM887 1536l-146 176l-143 -176h-182l231 309h211l217 -309h-188z" />
    <glyph glyph-name="Udieresis" unicode="&#xdc;" horiz-adv-x="1486" 
d="M734 -25q-296 1 -434 147t-138 445v863h291v-842q1 -199 71 -290t224 -91t227 91q74 91 74 290v842h276v-863q0 -292 -148 -442q-147 -150 -443 -150zM831 1583v240h236v-240h-236zM408 1583v240h235v-240h-235z" />
    <glyph glyph-name="Yacute" unicode="&#xdd;" horiz-adv-x="1361" 
d="M829 0h-288v569l-529 861h338l162 -289q72 -125 180 -344h4q55 109 183 344l157 289h314l-521 -863v-567zM594 1536l172 309h293l-293 -309h-172z" />
    <glyph glyph-name="Thorn" unicode="&#xde;" horiz-adv-x="1175" 
d="M461 567h51q160 0 244 48.5t84 174.5t-80 176t-248 50h-51v-449zM532 1233q274 0 438.5 -96.5t164.5 -338.5t-165 -346t-438 -104h-71v-348h-289v1430h289v-197h71z" />
    <glyph glyph-name="germandbls" unicode="&#xdf;" horiz-adv-x="1265" 
d="M915 460q0 118 -76.5 177t-211.5 59h-37v205h33q106 0 167.5 61.5t61.5 165.5t-53.5 165t-136.5 61q-133 0 -186.5 -100.5t-53.5 -280.5v-973h-275v1012q0 266 139.5 405t385.5 139q133 0 236.5 -51t160.5 -142t57 -214t-71.5 -213t-202.5 -121v-4q164 -29 252 -125
t88 -240t-62.5 -246t-174 -158t-231.5 -56t-187 20l6 219q45 -18 116 -18q125 0 190.5 67.5t65.5 185.5z" />
    <glyph glyph-name="agrave" unicode="&#xe0;" horiz-adv-x="1140" 
d="M340 332q0 -154 164 -154q114 0 188 77t74 230q-39 4 -90 4q-336 2 -336 -157zM1018 649q0 -98 -2 -155l-2 -158q0 -174 14 -336h-240q-4 33 -4 72t4 104h-4q-119 -197 -362 -196q-156 0 -254 88t-98 246t140 248q140 89 402 89q76 0 150 -6q0 121 -60 177t-206 56
q-147 0 -303 -94l-11 213q168 84 379 82q457 0 457 -430zM578 1186l-293 362h284l172 -362h-163z" />
    <glyph glyph-name="aacute" unicode="&#xe1;" horiz-adv-x="1140" 
d="M340 332q0 -154 164 -154q114 0 188 77t74 230q-39 4 -90 4q-336 2 -336 -157zM1018 649q0 -98 -2 -155l-2 -158q0 -174 14 -336h-240q-4 33 -4 72t4 104h-4q-119 -197 -362 -196q-156 0 -254 88t-98 246t140 248q140 89 402 89q76 0 150 -6q0 121 -60 177t-206 56
q-147 0 -303 -94l-11 213q168 84 379 82q457 0 457 -430zM455 1186l172 362h284l-293 -362h-163z" />
    <glyph glyph-name="acircumflex" unicode="&#xe2;" horiz-adv-x="1140" 
d="M340 332q0 -154 164 -154q114 0 188 77t74 230q-39 4 -90 4q-336 2 -336 -157zM1018 649q0 -98 -2 -155l-2 -158q0 -174 14 -336h-240q-4 33 -4 72t4 104h-4q-119 -197 -362 -196q-156 0 -254 88t-98 246t140 248q140 89 402 89q76 0 150 -6q0 121 -60 177t-206 56
q-147 0 -303 -94l-11 213q168 84 379 82q457 0 457 -430zM741 1186l-143 229l-145 -229h-183l232 362h211l217 -362h-189z" />
    <glyph glyph-name="atilde" unicode="&#xe3;" horiz-adv-x="1140" 
d="M340 332q0 -154 164 -154q114 0 188 77t74 230q-39 4 -90 4q-336 2 -336 -157zM1018 649q0 -98 -2 -155l-2 -158q0 -174 14 -336h-240q-4 33 -4 72t4 104h-4q-119 -197 -362 -196q-156 0 -254 88t-98 246t140 248q140 89 402 89q76 0 150 -6q0 121 -60 177t-206 56
q-147 0 -303 -94l-11 213q168 84 379 82q457 0 457 -430zM756 1372q74 0 86 103h106q-12 -123 -65 -190t-142 -66q-51 0 -160 41t-150 42q-39 1 -61 -21t-32 -75h-107q15 117 71 184t147 66q62 0 163 -42t144 -42z" />
    <glyph glyph-name="adieresis" unicode="&#xe4;" horiz-adv-x="1140" 
d="M340 332q0 -154 164 -154q114 0 188 77t74 230q-39 4 -90 4q-336 2 -336 -157zM1018 649q0 -98 -2 -155l-2 -158q0 -174 14 -336h-240q-4 33 -4 72t4 104h-4q-119 -197 -362 -196q-156 0 -254 88t-98 246t140 248q140 89 402 89q76 0 150 -6q0 121 -60 177t-206 56
q-147 0 -303 -94l-11 213q168 84 379 82q457 0 457 -430zM682 1266v239h236v-239h-236zM258 1266v239h236v-239h-236z" />
    <glyph glyph-name="aring" unicode="&#xe5;" horiz-adv-x="1140" 
d="M340 332q0 -154 164 -154q114 0 188 77t74 230q-39 4 -90 4q-336 2 -336 -157zM1018 649q0 -98 -2 -155l-2 -158q0 -174 14 -336h-240q-4 33 -4 72t4 104h-4q-119 -197 -362 -196q-156 0 -254 88t-98 246t140 248q140 89 402 89q76 0 150 -6q0 121 -60 177t-206 56
q-147 0 -303 -94l-11 213q168 84 379 82q457 0 457 -430zM461 1359q0 -48 34 -84q35 -36 81 -36t81 35t35 83t-35 83t-81 35t-81 -34q-34 -34 -34 -82zM576 1145q-88 0 -149 62q-62 63 -62 151t63 150q62 62 150 62t150 -63t62 -150t-62 -149q-64 -62 -152 -63z" />
    <glyph glyph-name="ae" unicode="&#xe6;" horiz-adv-x="1802" 
d="M676 489q-336 1 -336 -157t164 -158q115 0 188.5 78t73.5 233q-25 4 -90 4zM1475 639q0 125 -57.5 185.5t-157.5 60.5t-170 -64.5t-80 -181.5h465zM879 207q-115 -232 -429 -232q-162 0 -271 84t-109 251t143 254t412 87q59 0 137 -6q0 121 -58.5 177.5t-179.5 56.5
q-180 0 -329 -95l-13 215q178 80 371 80q281 0 365 -172q120 172 348 172q456 0 456 -563q0 -37 -4 -65h-704q2 -121 94 -195t248 -74t293 86l4 -225q-141 -68 -315 -68t-291 62.5t-164 169.5h-4z" />
    <glyph glyph-name="ccedilla" unicode="&#xe7;" horiz-adv-x="942" 
d="M672 862q-150 0 -233 -94t-83 -242t81 -238.5t241 -90.5q96 0 178 36l14 -215q-100 -33 -223 -32h-33l-18 -113q16 2 41 2q86 0 143.5 -38t57.5 -126t-74 -135t-166 -47t-158 14l13 103q66 -10 106 -11q113 0 113 70t-103 70q-51 0 -102 -11l25 236q-197 41 -309.5 178.5
t-112.5 323.5t76.5 309t206 189.5t271.5 66.5t234 -29l-20 -209q-78 33 -166 33z" />
    <glyph glyph-name="egrave" unicode="&#xe8;" horiz-adv-x="1150" 
d="M819 639q0 125 -58 185q-59 60 -159 60t-168 -63t-78 -182h463zM1071 516q0 -37 -4 -65h-707q2 -121 92 -194t248 -73q156 0 293 86l4 -225q-145 -70 -331 -70q-371 0 -515 257q-71 126 -71 292t66 290q67 124 187 195t275 70q463 0 463 -563zM557 1186l-293 362h285
l172 -362h-164z" />
    <glyph glyph-name="eacute" unicode="&#xe9;" horiz-adv-x="1150" 
d="M819 639q0 125 -58 185q-59 60 -159 60t-168 -63t-78 -182h463zM1071 516q0 -37 -4 -65h-707q2 -121 92 -194t248 -73q156 0 293 86l4 -225q-145 -70 -331 -70q-371 0 -515 257q-71 126 -71 292t66 290q67 124 187 195t275 70q463 0 463 -563zM483 1186l172 362h285
l-293 -362h-164z" />
    <glyph glyph-name="ecircumflex" unicode="&#xea;" horiz-adv-x="1150" 
d="M819 639q0 125 -58 185q-59 60 -159 60t-168 -63t-78 -182h463zM1071 516q0 -37 -4 -65h-707q2 -121 92 -194t248 -73q156 0 293 86l4 -225q-145 -70 -331 -70q-371 0 -515 257q-71 126 -71 292t66 290q67 124 187 195t275 70q463 0 463 -563zM733 1186l-143 229
l-146 -229h-182l232 362h211l217 -362h-189z" />
    <glyph glyph-name="edieresis" unicode="&#xeb;" horiz-adv-x="1150" 
d="M819 639q0 125 -58 185q-59 60 -159 60t-168 -63t-78 -182h463zM1071 516q0 -37 -4 -65h-707q2 -121 92 -194t248 -73q156 0 293 86l4 -225q-145 -70 -331 -70q-371 0 -515 257q-71 126 -71 292t66 290q67 124 187 195t275 70q463 0 463 -563zM688 1266v239h236v-239
h-236zM264 1266v239h236v-239h-236z" />
    <glyph glyph-name="igrave" unicode="&#xec;" horiz-adv-x="589" 
d="M158 0v1055h274v-1055h-274zM227 1186l-293 362h285l172 -362h-164z" />
    <glyph glyph-name="iacute" unicode="&#xed;" horiz-adv-x="589" 
d="M158 0v1055h274v-1055h-274zM184 1186l172 362h285l-293 -362h-164z" />
    <glyph glyph-name="icircumflex" unicode="&#xee;" horiz-adv-x="589" 
d="M158 0v1055h274v-1055h-274zM440 1186l-143 229l-145 -229h-183l232 362h211l217 -362h-189z" />
    <glyph glyph-name="idieresis" unicode="&#xef;" horiz-adv-x="589" 
d="M158 0v1055h274v-1055h-274zM393 1266v239h236v-239h-236zM-31 1266v239h236v-239h-236z" />
    <glyph glyph-name="eth" unicode="&#xf0;" horiz-adv-x="1275" 
d="M371 505q0 -142 76.5 -228.5t191.5 -86.5t189.5 87.5t74.5 231.5t-74.5 230t-192.5 86t-191.5 -89t-73.5 -231zM1196 588q0 -182 -70.5 -321.5t-198.5 -215.5t-293 -76t-290 65.5t-194.5 184.5t-69.5 273t62.5 272.5t173 185t267.5 66.5t261 -92h4q-82 186 -293 330
l-221 -130l-90 95l190 108q-64 41 -128 67.5t-79 33.5l176 157q146 -61 252 -127l195 115l88 -94l-166 -92q424 -303 424 -805z" />
    <glyph glyph-name="ntilde" unicode="&#xf1;" horiz-adv-x="1284" 
d="M762 1079q201 0 290 -121t89 -344v-614h-271v508q0 122 -11 194q-24 158 -179 158q-142 0 -221 -150q-39 -74 -39 -233v-477h-270v727q0 186 -11 328h260q8 -90 9 -176h4q123 200 350 200zM838 1372q74 0 86 103h106q-12 -123 -65 -190t-142 -66q-51 0 -160 41t-150 42
q-39 1 -61 -21t-32 -75h-107q15 117 71 184q56 66 132 66t178 -42q101 -42 144 -42z" />
    <glyph glyph-name="ograve" unicode="&#xf2;" horiz-adv-x="1269" 
d="M635 184q121 0 193 94t73 257q0 161 -71 251q-70 90 -194 90t-194 -92t-70 -254t72 -254q70 -92 191 -92zM1190 525q0 -165 -70 -289t-196 -192q-126 -69 -288 -69q-163 0 -289 70q-127 70 -197 195q-70 126 -70 290t70 289t198 193t291 68q164 0 288 -69
q123 -69 193 -195t70 -291zM621 1186l-293 362h284l172 -362h-163z" />
    <glyph glyph-name="oacute" unicode="&#xf3;" horiz-adv-x="1269" 
d="M635 184q121 0 193 94t73 257q0 161 -71 251q-70 90 -194 90t-194 -92t-70 -254t72 -254q70 -92 191 -92zM1190 525q0 -165 -70 -289t-196 -192q-126 -69 -288 -69q-163 0 -289 70q-127 70 -197 195q-70 126 -70 290t70 289t198 193t291 68q164 0 288 -69
q123 -69 193 -195t70 -291zM494 1186l172 362h284l-293 -362h-163z" />
    <glyph glyph-name="ocircumflex" unicode="&#xf4;" horiz-adv-x="1269" 
d="M635 184q121 0 193 94t73 257q0 161 -71 251q-70 90 -194 90t-194 -92t-70 -254t72 -254q70 -92 191 -92zM1190 525q0 -165 -70 -289t-196 -192q-126 -69 -288 -69q-163 0 -289 70q-127 70 -197 195q-70 126 -70 290t70 289t198 193t291 68q164 0 288 -69
q123 -69 193 -195t70 -291zM784 1186l-143 229l-145 -229h-183l232 362h211l217 -362h-189z" />
    <glyph glyph-name="otilde" unicode="&#xf5;" horiz-adv-x="1269" 
d="M635 184q121 0 193 94t73 257q0 161 -71 251q-70 90 -194 90t-194 -92t-70 -254t72 -254q70 -92 191 -92zM1190 525q0 -165 -70 -289t-196 -192q-126 -69 -288 -69q-163 0 -289 70q-127 70 -197 195q-70 126 -70 290t70 289t198 193t291 68q164 0 288 -69
q123 -69 193 -195t70 -291zM807 1372q74 0 86 103h106q-12 -123 -65 -190t-141 -66q-51 0 -161 41t-150 42t-62 -21t-31 -75h-106q14 117 70 184t147 66q62 0 163 -42t144 -42z" />
    <glyph glyph-name="odieresis" unicode="&#xf6;" horiz-adv-x="1269" 
d="M635 184q121 0 193 94t73 257q0 161 -71 251q-70 90 -194 90t-194 -92t-70 -254t72 -254q70 -92 191 -92zM1190 525q0 -165 -70 -289t-196 -192q-126 -69 -288 -69q-163 0 -289 70q-127 70 -197 195q-70 126 -70 290t70 289t198 193t291 68q164 0 288 -69
q123 -69 193 -195t70 -291zM735 1266v239h236v-239h-236zM311 1266v239h236v-239h-236z" />
    <glyph glyph-name="divide" unicode="&#xf7;" horiz-adv-x="1220" 
d="M479 16v273h273v-273h-273zM74 424v221h1073v-221h-1073zM479 780v273h273v-273h-273z" />
    <glyph glyph-name="oslash" unicode="&#xf8;" horiz-adv-x="1269" 
d="M650 180q118 0 191.5 97.5t73.5 232.5t-38 227l-412 -485q67 -72 185 -72zM362 522q0 -98 39 -182l406 487q-57 59 -176 59t-194 -96t-75 -268zM1188 502q0 -142 -69.5 -264.5t-194.5 -191.5t-294 -69t-315 95l-116 -138l-84 66l116 141q-147 152 -147 381
q0 170 69.5 296t195.5 194.5t304 68.5t299 -82l109 131l82 -67l-109 -131q154 -154 154 -430z" />
    <glyph glyph-name="ugrave" unicode="&#xf9;" horiz-adv-x="1284" 
d="M881 174h-4q-123 -199 -363 -199q-168 0 -269 112t-102 298v670h271v-547q0 -152 43 -230t157 -77q114 0 181 93q68 93 67 234v527h273v-742q0 -225 10 -313h-256q-8 86 -8 174zM602 1186l-293 362h285l172 -362h-164z" />
    <glyph glyph-name="uacute" unicode="&#xfa;" horiz-adv-x="1284" 
d="M881 174h-4q-123 -199 -363 -199q-168 0 -269 112t-102 298v670h271v-547q0 -152 43 -230t157 -77q114 0 181 93q68 93 67 234v527h273v-742q0 -225 10 -313h-256q-8 86 -8 174zM496 1186l172 362h284l-293 -362h-163z" />
    <glyph glyph-name="ucircumflex" unicode="&#xfb;" horiz-adv-x="1284" 
d="M881 174h-4q-123 -199 -363 -199q-168 0 -269 112t-102 298v670h271v-547q0 -152 43 -230t157 -77q114 0 181 93q68 93 67 234v527h273v-742q0 -225 10 -313h-256q-8 86 -8 174zM782 1186l-143 229l-145 -229h-183l232 362h211l217 -362h-189z" />
    <glyph glyph-name="udieresis" unicode="&#xfc;" horiz-adv-x="1284" 
d="M881 174h-4q-123 -199 -363 -199q-168 0 -269 112t-102 298v670h271v-547q0 -152 43 -230t157 -77q114 0 181 93q68 93 67 234v527h273v-742q0 -225 10 -313h-256q-8 86 -8 174zM733 1266v239h236v-239h-236zM309 1266v239h236v-239h-236z" />
    <glyph glyph-name="yacute" unicode="&#xfd;" horiz-adv-x="1146" 
d="M276 -455q-102 0 -196 29l20 205q171 -54 254 24q49 45 80 152l-409 1100h299l163 -510q35 -111 97 -324h4q49 182 96 324l164 510h276l-415 -1129q-70 -182 -169 -281t-264 -100zM442 1186l172 362h285l-293 -362h-164z" />
    <glyph glyph-name="thorn" unicode="&#xfe;" horiz-adv-x="1300" 
d="M430 526.5q0 -147.5 71.5 -243t188.5 -95.5t183.5 95t66.5 247t-64.5 244t-182.5 92t-190.5 -96t-72.5 -243.5zM428 1188q0 -210 -6 -297h4q125 188 354 188q133 0 232.5 -68.5t153 -192.5t53.5 -284t-55.5 -287.5t-160 -199.5t-243.5 -72q-221 0 -334 195h-4
q6 -70 6 -252v-352h-270v1982h270v-360z" />
    <glyph glyph-name="ydieresis" unicode="&#xff;" horiz-adv-x="1146" 
d="M276 -455q-102 0 -196 29l20 205q171 -54 254 24q49 45 80 152l-409 1100h299l163 -510q35 -111 97 -324h4q49 182 96 324l164 510h276l-415 -1129q-70 -182 -169 -281t-264 -100zM676 1266v239h235v-239h-235zM252 1266v239h235v-239h-235z" />
    <glyph glyph-name="dotlessi" unicode="&#x131;" horiz-adv-x="589" 
d="M158 0v1055h274v-1055h-274z" />
    <glyph glyph-name="Lslash" unicode="&#x141;" horiz-adv-x="1052" 
d="M461 246h555v-246h-844v674l-123 -76v162l123 76v594h289v-433l215 133v-161l-215 -133v-590z" />
    <glyph glyph-name="lslash" unicode="&#x142;" horiz-adv-x="630" 
d="M453 0h-275v741l-158 -123v162l158 123v645h275v-438l145 115v-164l-145 -115v-946z" />
    <glyph glyph-name="OE" unicode="&#x152;" horiz-adv-x="1964" 
d="M406 715q0 -227 130 -361.5t355 -134.5q70 0 108 6v971q-66 10 -127 10q-219 0 -342.5 -132t-123.5 -359zM1829 1430v-238h-539v-344h492v-232h-492v-376h549v-240h-575l-383 -8q-242 0 -419 84t-272.5 246t-95.5 392t98.5 394t271.5 248t398 84l338 -10h629z" />
    <glyph glyph-name="oe" unicode="&#x153;" horiz-adv-x="1923" 
d="M373 529q0 -163 67.5 -254t187.5 -91t187.5 92.5t67.5 256t-66.5 252.5t-189.5 89t-188.5 -91t-65.5 -254zM1595 639q0 125 -57.5 185.5t-157.5 60.5t-169.5 -64.5t-80.5 -181.5h465zM1843 516q0 -37 -4 -65h-704q2 -121 93.5 -195t247.5 -74t293 86l5 -225
q-141 -68 -342 -68q-279 0 -414 170q-131 -170 -391 -170q-162 0 -286 69t-192.5 193.5t-68.5 289.5t68.5 291t193.5 193.5t293 67.5q248 0 381 -170q131 170 365 170q235 0 348.5 -139t113.5 -424z" />
    <glyph glyph-name="Scaron" unicode="&#x160;" horiz-adv-x="1122" 
d="M399 1071q-1 -72 53 -119q54 -46 230 -110t265 -163t89 -245q0 -292 -253 -404q-122 -54 -304 -54t-360 61l26 252q169 -82 311 -82t214 47t71 131q0 55 -24 95q-47 75 -246 148t-284 167t-85 232q0 139 65 233t181 144t286 50q171 0 327 -51l-23 -234q-154 61 -279 61
t-193 -43q-68 -44 -67 -116zM479 1536l-217 309h189l145 -176l143 176h183l-232 -309h-211z" />
    <glyph glyph-name="scaron" unicode="&#x161;" horiz-adv-x="915" 
d="M350 775q0 -52 38 -80q38 -29 172 -73t208 -114t74 -197q0 -160 -118 -248t-305 -88t-335 56l14 217q150 -72 297 -72q74 0 123 30t49 75t-16 69q-29 44 -186 99t-221 123t-64 184q0 150 114 236t292 87q178 0 298 -49l-22 -205q-132 59 -228 59t-140 -28
q-44 -29 -44 -81zM365 1186l-218 362h189l143 -229l146 229h182l-232 -362h-210z" />
    <glyph glyph-name="Ydieresis" unicode="&#x178;" horiz-adv-x="1361" 
d="M829 0h-288v569l-529 861h338l162 -289q72 -125 180 -344h4q55 109 183 344l157 289h314l-521 -863v-567zM788 1583v240h236v-240h-236zM365 1583v240h235v-240h-235z" />
    <glyph glyph-name="Zcaron" unicode="&#x17d;" horiz-adv-x="1146" 
d="M1081 240v-240h-1013v244q238 342 436 612q199 270 252 336h-662v238h971v-240q-542 -772 -690 -950h706zM481 1536l-217 309h189l145 -176l143 176h183l-232 -309h-211z" />
    <glyph glyph-name="zcaron" unicode="&#x17e;" horiz-adv-x="1032" 
d="M963 207v-207h-893v229q408 465 563 621h-545v205h856v-219q-409 -475 -563 -629h582zM426 1186l-217 362h188l144 -229l145 229h182l-231 -362h-211z" />
    <glyph glyph-name="florin" unicode="&#x192;" horiz-adv-x="1220" 
d="M995 829v-151h-266l-137 -682q-31 -154 -80 -246t-131.5 -136t-186.5 -44t-186 22l37 222q49 -20 101 -20t81 21t46.5 70t37.5 150l129 643h-211v151h242l41 199q31 154 81 246t134 136t194 44t187 -22l-37 -222q-49 20 -105 20t-86 -21t-48.5 -70t-38.5 -150l-33 -160
h235z" />
    <glyph glyph-name="uni0237" unicode="&#x237;" horiz-adv-x="589" 
d="M88 -455q-70 0 -113 11l11 204l41 -4q76 0 103.5 46t27.5 161v1092h274v-1129q0 -188 -87 -284.5t-257 -96.5z" />
    <glyph glyph-name="circumflex" unicode="&#x2c6;" horiz-adv-x="1024" 
d="M653 1186l-143 229l-145 -229h-183l232 362h211l217 -362h-189z" />
    <glyph glyph-name="caron" unicode="&#x2c7;" horiz-adv-x="1024" 
d="M399 1186l-217 362h189l143 -229l145 229h183l-232 -362h-211z" />
    <glyph glyph-name="ring" unicode="&#x2da;" horiz-adv-x="1024" 
d="M397 1359q0 -48 34 -84t81 -36t82 35t35 83t-35 83t-82 35t-81 -34t-34 -82zM727 1357q0 -87 -63.5 -149.5t-150.5 -62.5t-149.5 62.5t-62.5 150.5t63.5 150.5t150.5 62.5t149.5 -63.5t62.5 -150.5z" />
    <glyph glyph-name="tilde" unicode="&#x2dc;" horiz-adv-x="1024" 
d="M668 1219q-51 0 -164 42t-150 42t-58.5 -21.5t-31.5 -75.5h-106q14 117 70.5 183.5t132.5 66.5t177 -42t144 -42q74 0 86 103h106q-12 -123 -65 -189.5t-141 -66.5z" />
    <glyph glyph-name="uni0394" unicode="&#x394;" horiz-adv-x="1466" 
d="M608 885l-243 -621h720l-245 621q-83 219 -111 323h-4q-35 -112 -117 -323zM1397 0h-1327v268l497 1162h326l504 -1162v-268z" />
    <glyph glyph-name="uni03A9" unicode="&#x3a9;" horiz-adv-x="1622" 
d="M1481 862q0 -180 -81 -336.5t-212 -265.5l2 -4q84 8 260 8h61v-264h-616v240q279 246 279 567q0 213 -99.5 318.5t-265.5 105.5t-262 -108.5t-96 -317.5q0 -322 276 -565v-240h-616v264h61q176 0 260 -8l2 4q-133 113 -213 263.5t-80 322.5q0 295 182.5 451.5
t499.5 156.5q199 0 347.5 -70.5t229.5 -206t81 -315.5z" />
    <glyph glyph-name="uni03BC" unicode="&#x3bc;" horiz-adv-x="1345" 
d="M552 -25q-93 0 -134 23l-6 -4q10 -139 10 -299v-125h-272v1485h270v-547q0 -156 36 -231.5t140 -75.5q131 0 198.5 125t67.5 319v410h273v-703q0 -65 14 -90.5t55 -25.5l33 4l10 -242q-41 -10 -100 -10q-125 0 -188.5 49t-77.5 162h-4q-53 -104 -142.5 -164t-182.5 -60z
" />
    <glyph glyph-name="pi" unicode="&#x3c0;" horiz-adv-x="1351" 
d="M1044 784v-352q0 -109 30 -152.5t110 -43.5q33 0 53 6l14 -242q-45 -12 -121 -12q-168 0 -249.5 83t-81.5 265v448h-299l-54 -784h-286l112 784h-227v271h1266v-271h-267z" />
    <glyph glyph-name="uni0E01" unicode="&#xe01;" horiz-adv-x="1325" 
d="M1165 721v-721h-262v702q0 150 -62.5 224.5t-205.5 74.5q-102 0 -176 -43t-101 -100l187 -67v-127q-59 -18 -89 -80t-30 -146v-438h-262v410q0 104 46 176.5t109 103.5v6l-227 78v109q33 78 107.5 155.5t189.5 129t254 51.5q250 0 386 -135.5t136 -362.5z" />
    <glyph glyph-name="uni0E02" unicode="&#xe02;" horiz-adv-x="1163" 
d="M227 983q0 -35 24.5 -59.5t59.5 -24.5t59.5 24.5t24.5 59.5t-24.5 59.5t-59.5 24.5t-59.5 -24.5t-24.5 -59.5zM571 957.5q0 -111.5 -26.5 -180t-68.5 -135t-58.5 -104.5t-16.5 -85v-99q0 -141 127 -141h84q127 0 127 141v840h262v-895q0 -139 -90 -219t-233 -80h-215
q-143 0 -233.5 80t-90.5 219v135q0 158 168 307l-2 7q-58 -14 -120 17q-132 67 -132 214q0 102 71 171t187.5 69t188 -75t71.5 -186.5z" />
    <glyph glyph-name="uni0E03" unicode="&#xe03;" horiz-adv-x="1275" 
d="M176 999.5q0 -28.5 21.5 -50t50 -21.5t50 21.5t21.5 50t-21.5 50t-50 21.5t-50 -21.5t-21.5 -50zM778 1014.5q0 -101.5 -39 -172t-105 -151.5t-94 -126t-28 -96v-115q0 -141 127 -141h88q127 0 127 141v840h262v-895q0 -139 -90 -219t-233 -80h-220q-143 0 -233 80
t-90 219v156q0 82 45 152.5t122 154.5t108.5 130t31.5 96t-37 50q-23 0 -31 -14t-20 -59t-33 -82t-71 -68t-129.5 -31t-145 59.5t-65.5 154.5t60 155.5t163 60.5q63 0 112.5 -25.5t73.5 -70.5h4q16 37 60.5 66.5t111 29.5t117.5 -49t51 -150.5z" />
    <glyph glyph-name="uni0E04" unicode="&#xe04;" horiz-adv-x="1425" 
d="M637 534.5q0 -26.5 20.5 -47t48.5 -20.5t47 20.5t19 48.5t-19.5 47t-47 19t-48 -20.5t-20.5 -47zM1266 717v-717h-262v698q0 147 -73 227.5t-218.5 80.5t-221 -81t-75.5 -227q0 -80 -29 -157.5t-35 -96.5l15 -4q51 123 135 211t188.5 88t164.5 -56t60 -147t-61 -149.5
t-139 -58.5q-145 0 -193 116q-37 -39 -68.5 -120.5t-31.5 -165.5v-158h-262v717q0 150 67.5 263.5t192.5 176t293 62.5t292.5 -62.5t192.5 -176.5t68 -263z" />
    <glyph glyph-name="uni0E05" unicode="&#xe05;" horiz-adv-x="1441" 
d="M649 528.5q0 -26.5 20.5 -47t48.5 -20.5t47 20.5t19 48t-19.5 47t-47 19.5t-48 -20.5t-20.5 -47zM416 823v-104q0 -72 -16.5 -130.5t-47.5 -144.5l15 -4q49 121 137 207t194.5 86t168 -56t61.5 -147.5t-63.5 -149.5t-141 -58t-126 35.5t-67.5 84.5q-43 -37 -75.5 -125
t-32.5 -188v-129h-262v807q0 162 88 274.5t270 137.5l199 -136l198 136q185 -25 276 -138.5t91 -273.5v-807h-262v823q0 57 -24.5 104.5t-73.5 67.5l-205 -123l-205 123q-96 -39 -96 -172z" />
    <glyph glyph-name="uni0E06" unicode="&#xe06;" horiz-adv-x="1341" 
d="M274 248q0 -84 52 -84q27 0 36 20.5t9 55.5v110q-45 -2 -71 -32.5t-26 -69.5zM205 999.5q0 -28.5 21.5 -50t50 -21.5t50 21.5t21.5 50t-21.5 50t-50 21.5t-50 -21.5t-21.5 -50zM807 1001q0 -66 -25.5 -122t-73.5 -129t-71 -118.5t-23 -96.5q100 -12 192.5 -60.5
t125.5 -95.5h4q-20 111 -21 186v629h263v-1194h-256v63q0 74 -49.5 138.5t-121 103.5t-137.5 45v-125q0 -123 -73.5 -184t-193.5 -61t-190.5 72.5t-70.5 188t73.5 196.5t196.5 98q0 70 33 128t90 128.5t82 110.5t25 88t-37 48q-23 0 -31 -14t-20 -59t-33 -82t-71 -68
t-130 -31t-145.5 59.5t-65.5 154.5t60.5 155.5t162.5 60.5q63 0 112.5 -25.5t74.5 -70.5h4q16 37 60 66.5t111 29.5t118 -49t51 -164z" />
    <glyph glyph-name="uni0E07" unicode="&#xe07;" horiz-adv-x="1062" 
d="M575 975q0 -35 20.5 -58.5t55.5 -23.5t55.5 23.5t20.5 58.5t-20.5 58.5t-55.5 23.5t-55.5 -23.5t-20.5 -58.5zM643 610q0 62 29 129l-2 2q-18 -6 -37 -6q-96 0 -166 69.5t-70 171t71 170t185.5 68.5t183 -70.5t68.5 -185.5v-659q0 -147 -89 -223t-224 -76h-250l-322 788
h250l234 -575h28q49 0 80 33t31 92v272z" />
    <glyph glyph-name="uni0E08" unicode="&#xe08;" horiz-adv-x="1140" 
d="M254 543.5q0 -31.5 21.5 -53t54 -21.5t54.5 21.5t22 53.5t-22 54.5t-54.5 22.5t-54 -23t-21.5 -54.5zM662 211q110 197 110 473q0 142 -74.5 232t-212 90t-234.5 -33t-200 -94l-14 217q192 123 451.5 123t402.5 -141.5t143 -401.5q0 -178 -69.5 -357.5t-182.5 -318.5
h-305l-67 260q-10 41 -11 92l-4 2q-31 -20 -73 -20q-92 0 -155 57.5t-63 152.5t66 152.5t165 57.5t149.5 -54.5t78.5 -152.5l88 -336h11z" />
    <glyph glyph-name="uni0E09" unicode="&#xe09;" horiz-adv-x="1333" 
d="M922 198.5q0 -30.5 21.5 -52t54 -21.5t53 21.5t20.5 52t-20.5 52t-53 21.5t-54 -21.5t-21.5 -52zM266 584.5q0 -31.5 19.5 -53t50.5 -21.5t50.5 21.5t19.5 53.5t-19.5 53t-50.5 21t-50.5 -21.5t-19.5 -53zM815 512q47 0 84 -14q6 33 6 114v125q0 133 -88 201t-242 68
q-236 0 -466 -140l-17 217q111 63 231.5 99.5t303.5 36.5q239 0 387.5 -118t148.5 -335v-182q0 -106 -53 -181q53 -25 90 -77t37 -111t-24.5 -110.5t-78 -88t-155 -36.5t-162.5 57t-61 150t69 145v2q-12 2 -32 2q-68 0 -116 -45t-72.5 -115t-24.5 -137v-39h-258v227
q0 76 32 142l-2 2q-16 -6 -33 -6q-90 0 -156.5 64.5t-66.5 157.5t67.5 155.5t176.5 62.5t174.5 -64.5t65.5 -171.5v-26q0 -93 -31 -162h4q88 131 262 131z" />
    <glyph glyph-name="uni0E0A" unicode="&#xe0a;" horiz-adv-x="1193" 
d="M227 983q0 -35 24.5 -59.5t59.5 -24.5t59.5 24.5t24.5 59.5t-24.5 59.5t-59.5 24.5t-59.5 -24.5t-24.5 -59.5zM571 957.5q0 -111.5 -26.5 -180t-68.5 -135t-58.5 -104.5t-16.5 -85v-88q0 -152 136 -152h100q135 0 135 152v260q0 68 -36 105.5t-93 41.5l-45 105l227 317
h283l-238 -309q80 -37 122 -98.5t42 -163.5v-314q0 -145 -91 -227t-241 -82h-231q-150 0 -241 82t-91 227v125q0 158 168 307l-2 7q-58 -14 -120 17q-132 67 -132 214q0 102 71 171t187.5 69t188 -75t71.5 -186.5z" />
    <glyph glyph-name="uni0E0B" unicode="&#xe0b;" horiz-adv-x="1327" 
d="M176 999.5q0 -28.5 21.5 -50t50 -21.5t50 21.5t21.5 50t-21.5 50t-50 21.5t-50 -21.5t-21.5 -50zM778 1014.5q0 -101.5 -39 -172t-105 -151.5t-94 -126t-28 -96v-104q0 -152 135 -152h121q135 0 135 152v282q0 116 -96 125l-45 105l235 317h283l-256 -317
q141 -59 141 -232v-336q0 -145 -91 -227t-240 -82h-252q-150 0 -241 82t-91 227v146q0 82 45 152.5t122 154.5t108.5 130t31.5 96t-37 50q-23 0 -31 -14t-20 -59t-33 -82t-71 -68t-129.5 -31t-145 59.5t-65.5 154.5t60 155.5t163 60.5q63 0 112.5 -25.5t73.5 -70.5h4
q16 37 60.5 66.5t111 29.5t117.5 -49t51 -150.5z" />
    <glyph glyph-name="uni0E0C" unicode="&#xe0c;" horiz-adv-x="1900" 
d="M360 196.5q0 -32.5 19.5 -54t50.5 -21.5t50.5 21.5t19.5 54t-19.5 54t-50.5 21.5t-50.5 -21.5t-19.5 -54zM846 219q0 -84 51 -84q45 0 45 82v105q-45 -3 -70.5 -33.5t-25.5 -69.5zM1186 721v-232q94 -8 178 -43.5t127 -78.5h4q-20 72 -20 198v629h262v-1194h-256v47
q0 115 -83 187.5t-212 87.5v-111q0 -109 -71 -170t-188.5 -61t-179 63t-61.5 168.5t62.5 183.5t179.5 94v213q0 150 -67.5 224.5t-194.5 74.5t-204 -43t-104 -100l187 -67v-127q-57 -18 -88 -70.5t-31 -105t-14 -80.5l2 -2q16 8 47 8q82 0 144.5 -62.5t62.5 -155.5
t-66.5 -154.5t-176.5 -61.5t-185.5 63t-75.5 176v191q0 104 46 176.5t109 103.5v6l-227 78v109q33 78 108.5 155.5t192.5 129t260 51.5q256 0 394.5 -135.5t138.5 -362.5z" />
    <glyph glyph-name="uni0E0D" unicode="&#xe0d;" horiz-adv-x="1949" 
d="M1087 -260q0 -29 19.5 -47.5t46.5 -18.5t46.5 19.5t19.5 47.5t-19.5 47t-47.5 19t-46.5 -19t-18.5 -48zM1356 -240.5q0 -76.5 -37 -99.5q113 0 189.5 67.5t90.5 180.5h193q-61 -410 -473 -410q-131 0 -214 36t-120 89t-37 109q0 98 58.5 151.5t144.5 53.5t145.5 -50.5
t59.5 -127zM360 196.5q0 -32.5 19.5 -54t50.5 -21.5t50.5 21.5t19.5 54t-19.5 54t-50.5 21.5t-50.5 -21.5t-19.5 -54zM1165 721v-387q0 -63 24.5 -90t84.5 -27h143q59 0 84 26.5t25 90.5v860h262v-922q0 -139 -79 -205.5t-216 -66.5h-295q-137 0 -216 66.5t-79 205.5v430
q0 150 -62.5 224.5t-205.5 74.5q-102 0 -176 -43t-101 -100l187 -67v-127q-57 -18 -88 -70.5t-31 -105t-14 -80.5l2 -2q16 8 47 8q82 0 144.5 -62.5t62.5 -155.5t-66.5 -154.5t-176.5 -61.5t-185.5 63t-75.5 176v191q0 104 46 176.5t109 103.5v6l-227 78v109
q33 78 107.5 155.5t189.5 129t254 51.5q250 0 386 -135.5t136 -362.5z" />
    <glyph glyph-name="uni0E0E" unicode="&#xe0e;" horiz-adv-x="1380" 
d="M205 196.5q0 -32.5 19.5 -54t50 -21.5t50 21.5t19.5 54t-19.5 54t-50 21.5t-50 -21.5t-19.5 -54zM293 481q0 138 121 201v6l-273 86v109q33 78 109 155.5t190.5 129t253.5 51.5q250 0 388.5 -136.5t138.5 -361.5v-1151h-260q-157 104 -360.5 104t-340.5 -137l-57 203
q66 68 166 105.5t209.5 37.5t211 -28.5t168.5 -69.5v917q0 150 -64.5 224.5t-207.5 74.5q-102 0 -177 -43t-101 -100l231 -76v-127q-57 -18 -77.5 -77.5t-20.5 -151.5v-207q0 -113 -76 -176t-185.5 -63t-176 61t-66.5 154.5t63.5 156t143.5 62.5q31 0 47 -8l2 2v73z" />
    <glyph glyph-name="uni0E0F" unicode="&#xe0f;" horiz-adv-x="1380" 
d="M205 196.5q0 -32.5 19.5 -54t50 -21.5t50 21.5t19.5 54t-19.5 54t-50 21.5t-50 -21.5t-19.5 -54zM293 481q0 138 121 201v6l-273 86v109q33 78 109 155.5t190.5 129t253.5 51.5q250 0 388.5 -136.5t138.5 -361.5v-1151h-238l-197 119h-6l-98 -119h-98q-45 39 -108.5 64.5
t-119 25.5t-102.5 -21.5t-70 -52.5l-61 199q35 35 96.5 55.5t118.5 20.5q173 0 274 -94l111 137h78l157 -88v886q0 150 -64.5 224.5t-207.5 74.5q-102 0 -177 -43t-101 -100l231 -76v-127q-57 -18 -77.5 -77.5t-20.5 -151.5v-207q0 -113 -76 -176t-185.5 -63t-176 61
t-66.5 154.5t63.5 156t143.5 62.5q31 0 47 -8l2 2v73z" />
    <glyph glyph-name="uni0E10" unicode="&#xe10;" horiz-adv-x="1204" 
d="M754 -245.5q0 -24.5 15 -41t40 -16.5t40 16.5t15 41t-15 42t-40 17.5t-40 -17.5t-15 -42zM244 -444h-119l-23 163h127q59 0 92 24t35 83h183q4 -53 32.5 -83t71.5 -34q-12 20 -12 55q0 76 50 121t126 45t129 -48t53 -139t-74.5 -143.5t-178.5 -52.5q-228 0 -285 111
q-52 -102 -207 -102zM254 543.5q0 -31.5 21.5 -53t54 -21.5t54.5 21.5t22 53.5t-22 54.5t-54.5 22.5t-54 -23t-21.5 -54.5zM481 1219q137 0 250 -48l86 115h283l-195 -237q129 -148 129 -373q0 -178 -69.5 -357.5t-182.5 -318.5h-305l-67 260q-10 41 -11 92l-4 2
q-31 -20 -73 -20q-92 0 -155 57.5t-63 152.5t66 152.5t165 57.5t149.5 -54.5t78.5 -152.5l88 -336h11q47 84 78.5 207t31.5 263t-78 232.5t-212 92.5t-231 -33t-200 -94l-14 217q192 123 444 123z" />
    <glyph glyph-name="uni0E11" unicode="&#xe11;" horiz-adv-x="1529" 
d="M176 999.5q0 -28.5 21.5 -50t50 -21.5t50 21.5t21.5 50t-21.5 50t-50 21.5t-50 -21.5t-21.5 -50zM1370 831v-831h-262v750q0 139 -30.5 197.5t-117.5 58.5t-167 -83t-125 -211t-45 -253v-459h-263v412q0 131 39 233.5t97 203.5t58.5 145t-34.5 44q-23 0 -31 -14t-20 -59
t-33 -82t-71 -68t-129.5 -31t-145 59.5t-65.5 154.5t60 155.5t163 60.5q63 0 112.5 -25.5t73.5 -70.5h4q16 37 59.5 66.5t97.5 29.5t91 -34.5t41 -81.5q47 53 125 87t176 34q162 0 252 -101.5t90 -286.5z" />
    <glyph glyph-name="uni0E12" unicode="&#xe12;" horiz-adv-x="2004" 
d="M950 217q0 -41 14.5 -61.5t36.5 -20.5q45 0 46 82v105q-46 -3 -71.5 -33.5t-25.5 -71.5zM612 578.5q0 -27.5 20.5 -48t48.5 -20.5t47.5 20.5t19.5 48.5t-19.5 47t-47.5 19t-48.5 -19.5t-20.5 -47zM422 823v-651q80 31 152.5 93.5t103.5 115.5l-4 4q-14 -8 -46 -8
q-32 -1 -73 23q-94 54 -94 173q0 88 59.5 147.5t154.5 59.5t159.5 -61.5t64.5 -167.5q0 -66 -22 -129q63 53 155 67v334q0 57 -26.5 104.5t-75.5 67.5l-205 -123l-205 123q-49 -20 -73.5 -67t-24.5 -105zM1290 807v-318q94 -8 178 -43.5t127 -78.5h4q-20 72 -20 198v629h262
v-1194h-256v47q0 115 -83 187.5t-212 87.5v-111q0 -109 -70.5 -170t-188.5 -61t-179 63t-61 178q0 25 2 37q-72 -96 -171.5 -164.5t-199.5 -93.5h-262v807q0 160 91 273.5t275 138.5l199 -136l199 136q184 -25 275 -138.5t91 -273.5z" />
    <glyph glyph-name="uni0E13" unicode="&#xe13;" horiz-adv-x="1937" 
d="M360 196.5q0 -32.5 19.5 -54t50.5 -21.5t50.5 21.5t19.5 54t-19.5 54t-50.5 21.5t-50.5 -21.5t-19.5 -54zM1528 212q0 -32 22.5 -54.5t54.5 -22.5t53 22.5t21 54.5t-21.5 53.5t-53 21.5t-54 -21.5t-22.5 -53.5zM1165 641q0 -129 -32 -207l4 -2q41 57 109.5 92t136 35
t110.5 -14q12 35 12 106v543h262v-565q0 -80 -10 -125t-37 -88q51 -25 90 -78t39 -113.5t-24.5 -115t-77.5 -92t-135 -37.5q-123 0 -188.5 66.5t-65.5 158.5t78 155v5q-20 8 -60.5 8t-89.5 -32t-85 -97.5t-36 -163.5v-80h-262v702q0 150 -62.5 224.5t-205.5 74.5
q-102 0 -176 -43t-101 -100l187 -67v-127q-57 -18 -88 -70.5t-31 -105t-14 -80.5l2 -2q16 8 47 8q82 0 144.5 -62.5t62.5 -155.5t-66.5 -154.5t-176.5 -61.5t-185.5 63t-75.5 176v191q0 104 46 176.5t109 103.5v6l-227 78v109q33 78 107.5 155.5t189.5 129t254 51.5
q250 0 386 -135.5t136 -362.5v-80z" />
    <glyph glyph-name="uni0E14" unicode="&#xe14;" horiz-adv-x="1425" 
d="M643 537.5q0 -27.5 20.5 -48t48.5 -20.5t47 20.5t19 48.5t-19.5 47t-47 19t-48 -19.5t-20.5 -47zM1266 717v-717h-262v698q0 147 -73 227.5t-218.5 80.5t-218 -80t-72.5 -228v-524q104 27 182 73t105 93l-4 4q-14 -8 -46 -8t-73 24q-94 54 -94 172q0 88 59 147.5
t154.5 59.5t160 -61.5t64.5 -167.5q0 -211 -146.5 -337t-361.5 -173h-262v717q0 150 67.5 263.5t192.5 176t293 62.5t292.5 -62.5t192.5 -176.5t68 -263z" />
    <glyph glyph-name="uni0E15" unicode="&#xe15;" horiz-adv-x="1449" 
d="M655 537.5q0 -27.5 20.5 -48t48.5 -20.5t47.5 20.5t19.5 48.5t-19.5 47t-47.5 19t-48.5 -19.5t-20.5 -47zM1290 807v-807h-262v823q0 57 -24.5 104.5t-73.5 67.5l-205 -123l-205 123q-49 -20 -73.5 -67t-24.5 -105v-651q109 27 190.5 74t108.5 94l-4 4q-14 -8 -46 -8
t-73 24q-94 54 -94 172q0 88 59.5 147.5t154.5 59.5t159.5 -61.5t64.5 -167.5q0 -211 -150.5 -337t-369.5 -173h-262v807q0 160 91 273.5t275 138.5l199 -136l199 136q184 -25 275 -138.5t91 -273.5z" />
    <glyph glyph-name="uni0E16" unicode="&#xe16;" horiz-adv-x="1325" 
d="M360 196.5q0 -32.5 19.5 -54t50.5 -21.5t50.5 21.5t19.5 54t-19.5 54t-50.5 21.5t-50.5 -21.5t-19.5 -54zM1165 721v-721h-262v702q0 150 -62.5 224.5t-205.5 74.5q-102 0 -176 -43t-101 -100l187 -67v-127q-57 -18 -88 -70.5t-31 -105t-14 -80.5l2 -2q16 8 47 8
q82 0 144.5 -62.5t62.5 -155.5t-66.5 -154.5t-176.5 -61.5t-185.5 63t-75.5 176v191q0 104 46 176.5t109 103.5v6l-227 78v109q33 78 107.5 155.5t189.5 129t254 51.5q250 0 386 -135.5t136 -362.5z" />
    <glyph glyph-name="uni0E17" unicode="&#xe17;" horiz-adv-x="1445" 
d="M207 975q0 -35 20.5 -58.5t55 -23.5t55 23.5t20.5 58.5t-20.5 58.5t-55 23.5t-55 -23.5t-20.5 -58.5zM274 610q0 58 29 129l-2 2q-18 -6 -37 -6q-96 0 -165.5 69.5t-69.5 171t70.5 170t185.5 68.5t183.5 -70.5t68.5 -185.5v-16q49 119 151.5 198t262 79t247.5 -107.5
t88 -296.5v-815h-262v733q0 156 -35 216.5t-114.5 60.5t-159.5 -95.5t-129 -249t-49 -315.5v-350h-263v610z" />
    <glyph glyph-name="uni0E18" unicode="&#xe18;" horiz-adv-x="1210" 
d="M642 1016q-124 0 -195.5 -38t-71.5 -108v-30h278q203 0 310.5 -87t107.5 -259v-222q0 -139 -79 -205.5t-216 -66.5h-344q-137 0 -216 66.5t-79 205.5v267h256v-205q0 -63 25.5 -93t83.5 -30h198q59 0 87 29.5t28 93.5v117q0 98 -47 142t-182 44h-467v176q0 195 137 300.5
t395 105.5q111 0 220.5 -27t185.5 -66l-23 -206q-160 96 -392 96z" />
    <glyph glyph-name="uni0E19" unicode="&#xe19;" horiz-adv-x="1325" 
d="M915 212q0 -32 23 -54.5t54.5 -22.5t53 22.5t21.5 54.5t-21.5 53.5t-53 21.5t-54.5 -21.5t-23 -53.5zM207 975q0 -35 20.5 -58.5t55 -23.5t55 23.5t20.5 58.5t-20.5 58.5t-55 23.5t-55 -23.5t-20.5 -58.5zM274 610q0 58 29 129l-2 2q-18 -6 -37 -6q-96 0 -165.5 69.5
t-69.5 171t70.5 170t185 68.5t183.5 -70.5t69 -185.5v-317q0 -118 -33 -205l4 -4q41 57 112.5 92t144.5 35t116 -14q12 35 12 106v543h262v-565q0 -80 -10 -125t-37 -88q51 -25 90 -78t39 -113.5t-24.5 -115t-78 -92t-135.5 -37.5q-123 0 -188.5 66.5t-65.5 158.5t78 155v5
q-20 8 -62 8t-95.5 -27t-91 -92.5t-37.5 -173.5v-80h-263v610z" />
    <glyph glyph-name="uni0E1A" unicode="&#xe1a;" horiz-adv-x="1361" 
d="M207 975q0 -35 20.5 -58.5t55 -23.5t55 23.5t20.5 58.5t-20.5 58.5t-55 23.5t-55 -23.5t-20.5 -58.5zM274 610q0 58 29 129l-2 2q-18 -6 -37 -6q-96 0 -165.5 69.5t-69.5 171t70.5 170t185 68.5t183.5 -70.5t69 -185.5v-624q0 -63 24.5 -90t83.5 -27h184q59 0 84 26.5
t25 90.5v860h262v-922q0 -139 -79 -205.5t-216 -66.5h-336q-137 0 -216 66.5t-79 205.5v338z" />
    <glyph glyph-name="uni0E1B" unicode="&#xe1b;" horiz-adv-x="1361" 
d="M207 975q0 -35 20.5 -58.5t55 -23.5t55 23.5t20.5 58.5t-20.5 58.5t-55 23.5t-55 -23.5t-20.5 -58.5zM274 610q0 58 29 129l-2 2q-18 -6 -37 -6q-96 0 -165.5 69.5t-69.5 171t70.5 170t185.5 68.5t183.5 -70.5t68.5 -185.5v-624q0 -63 24.5 -90t83.5 -27h184
q59 0 84 26.5t25 90.5v1282h262v-1344q0 -139 -79 -205.5t-216 -66.5h-336q-137 0 -216 66.5t-79 205.5v338z" />
    <glyph glyph-name="uni0E1C" unicode="&#xe1c;" horiz-adv-x="1474" 
d="M332 975q0 -35 20.5 -58.5t55 -23.5t55 23.5t20.5 58.5t-20.5 58.5t-55 23.5t-55 -23.5t-20.5 -58.5zM416 610v-213q0 -90 -17 -213h9q20 70 63 162l184 387h185l164 -387q33 -80 57 -162h8q-10 78 -10 213v797h252v-1194h-359l-145 342q-51 117 -59 211h-7
q-12 -94 -65 -207l-162 -346h-350v965q0 111 64.5 180t178 69t184.5 -68.5t71 -169.5t-70 -171t-166 -70q-18 0 -37 6l-2 -2q29 -71 29 -129z" />
    <glyph glyph-name="uni0E1D" unicode="&#xe1d;" horiz-adv-x="1474" 
d="M332 975q0 -35 20.5 -58.5t55 -23.5t55 23.5t20.5 58.5t-20.5 58.5t-55 23.5t-55 -23.5t-20.5 -58.5zM416 610v-213q0 -90 -17 -213h9q20 70 63 162l184 387h185l164 -387q33 -80 57 -162h8q-10 78 -10 213v1219h252v-1616h-359l-145 342q-51 117 -59 211h-7
q-12 -94 -65 -207l-162 -346h-350v965q0 111 64.5 180t178.5 69t184.5 -68.5t70.5 -169.5t-70 -171t-166 -70q-18 0 -37 6l-2 -2q29 -71 29 -129z" />
    <glyph glyph-name="uni0E1E" unicode="&#xe1e;" horiz-adv-x="1574" 
d="M207 975q0 -35 20.5 -58.5t55 -23.5t55 23.5t20.5 58.5t-20.5 58.5t-55 23.5t-55 -23.5t-20.5 -58.5zM274 610q0 58 29 129l-2 2q-18 -6 -37 -6q-96 0 -165.5 69.5t-69.5 171t70.5 170t184 68.5t178 -69.5t64.5 -179.5v-314q0 -66 -11 -206t-23 -216h16q29 160 80 344
l168 576h176l166 -576q51 -184 80 -344h16q-12 76 -23.5 216.5t-11.5 205.5v543h252v-1194h-348l-160 575q-40 133 -55 330h-8q-15 -181 -58 -330l-159 -575h-349v610z" />
    <glyph glyph-name="uni0E1F" unicode="&#xe1f;" horiz-adv-x="1574" 
d="M207 975q0 -35 20.5 -58.5t55 -23.5t55 23.5t20.5 58.5t-20.5 58.5t-55 23.5t-55 -23.5t-20.5 -58.5zM274 610q0 58 29 129l-2 2q-18 -6 -37 -6q-96 0 -165.5 69.5t-69.5 171t70.5 170t184.5 68.5t178 -69.5t64 -179.5v-314q0 -66 -11 -206t-23 -216h16q29 160 80 344
l168 576h176l166 -576q51 -184 80 -344h16q-12 76 -23.5 216.5t-11.5 205.5v965h252v-1616h-348l-160 575q-36 138 -55 330h-8q-18 -179 -58 -330l-159 -575h-349v610z" />
    <glyph glyph-name="uni0E20" unicode="&#xe20;" horiz-adv-x="1380" 
d="M205 196.5q0 -32.5 19.5 -54t50 -21.5t50 21.5t19.5 54t-19.5 54t-50 21.5t-50 -21.5t-19.5 -54zM293 481q0 138 121 201v6l-273 86v109q33 78 109 155.5t190.5 129t253.5 51.5q250 0 388.5 -136.5t138.5 -361.5v-721h-263v702q0 150 -64.5 224.5t-207.5 74.5
q-102 0 -177 -43t-101 -100l231 -76v-127q-57 -18 -77.5 -77.5t-20.5 -151.5v-207q0 -113 -76 -176t-185.5 -63t-176 61t-66.5 154.5t63.5 156t143.5 62.5q31 0 47 -8l2 2v73z" />
    <glyph glyph-name="uni0E21" unicode="&#xe21;" horiz-adv-x="1333" 
d="M274 248q0 -84 52 -84q27 0 36 20.5t9 55.5v110q-45 -2 -71 -32.5t-26 -69.5zM285 975q0 -35 20.5 -58.5t55 -23.5t55 23.5t20.5 58.5t-20.5 58.5t-55 23.5t-55 -23.5t-20.5 -58.5zM356 610q0 68 25 129l-2 2q-18 -6 -37 -6q-96 0 -166 69.5t-70 171t71 170t185.5 68.5
t183 -70.5t68.5 -185.5v-423q98 -12 187.5 -60.5t122.5 -95.5h4q-20 111 -21 186v629h262v-1194h-256v63q0 74 -47 138.5t-116.5 103.5t-135.5 45v-125q0 -123 -72.5 -184t-193.5 -61t-191.5 72.5t-70.5 188t73.5 196.5t196.5 98v75z" />
    <glyph glyph-name="uni0E22" unicode="&#xe22;" horiz-adv-x="1251" 
d="M287 984q0 -34 24.5 -58.5t58.5 -24.5t57.5 23.5t23.5 58.5t-24 58.5t-58.5 23.5t-58 -23.5t-23.5 -57.5zM106 922q0 125 71 208.5t184.5 83.5t182 -66.5t68.5 -153.5t-32.5 -138t-78.5 -75.5t-93 -24.5t-80 26h-4q52 -102 192 -102h109l26 -201h-127q-143 0 -143 -108
v-52q0 -106 96 -106h242q57 0 82.5 28.5t25.5 92.5v860h263v-922q0 -139 -79 -205.5t-216 -66.5h-392q-129 0 -206.5 63.5t-77.5 192.5v102q0 82 52 151t134 89v4q-199 85 -199 320z" />
    <glyph glyph-name="uni0E23" unicode="&#xe23;" horiz-adv-x="1046" 
d="M549 219q0 -35 20.5 -58.5t55 -23.5t55 23.5t20.5 58.5t-20.5 58.5t-55 23.5t-55 -23.5t-20.5 -58.5zM573 1014q-139 0 -198.5 -47t-59.5 -121h158q205 0 305.5 -78t100.5 -248v-284q0 -115 -69 -185.5t-183.5 -70.5t-185 68.5t-70.5 169.5t69.5 171t165.5 70q16 0 23 -2
l2 2q-10 10 -10 57q1 48 -13 74q-26 52 -170 51h-381v137q0 219 130 330t382 111q115 0 222.5 -24t177.5 -58l-27 -209q-158 86 -369 86z" />
    <glyph glyph-name="uni0E24" unicode="&#xe24;" horiz-adv-x="1325" 
d="M360 196.5q0 -32.5 19.5 -54t50.5 -21.5t50.5 21.5t19.5 54t-19.5 54t-50.5 21.5t-50.5 -21.5t-19.5 -54zM1165 721v-1149h-262v1130q0 150 -62.5 224.5t-205.5 74.5q-102 0 -176 -43t-101 -100l187 -67v-127q-57 -18 -88 -70.5t-31 -105t-14 -80.5l2 -2q16 8 47 8
q82 0 144.5 -62.5t62.5 -155.5t-66.5 -154.5t-176.5 -61.5t-185.5 63t-75.5 176v191q0 104 46 176.5t109 103.5v6l-227 78v109q33 78 107.5 155.5t189.5 129t254 51.5q250 0 386 -135.5t136 -362.5z" />
    <glyph glyph-name="uni0E25" unicode="&#xe25;" horiz-adv-x="1228" 
d="M291 203q0 -33 22.5 -55.5t55 -22.5t56.5 22.5t24 55.5t-24 55.5t-56.5 22.5t-55 -22.5t-22.5 -55.5zM562 1219q251 0 379 -114t128 -321v-784h-258v535q-57 10 -171.5 10t-216 -44t-126.5 -126q35 33 98.5 33t110.5 -26t76.5 -72t29.5 -105q0 -96 -68.5 -163t-163.5 -67
t-162.5 40t-106.5 107.5t-39 149.5q0 137 63.5 246t195.5 172.5t328 63.5q80 0 152 -11v27q0 123 -61.5 179.5t-202.5 56.5q-204 0 -418 -123l-16 217q198 119 449 119z" />
    <glyph glyph-name="uni0E26" unicode="&#xe26;" horiz-adv-x="1380" 
d="M205 196.5q0 -32.5 19.5 -54t50 -21.5t50 21.5t19.5 54t-19.5 54t-50 21.5t-50 -21.5t-19.5 -54zM293 481q0 138 121 201v6l-273 86v109q33 78 109 155.5t190.5 129t253.5 51.5q250 0 388.5 -136.5t138.5 -361.5v-1149h-263v1130q0 150 -64.5 224.5t-207.5 74.5
q-102 0 -177 -43t-101 -100l231 -76v-127q-57 -18 -77.5 -77.5t-20.5 -151.5v-207q0 -113 -76 -176t-185.5 -63t-176 61t-66.5 154.5t63.5 156t143.5 62.5q31 0 47 -8l2 2v73z" />
    <glyph glyph-name="uni0E27" unicode="&#xe27;" horiz-adv-x="1032" 
d="M549 219q0 -35 20.5 -58.5t55 -23.5t55 23.5t20.5 58.5t-20.5 58.5t-55 23.5t-55 -23.5t-20.5 -58.5zM879 797v-561q0 -115 -69 -185.5t-183.5 -70.5t-185 68.5t-70.5 169.5t69.5 171t165.5 70q18 0 37 -6l2 2q-29 71 -29 129v176q0 242 -235 241q-191 0 -365 -102
l-12 221q172 98 432 99q211 0 327 -117t116 -305z" />
    <glyph glyph-name="uni0E28" unicode="&#xe28;" horiz-adv-x="1425" 
d="M637 534.5q0 -26.5 20.5 -47t48.5 -20.5t47 20.5t19 48.5t-19.5 47t-47 19t-48 -20.5t-20.5 -47zM694.5 1219q149.5 0 251.5 -50l86 117h283l-189 -231q68 -58 104 -147t36 -191v-717h-262v698q0 139 -76 223.5t-218 84.5t-218 -81t-76 -227q0 -102 -47 -233h10
q113 274 326 274q90 0 150 -56t60 -147t-61 -149.5t-139 -58.5q-145 0 -193 116q-37 -39 -68.5 -120.5t-31.5 -165.5v-158h-262v717q0 150 67.5 263.5t192.5 176t274.5 62.5z" />
    <glyph glyph-name="uni0E29" unicode="&#xe29;" horiz-adv-x="1458" 
d="M645 217h193q59 0 83.5 26.5t24.5 90.5v117q-25 -2 -72 -2q-270 0 -337 126v-241q0 -64 24.5 -90.5t83.5 -26.5zM645 682q0 -29 20.5 -49.5t50.5 -20.5t51 20.5t21 49.5t-21.5 50.5t-51 21.5t-50 -21.5t-20.5 -50.5zM207 975q0 -35 20.5 -58.5t55 -23.5t55 23.5
t20.5 58.5t-20.5 58.5t-55 23.5t-55 -23.5t-20.5 -58.5zM274 610q0 58 29 129l-2 2q-18 -6 -37 -6q-96 0 -165.5 69.5t-69.5 171t70.5 170t185 68.5t183.5 -70.5t69 -185.5v-180q52 94 174 94q88 0 142 -51t54 -130.5t-55 -112.5q33 0 94 4v612h262v-489q47 66 54 149h176
q-33 -229 -230 -334v-248q0 -139 -78.5 -205.5t-216.5 -66.5h-344q-137 0 -216 66.5t-79 205.5v338z" />
    <glyph glyph-name="uni0E2A" unicode="&#xe2a;" horiz-adv-x="1282" 
d="M291 203q0 -33 22.5 -55.5t55 -22.5t56.5 22.5t24 55.5t-24 55.5t-56.5 22.5t-55 -22.5t-22.5 -55.5zM584 1219q127 0 225 -48l84 115h283l-195 -239q88 -107 88 -263v-784h-258v535q-57 10 -171.5 10t-216 -44t-126.5 -126q35 33 98.5 33t110.5 -26t76.5 -72t29.5 -105
q0 -96 -68.5 -163t-163.5 -67t-162.5 40t-106.5 107.5t-39 149.5q0 137 63.5 246t195.5 172.5t328 63.5q80 0 152 -11v27q0 119 -62.5 177.5t-201.5 58.5q-204 0 -418 -123l-16 217q198 119 471 119z" />
    <glyph glyph-name="uni0E2B" unicode="&#xe2b;" horiz-adv-x="1370" 
d="M207 975q0 -35 20.5 -58.5t55 -23.5t55 23.5t20.5 58.5t-20.5 58.5t-55 23.5t-55 -23.5t-20.5 -58.5zM918 989q0 -33 21.5 -55.5t54 -22.5t54 22.5t21.5 55.5t-21.5 55.5t-54 22.5t-54 -22.5t-21.5 -55.5zM274 610q0 58 29 129l-2 2q-18 -6 -37 -6q-96 0 -165.5 69.5
t-69.5 171t70.5 170t185.5 68.5t183.5 -70.5t68.5 -185.5v-407q55 94 142 175t150 103q-35 16 -60.5 58.5t-25.5 101.5q0 94 67 159.5t181.5 65.5t178.5 -66q64 -64 65 -142q0 -158 -125 -220q92 -63 92 -194v-592h-262v526q0 78 -27 121q-92 -27 -175 -118t-137 -210.5
t-64 -228.5v-90h-263v610z" />
    <glyph glyph-name="uni0E2C" unicode="&#xe2c;" horiz-adv-x="1574" 
d="M207 975q0 -35 20.5 -58.5t55 -23.5t55 23.5t20.5 58.5t-20.5 58.5t-55 23.5t-55 -23.5t-20.5 -58.5zM274 610q0 58 29 129l-2 2q-18 -6 -37 -6q-96 0 -165.5 69.5t-69.5 171t70.5 170t184.5 68.5t178 -69.5t64 -179.5v-469q0 -156 -18 -297h10q16 84 86 293l137 399h179
l178 -498q8 -25 30.5 -83t38.5 -111h11q-18 141 -19 297v338q0 82 -36 135t-113 53h-88v172h125q80 0 114.5 41t34.5 123v72h252v-56q0 -225 -180 -280q70 -29 106.5 -90.5t36.5 -176.5v-827h-356l-164 430q-39 101 -55 242h-5q-15 -128 -55 -240l-145 -432h-357v610z" />
    <glyph glyph-name="uni0E2D" unicode="&#xe2d;" horiz-adv-x="1247" 
d="M309 564q0 -32 19.5 -53.5t50.5 -21.5t50.5 21.5t19.5 53.5t-19.5 53.5t-50.5 21.5t-50.5 -21.5t-19.5 -53.5zM555 1001q-244 0 -430 -122l-10 217q82 57 202.5 90t241.5 33q268 0 401.5 -128t133.5 -333v-486q0 -139 -79 -205.5t-216 -66.5h-387q-125 0 -203 62.5
t-78 183.5v303q0 104 67.5 169.5t176 65.5t176 -62.5t67.5 -156.5q0 -61 -31.5 -111.5t-84.5 -80t-90 -29.5t-50 6l-2 -2q12 -18 12 -56q1 -75 85 -75h266q59 0 83.5 26.5t24.5 90.5v389q0 141 -67.5 209.5t-208.5 68.5z" />
    <glyph glyph-name="uni0E2E" unicode="&#xe2e;" horiz-adv-x="1251" 
d="M309 564q0 -32 19.5 -53.5t50.5 -21.5t50.5 21.5t19.5 53.5t-19.5 53.5t-50.5 21.5t-50.5 -21.5t-19.5 -53.5zM1094 758v-486q0 -139 -79 -205.5t-216 -66.5h-387q-125 0 -203 62.5t-78 183.5v303q0 104 67.5 169.5t176 65.5t176 -62.5t67.5 -156.5q0 -61 -31.5 -111.5
t-84.5 -80t-90 -29.5t-50 6l-2 -2q12 -18 12 -56q1 -75 85 -75h266q59 0 83.5 26.5t24.5 90.5v389q0 133 -69.5 205.5t-206.5 72.5q-244 0 -430 -122l-10 217q82 57 202.5 90t252.5 33t233 -48l84 115h282l-190 -235q115 -109 115 -293z" />
    <glyph glyph-name="uni0E2F" unicode="&#xe2f;" horiz-adv-x="1161" 
d="M238 1013q0 -34 23 -57.5t57 -23.5t57.5 23.5t23.5 57.5t-23.5 56.5t-57.5 22.5t-57 -22.5t-23 -56.5zM567 1012q0 -59 -24.5 -101.5t-65.5 -60.5q129 0 197.5 77t68.5 193v99h254v-1219h-262v782q-104 -100 -291 -100q-100 0 -186 38t-137 109.5t-51 172.5t68 171
t180 70t180.5 -66.5t68.5 -164.5z" />
    <glyph glyph-name="uni0E30" unicode="&#xe30;" horiz-adv-x="976" 
d="M209 333q0 -34 19.5 -55.5t52 -21.5t54 22.5t21.5 55.5t-21.5 55.5t-53 22.5t-52 -22.5t-20.5 -56.5zM506 340q0 -82 -37 -111q113 2 170 82t63 201h209q-41 -446 -481 -446q-195 0 -284 77.5t-89 178t64.5 160t162 59.5t160 -59.5t62.5 -141.5zM209 933
q0 -34 19.5 -55.5t52 -21.5t54 22.5t21.5 55.5t-21.5 55.5t-53 22.5t-52 -22.5t-20.5 -56.5zM506 940q0 -82 -37 -111q113 2 170 82t63 201h209q-43 -446 -481 -446q-195 0 -284 77.5t-89 178t64.5 160t162 59.5t160 -59.5t62.5 -141.5z" />
    <glyph glyph-name="uni0E31" unicode="&#xe31;" horiz-adv-x="0" 
d="M-571 1597.5q0 -32.5 19.5 -53t52 -20.5t54 20.5t21.5 53t-21.5 53t-54 20.5t-52 -20.5t-19.5 -53zM-274 1606q0 -80 -37 -109q131 2 206.5 81t84.5 198h219q-20 -219 -161.5 -331t-387.5 -112q-195 0 -284 76t-89 176t64.5 157.5t163 57.5t160 -57t61.5 -137z" />
    <glyph glyph-name="uni0E32" unicode="&#xe32;" horiz-adv-x="989" 
d="M829 791v-791h-262v764q0 242 -207 242q-180 0 -331 -101l-13 217q145 96 392 97q202 0 311.5 -118t109.5 -310z" />
    <glyph glyph-name="uni0E33" unicode="&#xe33;" horiz-adv-x="989" 
d="M829 791v-791h-262v764q0 242 -207 242q-180 0 -331 -101l-13 217q145 96 392 97q202 0 311.5 -118t109.5 -310zM-379 1562.5q0 -36.5 21.5 -60t56.5 -23.5t56.5 23.5t21.5 60t-21.5 60.5t-56.5 24t-56.5 -24t-21.5 -60.5zM-57 1562.5q0 -96.5 -71 -163t-174 -66.5
t-173 66.5t-70 163t69.5 164t173 67.5t174.5 -67.5t71 -164z" />
    <glyph glyph-name="uni0E34" unicode="&#xe34;" horiz-adv-x="0" 
d="M-654.5 1638q-95.5 0 -165 -34.5t-91.5 -87.5h505q-23 55 -88 88.5t-160.5 33.5zM-160 1358h-997v135q57 141 193.5 222t305.5 81t306 -80t192 -221v-137z" />
    <glyph glyph-name="uni0E35" unicode="&#xe35;" horiz-adv-x="0" 
d="M-658.5 1638q-95.5 0 -163 -34.5t-89.5 -87.5h505q-23 53 -90 87.5t-162.5 34.5zM-1157 1358v135q57 141 191.5 222t306.5 81q72 0 148.5 -23.5t125.5 -62.5v129h225v-481h-997z" />
    <glyph glyph-name="uni0E36" unicode="&#xe36;" horiz-adv-x="0" 
d="M-654.5 1638q-95.5 0 -165 -34.5t-91.5 -87.5h505q-23 55 -88 88.5t-160.5 33.5zM-408 1674q0 -30 20.5 -50t50.5 -20t50.5 20.5t20.5 50t-20.5 50t-50.5 20.5t-50.5 -20.5t-20.5 -50.5zM-349 1866q97 0 156.5 -54.5t59.5 -134.5t-49 -135q14 -25 22 -47v-137h-997v135
q57 141 193.5 222t308.5 81q78 0 147 -18q62 88 159 88z" />
    <glyph glyph-name="uni0E37" unicode="&#xe37;" horiz-adv-x="0" 
d="M-670 1638q-92 0 -155.5 -33.5t-85.5 -88.5h505q-37 55 -104.5 88.5t-159.5 33.5zM-1157 1358v135q53 137 178 219t266 82q76 0 138 -20v90h165v-168q43 -25 86 -66v234h164v-506h-997z" />
    <glyph glyph-name="uni0E38" unicode="&#xe38;" horiz-adv-x="0" 
d="M-408 -296.5q0 -22.5 16.5 -39t39 -16.5t39 16.5t16.5 39t-16.5 38.5t-39 16t-39 -16t-16.5 -38.5zM-160 -324v-294h-190v159q-6 -6 -33 -6q-59 0 -106.5 44t-47.5 119t49.5 124t137.5 49t139 -52t51 -143z" />
    <glyph glyph-name="uni0E39" unicode="&#xe39;" horiz-adv-x="0" 
d="M-760 -296.5q0 -22.5 16.5 -39t39 -16.5t39 16.5t16.5 39t-16.5 38.5t-39 16t-39 -16t-16.5 -38.5zM-512 -324v-104q0 -25 9 -35t36 -10h68q27 0 36 10t9 35v291h194v-330q0 -80 -42 -124t-128 -44h-202q-170 0 -170 176q-6 -6 -33 -6q-59 0 -106.5 44t-47.5 119t49 124
t137.5 49t139.5 -52t51 -143z" />
    <glyph glyph-name="uni0E3A" unicode="&#xe3a;" horiz-adv-x="0" 
d="M-113 -321.5q0 -73.5 -49 -124t-124.5 -50.5t-127 50.5t-51.5 124t51.5 124t127 50.5t124.5 -50.5t49 -124z" />
    <glyph glyph-name="uni0E3F" unicode="&#xe3f;" horiz-adv-x="1411" 
d="M983 424q0 86 -53 134t-166 65v-408q219 32 219 209zM471 207h180v424h-180v-424zM952 1024q0 162 -188 193v-383q188 28 188 190zM471 823h180v402h-180v-402zM1221 1063q0 -127 -77 -213t-222 -115v-4q158 -16 246.5 -107.5t88.5 -232.5q0 -190 -139 -283.5
t-354 -105.5v-192h-113v190h-446v1430h446v188h113v-191q217 -10 337 -99t120 -265z" />
    <glyph glyph-name="uni0E40" unicode="&#xe40;" horiz-adv-x="714" 
d="M348 219q0 -35 20.5 -58.5t55.5 -23.5t55.5 23.5t20.5 58.5t-20.5 58.5t-55.5 23.5t-55.5 -23.5t-20.5 -58.5zM428 584q0 -72 -25 -129l3 -2q18 6 36 6q96 0 166 -70t70 -171t-70.5 -169.5t-185.5 -68.5t-183.5 70.5t-68.5 185.5v958h258v-610z" />
    <glyph glyph-name="uni0E41" unicode="&#xe41;" horiz-adv-x="1335" 
d="M969 219q0 -35 20.5 -58.5t55 -23.5t55 23.5t20.5 58.5t-20.5 58.5t-55 23.5t-55 -23.5t-20.5 -58.5zM348 219q0 -35 20.5 -58.5t55.5 -23.5t55.5 23.5t20.5 58.5t-20.5 58.5t-55.5 23.5t-55.5 -23.5t-20.5 -58.5zM1049 584q0 -68 -25 -129l2 -2q18 6 37 6
q96 0 165.5 -70t69.5 -171t-70.5 -169.5t-185.5 -68.5t-183 70.5t-68 185.5v958h258v-610zM428 584q0 -72 -25 -129l3 -2q18 6 36 6q96 0 166 -70t70 -171t-70.5 -169.5t-185.5 -68.5t-183.5 70.5t-68.5 185.5v958h258v-610z" />
    <glyph glyph-name="uni0E42" unicode="&#xe42;" horiz-adv-x="886" 
d="M510 219q0 -35 20.5 -58.5t55.5 -23.5t55.5 23.5t20.5 58.5t-20.5 58.5t-55.5 23.5t-55.5 -23.5t-20.5 -58.5zM590 584q0 -72 -25 -129l2 -2q18 6 37 6q96 0 166 -70t70 -171t-71 -169.5t-185.5 -68.5t-183 70.5t-68.5 185.5v1056q0 94 -32 133t-118 39h-227v156
q0 193 136 283t327 90q274 0 422 -74l-29 -190q-51 31 -159.5 51t-219.5 20t-183.5 -27.5t-72.5 -111.5v-19h109q305 0 305 -333v-725z" />
    <glyph glyph-name="uni0E43" unicode="&#xe43;" horiz-adv-x="817" 
d="M440 219q0 -35 20.5 -58.5t55.5 -23.5t55.5 23.5t20.5 58.5t-20.5 58.5t-55.5 23.5t-55.5 -23.5t-20.5 -58.5zM188 1651q0 -73 33 -125l-209 -56q-16 29 -30.5 84.5t-14.5 102.5q0 160 115 248t291 88q114 0 204.5 -41t141.5 -115t51 -162t-36 -154.5t-98 -145.5
t-89 -124t-27 -92v-575q0 -71 -24 -129l2 -2q18 6 37 6q96 0 165.5 -70t69.5 -171t-70.5 -169.5t-185.5 -68.5t-183.5 70.5t-68.5 185.5v942q0 68 36 123t106 132t103.5 129t33.5 110t-40 98t-127 40t-136.5 -43t-49.5 -116z" />
    <glyph glyph-name="uni0E44" unicode="&#xe44;" horiz-adv-x="808" 
d="M432 219q0 -35 20.5 -58.5t55.5 -23.5t55.5 23.5t20.5 58.5t-20.5 58.5t-55.5 23.5t-55.5 -23.5t-20.5 -58.5zM33 1985q154 0 186 -113q35 57 95.5 89t131.5 32q119 0 202 -70t108 -158v-149q-111 -39 -177.5 -146.5t-66.5 -263.5v-622q0 -72 -25 -129l2 -2q18 6 37 6
q96 0 166 -70t70 -171t-70.5 -169.5t-185.5 -68.5t-183.5 70.5t-68.5 185.5v948q0 129 42 238.5t108.5 185t140.5 104.5v8q-29 76 -123 76q-59 0 -98 -29.5t-50 -83.5h-153q0 53 -34 76t-83 23h-92l29 203h92z" />
    <glyph glyph-name="uni0E45" unicode="&#xe45;" horiz-adv-x="989" 
d="M829 791v-1219h-262v1192q0 242 -207 242q-180 0 -331 -101l-13 217q145 96 392 97q202 0 311.5 -118t109.5 -310z" />
    <glyph glyph-name="uni0E46" unicode="&#xe46;" horiz-adv-x="1222" 
d="M272 692q0 -33 22.5 -55.5t55.5 -22.5t55.5 22.5t22.5 55.5t-22.5 55.5t-55.5 22.5t-55.5 -22.5t-22.5 -55.5zM1063 877v-1307h-262v1329q0 51 -17.5 94t-48.5 56l-184 -99l-184 99q-29 -16 -46.5 -59.5t-15.5 -94.5q2 0 21.5 7t59.5 7t89 -23.5t82 -72.5t33 -134
t-66.5 -149.5t-173.5 -64.5q-143 0 -216 104.5t-73 262.5t92.5 275.5t239.5 135.5l158 -94l156 94q180 -16 268 -120.5t88 -245.5z" />
    <glyph glyph-name="uni0E47" unicode="&#xe47;" horiz-adv-x="0" 
d="M-365 1525q0 -19 15.5 -34.5t36 -15.5t35 15t14.5 34.5t-14.5 35t-34 15.5t-36 -15.5t-16.5 -34.5zM-696 1747q-63 0 -91 -33t-28 -77t17.5 -72.5t43 -28.5t45 25.5t25.5 66.5h111q30 -98 102 -98q0 68 39 109.5t116 41.5t121.5 -45t44.5 -112.5t-45 -116.5t-118 -49h-84
q-59 0 -130 30.5t-96 79.5h-4q-45 -111 -166 -110q-94 0 -157.5 71.5t-63.5 189.5t76 206t238 88h520v-166h-516z" />
    <glyph glyph-name="uni0E48" unicode="&#xe48;" horiz-adv-x="0" 
d="M-412 1358v428h254l-32 -428h-222z" />
    <glyph glyph-name="uni0E49" unicode="&#xe49;" horiz-adv-x="0" 
d="M-670 1691.5q0 -28.5 18.5 -45t46.5 -16.5t44 16.5t16 45t-16.5 47t-43 18.5t-46 -18.5t-19.5 -47zM-412 1690q0 -43 -19.5 -88.5t-47.5 -73.5q94 33 153.5 124t61.5 218h215q-4 -254 -158.5 -388t-445.5 -134q-94 0 -119 4v102q68 15 133 64q-68 -4 -116 41t-48 121.5
t57.5 135t139.5 58.5t138 -52.5t56 -131.5z" />
    <glyph glyph-name="uni0E4A" unicode="&#xe4a;" horiz-adv-x="0" 
d="M-817 1485.5q0 -23.5 15.5 -37.5t36.5 -14t36.5 15t15.5 38t-14 38t-36.5 15t-38 -15.5t-15.5 -39zM-739 1634q145 -10 145 -156q0 -58 -49 -98.5t-126 -40.5t-124 51.5t-47 133.5q0 139 65.5 224t190.5 95l88 -59l104 59q221 -27 222 -233v-68q57 23 84.5 110t27.5 201
h209q0 -245 -117.5 -370t-369.5 -125v215q0 88 -60 115l-96 -56l-108 62q-12 -4 -24.5 -23.5t-14.5 -36.5z" />
    <glyph glyph-name="uni0E4B" unicode="&#xe4b;" horiz-adv-x="0" 
d="M2 1706v-178l-201 8l4 -180h-219l4 180l-200 -6v176l200 -8l-4 180h219l-4 -180z" />
    <glyph glyph-name="uni0E4C" unicode="&#xe4c;" horiz-adv-x="0" 
d="M-516 1564.5q0 -30.5 20.5 -52t51.5 -21.5t53 21.5t22 52t-22.5 52t-53 21.5t-51 -21.5t-20.5 -52zM-217 1569.5q0 -98.5 -65.5 -160t-164 -61.5t-165 62.5t-66.5 143.5q0 142 133 224l357 202l92 -141l-211 -117v-4q90 -50 90 -148.5z" />
    <glyph glyph-name="uni0E4D" unicode="&#xe4d;" horiz-adv-x="0" 
d="M-385 1562.5q0 -36.5 21.5 -60t56.5 -23.5t56.5 23.5t21.5 60t-21.5 60.5t-56.5 24t-56.5 -24t-21.5 -60.5zM-63 1562.5q0 -96.5 -71 -163t-174 -66.5t-173 66.5t-70 163t69.5 164t173 67.5t174.5 -67.5t71 -164z" />
    <glyph glyph-name="uni0E4E" unicode="&#xe4e;" horiz-adv-x="0" 
d="M-451 1501q73 0 125 21v-133q-55 -35 -147 -35t-159.5 49t-67.5 136t46 137t138 50q27 0 43 -2q-29 33 -29 78t40 78t122 33h158l37 -152h-150q-18 0 -29.5 -9t-11.5 -23t12.5 -22.5t42.5 -18.5l-38 -117q-61 23 -133.5 22.5t-71.5 -43.5q0 -49 73 -49z" />
    <glyph glyph-name="uni0E4F" unicode="&#xe4f;" horiz-adv-x="1200" 
d="M825 435q0 -95 -65.5 -160.5t-160.5 -65.5t-160.5 66.5t-65.5 160.5t66.5 160t160.5 66t159.5 -66t65.5 -161zM287 435q0 -85 42 -157.5t113.5 -114.5t157.5 -42t157.5 42t113.5 114.5t42 157.5t-42 157t-113.5 115t-157.5 43t-157.5 -43t-113.5 -115t-42 -157zM1057 435
q0 -124 -61.5 -229.5t-166 -167t-229.5 -61.5t-229.5 61.5t-166 167t-61.5 229.5t61.5 229.5t167 167t228.5 61.5t228.5 -61.5t167 -167t61.5 -229.5z" />
    <glyph glyph-name="uni0E50" unicode="&#xe50;" horiz-adv-x="1429" 
d="M383 526.5q0 -100.5 42 -180.5t117.5 -125t172 -45t172.5 45t118 125t42 180.5t-42 180t-118 125t-172.5 45.5t-172 -45.5t-117.5 -125t-42 -180zM1319 526.5q0 -161.5 -77 -286.5t-214 -196t-313 -71t-313.5 71t-214 196t-76.5 286.5t76.5 286.5t214 195.5t313.5 70.5
t313 -70.5t214 -195.5t77 -286.5z" />
    <glyph glyph-name="uni0E51" unicode="&#xe51;" horiz-adv-x="1449" 
d="M596 422q0 -35 25.5 -60.5t60.5 -25.5t60.5 25.5t25.5 60.5t-25.5 60.5t-60.5 25.5t-60.5 -25.5t-25.5 -60.5zM1339 462q0 -192 -87 -344.5t-238.5 -232.5t-343.5 -80h-103l-28 203h102q188 0 307 123t119 350q0 172 -93 284t-269 112q-100 0 -177 -39t-119 -105.5
t-42 -146.5q0 -123 75 -203q-4 18 -4 55q0 98 62.5 159.5t178.5 61.5t186.5 -68.5t70.5 -184.5t-89 -181t-222 -65q-219 0 -371 90t-152 336q0 147 77 258.5t214 173t321 61.5t328 -75.5t220.5 -212.5t76.5 -329z" />
    <glyph glyph-name="uni0E52" unicode="&#xe52;" horiz-adv-x="1630" 
d="M692 528.5q0 -32.5 23.5 -57.5t57.5 -25t57.5 25t23.5 59t-23.5 57t-57.5 23t-57.5 -24.5t-23.5 -57zM1497 668v-332q0 -176 -87 -256t-296 -80h-588q-209 0 -296 80t-87 256v858h263v-813q0 -96 34.5 -134t124.5 -38h510q90 0 125 38t35 134v328q0 145 -84 172l-147 -97
l-142 88q-35 -8 -62.5 -41.5t-27.5 -66.5v-14q8 2 43 2t84 -23.5t82 -74t33 -135.5t-67.5 -150.5t-177.5 -65.5t-176.5 68.5t-66.5 171.5v188q0 143 86 233.5t240 118.5l149 -114l127 110q369 -16 369 -411z" />
    <glyph glyph-name="uni0E53" unicode="&#xe53;" horiz-adv-x="1423" 
d="M311 219q0 -35 20.5 -58.5t55.5 -23.5t55.5 23.5t20.5 58.5t-20.5 58.5t-55.5 23.5t-55.5 -23.5t-20.5 -58.5zM395 584q0 -61 -28 -129l2 -2q18 6 37 6q96 0 165.5 -70t69.5 -171t-70.5 -169.5t-185.5 -68.5t-183.5 70.5t-68.5 185.5v460q0 180 83 281.5t243 101.5
q78 0 149.5 -46t102.5 -115q33 70 104.5 115.5t159.5 45.5q147 0 228 -102.5t81 -280.5v-696h-260v717q0 63 -24.5 100t-67.5 37t-69.5 -34t-26.5 -87v-215h-256v215q0 53 -27 87t-69 34t-65.5 -37t-23.5 -100v-133z" />
    <glyph glyph-name="uni0E54" unicode="&#xe54;" horiz-adv-x="1402" 
d="M913 483.5q0 -32.5 22.5 -55t55.5 -22.5t55.5 22.5t22.5 55t-22.5 55t-55.5 22.5t-55.5 -22.5t-22.5 -55zM1186 0q-176 0 -277 92q-100 -106 -288 -106q-147 0 -262 68.5t-179.5 191t-64.5 286.5t117.5 343.5t492.5 179.5h274q63 0 88 19.5t25 70.5v49h279v-55
q0 -140 -101.5 -213.5t-257.5 -73.5h-303q-154 0 -246 -85t-92 -243q0 -98 35 -175t94.5 -119t114.5 -42q110 0 166 45q-29 35 -48.5 98.5t-19.5 123.5q0 113 70.5 188.5t184.5 75.5t184.5 -67.5t70.5 -159.5t-60.5 -149.5t-133.5 -57.5q-29 0 -54 10l-2 -4
q31 -41 87.5 -64.5t123.5 -23.5h176l-41 -203h-153z" />
    <glyph glyph-name="uni0E55" unicode="&#xe55;" horiz-adv-x="1402" 
d="M913 483.5q0 -32.5 22.5 -55t55.5 -22.5t55.5 22.5t22.5 55t-22.5 55t-55.5 22.5t-55.5 -22.5t-22.5 -55zM590 1116q0 -33 20.5 -55.5t53 -22.5t53 22.5t20.5 55.5t-20.5 55.5t-53 22.5t-53 -22.5t-20.5 -55.5zM1186 0q-176 0 -277 92q-100 -106 -288 -106
q-147 0 -262 68.5t-179.5 190.5t-64.5 295t95 299t263 179q-25 43 -24 98q0 86 60.5 145.5t152.5 59.5t154.5 -60.5t62.5 -144.5q0 -31 -11 -61h131q63 0 88 19.5t25 70.5v49h279v-55q0 -139 -101.5 -213t-257.5 -74h-303q-154 0 -246 -85t-92 -243q0 -98 35 -175t94.5 -119
t114.5 -42q110 0 166 45q-29 35 -48.5 98.5t-19.5 123.5q0 113 70.5 188.5t184.5 75.5t184.5 -67.5t70.5 -159.5t-60.5 -149.5t-133.5 -57.5q-29 0 -54 10l-2 -4q31 -41 87.5 -64.5t123.5 -23.5h176l-41 -203h-153z" />
    <glyph glyph-name="uni0E56" unicode="&#xe56;" horiz-adv-x="1400" 
d="M330 428q0 -33 22.5 -55.5t55 -22.5t55 22.5t22.5 55.5t-22.5 55.5t-55 22.5t-55 -22.5t-22.5 -55.5zM768 1079q129 0 250 -65.5t196.5 -189.5t75.5 -301t-86 -302t-226 -185.5t-292 -60.5t-272.5 50.5t-193.5 145.5t-73 218t73 200t187 77t184.5 -69t70.5 -167
t-50.5 -155.5t-122.5 -69.5q67 -37 171 -37t182 41t126 125t48 196t-44 187.5t-117 115t-157 39.5q-174 0 -284 -129h-201l-152 451h263l73 -242q146 127 371 127z" />
    <glyph glyph-name="uni0E57" unicode="&#xe57;" horiz-adv-x="1812" 
d="M311 219q0 -35 20.5 -58.5t55.5 -23.5t55.5 23.5t20.5 58.5t-20.5 58.5t-55.5 23.5t-55.5 -23.5t-20.5 -58.5zM551 745q0 109 -78 109t-78 -117v-153q0 -61 -28 -129l2 -2q18 6 37 6q96 0 165.5 -70t69.5 -171t-70.5 -169.5t-185.5 -68.5t-183.5 70.5t-68.5 185.5v481
q0 362 309 362q74 0 139.5 -46t96.5 -115q35 72 99.5 116.5t148.5 44.5q143 0 215.5 -93t72.5 -269v-506h46q151 0 151 192v791h258v-795q0 -399 -397 -399h-314v737q0 117 -80 117t-79 -109v-124h-248v124z" />
    <glyph glyph-name="uni0E58" unicode="&#xe58;" horiz-adv-x="1468" 
d="M1061 514q0 -33 22.5 -55.5t55 -22.5t55.5 22.5t23 55.5t-23 55.5t-55.5 22.5t-55 -22.5t-22.5 -55.5zM985 852h-307q-143 0 -215 -72.5t-72 -193.5v-209q0 -66 35 -110t90 -56l225 160l250 -154q80 4 142 62q-57 -14 -154.5 35t-97.5 196q0 102 70.5 171t188.5 69
t192.5 -81t74.5 -211t-54.5 -236.5t-156.5 -169t-238 -62.5l-206 147l-189 -147q-213 0 -323.5 100t-110.5 281v211q0 223 153.5 348t415.5 125h254q63 0 88 19.5t25 70.5v49h278v-55q0 -140 -101 -213.5t-257 -73.5z" />
    <glyph glyph-name="uni0E59" unicode="&#xe59;" horiz-adv-x="1460" 
d="M479 212q0 -36 24.5 -58.5t58.5 -22.5t57.5 22.5t23.5 58.5t-23.5 58.5t-57.5 22.5t-58.5 -22.5t-24.5 -58.5zM1026 1079q111 0 160 -75l28 196h238l-92 -444h-213q-10 55 -35.5 85.5t-55.5 30.5q-62 0 -79 -90q182 -508 283 -782h-265l-262 729q-53 141 -153 141
q-99 0 -153 -89t-54 -207t20 -185q73 68 181 68t174.5 -63.5t66.5 -172t-71.5 -179.5t-200.5 -71t-230.5 86t-151.5 220.5t-50 286.5t56 271t160.5 181.5t241.5 62.5q80 0 160 -40t121 -111q8 63 62.5 107t113.5 44z" />
    <glyph glyph-name="uni0E5A" unicode="&#xe5a;" horiz-adv-x="1667" 
d="M238 1013q0 -34 23 -57.5t57 -23.5t57.5 23.5t23.5 57.5t-23.5 56.5t-57.5 22.5t-57 -22.5t-23 -56.5zM567 1012q0 -59 -24.5 -101.5t-65.5 -60.5q129 0 197.5 77t68.5 193v99h254v-369q123 4 187.5 80t64.5 190v99h254v-1219h-262v782q-90 -88 -244 -98v-684h-262v782
q-104 -100 -291 -100q-100 0 -186 38t-137 109.5t-51 172.5t68 171t180 70t180.5 -66.5t68.5 -164.5z" />
    <glyph glyph-name="uni0E5B" unicode="&#xe5b;" horiz-adv-x="2551" 
d="M690 661.5q0 -32.5 22.5 -55t55.5 -22.5t55.5 22.5t22.5 55t-22.5 55t-55.5 22.5t-55.5 -22.5t-22.5 -55zM332 621q0 -102 49 -184.5t134 -128.5t190 -46q174 0 291.5 107.5t177 268.5t69.5 325h131l148 -418l110 370h123l127 -354l96 309h115q23 -168 84 -261t147 -93
t152 25l55 -148q-123 -41 -219 -41q-180 0 -284 166l-84 -276h-113l-131 356l-121 -393h-115l-123 348q-80 -213 -240.5 -341t-395.5 -128q-164 0 -294 70.5t-203 193t-73 270.5t57.5 262.5t167 180t245.5 65.5t229.5 -53t143.5 -146t50 -217t-69.5 -205t-186.5 -81
t-187.5 68.5t-70.5 177.5t68.5 168t162.5 59q33 0 46 -6q-45 72 -149 72q-105 0 -207.5 -73t-102.5 -269z" />
    <glyph glyph-name="endash" unicode="&#x2013;" horiz-adv-x="1024" 
d="M0 451v208h1024v-208h-1024z" />
    <glyph glyph-name="emdash" unicode="&#x2014;" horiz-adv-x="2048" 
d="M246 451v208h1556v-208h-1556z" />
    <glyph glyph-name="quoteleft" unicode="&#x2018;" horiz-adv-x="573" 
d="M84 1012l182 491h221l-127 -491h-276z" />
    <glyph glyph-name="quoteright" unicode="&#x2019;" horiz-adv-x="573" 
d="M86 1012l129 491h274l-180 -491h-223z" />
    <glyph glyph-name="quotesinglbase" unicode="&#x201a;" horiz-adv-x="573" 
d="M86 -270l129 493h277l-183 -493h-223z" />
    <glyph glyph-name="quotedblleft" unicode="&#x201c;" horiz-adv-x="983" 
d="M492 1012l182 491h223l-129 -491h-276zM84 1012l182 491h221l-127 -491h-276z" />
    <glyph glyph-name="quotedblright" unicode="&#x201d;" horiz-adv-x="983" 
d="M496 1012l127 491h276l-182 -491h-221zM86 1012l129 491h277l-183 -491h-223z" />
    <glyph glyph-name="quotedblbase" unicode="&#x201e;" horiz-adv-x="983" 
d="M496 -270l125 493h278l-182 -493h-221zM86 -270l129 493h277l-183 -493h-223z" />
    <glyph glyph-name="bullet" unicode="&#x2022;" horiz-adv-x="1024" 
d="M866 712q0 -95 -48 -177t-129 -130.5t-178 -48.5t-179 48.5t-129 130t-47 179.5t48 178.5t131 127.5t179 47t176 -48t128 -130t48 -177z" />
    <glyph glyph-name="ellipsis" unicode="&#x2026;" horiz-adv-x="2048" 
d="M1561 0v287h288v-287h-288zM879 0v287h288v-287h-288zM197 0v287h288v-287h-288z" />
    <glyph glyph-name="perthousand" unicode="&#x2030;" horiz-adv-x="2740" 
d="M2109 355q0 -108 39 -162t100.5 -54t100.5 54.5t39 161.5t-38 157.5t-101.5 50.5t-101.5 -50t-38 -158zM1278 355q0 -108 39 -162t100.5 -54t100 54.5t38.5 161.5t-37.5 157.5t-101 50.5t-101.5 -50t-38 -158zM2609 362q0 -178 -98 -282.5t-262 -104.5t-262.5 104.5
t-98.5 281.5t97.5 273.5t263.5 96.5t263 -95.5t97 -273.5zM1778 362q0 -178 -98.5 -282.5t-262.5 -104.5t-262 104.5t-98 281.5t97 273.5t263 96.5t263.5 -95.5t97.5 -273.5zM352 1078q0 -108 39 -162t100.5 -54t100.5 54.5t39 161.5t-38 157.5t-101.5 50.5t-101.5 -50
t-38 -158zM852 1084q0 -178 -98.5 -282t-262 -104t-262 104.5t-98.5 281.5t97.5 273.5t263 96.5t263 -96t97.5 -274zM428 -43l911 1550h172l-911 -1550h-172z" />
    <glyph glyph-name="guilsinglleft" unicode="&#x2039;" horiz-adv-x="669" 
d="M573 106h-254l-237 412l237 414h254l-221 -414z" />
    <glyph glyph-name="guilsinglright" unicode="&#x203a;" horiz-adv-x="669" 
d="M350 106h-254l221 412l-221 414h254l238 -414z" />
    <glyph glyph-name="fraction" unicode="&#x2044;" horiz-adv-x="286" 
d="M-358 -45l850 1565h172l-850 -1565h-172z" />
    <glyph glyph-name="Euro" unicode="&#x20ac;" horiz-adv-x="1220" 
d="M903 1208q-133 0 -240.5 -71.5t-148.5 -196.5h498l-21 -149h-504q-4 -23 -4 -65t4 -60h490l-21 -150h-444q41 -137 145.5 -211t247.5 -74q92 0 160 19l12 -248q-88 -16 -184 -16q-272 0 -449.5 142t-224.5 388h-143l18 150h107q-2 18 -2 60t2 65h-125l18 149h129
q61 233 241.5 370.5t434.5 137.5q115 0 205 -16l-39 -244q-88 20 -162 20z" />
    <glyph glyph-name="onethird" unicode="&#x2153;" horiz-adv-x="1843" 
d="M346 575v426q0 170 6 238h-4q-31 -31 -112 -94l-43 -33l-93 133l267 189h180v-859h-201zM420 -45l850 1565h172l-850 -1565h-172zM1327 508q209 0 209 110t-178 109q-94 0 -178 -43l-13 152q102 36 249 36t232 -59t85 -164q0 -169 -197 -198v-5q96 -12 152 -67t57 -141
q-1 -117 -105 -185q-104 -67 -252 -67t-245 28l10 162q119 -43 206 -43q187 0 187 119t-219 119l-47 -4v143q14 -2 47 -2z" />
    <glyph glyph-name="twothirds" unicode="&#x2154;" horiz-adv-x="1843" 
d="M664 1196q0 -165 -184 -330q-96 -86 -177 -141v-4q78 4 252 4h127v-150h-604v152q211 166 295 262t84 171q0 136 -146 134q-100 0 -198 -57l-19 160q104 51 250 51t233 -64q87 -63 87 -188zM420 -45l850 1565h172l-850 -1565h-172zM1327 508q209 0 209 110t-178 109
q-94 0 -178 -43l-13 152q102 36 249 36t232 -59t85 -164q0 -169 -197 -198v-5q96 -12 152 -67t57 -141q-1 -117 -105 -185q-104 -67 -252 -67t-245 28l10 162q119 -43 206 -43q187 0 187 119t-219 119l-47 -4v143q14 -2 47 -2z" />
    <glyph glyph-name="oneeighth" unicode="&#x215b;" horiz-adv-x="1843" 
d="M346 575v426q0 170 6 238h-4q-31 -31 -112 -94l-43 -33l-93 133l267 189h180v-859h-201zM420 -45l850 1565h172l-850 -1565h-172zM1315 240q0 -55 38 -88t98 -33t100 33t40 85t-36 86t-117 60q-123 -48 -123 -143zM1325 641q0 -47 34 -78t103 -55q109 45 109 129
q0 51 -33 78t-88 27t-90 -27t-35 -74zM1757 664q0 -72 -36 -120t-119 -87q100 -37 141 -87t41 -134q0 -117 -93 -185q-93 -67 -242 -67t-240 66t-91 175q0 150 185 221q-88 35 -125 83t-37 120q0 101 87 163t223 62t221 -56t85 -154z" />
    <glyph glyph-name="threeeighths" unicode="&#x215c;" horiz-adv-x="1843" 
d="M262 1083q209 0 209 110t-176 110q-92 0 -180 -43l-13 151q102 37 249 37t232 -59t85 -164q0 -168 -197 -199v-4q97 -12 153 -68t56 -141q0 -117 -104 -185t-252 -67q-148 0 -246 29l10 162q119 -43 209 -43q184 0 184 120t-219 117l-47 -4v143q14 -2 47 -2zM420 -45
l850 1565h172l-850 -1565h-172zM1315 240q0 -55 38 -88t98 -33t100 33t40 85t-36 86t-117 60q-123 -48 -123 -143zM1325 641q0 -47 34 -78t103 -55q109 45 109 129q0 51 -33 78t-88 27t-90 -27t-35 -74zM1757 664q0 -72 -36 -120t-119 -87q100 -37 141 -87t41 -134
q0 -117 -93 -185q-93 -67 -242 -67t-240 66t-91 175q0 150 185 221q-88 35 -125 83t-37 120q0 101 87 163t223 62t221 -56t85 -154z" />
    <glyph glyph-name="fiveeighths" unicode="&#x215d;" horiz-adv-x="1843" 
d="M385 1130q137 0 219 -72t82 -204q0 -131 -99 -212t-270 -81q-113 0 -204 25v164q92 -37 183 -37t142 35t51 102q0 145 -202 145q-76 0 -166 -26l6 465h526v-144h-356l-4 -166q45 6 92 6zM420 -45l850 1565h172l-850 -1565h-172zM1315 240q0 -55 38 -88t98 -33t100 33
t40 85t-36 86t-117 60q-123 -48 -123 -143zM1325 641q0 -47 34 -78t103 -55q109 45 109 129q0 51 -33 78t-88 27t-90 -27t-35 -74zM1757 664q0 -72 -36 -120t-119 -87q100 -37 141 -87t41 -134q0 -117 -93 -185q-93 -67 -242 -67t-240 66t-91 175q0 150 185 221
q-88 35 -125 83t-37 120q0 101 87 163t223 62t221 -56t85 -154z" />
    <glyph glyph-name="seveneighths" unicode="&#x215e;" horiz-adv-x="1843" 
d="M70 1280v154h614v-160l-311 -699h-217l327 705h-413zM420 -45l850 1565h172l-850 -1565h-172zM1315 240q0 -55 38 -88t98 -33t100 33t40 85t-36 86t-117 60q-123 -48 -123 -143zM1325 641q0 -47 34 -78t103 -55q109 45 109 129q0 51 -33 78t-88 27t-90 -27t-35 -74z
M1757 664q0 -72 -36 -120t-119 -87q100 -37 141 -87t41 -134q0 -117 -93 -185q-93 -67 -242 -67t-240 66t-91 175q0 150 185 221q-88 35 -125 83t-37 120q0 101 87 163t223 62t221 -56t85 -154z" />
    <glyph glyph-name="partialdiff" unicode="&#x2202;" horiz-adv-x="1257" 
d="M352 505q0 -142 77 -228.5t191.5 -86.5t189.5 87.5t75 231.5t-74.5 230t-192.5 86t-192 -89t-74 -231zM564 1022q156 0 261 -92h4q-74 166 -242.5 291t-377.5 213l176 157q373 -164 583 -402.5t210 -600.5q0 -182 -71 -321.5t-199 -215.5t-293 -76t-289.5 65.5
t-194.5 184.5t-70 273t62.5 272.5t173.5 185t267 66.5z" />
    <glyph glyph-name="product" unicode="&#x220f;" horiz-adv-x="1605" 
d="M1141 -430v1757h-676v-1757h-293v1999h1262v-1999h-293z" />
    <glyph glyph-name="summation" unicode="&#x2211;" horiz-adv-x="1439" 
d="M854 1331q-137 0 -383 6l-2 -2q92 -115 233 -309l304 -414l-361 -479q-139 -188 -244 -309l2 -2q246 6 412 6h559v-258h-1300v240l602 778l-576 762v219h1246v-238h-492z" />
    <glyph glyph-name="minus" unicode="&#x2212;" horiz-adv-x="1220" 
d="M74 424v221h1073v-221h-1073z" />
    <glyph glyph-name="uni2215" unicode="&#x2215;" horiz-adv-x="286" 
d="M-358 -45l850 1565h172l-850 -1565h-172z" />
    <glyph glyph-name="uni2219" unicode="&#x2219;" horiz-adv-x="532" 
d="M121 410v286h293v-286h-293z" />
    <glyph glyph-name="radical" unicode="&#x221a;" horiz-adv-x="1339" 
d="M37 317v224h465l141 -441q55 -173 80 -301h4q27 182 53 312l301 1458h267l-461 -1999h-320l-266 747h-264z" />
    <glyph glyph-name="infinity" unicode="&#x221e;" horiz-adv-x="1548" 
d="M285 522q0 -96 45 -161.5t122.5 -65.5t130 57.5t93.5 173.5q-82 213 -219 213q-86 0 -129 -60.5t-43 -156.5zM1092 303q86 0 129 60.5t43 156.5t-45 162t-123 66t-130.5 -57.5t-93.5 -174.5q82 -213 220 -213zM1470 519q0 -216 -100 -348t-270 -132q-129 0 -217 65.5
t-152 204.5q-59 -141 -135 -205.5t-182 -64.5q-156 0 -246 134t-90 350t100.5 348.5t270.5 132.5q129 0 217 -66t151 -205q59 141 135 206t183 65q155 0 245 -134.5t90 -350.5z" />
    <glyph glyph-name="integral" unicode="&#x222b;" horiz-adv-x="782" 
d="M494 1133v-1178q0 -217 -91.5 -312.5t-289.5 -95.5q-86 0 -158 21l22 225q51 -23 111 -23t87.5 43.5t27.5 157.5v1178q0 217 91 312t294 95q90 0 162 -20l-23 -225q-51 23 -113 23t-91 -43.5t-29 -157.5z" />
    <glyph glyph-name="approxequal" unicode="&#x2248;" horiz-adv-x="1220" 
d="M891 324q72 0 137.5 43t104.5 106v-256q-45 -55 -120 -88t-154 -33t-138 22.5t-138 64.5t-130 61.5t-123 19.5t-137.5 -43t-104.5 -106v256q45 55 120.5 88t153.5 33t137.5 -23t138.5 -65t130 -61t123 -19zM891 807q72 0 137.5 43t104.5 106v-256q-45 -55 -120 -87.5
t-154 -32.5t-138 22.5t-138 64.5t-130 61.5t-123 19.5t-137.5 -43t-104.5 -107v256q45 55 120.5 88t153.5 33t137.5 -22.5t138.5 -64.5t130 -61.5t123 -19.5z" />
    <glyph glyph-name="notequal" unicode="&#x2260;" horiz-adv-x="1220" 
d="M1147 872v-221h-344l-125 -231h469v-221h-588l-153 -289h-261l154 289h-225v221h344l125 231h-469v221h585l156 289h260l-155 -289h227z" />
    <glyph glyph-name="lessequal" unicode="&#x2264;" horiz-adv-x="1220" 
d="M82 0v221h1057v-221h-1057zM698 793q-243 -54 -444 -86v-5q186 -34 444 -92l441 -100v-231l-1057 266v311l1057 268v-229z" />
    <glyph glyph-name="greaterequal" unicode="&#x2265;" horiz-adv-x="1220" 
d="M82 0v221h1057v-221h-1057zM1139 545l-1057 -266v231l440 100q254 57 445 92v5q-248 39 -445 86l-440 102v229l1057 -268v-311z" />
    <glyph glyph-name="uni0E0E.aalt" horiz-adv-x="1376" 
d="M201 196.5q0 -32.5 19.5 -54t50 -21.5t50 21.5t19.5 54t-19.5 54t-50 21.5t-50 -21.5t-19.5 -54zM289 481q0 138 121 201v6l-273 86v109q33 78 109 155.5t190.5 129t253.5 51.5q250 0 388.5 -136.5t138.5 -361.5v-1090h-261q-159 105 -360 105t-340 -137l-57 202
q66 68 166 106t209.5 38t211 -29t168.5 -70v856q0 150 -64.5 224.5t-207.5 74.5q-102 0 -177 -43t-102 -100l232 -76v-127q-57 -18 -77.5 -77.5t-20.5 -151.5v-207q0 -113 -76 -176t-186 -63t-176 61t-66 154.5t63.5 156t143.5 62.5q31 0 47 -8l2 2v73z" />
    <glyph glyph-name="uni0E0F.aalt" horiz-adv-x="1376" 
d="M201 196.5q0 -32.5 19.5 -54t50 -21.5t50 21.5t19.5 54t-19.5 54t-50 21.5t-50 -21.5t-19.5 -54zM289 481q0 138 121 201v6l-273 86v109q33 78 109 155.5t190.5 129t253.5 51.5q250 0 388.5 -136.5t138.5 -361.5v-1090h-238l-197 119h-6l-98 -119h-98q-45 39 -108.5 64.5
t-118 25.5t-102.5 -21.5t-71 -51.5l-61 198q35 35 96 55.5t119 20.5q173 0 274 -94l111 137h78l157 -88v825q0 150 -64.5 224.5t-207.5 74.5q-102 0 -177 -43t-102 -100l232 -76v-127q-57 -18 -77.5 -77.5t-20.5 -151.5v-207q0 -113 -76 -176t-186 -63t-176 61t-66 154.5
t63.5 156t143.5 62.5q31 0 47 -8l2 2v73z" />
    <glyph glyph-name="uni0E0D.aalt" horiz-adv-x="1949" 
d="M360 196.5q0 -32.5 19.5 -54t50.5 -21.5t50.5 21.5t19.5 54t-19.5 54t-50.5 21.5t-50.5 -21.5t-19.5 -54zM1165 721v-387q0 -63 24.5 -90t84.5 -27h143q59 0 84 26.5t25 90.5v860h262v-922q0 -139 -79 -205.5t-216 -66.5h-295q-137 0 -216 66.5t-79 205.5v430
q0 150 -62.5 224.5t-205.5 74.5q-102 0 -176 -43t-101 -100l187 -67v-127q-57 -18 -88 -70.5t-31 -105t-14 -80.5l2 -2q16 8 47 8q82 0 144.5 -62.5t62.5 -155.5t-66.5 -154.5t-176.5 -61.5t-185.5 63t-75.5 176v191q0 104 46 176.5t109 103.5v6l-227 78v109
q33 78 107.5 155.5t189.5 129t254 51.5q250 0 386 -135.5t136 -362.5z" />
    <glyph glyph-name="uni0E10.aalt" horiz-adv-x="1204" 
d="M254 543.5q0 -31.5 21.5 -53t54 -21.5t54.5 21.5t22 53.5t-22 54.5t-54.5 22.5t-54 -23t-21.5 -54.5zM481 1219q137 0 250 -48l86 115h283l-195 -237q129 -148 129 -373q0 -178 -69.5 -357.5t-182.5 -318.5h-305l-67 260q-10 41 -11 92l-4 2q-31 -20 -73 -20
q-92 0 -155 57.5t-63 152.5t66 152.5t165 57.5t149.5 -54.5t78.5 -152.5l88 -336h11q47 84 78.5 207t31.5 263t-78 232.5t-212 92.5t-231 -33t-200 -94l-14 217q192 123 444 123z" />
    <glyph glyph-name="uni0E2C.aalt" horiz-adv-x="1574" 
d="M207 975q0 -35 20.5 -58.5t55 -23.5t55 23.5t20.5 58.5t-20.5 58.5t-55 23.5t-55 -23.5t-20.5 -58.5zM274 610q0 58 29 129l-2 2q-18 -6 -37 -6q-96 0 -165.5 69.5t-69.5 171t70.5 170t184.5 68.5t178 -69.5t64 -179.5v-469q0 -156 -18 -297h10q21 68 45.5 124t30.5 72
l147 373h181l153 -365q10 -20 18.5 -41.5t33 -77t34.5 -85.5h10q-12 94 -12 297v198q0 82 -36 135.5t-113 53.5h-88v172h125q82 0 115.5 30.5t33.5 108.5v72h252v-56q0 -127 -49 -179t-131 -77q70 -29 106.5 -90t36.5 -176v-688h-354l-146 326q-62 138 -73 237h-7
q-14 -111 -63 -229l-143 -334h-351v610z" />
    <glyph glyph-name="glyph209" 
d="M389 735q-129 0 -129 -306t129 -306q61 0 95 78t34 225q0 309 -129 309zM715 436q0 -225 -79 -338.5t-245 -113.5q-328 0 -328 432q0 240 80 349t254 109q318 0 318 -438z" />
    <glyph glyph-name="glyph210" 
d="M346 0v426q0 170 6 238h-4q-31 -31 -112 -95l-43 -32l-93 133l267 188h180v-858h-201z" />
    <glyph glyph-name="glyph211" 
d="M344 872q145 0 232.5 -63.5t87.5 -187.5q0 -163 -184 -331q-95 -86 -177 -140v-5q78 4 252 5h127v-150h-604v152q211 166 295 262t84 170t-40 104.5t-123 30.5t-181 -57l-19 159q105 51 250 51z" />
    <glyph glyph-name="glyph212" 
d="M262 508q209 0 209 110t-178 109q-94 0 -178 -43l-13 152q102 36 249 36t232 -59t85 -164q0 -169 -197 -198v-5q96 -12 152.5 -67t56.5 -141q0 -117 -104 -184.5t-252 -67.5t-246 28l10 162q119 -43 206 -43q187 0 187 119t-219 119l-47 -4v143q14 -2 47 -2z" />
    <glyph glyph-name="glyph213" 
d="M434 315v97q0 145 6 295h-2q-43 -85 -133 -228l-104 -164h233zM735 315v-145h-119v-170h-186v170h-393v156l352 532h227v-543h119z" />
    <glyph glyph-name="glyph214" 
d="M385 555q137 0 219 -72.5t82 -203.5t-99.5 -212t-269.5 -81q-113 0 -204 24v164q92 -37 183 -37t142 35t51 102q0 145 -202 146q-76 0 -166 -27l6 465h526v-143h-356l-4 -166q45 6 92 6z" />
    <glyph glyph-name="glyph215" 
d="M532 270q0 150 -131 150q-53 0 -94 -43t-41 -106t38 -107.5t98 -44.5t95 44t35 107zM467 727q-96 0 -152.5 -66.5t-60.5 -191.5h2q31 41 88 64.5t113 23.5q123 0 194.5 -73.5t71.5 -203.5t-89 -213t-247 -83t-241 107t-83 321t105.5 337t294.5 123q124 0 199 -30
l-19 -152q-80 37 -176 37z" />
    <glyph glyph-name="glyph216" 
d="M70 705v153h614v-160l-311 -698h-217l327 705h-413z" />
    <glyph glyph-name="glyph217" 
d="M250 238q0 -53 38 -86t98 -33t100 32.5t40 84.5t-35.5 86t-117.5 61q-62 -25 -92.5 -58.5t-30.5 -86.5zM260 641q0 -47 34 -78t103 -55q109 45 109 129q0 51 -33 77.5t-88 26.5t-90 -26.5t-35 -73.5zM692 664q0 -72 -35.5 -120t-119.5 -87q100 -37 141 -87.5t41 -133.5
q0 -117 -93.5 -184.5t-241.5 -67.5t-239.5 65.5t-91.5 175.5q0 150 185 221q-88 35 -125 83.5t-37 119.5q0 102 87 163.5t223 61.5t221 -56t85 -154z" />
    <glyph glyph-name="glyph218" 
d="M260 583.5q0 -65.5 33 -102.5t90 -37t94 39t37 102t-35 107.5t-94 44.5t-92 -44t-33 -109.5zM391 872q326 0 326 -413q0 -229 -106.5 -352t-303.5 -123q-118 0 -203 32l19 154q82 -39 172 -39q227 0 231 266h-2q-69 -94 -191 -94t-196 71.5t-74 200.5t88.5 213t239.5 84z
" />
    <glyph glyph-name="glyph219" 
d="M389 418q-129 0 -129 -306t129 -307q61 0 95 78t34 226q0 309 -129 309zM715 119q0 -225 -79 -339t-245 -114q-328 0 -328 432q0 240 80 350t254 109q318 0 318 -438z" />
    <glyph glyph-name="glyph220" 
d="M346 -317v426q0 170 6 237h-4q-31 -31 -112 -94l-43 -33l-93 133l267 189h180v-858h-201z" />
    <glyph glyph-name="glyph221" 
d="M344 555q146 0 233 -63t87 -189q0 -165 -184 -330q-96 -86 -177 -141v-4q78 4 252 4h127v-149h-604v151q211 166 295 262t84 171q0 136 -146 134q-100 0 -198 -57l-19 160q104 51 250 51z" />
    <glyph glyph-name="glyph222" 
d="M471 300q0 110 -176 110q-92 0 -180 -43l-13 151q102 37 249 37t232 -59t85 -164q0 -168 -197 -199v-4q97 -11 153 -67t56 -142q0 -116 -104 -184t-252 -68t-246 29l10 162q119 -43 209 -43q184 0 184 120t-219 117l-47 -4v144q14 -2 47 -3q209 0 209 110z" />
    <glyph glyph-name="glyph223" 
d="M434 -2v96q0 145 6 295h-2q-43 -84 -133 -227l-104 -164h233zM735 -2v-145h-119v-170h-186v170h-393v155l352 533h227v-543h119z" />
    <glyph glyph-name="glyph224" 
d="M686 -39q0 -131 -99 -212t-270 -81q-113 0 -204 25v164q92 -37 183 -37t142 35t51 102q0 145 -202 145q-76 0 -166 -26l6 465h526v-144h-356l-4 -166q45 6 92 7q137 0 219 -73t82 -204z" />
    <glyph glyph-name="glyph225" 
d="M401 102q-53 0 -94 -43t-41 -105t38 -108q38 -45 98 -45t96 44q35 44 34 108q0 149 -131 149zM467 410q-97 0 -153 -67t-60 -191h2q31 40 88 64t113 24q123 0 195 -74t71 -204q0 -130 -89 -213t-247 -83t-241 106t-83 322q-1 215 105 338t295 123q125 0 199 -31l-19 -151
q-80 37 -176 37z" />
    <glyph glyph-name="glyph226" 
d="M70 387v154h614v-160l-311 -698h-217l327 704h-413z" />
    <glyph glyph-name="glyph227" 
d="M250 -78q0 -55 38 -88t98 -33t100 33t40 85t-36 86t-117 61q-123 -50 -123 -144zM260 324q0 -46 34 -78q34 -31 103 -56q109 45 109 129q0 51 -33 78t-88 27t-90 -27t-35 -73zM692 346q0 -72 -36 -120t-119 -87q100 -37 141 -87t41 -134q0 -116 -93 -184t-242 -68
t-240 66t-91 176q0 150 185 221q-88 35 -125 83t-37 120q0 102 87 164t223 61q136 0 221 -56t85 -155z" />
    <glyph glyph-name="glyph228" 
d="M260 266q0 -66 33 -102t90 -37q57 0 94 39q37 40 37 102t-35 107t-94 45t-92 -44t-33 -110zM391 555q326 0 326 -414q-1 -229 -107 -352t-303 -123q-119 0 -203 33l19 154q82 -39 172 -39q227 0 231 266h-2q-70 -96 -192 -95q-121 1 -195 73t-74 200q1 129 89 213t239 84
z" />
    <glyph glyph-name="glyph229" 
d="M260 1005q0 -306 129 -307q61 0 95 78t34 225q0 309 -129 310q-129 0 -129 -306zM715 1012q0 -225 -79 -339t-245 -114q-328 0 -328 432q0 239 80 349t254 110q318 0 318 -438z" />
    <glyph glyph-name="glyph230" 
d="M346 575v426q0 170 6 238h-4q-31 -31 -112 -94l-43 -33l-93 133l267 189h180v-859h-201z" />
    <glyph glyph-name="glyph231" 
d="M664 1196q0 -165 -184 -330q-96 -86 -177 -141v-4q78 4 252 4h127v-150h-604v152q211 166 295 262t84 171q0 136 -146 134q-100 0 -198 -57l-19 160q104 51 250 51t233 -64q87 -63 87 -188z" />
    <glyph glyph-name="glyph232" 
d="M262 1083q209 0 209 110t-176 110q-92 0 -180 -43l-13 151q102 37 249 37t232 -59t85 -164q0 -168 -197 -199v-4q97 -12 153 -68t56 -141q0 -117 -104 -185t-252 -67q-148 0 -246 29l10 162q119 -43 209 -43q184 0 184 120t-219 117l-47 -4v143q14 -2 47 -2z" />
    <glyph glyph-name="glyph233" 
d="M434 891v96q0 145 6 295h-2q-43 -84 -133 -227l-104 -164h233zM735 891v-146h-119v-170h-186v170h-393v156l352 533h227v-543h119z" />
    <glyph glyph-name="glyph234" 
d="M385 1130q137 0 219 -72t82 -204q0 -131 -99 -212t-270 -81q-113 0 -204 25v164q92 -37 183 -37t142 35t51 102q0 145 -202 145q-76 0 -166 -26l6 465h526v-144h-356l-4 -166q45 6 92 6z" />
    <glyph glyph-name="glyph235" 
d="M401 995q-53 0 -94 -43q-41 -44 -41 -106t38 -107t98 -45t96 44q35 44 34 108q0 149 -131 149zM467 1303q-97 0 -153 -67t-60 -192h2q31 41 88 65t113 24q123 0 195 -74t71 -204q0 -130 -89 -213t-247 -83q-158 1 -241 107t-83 321q-1 215 105 338t295 123q125 0 199 -31
l-19 -151q-80 37 -176 37z" />
    <glyph glyph-name="glyph236" 
d="M70 1280v154h614v-160l-311 -699h-217l327 705h-413z" />
    <glyph glyph-name="glyph237" 
d="M250 815q0 -55 38 -88t98 -33t100 33t40 85t-36 86t-117 60q-123 -48 -123 -143zM260 1216q0 -46 34 -77t103 -56q109 45 109 129q0 51 -33 78t-88 27t-90 -27q-35 -28 -35 -74zM692 1239q0 -72 -36 -120t-119 -87q100 -37 141 -87t41 -134q0 -117 -93 -185t-242 -67
q-149 0 -240 66t-91 176q0 150 185 221q-88 35 -125 83t-37 120q0 101 87 163t223 62t221 -56t85 -155z" />
    <glyph glyph-name="glyph238" 
d="M260 1159q0 -67 33 -103t90 -36t94 39t37 101t-35 108q-35 45 -94 45t-92 -44t-33 -110zM717 1034q-1 -229 -107 -352t-303 -123q-119 0 -203 33l19 153q82 -39 172 -38q227 0 231 266h-2q-70 -96 -192 -95q-121 0 -195 72t-74 201q1 129 89 213t239 84q326 -2 326 -414z
" />
    <glyph glyph-name="glyph239" 
d="M389 1612q-129 0 -129 -306t129 -307q61 0 95 78t34 226q0 309 -129 309zM715 1313q0 -225 -79 -339t-245 -114q-328 0 -328 432q0 240 80 350t254 109q318 0 318 -438z" />
    <glyph glyph-name="glyph240" 
d="M434 1192v96q0 145 6 295h-2q-43 -84 -133 -227l-104 -164h233zM735 1192v-145h-119v-170h-186v170h-393v155l352 533h227v-543h119z" />
    <glyph glyph-name="glyph241" 
d="M686 1155q0 -131 -99 -212t-270 -81q-113 0 -204 25v164q92 -37 183 -37t142 35t51 102q0 145 -202 145q-76 0 -166 -26l6 465h526v-144h-356l-4 -166q45 6 92 7q137 0 219 -73t82 -204z" />
    <glyph glyph-name="glyph242" 
d="M401 1296q-53 0 -94 -43t-41 -105t38 -108q38 -45 98 -45t96 44q35 44 34 108q0 149 -131 149zM467 1604q-97 0 -153 -67t-60 -191h2q31 40 88 64t113 24q123 0 195 -74t71 -204q0 -130 -89 -213t-247 -83t-241 106t-83 322q-1 215 105 338t295 123q125 0 199 -31
l-19 -151q-80 37 -176 37z" />
    <glyph glyph-name="glyph243" 
d="M70 1581v154h614v-160l-311 -698h-217l327 704h-413z" />
    <glyph glyph-name="glyph244" 
d="M250 1116q0 -55 38 -88t98 -33t100 33t40 85t-36 86t-117 61q-123 -50 -123 -144zM260 1518q0 -46 34 -78q34 -31 103 -56q109 45 109 129q0 51 -33 78t-88 27t-90 -27t-35 -73zM692 1540q0 -72 -36 -120t-119 -87q100 -37 141 -87t41 -134q0 -116 -93 -184t-242 -68
t-240 66t-91 176q0 150 185 221q-88 35 -125 83t-37 120q0 102 87 164t223 61q136 0 221 -56t85 -155z" />
    <glyph glyph-name="glyph245" 
d="M260 1460q0 -66 33 -102t90 -37q57 0 94 39q37 40 37 102t-35 107t-94 45t-92 -44t-33 -110zM391 1749q326 0 326 -414q-1 -229 -107 -352t-303 -123q-119 0 -203 33l19 154q82 -39 172 -39q227 0 231 266h-2q-70 -96 -192 -95q-121 1 -195 73t-74 200q1 129 89 213
t239 84z" />
    <glyph glyph-name="glyph355" horiz-adv-x="1024" 
d="M342 1536l172 309h293l-293 -309h-172z" />
    <glyph glyph-name="glyph356" horiz-adv-x="1024" 
d="M395 1536l-217 309h189l145 -176l143 176h183l-232 -309h-211z" />
    <glyph glyph-name="glyph357" horiz-adv-x="1024" 
d="M649 1536l-145 176l-144 -176h-182l232 309h211l217 -309h-189z" />
    <glyph glyph-name="glyph358" horiz-adv-x="1024" 
d="M606 1583v240h236v-240h-236zM182 1583v240h236v-240h-236z" />
    <glyph glyph-name="glyph359" horiz-adv-x="1024" 
d="M514 1536l-293 309h293l172 -309h-172z" />
    <glyph glyph-name="glyph360" horiz-adv-x="1024" 
d="M397 1713q0 -48 34 -84t81 -36t82 35t35 83t-35 83t-82 35t-81 -34t-34 -82zM727 1711q0 -87 -63.5 -149.5t-150.5 -62.5t-149.5 62.5t-62.5 150.5t63.5 150.5t150.5 62.5t149.5 -63.5t62.5 -150.5z" />
    <glyph glyph-name="glyph361" horiz-adv-x="1024" 
d="M659 1563q-55 0 -167 42t-150 42t-59 -21.5t-33 -75.5h-107q14 117 71.5 183.5t134.5 66.5t184 -43t143 -43q74 0 86 103h106q-10 -123 -64 -188.5t-145 -65.5z" />
    <glyph glyph-name="glyph362" horiz-adv-x="1024" 
d="M403 1186l33 362h230l-113 -362h-150z" />
    <glyph glyph-name="uni0E4B.aalt" horiz-adv-x="0" 
d="M-16 2232v-153l-162 8l6 -148h-195l7 148l-162 -6v151l162 -6l-7 148h195l-6 -148z" />
    <glyph glyph-name="uni0E48.aalt" horiz-adv-x="0" 
d="M-385 1939v326h238l-25 -326h-213z" />
    <glyph glyph-name="uni0E4C.aalt" horiz-adv-x="0" 
d="M-422 2132q0 -27 18.5 -46.5t44.5 -19.5t46 19.5t20 46.5t-20.5 46.5t-46 19.5t-44 -19.5t-18.5 -46.5zM-160 2136q0 -86 -57 -140t-143 -54t-144.5 54t-58.5 126q0 134 117 196l278 160l80 -125l-152 -84v-4q35 -18 57.5 -52t22.5 -77z" />
    <glyph glyph-name="uni0E49.aalt" horiz-adv-x="0" 
d="M-508 2218q0 -25 17.5 -40t39.5 -15t38 15t16 40t-15.5 41t-38 16t-40 -16t-17.5 -41zM-494 1929q-82 0 -104 2v80q68 16 113 51q-59 10 -98.5 46t-39.5 103t50.5 117t121 50t119.5 -46t49 -115t-45 -130q76 27 120 106.5t48 192.5h176q-6 -457 -510 -457z" />
    <glyph glyph-name="uni0E4A.aalt" horiz-adv-x="0" 
d="M-702 2043q0 -19 13 -32.5t33.5 -13.5t33 13t12.5 32.5t-12.5 33t-33 13.5t-33.5 -13.5t-13 -32.5zM-340 1931v189q0 78 -53 98l-96 -55l-111 61q-10 -4 -20.5 -20.5t-12.5 -32.5q72 -2 99.5 -43t27.5 -91t-44 -86t-110.5 -36t-107.5 46t-41 116q0 121 58.5 195.5
t166.5 82.5l90 -61l105 61q201 -23 201 -205v-43q49 18 65.5 83t16.5 173h176q0 -217 -95.5 -324.5t-314.5 -107.5z" />
    </font>
</defs>
</svg>
