<?xml version="1.0" standalone="no"?>
<!DOCTYPE svg PUBLIC "-//W3C//DTD SVG 20010904//EN"
 "http://www.w3.org/TR/2001/REC-SVG-20010904/DTD/svg10.dtd">
<svg version="1.0" xmlns="http://www.w3.org/2000/svg"
 width="1024.000000pt" height="1024.000000pt" viewBox="0 0 1024.000000 1024.000000"
 preserveAspectRatio="xMidYMid meet">
<metadata>
Created by potrace 1.11, written by Peter Selinger 2001-2013
</metadata>
<g transform="translate(0.000000,1024.000000) scale(0.100000,-0.100000)"
fill="#000000" stroke="none">
<path d="M2342 8109 c-99 -13 -202 -54 -278 -111 -69 -51 -954 -840 -1005
-895 -104 -113 -154 -258 -146 -423 5 -111 37 -214 90 -294 38 -57 3613 -4008
3708 -4097 113 -107 248 -160 409 -160 161 0 296 53 409 160 100 94 3671 4012
3708 4067 80 121 113 311 79 456 -20 87 -72 190 -127 252 -34 39 -660 614
-976 896 -66 60 -156 109 -249 137 -56 17 -211 18 -2809 19 -1512 1 -2778 -2
-2813 -7z m5569 -382 c19 -9 251 -213 515 -453 529 -481 537 -490 537 -595 0
-42 -6 -70 -24 -103 -13 -25 -248 -290 -522 -589 l-498 -545 -102 33 c-226 74
-424 100 -691 92 -373 -11 -696 -89 -1004 -242 -250 -124 -437 -261 -680 -499
l-143 -140 -47 17 c-144 53 -441 149 -532 171 -409 99 -763 100 -1165 4 -128
-30 -354 -103 -477 -153 l-63 -26 -35 38 c-201 217 -1659 1832 -1672 1852 -44
66 -42 177 6 247 38 56 954 862 1011 890 l50 24 2750 -3 c2609 -2 2752 -3
2786 -20z"/>
</g>
</svg>
