<?xml version="1.0" standalone="no"?>
<!DOCTYPE svg PUBLIC "-//W3C//DTD SVG 20010904//EN"
 "http://www.w3.org/TR/2001/REC-SVG-20010904/DTD/svg10.dtd">
<svg version="1.0" xmlns="http://www.w3.org/2000/svg"
 width="1024.000000pt" height="1024.000000pt" viewBox="0 0 1024.000000 1024.000000"
 preserveAspectRatio="xMidYMid meet">
<metadata>
Created by potrace 1.11, written by Peter Selinger 2001-2013
</metadata>
<g transform="translate(0.000000,1024.000000) scale(0.100000,-0.100000)"
fill="#000000" stroke="none">
<path d="M2380 8109 c-179 -17 -257 -57 -450 -229 -63 -57 -146 -130 -184
-164 -38 -34 -77 -68 -86 -76 -9 -8 -49 -44 -90 -80 -91 -79 -127 -111 -206
-181 -33 -30 -96 -85 -140 -123 -147 -129 -210 -200 -247 -278 -19 -40 -38
-89 -43 -108 -4 -19 -9 -42 -11 -50 -3 -8 -6 -51 -8 -95 -7 -170 46 -296 195
-464 55 -61 105 -117 112 -125 7 -7 47 -51 88 -96 41 -46 82 -91 90 -100 8 -8
74 -81 145 -160 72 -79 137 -152 145 -160 34 -36 129 -141 195 -215 39 -43 75
-83 81 -89 5 -6 59 -65 119 -131 139 -154 263 -291 295 -325 14 -15 54 -60 90
-100 36 -40 70 -78 75 -84 6 -6 37 -40 70 -76 32 -36 97 -107 143 -158 47 -51
92 -101 101 -111 9 -10 50 -55 91 -101 41 -45 88 -97 103 -114 16 -17 45 -49
65 -71 36 -40 166 -183 267 -295 28 -30 52 -57 55 -60 3 -3 66 -72 140 -155
74 -82 154 -170 177 -195 23 -25 50 -55 61 -68 11 -13 58 -64 104 -115 46 -50
108 -119 138 -152 30 -33 96 -106 146 -160 50 -55 140 -154 199 -220 238 -263
271 -299 305 -331 122 -113 262 -167 424 -163 96 2 170 20 251 61 102 50 111
58 360 333 114 125 176 193 210 229 11 12 61 66 110 121 50 55 99 109 110 121
11 11 58 63 105 114 47 52 92 101 100 110 8 9 56 60 105 115 50 54 101 111
115 125 14 15 57 62 96 106 79 87 86 95 224 244 52 56 103 111 113 123 23 27
153 170 192 211 17 18 64 70 105 115 41 46 84 93 95 105 24 27 188 205 230
251 17 18 62 68 101 111 40 44 87 95 105 115 19 20 72 78 119 130 47 51 92
100 100 109 8 9 55 61 105 116 100 110 143 157 235 257 35 37 72 77 82 89 11
13 55 61 98 108 43 47 87 95 97 106 10 12 63 70 119 130 97 105 179 195 254
279 19 21 46 50 59 64 141 147 194 269 195 451 0 115 -12 166 -67 279 -33 68
-111 154 -266 291 -46 41 -94 84 -105 95 -12 11 -64 58 -116 105 -52 47 -97
87 -100 90 -3 4 -36 35 -75 70 -38 35 -95 86 -125 114 -31 28 -93 85 -139 126
-46 41 -99 90 -120 108 -85 77 -215 136 -326 148 -74 8 -5422 11 -5505 3z
m5532 -382 c29 -14 76 -47 104 -74 43 -41 198 -184 270 -248 12 -11 62 -56
110 -100 48 -44 98 -89 110 -100 12 -11 59 -54 105 -95 45 -41 94 -86 109
-100 15 -14 67 -61 116 -105 103 -94 136 -153 133 -234 -3 -52 -33 -125 -66
-158 -10 -10 -58 -63 -108 -117 -49 -55 -101 -111 -115 -126 -14 -15 -45 -49
-70 -76 -110 -121 -227 -249 -245 -268 -11 -12 -60 -66 -110 -121 -49 -55 -99
-109 -110 -121 -21 -22 -144 -156 -193 -212 l-29 -32 -94 30 c-91 29 -277 71
-389 87 -71 10 -395 10 -483 0 -320 -35 -575 -107 -832 -232 -236 -116 -447
-271 -689 -506 l-140 -136 -80 30 c-219 79 -451 151 -559 173 -12 2 -33 7 -47
9 -353 75 -730 64 -1105 -31 -124 -32 -340 -105 -442 -150 -28 -12 -53 -19
-55 -14 -2 4 -30 37 -63 72 -33 35 -94 101 -135 147 -41 46 -88 98 -105 116
-16 18 -59 65 -95 106 -36 40 -76 84 -90 99 -14 15 -63 69 -110 121 -46 52
-91 101 -100 110 -8 8 -49 53 -90 99 -41 46 -82 91 -90 100 -8 9 -75 83 -149
165 -74 83 -139 155 -145 160 -6 6 -47 50 -91 100 -44 49 -85 94 -91 100 -6 5
-73 79 -150 164 -76 85 -151 168 -166 185 -45 49 -62 95 -63 166 0 97 19 126
181 270 122 108 166 147 280 247 47 41 170 151 213 189 182 165 335 296 363
311 22 12 63 20 123 23 50 3 1290 4 2757 3 l2667 -1 53 -25z"/>
</g>
</svg>
