<?xml version="1.0" standalone="no"?>
<!DOCTYPE svg PUBLIC "-//W3C//DTD SVG 1.1//EN" "http://www.w3.org/Graphics/SVG/1.1/DTD/svg11.dtd" >
<svg xmlns="http://www.w3.org/2000/svg">
<metadata></metadata>
<defs>
<font id="mn_paethaimed" horiz-adv-x="0" >
<font-face units-per-em="2048" ascent="1638" descent="-410" />
<missing-glyph horiz-adv-x="666" />
<glyph unicode="&#x2b;&#x2d;" horiz-adv-x="1164" d="M101 148v157h965v-157h-965zM101 725v160h396v308h170v-308h399v-160h-399v-314h-170v314h-396z" />
<glyph unicode="&#x2e;&#x2e;&#x2e;" horiz-adv-x="2060" d="M225 0v231h237v-231h-237zM912 0v231h236v-231h-236zM1598 0v231h237v-231h-237z" />
<glyph unicode="&#x3c;&#x3d;" horiz-adv-x="1130" d="M117 148v154h895v-154h-895zM118 758v192l894 385v-172l-691 -311l691 -309v-170q-225 98 -447 192.5t-447 192.5z" />
<glyph unicode="&#x3e;&#x3d;" horiz-adv-x="1130" d="M118 148v154h896v-154h-896zM118 373v170l692 309l-692 311v172l896 -385v-192q-225 -98 -448 -193q-223 -94 -448 -192z" />
<glyph unicode="&#xe4f;&#x22;" horiz-adv-x="1434" d="M96 607q0 83 21.5 160t61 145t95 122.5t125 94.5t149.5 61.5t168 21.5q89 0 170.5 -21.5t150.5 -61.5t124.5 -94.5t95 -122.5t60.5 -145t21 -160t-21 -161.5t-60.5 -145t-95 -123t-124.5 -95t-150.5 -60.5t-170.5 -22q-88 0 -168 22t-149.5 60.5t-125 95t-95 123t-61 145 t-21.5 161.5zM281 605.5q0 -88.5 32.5 -167t92 -137t138.5 -92.5t174 -34t175.5 34t138 92.5t90 137t32.5 167t-32.5 166.5t-90 137t-138 93t-175.5 34t-174 -34t-138.5 -93t-92 -137t-32.5 -166.5zM477 1505h159v-209h-136zM545 607q0 35 13 66t37 55t55 38t68 14 q35 0 67 -14t55.5 -38t37 -55t13.5 -66q0 -36 -13.5 -68.5t-37 -55.5t-54.5 -37t-68 -14q-36 0 -67.5 14t-55.5 37t-37 55.5t-13 68.5zM798 1296v209h158l-21 -209h-137z" />
<glyph unicode="&#xe0e;&#xe3a;" horiz-adv-x="1428" d="M38 231q0 56 20 99t53.5 72.5t76.5 44.5t87 15q30 0 50.5 -4.5t44.5 -13.5v364l-163 19v179q9 3 26 9t38.5 15t45 21t44.5 26q59 39 112.5 67t106 46t106 26t110.5 8q125 0 212 -27.5t143.5 -75t81.5 -111t25 -132.5v-1325h-240q-34 40 -75.5 80.5t-88.5 77.5 q-47 -77 -120.5 -120.5t-177.5 -43.5q-56 0 -103 15t-81.5 40t-53.5 60.5t-19 77.5t19 80t54.5 64.5t88.5 43t119 16.5q48 0 95 -9.5t92 -26.5q6 21 8.5 44.5t5.5 47.5h165q-6 -43 -14 -83.5t-20 -79.5q44 -29 82.5 -62.5t71.5 -69.5v1156q0 57 -19.5 97.5t-55 67t-86 39 t-112.5 12.5q-68 0 -122.5 -16t-103.5 -39.5t-93.5 -49.5t-90.5 -44l178 -18v-595q0 -63 -12.5 -121t-43.5 -102.5t-84.5 -71t-136.5 -26.5q-53 0 -98 15.5t-78 46t-51.5 75t-18.5 100.5zM178 228q0 -21 7 -40t20.5 -34t33 -24t42.5 -9q25 0 45 9t33.5 24t20.5 33q6 20 6 41 t-6.5 39.5t-20 32.5t-34 22t-44.5 8q-23 0 -42.5 -8t-33 -22t-20.5 -32.5t-7 -39.5zM456 -258q0 -31 26.5 -52.5t76.5 -21.5q57 0 97 32q43 31 69 87q-37 16 -74.5 25t-79.5 9q-56 0 -85.5 -22t-29.5 -57zM1024 -633q0 23 7.5 45.5t23 40t38.5 28t54 10.5q30 0 52.5 -10.5 t38.5 -27.5t24 -38.5t8 -44.5q0 -24 -7.5 -45.5t-23 -38.5t-38.5 -27.5t-54 -10.5q-30 0 -52.5 9.5t-38.5 26.5t-24 38t-8 45z" />
<glyph unicode="&#xe0f;&#xe3a;" horiz-adv-x="1428" d="M38 231q0 56 20 99t53.5 72.5t76.5 44.5t87 15q30 0 50.5 -4.5t44.5 -13.5v364l-163 19v179q9 3 26 9t38.5 15t45 21t44.5 26q59 39 112.5 67t106 46t106 26t110.5 8q125 0 212 -27.5t143.5 -75t81.5 -111t25 -132.5v-1325h-133h-132l-108 139l-104 -140h-118 q-27 57 -59 102q-49 -54 -111 -82q-61 -29 -138 -29q-59 0 -105 14.5t-77 40.5t-48 61.5t-17 77.5q0 44 17 81t51 63.5t83 41.5t114 15q52 0 100 -16.5t91 -42.5q10 28 17.5 58t11.5 63h165q-12 -62 -30.5 -118.5t-42.5 -106.5q12 -15 23 -31t20 -31l110 151h91l137 -169 v1166q0 57 -19.5 97.5t-55 67t-86 39t-112.5 12.5q-68 0 -122.5 -16t-103.5 -39.5t-93.5 -49.5t-90.5 -44l178 -18v-595q0 -63 -12.5 -121t-43.5 -102.5t-84.5 -71t-136.5 -26.5q-53 0 -98 15.5t-78 46t-51.5 75t-18.5 100.5zM178 228q0 -21 7 -40t20.5 -34t33 -24t42.5 -9 q25 0 45 9t33.5 24t20.5 33q6 20 6 41t-6.5 39.5t-20 32.5t-34 22t-44.5 8q-23 0 -42.5 -8t-33 -22t-20.5 -32.5t-7 -39.5zM268 -260q0 -32 26 -52t70 -20q40 0 76.5 24t65.5 65q-32 27 -66 41t-67 14q-50 0 -77.5 -20t-27.5 -52zM1024 -633q0 23 7.5 45.5t23 40t38.5 28 t54 10.5q30 0 52.5 -10.5t38.5 -27.5t24 -38.5t8 -44.5q0 -24 -7.5 -45.5t-23 -38.5t-38.5 -27.5t-54 -10.5q-30 0 -52.5 9.5t-38.5 26.5t-24 38t-8 45z" />
<glyph unicode="&#xe0e;&#xe38;" horiz-adv-x="1428" d="M38 231q0 56 20 99t53.5 72.5t76.5 44.5t87 15q30 0 50.5 -4.5t44.5 -13.5v364l-163 19v179q9 3 26 9t38.5 15t45 21t44.5 26q59 39 112.5 67t106 46t106 26t110.5 8q125 0 212 -27.5t143.5 -75t81.5 -111t25 -132.5v-1325h-240q-34 40 -75.5 80.5t-88.5 77.5 q-47 -77 -120.5 -120.5t-177.5 -43.5q-56 0 -103 15t-81.5 40t-53.5 60.5t-19 77.5t19 80t54.5 64.5t88.5 43t119 16.5q48 0 95 -9.5t92 -26.5q6 21 8.5 44.5t5.5 47.5h165q-6 -43 -14 -83.5t-20 -79.5q44 -29 82.5 -62.5t71.5 -69.5v1156q0 57 -19.5 97.5t-55 67t-86 39 t-112.5 12.5q-68 0 -122.5 -16t-103.5 -39.5t-93.5 -49.5t-90.5 -44l178 -18v-595q0 -63 -12.5 -121t-43.5 -102.5t-84.5 -71t-136.5 -26.5q-53 0 -98 15.5t-78 46t-51.5 75t-18.5 100.5zM178 228q0 -21 7 -40t20.5 -34t33 -24t42.5 -9q25 0 45 9t33.5 24t20.5 33q6 20 6 41 t-6.5 39.5t-20 32.5t-34 22t-44.5 8q-23 0 -42.5 -8t-33 -22t-20.5 -32.5t-7 -39.5zM456 -258q0 -31 26.5 -52.5t76.5 -21.5q57 0 97 32q43 31 69 87q-37 16 -74.5 25t-79.5 9q-56 0 -85.5 -22t-29.5 -57zM844 -699q0 40 13 75t38.5 61.5t62.5 41.5t84 15q53 0 93 -16.5 t66.5 -44.5t39.5 -68t13 -87v-287h-185v139q-21 -6 -43 -6q-39 0 -72 12.5t-57.5 36t-38.5 56.5q-14 34 -14 72zM965 -694q0 -33 20.5 -53.5t53.5 -20.5t52.5 20.5t19.5 53.5q0 32 -19.5 52t-52.5 20t-53.5 -20t-20.5 -52z" />
<glyph unicode="&#xe0f;&#xe38;" horiz-adv-x="1428" d="M38 231q0 56 20 99t53.5 72.5t76.5 44.5t87 15q30 0 50.5 -4.5t44.5 -13.5v364l-163 19v179q9 3 26 9t38.5 15t45 21t44.5 26q59 39 112.5 67t106 46t106 26t110.5 8q125 0 212 -27.5t143.5 -75t81.5 -111t25 -132.5v-1325h-133h-132l-108 139l-104 -140h-118 q-27 57 -59 102q-49 -54 -111 -82q-61 -29 -138 -29q-59 0 -105 14.5t-77 40.5t-48 61.5t-17 77.5q0 44 17 81t51 63.5t83 41.5t114 15q52 0 100 -16.5t91 -42.5q10 28 17.5 58t11.5 63h165q-12 -62 -30.5 -118.5t-42.5 -106.5q12 -15 23 -31t20 -31l110 151h91l137 -169 v1166q0 57 -19.5 97.5t-55 67t-86 39t-112.5 12.5q-68 0 -122.5 -16t-103.5 -39.5t-93.5 -49.5t-90.5 -44l178 -18v-595q0 -63 -12.5 -121t-43.5 -102.5t-84.5 -71t-136.5 -26.5q-53 0 -98 15.5t-78 46t-51.5 75t-18.5 100.5zM178 228q0 -21 7 -40t20.5 -34t33 -24t42.5 -9 q25 0 45 9t33.5 24t20.5 33q6 20 6 41t-6.5 39.5t-20 32.5t-34 22t-44.5 8q-23 0 -42.5 -8t-33 -22t-20.5 -32.5t-7 -39.5zM268 -260q0 -32 26 -52t70 -20q40 0 76.5 24t65.5 65q-32 27 -66 41t-67 14q-50 0 -77.5 -20t-27.5 -52zM844 -699q0 40 13 75t38.5 61.5t62.5 41.5 t84 15q53 0 93 -16.5t66.5 -44.5t39.5 -68t13 -87v-287h-185v139q-21 -6 -43 -6q-39 0 -72 12.5t-57.5 36t-38.5 56.5q-14 34 -14 72zM965 -694q0 -33 20.5 -53.5t53.5 -20.5t52.5 20.5t19.5 53.5q0 32 -19.5 52t-52.5 20t-53.5 -20t-20.5 -52z" />
<glyph unicode="&#xe0e;&#xe39;" horiz-adv-x="1428" d="M38 231q0 56 20 99t53.5 72.5t76.5 44.5t87 15q30 0 50.5 -4.5t44.5 -13.5v364l-163 19v179q9 3 26 9t38.5 15t45 21t44.5 26q59 39 112.5 67t106 46t106 26t110.5 8q125 0 212 -27.5t143.5 -75t81.5 -111t25 -132.5v-1325h-240q-34 40 -75.5 80.5t-88.5 77.5 q-47 -77 -120.5 -120.5t-177.5 -43.5q-56 0 -103 15t-81.5 40t-53.5 60.5t-19 77.5t19 80t54.5 64.5t88.5 43t119 16.5q48 0 95 -9.5t92 -26.5q6 21 8.5 44.5t5.5 47.5h165q-6 -43 -14 -83.5t-20 -79.5q44 -29 82.5 -62.5t71.5 -69.5v1156q0 57 -19.5 97.5t-55 67t-86 39 t-112.5 12.5q-68 0 -122.5 -16t-103.5 -39.5t-93.5 -49.5t-90.5 -44l178 -18v-595q0 -63 -12.5 -121t-43.5 -102.5t-84.5 -71t-136.5 -26.5q-53 0 -98 15.5t-78 46t-51.5 75t-18.5 100.5zM178 228q0 -21 7 -40t20.5 -34t33 -24t42.5 -9q25 0 45 9t33.5 24t20.5 33q6 20 6 41 t-6.5 39.5t-20 32.5t-34 22t-44.5 8q-23 0 -42.5 -8t-33 -22t-20.5 -32.5t-7 -39.5zM456 -258q0 -31 26.5 -52.5t76.5 -21.5q57 0 97 32q43 31 69 87q-37 16 -74.5 25t-79.5 9q-56 0 -85.5 -22t-29.5 -57zM457 -702q0 40 13.5 75t39.5 61.5t62 41.5q35 15 82 15 q53 0 94 -16.5t67.5 -44.5t39 -68t12.5 -87v-151h199v348h188v-481h-570v136q-11 -3 -22 -4.5t-21 -1.5q-39 0 -72 12.5t-58.5 35.5t-39.5 56q-14 35 -14 73zM579 -699q0 -32 20.5 -53t53 -21t52.5 21t20 53q0 33 -19 53.5t-53 20.5q-33 0 -53.5 -20.5t-20.5 -53.5z" />
<glyph unicode="&#xe0f;&#xe39;" horiz-adv-x="1428" d="M38 231q0 56 20 99t53.5 72.5t76.5 44.5t87 15q30 0 50.5 -4.5t44.5 -13.5v364l-163 19v179q9 3 26 9t38.5 15t45 21t44.5 26q59 39 112.5 67t106 46t106 26t110.5 8q125 0 212 -27.5t143.5 -75t81.5 -111t25 -132.5v-1325h-133h-132l-108 139l-104 -140h-118 q-27 57 -59 102q-49 -54 -111 -82q-61 -29 -138 -29q-59 0 -105 14.5t-77 40.5t-48 61.5t-17 77.5q0 44 17 81t51 63.5t83 41.5t114 15q52 0 100 -16.5t91 -42.5q10 28 17.5 58t11.5 63h165q-12 -62 -30.5 -118.5t-42.5 -106.5q12 -15 23 -31t20 -31l110 151h91l137 -169 v1166q0 57 -19.5 97.5t-55 67t-86 39t-112.5 12.5q-68 0 -122.5 -16t-103.5 -39.5t-93.5 -49.5t-90.5 -44l178 -18v-595q0 -63 -12.5 -121t-43.5 -102.5t-84.5 -71t-136.5 -26.5q-53 0 -98 15.5t-78 46t-51.5 75t-18.5 100.5zM178 228q0 -21 7 -40t20.5 -34t33 -24t42.5 -9 q25 0 45 9t33.5 24t20.5 33q6 20 6 41t-6.5 39.5t-20 32.5t-34 22t-44.5 8q-23 0 -42.5 -8t-33 -22t-20.5 -32.5t-7 -39.5zM268 -260q0 -32 26 -52t70 -20q40 0 76.5 24t65.5 65q-32 27 -66 41t-67 14q-50 0 -77.5 -20t-27.5 -52zM457 -702q0 40 13.5 75t39.5 61.5t62 41.5 q35 15 82 15q53 0 94 -16.5t67.5 -44.5t39 -68t12.5 -87v-151h199v348h188v-481h-570v136q-11 -3 -22 -4.5t-21 -1.5q-39 0 -72 12.5t-58.5 35.5t-39.5 56q-14 35 -14 73zM579 -699q0 -32 20.5 -53t53 -21t52.5 21t20 53q0 33 -19 53.5t-53 20.5q-33 0 -53.5 -20.5 t-20.5 -53.5z" />
<glyph unicode="&#xd;" horiz-adv-x="666" />
<glyph unicode=" "  horiz-adv-x="666" />
<glyph unicode="&#x09;" horiz-adv-x="666" />
<glyph unicode="&#xa0;" horiz-adv-x="666" />
<glyph unicode="!" horiz-adv-x="532" d="M149 0v231h239v-231h-239zM157 1261v210h219v-210l-65 -855h-86q-9 97 -18 206t-17 220.5t-16 221.5q-8 109 -17 207z" />
<glyph unicode="&#x22;" horiz-adv-x="895" d="M178 1474h180l-21 -636h-139zM536 1474h182l-21 -636h-141z" />
<glyph unicode="#" horiz-adv-x="1107" d="M74 426v148h189l42 296h-170v148h191l59 425h163l-60 -425h237l59 425h163l-59 -425h148v-148h-169l-41 -296h148v-148h-169l-61 -426h-161l59 426h-236l-61 -426h-161l59 426h-169zM426 574h237l41 296h-236z" />
<glyph unicode="$" horiz-adv-x="1222" d="M44 429h216q6 -58 27 -104.5t55 -80.5t77 -56t95 -34v511q-89 25 -168.5 56.5t-138.5 77.5t-94.5 110.5t-35.5 156.5q0 62 17.5 113.5t47.5 94t71.5 74t90 54.5t102 37t108.5 19v123h179v-128q80 -11 151.5 -39.5t127 -75.5t91.5 -115q35 -69 44 -157h-219q-6 44 -22 81 t-42 64.5t-59.5 46t-71.5 27.5v-455l32 -7q119 -33 201.5 -77t133 -99t72.5 -120t22 -144q0 -77 -28 -145.5t-84 -122t-143.5 -89t-205.5 -44.5v-166h-179v168q-95 10 -176.5 42t-143 87.5t-100 134t-50.5 181.5zM305 1089q0 -38 10.5 -69t34 -56.5t63.5 -46t101 -39.5v413 q-42 -6 -79.5 -21t-66.5 -40t-46 -60.5t-17 -80.5zM693 151q51 6 96.5 22t78 43t51.5 65.5t19 88.5q0 38 -11 72.5t-39 64.5t-75 57q-48 25 -120 49v-462z" />
<glyph unicode="%" horiz-adv-x="1734" d="M89 1077.5q0 82.5 19 154.5t59 125t101 83.5t145 30.5q87 0 146.5 -31t95.5 -86t52 -128q15 -75 15 -157.5t-19 -152t-58.5 -121.5t-99.5 -80t-142 -28q-88 0 -148 29.5t-97 82t-53 124.5t-16 154.5zM234 1074q0 -48 6.5 -95.5t25 -85.5t51 -60.5t87.5 -22.5 q56 0 89.5 22.5t52.5 59.5t25 84.5t6 96.5q0 28 -2 59t-9 62t-18.5 58.5t-29.5 49t-44.5 33.5t-60.5 12q-56 0 -91 -25.5t-54 -65t-26.5 -88.5t-7.5 -94zM355 -44l853 1533h183l-849 -1533h-187zM1009 371.5q0 82.5 19.5 153t58.5 123t100 82.5q62 31 145 31q87 0 146.5 -31 t95.5 -84.5t51.5 -126t15.5 -156.5q0 -83 -18.5 -153.5t-58.5 -123t-100.5 -82t-143.5 -29.5q-87 0 -147 30.5t-96.5 83.5t-52 126.5t-15.5 156zM1154 370q0 -49 6 -98t24 -88t52 -62.5t87 -23.5q56 0 90 23.5t52 62t24 86.5t6 97q0 43 -6 90.5t-23 87.5t-49 65.5t-85 25.5 q-37 0 -65 -11.5t-48 -31t-32.5 -46t-19.5 -56t-10 -60.5t-3 -61z" />
<glyph unicode="&#x26;" horiz-adv-x="1397" d="M89 391q0 77 28 142t77 121t114 100.5t139 80.5q-30 35 -59.5 75t-51.5 83t-37 87.5t-15 90.5q0 74 29.5 134t80 101t115.5 65t139 24q77 0 143.5 -21.5t117 -63.5t80 -104.5t29.5 -145.5q0 -65 -22 -121t-60.5 -103.5t-90.5 -87.5t-111 -70l290 -355q24 51 38.5 107 t20.5 115h203q-6 -106 -39 -201.5t-91 -178.5q56 -67 110 -132t110 -133h-257l-98 121q-89 -71 -204 -111t-255 -40q-97 0 -183.5 28.5t-151 82.5t-101.5 131.5t-37 178.5zM296 385q0 -49 20.5 -93.5t57 -77.5t87.5 -54t113 -21q104 0 187 33.5t145 90.5l-351 436 q-56 -27 -104 -59.5t-82.5 -72.5t-53.5 -86t-19 -96zM477 1181q0 -28 7 -54t20 -51t31.5 -50.5t38.5 -51.5l54 -65q44 25 82.5 53t66 60t43 69t15.5 80q0 35 -14 65.5t-38.5 54t-57 37t-71.5 13.5q-37 0 -68.5 -12t-56 -32.5t-38.5 -50t-14 -65.5z" />
<glyph unicode="'" horiz-adv-x="512" d="M167 1474h182l-20 -636h-140z" />
<glyph unicode="(" horiz-adv-x="581" d="M118 556.5q0 118.5 18 244t52 249.5t83.5 240.5t113.5 217.5h160q-113 -226 -166 -464.5t-53 -479.5q0 -240 53 -478t166 -463h-162q-62 100 -111.5 214t-83.5 234.5t-52 243.5t-18 241.5z" />
<glyph unicode=")" horiz-adv-x="581" d="M37 -377q112 222 166.5 458t54.5 475q0 243 -53.5 483t-166.5 469h160q62 -103 111 -218t83 -235t52.5 -242.5t18.5 -244.5q0 -77 -7.5 -158t-23 -165.5t-37.5 -167.5t-51 -163t-65 -154t-81 -137h-161z" />
<glyph unicode="*" horiz-adv-x="812" d="M62 1157q11 30 22 59.5t23 60.5l235 -96v281h120v-279q59 22 121 47t121 49l45 -122l-250 -81l158 -210l-95 -70l-162 222q-39 -55 -79 -110.5t-77 -111.5l-96 70l158 210z" />
<glyph unicode="+" horiz-adv-x="1235" d="M101 589v158h435v422h168v-422h436v-158h-436v-423h-168v423h-435z" />
<glyph unicode="," horiz-adv-x="547" d="M110 -203q29 6 57 21.5t49 41t34 58.5t13 73v9h-106v231h237v-232q0 -69 -22.5 -123.5t-61 -95t-90 -69t-110.5 -40.5v126z" />
<glyph unicode="-" horiz-adv-x="839" d="M101 591v158h636v-158h-636z" />
<glyph unicode="." horiz-adv-x="547" d="M154 0v231h240v-231h-240z" />
<glyph unicode="/" horiz-adv-x="737" d="M-3 -37l571 1535h166l-574 -1535h-163z" />
<glyph unicode="0" horiz-adv-x="1145" d="M70 731q0 139 18.5 248.5t52.5 192.5t79.5 139.5t102 92.5t119.5 51.5t129 15.5q68 0 132 -15.5t119.5 -51.5t102 -92.5t80.5 -139.5t51.5 -192.5t17.5 -248.5q0 -142 -17.5 -254.5t-51.5 -197t-80.5 -142t-102 -94.5t-119.5 -53.5t-132 -16.5q-66 0 -129 16.5 t-119.5 53.5t-102 94.5t-79.5 142t-52.5 196.5t-18.5 255zM269 731q0 -44 2.5 -105t11.5 -126t27.5 -128.5t52.5 -113t84 -80.5t124 -31q57 0 99.5 17.5t74 48t53.5 72t37 88t23.5 96t12.5 97t4 89.5q1 44 1 76q0 31 -0.5 72t-4.5 86t-12.5 93t-23.5 94t-37 86t-53.5 71 t-74 48.5t-99.5 17.5q-54 0 -96.5 -17.5t-74 -48.5t-53 -71t-36.5 -86t-23 -94t-12 -93t-5.5 -86t-1.5 -72z" />
<glyph unicode="1" horiz-adv-x="1145" d="M178 1006v148q77 3 148 18.5t127 49t95 87.5q38 53 54 133h150v-1442h-198v1006h-376z" />
<glyph unicode="2" horiz-adv-x="1145" d="M86 0q4 104 37.5 186.5t89.5 153.5t136 135t181 129q84 53 145.5 102t100.5 99t59 104q19 53 19 118q0 56 -18.5 103.5t-53.5 82.5t-83 53.5t-107 18.5q-78 0 -133.5 -30.5t-90.5 -81t-50.5 -114.5t-15.5 -133h-210q0 116 32.5 215t97.5 172.5t161 113.5q97 41 221 41 q96 0 179.5 -30.5t146.5 -87t99.5 -139.5t36.5 -185q0 -100 -30 -176t-82.5 -139t-124 -117t-156.5 -107q-74 -47 -128 -86.5t-92.5 -75t-63.5 -71.5t-46 -76h734v-178h-991z" />
<glyph unicode="3" horiz-adv-x="1145" d="M65 462h206q3 -68 23 -126t57 -100t90 -65.5t124 -23.5q65 0 118.5 18.5t92 51.5t59.5 80q20 46 20 106q0 72 -25 127t-69.5 90.5t-104.5 51t-129 12.5v129q61 5 115 22t94.5 48.5t64.5 77.5q25 48 25 111q0 51 -20 94t-55 74t-81 48q-45 17 -102 17q-66 0 -115.5 -22 t-84 -62t-51.5 -95q-15 -54 -18 -120h-203q3 105 39.5 191t100 147.5t149.5 94t188 32.5q90 0 171.5 -26.5t143.5 -76t97.5 -121.5t35.5 -161q0 -59 -14.5 -112t-43.5 -96t-72 -73q-41 -29 -98 -44q62 -12 114 -40t89 -74t59 -105.5t22 -131.5q0 -111 -41 -193t-109.5 -136 t-158.5 -81t-189 -27q-111 0 -204.5 32t-161.5 93.5t-106.5 152.5t-41.5 211z" />
<glyph unicode="4" horiz-adv-x="1145" d="M59 542l644 900h192v-924h193v-173h-193v-345h-189v345h-644v197h-3zM223 518h483v675q-83 -116 -150.5 -210t-124.5 -174.5t-108 -151.5t-100 -139z" />
<glyph unicode="5" horiz-adv-x="1145" d="M74 429h201q6 -60 30 -112t62.5 -90t91.5 -58.5t115 -20.5q74 0 131 25t97 69.5t61 105t21 134.5q0 67 -20 124t-59.5 100t-96.5 66.5t-128 23.5q-92 0 -160.5 -35.5t-114.5 -91.5h-191q35 194 69 386q33 191 69 387h751v-172h-611q-19 -107 -38.5 -213.5t-36.5 -214.5 q26 30 61.5 52t77 37.5t85.5 23t85 7.5q101 0 185 -35.5t145 -100t94 -152.5t33 -192q0 -115 -38.5 -208t-105.5 -160t-159 -104t-197 -37q-102 0 -192.5 30t-158.5 87.5t-110 142t-48 196.5z" />
<glyph unicode="6" horiz-adv-x="1145" d="M86 699q0 171 35.5 313t103.5 244.5t167 158.5t228 56q87 0 161 -26.5t130.5 -75.5t93.5 -120t49 -161h-202q-8 44 -26.5 85t-47.5 70.5t-70 47t-92 17.5q-57 0 -101 -19t-80.5 -56t-62.5 -87.5t-43.5 -109.5t-27.5 -128q-9 -70 -11 -141q28 47 61.5 82t75 57.5t92.5 33 t114 10.5q89 0 169 -32.5t140.5 -93t96 -148t35.5 -196.5q0 -120 -32.5 -214t-94.5 -159.5t-148 -99.5t-192 -34q-102 0 -180.5 27.5t-137 75.5t-97 115.5t-62 148t-34 171.5t-10.5 188zM321 465q0 -59 18 -115.5t52.5 -101t86.5 -72.5t120 -28q71 0 123 29.5t86.5 75.5 t51.5 101.5t17 110.5q0 57 -16 114t-50 103t-86 74t-126 28q-70 0 -121.5 -27t-86.5 -72.5t-52 -102.5q-17 -58 -17 -117z" />
<glyph unicode="7" horiz-adv-x="1145" d="M101 1254v188h936v-190q-68 -77 -129 -173t-113 -202t-93.5 -219t-72.5 -227t-51 -223.5t-27 -207.5h-211q14 110 40 221.5t60 223t78 221.5t95.5 212.5t109.5 197.5t121 178h-743z" />
<glyph unicode="8" horiz-adv-x="1145" d="M65 411q0 67 19.5 126t57 107.5t93 82.5t129.5 51q-62 15 -106.5 45.5t-74 72.5t-43 92.5t-13.5 106.5q0 83 32.5 152t91 118.5t141 77.5t181.5 28q81 0 145.5 -16t114 -44.5t85 -65.5t58 -78.5t32.5 -85t10 -83.5q0 -56 -14.5 -106.5t-43 -92.5t-73.5 -74 q-43 -32 -106 -47q74 -16 129.5 -50.5t93.5 -82t57 -107.5q19 -61 19 -127q0 -74 -20.5 -134.5t-56 -109.5t-83 -85t-103.5 -60.5t-118.5 -36.5t-124.5 -12q-63 0 -126 12t-119.5 35.5t-105 59t-84 84.5t-55.5 111q-19 62 -19 136zM263 416q0 -62 24.5 -113t67 -88t98.5 -58 t121 -21t120.5 21t96.5 58t64 88q24 49 24 111q0 60 -23 111t-63.5 88t-97 58.5t-121.5 21.5q-66 0 -123 -21t-98.5 -57t-65.5 -87t-24 -112zM305 1076q0 -50 20.5 -92.5t56 -72t84.5 -45t107 -15.5q57 0 106 15.5t84.5 45t55 71t19.5 93.5q0 41 -13.5 83.5t-44.5 75t-82 53 t-125 20.5q-62 0 -111 -16t-84 -47t-54 -74t-19 -95z" />
<glyph unicode="9" horiz-adv-x="1145" d="M71 965q0 120 32.5 214.5t94.5 159t148 98.5t193 34q102 0 180.5 -26.5t137 -74.5t97 -115.5t62 -147.5t34 -171.5t10.5 -188.5q0 -171 -35.5 -312.5t-104 -243.5t-167.5 -160t-228 -58q-87 0 -161 27t-130 77t-93 121t-49 160h201q9 -44 27.5 -84t47.5 -71t69 -49 t93 -18q56 0 100.5 21t80.5 56.5t62 85.5t44 111t27.5 129t10.5 139q-28 -48 -61 -82t-74.5 -56t-92.5 -33t-115 -11q-89 0 -169 31.5t-140.5 92.5t-96 148t-35.5 197zM269 981q0 -57 16.5 -115t50.5 -103t86 -73t126 -28q69 0 121 27t86.5 71.5t51.5 102.5t17 117 t-17.5 115t-52.5 101.5t-86.5 72.5t-119.5 27q-48 0 -86.5 -13t-69.5 -35.5t-54 -53.5t-38.5 -66.5t-23 -72.5t-7.5 -74z" />
<glyph unicode=":" horiz-adv-x="547" d="M157 0v231h237v-231h-237zM157 815v231h237v-231h-237z" />
<glyph unicode=";" horiz-adv-x="547" d="M110 -203q29 6 57 21.5t49 41t34 58.5t13 73v9h-106v231h237v-232q0 -69 -22.5 -123.5t-61 -95t-90 -69t-110.5 -40.5v126zM157 815v231h237v-231h-237z" />
<glyph unicode="&#x3c;" horiz-adv-x="1186" d="M104 565v208l982 398v-171q-198 -82 -393.5 -165t-393.5 -166q198 -83 393.5 -166t393.5 -166v-171q-245 100 -492 200q-245 99 -490 199z" />
<glyph unicode="=" horiz-adv-x="1186" d="M118 401v155h954v-155h-954zM118 780v155h954v-155h-954z" />
<glyph unicode="&#x3e;" horiz-adv-x="1186" d="M104 166v171q198 83 393 166q193 83 391 166q-198 83 -394 166q-195 83 -390 165v171l982 -398v-208q-245 -100 -492 -199z" />
<glyph unicode="?" horiz-adv-x="1118" d="M74 1027q4 102 35.5 190t90.5 152t147 99.5t207 35.5q88 0 156 -16.5t119.5 -44.5t87.5 -65t57.5 -80t31 -89t9.5 -89q0 -74 -14 -129.5t-40.5 -99.5t-64.5 -81t-85 -70q-33 -24 -62.5 -49t-53 -53t-37.5 -60.5t-14 -74.5v-130h-196v145q0 59 17 105.5t42.5 84.5t56.5 69 t61 55q34 28 65.5 55.5t57 57t40 65t14.5 81.5q0 55 -17.5 98.5t-49 74t-75.5 46.5t-99 16q-65 0 -114 -22t-82 -62t-49.5 -95t-16.5 -120h-225zM423 0v231h237v-231h-237z" />
<glyph unicode="@" horiz-adv-x="1648" d="M62 734q0 118 28 221t80 189.5t124.5 155t162 115.5t192.5 71.5t215 24.5q108 0 205 -21.5t178.5 -61.5t146.5 -97.5t110.5 -128.5t69.5 -153.5t24 -173.5q0 -94 -19 -173t-51.5 -143.5t-75.5 -114t-93.5 -82.5t-105.5 -51q-57 -18 -110 -18q-29 0 -57 9t-51.5 26.5 t-39 43t-15.5 60.5q-22 -29 -49.5 -56t-60 -44.5t-70.5 -28t-82 -10.5q-86 0 -149.5 35t-103 93.5t-54 132.5t-3.5 153q15 89 52 170.5t95 143.5t135 97.5t168 35.5q45 0 83.5 -10t68.5 -31t51 -49q19 -28 28 -64q11 40 19 69t14 53h123q-33 -139 -67.5 -277t-67.5 -277 q-4 -20 -6.5 -47t2 -50.5t20.5 -40.5q14 -17 46.5 -17t66.5 15.5t63.5 43.5t54.5 69t44.5 92t30 110t10.5 126q0 112 -41 207.5t-117 163.5t-187 106.5t-250 38.5q-89 0 -168.5 -22t-149 -62t-125.5 -97.5t-96 -131t-61.5 -160t-21.5 -182.5q0 -153 47.5 -271.5t133 -199.5 t204 -124t263.5 -43q58 0 121 10t123.5 31t117 50.5t97.5 71.5h192q-35 -49 -82.5 -90t-101.5 -72t-114 -54.5t-122 -38.5t-124 -22.5t-120 -7.5q-178 0 -324.5 50t-252 146.5t-163.5 239t-58 328.5zM559 678q-5 -46 0.5 -94t26.5 -86.5t59.5 -63t95.5 -24.5q54 0 99 27.5 t80.5 76t62 114t43.5 142.5q9 44 4.5 91.5t-25.5 87.5t-58.5 65t-95.5 25q-53 0 -101 -25t-86 -71t-65.5 -113.5t-39.5 -151.5z" />
<glyph unicode="A" horiz-adv-x="1361" d="M3 0l553 1471h258q136 -367 272 -735.5t273 -735.5h-239l-114 334h-657l-115 -334h-231zM408 509h541l-265 779z" />
<glyph unicode="B" horiz-adv-x="1413" d="M161 0v1470h632q96 0 180 -21.5t145.5 -67.5t96 -115.5t34.5 -168.5q0 -54 -12 -103.5t-39 -92.5t-70 -75.5t-104 -52.5q76 -15 132 -47.5t92.5 -80t55 -105.5t18.5 -124q0 -73 -18.5 -132t-51 -105t-78.5 -80t-99.5 -56t-112.5 -32.5t-121 -10.5h-680zM380 184h416 q59 0 112.5 13t94 42.5t65 75.5t24.5 113q0 59 -21.5 104t-61.5 77t-97 49t-131 17h-401v-491zM380 836h382q61 0 110.5 16.5t84.5 46.5t54 73t19 97q0 60 -23.5 102.5t-62 67.5t-89 36t-103.5 11h-372v-450z" />
<glyph unicode="C" horiz-adv-x="1485" d="M95 725q0 169 45 311t132.5 245.5t214 161.5t289.5 58q116 0 218.5 -32.5t181.5 -96.5t132.5 -157t70.5 -212h-220q-15 71 -48.5 130.5t-83.5 102.5t-113.5 66t-137.5 23q-80 0 -144.5 -23t-114 -63t-86.5 -96.5t-61 -123t-35 -141t-11 -153.5q0 -77 11 -149.5t35 -137 t60 -118.5t86.5 -92.5t115 -60.5t144.5 -22q79 0 147.5 28t118.5 80t84 123t46 158h221q-15 -130 -67.5 -234.5t-132.5 -177t-186.5 -112.5t-230.5 -40q-110 0 -202 27t-167 75.5t-134.5 117.5t-98.5 152.5t-59 180.5t-20 202z" />
<glyph unicode="D" horiz-adv-x="1487" d="M161 0v1470h588q146 0 265.5 -47t203 -138.5t128.5 -229t45 -318.5q0 -105 -17.5 -201t-53 -178.5t-89.5 -148t-126 -112.5t-161 -72t-195 -25h-588zM382 184h340q102 0 183 35.5t138.5 104t88 168.5t30.5 227q0 125 -24.5 230t-81 179.5t-149 117t-229.5 42.5h-296 v-1104z" />
<glyph unicode="E" horiz-adv-x="1280" d="M161 0v1471h1023v-186h-802v-422h735v-181h-735v-498h820v-184h-1041z" />
<glyph unicode="F" horiz-adv-x="1179" d="M161 0v1471h946v-186h-725v-483h624v-180h-624v-622h-221z" />
<glyph unicode="G" horiz-adv-x="1549" d="M95 725q0 169 45.5 311t133 245.5t215 161.5t289.5 58q119 0 219.5 -32.5t177.5 -96.5t128 -155q51 -89 69 -208h-219q-15 71 -47 127.5t-79 96.5t-109.5 62t-139.5 22q-119 0 -205 -48.5t-141.5 -130t-81.5 -188t-26 -225.5q0 -74 11 -146.5t36.5 -136t62.5 -117t87 -92 t115.5 -60.5t144.5 -22q86 0 157 31t123.5 89t83 140t35.5 184h-302v186h522v-781h-136q-9 53 -19 107q-11 56 -20 109q-28 -59 -73 -105t-102.5 -77t-126 -47.5t-142.5 -16.5q-108 0 -201 27t-169.5 75.5t-135.5 117.5t-99 152.5t-60.5 180.5t-20.5 202z" />
<glyph unicode="H" horiz-adv-x="1463" d="M163 0v1470h219v-606h701v606h221v-1470h-221v667h-701v-667h-219z" />
<glyph unicode="I" horiz-adv-x="559" d="M170 0v1470h221v-1470h-221z" />
<glyph unicode="J" horiz-adv-x="1108" d="M49 407v98h203v-76q0 -56 13 -108t42.5 -91t74 -62t109.5 -23q67 0 112 20.5t73 57.5t40 90q12 54 12 116v1041h221v-1029q0 -96 -24.5 -181t-78 -149.5t-139.5 -102.5q-88 -38 -213 -38q-91 0 -172 26t-141.5 79.5t-96 135.5t-35.5 196z" />
<glyph unicode="K" horiz-adv-x="1408" d="M161 0v1470h221v-752q84 89 172 184.5t177 191.5t178 190.5t174 185.5h273q-145 -148 -288.5 -295.5t-289.5 -296.5q60 -85 123.5 -176t138 -196.5t162.5 -230.5q86 -124 192 -275h-274l-488 728l-250 -254v-474h-221z" />
<glyph unicode="L" horiz-adv-x="1179" d="M163 0v1471h220v-1287h733v-184h-953z" />
<glyph unicode="M" horiz-adv-x="1813" d="M163 0v1470h340l409 -1181l399 1181h341v-1470h-209v1296q-3 -10 -10.5 -31.5t-18.5 -56t-28 -82.5q-16 -49 -39 -114l-364 -1012h-151l-363 1006q-29 80 -47.5 135t-30 87.5t-15.5 47.5l-5 15v-1291h-208z" />
<glyph unicode="N" horiz-adv-x="1475" d="M163 0v1470h257q148 -259 293 -515t293 -517q12 -21 27.5 -50.5t29.5 -57.5t26 -51.5t17 -34.5v1226h210v-1470h-259l-583 1017q-12 22 -28.5 52.5t-31 60t-26.5 54t-15 33.5v-1217h-210z" />
<glyph unicode="O" horiz-adv-x="1567" d="M95 728q0 163 44.5 302t131 242.5t216 163t298 59.5t297.5 -59.5t216 -163t132 -243.5q44 -138 44 -301q0 -103 -19 -201t-59 -181.5t-98 -152.5t-135 -117.5t-171.5 -75.5t-207 -27t-208 27t-171.5 75.5t-134.5 117.5t-98 152.5t-58.5 180.5t-19 202zM326 728 q0 -68 10 -137.5t32.5 -133t58 -121.5t87 -99.5t118.5 -66.5t152 -25q86 0 152.5 25t118.5 66.5t87.5 99.5t58.5 121.5t33.5 133t10.5 137.5q0 71 -10.5 142t-33.5 137.5t-58.5 123.5t-87.5 99.5t-118.5 67.5t-152.5 25q-85 0 -152 -25t-118.5 -67.5t-87 -99.5t-58 -123.5 t-32.5 -137.5t-10 -142z" />
<glyph unicode="P" horiz-adv-x="1343" d="M163 0v1470h605q127 0 220.5 -36.5t155.5 -98.5t92.5 -147t30.5 -183t-30.5 -183t-92.5 -147t-156 -97.5t-220 -35.5h-386v-542h-219zM382 712h325q70 0 131.5 14.5t107.5 49.5t72.5 91.5t26.5 137.5q0 83 -26.5 139t-72.5 91t-108 51t-131 16h-325v-590z" />
<glyph unicode="Q" horiz-adv-x="1567" d="M95 728q0 163 44.5 302t131 242.5t216 163t298 59.5t297.5 -59.5t216 -163t132 -243.5q44 -138 44 -301q0 -81 -12 -159t-35.5 -147.5t-59 -131.5t-82.5 -112q46 -45 90 -88q46 -43 90 -87l-127 -120l-191 182q-74 -44 -165 -68t-198 -24q-112 0 -207.5 27t-171.5 75.5 t-134.5 117.5t-98 152.5t-58.5 180.5t-19 202zM326 728q0 -68 10 -137.5t32.5 -133t58 -121.5t87 -99.5t118.5 -66.5t152 -25q66 0 120.5 15t98.5 41l-207 202l128 124q53 -50 105 -101q51 -53 105 -103q29 41 50 90.5t34 102t20 106t7 106.5q0 71 -10.5 142t-33.5 137.5 t-58.5 123.5t-87.5 99.5t-118.5 67.5t-152.5 25q-85 0 -152 -25t-118.5 -67.5t-87 -99.5t-58 -123.5t-32.5 -137.5t-10 -142z" />
<glyph unicode="R" horiz-adv-x="1431" d="M163 0v1470h706q103 0 184.5 -32t137 -88t85 -133t29.5 -169q0 -70 -19 -133t-57.5 -114.5t-94.5 -88.5q-57 -37 -128 -55q77 -12 129 -43t84.5 -75.5t47.5 -98.5q15 -52 19 -108q3 -43 6 -90t8 -89.5t14 -82.5t24 -70h-243q-12 40 -18.5 83.5t-10 87.5t-6.5 86t-9 77 q-9 58 -33.5 103t-63.5 76.5t-91 48.5t-116 17h-365v-579h-219zM382 741h394q69 0 126 20t97 58.5t62 92t22 118.5q0 62 -19 112.5t-56 86t-91 54.5t-124 19h-411v-561z" />
<glyph unicode="S" horiz-adv-x="1323" d="M80 438h210q6 -75 40 -132t86 -96.5t120 -59.5t142 -20t137.5 15t111 44.5t74 75.5t26.5 108q0 50 -16 89.5t-60.5 74t-120 64t-191.5 59.5q-69 18 -135 38.5t-122 46t-103.5 59.5t-81.5 76t-52 94.5t-18 120.5q0 71 21 129t57 103t85.5 77t107.5 52.5t119.5 31 t123.5 10.5q103 0 200 -24t172.5 -75.5t123 -131.5t53.5 -194h-212q-9 68 -39 118.5t-76 82t-106 48.5q-58 16 -127 16q-31 0 -65 -6t-65.5 -18.5t-60 -30.5t-50.5 -41.5t-34 -53t-12 -65.5q0 -51 18 -90.5t68.5 -73t139 -64.5t229.5 -66q97 -25 179.5 -63t141.5 -89.5 t91.5 -121.5t32.5 -161q0 -98 -37 -175.5t-109.5 -133t-180.5 -85.5t-247 -30q-113 0 -216.5 27.5t-185 84.5t-132.5 146q-49 89 -55 210z" />
<glyph unicode="T" horiz-adv-x="1221" d="M46 1296v174h1131v-174h-455v-1296h-222v1296h-454z" />
<glyph unicode="U" horiz-adv-x="1494" d="M155 548v922h221v-922q0 -45 4.5 -93t19 -93t40.5 -84.5t67.5 -69t100 -46.5t138.5 -17q105 0 176 28t114.5 80.5t61.5 127.5t18 167v922h222v-922q0 -145 -40 -254t-117 -181t-186.5 -107.5t-248.5 -35.5t-249.5 35.5t-186.5 107t-115.5 180t-39.5 255.5z" />
<glyph unicode="V" horiz-adv-x="1297" d="M3 1470h237l408 -1239q51 148 102.5 305t103.5 315t103.5 315t102.5 304h236q-128 -367 -257 -735q-130 -368 -258 -735h-269z" />
<glyph unicode="W" horiz-adv-x="1946" d="M3 1470h231l285 -1207l345 1207h216l345 -1207l286 1207h231l-392 -1470h-242q-86 302 -168.5 599.5t-167.5 599.5q-84 -302 -167 -599.5t-169 -599.5h-241z" />
<glyph unicode="X" horiz-adv-x="1309" d="M3 0l521 758l-488 712h272l355 -549l348 549h262l-486 -715l518 -755h-278q-95 145 -189 289q-95 146 -191 291l-384 -580h-260z" />
<glyph unicode="Y" horiz-adv-x="1299" d="M1 1470h258q99 -178 197 -353.5t198 -354.5l391 708h254l-541 -899v-571h-221v577z" />
<glyph unicode="Z" horiz-adv-x="1293" d="M70 0v218q223 269 448 537.5t447 538.5h-855v176h1105v-218l-904 -1076h923v-176h-1164z" />
<glyph unicode="[" horiz-adv-x="646" d="M158 -376v1883h458v-145h-258v-1594h258v-144h-458z" />
<glyph unicode="\" horiz-adv-x="765" d="M13 1498h166l573 -1535h-166z" />
<glyph unicode="]" horiz-adv-x="646" d="M31 -232h258v1594h-258v145h457v-1883h-457v144z" />
<glyph unicode="^" horiz-adv-x="1089" d="M102 662q86 195 171 389.5t171 390.5h201q86 -197 172 -390.5t172 -389.5h-151l-293 618l-292 -618h-151z" />
<glyph unicode="_" horiz-adv-x="1030" d="M18 -157h994v-90h-994v90z" />
<glyph unicode="`" horiz-adv-x="532" d="M-68 1489h247l249 -290h-150z" />
<glyph unicode="a" horiz-adv-x="1147" d="M89 269q0 60 17.5 105t48.5 79.5t72.5 60t89 42.5t98 27t97.5 16q59 6 114 21t96.5 38t66.5 54t25 72q0 83 -60.5 130t-176.5 47q-44 0 -85.5 -11.5t-75.5 -35t-58 -57.5t-32 -79h-208q17 88 62 148t108.5 97.5t140.5 54t157 16.5q53 0 105 -7t98.5 -23t87.5 -41 t70.5 -61t45.5 -83t16 -109v-545q0 -30 2.5 -61.5t6 -62t8.5 -56.5q4 -26 13 -45h-195q-6 19 -13 62q-7 45 -7 107q-32 -45 -76 -80.5t-94 -60.5t-106.5 -37.5t-116.5 -12.5q-70 0 -132 17t-109.5 52.5t-74 91t-26.5 130.5zM289 274q0 -42 12.5 -72t34.5 -49.5t54.5 -29 t71.5 -9.5q53 0 100.5 14t86.5 37.5t71 55.5t53.5 67t32.5 69t11 66v160q-27 -28 -62.5 -46.5t-75.5 -32t-83 -21.5q-45 -8 -87 -15q-44 -9 -84 -22.5t-69.5 -36.5t-48 -56t-18.5 -79z" />
<glyph unicode="b" horiz-adv-x="1234" d="M136 0v1471h196v-561q22 45 58 79t80.5 57t95 34.5t100.5 11.5q112 0 201 -38.5t152 -109.5t96 -174.5t33 -232.5q0 -130 -34 -234.5t-96 -177t-152 -111t-203 -38.5q-53 0 -102 10.5t-92.5 32.5t-81.5 56.5t-67 81.5v-157h-184zM323 531q0 -47 7 -96.5t22 -95.5t40 -86 t59 -69.5t80 -47.5t102 -18q85 0 145 37t98.5 96.5t57 133.5t18.5 148q0 50 -7 100.5t-23 97t-40.5 86.5t-60 69t-82 46t-106.5 17q-56 0 -100.5 -18t-78.5 -48.5t-59 -71t-41.5 -87t-23.5 -96t-7 -97.5z" />
<glyph unicode="c" horiz-adv-x="1139" d="M86 525q0 126 35.5 230.5t100.5 179t160 116t213 41.5q83 0 161.5 -22t141.5 -66.5t105 -112.5t52 -161h-191q-10 47 -33 86t-57 69t-80 47t-101 17q-59 0 -104 -18.5t-79 -49.5t-58.5 -72.5t-39.5 -88.5t-21.5 -96.5t-6.5 -96.5q0 -45 6.5 -92t22.5 -93t39.5 -86 t57.5 -71t78.5 -49t103.5 -18q62 0 110 21t83 55.5t58 80.5q24 48 33 98h185q-18 -98 -58.5 -172t-101 -124t-140 -75.5t-172.5 -25.5q-112 0 -205.5 39.5t-159.5 111t-102 173t-36 225.5z" />
<glyph unicode="d" horiz-adv-x="1234" d="M89 537q0 130 32.5 233t96 174t152.5 109.5t201 38.5q51 0 100.5 -11t94 -33t80.5 -55.5t60 -77.5v556h194v-1471h-182v157q-58 -92 -147.5 -136.5t-196.5 -44.5q-112 0 -202.5 38.5t-153.5 111t-96 177t-33 234.5zM284 533q0 -74 18.5 -148t57 -133.5t98.5 -96.5 t146 -37t145 37t96 97t53.5 133.5t16.5 145.5q0 48 -7.5 97.5t-24 96t-41.5 87t-60 71t-79 48.5q-43 18 -99 18q-59 0 -106.5 -17t-83 -46t-60 -69t-40 -86.5t-23 -97t-7.5 -100.5z" />
<glyph unicode="e" horiz-adv-x="1157" d="M84 536q0 121 37 223t104.5 176t161 115.5t205.5 41.5q83 0 152.5 -23t124.5 -64.5t94.5 -98t65 -125t36.5 -145.5q9 -60 9 -123q0 -17 -1 -35h-792q3 -84 27.5 -151t66 -113.5t99.5 -70.5q59 -25 130 -25q46 0 89 12t79 35t65.5 56.5t47.5 74.5h175 q-62 -155 -176 -237.5t-292 -82.5q-118 0 -211.5 40t-160 114t-101.5 176t-35 230zM281 596h600q-5 74 -25.5 138.5t-57.5 112t-90.5 75t-122.5 27.5q-74 0 -129.5 -30.5t-93.5 -79.5t-58 -112.5t-23 -130.5z" />
<glyph unicode="f" horiz-adv-x="642" d="M22 938v128h173v97q0 67 19.5 124t59.5 98.5t98 64.5q57 23 137 23q18 0 50 -2q33 -3 64 -6v-140q-6 0 -16.5 0.5t-21.5 1.5t-20.5 1h-16.5q-42 0 -71.5 -13t-49 -35t-28 -54.5t-8.5 -71.5v-88h216v-128h-216v-938h-196v938h-173z" />
<glyph unicode="g" horiz-adv-x="1229" d="M95 568q0 116 34 212t94.5 165.5t145 108t185.5 38.5q71 0 125.5 -13t96 -38.5t71 -59.5t53.5 -72v157h189v-1004q0 -53 -9.5 -108t-32.5 -106.5t-61.5 -97.5t-95.5 -79.5t-136 -53.5t-183 -20q-74 0 -146.5 19.5t-131.5 58.5t-100 98q-39 58 -51 138h187q11 -47 34 -81 t57 -58t78 -35t95 -11q86 0 144.5 25.5t95.5 69t55 102.5t18 124v185q-27 -44 -62.5 -79t-78.5 -59t-97 -37.5t-119 -13.5q-104 0 -187.5 37.5t-142.5 106t-91.5 166t-32.5 215.5zM290 570q0 -76 18 -145.5t55.5 -122.5t94 -84.5t133.5 -31.5q74 0 132 31.5t99 83 t62.5 119.5t21.5 139q0 79 -20 149t-59.5 123.5t-98.5 85.5t-137 32q-74 0 -129.5 -30.5t-94 -81.5t-58 -120t-19.5 -147z" />
<glyph unicode="h" horiz-adv-x="1195" d="M136 0v1471h196v-471l-2 -127q27 53 66 93t87 68.5t102 41.5t112 13q83 0 150.5 -23.5t114.5 -71t72.5 -115.5t25.5 -158v-721h-196v681q0 127 -47 186t-147 59q-74 0 -136.5 -31t-107 -82.5t-69.5 -119.5t-25 -144v-549h-196z" />
<glyph unicode="i" horiz-adv-x="488" d="M147 0v1066h195v-1066h-195zM147 1276v195h195v-195h-195z" />
<glyph unicode="j" horiz-adv-x="509" d="M-33 -216h9t12 -1.5t12 -1.5h9q68 0 107 37t39 108v1140h196v-1122q0 -157 -82.5 -238.5t-249.5 -81.5h-12.5t-14.5 1.5t-15 1.5t-10 2v155zM155 1276v195h196v-195h-196z" />
<glyph unicode="k" horiz-adv-x="1115" d="M149 0v1471h196v-891l466 486h243q-101 -100 -200 -197q-99 -99 -200 -197q110 -169 220 -336t221 -336h-240l-334 542q-44 -45 -88 -88t-88 -85v-369h-196z" />
<glyph unicode="l" horiz-adv-x="488" d="M147 0v1471h195v-1471h-195z" />
<glyph unicode="m" horiz-adv-x="1833" d="M141 0v1066h182v-182q29 53 67 92t83 64.5t97 37t106 11.5q52 0 103 -11.5t94 -39t75 -70t44 -101.5q26 59 66 100.5t86 70t97 40t104 11.5q74 0 138.5 -20.5t111 -63.5t73.5 -110q27 -69 27 -161v-734h-194v709q0 59 -13.5 102.5t-38.5 71t-62 40t-82 12.5 q-63 0 -116.5 -28t-92 -79.5t-60 -121.5t-21.5 -152v-554h-195v709q0 59 -14 102.5t-40 71t-62 40.5q-38 12 -82 12q-66 0 -117.5 -28t-90 -78.5t-59.5 -121.5t-21 -153v-554h-193z" />
<glyph unicode="n" horiz-adv-x="1195" d="M136 0v1066h184v-184q26 49 65.5 87.5t88 66t104 40.5t115.5 13q83 0 151 -23.5t116.5 -71t74 -115.5t25.5 -158v-721h-196v681q0 68 -13 117t-40 79t-65.5 44t-88.5 14q-80 0 -141.5 -31t-102 -85t-61 -124t-20.5 -146v-549h-196z" />
<glyph unicode="o" horiz-adv-x="1231" d="M95 533q0 127 37 230.5t105 176t164 112.5t215 40q120 0 216 -40t165 -112.5t106 -176t37 -230.5t-37 -230t-106 -176.5t-166 -113.5t-215.5 -40t-214.5 40t-164 113.5t-105 176.5t-37 230zM290 532.5q0 -47.5 7.5 -97t22 -95t40 -86.5t61 -71.5t84.5 -47.5t111 -17 t111 17t84.5 47.5t60.5 71.5t41 86.5t22 95t6 97t-6 97t-22 96.5t-41 86.5t-60.5 71t-84.5 48.5t-111 17t-111 -17t-84.5 -48.5t-61 -71t-40 -86.5t-22 -96.5t-7.5 -97z" />
<glyph unicode="p" horiz-adv-x="1234" d="M136 -379v1443h184v-158q60 96 148 139.5t195 43.5q113 0 203 -38.5t152 -111.5t96 -177.5t34 -234.5t-33 -232.5t-96 -174t-152 -109.5t-201 -38q-50 0 -100.5 11.5t-95 34t-80.5 57t-58 78.5v-533h-196zM323 533q0 -48 7 -98t23.5 -96t41.5 -86.5t59 -71t78.5 -48.5 t100.5 -18q60 0 106.5 16.5t82 46t60 69.5t40.5 86t23 96.5t7 101.5q0 74 -18.5 148t-57 133.5t-98.5 96.5t-145 37q-56 0 -102 -17t-80 -47t-59 -70.5t-40 -86.5t-22 -95.5t-7 -96.5z" />
<glyph unicode="q" horiz-adv-x="1234" d="M89 527q0 130 33 234.5t96 177.5t153 112q91 38 203 38q107 0 194 -43t148 -140v158h184v-1443h-196v533q-22 -44 -59 -78.5t-81.5 -57t-93 -34t-99.5 -11.5q-112 0 -201 38t-152.5 109.5t-96 174t-32.5 232.5zM284 531q0 -50 7.5 -101t23 -97t40 -86t60 -69.5t82 -46 t105.5 -16.5q57 0 100.5 18t79 48.5t60.5 71t41.5 86.5t24 96t7.5 98q0 47 -7.5 96.5t-23 95.5t-40 86.5t-59.5 70.5t-80 47t-103 17q-56 0 -101 -17t-80.5 -47t-61 -69.5t-42.5 -85.5t-25 -96.5t-8 -99.5z" />
<glyph unicode="r" horiz-adv-x="775" d="M136 0v1066h181v-230v-1q26 68 67.5 116.5t91 80t105 46t115.5 14.5q14 0 27.5 -0.5t25.5 -2.5v-192q-6 0 -15 1.5l-18 3t-17.5 2t-16.5 0.5q-65 0 -116 -17t-90 -46.5t-66.5 -69.5t-45.5 -87.5t-25 -97.5t-7 -104v-482h-196z" />
<glyph unicode="s" horiz-adv-x="1065" d="M81 308h197q6 -50 31 -87t62 -62.5t84 -37t96 -11.5q56 0 102 8.5t80 28t53 48.5q19 30 19 68q0 30 -12 56.5t-46 52t-96 52t-166 56.5q-77 22 -146.5 49t-121 65.5t-82 90.5t-30.5 122q0 56 17 98t46.5 74.5t71 54t89 35t100.5 19.5t107 6q77 0 149.5 -15t131 -50.5 t99 -94t52.5 -144.5h-192q-6 42 -27.5 73.5t-55 53t-75 33.5t-91.5 12q-45 0 -84.5 -10.5t-71 -28t-50 -43t-18.5 -57.5q0 -39 15.5 -64t55 -46.5t104 -42t161.5 -47.5q83 -24 151 -52.5t115.5 -69.5t72.5 -95t25 -125q0 -77 -35.5 -134.5t-96 -94.5t-143.5 -55t-179 -18 q-89 0 -169.5 16.5t-142.5 55t-103.5 102t-52.5 155.5z" />
<glyph unicode="t" horiz-adv-x="671" d="M31 938v128h182v319h195v-319h221v-128h-221v-590q0 -56 6 -95.5t23 -65.5t50.5 -38.5t89.5 -12.5q15 0 31.5 1.5t30.5 1.5v-145q-28 0 -51 -3q-21 -1 -44 -2t-38 -1q-59 0 -112.5 15t-93.5 46.5t-63 83.5q-24 53 -24 127v678h-182z" />
<glyph unicode="u" horiz-adv-x="1195" d="M136 343v723h196v-681q0 -68 13 -117t39.5 -80t66.5 -45t91 -14q62 0 111 18.5t84.5 51t60.5 77t39.5 94.5t21.5 105t7 111v480h194v-1066h-187v184q-49 -101 -140 -155t-233 -54q-83 0 -151 24.5t-115.5 70t-72.5 115.5t-25 158z" />
<glyph unicode="v" horiz-adv-x="1044" d="M0 1066h212q78 -222 156.5 -441t156.5 -441l314 882h203l-400 -1066h-239q-101 268 -201 532q-101 264 -202 534z" />
<glyph unicode="w" horiz-adv-x="1648" d="M3 1066h210q62 -219 124.5 -436t124.5 -436l266 872h190l266 -872q62 219 124 435q62 218 125 437h210l-336 -1066h-227l-257 847l-258 -847h-226z" />
<glyph unicode="x" horiz-adv-x="1053" d="M9 0q98 141 195.5 280.5t195.5 280.5l-356 505h237l243 -367l241 367h227l-359 -504q103 -142 202.5 -281t203.5 -281h-240l-281 417q-21 -32 -50.5 -76t-65 -97t-77 -114.5t-85.5 -129.5h-231z" />
<glyph unicode="y" horiz-adv-x="1041" d="M3 1066h216l309 -885q77 222 150.5 442.5t150.5 442.5h208l-452 -1202q-23 -59 -54 -102t-71 -69.5t-91.5 -40t-116.5 -13.5q-36 0 -73 2t-67 5v165q18 -2 31.5 -2.5t26 -2t25 -1.5h27.5q38 0 72.5 9.5t58.5 29.5t38.5 49t14.5 69q0 8 -2.5 23t-6 30t-8 29t-7.5 24 q-95 250 -189 498q-95 248 -190 500z" />
<glyph unicode="z" horiz-adv-x="1043" d="M61 0v192l685 727h-657v145h864v-197l-681 -722h708v-145h-919z" />
<glyph unicode="{" horiz-adv-x="686" d="M30 494v144q41 6 76.5 22t62 43t41.5 64.5t15 89.5v374q0 68 23.5 121t66 87.5t99.5 52.5t122 18h112v-154h-60q-54 0 -87 -16.5t-51 -41.5t-24 -57.5t-6 -66.5v-345q0 -48 -10 -85.5t-28 -65.5t-40 -48t-46 -33.5t-46 -21t-41 -10.5v-3q28 -3 64 -18.5t68.5 -45 t55.5 -73t23 -102.5v-357q0 -36 6 -70t24 -60.5t51 -42.5t87 -16h60v-154h-112q-56 0 -112.5 15.5t-101 48t-71 85.5t-26.5 130v388q0 47 -15 82.5t-41.5 61t-62 40t-76.5 20.5z" />
<glyph unicode="|" horiz-adv-x="461" d="M154 -369v1861h158v-1861h-158z" />
<glyph unicode="}" horiz-adv-x="686" d="M37 -223h61q53 0 86.5 16t52 42.5t24 60.5t5.5 70v357q0 59 22.5 102.5t55 73t69.5 45t65 18.5v3q-28 3 -65 18.5t-69.5 46t-55 79.5t-22.5 120v345q0 32 -5.5 65.5t-24 58.5t-52 41.5t-86.5 16.5h-61v154h112q58 0 114.5 -15t100.5 -48.5t71 -86t27 -129.5v-374 q0 -50 14 -88.5t40 -65.5t61.5 -42.5t79.5 -22.5v-144q-44 -6 -79.5 -20.5t-61.5 -40t-40 -61t-14 -82.5v-388q0 -68 -24.5 -121t-66.5 -88t-99 -52.5t-123 -17.5h-112v154z" />
<glyph unicode="~" horiz-adv-x="1126" d="M102 675q16 32 44.5 57.5t64 41.5t74 25t75.5 9q44 0 84.5 -9t78.5 -23t72.5 -29.5t67.5 -29.5t64 -23t57 -9q33 0 59.5 9t49.5 24t43 35t35 43q13 -32 27 -66q11 -34 26 -67q-38 -68 -101 -102q-65 -34 -150 -34q-42 0 -78 9t-70 22t-67.5 28.5t-67 29.5t-69 23t-73.5 9 q-55 0 -105 -29q-51 -30 -82 -83z" />
<glyph unicode="&#xa2;" horiz-adv-x="1118" d="M75 524q0 117 30.5 215.5t88.5 172.5t142 119.5t191 57.5v151h127v-151q74 -6 143.5 -32.5t125 -72.5t92 -109.5t45.5 -146.5h-190q-7 39 -25.5 72t-46.5 60t-65 45.5t-79 23.5v-791q48 10 86 33t66.5 55t46 70t25.5 81h188q-14 -87 -49.5 -156.5t-89.5 -120 t-123.5 -81.5t-149.5 -40v-179h-127v179q-102 9 -185.5 52.5t-143 115.5t-91.5 167.5t-32 209.5zM272 534q0 -60 13.5 -123t43 -118t78.5 -97t120 -60v793q-71 -14 -120 -54t-78.5 -95t-43 -118t-13.5 -128z" />
<glyph unicode="&#xa3;" horiz-adv-x="1129" d="M65 657v127h154q-18 29 -36.5 63t-32.5 74.5t-23 86.5t-9 96q0 80 30 152.5t89 129t149.5 89t211.5 32.5q105 0 191.5 -32t148 -93.5t96.5 -151.5t38 -206h-190q-3 59 -17.5 117t-48 105.5t-87.5 77.5t-134 30q-68 0 -118.5 -23t-83 -60t-48 -84t-15.5 -96q0 -39 6 -73 t18.5 -70t32 -76t44.5 -88h284v-127h-238q14 -38 21 -76.5t7 -83.5q0 -56 -15.5 -106.5t-41 -94.5t-59.5 -80.5t-69 -63.5q23 11 50 17t55 10.5t54.5 5t53.5 0.5q38 0 74.5 -6t74 -12.5t80 -12.5t90.5 -6q51 0 100 18q48 18 90 56q21 -36 41.5 -71.5t41.5 -70.5 q-33 -30 -70.5 -49t-74.5 -31t-70.5 -17t-59.5 -5q-70 0 -123.5 8t-101.5 17.5t-99 18t-116 8.5q-27 0 -57 -3t-60 -9t-58 -15t-51 -19l-95 140q44 31 85.5 71t75.5 86t54 98t20 108q0 44 -13 87q-15 42 -36 83h-210z" />
<glyph unicode="&#xa5;" horiz-adv-x="1130" d="M12 1471h234l327 -743l324 743h228l-261 -521h219v-148h-291l-101 -201h392v-148h-408v-453h-216v453h-409v148h391l-101 201h-290v148h219z" />
<glyph unicode="&#xa9;" horiz-adv-x="1648" d="M52 736q0 118 27.5 221t77.5 188t119.5 152.5t155.5 114t185 71t208.5 24.5t209 -24.5t185 -71t155 -114t120 -152.5t77 -189t26.5 -220.5t-27 -219t-77 -188t-120 -153.5t-156 -114t-186 -71.5t-206 -25.5q-108 0 -208 25.5t-186 71.5t-155.5 114t-119.5 153.5 t-77.5 188t-27.5 219.5zM212 734q0 -95 21.5 -180.5t60.5 -158t94.5 -130.5t123.5 -98t147 -62q81 -22 167 -22t164.5 22t146.5 62t123.5 98t94.5 130.5t61.5 158t22.5 180.5q0 148 -47.5 269.5t-130.5 206t-195.5 130t-239.5 45.5q-130 0 -242.5 -45.5t-195.5 -130 t-129.5 -206t-46.5 -269.5zM414 734q0 105 30 187t86 140t134.5 87.5t179.5 29.5q68 0 130 -19t112.5 -57.5t86 -95.5t47.5 -133h-137q-10 40 -31.5 75t-52.5 61t-71 40.5t-89 14.5q-69 0 -119.5 -26t-84.5 -71.5t-50.5 -106.5t-16.5 -129q0 -65 18 -124t51 -104.5 t84.5 -72.5t120.5 -27q53 0 95.5 17.5t73.5 45.5t50 66.5t27 80.5h137q-14 -77 -49.5 -138t-86 -102t-114 -62t-134.5 -21q-97 0 -175 29.5t-133.5 86.5t-87 139.5t-31.5 188.5z" />
<glyph unicode="&#xab;" horiz-adv-x="871" d="M68 592v234q80 56 159 111t159 111v-154q-56 -47 -110 -93t-110 -94l220 -186v-155q-80 56 -159 112q-79 58 -159 114zM482 592v234q80 56 158.5 111t158.5 111v-154q-56 -47 -109.5 -93t-109.5 -94l219 -186v-155q-80 56 -158 112q-79 58 -159 114z" />
<glyph unicode="&#xad;" horiz-adv-x="839" d="M101 591v158h636v-158h-636z" />
<glyph unicode="&#xae;" horiz-adv-x="1648" d="M52 736q0 118 27.5 221t77.5 188t119.5 152.5t155.5 114t185 71t208.5 24.5t209 -24.5t185 -71t155 -114t120 -152.5t77 -189t26.5 -220.5t-27 -219t-77 -188t-120 -153.5t-156 -114t-186 -71.5t-206 -25.5q-108 0 -208 25.5t-186 71.5t-155.5 114t-119.5 153.5 t-77.5 188t-27.5 219.5zM212 734q0 -95 21.5 -180.5t60.5 -158t94.5 -130.5t123.5 -98t147 -62q81 -22 167 -22t164.5 22t146.5 62t123.5 98t94.5 130.5t61.5 158t22.5 180.5q0 148 -47.5 269.5t-130.5 206t-195.5 130t-239.5 45.5q-130 0 -242.5 -45.5t-195.5 -130 t-129.5 -206t-46.5 -269.5zM515 308v861h329q77 0 139.5 -13t108 -43t69.5 -78.5t24 -119.5q0 -54 -19.5 -95.5t-52.5 -69.5t-77 -45q-44 -18 -92 -21l231 -376h-180l-212 370h-105v-370h-163zM678 796h163q32 0 66 6t59.5 21t41.5 40.5t16 65.5q0 36 -17.5 59.5t-46 37 t-61.5 19.5t-66 6h-155v-255z" />
<glyph unicode="&#xbb;" horiz-adv-x="871" d="M71 366v155l221 186q-57 48 -111 94t-110 93v154q80 -56 159 -112q79 -54 159 -110v-234q-80 -56 -159 -113t-159 -113zM485 366v155l219 186q-56 48 -109 94t-110 93v154q80 -56 159 -112q78 -54 158 -110v-234q-80 -56 -158.5 -113t-158.5 -113z" />
<glyph unicode="&#xbc;" horiz-adv-x="1832" d="M80 1185v103q98 3 162 46q63 44 101 119h117v-879h-146v611h-234zM340 -44l851 1533h126l-848 -1533h-129zM1023 184v142l393 538h175v-569h127v-111h-127v-184h-147v184h-421zM1137 295h307v430z" />
<glyph unicode="&#xbd;" horiz-adv-x="1829" d="M80 1185v103q98 3 162 46q63 44 101 119h117v-879h-146v611h-234zM340 -44l851 1533h126l-848 -1533h-129zM1072 0q0 74 23.5 131t63.5 102t91 83.5t109 74.5q41 26 79.5 52t69.5 55.5t49 63t18 73.5q0 31 -10.5 59t-31 49.5t-52.5 34t-75 12.5q-49 0 -83.5 -16t-57 -43 t-32.5 -61q-11 -34 -11 -72v-8v-10h-148q0 80 24.5 140.5t69 102t107.5 63t137 21.5q61 0 117 -17t99 -52.5t69 -87t26 -120.5q0 -57 -19.5 -102.5t-52 -82.5t-75.5 -66.5t-87 -55.5q-30 -18 -67 -40.5t-71 -49t-62 -56t-37 -59.5h462v-118h-642z" />
<glyph unicode="&#xbe;" horiz-adv-x="1829" d="M99 835h147q3 -79 50 -124.5t139 -45.5q43 0 78 12.5t60 33t39 48.5t14 61q0 78 -52.5 121t-153.5 43h-17v93q3 0 8.5 -0.5t10.5 -0.5q89 0 138.5 39t49.5 107q0 30 -12 53.5t-33.5 41.5t-53 27.5t-70.5 9.5q-41 0 -74 -11.5t-55 -32.5t-34.5 -50t-15.5 -61h-142 q6 66 32 117.5t68.5 85.5t99.5 51q59 18 127 18q71 0 127 -17.5t94.5 -50.5t60 -78.5t21.5 -99.5q0 -35 -8.5 -66t-26.5 -56.5t-44 -43t-61 -26.5q35 -9 66 -26.5t53.5 -44.5t34.5 -61t12 -77q0 -71 -28.5 -123.5t-75.5 -85.5t-108.5 -50t-129.5 -17q-77 0 -138.5 19 t-104.5 55.5t-67 89.5q-23 55 -25 123zM518 -44l851 1533h126l-848 -1533h-129zM1057 184v142l393 538h175v-569h127v-111h-127v-184h-146v184h-422zM1169 295h310v430z" />
<glyph unicode="&#xd7;" horiz-adv-x="1160" d="M136 334l338 333q-83 83 -167.5 168.5t-167.5 167.5l111 111l333 -334q84 86 168 169q84 81 170 167l112 -111l-339 -338l338 -335l-111 -110q-86 84 -169 168t-169 166l-334 -334z" />
<glyph unicode="&#xf7;" horiz-adv-x="1169" d="M118 591v158h930v-158h-930zM450 315q0 30 10.5 54.5t28 41.5t41.5 26.5t52 9.5q26 0 50.5 -9.5t42.5 -26.5t28 -42.5t10 -53.5q0 -29 -10 -53.5t-28 -41.5t-41.5 -26.5t-51.5 -9.5q-27 0 -51.5 9.5t-42 26.5t-28 41.5t-10.5 53.5zM450 1015q0 30 10.5 53.5t28 41.5 t41.5 27.5t52 9.5q26 0 50.5 -9.5t42.5 -27.5t28 -41.5t10 -53t-10 -54t-28 -41.5t-41.5 -26.5t-51.5 -9.5q-27 0 -51.5 9.5t-42 27t-28 41.5t-10.5 53z" />
<glyph unicode="&#xe01;" horiz-adv-x="1302" d="M89 827v179q9 3 25 9t35.5 15t41.5 21t46 26q59 39 111.5 67t105 46t106 26t110.5 8q125 0 213 -27.5t142.5 -75t80.5 -111t26 -132.5v-878h-191v861q0 57 -19 97.5t-54.5 67t-86 39t-114.5 12.5q-68 0 -123.5 -16t-103.5 -39.5t-91.5 -49.5t-90.5 -44l149 -16v-912h-191 v811z" />
<glyph unicode="&#xe02;" horiz-adv-x="1175" d="M43 974q0 53 19 98t54.5 78t85.5 51.5t110 18.5q92 0 159.5 -27t112 -73t65.5 -106.5t21 -129.5q0 -46 -6.5 -87.5t-22.5 -78.5t-41.5 -71t-60.5 -67q-42 -37 -70 -68.5t-43.5 -63t-21.5 -62.5t-6 -66v-173h415v1065h190v-1212h-796v293q0 61 9 110.5t32.5 95.5t68 93 t115.5 105q42 33 62.5 71.5t28 77.5t3 74.5t-13.5 65.5q9 -51 -5 -96t-44.5 -78.5t-75 -52.5t-94.5 -19q-47 0 -92.5 16.5t-80 46t-56 72.5t-21.5 99zM192 978q0 -20 6 -38.5t19.5 -33.5t32.5 -24t46 -9t46 9t32.5 24t19.5 33.5t6 37.5q0 21 -6 40t-19.5 33t-32.5 23t-46 9 t-46 -9t-32.5 -23.5t-19.5 -33t-6 -38.5z" />
<glyph unicode="&#xe03;" horiz-adv-x="1312" d="M38 801q0 78 24.5 150.5t66 129t94.5 93.5q55 40 111 48l157 -121l151 121q48 -10 88 -39.5t69.5 -71t45.5 -93.5q16 -50 16 -106q0 -62 -14 -114t-36 -93.5t-51 -76.5t-58.5 -66t-57.5 -60.5t-50.5 -61.5t-36.5 -66.5t-14 -77.5v-149h407v1065h193v-1212h-791v281 q0 59 17 109t44.5 92t63 77.5t69.5 68.5q33 31 61.5 61t49.5 63.5t33 71t12 82.5q0 20 -3 42.5t-11.5 43t-19.5 38.5t-29 33q-38 -27 -75 -55l-74 -56l-161 115q-15 -6 -30 -18.5t-27 -28t-21.5 -32.5t-13.5 -35h9q50 0 91.5 -13.5t72 -38.5t47.5 -60.5t17 -79.5 q0 -43 -17 -81t-46 -65t-69 -43t-86 -16q-49 0 -89 16.5t-68.5 47.5t-44.5 77t-16 104zM167 761q0 -18 5.5 -33.5t17 -28t28.5 -20t40 -7.5q22 0 39 7.5t28 20.5t17 28.5t6 32.5t-5.5 33t-17 28.5t-29.5 20t-40 7.5t-38.5 -7.5t-28 -20t-17 -29t-5.5 -32.5z" />
<glyph unicode="&#xe04;" horiz-adv-x="1326" d="M102 778q0 101 36.5 182.5t105 139t168.5 89t227 31.5q119 0 213.5 -28.5t162.5 -78.5t104.5 -122.5t36.5 -161.5v-829h-191v805q0 58 -19.5 107.5t-58.5 86.5t-100.5 58.5t-145.5 21.5q-90 0 -155.5 -23t-107.5 -63t-62 -93t-20 -114q0 -62 7.5 -125t18 -124.5 t23 -121.5t21.5 -113q3 38 8.5 88.5t12.5 101t14 96t13 77.5q24 113 82.5 167.5t157.5 54.5q40 0 78 -13.5t67.5 -39.5t47 -64.5t17.5 -87.5q0 -44 -14.5 -82.5t-43 -66.5t-67.5 -44q-37 -15 -85 -15q-24 0 -44 3q-21 3 -33 8q-18 6 -29 15q-6 -20 -13 -56t-15 -78.5 t-15.5 -91.5t-15 -97t-13 -93.5t-8.5 -83.5h-246q0 59 -9 122.5t-22 129t-28.5 132t-29 133t-22.5 131.5t-9 130zM556 682q0 -17 5.5 -34.5t16.5 -31.5t30.5 -22t43 -8t40.5 8t29 21.5t18.5 30.5t6.5 35t-6 35.5t-18 31t-29.5 21.5t-42.5 8q-24 0 -41 -8t-29 -21.5t-18 -31 t-6 -34.5z" />
<glyph unicode="&#xe05;" horiz-adv-x="1334" d="M102 761q0 77 21.5 152.5t63.5 138t106.5 108t153.5 61.5l189 -126l209 127q74 -16 132.5 -47.5t100.5 -77.5t64.5 -105.5t22.5 -131.5v-860h-191v827q0 39 -9 75t-26 66t-44.5 52t-65.5 35l-190 -118l-186 120q-42 -18 -71.5 -47.5t-48.5 -66.5t-28 -83t-9 -96 q0 -62 7.5 -121.5t18 -118.5t22 -114.5t20.5 -107.5q3 38 9.5 85.5t13.5 95.5t14 92t13 75q24 114 82.5 168t157.5 54q40 0 78 -13.5t67.5 -39.5t47 -64.5t17.5 -87.5q0 -44 -14.5 -82.5t-43 -66.5t-67.5 -44q-37 -15 -85 -15q-24 0 -44 3q-21 3 -33 9q-18 6 -29 14 q-6 -20 -13 -54t-15 -75.5t-15.5 -89t-15 -93.5t-13 -90.5t-8.5 -82.5h-246q0 90 -19 184t-41.5 190.5t-41 192.5t-18.5 194zM556 667q0 -17 5.5 -34t16.5 -31t30.5 -22.5t43 -8.5t40.5 8.5t29 21.5t18.5 30t6.5 35t-6 35.5t-18 31t-29.5 21.5t-42.5 8q-24 0 -41 -8 t-29 -21.5t-18 -31t-6 -34.5z" />
<glyph unicode="&#xe06;" horiz-adv-x="1463" d="M59 805q0 79 25.5 150.5t65 128.5t93 95t109.5 46l154 -121q39 30 77.5 61t78.5 60q45 -11 85 -38.5t70.5 -68.5t47.5 -92.5t17 -110.5q0 -63 -12 -112.5t-32.5 -91t-48.5 -76t-61 -67.5v-158l373 -235v1037h193v-1212h-222q-88 58 -173.5 115t-173.5 116q-1 -50 -18 -94 t-49.5 -77t-80 -52.5t-106.5 -19.5q-57 0 -105.5 18t-83.5 50.5t-55 78.5t-20 102q0 62 25.5 106.5t63.5 72.5t84 43t88 15q32 0 69 -9v136q46 34 81.5 67.5t59.5 70.5t35.5 78t11.5 93q0 21 -4.5 42.5t-12.5 42t-20.5 39t-28.5 32.5q-39 -27 -76.5 -55t-77.5 -55l-159 116 q-14 -6 -27.5 -19.5t-25.5 -28.5t-21 -32.5t-13 -35.5h10q48 5 88.5 -8t71 -39.5t48 -63.5t17.5 -81q0 -43 -16 -81t-45.5 -64.5t-69 -43t-85.5 -16.5q-49 0 -89.5 16.5t-68.5 47.5t-44.5 77t-16.5 105zM189 763.5q0 -17.5 6 -32.5t17 -28t28.5 -20.5t39.5 -7.5t39 7.5 t28 20.5t17 29.5t6 31.5q0 17 -6 33.5t-17 28.5t-28 19t-41 7q-22 0 -39 -7t-27.5 -19t-16.5 -28.5t-6 -34zM358 237q0 -19 6 -39t19.5 -35t32.5 -24t45.5 -9t46 9t33 24t18.5 33q6 17 6 38q0 19 -5.5 37.5t-19 33.5t-33 23.5t-46 8.5t-45 -8.5t-32 -22.5t-20 -32.5 t-6.5 -36.5z" />
<glyph unicode="&#xe07;" horiz-adv-x="1099" d="M-6 932l158 157q12 -26 30.5 -69t42.5 -104t51 -138q27 -79 56 -174q20 -68 38 -137t32 -130.5t24.5 -110t14.5 -79.5h296v596q-21 -6 -42.5 -10.5t-43.5 -4.5q-44 0 -88.5 15t-81.5 44.5t-59 74t-22 104.5t19 106.5t54.5 79t84.5 50.5t108 18q68 0 117 -22.5t81.5 -59.5 t48.5 -88q16 -50 16 -109v-941h-642q-6 36 -17.5 96.5t-29.5 133t-38.5 151t-43.5 149.5q-17 56 -40 115t-45.5 112.5t-43 99.5t-35.5 75zM551 968q0 -19 7 -37.5t20.5 -32.5t32 -23t45.5 -9q26 0 45.5 9t32 23t20 32.5t7.5 37.5q0 21 -7 39.5t-19.5 33t-32.5 24t-46.5 9.5 t-45.5 -9.5t-32 -25t-20 -34t-7 -37.5z" />
<glyph unicode="&#xe08;" horiz-adv-x="1185" d="M34 870q6 86 51 151t116 109.5t163 67t194 22.5q107 0 198 -24.5t157.5 -75.5t105 -128t38.5 -185q0 -63 -12 -128.5t-29.5 -132t-38.5 -135.5t-39.5 -138t-30.5 -137t-12 -136h-279q-3 25 -9 60t-13.5 74t-15 80.5t-16 80t-16 72t-13.5 56.5q-3 -1 -12 -5.5t-22.5 -9.5 t-31 -9t-38.5 -4q-44 0 -83.5 15.5t-69.5 43.5t-48 68t-18 91q0 50 18 89t49 67.5t71 44t87 15.5q204 0 243 -207q26 -147 44 -244t27 -159q1 40 11 83.5t23 91t27 98t27 100.5t20 99t7 96q0 68 -20.5 123t-60.5 92.5t-99 57.5t-136 20q-61 0 -116.5 -13t-100 -40 t-72.5 -66.5t-34 -90.5h-191zM337 616q0 -20 6 -38.5t18 -33t30.5 -23.5t45.5 -9q25 0 44 9t31 22t18 31t6 39q0 17 -6 35t-18 33t-31 23.5t-43 8.5q-25 0 -44.5 -8.5t-32 -22t-18.5 -31.5t-6 -35z" />
<glyph unicode="&#xe09;" horiz-adv-x="1410" d="M64 553.5q0 56.5 18.5 102.5t52.5 78.5t82 48.5q49 16 106 16q65 0 112 -20.5t78.5 -56t47.5 -84.5t16 -107v-365l364 266v351q0 68 -16 123t-54.5 93t-102.5 59t-155 21q-76 0 -134.5 -15.5t-100.5 -42t-66.5 -64.5t-28.5 -82h-200q9 80 53.5 144t114 108.5t163.5 68.5 t203 24q132 0 229 -27t161.5 -77t95.5 -123.5t31 -166.5v-346q44 0 90 -15t83.5 -46t62 -77t24.5 -105q0 -58 -20 -104t-54.5 -77.5t-82 -48.5t-104 -17t-102 18.5t-77.5 48t-49 69.5t-18 84l-277 -210h-225v337q-39 -14 -80 -14q-43 0 -86.5 14.5t-77.5 44t-55.5 72.5 t-21.5 99.5zM212 556q0 -17 6.5 -35t19 -32t32 -22t44.5 -8t43.5 8t31 22t19 32t6.5 35q0 20 -5.5 38.5t-19 33t-32.5 23.5q-17 9 -43 9q-27 0 -46 -9t-31 -23.5t-19 -33.5q-6 -20 -6 -38zM1036 237q0 -21 6 -39.5t19 -33.5t32.5 -24.5t46 -9.5t46 9.5t32.5 24.5t19 34.5 t6 38.5t-6 37.5t-19 32.5t-33 23t-45 9q-27 0 -46.5 -9t-32.5 -23t-19 -32.5t-6 -37.5z" />
<glyph unicode="&#xe0a;" horiz-adv-x="1179" d="M43 974q0 53 19 98t54.5 78t85.5 51.5t110 18.5q77 0 136.5 -19.5t103 -53t70.5 -78.5q28 -48 40 -101l245 388h233l-264 -382q133 -59 133 -243v-731h-802v293q0 61 9 110.5t32.5 95.5t68 93t115.5 105q42 33 62.5 71.5t28 77.5t3 74.5t-13.5 65.5q9 -51 -5 -96 t-44.5 -78.5t-75 -52.5t-94.5 -19q-47 0 -92.5 16.5t-80 46t-56 72.5t-21.5 99zM192 978q0 -20 6 -38.5t19.5 -33.5t32.5 -24t46 -9t46 9t32.5 24t19.5 33.5t6 37.5q0 21 -6 40t-19.5 33t-32.5 23t-46 9t-46 -9t-32.5 -23.5t-19.5 -33t-6 -38.5zM398 147h419v581q0 39 -9 72 t-28 60.5t-47 47.5q-29 21 -67 30q1 -13 2.5 -27t1.5 -27q0 -46 -6.5 -87.5t-22.5 -78.5t-41.5 -71t-60.5 -67q-42 -37 -70 -68.5t-43.5 -63t-21.5 -62.5t-6 -66v-173z" />
<glyph unicode="&#xe0b;" horiz-adv-x="1327" d="M38 801q0 78 24.5 150.5t66 129t94.5 93.5q55 40 111 48l157 -121l151 121q36 -8 67 -26t57 -44.5t46 -59t32 -71.5l211 335h233l-264 -382q133 -59 133 -243v-731h-805v281q0 59 17 109t44.5 92t63 77.5t69.5 68.5q33 31 61.5 61t49.5 63.5t33 71t12 82.5q0 20 -3 42.5 t-11.5 43t-19.5 38.5t-29 33q-38 -27 -75 -55l-74 -56l-161 115q-15 -6 -30 -18.5t-27 -28t-21.5 -32.5t-13.5 -35h9q50 0 91.5 -13.5t72 -38.5t47.5 -60.5t17 -79.5q0 -43 -17 -81t-46 -65t-69 -43t-86 -16q-49 0 -89 16.5t-68.5 47.5t-44.5 77t-16 104zM167 761 q0 -18 5.5 -33.5t17 -28t28.5 -20t40 -7.5q22 0 39 7.5t28 20.5t17 28.5t6 32.5t-5.5 33t-17 28.5t-29.5 20t-40 7.5t-38.5 -7.5t-28 -20t-17 -29t-5.5 -32.5zM543 147h422v581q0 65 -25 115.5t-79 77.5v-9q0 -62 -14 -114t-36 -93.5t-51 -76.5t-58.5 -66t-57.5 -60.5 t-50.5 -61.5t-36.5 -66.5t-14 -77.5v-149z" />
<glyph unicode="&#xe0c;" horiz-adv-x="1854" d="M74 827v179q9 3 23.5 9t34.5 15t43 21t44 26q59 39 112.5 67t106 46t105.5 26t111 8q124 0 213 -27.5t146 -75t83.5 -111t26.5 -132.5v-437q48 -12 97.5 -40t99 -64.5t93.5 -76.5q43 -41 79 -76v1028h192v-1212h-223q-19 27 -46 55t-55.5 54.5t-57.5 50.5t-54 40 q-3 -42 -18.5 -81t-46 -68t-74 -46t-100.5 -17q-53 0 -99 15t-78.5 44.5t-51.5 73t-19 100.5q0 44 13 80t36 65t54 49t68 29v417q0 57 -20.5 97.5t-57.5 67t-89 39t-114 12.5q-68 0 -123.5 -16t-103.5 -39.5t-92.5 -49.5t-90.5 -44l150 -16v-469q17 5 36 8q17 2 38 2 q47 0 89 -15.5t74 -44.5t51.5 -72t19.5 -96q0 -56 -19.5 -100.5t-52 -74t-78.5 -46t-99 -16.5q-65 0 -112.5 21t-78 55.5t-46 82t-15.5 100.5v564q-26 3 -58.5 7.5t-65.5 8.5zM349 222q0 -21 7.5 -40t21 -34t32.5 -23t44 -8q24 0 44 8t33.5 23t20.5 34t7 40t-7 40 t-20.5 32.5t-33.5 22.5t-44 9q-23 0 -43 -9t-33.5 -22.5t-21 -32.5t-7.5 -40zM900 222q0 -21 7.5 -40t20.5 -34t32.5 -23t44.5 -8t44.5 8t32.5 23t20.5 34t7.5 40t-7.5 40t-20.5 32.5t-33 22.5t-44 9t-44 -9t-33 -22.5t-20.5 -32.5t-7.5 -40z" />
<glyph unicode="&#xe0d;" horiz-adv-x="1850" d="M75 827v179q9 3 24.5 9t35 15t41.5 21t46 26q59 39 111.5 67t105 46t106 26t111.5 8q124 0 213 -27.5t146 -75t83.5 -111t26.5 -132.5v-731h364v1065h191v-1212h-748v861q0 57 -20 97.5t-56 67t-88 39t-114 12.5q-68 0 -122.5 -16t-102 -39.5t-92.5 -49t-94 -44.5 l149 -16v-450q21 7 44 11t46 4q49 0 94.5 -16.5t79.5 -47t54 -74.5q21 -43 21 -99q0 -59 -19 -105t-54 -78.5t-83 -49t-107 -16.5q-64 0 -113.5 19.5t-83.5 56.5t-52 90t-18 118v536q-26 3 -59.5 7.5t-66.5 8.5zM370 237q0 -21 6 -38.5t19 -32.5t32.5 -24.5t46 -9.5t46 9.5 t32.5 24.5t20 34t7 37q0 19 -7 37.5t-20 33.5t-33 23.5t-45 8.5q-27 0 -46.5 -8.5t-32 -23.5t-19 -32.5t-6.5 -38.5zM906 -269q0 43 15.5 76t41.5 57t61.5 36.5t76.5 12.5q43 0 78 -12.5t59 -35t37.5 -55t13.5 -70.5q0 -9 -1.5 -21t-3.5 -24t-7.5 -23t-11.5 -20 q52 3 99.5 24t87.5 52.5t69 72.5t45 87q29 -27 59 -53.5t58 -53.5q-33 -53 -81 -100.5t-110 -81.5t-134.5 -55t-154.5 -21q-148 0 -222.5 55t-74.5 153zM1021 -272q0 -36 22.5 -58t57.5 -22q36 0 57.5 22t21.5 58q0 35 -21.5 57.5t-57.5 22.5q-35 0 -57.5 -22.5t-22.5 -57.5 z" />
<glyph unicode="&#xe0e;" horiz-adv-x="1428" d="M38 231q0 56 20 99t53.5 72.5t76.5 44.5t87 15q30 0 50.5 -4.5t44.5 -13.5v364l-163 19v179q9 3 26 9t38.5 15t45 21t44.5 26q59 39 112.5 67t106 46t106 26t110.5 8q125 0 212 -27.5t143.5 -75t81.5 -111t25 -132.5v-1325h-240q-34 40 -75.5 80.5t-88.5 77.5 q-47 -77 -120.5 -120.5t-177.5 -43.5q-56 0 -103 15t-81.5 40t-53.5 60.5t-19 77.5t19 80t54.5 64.5t88.5 43t119 16.5q48 0 95 -9.5t92 -26.5q6 21 8.5 44.5t5.5 47.5h165q-6 -43 -14 -83.5t-20 -79.5q44 -29 82.5 -62.5t71.5 -69.5v1156q0 57 -19.5 97.5t-55 67t-86 39 t-112.5 12.5q-68 0 -122.5 -16t-103.5 -39.5t-93.5 -49.5t-90.5 -44l178 -18v-595q0 -63 -12.5 -121t-43.5 -102.5t-84.5 -71t-136.5 -26.5q-53 0 -98 15.5t-78 46t-51.5 75t-18.5 100.5zM178 228q0 -21 7 -40t20.5 -34t33 -24t42.5 -9q25 0 45 9t33.5 24t20.5 33q6 20 6 41 t-6.5 39.5t-20 32.5t-34 22t-44.5 8q-23 0 -42.5 -8t-33 -22t-20.5 -32.5t-7 -39.5zM456 -258q0 -31 26.5 -52.5t76.5 -21.5q57 0 97 32q43 31 69 87q-37 16 -74.5 25t-79.5 9q-56 0 -85.5 -22t-29.5 -57z" />
<glyph unicode="&#xe0f;" horiz-adv-x="1428" d="M38 231q0 56 20 99t53.5 72.5t76.5 44.5t87 15q30 0 50.5 -4.5t44.5 -13.5v364l-163 19v179q9 3 26 9t38.5 15t45 21t44.5 26q59 39 112.5 67t106 46t106 26t110.5 8q125 0 212 -27.5t143.5 -75t81.5 -111t25 -132.5v-1325h-133h-132l-108 139l-104 -140h-118 q-27 57 -59 102q-49 -54 -111 -82q-61 -29 -138 -29q-59 0 -105 14.5t-77 40.5t-48 61.5t-17 77.5q0 44 17 81t51 63.5t83 41.5t114 15q52 0 100 -16.5t91 -42.5q10 28 17.5 58t11.5 63h165q-12 -62 -30.5 -118.5t-42.5 -106.5q12 -15 23 -31t20 -31l110 151h91l137 -169 v1166q0 57 -19.5 97.5t-55 67t-86 39t-112.5 12.5q-68 0 -122.5 -16t-103.5 -39.5t-93.5 -49.5t-90.5 -44l178 -18v-595q0 -63 -12.5 -121t-43.5 -102.5t-84.5 -71t-136.5 -26.5q-53 0 -98 15.5t-78 46t-51.5 75t-18.5 100.5zM178 228q0 -21 7 -40t20.5 -34t33 -24t42.5 -9 q25 0 45 9t33.5 24t20.5 33q6 20 6 41t-6.5 39.5t-20 32.5t-34 22t-44.5 8q-23 0 -42.5 -8t-33 -22t-20.5 -32.5t-7 -39.5zM268 -260q0 -32 26 -52t70 -20q40 0 76.5 24t65.5 65q-32 27 -66 41t-67 14q-50 0 -77.5 -20t-27.5 -52z" />
<glyph unicode="&#xe10;" horiz-adv-x="1101" d="M33 -465q0 40 13 70.5t36 51t53 31.5q28 10 60 10q36 0 68 -10.5t49 -24.5q0 5 1 15.5t1.5 21t1.5 21t1 16.5v17h130q-2 -35 -7 -75t-17 -80q18 -18 36 -35t29 -32q15 -17 29 -32h152v120q-34 -5 -64.5 7t-52.5 33.5t-35.5 51t-13.5 60.5q0 36 12.5 65.5t35.5 51t54 34 t70 12.5q47 0 81 -15t56.5 -42t32.5 -65t10 -85v-342h-396l-85 105q-26 -53 -71 -81.5t-105 -28.5q-32 0 -61.5 10.5t-53.5 30t-37 49t-13 64.5zM62 740q0 123 30.5 214t83.5 150t126.5 88.5t162.5 29.5q54 0 100 -5.5t88.5 -11.5l85 -12t93.5 -6q47 0 85.5 11t69.5 26v-155 q-22 -12 -63.5 -23t-94.5 -11q-39 0 -82.5 5.5t-88 12.5t-89 13t-85.5 6q-56 0 -96 -16.5t-66 -43t-38 -60.5t-15 -70q24 10 56 20t67.5 16t73 10t73.5 4q103 0 183 -24t136.5 -68t86 -104.5t29.5 -134.5q0 -40 -10.5 -89.5t-25 -103t-32.5 -109.5t-36 -109.5t-33 -102.5 q-14 -49 -23 -87h-256q-4 36 -11.5 73.5t-15 72.5t-16.5 66q-9 34 -18 57l-7 -4q-8 -5 -22.5 -10.5t-35.5 -10t-47 -4.5q-42 0 -80.5 14.5t-68 42t-45.5 66t-16 86t16 86.5t45.5 66t69.5 41q40 15 85 15q180 0 225 -169q9 -29 20 -72t22 -90.5t20 -92t12 -76.5q3 22 10 54.5 t18.5 70.5t22.5 80t21.5 83.5t16 81.5t5.5 74q0 40 -14.5 75.5t-46.5 62t-81.5 42t-117.5 15.5q-67 0 -131 -14.5t-124 -41.5h-207zM133 -461.5q0 -26.5 19 -43.5q17 -17 43.5 -17t44.5 17t18 43.5t-18 44t-44.5 17.5t-44.5 -17.5t-18 -44zM296 451q0 -17 6 -34t18 -30.5 t29.5 -22.5t41.5 -9q23 0 41 7.5t30 21t17.5 30.5t5.5 34.5t-5.5 34.5t-17.5 30.5t-30 21.5t-40 8q-23 0 -41 -8t-30.5 -20.5t-18.5 -29t-6 -34.5zM610 -228q0 -27 17.5 -43t42.5 -16q27 0 44 17q17 15 17 42t-17 44t-43.5 17t-43.5 -17t-17 -44z" />
<glyph unicode="&#xe11;" horiz-adv-x="1549" d="M40 796q0 77 23 148t63 128t91 96q52 40 109 54l133 -108l139 108q50 -16 91.5 -47t69 -71.5t42 -89.5t14.5 -99q0 -63 -14 -116t-36 -99t-47 -89t-46 -87t-35.5 -91.5t-14.5 -103.5v-180q112 267 224.5 531t225.5 532h60q68 0 116 -15.5t76.5 -44.5t41.5 -71t13 -95 v-986h-192v980q0 26 -6 41t-21 22l-441 -1043h-290v330q0 58 18 109.5t43 100.5t54.5 93.5t55 89t41.5 88.5t16 89q0 18 -1.5 38.5t-9 41t-20.5 41.5t-34 39l-133 -95l-136 98q-15 -8 -28.5 -20.5t-25 -28.5t-19 -32.5t-12.5 -32.5q57 0 102 -13.5t74.5 -38.5t45 -60.5 t15.5 -80.5q0 -43 -17 -80t-46 -65t-68 -42.5t-86 -14.5q-51 0 -91 16t-68 48.5t-43.5 77t-15.5 100.5zM169 758q0 -18 6 -34.5t17.5 -28t28.5 -20t39 -8.5q23 0 40 8.5t27 21t16 28t6 33.5t-5 32.5t-16 28t-29 21t-41 7.5t-39 -8.5t-27 -21t-17 -28.5t-6 -31z" />
<glyph unicode="&#xe12;" horiz-adv-x="1882" d="M102 761q0 77 21.5 152.5t63.5 138t106.5 108t153.5 61.5l189 -126l209 127q74 -16 132.5 -47.5t100.5 -77.5t64.5 -105.5t22.5 -131.5v-415q47 -13 96 -41t95.5 -65t88 -77t75.5 -78v1028h191v-1212h-222q-19 27 -45 56.5t-54 57.5t-56.5 53t-51.5 43 q-3 -44 -19.5 -85.5t-47.5 -71t-75.5 -47.5t-100.5 -18q-53 0 -99 16.5t-79.5 46t-51.5 73.5q-19 42 -19 98q0 41 13.5 79t37 67t57.5 49q34 18 76 27v383q0 39 -9 75t-26 66t-44.5 52t-65.5 35l-190 -118l-186 120q-42 -18 -71.5 -47.5t-48.5 -66.5t-28 -83t-9 -96 q0 -88 13.5 -173t29.5 -165t31 -152.5t15 -132.5l223 321q-34 1 -66.5 15t-58.5 41t-41.5 64t-15.5 83q0 48 18 86t47.5 64t68 39t78.5 13q47 0 88 -14.5t69 -41.5t44 -64q16 -40 16 -84q0 -24 -7 -54t-22 -58q-13 -29 -37 -69.5t-55 -88t-66.5 -100t-71 -104t-69 -100.5 t-59.5 -89h-246q0 90 -19 184t-41.5 190.5t-41 192.5t-18.5 194zM548 662q0 -18 5.5 -35t17.5 -30.5t30 -21t41.5 -7.5t40.5 7.5t28 21t17 29.5t6 34t-5 34t-16 29.5t-29 22.5t-42 9q-23 0 -41 -9t-30 -21.5t-17.5 -29.5t-5.5 -33zM932 222q0 -21 7.5 -40t21 -34t32.5 -23 t43 -8t44 8t33 23t20 32.5t7 40.5q0 20 -6 39.5t-19.5 33.5t-33.5 23t-45 9q-24 0 -43 -9t-32.5 -22.5t-21 -32.5t-7.5 -40z" />
<glyph unicode="&#xe13;" horiz-adv-x="1968" d="M75 827v179q9 3 24.5 9t35 15t41.5 21t46 26q59 39 111.5 67t105 46t106 26t111.5 8q124 0 213.5 -27.5t146 -75t83 -111t26.5 -132.5v-711l376 284v761h191v-734h7q43 0 88 -15t82 -45t61 -74.5t24 -105.5q0 -59 -19.5 -105.5t-53.5 -78.5t-82 -49t-107.5 -17t-106 18.5 t-77.5 49.5t-47.5 72t-16.5 82v9l-278 -219h-234v861q0 57 -20 97.5t-56 67t-88 39t-114 12.5q-68 0 -122.5 -16t-102 -39.5t-92.5 -49t-94 -44.5l149 -16v-450q21 7 44 11t46 4q49 0 94.5 -16.5t79.5 -47t54 -74.5q21 -43 21 -99q0 -59 -19 -105t-54 -78.5t-83 -49 t-107 -16.5q-64 0 -113.5 19.5t-83.5 56.5t-52 90t-18 118v536q-26 3 -59.5 7.5t-66.5 8.5zM370 237q0 -21 6 -38.5t19 -32.5t32.5 -24.5t46 -9.5t46 9.5t32.5 24.5t20 34t7 37q0 19 -7 37.5t-20 33.5t-33 23.5t-45 8.5q-27 0 -46.5 -8.5t-32 -23.5t-19 -32.5t-6.5 -38.5z M1594 237q0 -21 6.5 -39.5t18.5 -33.5t32 -24.5t47 -9.5q26 0 46 9.5t32.5 24.5t19.5 34.5t7 38.5t-7.5 37.5t-21 32.5t-32.5 23t-44 9q-27 0 -45.5 -9t-32 -23t-20 -32.5t-6.5 -37.5z" />
<glyph unicode="&#xe14;" horiz-adv-x="1326" d="M102 778q0 101 36.5 182.5t105 139t168.5 89t227 31.5q119 0 213.5 -28.5t162.5 -78.5t104.5 -122.5t36.5 -161.5v-829h-191v805q0 58 -19.5 107.5t-58.5 86.5t-100.5 58.5t-145.5 21.5q-90 0 -155.5 -23t-107.5 -63t-62 -93t-20 -114q0 -58 6 -117t16.5 -117.5 t22 -115.5t20.5 -109t16.5 -99t7.5 -87l223 344q-34 2 -66.5 16t-58.5 39t-41.5 62t-15.5 85q0 49 18 86.5t47.5 62.5t67.5 39q36 13 77 13q48 0 88.5 -15t69.5 -41.5t45 -63.5t16 -81q0 -24 -7 -55t-22 -59q-21 -36 -48.5 -82t-57.5 -96t-64 -102.5t-67 -104.5t-64 -100 t-57 -88h-246q0 59 -9 122.5t-22 129t-28.5 132t-29 133t-22.5 131.5t-9 130zM548 684q0 -18 5.5 -34.5t17.5 -29.5t29 -22t41 -9t41 8t28.5 20.5t17.5 30t6 35t-6 34.5t-16 30.5t-28 21t-42 7.5q-23 0 -41 -7.5t-30 -21t-17.5 -29.5t-5.5 -34z" />
<glyph unicode="&#xe15;" horiz-adv-x="1334" d="M102 761q0 77 21.5 152.5t63.5 138t106.5 108t153.5 61.5l189 -126l209 127q74 -16 132.5 -47.5t100.5 -77.5t64.5 -105.5t22.5 -131.5v-860h-191v827q0 39 -9 75t-26 66t-44.5 52t-65.5 35l-190 -118l-186 120q-42 -18 -71.5 -47.5t-48.5 -66.5t-28 -83t-9 -96 q0 -88 13.5 -173t29.5 -165t31 -152.5t15 -132.5l223 321q-34 1 -66.5 15t-58.5 41t-41.5 64t-15.5 83q0 48 18 86t47.5 64t68 39t78.5 13q47 0 88 -14.5t69 -41.5t44 -64q16 -40 16 -84q0 -24 -7 -54t-22 -58q-16 -32 -41.5 -74t-56.5 -89.5t-65.5 -99t-69 -102t-67 -98.5 t-58.5 -88h-246q0 90 -19 184t-41.5 190.5t-41 193.5t-18.5 193zM548 662q0 -18 5.5 -35t17.5 -30.5t30 -21t41.5 -7.5t40.5 7.5t28 21t17 29.5t6 34t-5 34t-16 29.5t-29 22.5t-42 9q-23 0 -41 -9t-30 -21.5t-17.5 -29.5t-5.5 -33z" />
<glyph unicode="&#xe16;" horiz-adv-x="1296" d="M75 827v179q9 3 24.5 9t35 15t41.5 21t46 26q59 39 111.5 67t105 46t106 26t111.5 8q124 0 213.5 -27.5t146 -75t83 -111t26.5 -132.5v-878h-191v861q0 57 -20 97.5t-57 67t-89 39t-114 12.5q-68 0 -122.5 -16t-102 -39.5t-92.5 -49t-94 -44.5l149 -16v-450q21 7 44 11 t46 4q49 0 94.5 -16.5t79.5 -47t54 -74.5q21 -43 21 -99q0 -59 -19 -105t-54 -78.5t-83 -49t-107 -16.5q-64 0 -113.5 19.5t-83.5 56.5t-52 90t-18 118v536q-26 3 -59.5 7.5t-66.5 8.5zM370 237q0 -21 6 -38.5t19 -32.5t32.5 -24.5t46 -9.5t46 9.5t32.5 24.5t20 34t7 37 q0 19 -7 37.5t-20 33.5t-33 23.5t-45 8.5q-27 0 -46.5 -8.5t-32 -23.5t-19 -32.5t-6.5 -38.5z" />
<glyph unicode="&#xe17;" horiz-adv-x="1450" d="M30 966q0 60 19 106.5t54.5 79t84.5 50.5t108 18q68 0 117.5 -22.5t82 -59.5t48.5 -88q15 -50 15 -109v-424v-72v-76v-69q-1 -34 -1 -54q86 239 174 482.5t174 483.5h127q68 0 115.5 -20t77 -54.5t42 -81.5t12.5 -100v-956h-191v956q0 46 -18 67q-17 22 -68 22 l-375 -1045h-261v743q-21 -6 -41.5 -10.5t-44.5 -4.5q-44 0 -88.5 15t-81 44.5t-59 74t-22.5 104.5zM182 968q0 -19 6.5 -37.5t20 -32.5t32.5 -23t46 -9t45.5 9t31 23t20 32.5t7.5 37.5q0 21 -7 39.5t-19.5 33t-31.5 24t-46 9.5t-46.5 -9.5t-32.5 -25t-19.5 -34t-6.5 -37.5z " />
<glyph unicode="&#xe18;" horiz-adv-x="1213" d="M114 737q0 130 32 222.5t88 151t130 85t160 26.5q55 0 102 -5.5t91 -11.5t84 -12t83 -6q47 0 92 12t75 26v-161q-21 -13 -64 -24t-99 -11q-44 0 -88.5 6.5t-86 15.5t-83 15t-82.5 6q-58 0 -103 -16.5t-75 -47.5t-46 -73.5t-19 -92.5q18 15 40 29t56 23t81.5 15t115.5 6 q96 0 166.5 -9t119 -25.5t80 -41t49 -54.5t23.5 -67t6 -82v-636h-858v589h190v-442h477v503q0 37 -15.5 62t-49.5 40.5t-86 22t-123 6.5q-49 0 -91 -4t-74.5 -13t-55 -24t-33.5 -37h-208q0 9 -0.5 17t-0.5 17z" />
<glyph unicode="&#xe19;" horiz-adv-x="1447" d="M30 966q0 60 19 106.5t54.5 79t84.5 50.5t108 18q68 0 117.5 -22.5t82 -59.5t48.5 -88q15 -50 15 -109v-784l421 263v792h192v-734h6q43 0 89 -15t82 -45t60 -74.5t24 -105.5q0 -59 -18.5 -105.5t-53.5 -78.5t-82.5 -49t-106.5 -17t-105 18.5t-77.5 49.5t-48.5 71 q-17 42 -17 83l-320 -210h-237v743q-21 -6 -41.5 -10.5t-44.5 -4.5q-44 0 -88.5 15t-81 44.5t-59 74t-22.5 104.5zM182 968q0 -19 6.5 -37.5t20 -32.5t32.5 -23t46 -9t45.5 9t31 23t20 32.5t7.5 37.5q0 21 -7 39.5t-19.5 33t-31.5 24t-46 9.5t-46.5 -9.5t-32.5 -25 t-19.5 -34t-6.5 -37.5zM1074 237q0 -21 6 -39.5t18.5 -33.5t32.5 -24.5t47 -9.5t46 9.5t32.5 24.5t19.5 34.5t6 38.5t-7 37.5t-20 32.5t-32.5 23t-44.5 9q-27 0 -46 -9t-32.5 -23t-19.5 -32.5t-6 -37.5z" />
<glyph unicode="&#xe1a;" horiz-adv-x="1419" d="M30 966q0 60 19 106.5t54.5 79t84.5 50.5t108 18q68 0 117.5 -22.5t82 -59.5t48.5 -88q15 -50 15 -109v-794h498v1065h192v-1212h-882v743q-21 -6 -41.5 -10.5t-44.5 -4.5q-44 0 -88.5 15t-81 44.5t-59 74t-22.5 104.5zM182 968q0 -19 6.5 -37.5t20 -32.5t32.5 -23t46 -9 t45.5 9t31 23t20 32.5t7.5 37.5q0 21 -7 39.5t-19.5 33t-31.5 24t-46 9.5t-46.5 -9.5t-32.5 -25t-19.5 -34t-6.5 -37.5z" />
<glyph unicode="&#xe1b;" horiz-adv-x="1453" d="M30 966q0 60 19 106.5t54.5 79t84.5 50.5t108 18q68 0 117.5 -22.5t82 -59.5t48.5 -88q15 -50 15 -109v-794h532v1369h191v-1516h-915v743q-21 -6 -41.5 -10.5t-44.5 -4.5q-44 0 -88.5 15t-81 44.5t-59 74t-22.5 104.5zM182 968q0 -19 6.5 -37.5t20 -32.5t32.5 -23t46 -9 t45.5 9t31 23t20 32.5t7.5 37.5q0 21 -7 39.5t-19.5 33t-31.5 24t-46 9.5t-46.5 -9.5t-32.5 -25t-19.5 -34t-6.5 -37.5z" />
<glyph unicode="&#xe1c;" horiz-adv-x="1289" d="M112 805q0 98 22.5 175t64 130t100.5 81.5t133 28.5q53 0 100.5 -18t81 -50.5t52.5 -79t19 -104.5q0 -62 -23 -106.5t-59 -74t-79.5 -43t-85.5 -13.5q-18 0 -37 2.5t-35.5 6.5t-32 11t-25.5 13q1 -67 13.5 -136t27.5 -140t28.5 -145t16.5 -151l269 418l263 -415v1017h193 v-1212h-252l-204 326q-50 -82 -100.5 -163.5t-100.5 -162.5h-237q0 15 -2 39.5t-6 56t-8.5 70t-10.5 80.5q-10 74 -24 147t-28 143.5t-24 138.5t-10 130zM327 971q0 -19 6.5 -37.5t20 -32.5t33 -23t45.5 -9q25 0 44.5 9t32.5 23t20 32.5t7 37.5q0 21 -7 39.5t-19.5 33 t-32.5 24.5q-18 9 -44.5 9t-46.5 -9.5t-33 -24t-19.5 -33t-6.5 -39.5z" />
<glyph unicode="&#xe1d;" horiz-adv-x="1314" d="M112 805q0 98 21 175t61 130t100 81.5t138 28.5q53 0 100.5 -18t81 -50.5t52.5 -79t19 -104.5q0 -62 -23 -106.5t-59 -74t-79.5 -43t-85.5 -13.5q-18 0 -37 2.5t-35.5 7.5t-32 11t-25.5 12q0 -68 13 -136.5t28 -139.5t28.5 -145t16.5 -151q71 107 140.5 213t140.5 212 q69 -106 138 -210.5t140 -211.5v1321h191v-1516h-250q-55 83 -109 166t-107 167q-55 -83 -109 -166.5t-107 -166.5h-237q0 9 -1.5 26.5t-3 43t-4.5 56.5t-9 65q-10 80 -25.5 159t-31 157.5t-27 154t-11.5 143.5zM327 971q0 -19 6.5 -37.5t20 -32.5t33 -23t45.5 -9 q25 0 44.5 9t32.5 23t20 32.5t7 37.5q0 21 -7 39.5t-19.5 33t-32.5 24.5q-18 9 -44.5 9t-46.5 -9.5t-33 -24t-19.5 -33t-6.5 -39.5z" />
<glyph unicode="&#xe1e;" horiz-adv-x="1493" d="M30 966q0 60 19 106.5t54.5 79t84.5 50.5t108 18q68 0 117.5 -22.5t82 -59.5t48.5 -88q15 -50 15 -109v-330v-73t-1.5 -58.5t-2 -50t-1.5 -49.5l288 840l295 -838q-3 47 -4.5 112t-1.5 151v567h192v-1212h-210l-266 768l-270 -768h-210v743q-21 -6 -41.5 -10.5 t-44.5 -4.5q-44 0 -88.5 15t-81 44.5t-59 74t-22.5 104.5zM182 968q0 -19 6.5 -37.5t20 -32.5t32.5 -23t46 -9t45.5 9t31 23t20 32.5t7.5 37.5q0 21 -7 39.5t-19.5 33t-31.5 24t-46 9.5t-46.5 -9.5t-32.5 -25t-19.5 -34t-6.5 -37.5z" />
<glyph unicode="&#xe1f;" horiz-adv-x="1522" d="M30 966q0 60 19 106.5t54.5 79t84.5 50.5t108 18q68 0 117.5 -22.5t82 -59.5t48.5 -88q15 -50 15 -109v-330v-73t-1.5 -58.5t-2 -50t-1.5 -49.5l303 840l309 -838q-3 47 -4.5 112t-1.5 151v871h193v-1516h-210l-282 768l-284 -768h-210v743q-21 -6 -41.5 -10.5 t-44.5 -4.5q-44 0 -88.5 15t-81 44.5t-59 74t-22.5 104.5zM182 968q0 -19 6.5 -37.5t20 -32.5t32.5 -23t46 -9t45.5 9t31 23t20 32.5t7.5 37.5q0 21 -7 39.5t-19.5 33t-31.5 24t-46 9.5t-46.5 -9.5t-32.5 -25t-19.5 -34t-6.5 -37.5z" />
<glyph unicode="&#xe20;" horiz-adv-x="1428" d="M38 231q0 56 20 99t53.5 72.5t76.5 44.5t87 15q30 0 50.5 -4.5t44.5 -13.5v364l-163 19v179q9 3 26 9t38.5 15t45 21t44.5 26q59 39 112.5 67t106 46t106 26t110.5 8q125 0 212 -27.5t143.5 -75t81.5 -111t25 -132.5v-878h-192v861q0 57 -19.5 97.5t-55 67t-86 39 t-112.5 12.5q-68 0 -122.5 -16t-103.5 -39.5t-93.5 -49.5t-90.5 -44l178 -18v-595q0 -63 -12.5 -121t-43.5 -102.5t-84.5 -71t-136.5 -26.5q-53 0 -98 15.5t-78 46t-51.5 75t-18.5 100.5zM178 228q0 -21 7 -40t20.5 -34t33 -24t42.5 -9q25 0 45 9t33.5 24t20.5 33q6 20 6 41 t-6.5 39.5t-20 32.5t-34 22t-44.5 8q-23 0 -42.5 -8t-33 -22t-20.5 -32.5t-7 -39.5z" />
<glyph unicode="&#xe21;" horiz-adv-x="1400" d="M118 966q0 60 19.5 106.5t55 79t84.5 50.5t108 18q68 0 118.5 -21.5t83 -58.5t47 -88.5t14.5 -108.5v-536l391 -232v1037h191v-1212h-215l-370 228q-3 -49 -19 -92.5t-48.5 -76t-81 -52t-111.5 -19.5q-53 0 -100.5 18t-81.5 50.5t-55 78.5t-21 102t22.5 100.5t58 75.5 t80 47.5t89.5 16.5q40 0 80 -12v278q-22 -9 -42 -12q-21 -3 -45 -3q-44 0 -88.5 15.5t-81 46t-59.5 75t-23 101.5zM272 968q0 -19 6 -37.5t19.5 -32.5t32.5 -23t46 -9t46 9t31.5 23t19.5 32.5t7 37.5q0 21 -6 39.5t-19.5 33t-32.5 24t-46 9.5t-46 -9.5t-32.5 -25t-19.5 -34 t-6 -37.5zM278 237q0 -19 6 -39t19.5 -35t32.5 -24t46 -9q26 0 45.5 9t33 24t19.5 33q5 17 5 38q0 19 -5.5 37.5t-19 33.5t-33 23.5t-46 8.5t-45.5 -8.5t-32.5 -22.5t-19.5 -32.5t-6 -36.5z" />
<glyph unicode="&#xe22;" horiz-adv-x="1266" d="M107 873q0 82 23.5 146t64 108.5t98.5 68.5q56 24 127 24q54 0 101 -18t81 -50.5t53.5 -79t19.5 -104.5q0 -62 -21.5 -106.5t-56.5 -74t-79 -43t-92 -13.5q-29 0 -59 6t-44 12q17 -45 52.5 -75t81.5 -50t101 -29t114 -10v-120q-56 -6 -106.5 -34t-89 -71t-61.5 -98 q-21 -55 -24 -115h513v1065h191v-1212h-926v12v12q0 75 13 145.5t42 132t73 111.5q43 49 103 84v3q-57 12 -110 41.5t-93 77.5t-65 112.5t-25 141.5zM317 972q0 -19 6.5 -36.5t19 -32.5t32 -24t45.5 -9q25 0 44.5 9t32 23t20 32t7.5 37t-6.5 37.5t-19.5 33.5t-32 24.5 t-46 9.5q-26 0 -45.5 -9t-32 -23t-19 -33t-6.5 -39z" />
<glyph unicode="&#xe23;" horiz-adv-x="1071" d="M58.5 697.5q0.5 15.5 0.5 30.5q0 135 33.5 229t92 153t137 85.5t165.5 26.5q50 0 93 -5.5t81 -13t73.5 -13.5t70.5 -6q42 0 76 11q34 13 60 30v-165q-20 -17 -54.5 -25.5t-71.5 -8.5t-74 7t-74 15.5t-75 16t-78 7.5q-107 0 -168 -50q-62 -51 -72 -140h627l2 -604 q0 -59 -16.5 -111t-49.5 -90.5t-84 -60.5t-123 -22q-59 0 -107.5 16.5t-84 49t-55 78.5t-19.5 105t21.5 102.5t56.5 74t79 45.5t92 15q23 0 49 -3t48 -12v281h-364q-38 0 -64.5 -19.5t-34.5 -59.5h-188q-1 15 -0.5 30.5zM517 241q0 -19 6.5 -38t19.5 -34t32.5 -24t46.5 -9 q26 0 45.5 9t32 24t19 32.5t6.5 38.5q0 19 -6 37.5t-19 33.5t-32.5 23.5t-46 8.5t-46 -8.5t-32.5 -23.5t-19.5 -33t-6.5 -37z" />
<glyph unicode="&#xe24;" horiz-adv-x="1296" d="M75 827v179q9 3 24.5 9t35 15t41.5 21t46 26q59 39 111.5 67t105 46t106 26t111.5 8q124 0 213.5 -27.5t146 -75t83 -111t26.5 -132.5v-1284h-191v1267q0 57 -20 97.5t-57 67t-89 39t-114 12.5q-68 0 -122.5 -16t-102 -39.5t-92.5 -49t-94 -44.5l149 -16v-450q21 7 44 11 t46 4q49 0 94.5 -16.5t79.5 -47t54 -74.5q21 -43 21 -99q0 -59 -19 -105t-54 -78.5t-83 -49t-107 -16.5q-64 0 -113.5 19.5t-83.5 56.5t-52 90t-18 118v536q-26 3 -59.5 7.5t-66.5 8.5zM370 237q0 -21 6 -38.5t19 -32.5t32.5 -24.5t46 -9.5t46 9.5t32.5 24.5t20 34t7 37 q0 19 -7 37.5t-20 33.5t-33 23.5t-45 8.5q-27 0 -46.5 -8.5t-32 -23.5t-19 -32.5t-6.5 -38.5z" />
<glyph unicode="&#xe25;" horiz-adv-x="1349" d="M65 864q16 83 61.5 149t117 113.5t168 73t213.5 25.5q139 0 244.5 -32.5t177.5 -94.5t107.5 -152.5t35.5 -206.5q0 -43 -4.5 -97t-10.5 -115t-13.5 -125.5t-14.5 -128.5t-11.5 -125.5t-4.5 -116.5v-15.5t1 -15.5h-208q-18 164 -45 293.5t-66 220.5t-91 139.5t-118 48.5 q-48 0 -85.5 -21t-65 -55.5t-43.5 -80t-21 -92.5q15 9 39.5 13.5t45.5 4.5q50 0 95 -15t78.5 -45.5t54 -74t20.5 -102.5t-20 -103.5t-54.5 -75.5t-82 -47.5t-103.5 -16.5q-62 0 -112.5 22.5t-87.5 63.5t-56.5 100.5t-19.5 136.5q0 112 25.5 212t78.5 174t134 116 q79 42 189 42q77 0 139 -28.5t108 -81t77 -123.5t46 -157l1 13q2 13 3.5 35.5t3.5 50.5t3.5 57.5t2.5 59t1 56.5q0 81 -23 144t-70.5 107.5t-118.5 66.5t-167 22q-77 0 -139.5 -16t-106.5 -45.5t-73 -69.5q-28 -40 -40 -85h-195zM361 234q0 -21 6 -40t19.5 -34t32.5 -24 t45.5 -9t46 9t32.5 24t19 34t6 40q0 19 -6 37t-19 32t-33 22.5t-45 8.5q-27 0 -46 -8.5t-32.5 -22.5t-19.5 -32.5t-6 -36.5z" />
<glyph unicode="&#xe26;" horiz-adv-x="1428" d="M38 231q0 56 20 99t53.5 72.5t76.5 44.5t87 15q30 0 50.5 -4.5t44.5 -13.5v364l-163 19v179q9 3 26 9t38.5 15t45 21t44.5 26q59 39 112.5 67t106 46t106 26t110.5 8q125 0 212 -27.5t143.5 -75t81.5 -111t25 -132.5v-1284h-192v1267q0 57 -19.5 97.5t-55 67t-86 39 t-112.5 12.5q-68 0 -122.5 -16t-103.5 -39.5t-93.5 -49.5t-90.5 -44l178 -18v-595q0 -63 -12.5 -121t-43.5 -102.5t-84.5 -71t-136.5 -26.5q-53 0 -98 15.5t-78 46t-51.5 75t-18.5 100.5zM178 228q0 -21 7 -40t20.5 -34t33 -24t42.5 -9q25 0 45 9t33.5 24t20.5 33q6 20 6 41 t-6.5 39.5t-20 32.5t-34 22t-44.5 8q-23 0 -42.5 -8t-33 -22t-20.5 -32.5t-7 -39.5z" />
<glyph unicode="&#xe27;" horiz-adv-x="1081" d="M-16 814q3 44 14 91.5t33 92t56 83.5t85 69.5t120 48.5t159 21q131 0 219 -30t141 -81.5t77 -121t24 -149.5v-560q0 -59 -15 -111t-47.5 -90.5t-83 -60.5t-119.5 -22q-59 0 -108 16.5t-84 49t-55 78.5t-20 105t21.5 102.5t56.5 74t80 45.5t90 15q23 0 46 -3t45 -12v364 q0 53 -14 98t-45.5 78.5t-83.5 51t-129 17.5q-73 0 -122.5 -20.5t-82 -57.5t-48.5 -84.5t-19 -97.5h-191zM533 241q0 -19 6.5 -38t19 -34t32.5 -24q19 -9 45 -9q27 0 46.5 9t32.5 24t19.5 32.5t6.5 38.5q0 19 -6.5 37.5t-19 33.5t-32.5 23.5t-46.5 8.5t-45 -8.5t-32 -23.5 t-20 -33t-6.5 -37z" />
<glyph unicode="&#xe28;" horiz-adv-x="1323" d="M110 784q0 95 30 175t94.5 137.5t168 90.5t248.5 33q53 0 105 -7.5t94 -19.5l115 164h237l-190 -238q68 -50 104.5 -120t36.5 -161v-838h-191v805q0 59 -18 108.5t-56 86t-99 58t-149.5 21.5t-152.5 -24.5t-104.5 -63t-59.5 -89.5q-20 -52 -20 -106q0 -66 7.5 -132 t18 -129.5t20 -123t15.5 -109.5q3 38 9.5 88.5t13.5 101t14 96t13 77.5q24 113 82.5 167.5t157.5 54.5q40 0 78 -13.5t67.5 -39.5t47 -64.5t17.5 -87.5q0 -44 -14.5 -82.5t-43 -66.5t-67.5 -44q-37 -15 -85 -15q-24 0 -44 3q-21 3 -33 8q-18 6 -29 15q-6 -20 -13 -56 t-15 -78.5t-15.5 -91.5t-15 -97t-13 -93.5t-8.5 -83.5h-250v6q0 3 0.5 8t0.5 11q0 62 -9 126.5t-20.5 128t-25 127.5t-25.5 127.5t-20.5 126.5t-8.5 123zM556 682q0 -17 5.5 -34.5t16.5 -31.5t30.5 -22t43 -8t40.5 8t29 21.5t18.5 30.5t6.5 35t-6 35.5t-18 31t-29.5 21.5 t-42.5 8q-24 0 -41 -8t-29 -21.5t-18 -31t-6 -34.5z" />
<glyph unicode="&#xe29;" horiz-adv-x="1454" d="M30 966q0 60 19 106.5t54.5 79t84.5 50.5t108 18q68 0 117.5 -22.5t82 -59.5t48.5 -88q15 -50 15 -109v-794h533v341q-62 -8 -124 -8q-89 0 -150.5 17.5t-100.5 47t-57 69.5t-18 86q0 39 13.5 70t38.5 54t59 34.5t75.5 11.5t74 -13t55 -35.5t34 -52t11.5 -62.5 q0 -29 -5.5 -53t-20.5 -41q12 -2 26.5 -1t30 1.5t30.5 2.5q16 3 28 7v589h191v-522q42 22 76 50q32 27 59 59v-177q-56 -49 -135 -82v-540h-916v743q-21 -6 -41.5 -10.5t-44.5 -4.5q-44 0 -88.5 15t-81 44.5t-59 74t-22.5 104.5zM182 968q0 -19 6.5 -37.5t20 -32.5t32.5 -23 t46 -9t45.5 9t31 23t20 32.5t7.5 37.5q0 21 -7 39.5t-19.5 33t-31.5 24t-46 9.5t-46.5 -9.5t-32.5 -25t-19.5 -34t-6.5 -37.5zM755 702q0 -15 5 -28.5t14.5 -22.5t23 -15t30 -6t29.5 6t22 15t14 22.5t5 28.5q0 29 -18.5 50t-52.5 21q-32 0 -52 -21t-20 -50z" />
<glyph unicode="&#xe2a;" horiz-adv-x="1349" d="M65 864q16 83 61.5 149t117 113.5t168 73t213.5 25.5q133 0 236 -32l114 164h239l-191 -238q167 -124 167 -379q0 -43 -4.5 -97t-10.5 -114.5t-13.5 -126t-14.5 -129.5t-11.5 -125.5t-4.5 -116.5v-15.5t1 -15.5h-208q-18 164 -45 293.5t-66 220.5t-91 139.5t-118 48.5 q-48 0 -85.5 -21t-65 -55.5t-43.5 -80t-21 -92.5q15 9 39.5 13.5t45.5 4.5q50 0 95 -15t78.5 -45.5t54 -74t20.5 -102.5t-20 -103.5t-54.5 -75.5t-82 -47.5t-103.5 -16.5q-62 0 -112.5 22.5t-87.5 63.5t-56.5 100.5t-19.5 136.5q0 112 25.5 212t78.5 174t134 116 q79 42 189 42q77 0 139 -28.5t108 -81t77 -123.5t46 -157l1 13q2 13 3.5 35.5t3.5 50.5t3.5 57.5t2.5 59t1 56.5q0 81 -23 144t-70.5 107.5t-118.5 66.5t-167 22q-77 0 -139.5 -16t-106.5 -45.5t-73 -69.5q-28 -40 -40 -85h-195zM361 234q0 -21 6 -40t19.5 -34t32.5 -24 t45.5 -9t46 9t32.5 24t19 34t6 40q0 19 -6 37t-19 32t-33 22.5t-45 8.5q-27 0 -46 -8.5t-32.5 -22.5t-19.5 -32.5t-6 -36.5z" />
<glyph unicode="&#xe2b;" horiz-adv-x="1462" d="M30 966q0 60 19 106.5t54.5 79t84.5 50.5t108 18q68 0 117.5 -22.5t82 -59.5t48.5 -88q15 -50 15 -109v-429q0 -35 -0.5 -73t-1.5 -75t-1 -69v-55q5 12 17.5 40.5t32 69.5t41.5 89.5t45 99t44.5 99.5t40.5 87q21 45 48 73t60 40q-24 20 -40 58.5t-16 86.5q0 53 17.5 97.5 t50 74.5t79.5 47.5t104 17.5q58 0 104.5 -17.5t80 -47.5t52 -74.5t18.5 -97.5q0 -67 -28 -115t-77 -75q34 -26 48 -67t14 -84v-642h-191v662q0 41 -20.5 67t-59.5 26q-32 0 -57.5 -19.5t-45.5 -69.5q-76 -167 -150.5 -333t-151.5 -333h-249v743q-21 -6 -41.5 -10.5 t-44.5 -4.5q-44 0 -88.5 15t-81 44.5t-59 74t-22.5 104.5zM182 968q0 -19 6.5 -37.5t20 -32.5t32.5 -23t46 -9t45.5 9t31 23t20 32.5t7.5 37.5q0 21 -7 39.5t-19.5 33t-31.5 24t-46 9.5t-46.5 -9.5t-32.5 -25t-19.5 -34t-6.5 -37.5zM980 978q0 -19 6 -37.5t19 -32.5 t32.5 -23t45.5 -9t44.5 9t31.5 22.5t19.5 32t6.5 37.5t-6.5 37.5t-19 33.5t-31.5 24q-18 8 -45 8q-26 0 -45.5 -8.5t-32 -23.5t-19 -32.5t-6.5 -37.5z" />
<glyph unicode="&#xe2c;" horiz-adv-x="1497" d="M33 966q0 60 19 106.5t54.5 79t84.5 50.5t108 18q68 0 117.5 -22.5t82 -59.5t48.5 -88q15 -50 15 -109v-331v-84.5t-1.5 -79.5t-1.5 -69v-54l243 538h96l243 -538q0 22 -0.5 52.5t-0.5 66v76v81.5v440q-42 -18 -91 -28.5t-102 -10.5q-47 0 -90 10.5t-75.5 33t-52.5 56.5 t-20 81q0 43 18.5 78t52.5 60.5t80 39.5t102 14q74 0 129 -17.5t93 -47.5q13 31 21 68q9 36 9 66h202q-4 -36 -13 -71.5t-23 -72t-33 -70.5q-21 -34 -45 -63q15 -33 21 -67.5t6 -70.5v-1027h-213l-266 596l-267 -596h-213v743q-21 -6 -41.5 -10.5t-44.5 -4.5q-44 0 -88.5 15 t-81 44.5t-59 74t-22.5 104.5zM185 968q0 -19 6.5 -37.5t20 -32.5t32.5 -23t46 -9t45.5 9t31 23t20 32.5t7.5 37.5q0 21 -7 39.5t-19.5 33t-31.5 24t-46 9.5t-47 -9.5t-32.5 -25t-19 -34t-6.5 -37.5zM857 1184q0 -15 8 -26t20.5 -19t29.5 -12.5t38 -4.5q45 0 82 16t66 43 q-21 33 -56.5 51.5t-88.5 18.5q-47 0 -73 -18.5t-26 -48.5z" />
<glyph unicode="&#xe2d;" horiz-adv-x="1266" d="M33 864q16 85 62 151.5t117 113t165 71.5t209 25q114 0 208 -26.5t162 -79.5t104.5 -130t36.5 -175v-814h-916v524q0 67 17.5 121.5t52.5 94.5t86 61.5t119 21.5q53 0 97.5 -16.5t78 -46.5t52 -74t18.5 -97q0 -59 -21.5 -102.5t-55 -72t-73.5 -41.5t-80 -13 q-29 0 -53.5 5t-45.5 12v-230h533v655q0 62 -21 114.5t-61.5 90.5t-100.5 58t-140 20q-148 0 -235.5 -55.5t-115.5 -165.5h-199zM354 589q0 -19 6.5 -37.5t19 -32.5t31 -23t45.5 -9q25 0 45 8t33.5 23t19 32.5t5.5 37.5q0 19 -5.5 38t-19 34t-33 24t-45.5 9q-27 0 -45.5 -9 t-31 -24t-19 -33.5t-6.5 -37.5z" />
<glyph unicode="&#xe2e;" horiz-adv-x="1266" d="M80.5 917q-3.5 20 5.5 44q21 65 67.5 113.5t111 82.5t145.5 51t170 17q65 0 127.5 -8.5t115.5 -29.5l98 127h213l-172 -204q64 -53 99.5 -127t35.5 -169v-814h-916v494q0 67 17.5 121.5t52.5 94.5t86 61.5t119 21.5q53 0 97.5 -16t78 -46.5t52 -74t18.5 -97.5 q0 -59 -21.5 -102.5t-55 -71.5t-73.5 -41.5t-80 -13.5q-29 0 -53.5 5t-45.5 13v-201h533v655q0 102 -59 172q-26 -25 -51.5 -46.5t-54 -38t-62.5 -25.5t-75 -9h-437q-22 0 -40.5 7.5t-30.5 21t-15.5 33.5zM281 974h281q27 0 48.5 4.5t40.5 14.5t37.5 28t39.5 45 q-32 11 -70.5 18.5t-81.5 7.5q-105 0 -177.5 -31t-117.5 -87zM354 559q0 -19 6.5 -37.5t19 -32.5t31 -23t45.5 -9q25 0 45 8.5t33.5 23t19 32.5t5.5 37t-5.5 38.5t-19 34t-33 23.5t-45.5 9q-27 0 -45.5 -9t-31 -23.5t-19 -33t-6.5 -38.5z" />
<glyph unicode="&#xe2f;" horiz-adv-x="1096" d="M84 1012q0 48 16.5 86.5t45.5 65t69.5 42t87.5 15.5q42 0 81 -12.5t68.5 -37.5t48 -62t18.5 -89q0 -54 -22.5 -94.5t-61.5 -59.5q71 3 126.5 31.5t95 76t62.5 108.5q21 61 27 130h180v-1212h-192v863q-9 -15 -32.5 -38t-63.5 -43.5t-98 -35.5t-134 -15q-66 0 -123.5 18.5 t-102 55t-70.5 88t-26 119.5zM219 1012q0 -37 23.5 -61.5t62 -24.5t62.5 24t24 62.5t-24 62t-62 23.5q-18 0 -34 -6.5t-28 -17.5t-18 -27.5t-6 -34.5z" />
<glyph unicode="&#xe30;" horiz-adv-x="802" d="M47 258q0 47 16.5 84.5t46 63.5t69.5 40t84 14q42 0 79 -12.5t66 -36t46 -57.5t17 -79q0 -17 -4.5 -39.5t-16.5 -43.5q34 6 68 21t66 35.5t60 46t50 54.5l92 -124q-37 -40 -86 -75t-108 -61.5t-127 -41.5q-65 -14 -139 -14q-57 0 -108.5 14.5t-88.5 42.5t-59 71 q-23 43 -23 97zM47 989q0 47 16.5 85.5t46 64.5t69.5 40t84 14q42 0 79 -13.5t66 -37t46 -57.5t17 -77q0 -18 -4.5 -40t-16.5 -43q34 6 68 20t66 34.5t60 46.5q28 25 50 54l92 -122q-36 -39 -85.5 -73.5t-108.5 -61.5t-127 -43q-65 -16 -139 -16q-57 0 -108.5 14.5 t-88.5 43.5t-59.5 71t-22.5 96zM181 260q0 -35 22 -58t57.5 -23t59 23t23.5 58q0 36 -23 59q-24 23 -60 23q-17 0 -32 -6t-25.5 -17t-16 -26t-5.5 -33zM181 992q0 -36 22 -58t57.5 -22t59 22t23.5 58q0 35 -23 59q-24 23 -60 23q-17 0 -32 -5.5t-25.5 -17.5t-16 -27 t-5.5 -32z" />
<glyph unicode="&#xe31;" d="M-844 1652q0 47 16.5 84t45.5 63.5t68 40t84 13.5q47 0 85.5 -13.5t65 -38t41.5 -59t15 -77.5q0 -19 -4.5 -43t-16.5 -44q65 12 127 40t116 62t98 71t73 69l92 -127q-44 -43 -110.5 -89.5t-146.5 -86.5t-170.5 -65t-180.5 -25q-145 0 -221.5 59t-76.5 166zM-719 1650 q0 -19 6.5 -35.5t18.5 -28t27.5 -17.5t36.5 -6q39 0 62 25t23 62q0 39 -23.5 63.5t-62 24.5t-63.5 -24.5t-25 -63.5z" />
<glyph unicode="&#xe32;" horiz-adv-x="1015" d="M-15 820q6 195 120 297.5t326 102.5q100 0 178 -24.5t129.5 -70t78.5 -109.5t27 -146v-870h-191v867q0 45 -15 83.5t-44 65.5t-71.5 42.5t-99.5 15.5q-53 0 -98 -14.5t-78.5 -46.5t-52.5 -80t-19 -113h-190z" />
<glyph unicode="&#xe33;" horiz-adv-x="1015" d="M-512 1702q0 50 19 94.5t52 77t78 51.5q46 20 100 20t99.5 -19.5t78 -52t50 -77t17.5 -94.5q0 -52 -17.5 -95.5t-51 -76t-78.5 -51t-98 -18.5q-54 0 -99.5 18.5t-78.5 51t-52 76t-19 95.5zM-379 1701q0 -21 7.5 -42t22.5 -36.5t36 -25.5t50 -10t50 10t35.5 25.5t22 35.5 t7.5 43q0 20 -7.5 41.5t-22 38t-35.5 26.5t-50.5 10t-51 -10t-35.5 -26.5t-21.5 -37t-7.5 -42.5zM-15 820q6 195 120 297.5t326 102.5q100 0 178 -24.5t129.5 -70t78.5 -109.5t27 -146v-870h-191v867q0 45 -15 83.5t-44 65.5t-71.5 42.5t-99.5 15.5q-53 0 -98 -14.5 t-78.5 -46.5t-52.5 -80t-19 -113h-190z" />
<glyph unicode="&#xe34;" d="M-1196 1471v172q18 6 35.5 13.5t42 20.5t61 34t89.5 50q73 42 137 59.5t126.5 17.5t137 -17t151.5 -60q47 -26 82 -46t63 -34.5t50.5 -24.5t47.5 -16v-169h-1023zM-1032 1585h669v3q-41 15 -76.5 36.5t-73.5 40.5t-83.5 31.5t-107.5 12.5q-30 0 -57.5 -5t-52 -14 t-45.5 -19q-20 -10 -41 -22q-15 -9 -32.5 -17t-35.5 -16.5t-34 -16t-30 -9.5v-5z" />
<glyph unicode="&#xe35;" d="M-1196 1471v172q18 6 35.5 13.5t42 20.5t61 34t89.5 50q73 42 137 59.5t126.5 17.5t137 -17t151.5 -60l58 -32v236h185v-494h-1023zM-1032 1585h669v3q-41 15 -76.5 36.5t-73.5 40.5t-83.5 31.5t-107.5 12.5q-30 0 -57.5 -5t-52 -14t-45.5 -19q-20 -10 -41 -22 q-15 -9 -32.5 -17t-35.5 -16.5t-34 -16t-30 -9.5v-5z" />
<glyph unicode="&#xe36;" d="M-1196 1471v172q18 6 35.5 13.5t43 20.5t61 34t88.5 50q71 40 136 58.5t128 18.5q23 0 46 -3t43 -6t38 -7.5t29 -9.5q2 41 17.5 73.5t42 56t62 35.5t77.5 12q44 0 81 -13.5t65 -38.5t43.5 -60.5t15.5 -79.5q0 -92 -62 -147q9 -3 16.5 -6.5t16.5 -5.5v-167h-1023z M-1032 1585h669v3q-41 15 -76.5 36.5t-73.5 40.5t-83.5 31.5t-107.5 12.5q-30 0 -57.5 -5t-52 -14t-45.5 -19q-20 -10 -41 -22q-15 -9 -32.5 -17t-35.5 -16.5t-34 -16t-30 -9.5v-5zM-437 1793.5q0 -38.5 24 -63t64 -24.5q19 0 34.5 7t27.5 18.5t18.5 27.5t6.5 35 q0 38 -24.5 63.5t-62.5 25.5q-40 0 -64 -25q-24 -26 -24 -64.5z" />
<glyph unicode="&#xe37;" d="M-1196 1471v172q18 6 35.5 13.5t42 20.5t61 34t89.5 50q73 42 137 59.5t127 17.5q19 0 39 -1.5t40 -4.5v133h163v-180q12 -6 23 -12t23 -12q24 -12 44 -23.5t36 -20.5v248h163v-494h-1023zM-1032 1585h669v3q-41 15 -76.5 36.5t-73.5 40.5t-83.5 31.5t-107.5 12.5 q-30 0 -57.5 -5t-52 -14t-45.5 -19q-20 -10 -41 -22q-15 -9 -32.5 -17t-35.5 -16.5t-34 -16t-30 -9.5v-5z" />
<glyph unicode="&#xe38;" d="M-593 -364q0 40 13 75.5t38 61.5t62 41q36 16 83 16q54 0 95.5 -15.5t69.5 -44.5t42 -69q14 -41 14 -89v-371h-185v223q-10 -3 -25 -4.5t-25 -1.5q-39 0 -72.5 13.5t-57.5 37t-38 56t-14 71.5zM-474 -358q0 -33 21 -53.5t53.5 -20.5t53 20.5t20.5 53.5q0 32 -20 52 q-21 20 -53.5 20t-53.5 -20t-21 -52z" />
<glyph unicode="&#xe39;" d="M-980 -364q0 40 13.5 75.5t38.5 61.5t62 41.5t85 15.5q53 0 93.5 -15.5t68 -44.5t40.5 -69q14 -41 14 -89v-237h201v436h189v-570h-572v223q-11 -3 -25.5 -4.5t-25.5 -1.5q-38 0 -71.5 13.5t-58 37t-38.5 56t-14 71.5zM-858 -358q0 -33 20.5 -53.5t53 -20.5t52.5 20.5 t20 53.5q0 32 -20 52t-52.5 20t-53 -20t-20.5 -52z" />
<glyph unicode="&#xe3a;" d="M-408 -284q0 24 7 46t22 39.5t38.5 28t53.5 10.5q29 0 53 -10.5t38.5 -28t23 -39.5t8.5 -45t-8.5 -44.5t-23 -38.5t-38.5 -27t-53.5 -10t-52.5 10t-38.5 27t-22.5 37.5t-7 44.5z" />
<glyph unicode="&#xe3e;" />
<glyph unicode="&#xe3f;" horiz-adv-x="1348" d="M161 0v1449h412v132h179v-132h6q94 0 175.5 -24.5t142.5 -72t95 -120t34 -168.5q0 -53 -13.5 -105t-40 -97t-71 -80.5t-106.5 -53.5q68 -15 120 -47.5t87.5 -77t53 -97.5t17.5 -112q0 -104 -38.5 -178.5t-103.5 -123t-152.5 -70.5t-184.5 -22h-21v-184h-179v184h-412z M376 175h197v464h-197v-464zM376 810h197v464h-197v-464zM752 175q55 0 104.5 13t88 41.5t60.5 71t22 105.5q0 50 -19 93t-54.5 74t-86.5 48q-50 15 -115 18v-464zM752 811q59 3 103.5 22t75.5 50.5t46 74t15 93.5q0 56 -18 96t-50 66.5t-76 41.5t-96 18v-462z" />
<glyph unicode="&#xe40;" horiz-adv-x="729" d="M181 272v940h192v-753q21 7 43 11t47 4q49 0 93.5 -16.5t79 -47.5t54.5 -75.5t20 -99.5q0 -59 -19 -104t-53 -76t-83 -47.5t-108 -16.5q-64 0 -113.5 19.5t-83.5 55t-51.5 88t-17.5 118.5zM349 234q0 -21 7 -39.5t19.5 -33t32.5 -24.5t46.5 -10t45.5 10t32 24.5t20 34 t7 38.5t-7 37.5t-20.5 32.5t-32.5 23t-45 9t-45.5 -9t-32 -23t-20 -32.5t-7.5 -37.5z" />
<glyph unicode="&#xe41;" horiz-adv-x="1357" d="M181 272v940h192v-753q21 7 43 11t47 4q49 0 93.5 -16.5t79 -47.5t54.5 -75.5t20 -99.5q0 -59 -19 -104t-53 -76t-83 -47.5t-108 -16.5q-64 0 -113.5 19.5t-83.5 55t-51.5 88t-17.5 118.5zM349 234q0 -21 7 -39.5t19.5 -33t32.5 -24.5t46.5 -10t45.5 10t32 24.5t20 34 t7 38.5t-7 37.5t-20.5 32.5t-32.5 23t-45 9t-45.5 -9t-32 -23t-20 -32.5t-7.5 -37.5zM808 272v940h191v-753q21 7 44 11t46 4q49 0 94 -16.5t79 -47.5t55 -75.5t21 -99.5q0 -59 -19.5 -104t-54 -76t-82.5 -47.5t-108 -16.5q-63 0 -112.5 19.5t-83.5 55t-52 88t-18 118.5z M977 234q0 -21 6 -39.5t19 -33t32.5 -24.5t46 -10t46 10t32.5 24.5t19.5 34t6.5 38.5t-6.5 37.5t-19.5 32.5t-33 23t-46 9t-45.5 -9t-32 -23t-19 -32.5t-6.5 -37.5z" />
<glyph unicode="&#xe42;" horiz-adv-x="741" d="M-118 1544v143q20 59 55 108t84.5 83t111.5 52.5t138 18.5q41 0 76.5 -5t66 -12.5t57 -15t52 -15t49.5 -12.5t51 -5q33 0 54.5 9.5t29.5 11.5v-148q-14 -8 -34 -12.5t-44 -4.5q-41 0 -86.5 10.5t-92.5 24t-94 25.5t-90 12q-41 0 -76.5 -11.5t-63.5 -31.5t-47.5 -46.5 t-28.5 -58.5h333v-1205q21 7 44 11t47 4q48 0 93.5 -16.5t79.5 -47.5t54.5 -75.5t20.5 -99.5q0 -59 -19 -104t-54 -76t-83 -47.5t-107 -16.5q-64 0 -113.5 19.5t-83.5 55t-52 88t-18 118.5v1272h-310zM361 234q0 -21 6 -39.5t19.5 -33t32.5 -24.5t45.5 -10t46 10t32.5 24.5 t20 34t7 38.5t-7 37.5t-20 32.5t-33 23t-45 9q-27 0 -46 -9t-32 -23t-19.5 -32.5t-6.5 -37.5z" />
<glyph unicode="&#xe43;" horiz-adv-x="765" d="M-260 1655q0 62 25 116.5t69.5 96t105 64.5t130.5 23q85 0 149.5 -23t106 -66t61.5 -104q20 -60 20 -137v-1166q21 7 44 11t46 4q49 0 94 -16.5t79 -47.5t55 -75.5t21 -99.5q0 -59 -19.5 -104t-54 -76t-82.5 -47.5t-108 -16.5q-63 0 -112.5 19.5t-83.5 55t-52 88 t-18 118.5v1150q0 57 3 113.5t3 104.5q0 47 -12 79.5t-34 53.5t-51.5 31t-68.5 10q-20 0 -42.5 -8.5t-40.5 -20.5q30 0 58 -10.5t48 -31t32 -51.5t12 -71q0 -33 -12.5 -63.5t-35.5 -54t-58 -38.5t-79 -15q-42 0 -77.5 12t-62 37t-42.5 63.5t-16 92.5zM-142 1628 q0 -31 21.5 -52.5t55.5 -21.5t55.5 20.5t21.5 53.5q0 31 -21.5 52.5t-55.5 21.5t-55.5 -21.5t-21.5 -52.5zM385 234q0 -21 6 -39.5t19 -33t32.5 -24.5t46 -10t46 10t32.5 24.5t19.5 34t6.5 38.5t-6.5 37.5t-19.5 32.5t-33 23t-46 9t-45.5 -9t-32 -23t-19 -32.5t-6.5 -37.5z " />
<glyph unicode="&#xe44;" horiz-adv-x="765" d="M-203 1761v190l193 -174q48 45 98 89q48 43 98 88q51 -11 91.5 -35.5t69.5 -61.5t44.5 -85.5t15.5 -106.5v-1206q21 7 44 11t46 4q49 0 94 -16.5t79 -47.5t55 -75.5t21 -99.5q0 -59 -19.5 -104t-54 -76t-82.5 -47.5t-108 -16.5q-63 0 -112.5 19.5t-83.5 55t-52 88 t-18 118.5v1374q0 35 -7.5 66t-26.5 43l-191 -168zM385 234q0 -21 6 -39.5t19 -33t32.5 -24.5t46 -10t46 10t32.5 24.5t19.5 34t6.5 38.5t-6.5 37.5t-19.5 32.5t-33 23t-46 9t-45.5 -9t-32 -23t-19 -32.5t-6.5 -37.5z" />
<glyph unicode="&#xe45;" horiz-adv-x="1015" d="M-15 820q6 195 120 297.5t326 102.5q100 0 178 -24.5t129.5 -70t78.5 -109.5t27 -146v-1276h-191v1273q0 45 -15 83.5t-44 65.5t-71.5 42.5t-99.5 15.5q-53 0 -98 -14.5t-78.5 -46.5t-52.5 -80t-19 -113h-190z" />
<glyph unicode="&#xe46;" horiz-adv-x="1403" d="M332 817q0 74 22 143.5t63.5 124.5t97.5 90.5t124 45.5l157 -123l154 123q62 -7 112.5 -31t87.5 -64t56 -94.5t19 -122.5v-1315h-190v1312q0 59 -21.5 97.5t-63.5 56.5l-154 -116l-164 119q-18 -6 -35 -19.5t-31.5 -31t-23.5 -39t-12 -42.5q3 0 9 1h9q41 0 75 -12.5 t59 -35.5t38.5 -55.5t13.5 -73.5q0 -39 -14 -71.5t-39 -57.5t-61.5 -38.5t-80.5 -13.5q-49 0 -87 15.5t-65 46t-41 76.5t-14 105zM462 758q0 -15 4.5 -30t14.5 -25t25 -16t33 -6q17 0 32 6t25.5 16t15.5 25t5 30t-5 28t-15.5 24t-25.5 18t-32 7q-18 0 -33 -7t-25 -18 t-14.5 -24t-4.5 -28z" />
<glyph unicode="&#xe47;" d="M-1006 1720q0 72 25 127.5t69.5 92.5t105 56.5t131.5 19.5h34h40t39.5 -1t31.5 -1q58 0 97 7t66 21.5t45 39.5q20 26 35 65l129 -69q-17 -47 -42 -82.5t-66.5 -58.5t-100.5 -34.5t-144 -11.5h-134q-49 0 -86 -8.5t-61.5 -30t-38 -55t-13.5 -80.5q0 -15 3 -33t7.5 -32.5 t10.5 -28t12 -22.5q12 18 28 40.5t38.5 44.5t47.5 44t52 42q12 -37 32 -72.5t43.5 -67t48.5 -53.5t49 -31q-8 15 -12 29.5t-4 34.5q0 31 11 57.5t31.5 46t50 30.5t66.5 11t67.5 -11t53 -32t34 -50.5t11.5 -65.5q0 -35 -14.5 -68.5t-43 -58.5t-71 -40t-99.5 -15 q-53 0 -98 13.5t-80.5 35.5t-61.5 51t-41 60q-13 -12 -30 -32t-33.5 -42t-31.5 -46q-14 -23 -26 -44q-48 13 -87 43.5t-67 72t-44 90.5q-15 51 -15 102zM-394 1604q0 -12 4.5 -25t12.5 -22t21 -15t30 -6t29.5 6t21.5 15t13 21t4 26q0 12 -4 24t-13 21.5t-22 15.5 q-11 6 -29 6q-17 0 -30 -6t-21 -15.5t-12.5 -21.5t-4.5 -24z" />
<glyph unicode="&#xe48;" d="M-354 2112v331h175v-331h-175z" />
<glyph unicode="&#xe49;" d="M-613 2386q0 35 13.5 66t37 52.5t57.5 33.5q31 12 69.5 12t71 -12.5t55 -35t35 -55t12.5 -72.5q0 -32 -9 -62.5t-23 -55.5t-32 -47q-17 -23 -37 -37q27 9 57.5 23.5t63 32.5t65.5 38t63.5 40.5t55.5 40.5t43 35l68 -116q-52 -38 -121.5 -76.5t-145.5 -72.5t-156 -59 t-151 -37l-47 100q17 9 38 22.5t38.5 28t31 29.5t19.5 27q-3 0 -9 -1t-10 -1q-27 0 -54.5 10t-49.5 30.5t-35.5 50t-13.5 68.5zM-509 2383q0 -27 17.5 -47t53 -20t55 20t19.5 47q0 15 -4.5 28t-14 23.5t-23.5 16.5t-32 6t-31 -6t-22 -16.5t-13.5 -23.5t-4.5 -28z" />
<glyph unicode="&#xe4a;" d="M-758 2244q0 47 13.5 94.5t41.5 87.5t74 66.5t111 35.5l112 -83l116 83q56 -6 96 -28t65 -56.5t36.5 -74t11.5 -81.5q0 -30 -8 -58q-9 -28 -18 -44l2 -2q22 6 50 19.5t56.5 29t52 31t35.5 30.5l49 -117q-39 -21 -84 -41t-94 -37t-99 -29.5t-99 -21.5q-8 20 -15 39t-13 38 q23 21 39.5 58t16.5 83q0 56 -21.5 89.5t-57.5 50.5l-117 -82l-115 82q-15 -2 -28 -10.5t-24.5 -19.5t-19.5 -24.5t-12 -27.5q7 1 15 2q7 1 16 1q29 0 56 -9t47 -27t31 -43t11 -58q0 -32 -11 -58.5t-32 -45t-50 -30t-64 -11.5q-40 0 -72 15t-54 40t-34 62t-12 82zM-645 2186 q0 -12 4.5 -21.5t11.5 -18.5t18.5 -13.5t25.5 -4.5q15 0 26 4.5t18.5 13.5t12 19.5t4.5 20.5q0 12 -3.5 23t-12 20t-18.5 15t-27 6q-31 0 -45.5 -19.5t-14.5 -44.5z" />
<glyph unicode="&#xe4b;" d="M-525 2227v129h173v148h174v-148h172v-129h-172v-149h-174v149h-173z" />
<glyph unicode="&#xe4c;" d="M-494 2063q0 24 6 47.5t19 47.5t37 46.5t59 45.5q30 17 70 33.5t87 29t100 22.5q54 9 110 18l50 -118q-29 0 -63 -4.5t-68 -12t-64 -16.5t-47 -16q16 -6 29.5 -19.5t23.5 -30.5t16 -37t6 -40q0 -39 -14 -70.5t-39 -54t-59 -35t-74 -12.5q-43 0 -77 12.5t-58 36.5t-37 55 q-13 34 -13 72zM-385 2060q0 -15 5.5 -29t15 -25t23.5 -17q12 -6 33 -6t35.5 6t23.5 17t13.5 25t4.5 29t-4.5 28.5t-14.5 23.5t-25 16t-33 6q-19 0 -33 -6t-23.5 -16t-15.5 -24q-5 -13 -5 -28z" />
<glyph unicode="&#xe4d;" d="M-512 1702q0 50 19 94.5t52 77t78 51.5q46 20 100 20t99.5 -19.5t78 -52t50 -77t17.5 -94.5q0 -52 -17.5 -95.5t-51 -76t-78.5 -51t-98 -18.5q-54 0 -99.5 18.5t-78.5 51t-52 76t-19 95.5zM-379 1701q0 -21 7.5 -42t22.5 -36.5t36 -25.5t50 -10t50 10t35.5 25.5t22 35.5 t7.5 43q0 20 -7.5 41.5t-22 38t-35.5 26.5t-50.5 10t-51 -10t-35.5 -26.5t-21.5 -37t-7.5 -42.5z" />
<glyph unicode="&#xe4e;" d="M-499 1649q-1 47 19 89q27 56 71.5 80.5t94.5 24.5q-28 19 -40.5 48.5t-12.5 63.5q0 47 17 83.5t46.5 63t70.5 40t89 13.5q39 0 71.5 -12t59.5 -31l-61 -104q-12 12 -30 20q-20 8 -41 8q-25 0 -42 -8.5t-29 -22.5t-17 -31t-5 -35q0 -16 5 -30.5t14.5 -27t23.5 -20.5 t32 -11q-12 -28 -23.5 -57t-25.5 -57q-25 15 -57 15q-21 0 -39.5 -7.5t-31 -20t-20 -30.5t-7.5 -38q0 -18 6 -33.5t17.5 -28t28 -20t38.5 -7.5h9.5h8.5l-10 -119h-6h-8q-49 0 -88.5 15t-68 42.5t-44 64.5t-15.5 80z" />
<glyph unicode="&#xe4f;" horiz-adv-x="1434" d="M96 607q0 83 21.5 160t61 145t95 122.5t125 94.5t149.5 61.5t168 21.5q89 0 170.5 -21.5t150.5 -61.5t124.5 -94.5t95 -122.5t60.5 -145t21 -160t-21 -161.5t-60.5 -145t-95 -123t-124.5 -95t-150.5 -60.5t-170.5 -22q-88 0 -168 22t-149.5 60.5t-125 95t-95 123t-61 145 t-21.5 161.5zM290 604q0 -58 15 -111t41.5 -100t65 -85.5t86 -66.5t102.5 -43q54 -14 116 -14t118.5 14.5t104 42.5t86 66.5t65 85.5t41.5 101t15 110q0 86 -33 163t-89 134.5t-134.5 91t-173.5 33.5q-62 0 -116.5 -15.5t-102 -43t-86 -66t-65 -85t-41.5 -100.5t-15 -112z M545 607q0 35 13 66t37 55t55 38t68 14q35 0 67 -14t55.5 -38t37 -55t13.5 -66q0 -36 -13.5 -68.5t-37 -55.5t-54.5 -37t-68 -14q-36 0 -67.5 14t-55.5 37t-37 55.5t-13 68.5z" />
<glyph unicode="&#xe50;" horiz-adv-x="1320" d="M130 468q0 103 35.5 192t103.5 154t167.5 101.5t226.5 36.5q124 0 223.5 -36.5t167.5 -101.5t105 -154t37 -192q0 -105 -35.5 -194.5t-103 -154t-166 -101t-225.5 -36.5q-130 0 -229.5 35.5t-168 101t-103.5 154t-35 195.5zM329 465q0 -71 22 -134t64 -111t103.5 -76.5 t141.5 -29.5q80 0 143.5 28t106 76t64.5 112t22 135q0 68 -20 132.5t-61.5 114t-103.5 79t-148 29.5t-148 -29.5t-103.5 -79t-62 -114t-20.5 -132.5z" />
<glyph unicode="&#xe51;" horiz-adv-x="1343" d="M121 468q0 106 38.5 195t109.5 153.5t173 99.5q100 36 227 36q124 0 226.5 -35t173.5 -98.5t110 -154t39 -202.5q0 -74 -15.5 -142t-40 -127.5t-56.5 -108t-66 -84.5h-186q31 33 62 81t55 106.5t38.5 126.5t14.5 142q0 77 -23.5 143.5t-68 115.5t-111 75.5t-152.5 26.5 q-83 0 -147.5 -25t-108 -72t-66.5 -111t-23 -138q0 -24 3 -49t8 -48t11 -43t14 -35q10 30 29 52t44.5 37t55.5 22q32 7 65 7q35 0 73.5 -11.5t69.5 -36t51 -64t20 -92.5q0 -50 -17 -91t-49 -69.5t-77 -43.5t-103 -15q-88 0 -162 36.5t-126.5 100.5t-82.5 151t-30 189z M453 206q0 -18 6 -35t17.5 -30.5t29.5 -21t41.5 -7.5t40 7.5t28.5 21t17.5 31t5.5 34.5t-5.5 33t-17.5 29t-29 20.5t-39 7.5q-24 0 -42 -7.5t-29.5 -20.5t-17.5 -29.5t-6 -32.5z" />
<glyph unicode="&#xe52;" horiz-adv-x="1343" d="M30 1119l152 112q21 -10 40 -33.5t34 -55.5t23 -70.5t8 -79.5v-666q0 -95 45 -144.5t145 -49.5h375q43 0 79.5 9.5t62.5 30t40.5 54.5t14.5 82v382q0 22 -5 42t-14 36t-23.5 26.5t-32.5 16.5q-39 -28 -79 -56t-78 -56l-154 109q-27 -9 -44 -29t-26.5 -44.5t-14 -50 t-4.5 -45.5q0 -6 3 -8t7.5 -4t9 -3.5t7.5 -4.5q15 10 30.5 13.5t33.5 3.5q41 0 76.5 -11.5t62 -36t42 -60t15.5 -83.5q0 -22 -9 -42q-5 -36 -21.5 -64t-42.5 -48t-60.5 -31t-76.5 -11q-21 0 -41 6q-99 14 -154.5 101.5t-55.5 242.5q0 68 16 128t48 107.5t78.5 77t107.5 40.5 l167 -126l172 127q50 -3 94.5 -20.5t78.5 -50t53 -81.5t19 -114v-391q0 -58 -15.5 -107.5t-45.5 -88t-74.5 -63.5t-103.5 -31q-27 -3 -53 -5q-27 -1 -54 -1h-480q-71 0 -127 20t-96 57.5t-60.5 92.5t-20.5 125v589q0 44 -4 79t-12 63.5t-22 51.5q-16 23 -36 41zM568 444 q0 -18 4.5 -32.5t15.5 -26.5t27.5 -19.5t38.5 -7.5q21 0 37 7.5t27.5 19.5t16.5 28t5 31q0 16 -5 31.5t-16.5 27.5t-27.5 19.5t-37 7.5t-37 -7.5t-27 -19.5t-16.5 -26.5t-5.5 -32.5z" />
<glyph unicode="&#xe53;" horiz-adv-x="1343" d="M115 471q0 91 22.5 172.5t64.5 145t105 106.5t146 57l219 -182l222 182q77 -9 136 -39.5t99 -76.5t60 -106t20 -128v-602h-185v565q0 18 -1.5 31.5t-4.5 26.5q-6 68 -37 107.5t-75 56.5l-234 -183l-234 183q-61 -38 -92.5 -113.5t-31.5 -186.5q0 -22 1.5 -46t4.5 -47 t6 -41.5t7 -29.5q12 23 31 40t43 28.5t51 17t54 5.5q36 0 74.5 -11.5t69.5 -36t51.5 -64t20.5 -92.5q0 -26 -9 -49q-15 -80 -76 -125t-161 -45q-85 0 -153.5 38t-115.5 102t-72.5 151.5t-25.5 188.5zM413 206q0 -18 5 -35t17 -30.5t29.5 -21t41.5 -7.5t41 7.5t28 21t17 31 t6 34.5t-6 33t-18 29t-29 20.5t-39 7.5q-24 0 -41 -7.5t-28.5 -20.5t-17.5 -29.5t-6 -32.5z" />
<glyph unicode="&#xe54;" horiz-adv-x="1343" d="M127 457q0 139 38.5 233t105 152t156.5 83q91 25 192 25q91 0 160 4.5t120 16.5t86.5 32.5t59.5 53t37 77.5q13 44 19 106q40 -26 80 -51.5t80 -51.5q-12 -89 -53.5 -151t-111.5 -100.5t-167 -56.5q-94 -18 -216 -22q-32 -2 -65 -3q-35 -2 -68 -5q-56 -6 -102 -26.5 t-80 -59t-51.5 -100.5t-17.5 -150q0 -89 20.5 -151.5t57.5 -102.5t86.5 -59.5t105.5 -19.5q63 0 115.5 13.5t89.5 25.5q-57 57 -91.5 124.5t-34.5 140.5q0 47 16 87.5t46 70.5t71 46t95 16q50 0 90 -16t69 -43.5t44.5 -66t15.5 -84.5q0 -36 -10.5 -65.5t-26.5 -51.5t-40 -36 q-24 -16 -53 -22q-11 -6 -22 -10t-24 -7q16 -20 44 -40t63.5 -37t77.5 -28q41 -11 88 -12l-56 -144q-62 6 -126 27q-63 23 -122 59q-15 -6 -47 -19.5t-77 -27.5t-100 -24q-55 -12 -114 -12q-95 0 -177.5 26.5t-143.5 83.5t-95 145q-37 87 -37 208zM815 447q0 -18 6 -34 t17.5 -29t28.5 -21t39 -8t39 7.5t28 21t17 28.5q6 14 6 32q0 16 -5 33t-17 29.5t-28.5 21t-39.5 8.5q-22 0 -39 -7.5t-28.5 -21t-17.5 -29.5t-6 -31z" />
<glyph unicode="&#xe55;" horiz-adv-x="1343" d="M127 441q0 113 28.5 195t78.5 137.5t118 88t150 44.5q-14 20 -21 45.5t-7 54.5q0 46 17 84t47 65.5t71.5 43t92.5 15.5q50 0 91.5 -15.5t71 -43t47 -66t17.5 -83.5q0 -32 -11 -62q47 18 79.5 46t53.5 65t32.5 84.5t17.5 100.5q40 -26 80 -51.5t80 -51.5 q-24 -185 -164.5 -274.5t-397.5 -94.5q-27 0 -55 -0.5t-58 -3.5q-59 -3 -106.5 -21t-80.5 -55t-51.5 -96t-18.5 -145q0 -83 21 -143.5t58 -99t87 -56.5t104 -18q60 0 110 12q49 12 87 24q-53 53 -85.5 118t-32.5 135q0 28 9 49q6 38 23.5 70t45.5 55t66.5 36t83.5 13 q50 0 90 -15.5t69 -43t44.5 -65.5t15.5 -86q0 -32 -10.5 -60.5t-26.5 -49t-40 -35.5t-53 -21q-11 -6 -22 -10t-24 -7q16 -20 44 -40t63.5 -36t77.5 -26q41 -11 88 -12l-56 -144q-65 6 -130 26.5t-124 56.5q-18 -9 -50.5 -21.5t-75.5 -25t-96 -22.5q-54 -11 -110 -11 q-95 0 -177 26.5t-142.5 81.5t-96.5 138q-37 86 -37 201zM611 998q0 -20 7 -36t19.5 -28.5t29.5 -20t35 -7.5q20 0 36.5 7.5t29 20t19 29.5t6.5 34.5t-6.5 35.5t-19 29.5t-29 19t-37 7.5t-37 -7.5t-28 -19t-18.5 -29.5t-7 -35zM815 435q0 -18 6 -34t17.5 -28t28.5 -20t39 -8 t39 7.5t28 20t17 28.5t6 32.5t-5 32.5t-17 29.5t-28.5 21t-39.5 7.5q-22 0 -39 -7.5t-28.5 -20t-17.5 -29t-6 -32.5z" />
<glyph unicode="&#xe56;" horiz-adv-x="1343" d="M16 1125l76 50q19 12 39 26q20 16 38 27q62 -75 108 -154t81 -173q19 9 49.5 18t67.5 17t79 13q41 6 85 6q76 0 148.5 -13t136 -39.5t117.5 -65.5t92.5 -93t59.5 -123q21 -70 21 -153q0 -116 -41.5 -204.5t-118 -151t-182 -94t-234.5 -31.5q-110 0 -198 21.5t-150 60.5 t-96 94.5t-36 120.5q0 53 17 95.5t47 70.5t71 43t89 15q50 0 89.5 -17t66.5 -44.5t41 -64t14 -74.5q0 -33 -8 -59.5t-22.5 -47t-34.5 -35.5t-43 -21q17 -9 40 -13.5t45 -7.5t40 -3.5t26 -0.5q79 0 147.5 26t120 71t81 108.5t29.5 139.5q0 83 -32 148t-83.5 110t-121.5 68.5 t-145 23.5q-52 0 -103.5 -8t-101.5 -22t-94 -32q-46 -19 -81 -37q-36 117 -95 220t-141 189zM290 305q0 -40 23.5 -66t65.5 -26q38 0 63.5 25t25.5 65q0 39 -24 65t-65 26q-39 0 -64 -24.5t-25 -64.5z" />
<glyph unicode="&#xe57;" horiz-adv-x="1413" d="M61 471q0 91 21.5 172.5t64 145t105 106.5t145.5 57l195 -165q49 42 98 83q49 42 97 83q79 -15 135 -56.5t92.5 -102t53.5 -136.5q17 -75 17 -161q0 -44 -5.5 -88.5t-13.5 -86.5t-19 -78.5t-23 -62.5q19 13 42 34.5t42.5 60t32.5 94.5t13 139q0 53 -4 105t-10 102.5 t-10.5 100.5t-4.5 101q0 103 24 185q23 81 71 134l162 -112q-37 -33 -51 -92t-14 -154q0 -46 2.5 -91t6 -89.5t6.5 -89.5t3 -91q0 -90 -19.5 -172.5t-59 -150.5t-102.5 -116q-62 -49 -149 -70q-37 -9 -74 -11t-70 -2q-20 0 -35.5 0.5t-26.5 0.5q6 15 24 56.5t36.5 105 t32.5 145t14 176.5q0 76 -10.5 129.5t-27.5 88.5t-35.5 55t-33.5 34l-207 -168l-210 168q-59 -35 -92.5 -110.5t-33.5 -182.5q0 -57 7 -103q6 -45 15 -68q12 23 31.5 39.5t43 28.5t50 17.5t53.5 5.5q35 0 73.5 -11.5t70.5 -36t52 -64t20 -92.5q0 -50 -17 -91t-49 -69.5 t-78 -43.5t-102 -15q-86 0 -153 38t-114.5 102t-72.5 151.5t-25 188.5zM357 206q0 -18 6 -35t17 -30.5t28.5 -21t41.5 -7.5t41.5 7.5t28.5 21t16.5 31t5.5 34.5t-6 33t-17 29t-29 20.5t-40 7.5q-24 0 -40 -7.5t-28 -20.5t-18.5 -29.5t-6.5 -32.5z" />
<glyph unicode="&#xe58;" horiz-adv-x="1343" d="M117 462q0 139 39 232t106 150t155.5 81.5t189.5 24.5q92 0 161.5 4.5t121 16.5t87 32.5t60 53t37.5 77.5q15 44 21 106q40 -26 79.5 -51.5t79.5 -51.5q-12 -89 -54.5 -151t-113.5 -100.5t-167 -56.5t-217 -22q-33 -2 -65.5 -3.5t-65.5 -4.5q-56 -6 -102 -27.5t-79 -60.5 t-51 -99.5t-18 -148.5q0 -49 9.5 -94.5t24.5 -83.5t35.5 -65.5t41.5 -40.5q9 21 28.5 54t43 70t53 72.5t60.5 59.5q21 -53 45.5 -99t52.5 -81.5t60 -60.5q30 -25 66 -34q11 -9 24.5 -16.5t25.5 -10.5q-37 19 -57 51t-20 79.5t15 86t43 66.5t69.5 43t91.5 15q53 0 96 -16.5 t72.5 -45.5t44.5 -69.5t15 -89.5q0 -50 -20 -98t-60 -83.5t-100.5 -58t-143.5 -22.5q-59 0 -111.5 13.5t-95 35.5t-75.5 55q-33 32 -57 74q-13 -20 -26 -42.5t-23 -46.5t-19 -47q-9 -24 -15 -42q-80 2 -152.5 33.5t-127 92.5t-86.5 146.5t-32 198.5zM944 263.5 q0 -17.5 6 -32.5t17 -28.5t27.5 -20.5t38.5 -7q21 0 38.5 7t29.5 20.5t18 29.5q6 14 6 31q0 18 -6 34.5t-17 29.5t-28 20.5t-41 7.5t-40 -8t-26.5 -20.5t-16.5 -29t-6 -34z" />
<glyph unicode="&#xe59;" horiz-adv-x="1431" d="M86 472q0 114 28 203t81.5 149.5t127.5 91.5t167 31q53 0 99 -11.5t85 -31t71 -46.5q33 -26 57 -57q0 38 12.5 64t31 41.5t42.5 23t44 7.5q48 0 80.5 -15.5t57 -35t45 -35.5t44.5 -16q15 0 27.5 7.5t21.5 26.5t13 54.5t4 91.5q0 42 -2.5 98t-11.5 130l183 -123 q5 -48 5 -93q0 -89 -15 -156t-42.5 -111t-67.5 -66t-90 -22q-41 0 -69.5 15t-53 32t-46.5 31q-23 14 -50 14q-7 0 -17 -3t-20 -13.5t-16 -28t-6 -46.5v-17t3 -20v-6q6 -13 11.5 -28.5t14.5 -33.5q45 -106 87 -232q44 -126 85 -272l-161 -85q-48 163 -90 287.5t-79 216 t-72 154t-69.5 100t-70 54t-74.5 16.5q-99 0 -151.5 -79.5t-52.5 -227.5q0 -29 3 -59t7.5 -56.5t12 -50t13.5 -38.5q10 30 29 52t45 37t55.5 22t64.5 7q23 0 45 -7q33 -6 64 -21.5t54.5 -40.5t38 -59t14.5 -76q0 -50 -17 -91t-49 -69.5t-77 -43.5t-103 -15q-89 0 -162 36.5 t-125.5 100.5t-82.5 152.5t-31 191.5zM417 206q0 -18 6 -35t18 -30.5t29 -21t40.5 -7.5t40.5 7.5t29 21t17 31t5 34.5t-5.5 33t-17 29t-29 20.5t-39.5 7.5q-24 0 -41 -7.5t-29 -20.5t-18 -29.5t-6 -32.5z" />
<glyph unicode="&#xe5a;" horiz-adv-x="1441" d="M95 1014q0 47 14.5 85t43 65t67 42t83.5 15q42 0 81 -12.5t68.5 -37.5t48 -62t18.5 -89q0 -54 -22.5 -94.5t-61.5 -59.5q71 3 126 31.5t92 76t59 108.5t28 130h178v-1212h-191v863q-9 -15 -32 -38t-61.5 -43.5t-95 -35.5t-132.5 -15q-66 0 -122 19.5t-99 55t-66.5 88.5 t-23.5 120zM219 1012q0 -37 23.5 -61.5t62 -24.5t62.5 24t24 62.5t-24 62t-62 23.5q-18 0 -34 -6.5t-28 -17.5t-18 -27.5t-6 -34.5zM1079 0v1212h189v-1212h-189z" />
<glyph unicode="&#xe5b;" horiz-adv-x="2486" d="M121 607q0 71 18 133t49 114t73 92t91 68t103 42t110 14q95 0 166 -26t119 -74.5t72.5 -115.5t24.5 -150q0 -59 -17 -103.5t-47.5 -72.5t-69.5 -43q-40 -14 -85 -14q-50 0 -88.5 17.5t-63.5 47t-38.5 65t-13.5 71.5q0 41 16 76t41.5 59.5t59.5 37.5t69 13h12t14 -1 q-6 18 -20 33.5t-35 27t-46 17.5t-55 6q-25 0 -54 -6.5t-58.5 -22t-56 -40.5t-47.5 -62t-32.5 -86t-11.5 -110q0 -78 23.5 -149t72.5 -125t121.5 -86t166.5 -32q30 0 57 6q160 19 265 157.5t137 390.5q5 38 16 64t27 43t36 24.5t41 7.5q33 0 64.5 -17t51.5 -48l199 -314 q42 62 84 123q44 60 85 122q12 18 25.5 25.5t30.5 7.5q15 0 31.5 -7.5t28.5 -22.5q32 -38 64.5 -77.5t65.5 -78.5h352v-141h-419q-26 32 -53.5 64t-54.5 65q-47 -71 -94.5 -140.5t-94.5 -139.5q-24 -34 -54 -34q-14 0 -27.5 8t-25.5 24l-234 344q-22 -144 -74.5 -257 t-131 -190t-182 -117t-227.5 -40q-71 0 -141 13.5t-133.5 42t-118 72.5t-94 103t-62.5 134.5t-23 167.5zM648 669q0 -21 7.5 -37t19.5 -27.5t26.5 -16.5t29.5 -5q16 0 31.5 4.5t28.5 15.5t21 27q8 18 8 39t-7.5 37t-20 26.5t-28 16.5t-30.5 6t-31 -6t-28 -16.5t-19.5 -26.5 t-7.5 -37z" />
<glyph unicode="&#x2000;" horiz-adv-x="1275" />
<glyph unicode="&#x2001;" horiz-adv-x="2550" />
<glyph unicode="&#x2002;" horiz-adv-x="1275" />
<glyph unicode="&#x2003;" horiz-adv-x="2550" />
<glyph unicode="&#x2004;" horiz-adv-x="850" />
<glyph unicode="&#x2005;" horiz-adv-x="637" />
<glyph unicode="&#x2006;" horiz-adv-x="425" />
<glyph unicode="&#x2007;" horiz-adv-x="425" />
<glyph unicode="&#x2008;" horiz-adv-x="318" />
<glyph unicode="&#x2009;" horiz-adv-x="510" />
<glyph unicode="&#x200a;" horiz-adv-x="141" />
<glyph unicode="&#x200b;" />
<glyph unicode="&#x2010;" horiz-adv-x="839" d="M101 591v158h636v-158h-636z" />
<glyph unicode="&#x2011;" horiz-adv-x="839" d="M101 591v158h636v-158h-636z" />
<glyph unicode="&#x2012;" horiz-adv-x="839" d="M101 591v158h636v-158h-636z" />
<glyph unicode="&#x2013;" horiz-adv-x="1030" d="M15 591v158h1003v-158h-1003z" />
<glyph unicode="&#x2014;" horiz-adv-x="2060" d="M15 591v158h2030v-158h-2030z" />
<glyph unicode="&#x2018;" horiz-adv-x="547" d="M148 915v226q0 67 19 122.5t53.5 97.5t81.5 69.5t104 39.5v-120q-67 -19 -100.5 -67.5t-33.5 -131.5v-10h98v-226h-222z" />
<glyph unicode="&#x2019;" horiz-adv-x="547" d="M142 912v120q70 20 102.5 71t32.5 137h-99v228h222v-228q0 -66 -18.5 -121.5t-52.5 -97t-81.5 -69.5t-105.5 -40z" />
<glyph unicode="&#x201c;" horiz-adv-x="939" d="M133 915v226q0 67 19.5 122.5t53.5 97.5t81 69.5t104 39.5v-120q-67 -19 -100 -67.5t-33 -131.5v-10h97v-226h-222zM574 915v226q0 67 19.5 122.5t53.5 97.5t81.5 69.5t103.5 39.5v-120q-70 -21 -101.5 -71.5t-31.5 -137.5h97v-226h-222z" />
<glyph unicode="&#x201d;" horiz-adv-x="939" d="M107 912v120q69 20 101.5 71t32.5 137h-99v228h222v-228q0 -66 -18.5 -121.5t-52.5 -97t-81.5 -69.5t-104.5 -40zM548 912v120q66 19 99.5 67.5t33.5 131.5v9h-98v228h222v-228q0 -66 -19 -121.5t-52.5 -97t-81 -69.5t-104.5 -40z" />
<glyph unicode="&#x2022;" horiz-adv-x="1084" d="M195 548q0 65 22.5 125.5t65.5 109.5t106.5 78.5t149.5 29.5t151 -29.5t108 -78.5t63 -110q21 -60 21 -125q0 -66 -20.5 -128t-63.5 -110t-108 -77.5t-151 -29.5t-149.5 29.5t-106.5 77.5t-65.5 110t-22.5 128z" />
<glyph unicode="&#x202f;" horiz-adv-x="510" />
<glyph unicode="&#x205f;" horiz-adv-x="637" />
<glyph unicode="&#x20ac;" horiz-adv-x="1145" d="M43 480l58 130h125q-3 32 -4 64.5t-1 68.5q0 53 4 107h-181l57 128h146q21 116 73.5 208.5t127 156t169.5 97.5t203 34q74 0 155.5 -22t167.5 -64l-92 -155q-65 35 -127.5 50.5t-124.5 15.5q-50 0 -103.5 -18.5t-100.5 -57.5t-84 -99.5t-57 -145.5h521l-54 -128h-493 q-3 -27 -4.5 -53.5t-1.5 -56.5q1 -71 7 -130h450q-15 -33 -28 -65q-13 -33 -28 -65h-373q22 -94 59 -158t85 -104t103 -58t111 -18q70 0 137 21t135 59q0 -44 -0.5 -90t-0.5 -91q-59 -35 -129 -53q-68 -18 -145 -18q-98 0 -188 28.5t-164 89t-129 157.5q-55 95 -81 235h-200 z" />
<glyph unicode="&#x2122;" horiz-adv-x="2060" d="M147 1350v121h655v-121h-248v-725h-159v725h-248zM950 625v846h233l241 -642l241 642h232v-846h-151v686l-269 -686h-108l-268 686v-686h-151z" />
<glyph unicode="&#x25cc;" horiz-adv-x="1296" d="M124 722l136 67q-2 -18 -3.5 -36.5t-1.5 -36.5q0 -14 1.5 -30.5t3.5 -34.5zM269 349l52 142q21 -29 44 -53t49 -44zM290 1092l136 -49q-29 -17 -52 -40t-44 -50zM576 1104l69 136l67 -133q-15 3 -31 3h-33q-18 0 -35.5 -1.5t-36.5 -4.5zM582 326q16 -3 33.5 -4.5 t32.5 -1.5q17 0 31 1.5t27 4.5l-61 -128zM873 1043l148 49l-52 -142q-20 27 -43 50t-53 43zM876 388q27 18 47.5 39t39.5 47l37 -125zM1039 659q3 13 4 27q2 16 2 30q0 17 -1.5 34t-4.5 31l127 -65z" />
<glyph unicode="&#x25fc;" horiz-adv-x="1065" d="M0 0v1066h1066v-1066h-1066z" />
<glyph unicode="&#xf700;" horiz-adv-x="1101" d="M62 740q0 123 30.5 214t83.5 150t126.5 88.5t162.5 29.5q54 0 100 -5.5t88.5 -11.5l85 -12t93.5 -6q47 0 85.5 11t69.5 26v-155q-22 -12 -63.5 -23t-94.5 -11q-39 0 -82.5 5.5t-88 12.5t-89 13t-85.5 6q-56 0 -96 -16.5t-66 -43t-38 -60.5t-15 -70q24 10 56 20t67.5 16 t73 10t73.5 4q103 0 183 -24t136.5 -68t86 -104.5t29.5 -134.5q0 -40 -10.5 -89.5t-25 -103t-32.5 -109.5t-36 -109.5t-33 -102.5q-14 -49 -23 -87h-256q-4 36 -11.5 73.5t-15 72.5t-16.5 66q-9 34 -18 57l-7 -4q-8 -5 -22.5 -10.5t-35.5 -10t-47 -4.5q-42 0 -80.5 14.5 t-68 42t-45.5 66t-16 86t16 86.5t45.5 66t69.5 41q40 15 85 15q180 0 225 -169q9 -29 20 -72t22 -90.5t20 -92t12 -76.5q3 22 10 54.5t18.5 70.5t22.5 80t21.5 83.5t16 81.5t5.5 74q0 40 -14.5 75.5t-46.5 62t-81.5 42t-117.5 15.5q-67 0 -131 -14.5t-124 -41.5h-207z M296 451q0 -17 6 -34t18 -30.5t29.5 -22.5t41.5 -9q23 0 41 7.5t30 21t17.5 30.5t5.5 34.5t-5.5 34.5t-17.5 30.5t-30 21.5t-40 8q-23 0 -41 -8t-30.5 -20.5t-18.5 -29t-6 -34.5z" />
<glyph unicode="&#xf701;" d="M-1368 1471v172q15 6 28.5 13.5t32 20.5t47.5 34t77 50q66 40 119 58.5t109 18.5q33 0 63.5 -4.5t60 -13t59 -23.5t65.5 -36q44 -26 73.5 -47t52 -35t40 -23.5t41.5 -17.5v-167h-868zM-1218 1587h552v3q-36 14 -64.5 35t-60.5 39.5t-71 31.5q-41 13 -94 13 q-44 0 -78.5 -14.5t-64.5 -34.5t-59 -39.5t-60 -30.5v-3z" />
<glyph unicode="&#xf702;" d="M-1368 1471v172q15 6 28.5 13.5t32 20.5t47.5 34t77 50q66 40 119 58.5t109 18.5q33 0 63.5 -4.5t60 -13t59.5 -23.5q29 -15 65 -36l23 -15v219h184v-494h-868zM-1218 1587h552v3q-36 14 -64.5 35t-60.5 39.5t-71 31.5q-41 13 -94 13q-44 0 -78.5 -14.5t-64.5 -34.5 t-59 -39.5t-60 -30.5v-3z" />
<glyph unicode="&#xf703;" d="M-1368 1471v172q15 6 28.5 13.5t32 20.5t47.5 34t77 50q66 40 119 58.5t109 18.5q42 0 80 -7q6 34 21.5 63.5t41 50t59.5 33.5t75 13q45 0 82 -13.5t65 -38.5t44 -61.5t16 -80.5q0 -92 -62 -147q9 -3 16.5 -6.5t16.5 -5.5v-167h-868zM-1218 1587h552v3q-36 14 -64.5 35 t-60.5 39.5t-71 31.5q-41 13 -94 13q-44 0 -78.5 -14.5t-64.5 -34.5t-59 -39.5t-60 -30.5v-3zM-767 1793.5q0 -38.5 24 -63t65 -24.5q19 0 34.5 7t27.5 18.5t18 27.5t6 35q0 38 -23.5 63.5t-62.5 25.5q-40 0 -64 -25q-25 -26 -25 -64.5z" />
<glyph unicode="&#xf704;" d="M-1368 1471v172q15 6 28.5 13.5t32 20.5t47.5 34t77 50q66 40 119 58.5t109 18.5h8v127h152v-159q21 -9 42.5 -19.5t45.5 -25.5q14 -9 28 -17q13 -6 25 -15v236h154v-494h-868zM-1218 1587h552v3q-36 14 -64.5 35t-60.5 39.5t-71 31.5q-41 13 -94 13q-44 0 -78.5 -14.5 t-64.5 -34.5t-59 -39.5t-60 -30.5v-3z" />
<glyph unicode="&#xf705;" d="M-696 1474v446h184v-446h-184z" />
<glyph unicode="&#xf706;" d="M-980 1871q0 40 15 72.5t40 55.5t60.5 36t77 13t75.5 -13t58.5 -38.5t38 -60t13.5 -77.5q0 -30 -8.5 -61t-23 -60.5t-36 -58.5t-48.5 -52q46 19 99.5 47.5t106 61.5t99 66t76.5 61l75 -128q-31 -27 -74 -55t-94 -55t-107 -53.5t-114.5 -48.5t-118 -40t-112.5 -30l-53 113 q22 12 43.5 29.5t40.5 37t32.5 37t19.5 29.5h-7.5h-7.5q-30 0 -59.5 10.5t-53 32.5t-38.5 54t-15 75zM-869 1868q0 -30 20 -52t58.5 -22t58 22t19.5 52q0 15 -4.5 29.5t-14 25.5t-24.5 18q-14 7 -34 7t-35.5 -7t-24 -18t-14 -25.5t-5.5 -29.5z" />
<glyph unicode="&#xf707;" d="M-1252 1684q0 52 14 104.5t46 94.5t82 72.5t121 39.5q31 -22 61.5 -49.5t61.5 -48.5l123 98q61 -6 104.5 -31t71.5 -61.5t41 -80.5q12 -46 12 -90q0 -33 -6.5 -59.5t-15.5 -44.5v-3q24 10 52 28t54.5 37t49 38.5t34.5 34.5l53 -134q-36 -26 -81 -53.5t-96 -49.5t-106 -39 q-54 -16 -108 -25q-7 21 -13.5 41.5t-15.5 41.5q26 21 42.5 62.5t16.5 91.5q0 59 -24 98.5t-62 56.5l-126 -90l-129 92q-14 -3 -29 -12.5t-27 -22t-20.5 -27.5t-13.5 -30q9 2 17 2.5t17 0.5q33 0 61.5 -10.5t50 -29.5t33.5 -46q12 -26 12 -62q0 -35 -12 -65t-34.5 -50.5 t-54.5 -32.5t-71 -12q-44 0 -78 18t-58.5 47.5t-37 71t-12.5 88.5zM-1129 1613q0 -12 3.5 -23t12.5 -20t21.5 -14t28.5 -5q17 0 29.5 5t20 14t11.5 20t4 23t-3.5 25.5t-11.5 22t-21 14.5q-11 6 -29 6q-17 0 -29 -6t-21 -14.5t-12.5 -20.5t-3.5 -27z" />
<glyph unicode="&#xf708;" d="M-946 1632v132h179v170h179v-170h178v-132h-178v-173h-179v173h-179z" />
<glyph unicode="&#xf709;" d="M-861 1634q0 53 29.5 105.5t91.5 91.5q31 18 72.5 35t89.5 31t103 25t114 20l55 -139q-30 0 -65 -4.5t-70.5 -11.5t-65 -15t-48.5 -17q18 -6 32 -19t24.5 -30t16 -37t5.5 -40q0 -38 -13 -70t-38.5 -55.5t-61 -37t-76.5 -13.5q-44 0 -79.5 13.5t-61.5 38t-40 57.5t-14 72z M-743 1628q0 -15 4.5 -28t15 -24.5t23.5 -18t34 -6.5t35 6.5t23.5 18t14 24.5t4.5 28q0 30 -19.5 52t-57.5 22q-18 0 -32.5 -6t-24.5 -16.5t-15 -23.5t-5 -28z" />
<glyph unicode="&#xf70a;" d="M-358 1474v446h182v-446h-182z" />
<glyph unicode="&#xf70b;" d="M-870 1871q0 40 14.5 72.5t41.5 55.5t61.5 36t76 13t76.5 -13t58.5 -38.5t37 -60t13.5 -77.5q0 -30 -7.5 -61t-22.5 -60.5t-37 -58.5t-49 -52q46 19 100 47.5t106 61.5t97.5 66t78.5 61l74 -128q-31 -27 -74.5 -55t-94 -55t-106.5 -53.5t-114.5 -48.5t-117 -40 t-115.5 -30l-51 113q22 12 44 29.5t40 37t32 37t20 29.5h-8.5h-7.5q-30 0 -59 10.5t-53.5 32.5t-39 54t-14.5 75zM-758 1868q0 -30 19.5 -52t58 -22t59 22t20.5 52q0 15 -5 29.5t-14.5 25.5t-24.5 18t-36 7q-19 0 -33 -7t-24.5 -18t-15 -25.5t-4.5 -29.5z" />
<glyph unicode="&#xf70c;" d="M-1066 1684q0 52 14.5 104.5t46 94.5t82 72.5t121.5 39.5q31 -22 61.5 -49.5t61.5 -48.5l123 98q60 -6 104 -31t72 -61.5t40 -80.5q13 -46 13 -90q0 -33 -6.5 -59.5t-15.5 -44.5v-3q23 10 51.5 28t55 37t48.5 38.5t34 34.5l53 -134q-35 -26 -80 -53.5t-96 -49.5t-106 -39 q-55 -16 -108 -25q-8 21 -14.5 41.5t-15.5 41.5q27 21 43 62.5t16 91.5q0 59 -23.5 98.5t-62.5 56.5l-125 -90l-129 92q-15 -3 -29.5 -12.5t-26.5 -22t-21 -27.5t-13 -30q9 2 17 2.5t17 0.5q32 0 61 -10.5t50.5 -29.5t33.5 -46q12 -26 12 -62q0 -35 -12 -65t-35 -50.5 t-55 -32.5t-70 -12q-45 0 -79 18t-58 47.5t-37 71t-13 88.5zM-943 1613q0 -12 4 -23t12.5 -20t21.5 -14t29 -5t28.5 5t20 14t12 20t4.5 23t-3.5 25.5t-12 22t-20.5 14.5q-11 6 -29 6t-30 -6t-20.5 -14.5t-12.5 -20.5t-4 -27z" />
<glyph unicode="&#xf70d;" d="M-542 1632v132h185v170h179v-170h187v-132h-187v-173h-179v173h-185z" />
<glyph unicode="&#xf70e;" d="M-632 1634q0 53 30.5 105.5t92.5 91.5q31 18 71.5 35t89.5 31t104 25t112 20l55 -139q-30 0 -65.5 -4.5t-69.5 -11.5t-65 -15t-49 -17q18 -6 32 -19t24.5 -30t15.5 -37t5 -40q0 -38 -13 -70t-37.5 -55.5t-59.5 -37t-79 -13.5t-79 13.5t-61 38t-40 57.5t-14 72zM-512 1628 q0 -15 4.5 -28t13.5 -24.5t23.5 -18t33.5 -6.5q21 0 35 6.5t23.5 18t15 24.5t5.5 28q0 30 -20 52t-59 22q-17 0 -32 -6t-24.5 -16.5t-14 -23.5t-4.5 -28z" />
<glyph unicode="&#xf70f;" horiz-adv-x="1850" d="M75 827v179q9 3 24.5 9t35 15t41.5 21t46 26q59 39 111.5 67t105 46t106 26t111.5 8q124 0 213 -27.5t146 -75t83.5 -111t26.5 -132.5v-731h364v1065h191v-1212h-748v861q0 57 -20 97.5t-56 67t-88 39t-114 12.5q-68 0 -122.5 -16t-102 -39.5t-92.5 -49t-94 -44.5 l149 -16v-450q21 7 44 11t46 4q49 0 94.5 -16.5t79.5 -47t54 -74.5q21 -43 21 -99q0 -59 -19 -105t-54 -78.5t-83 -49t-107 -16.5q-64 0 -113.5 19.5t-83.5 56.5t-52 90t-18 118v536q-26 3 -59.5 7.5t-66.5 8.5zM370 237q0 -21 6 -38.5t19 -32.5t32.5 -24.5t46 -9.5t46 9.5 t32.5 24.5t20 34t7 37q0 19 -7 37.5t-20 33.5t-33 23.5t-45 8.5q-27 0 -46.5 -8.5t-32 -23.5t-19 -32.5t-6.5 -38.5z" />
<glyph unicode="&#xf710;" d="M-1154 1652q0 47 16 84t45 63.5t68 40t84 13.5q47 0 85.5 -13.5t65 -38t41.5 -59t15 -77.5q0 -19 -4.5 -43t-16.5 -44q65 12 127.5 40t116.5 62t97.5 71t73.5 69l91 -127q-44 -43 -110.5 -89.5t-146.5 -86.5t-170.5 -65t-180.5 -25q-145 0 -221 59t-76 166zM-1030 1650 q0 -19 6.5 -35.5t18.5 -28t27.5 -17.5t36.5 -6q40 0 63 25t23 62q0 39 -24 63.5t-62.5 24.5t-63.5 -24.5t-25 -63.5z" />
<glyph unicode="&#xf711;" d="M-888 1699q0 50 18 94.5t50.5 77t78 52t99.5 19.5t99.5 -19.5t78 -52t51 -77t18.5 -94.5q0 -52 -18.5 -95.5t-51 -76t-77.5 -50.5q-47 -18 -100 -18q-54 0 -99.5 18t-78 50.5t-50.5 76t-18 95.5zM-756 1696q0 -21 7.5 -41.5t21.5 -36t35.5 -25t49.5 -9.5q29 0 50.5 9.5 t35.5 25t21.5 36t7.5 41.5t-6.5 43t-20.5 38.5t-36.5 26t-52 9.5t-50 -9.5t-35.5 -26.5t-22 -38q-6 -22 -6 -43z" />
<glyph unicode="&#xf712;" d="M-1270 1720q0 72 26 127.5t70.5 92.5t105 56.5t131.5 19.5h34h39t39.5 -1t31.5 -1q57 0 96.5 7t66 21.5t46 40t33.5 64.5l131 -69q-17 -47 -42.5 -82.5t-66.5 -58.5t-101 -34.5t-143 -11.5h-136q-49 0 -85 -8.5t-61 -30t-38.5 -55t-13.5 -80.5q0 -15 3 -33t7.5 -32.5 t10.5 -28t12 -22.5q11 18 28 40.5t39.5 44.5t47.5 44t52 42q12 -37 32 -72.5t43.5 -67t48.5 -53.5t49 -31q-7 15 -12.5 29.5t-5.5 34.5q0 31 12 57.5t32.5 46t50 30.5t65.5 11q37 0 68 -11t52.5 -32t33.5 -50.5t12 -65.5q0 -35 -14 -68.5t-43 -58.5t-72 -40t-99 -15 q-53 0 -98.5 13.5t-81 35.5t-61.5 51t-40 60q-14 -12 -30 -32t-33 -42t-32 -45.5t-27 -44.5q-47 13 -85.5 43.5t-66.5 72t-45 90.5q-16 51 -16 102zM-657 1604q0 -12 4.5 -25t13.5 -22t20.5 -15t29.5 -6q16 0 28.5 6t21.5 15t13.5 21t4.5 26q0 12 -4.5 24t-13.5 21.5 t-20.5 15.5t-29.5 6t-29.5 -6t-20.5 -15.5t-13.5 -21.5t-4.5 -24z" />
<glyph unicode="&#xf713;" d="M-679 2093v331h174v-331h-174z" />
<glyph unicode="&#xf714;" d="M-864 2371q0 35 13 66.5t37 53t57 32.5q32 12 70.5 12t71 -12.5t54.5 -34.5t34.5 -54.5t12.5 -72.5q0 -33 -8.5 -63.5t-22.5 -55.5t-32 -46q-18 -23 -37 -38q26 9 56.5 23.5t63 32.5t66 38t64 40.5t55.5 40.5t43 35l68 -115q-52 -39 -121.5 -77.5t-146 -72.5t-156.5 -59 t-151 -37l-47 101q18 8 38.5 21.5t38.5 28.5t31 29.5t19 26.5q-3 0 -8.5 -0.5t-10.5 -0.5q-27 0 -54 9.5t-49.5 30t-35.5 50t-13 68.5zM-761 2368q0 -27 18 -47t53.5 -20t54.5 20t19 47q0 15 -4.5 28t-14 23.5t-23.5 16.5t-31.5 6t-31 -6t-22.5 -16.5t-13.5 -23.5t-4.5 -28z " />
<glyph unicode="&#xf715;" d="M-1009 2229q0 47 13 94.5t41.5 87.5t74 66.5t110.5 35.5l113 -83l115 83q57 -6 96.5 -28t65 -56t36.5 -74t11 -82q0 -29 -7 -57q-9 -29 -18 -45l1 -1q23 6 51 19t56 28.5t51.5 31t35.5 30.5l49 -117q-38 -20 -83.5 -40t-94 -37t-99 -30t-99.5 -21q-7 19 -14.5 38 t-13.5 38q24 21 40 58t16 83q0 56 -21.5 89.5t-56.5 51.5l-117 -83l-116 83q-14 -3 -27.5 -11.5t-24.5 -19.5t-19 -24t-13 -28q7 1 16 2q6 1 15 1q30 0 56.5 -9t46.5 -27t31 -43t11 -57q0 -33 -11 -59.5t-31.5 -45t-49.5 -29.5t-65 -11q-40 0 -71.5 14.5t-54 39.5t-34 62 t-11.5 82zM-897 2171q0 -12 4.5 -21.5t12 -18.5t18.5 -13.5t26 -4.5t26 4.5t18.5 13.5t11.5 19.5t4 20.5q0 12 -3.5 23t-11.5 20t-18.5 15t-26.5 6q-31 0 -46 -19.5t-15 -44.5z" />
<glyph unicode="&#xf716;" d="M-851 2208v129h173v149h173v-149h172v-129h-172v-148h-173v148h-173z" />
<glyph unicode="&#xf717;" d="M-826 2063q0 24 4.5 47.5t18 47.5t37 46.5t59.5 45.5q29 17 69 33.5t87.5 29t100.5 22.5q53 9 110 18l53 -118q-30 0 -64.5 -4.5t-68.5 -12t-64 -16.5q-31 -9 -49 -16q16 -6 30.5 -19.5t24.5 -30.5t16 -37t6 -40q0 -39 -14 -70.5t-39 -54t-59 -35t-74 -12.5 q-43 0 -77 12.5t-58.5 36.5t-36.5 55q-12 34 -12 72zM-716 2060q0 -15 4.5 -29t13 -25t23.5 -17t36 -6q20 0 33.5 6t23 17t15 25t5.5 29t-5.5 28.5t-15 23.5t-24.5 16t-32 6q-20 0 -34 -6t-24 -16t-15 -24q-4 -13 -4 -28z" />
<glyph unicode="&#xf718;" d="M-589 -699q0 40 13.5 75t38.5 61.5t62 41.5t84 15q54 0 93.5 -16.5t66.5 -44.5t39.5 -68t12.5 -87v-267h-182v119q-10 -3 -23 -4.5t-23 -1.5q-38 0 -71.5 12.5t-58 36t-38.5 56.5q-14 34 -14 72zM-468 -694q0 -33 21 -53.5t53.5 -20.5t52.5 20.5t20 53.5q0 32 -20 52 t-52.5 20t-53.5 -20t-21 -52z" />
<glyph unicode="&#xf719;" d="M-966 -693q0 40 13 76.5t38.5 61.5t62.5 41q35 15 82 15q54 0 94.5 -15.5t66.5 -44.5t39 -69q14 -41 14 -88v-139h186v338h189v-472h-556v126q-10 -3 -23.5 -5t-23.5 -2q-39 0 -72 13t-57.5 37t-38.5 56.5t-14 70.5zM-847 -687q0 -32 21 -53t53.5 -21t53 21t20.5 53 q0 33 -20 54q-21 20 -53.5 20t-53.5 -20.5t-21 -53.5z" />
<glyph unicode="&#xf71a;" d="M-403 -630q0 23 7.5 45.5t22.5 40t38.5 28t53 10.5t53.5 -10.5t38.5 -26.5t23 -38.5t8.5 -46t-7.5 -45t-23 -38.5t-38.5 -27.5t-54 -10.5q-30 0 -52 10.5t-38.5 26.5t-23.5 38q-8 20 -8 44z" />
<glyph unicode="&#xf71d;" horiz-adv-x="1500" d="M30 966.5q0 59.5 19 106t54.5 79t84.5 50.5t108 18q68 0 117.5 -22.5t82 -59.5t48.5 -88q15 -50 15 -109v-376q0 -43 -1.5 -77.5t-2 -62.5t-1 -53.5t-0.5 -48.5l229 503h129l231 -503q0 22 -1.5 46.5t-3 52.5t-2.5 62t-1 75v94t1 102.5t1 101v93.5v3q-42 -18 -90.5 -28 t-102.5 -10q-47 0 -90 10t-75.5 32.5t-52.5 56.5t-20 81q0 43 18.5 78t52.5 60.5t80 40t102 14.5q74 0 129 -18t93 -48q13 32 21 68q9 36 9 66h202q-4 -36 -13 -71.5t-23 -71.5t-33 -70q-21 -34 -45 -64q15 -33 21 -67.5t6 -70.5v-941h-204l-275 611l-273 -611h-207v743 q-19 -6 -40.5 -10.5t-45.5 -4.5q-44 0 -88.5 15.5t-81.5 45t-59 74t-22 104zM182 968q0 -19 6.5 -37.5t20 -32.5t32.5 -23t46 -9t46 9t31.5 23t19.5 32.5t7 37.5q0 21 -6 39.5t-19.5 33t-32.5 24t-46 9.5t-46 -9.5t-32.5 -25t-20 -34t-6.5 -37.5zM854 1098q0 -15 8 -26 t20.5 -19t29.5 -12.5t38 -4.5q45 0 82 16.5t66 42.5q-21 33 -56.5 51.5t-88.5 18.5q-47 0 -73 -18.5t-26 -48.5z" />
<glyph d="M-696 1631q0 47 21 89q27 56 71.5 79.5t94.5 23.5q-28 20 -40.5 50t-12.5 63q0 47 16 84t45.5 63t71 40t89.5 14q38 0 70.5 -12t59.5 -32l-61 -104q-12 12 -30.5 21t-38.5 9q-26 0 -43.5 -9t-28.5 -24t-17 -32t-6 -33t6 -31t14.5 -27.5t23.5 -20.5t33 -11 q-12 -28 -25 -56q-14 -29 -25 -58q-26 15 -58 15q-21 0 -39.5 -7.5t-30.5 -19.5t-19 -29.5t-7 -38.5q0 -18 5.5 -34t17.5 -28t28.5 -20t36.5 -8q5 0 10 0.5t8 0.5l-9 -118q-3 0 -6 -1q-6 -1 -9 -1q-48 0 -87.5 15.5t-67.5 42.5t-44.5 64t-16.5 81z" />
<glyph horiz-adv-x="1015" d="M-888 1699q0 50 18 94.5t50.5 77t78 52t99.5 19.5t99.5 -19.5t78 -52t51 -77t18.5 -94.5q0 -52 -18.5 -95.5t-51 -76t-77.5 -50.5q-47 -18 -100 -18q-54 0 -99.5 18t-78 50.5t-50.5 76t-18 95.5zM-756 1696q0 -21 7.5 -41.5t21.5 -36t35.5 -25t49.5 -9.5q29 0 50.5 9.5 t35.5 25t21.5 36t7.5 41.5t-6.5 43t-20.5 38.5t-36.5 26t-52 9.5t-50 -9.5t-35.5 -26.5t-22 -38q-6 -22 -6 -43zM-15 820q6 195 120 297.5t326 102.5q100 0 178 -24.5t129.5 -70t78.5 -109.5t27 -146v-870h-191v867q0 45 -15 83.5t-44 65.5t-71.5 42.5t-99.5 15.5 q-53 0 -98 -14.5t-78.5 -46.5t-52.5 -80t-19 -113h-190z" />
<glyph horiz-adv-x="1015" d="M-888 1699q0 50 18 94.5t50.5 77t78 52t99.5 19.5t99.5 -19.5t78 -52t51 -77t18.5 -94.5q0 -52 -18.5 -95.5t-51 -76t-77.5 -50.5q-47 -18 -100 -18q-54 0 -99.5 18t-78 50.5t-50.5 76t-18 95.5zM-756 1696q0 -21 7.5 -41.5t21.5 -36t35.5 -25t49.5 -9.5q29 0 50.5 9.5 t35.5 25t21.5 36t7.5 41.5t-6.5 43t-20.5 38.5t-36.5 26t-52 9.5t-50 -9.5t-35.5 -26.5t-22 -38q-6 -22 -6 -43zM-15 820q6 195 120 297.5t326 102.5q100 0 178 -24.5t129.5 -70t78.5 -109.5t27 -146v-870h-191v867q0 45 -15 83.5t-44 65.5t-71.5 42.5t-99.5 15.5 q-53 0 -98 -14.5t-78.5 -46.5t-52.5 -80t-19 -113h-190z" />
<glyph horiz-adv-x="1475" d="M47 815q0 73 25.5 141t68.5 123.5t97.5 93.5t113.5 48l136 -99l145 98q49 -12 91.5 -42t73.5 -71t48 -93t17 -111q0 -64 -17 -119.5t-42.5 -100t-52 -77t-44.5 -52.5q100 -89 198 -178t199 -178v1014h192v-1212h-239l-373 346v-346h-296l-228 309q22 37 61 78.5t86.5 80 t99.5 72.5t102 55q36 30 68.5 59.5t56 65.5t37.5 78.5t14 93.5q0 21 -3.5 42.5t-12.5 43t-22.5 40t-33.5 33.5l-125 -85l-133 92q-18 -6 -32.5 -17t-25 -24.5t-18.5 -26.5q-10 -13 -13 -25q54 6 95.5 -8t68.5 -41.5t41 -63t14 -71.5q0 -42 -16 -78.5t-44 -64.5t-68 -43 t-88 -15q-47 0 -87 13.5t-70.5 43t-47.5 74t-17 104.5zM181 781q0 -17 4 -33.5t16 -30t28.5 -20.5t39.5 -7t40 7t28.5 20.5t17.5 30t6 30.5q0 18 -6 34.5t-17.5 29t-28.5 19.5q-16 8 -40 8q-22 0 -39 -8.5t-28 -20t-16 -28t-5 -31.5zM373 305q30 -39 61 -78t60 -78v255 q-17 -10 -35 -22.5t-34.5 -26t-29.5 -26.5q-13 -12 -22 -24z" />
<glyph horiz-adv-x="1884" d="M74 827v179q9 3 24.5 9t35.5 15t42 21t45 26q59 39 114.5 67t110 46t111 26t112.5 8q118 0 207 -27.5t149.5 -75t90.5 -111t30 -132.5v-412q44 -23 95 -57.5t100.5 -73.5t95.5 -80.5t79 -79.5v1037h192v-1212h-225q-36 38 -80 81t-89.5 83t-88.5 75q-44 33 -79 54v-293 h-270l-155 266q18 33 43.5 65.5t56 62t65.5 53.5t70 41v373q0 57 -23.5 97.5t-63.5 67t-92.5 39t-110.5 12.5q-68 0 -125 -16t-108 -39.5t-97 -49t-93 -44.5l148 -16v-469q17 5 36.5 7.5t38.5 2.5q48 0 90 -15.5t73 -44.5t50.5 -72t19.5 -96q0 -56 -18.5 -100.5t-52 -74 t-79.5 -46t-99 -16.5q-65 0 -111.5 21t-77 55.5t-46 82t-15.5 100.5v564q-27 3 -60 7.5t-66 8.5zM351 222q0 -21 6.5 -40t20 -34t32.5 -23t46 -8q24 0 43 8t32.5 23t20.5 34t7 40t-7 40t-20.5 32.5t-32.5 22.5t-43 9t-44.5 -9t-34 -22.5t-20 -32.5t-6.5 -40zM891 263 l71 -121v192q-21 -14 -40 -35t-31 -36z" />
<glyph horiz-adv-x="1919" d="M102 761q0 77 21.5 152.5t64.5 138t109.5 108t155.5 61.5l189 -111l208 112q75 -11 136.5 -41.5t105 -75.5t67.5 -106t24 -132v-411q44 -24 94.5 -56.5t100 -69.5t95 -77t80.5 -78v1037h190v-1212h-223q-36 38 -80 79.5t-90 80t-89.5 71t-79.5 52.5v-283h-269l-166 234 q18 32 44.5 65.5t60 64t69.5 56t72 43.5v369q0 38 -9 74.5t-28.5 65t-49 51t-70.5 32.5l-190 -103l-186 105q-43 -18 -74 -47.5t-51 -66.5t-29 -83t-9 -96q0 -88 13.5 -173t29.5 -165t31 -152.5t15 -132.5l223 321q-34 1 -66.5 15t-58.5 41t-41.5 64t-15.5 83q0 48 18 86 t47.5 64t68 39t78.5 13q47 0 88 -14.5t69 -41.5t44 -64q16 -40 16 -84q0 -24 -7 -54t-22 -58q-13 -29 -37 -69.5t-55 -88t-66.5 -100t-71 -104t-69 -100.5t-59.5 -89h-246q0 90 -19 184t-41.5 190.5t-41 192.5t-18.5 194zM548 662q0 -18 5.5 -35t17.5 -30.5t30 -21 t41.5 -7.5t40.5 7.5t28 21t17 29.5t6 34t-5 34t-16 29.5t-29 22.5t-42 9q-23 0 -41 -9t-30 -21.5t-17.5 -29.5t-5.5 -33zM921 234l77 -107v181q-11 -8 -22 -17.5t-22 -20t-20 -19.5q-8 -8 -13 -17z" />
<glyph horiz-adv-x="1965" d="M75 827v179q9 3 24.5 9t35 15t41.5 21t46 26q59 39 111.5 67t105 46t106 26t111.5 8q124 0 213.5 -27.5t146 -75t83 -111t26.5 -132.5v-694l376 278v750h192v-713q52 0 100 -15.5t84.5 -46.5t58 -78.5t21.5 -111.5q0 -65 -21.5 -111.5t-61.5 -76t-95.5 -44.5t-123.5 -15 h-154v138v137l-358 -275h-211v861q0 57 -19 97.5t-56 67t-89 39t-114 12.5q-68 0 -122.5 -16t-102 -39.5t-92.5 -49t-94 -44.5l149 -16v-450q21 7 44 11t46 4q49 0 94.5 -16.5t79.5 -47t54 -74.5q21 -43 21 -99q0 -59 -19 -105t-54 -78.5t-83 -49t-107 -16.5 q-64 0 -113.5 19.5t-83.5 56.5t-52 90t-18 118v536q-26 3 -59.5 7.5t-66.5 8.5zM370 237q0 -21 6 -38.5t19 -32.5t32.5 -24.5t46 -9.5t46 9.5t32.5 24.5t20 34t7 37q0 19 -7 37.5t-20 33.5t-33 23.5t-45 8.5q-27 0 -46.5 -8.5t-32 -23.5t-19 -32.5t-6.5 -38.5zM1690 135 q52 1 82.5 32t30.5 79q0 49 -29 79q-31 30 -84 30v-220z" />
<glyph horiz-adv-x="1463" d="M30 966q0 60 19 106.5t54.5 79t84.5 50.5t108 18q68 0 117 -22.5t81.5 -61t48.5 -90t16 -111.5v-760l439 302v735h190v-694q57 0 106.5 -18t86.5 -50.5t57.5 -81t20.5 -113.5q0 -57 -18.5 -103.5t-53 -80.5t-83.5 -52.5t-108 -18.5h-198v290l-403 -290h-228v743 q-21 -6 -42.5 -10.5t-43.5 -4.5q-44 0 -88.5 15t-81.5 44.5t-59 74t-22 104.5zM181 968q0 -19 7 -37.5t20.5 -32.5t32 -23t45.5 -9q26 0 45.5 9t32 23t20 32.5t7.5 37.5q0 21 -7 39.5t-19.5 33t-32.5 24t-46.5 9.5t-45.5 -9.5t-32 -25t-20 -34t-7 -37.5zM1188 135 q60 1 90 33.5t30 86.5q0 50 -29.5 82.5t-90.5 32.5v-235z" />
<glyph horiz-adv-x="1444" d="M130 966q0 60 19.5 106.5t55 79t84 50.5t108.5 18q68 0 117.5 -21.5t82 -58.5t48 -88.5t15.5 -108.5v-391l420 -377v1037h193v-1212h-240q-95 86 -187 172q-91 86 -186 171v-343h-281l-222 302q21 35 54 73.5t74.5 73.5t88 64t94.5 46v184q-23 -9 -42.5 -12t-43.5 -3 q-45 0 -90 15.5t-81 46t-58.5 75t-22.5 101.5zM283 968q0 -19 6.5 -37.5t20 -32.5t32.5 -23t46 -9q26 0 44.5 9t31.5 23t20 32.5t7 37.5q0 21 -6.5 39.5t-19 33t-32 24t-45.5 9.5q-27 0 -47 -9.5t-32.5 -25t-19 -34t-6.5 -37.5zM358 287l111 -152v244q-38 -18 -66 -45 q-27 -26 -45 -47z" />
<glyph horiz-adv-x="1056" d="M43.5 697.5q0.5 15.5 0.5 30.5q0 135 33.5 229t92 153t137 85.5t165.5 26.5q50 0 93 -5.5t81 -13t73.5 -13.5t70.5 -6q42 0 76 11q34 13 60 30v-165q-20 -17 -54 -25.5t-71 -8.5t-74 7t-74 15.5t-75.5 16t-78.5 7.5q-54 0 -96 -13.5t-73 -38.5t-49.5 -60.5t-21.5 -80.5 h628q0 -154 0.5 -305t0.5 -303q0 -59 -16.5 -109.5t-49 -88t-82.5 -58.5t-117 -21q-59 0 -108 17t-83.5 49.5t-54.5 79t-20 106.5q0 56 20.5 100.5t55.5 75.5t78.5 47t89.5 16q27 0 49.5 -4t45.5 -13v278h-364q-39 0 -65.5 -19.5t-34.5 -59.5h-188q-1 15 -0.5 30.5zM509 244 q0 -19 6.5 -38.5t19.5 -34t33 -23.5q18 -9 45 -9q26 0 45.5 9t32.5 23.5t20 32.5t7 39q0 19 -7 37.5t-19.5 33.5t-32.5 23.5t-46.5 8.5t-45 -8.5t-32 -23.5t-20 -33t-6.5 -37z" />
<glyph d="M-354 2023v332h175v-332h-175z" />
<glyph d="M-784 2327q0 35 14 66t38.5 52.5t57 33.5t71 12t69.5 -12.5t54.5 -35t35.5 -55t12 -72.5q0 -32 -9 -62.5t-24 -55.5t-32 -47q-18 -23 -36 -38q27 9 57.5 24t63.5 32.5t65.5 37.5t62 41t55.5 41t44 35l67 -116q-52 -38 -121 -76.5t-146 -72.5t-155.5 -59.5t-150.5 -37.5 l-46 101q18 9 38.5 22.5t38.5 28t31 29.5t19 27q-3 0 -10.5 -1t-9.5 -1q-27 0 -54.5 9.5t-49.5 30.5t-36 50.5t-14 68.5zM-681 2324q0 -27 18.5 -47t54 -20t54 20t18.5 47q0 14 -4.5 27.5t-13 24t-22 16.5t-32.5 6q-18 0 -31.5 -6t-23 -16.5t-14 -24t-4.5 -27.5z" />
<glyph d="M-980 2170q0 47 13.5 94.5t41.5 87.5t74 66.5t111 35.5l112 -83l116 83q56 -6 96 -28t65 -56.5t36.5 -74t11.5 -81.5q0 -30 -8 -58q-9 -28 -18 -44l2 -2q22 6 50 19.5t56.5 29t52 31t35.5 30.5l49 -117q-39 -21 -84 -41t-94 -37t-99 -29.5t-99 -21.5q-8 20 -15 39t-13 38 q23 21 39.5 58t16.5 83q0 56 -21.5 89.5t-57.5 50.5l-117 -82l-115 82q-15 -2 -28 -10.5t-24.5 -19.5t-19.5 -24.5t-12 -27.5q7 1 15 2q7 1 16 1q29 0 56 -9t47 -27t31 -43t11 -58q0 -32 -11 -58.5t-32 -45t-50 -30t-64 -11.5q-40 0 -72 15t-54 40t-34 62t-12 82zM-867 2112 q0 -12 4.5 -21.5t11.5 -18.5t18.5 -13.5t25.5 -4.5q15 0 26 4.5t18.5 13.5t12 19.5t4.5 20.5q0 12 -3.5 23t-12 20t-18.5 15t-27 6q-31 0 -45.5 -19.5t-14.5 -44.5z" />
<glyph d="M-562 2146v127h171v151h175v-151h172v-127h-172v-148h-175v148h-171z" />
<glyph d="M-679 2004v331h174v-331h-174z" />
<glyph d="M-888 2297q0 35 14 66.5t38.5 53t57 33t71 11.5t69.5 -12.5t55 -34.5t35.5 -54.5t11.5 -72.5q0 -33 -9 -63.5t-23.5 -55.5t-32.5 -46q-18 -23 -35 -38q26 9 56.5 23.5t64 32.5t66 38t62 40.5t55.5 40.5t43 35l67 -115q-52 -39 -120.5 -77.5t-145.5 -72.5t-155.5 -59 t-151.5 -37l-46 101q18 8 39 21.5t38.5 28.5t31 29.5t19.5 26.5q-3 0 -10.5 -0.5t-10.5 -0.5q-27 0 -54 9.5t-49.5 30t-36.5 50t-14 68.5zM-784 2294q0 -27 18.5 -47t54 -20t54 20t18.5 47q0 15 -4.5 28t-13.5 23.5t-22.5 16.5t-32.5 6q-18 0 -31 -6t-23 -16.5t-14 -23.5 t-4 -28z" />
<glyph d="M-1009 2155q0 47 13 94.5t41.5 87.5t74 66.5t110.5 35.5l113 -83l115 83q57 -6 96.5 -28t65 -56t36.5 -74t11 -82q0 -29 -7 -57q-9 -29 -18 -45l1 -1q23 6 51 19t56 28.5t51.5 31t35.5 30.5l49 -117q-38 -20 -83.5 -40t-94 -37t-99 -30t-99.5 -21q-7 19 -14.5 38 t-13.5 38q24 21 40 58t16 83q0 56 -21.5 89.5t-56.5 51.5l-117 -83l-116 83q-14 -3 -27.5 -11.5t-24.5 -19.5t-19 -24t-13 -28q7 1 16 2q6 1 15 1q30 0 56.5 -9t46.5 -27t31 -43t11 -57q0 -33 -11 -59.5t-31.5 -45t-49.5 -29.5t-65 -11q-40 0 -71.5 14.5t-54 39.5t-34 62 t-11.5 82zM-897 2097q0 -12 4.5 -21.5t12 -18.5t18.5 -13.5t26 -4.5t26 4.5t18.5 13.5t11.5 19.5t4 20.5q0 12 -3.5 23t-11.5 20t-18.5 15t-26.5 6q-31 0 -46 -19.5t-15 -44.5z" />
<glyph d="M-851 2119v129h173v150h173v-150h172v-129h-172v-148h-173v148h-173z" />
<glyph d="M-1137 1471v172q27 9 59.5 26.5t68 38.5t75.5 44.5t83 42t87.5 31t88.5 12.5q56 0 103.5 -12t90.5 -29.5t81.5 -40.5t75.5 -44.5t74 -40.5t77 -31v-169h-964zM-972 1585h609v3q-38 15 -73.5 36.5t-72.5 40.5t-78 31.5t-88 12.5q-41 0 -79 -13t-74 -32.5t-72 -39.5 q-35 -20 -72 -34v-5z" />
<glyph d="M-1137 1471v172q27 9 59.5 26.5t68 38.5t75.5 44.5t83 42t87.5 31t88.5 12.5q49 0 92.5 -9t82 -24.5t73.5 -33.5q36 -19 69 -39v233h185v-494h-964zM-972 1585h609v3q-38 15 -73.5 36.5t-72.5 40.5t-78 31.5t-88 12.5q-41 0 -79 -13t-74 -32.5t-72 -39.5q-35 -20 -72 -34 v-5z" />
<glyph d="M-1137 1471v172q27 9 59.5 26.5t68 38.5t75.5 44.5t83 42t87.5 31t88.5 12.5q36 0 67 -5q31 -4 60 -13q3 39 19.5 70t43 53t60.5 34t76 12q44 0 81 -13.5t65 -38.5t43.5 -60.5t15.5 -79.5q2 -94 -60 -147q9 -3 16 -5t15 -5v-169h-964zM-972 1585h609v3q-38 15 -73.5 36.5 t-72.5 40.5t-78 31.5t-88 12.5q-41 0 -79 -13t-74 -32.5t-72 -39.5q-35 -20 -72 -34v-5zM-437 1793.5q0 -38.5 24 -63t64 -24.5q19 0 34.5 7t27.5 18.5t18.5 27.5t6.5 35q0 38 -24.5 63.5t-62.5 25.5q-40 0 -64 -25q-24 -26 -24 -64.5z" />
<glyph d="M-1137 1471v172q27 9 59.5 26.5t68 38.5t75.5 44.5t83 42t87.5 31t88.5 12.5q12 0 25.5 -1.5t24.5 -1.5v130h163v-177q34 -15 64.5 -33.5t61.5 -36.5v247h163v-494h-964zM-972 1585h609v3q-38 15 -73.5 36.5t-72.5 40.5t-78 31.5t-88 12.5q-41 0 -79 -13t-74 -32.5 t-72 -39.5q-35 -20 -72 -34v-5z" />
<glyph d="M-454 1474v446h182v-446h-182z" />
<glyph d="M-891 1871q0 40 15 72.5t40 55.5t60.5 36t77 13t75.5 -13t58.5 -38.5t37.5 -60t13 -77.5q0 -30 -8 -61t-22.5 -60.5t-36 -58.5t-48.5 -52q46 19 99 47.5t106 61.5t99.5 66t75.5 61l76 -128q-31 -27 -74 -55t-94 -55t-107.5 -53.5t-115 -48.5t-117.5 -40t-112 -30l-54 113 q23 12 44.5 29.5t40.5 37t32.5 37t19.5 29.5h-7.5h-7.5q-30 0 -59.5 10.5t-53 32.5t-38.5 54t-15 75zM-780 1868q0 -30 20 -52t58.5 -22t57.5 22t19 52q0 15 -4 29.5t-14 25.5t-24 18t-35 7q-19 0 -34.5 -7t-24.5 -18t-14 -25.5t-5 -29.5z" />
<glyph d="M-1119 1684q0 52 15 104.5t46.5 94.5t81.5 72.5t121 39.5q31 -22 62 -49.5t62 -48.5l124 98q61 -6 104.5 -31t70 -61.5t40.5 -80.5q13 -46 13 -90q0 -33 -6 -59.5t-18 -44.5l2 -3q24 10 51 28t54 37t49 38.5t35 34.5l52 -134q-35 -26 -79.5 -53.5t-95.5 -49.5t-105 -39 q-54 -16 -108 -25q-7 21 -15 41.5t-16 41.5q27 21 44 62.5t17 91.5q0 59 -24 98q-23 40 -62 57l-127 -90l-129 92q-15 -3 -29.5 -12.5t-26.5 -22t-21 -27.5t-13 -30q9 2 17.5 2.5t17.5 0.5q33 0 61 -10.5t49 -29.5t33 -46q13 -26 13 -62q0 -35 -12.5 -65t-35 -50.5 t-54.5 -32.5q-33 -12 -71 -12q-45 0 -79 18t-57.5 47.5t-37 71t-13.5 88.5zM-995 1613q0 -12 4.5 -23t13 -20t20 -14t28.5 -5q16 0 28.5 5t21.5 14t12.5 20t3.5 23t-3.5 25.5t-12 22t-21 14.5t-29.5 6q-18 0 -30 -6t-19.5 -14.5t-12 -20.5t-4.5 -27z" />
<glyph d="M-639 1632v132h186v170h181v-170h183v-132h-183v-173h-181v173h-186z" />
<glyph d="M-728 1634q0 53 29.5 105.5t91.5 91.5q31 18 72.5 35t89.5 31t103 25t114 20l55 -139q-30 0 -64.5 -4.5t-70 -11.5t-65.5 -15t-49 -17q18 -6 32 -19t24.5 -30t16.5 -37t6 -40q0 -38 -13.5 -70t-38.5 -55.5t-60.5 -37t-77.5 -13.5q-44 0 -79.5 13.5t-61.5 38t-40 57.5 t-14 72zM-610 1628q0 -15 4.5 -28t15 -24.5t23.5 -18t34 -6.5t35 6.5t23.5 18t14 24.5t4.5 28q0 30 -19 52t-58 22q-18 0 -32.5 -6t-24 -16.5t-15 -23.5t-5.5 -28z" />
<glyph d="M-941 1652q0 47 17 84t45.5 63.5t68.5 40.5q40 13 85 13q47 0 84 -13.5t63.5 -38t41.5 -59t15 -77.5q0 -19 -4.5 -43t-13.5 -44q65 12 126.5 40t115.5 62t98.5 71t72.5 69l90 -127q-44 -43 -110 -89.5t-146.5 -86.5t-169.5 -65t-180 -25q-145 0 -222 59t-77 166z M-814 1650q0 -19 6 -35.5t18 -28t28 -17.5t34 -6q40 0 64.5 25t24.5 62q0 39 -24 63.5t-65 24.5q-39 0 -62.5 -24.5t-23.5 -63.5z" />
<glyph d="M-1294 1471v172q18 6 36 13.5t43 20.5t60.5 34t90.5 50q72 42 137.5 59.5t127.5 17.5t136 -17t151 -60q47 -26 82.5 -46t62.5 -34.5t50.5 -24.5t47.5 -16v-169h-1025zM-1128 1585h669v3q-41 15 -76.5 36.5t-74 40.5t-84 31.5t-107.5 12.5q-29 0 -56.5 -5t-51 -14t-46 -19 t-43.5 -22q-14 -9 -30.5 -17t-34 -16.5t-34.5 -16t-31 -9.5v-5z" />
<glyph d="M-1294 1471v172q18 6 36 13.5t43 20.5t60.5 34t90.5 50q72 42 137.5 59.5t127.5 17.5t136 -17t151 -60l56 -32v236h187v-494h-1025zM-1128 1585h669v3q-41 15 -76.5 36.5t-74 40.5t-84 31.5t-107.5 12.5q-29 0 -56.5 -5t-51 -14t-46 -19t-43.5 -22q-14 -9 -30.5 -17 t-34 -16.5t-34.5 -16t-31 -9.5v-5z" />
<glyph d="M-1294 1471v172q18 6 36 13.5t43 20.5t61.5 34t89.5 50q71 40 137 58.5t128 18.5q23 0 45.5 -3t43 -6t37 -7.5t28.5 -9.5q1 41 17.5 73.5t43 56t62.5 35.5q34 12 75 12q44 0 82 -13.5t65.5 -38.5t43.5 -60.5t16 -79.5q0 -92 -62 -147q9 -3 16.5 -6.5t16.5 -5.5v-167 h-1025zM-1128 1585h669v3q-41 15 -76.5 36.5t-74 40.5t-84 31.5t-107.5 12.5q-29 0 -56.5 -5t-51 -14t-46 -19t-43.5 -22q-14 -9 -30.5 -17t-34 -16.5t-34.5 -16t-31 -9.5v-5zM-533 1793.5q0 -38.5 24 -63t64 -24.5q19 0 35 7t28 18.5t18 27.5t6 35q0 38 -24.5 63.5 t-62.5 25.5q-40 0 -64 -25q-24 -26 -24 -64.5z" />
<glyph d="M-1294 1471v172q18 6 36 13.5t43 20.5t60.5 34t90.5 50q72 42 137.5 59.5t127.5 17.5q19 0 38.5 -1.5t39.5 -4.5v133h162v-180q11 -6 23 -12l24 -12q24 -12 43 -23.5t37 -20.5v248h163v-494h-1025zM-1128 1585h669v3q-41 15 -76.5 36.5t-74 40.5t-84 31.5t-107.5 12.5 q-29 0 -56.5 -5t-51 -14t-46 -19t-43.5 -22q-14 -9 -30.5 -17t-34 -16.5t-34.5 -16t-31 -9.5v-5z" />
<glyph d="M-607 1702q0 50 18 94.5t50.5 77t78.5 52t99 19.5q55 0 100 -19.5t77.5 -52t51 -77t18.5 -94.5q0 -52 -18.5 -95.5t-51 -76t-77.5 -51.5q-47 -18 -100 -18t-99 18.5t-78.5 51t-50.5 76t-18 95.5zM-475 1701q0 -21 7.5 -42t21.5 -36.5t35.5 -25.5t49.5 -10q29 0 50.5 10 t36 25.5t21.5 35.5t7 43q0 20 -6.5 41.5t-20.5 38t-36.5 26.5t-52 10t-50 -10t-35.5 -26.5t-21.5 -37t-6.5 -42.5z" />
<glyph d="M-444 2112v331h175v-331h-175z" />
<glyph d="M-710 2386q0 35 14 66t38.5 52.5t57 33.5t71 12t69.5 -12.5t54.5 -35t35.5 -55t12 -72.5q0 -32 -9 -62.5t-24 -55.5t-32 -47q-18 -23 -36 -37q27 9 57.5 23.5t63.5 32.5t65.5 38t62 40.5t55.5 40.5t44 35l67 -116q-52 -38 -121 -76.5t-146 -72.5t-155.5 -59t-150.5 -37 l-46 100q18 9 38.5 22.5t38.5 28t31 29.5t19 27q-3 0 -10.5 -1t-9.5 -1q-27 0 -54.5 10t-49.5 30.5t-36 50t-14 68.5zM-607 2383q0 -27 18.5 -47t54 -20t54 20t18.5 47q0 15 -4.5 28t-13 23.5t-22 16.5t-32.5 6q-18 0 -31.5 -6t-23 -16.5t-14 -23.5t-4.5 -28z" />
<glyph d="M-855 2244q0 47 13 94.5t42.5 87.5t75.5 66.5t111 35.5l113 -83l112 83q56 -6 96 -28t65.5 -56.5t37 -74t11.5 -81.5q0 -30 -7 -58t-16 -44v-2q22 6 50 19.5t55.5 29t51 31t37.5 30.5l48 -117q-38 -21 -82.5 -41t-93.5 -37t-100 -29.5t-99 -21.5q-8 20 -14.5 39t-15.5 38 q24 21 41.5 58t17.5 83q0 56 -22 89.5t-58 50.5l-115 -82l-117 82q-15 -2 -28.5 -10.5t-24.5 -19.5t-19 -24.5t-13 -27.5l16 2t17 1q30 0 56.5 -9t45.5 -27t31 -43t12 -58q0 -32 -12 -58.5t-32.5 -45t-50 -30t-65.5 -11.5q-40 0 -71.5 15t-54 40t-34 62t-11.5 82zM-740 2186 q0 -12 3 -21.5t11 -18.5t19 -13.5t26 -4.5t26 4.5t19 13.5t12 19.5t4 20.5q0 12 -4 23t-11 20t-19 15t-27 6q-31 0 -45 -19.5t-14 -44.5z" />
<glyph d="M-622 2227v129h172v148h175v-148h171v-129h-171v-149h-175v149h-172z" />
<glyph d="M-450 2023v332h175v-332h-175z" />
<glyph d="M-879 2327q0 35 13.5 66t37 52.5t56.5 33.5q32 12 70.5 12t71 -12.5t54.5 -35t35 -55t13 -72.5q0 -32 -9 -62.5t-23 -55.5t-32 -47q-18 -23 -37 -38q27 9 57 24t62.5 32.5t66 37.5t64 41t55.5 41t43 35l68 -116q-52 -38 -121.5 -76.5t-145.5 -72.5t-156 -59.5t-151 -37.5 l-48 101q18 9 38.5 22.5t38.5 28t31.5 29.5t19.5 27q-3 0 -9 -1t-11 -1q-26 0 -53.5 9.5t-49.5 30.5t-35.5 50.5t-13.5 68.5zM-776 2324q0 -27 18 -47t53.5 -20t55 20t19.5 47q0 14 -4.5 27.5t-14.5 24t-24 16.5t-31.5 6t-31 -6t-22.5 -16.5t-13.5 -24t-4.5 -27.5z" />
<glyph d="M-1077 2170q0 47 13 94.5t42.5 87.5t75.5 66.5t111 35.5l113 -83l112 83q56 -6 96 -28t65.5 -56.5t37 -74t11.5 -81.5q0 -30 -7 -58t-16 -44v-2q22 6 50 19.5t55.5 29t51 31t37.5 30.5l48 -117q-38 -21 -82.5 -41t-93.5 -37t-100 -29.5t-99 -21.5q-8 20 -14.5 39 t-15.5 38q24 21 41.5 58t17.5 83q0 56 -22 89.5t-58 50.5l-115 -82l-117 82q-15 -2 -28.5 -10.5t-24.5 -19.5t-19 -24.5t-13 -27.5l16 2t17 1q30 0 56.5 -9t45.5 -27t31 -43t12 -58q0 -32 -12 -58.5t-32.5 -45t-50 -30t-65.5 -11.5q-40 0 -71.5 15t-54 40t-34 62t-11.5 82z M-962 2112q0 -12 3 -21.5t11 -18.5t19 -13.5t26 -4.5t26 4.5t19 13.5t12 19.5t4 20.5q0 12 -4 23t-11 20t-19 15t-27 6q-31 0 -45 -19.5t-14 -44.5z" />
<glyph d="M-659 2146v127h174v151h174v-151h172v-127h-172v-148h-174v148h-174z" />
<glyph d="M-598 2078q0 24 6 47.5t19.5 47t37 46.5t58.5 45q30 18 70 34.5t87.5 29t99.5 22.5q54 9 110 18l51 -118q-30 0 -64 -4.5t-68 -12t-63.5 -16.5t-47.5 -16q16 -6 29.5 -19.5t24 -30.5t16.5 -37t6 -41q0 -38 -14.5 -70t-39.5 -54t-59 -34.5t-74 -12.5q-43 0 -77 12.5 t-57.5 36t-37.5 55.5q-13 33 -13 72zM-488 2075q0 -15 5 -29t14.5 -25t23.5 -17q13 -6 34 -6q20 0 35 6t24 17t13.5 25t4.5 29t-4.5 28t-15 23.5t-25.5 16.5t-32 6q-20 0 -34 -6t-23.5 -16.5t-14.5 -24.5q-5 -12 -5 -27z" />
<glyph horiz-adv-x="1015" d="M-607 1702q0 50 18 94.5t50.5 77t78.5 52t99 19.5q55 0 100 -19.5t77.5 -52t51 -77t18.5 -94.5q0 -52 -18.5 -95.5t-51 -76t-77.5 -51.5q-47 -18 -100 -18t-99 18.5t-78.5 51t-50.5 76t-18 95.5zM-475 1701q0 -21 7.5 -42t21.5 -36.5t35.5 -25.5t49.5 -10q29 0 50.5 10 t36 25.5t21.5 35.5t7 43q0 20 -6.5 41.5t-20.5 38t-36.5 26.5t-52 10t-50 -10t-35.5 -26.5t-21.5 -37t-6.5 -42.5zM-15 820q6 195 120 297.5t326 102.5q100 0 178 -24.5t129.5 -70t78.5 -109.5t27 -146v-870h-191v867q0 45 -15 83.5t-44 65.5t-71.5 42.5t-99.5 15.5 q-53 0 -98 -14.5t-78.5 -46.5t-52.5 -80t-19 -113h-190z" />
</font>
</defs>
</svg>
