<?xml version="1.0" standalone="no"?>
<!DOCTYPE svg PUBLIC "-//W3C//DTD SVG 1.1//EN" "http://www.w3.org/Graphics/SVG/1.1/DTD/svg11.dtd" >
<svg xmlns="http://www.w3.org/2000/svg">
<metadata></metadata>
<defs>
<font id="mn_paethaibold" horiz-adv-x="0" >
<font-face units-per-em="2048" ascent="1638" descent="-410" />
<missing-glyph horiz-adv-x="661" />
<glyph unicode="&#x2b;&#x2d;" horiz-adv-x="1227" d="M100 147v209h1029v-209h-1029zM100 703v208h373v283h283v-283h373v-208h-373v-290h-283v290h-373z" />
<glyph unicode="&#x2e;&#x2e;&#x2e;" horiz-adv-x="2046" d="M166 0v282h351v-282h-351zM847 0v282h350v-282h-350zM1526 0v282h350v-282h-350z" />
<glyph unicode="&#x3c;&#x3d;" horiz-adv-x="1123" d="M79 147v200h962v-200h-962zM79 770v231l962 387v-240l-649 -263l649 -262v-241z" />
<glyph unicode="&#x3e;&#x3d;" horiz-adv-x="1123" d="M82 147v200h959v-200h-959zM82 382v241l650 262l-650 263v240l962 -387v-231z" />
<glyph unicode="&#xe4f;&#x22;" horiz-adv-x="1424" d="M96 603q0 -83 21 -160.5t60 -144t94 -122t124.5 -94t148.5 -60.5t167 -22q89 0 169.5 22t149 60.5t123.5 94t95 122t60 143.5q21 78 21 161q0 82 -20.5 158.5t-60.5 144t-95 122t-123.5 94t-149 61t-169.5 21.5q-88 0 -167 -21.5t-148.5 -61t-124.5 -94t-94 -122 t-60 -144t-21 -158.5zM397 1502h253v-214h-224zM412 601q0 62 22 115.5t62.5 93.5t95.5 63.5t119 23.5q65 0 121 -23.5t96.5 -63.5t63 -94t22.5 -115q0 -62 -22.5 -115.5t-63 -93t-95.5 -63.5q-57 -23 -122 -23q-64 0 -119 23.5t-95.5 63t-62.5 93t-22 115.5zM541 603 q0 -36 13 -68t36.5 -55t54.5 -37t68 -14q35 0 66.5 14t55 37t37.5 54q13 33 13 69q0 35 -13.5 66t-37 54.5t-54 37.5t-67.5 14q-35 0 -67 -14t-55.5 -37.5t-36.5 -54.5t-13 -66zM773 1288v214h255l-30 -214h-225z" />
<glyph unicode="&#xe0e;&#xe3a;" horiz-adv-x="1480" d="M47 241q0 57 19 102t54.5 76t82.5 47t103 16h17h17v271q-18 3 -39.5 5.5t-41 5t-39.5 4.5t-35 4v229q2 0 20 4.5t44.5 14t56 22.5t56.5 31q55 38 109.5 64.5t110.5 45t116 26.5q61 8 128 8q132 0 230 -25.5t162 -72t95 -112t31 -143.5v-1308h-321q-37 35 -78 69 q-39 34 -84 63q-23 -32 -52.5 -59t-66 -46.5t-79.5 -29.5t-94 -10q-59 0 -106.5 15.5t-81.5 42t-53 63t-19 77.5q0 47 20.5 85.5t56.5 65.5t88 42t120 15q31 0 64.5 -5.5t70.5 -17.5q3 18 4 37q2 19 2 37h226q-5 -79 -28 -156q58 -29 96 -60v1042q0 47 -14.5 85.5 t-42.5 63.5t-70 38q-44 13 -99 10q-47 -1 -86 -11.5t-72 -24.5t-62 -30q-30 -16 -57 -28q-9 -3 -17.5 -7.5t-19 -8t-19 -7t-14.5 -5.5l200 -22v-584q0 -64 -20 -119t-60.5 -95t-102 -63.5t-145.5 -23.5q-62 0 -113.5 16t-89 48.5t-58 78t-20.5 104.5zM213 238 q0 -44 27.5 -72t71.5 -28t72 28t28 72t-28 72t-72 28q-22 0 -40 -7.5t-31 -20.5t-20.5 -32t-7.5 -40zM503 -254q0 -21 19.5 -36.5t52.5 -15.5q41 0 69.5 23.5t46.5 62.5q-28 10 -54.5 16.5t-49.5 6.5q-42 0 -63 -16t-21 -41zM979 -659q0 31 10.5 60t32.5 52.5t57 36.5t82 13 t82.5 -13t57.5 -36.5t32.5 -52.5t10.5 -60q0 -29 -11 -57t-34 -50t-57 -35t-81 -13t-80.5 13t-56.5 35t-34 50t-11 57z" />
<glyph unicode="&#xe0f;&#xe3a;" horiz-adv-x="1480" d="M47 241q0 57 19 102t54.5 76t82.5 47t103 16h17h17v271q-18 3 -39.5 5.5t-41 5t-39.5 4.5t-35 4v229q2 0 20 4.5t44.5 14t56 22.5t56.5 31q55 38 109.5 64.5t110.5 45t116.5 26.5t127.5 8q132 0 230 -27t162 -75t95 -112.5t31 -138.5v-1308h-364l-89 116l-85 -117h-147 q-12 22 -24 42.5t-23 37.5q-45 -41 -103.5 -66.5t-138.5 -25.5q-58 0 -105 15.5t-81 42t-51.5 63t-17.5 77.5q0 47 19 85.5t55 65.5t88 42t117 15q18 0 34.5 -1t32 -2.5t32 -6t36.5 -8.5q3 18 4.5 34t1.5 35h235q-11 -59 -27.5 -112t-36.5 -98q20 -22 32 -49l94 127h118 l79 -94v1067q0 47 -17.5 82t-48 57.5t-71.5 33.5q-42 9 -89 9q-47 -1 -86 -11.5t-72 -24.5t-62 -30q-30 -16 -57 -28q-9 -3 -17.5 -7.5t-19 -8t-19 -7t-14.5 -5.5l200 -22v-584q0 -64 -20 -119t-60.5 -95t-102 -63.5t-145.5 -23.5q-62 0 -113.5 16t-89 48.5t-58 78 t-20.5 104.5zM213 238q0 -44 27.5 -72t71.5 -28t72 28t28 72t-28 72t-72 28q-22 0 -40 -7.5t-31 -20.5t-20.5 -32t-7.5 -40zM315 -256q0 -20 18 -33.5t49 -13.5q35 0 63 17.5t43 53.5q-47 32 -94 31q-41 0 -60 -15t-19 -40zM979 -659q0 31 10.5 60t32.5 52.5t57 36.5t82 13 t82.5 -13t57.5 -36.5t32.5 -52.5t10.5 -60q0 -29 -11 -57t-34 -50t-57 -35t-81 -13t-80.5 13t-56.5 35t-34 50t-11 57z" />
<glyph unicode="&#xe0e;&#xe38;" horiz-adv-x="1480" d="M47 241q0 57 19 102t54.5 76t82.5 47t103 16h17h17v271q-18 3 -39.5 5.5t-41 5t-39.5 4.5t-35 4v229q2 0 20 4.5t44.5 14t56 22.5t56.5 31q55 38 109.5 64.5t110.5 45t116 26.5q61 8 128 8q132 0 230 -25.5t162 -72t95 -112t31 -143.5v-1308h-321q-37 35 -78 69 q-39 34 -84 63q-23 -32 -52.5 -59t-66 -46.5t-79.5 -29.5t-94 -10q-59 0 -106.5 15.5t-81.5 42t-53 63t-19 77.5q0 47 20.5 85.5t56.5 65.5t88 42t120 15q31 0 64.5 -5.5t70.5 -17.5q3 18 4 37q2 19 2 37h226q-5 -79 -28 -156q58 -29 96 -60v1042q0 47 -14.5 85.5 t-42.5 63.5t-70 38q-44 13 -99 10q-47 -1 -86 -11.5t-72 -24.5t-62 -30q-30 -16 -57 -28q-9 -3 -17.5 -7.5t-19 -8t-19 -7t-14.5 -5.5l200 -22v-584q0 -64 -20 -119t-60.5 -95t-102 -63.5t-145.5 -23.5q-62 0 -113.5 16t-89 48.5t-58 78t-20.5 104.5zM213 238 q0 -44 27.5 -72t71.5 -28t72 28t28 72t-28 72t-72 28q-22 0 -40 -7.5t-31 -20.5t-20.5 -32t-7.5 -40zM503 -254q0 -21 19.5 -36.5t52.5 -15.5q41 0 69.5 23.5t46.5 62.5q-28 10 -54.5 16.5t-49.5 6.5q-42 0 -63 -16t-21 -41zM847 -719q0 43 14.5 80.5t42.5 66t70.5 44.5 t100.5 16q63 0 110 -16t78 -47t45.5 -72t14.5 -92v-284h-291v113q-41 2 -75 16.5t-59 41t-38 60t-13 73.5zM997 -713q0 -32 20.5 -52.5t52.5 -20.5t53 20.5t21 52.5t-21 52t-53 20t-52.5 -20t-20.5 -52z" />
<glyph unicode="&#xe0f;&#xe38;" horiz-adv-x="1480" d="M47 241q0 57 19 102t54.5 76t82.5 47t103 16h17h17v271q-18 3 -39.5 5.5t-41 5t-39.5 4.5t-35 4v229q2 0 20 4.5t44.5 14t56 22.5t56.5 31q55 38 109.5 64.5t110.5 45t116.5 26.5t127.5 8q132 0 230 -27t162 -75t95 -112.5t31 -138.5v-1308h-364l-89 116l-85 -117h-147 q-12 22 -24 42.5t-23 37.5q-45 -41 -103.5 -66.5t-138.5 -25.5q-58 0 -105 15.5t-81 42t-51.5 63t-17.5 77.5q0 47 19 85.5t55 65.5t88 42t117 15q18 0 34.5 -1t32 -2.5t32 -6t36.5 -8.5q3 18 4.5 34t1.5 35h235q-11 -59 -27.5 -112t-36.5 -98q20 -22 32 -49l94 127h118 l79 -94v1067q0 47 -17.5 82t-48 57.5t-71.5 33.5q-42 9 -89 9q-47 -1 -86 -11.5t-72 -24.5t-62 -30q-30 -16 -57 -28q-9 -3 -17.5 -7.5t-19 -8t-19 -7t-14.5 -5.5l200 -22v-584q0 -64 -20 -119t-60.5 -95t-102 -63.5t-145.5 -23.5q-62 0 -113.5 16t-89 48.5t-58 78 t-20.5 104.5zM213 238q0 -44 27.5 -72t71.5 -28t72 28t28 72t-28 72t-72 28q-22 0 -40 -7.5t-31 -20.5t-20.5 -32t-7.5 -40zM315 -256q0 -20 18 -33.5t49 -13.5q35 0 63 17.5t43 53.5q-47 32 -94 31q-41 0 -60 -15t-19 -40zM847 -719q0 43 14.5 80.5t42.5 66t70.5 44.5 t100.5 16q63 0 110 -16t78 -47t45.5 -72t14.5 -92v-284h-291v113q-41 2 -75 16.5t-59 41t-38 60t-13 73.5zM997 -713q0 -32 20.5 -52.5t52.5 -20.5t53 20.5t21 52.5t-21 52t-53 20t-52.5 -20t-20.5 -52z" />
<glyph unicode="&#xe0e;&#xe39;" horiz-adv-x="1480" d="M47 241q0 57 19 102t54.5 76t82.5 47t103 16h17h17v271q-18 3 -39.5 5.5t-41 5t-39.5 4.5t-35 4v229q2 0 20 4.5t44.5 14t56 22.5t56.5 31q55 38 109.5 64.5t110.5 45t116 26.5q61 8 128 8q132 0 230 -25.5t162 -72t95 -112t31 -143.5v-1308h-321q-37 35 -78 69 q-39 34 -84 63q-23 -32 -52.5 -59t-66 -46.5t-79.5 -29.5t-94 -10q-59 0 -106.5 15.5t-81.5 42t-53 63t-19 77.5q0 47 20.5 85.5t56.5 65.5t88 42t120 15q31 0 64.5 -5.5t70.5 -17.5q3 18 4 37q2 19 2 37h226q-5 -79 -28 -156q58 -29 96 -60v1042q0 47 -14.5 85.5 t-42.5 63.5t-70 38q-44 13 -99 10q-47 -1 -86 -11.5t-72 -24.5t-62 -30q-30 -16 -57 -28q-9 -3 -17.5 -7.5t-19 -8t-19 -7t-14.5 -5.5l200 -22v-584q0 -64 -20 -119t-60.5 -95t-102 -63.5t-145.5 -23.5q-62 0 -113.5 16t-89 48.5t-58 78t-20.5 104.5zM213 238 q0 -44 27.5 -72t71.5 -28t72 28t28 72t-28 72t-72 28q-22 0 -40 -7.5t-31 -20.5t-20.5 -32t-7.5 -40zM415 -719q0 43 13.5 80.5t42.5 66t71.5 44.5t98.5 16q63 0 108.5 -16t76 -47t43.5 -72t13 -92v-117h151v331h303v-498h-730v113q-42 2 -77 16.5t-61 41t-39.5 60 t-13.5 73.5zM503 -254q0 -21 19.5 -36.5t52.5 -15.5q41 0 69.5 23.5t46.5 62.5q-28 10 -54.5 16.5t-49.5 6.5q-42 0 -63 -16t-21 -41zM563 -713q0 -32 20.5 -52.5t53 -20.5t52.5 20.5t20 52.5t-19.5 52t-52.5 20t-53.5 -20t-20.5 -52z" />
<glyph unicode="&#xe0f;&#xe39;" horiz-adv-x="1480" d="M47 241q0 57 19 102t54.5 76t82.5 47t103 16h17h17v271q-18 3 -39.5 5.5t-41 5t-39.5 4.5t-35 4v229q2 0 20 4.5t44.5 14t56 22.5t56.5 31q55 38 109.5 64.5t110.5 45t116.5 26.5t127.5 8q132 0 230 -27t162 -75t95 -112.5t31 -138.5v-1308h-364l-89 116l-85 -117h-147 q-12 22 -24 42.5t-23 37.5q-45 -41 -103.5 -66.5t-138.5 -25.5q-58 0 -105 15.5t-81 42t-51.5 63t-17.5 77.5q0 47 19 85.5t55 65.5t88 42t117 15q18 0 34.5 -1t32 -2.5t32 -6t36.5 -8.5q3 18 4.5 34t1.5 35h235q-11 -59 -27.5 -112t-36.5 -98q20 -22 32 -49l94 127h118 l79 -94v1067q0 47 -17.5 82t-48 57.5t-71.5 33.5q-42 9 -89 9q-47 -1 -86 -11.5t-72 -24.5t-62 -30q-30 -16 -57 -28q-9 -3 -17.5 -7.5t-19 -8t-19 -7t-14.5 -5.5l200 -22v-584q0 -64 -20 -119t-60.5 -95t-102 -63.5t-145.5 -23.5q-62 0 -113.5 16t-89 48.5t-58 78 t-20.5 104.5zM213 238q0 -44 27.5 -72t71.5 -28t72 28t28 72t-28 72t-72 28q-22 0 -40 -7.5t-31 -20.5t-20.5 -32t-7.5 -40zM315 -256q0 -20 18 -33.5t49 -13.5q35 0 63 17.5t43 53.5q-47 32 -94 31q-41 0 -60 -15t-19 -40zM415 -719q0 43 13.5 80.5t42.5 66t71.5 44.5 t98.5 16q63 0 108.5 -16t76 -47t43.5 -72t13 -92v-117h151v331h303v-498h-730v113q-42 2 -77 16.5t-61 41t-39.5 60t-13.5 73.5zM563 -713q0 -32 20.5 -52.5t53 -20.5t52.5 20.5t20 52.5t-19.5 52t-52.5 20t-53.5 -20t-20.5 -52z" />
<glyph unicode="&#xd;" horiz-adv-x="661" />
<glyph unicode=" "  horiz-adv-x="661" />
<glyph unicode="&#x09;" horiz-adv-x="661" />
<glyph unicode="&#xa0;" horiz-adv-x="661" />
<glyph unicode="!" horiz-adv-x="568" d="M110 0v282h350v-282h-350zM118 1214v249h332v-249l-80 -777h-173z" />
<glyph unicode="&#x22;" horiz-adv-x="946" d="M101 1463h290l-35 -660h-218zM554 1463h293l-39 -660h-217z" />
<glyph unicode="#" horiz-adv-x="1211" d="M38 404v190h175l35 247h-148v188h176l56 406h268l-59 -406h234l57 406h266l-57 -406h131v-188h-158l-35 -247h132v-190h-158q-15 -101 -29 -203q-13 -101 -27 -201h-268l56 404h-232q-15 -101 -28 -202.5t-28 -201.5h-266l56 404h-149zM481 594h230l36 247h-231z" />
<glyph unicode="$" horiz-adv-x="1289" d="M44 438h344q2 -62 26 -104.5t61 -70.5t84 -39.5t94 -11.5q123 0 188.5 44t65.5 123q0 36 -11 66.5t-38 55.5t-73 44q-47 19 -115 36q-154 35 -269.5 75.5t-192 94t-115.5 122t-39 159.5t39 161t105.5 119t154 77t182.5 37l224 -3q55 -6 111 -19t107.5 -37.5t94 -57.5 t75.5 -76.5t53 -95.5t23 -114h-350q3 47 -14.5 82.5t-48.5 59t-76 35.5q-46 11 -99 11q-104 0 -163.5 -39.5t-59.5 -111.5q0 -38 16 -67t45.5 -51.5t72 -39.5t95.5 -29q123 -28 217.5 -58t160.5 -64t110 -72t70 -82t35.5 -94t9.5 -109q0 -88 -34.5 -164t-107.5 -131 t-185.5 -86t-268.5 -31q-78 0 -151.5 11t-139.5 34t-120.5 59t-95.5 86.5t-67 117.5q-24 66 -30 148zM520 -182v1752h253v-1752h-253z" />
<glyph unicode="%" horiz-adv-x="1752" d="M44 1058q0 86 19 159.5t62 127.5t110.5 86t165.5 32q94 0 161 -30.5t109.5 -83t63.5 -125.5t21 -157q0 -85 -19.5 -158.5t-62 -128.5t-111 -86.5t-166.5 -31.5q-94 0 -160 30.5t-109 83.5t-63.5 126t-20.5 156zM282 1063q0 -21 1 -48t4.5 -53.5t9.5 -52.5t19 -45.5 t32.5 -31.5t45.5 -12q44 0 70 26t38 63.5t15 80t3 74.5q0 24 -1.5 50.5t-5.5 53.5t-11.5 51.5t-22 43.5t-35.5 30.5t-50 11.5q-26 0 -45.5 -12.5t-31 -33t-19 -46t-11 -53t-4.5 -53t-1 -44.5zM316 -44l848 1523h285l-843 -1523h-290zM997 376q0 84 20.5 157t63 125.5 t109.5 83t161 30.5q97 0 165.5 -31.5t111 -86t61.5 -128t19 -158.5q0 -84 -20.5 -157t-63 -126t-109 -83.5t-160.5 -30.5q-98 0 -166.5 31.5t-111 86.5t-61.5 128.5t-19 158.5zM1232 373q0 -32 3 -74.5t15.5 -80t37.5 -63.5q26 -26 70 -26q28 0 46.5 12t31.5 32t19 45.5 t10 52t4.5 53t0.5 48.5q0 20 -0.5 45t-4.5 52.5t-11.5 53t-19 46t-30.5 33t-46 12.5q-29 0 -49.5 -11.5t-35.5 -30.5t-22 -43.5t-11.5 -51.5t-6 -53.5t-1.5 -50.5z" />
<glyph unicode="&#x26;" horiz-adv-x="1402" d="M44 412q0 73 28.5 136.5t75 116t107.5 95.5t126 72q-28 35 -54.5 71t-47 75t-34 80.5t-13.5 85.5q0 86 35.5 149.5t91.5 104.5t128 61t148 20q97 0 174 -21.5t132.5 -63.5t84.5 -105t29 -147q0 -62 -20.5 -117t-57 -103.5t-86.5 -87.5q-50 -40 -106 -70 q29 -35 52.5 -61.5t46 -53.5t46 -55t52.5 -62q9 35 15 71q6 35 6 76h307q0 -97 -33 -197t-92 -188q62 -71 125.5 -147t125.5 -147h-379l-77 94q-85 -56 -191.5 -89.5t-229.5 -33.5q-106 0 -200 30t-163.5 86.5t-110.5 137.5t-41 187zM363 397q0 -40 15.5 -76t42.5 -64.5 t65.5 -45.5t85.5 -17q69 0 133.5 23.5t119.5 67.5l-296 362q-35 -19 -64.5 -45t-52 -58t-36 -69t-13.5 -78zM531 1154q0 -21 5 -43.5t18 -48.5t35.5 -54.5t54.5 -63.5q26 17 51 39t44.5 47t31 54.5t11.5 66.5q0 28 -9 50t-25.5 38t-39.5 25t-52 9q-27 0 -49.5 -9 t-39.5 -23.5t-26.5 -36.5t-9.5 -50z" />
<glyph unicode="'" horiz-adv-x="568" d="M140 1463h291l-22 -660h-247z" />
<glyph unicode="(" horiz-adv-x="605" d="M94 550q0 112 17 237.5t51.5 250.5t85.5 243q49 118 117 215h267q-113 -217 -166.5 -452.5t-53.5 -473.5q0 -120 13 -240.5t39.5 -239.5t67.5 -235.5t99 -226.5h-266q-62 104 -112 217.5t-85.5 231t-54.5 236.5t-19 237z" />
<glyph unicode=")" horiz-adv-x="605" d="M-28 -372q56 109 98 222t70 230t41 236t13 237q0 244 -53 482t-167 461h267q62 -105 112 -217.5t85 -230t54.5 -237.5t19.5 -238q0 -75 -7.5 -155.5t-23 -163.5t-38.5 -167t-53.5 -164t-67.5 -154.5t-81 -140.5h-269z" />
<glyph unicode="*" horiz-adv-x="833" d="M34 1139l57 163l215 -85v246h214v-249q86 36 140 58t82 30l58 -163l-241 -81q36 -50 73.5 -100t76.5 -100l-153 -111l-144 197q-53 -75 -85.5 -123t-50.5 -74l-155 111l149 200z" />
<glyph unicode="+" horiz-adv-x="1227" d="M85 562v207h388v392h283v-392h388v-207h-388v-400h-283v400h-388z" />
<glyph unicode="," horiz-adv-x="568" d="M112 0v282h347v-279q0 -71 -23.5 -132.5t-68 -110t-108 -82.5t-146.5 -46v186q68 20 107 68t39 114h-147z" />
<glyph unicode="-" horiz-adv-x="833" d="M85 562v207h662v-207h-662z" />
<glyph unicode="." horiz-adv-x="568" d="M112 0v282h347v-282h-347z" />
<glyph unicode="/" horiz-adv-x="759" d="M-37 -35l554 1531h277l-553 -1531h-278z" />
<glyph unicode="0" horiz-adv-x="1196" d="M59 723q0 140 19 249.5t55 191t85.5 139t109.5 93.5t127.5 51.5t141.5 15.5q73 0 141 -15.5t128 -51.5t110 -93.5t85.5 -139t55 -191t19.5 -249.5q0 -142 -19.5 -253t-55 -195t-85.5 -142t-110 -94t-129 -52q-67 -16 -140 -16q-72 0 -140.5 16t-128.5 52t-109.5 94 t-85.5 142t-55 194t-19 254zM376 723q0 -41 1.5 -94t7.5 -108.5t19 -111t37.5 -98.5t62 -69.5t93.5 -26.5t94 26.5t62.5 69.5t37.5 98.5t19.5 111t7.5 108.5t1 94q0 37 -1 88.5t-7.5 106.5t-19.5 109.5t-37.5 97t-62.5 69t-94 26.5t-93.5 -26.5t-62 -69t-37.5 -97 t-19 -109.5t-7.5 -106.5t-1.5 -88.5z" />
<glyph unicode="1" horiz-adv-x="1196" d="M160 928v222q77 0 148 14.5t127 48.5t94 88t50 134h259v-1435h-319v928h-359z" />
<glyph unicode="2" horiz-adv-x="1196" d="M59 0q0 82 17 150.5t47 126t71 106.5t92.5 92.5t108.5 84.5q58 43 122 84q61 41 114 80.5t92.5 82.5t62 91.5t24.5 106.5q0 50 -14 88.5t-39 63.5t-60 38t-80 13q-61 0 -102.5 -23.5t-68 -64.5t-38 -94t-11.5 -109h-321v9v18q0 117 37.5 214t108.5 165t173 104t230 36 q113 0 205.5 -31t158.5 -89t103 -141q37 -82 37 -188q0 -79 -20.5 -143t-56 -116t-83.5 -95q-49 -43 -102 -81t-106.5 -72.5t-106.5 -72t-102 -81.5t-92 -99h676v-254h-1077z" />
<glyph unicode="3" horiz-adv-x="1196" d="M53 459h303q-2 -53 13.5 -97t45 -76.5t75 -51.5t104.5 -19q47 0 86.5 14t69 39.5t45.5 64.5t16 89q0 57 -22 98.5t-63 67.5t-95.5 39.5t-118.5 11.5v208h30q42 0 85 11t78.5 35t57.5 62.5t22 91.5q0 44 -14.5 76t-41 54.5t-60.5 32.5t-71 10q-51 0 -90 -19t-65 -50 t-39 -74.5t-13 -91.5h-303q0 106 37 194t104.5 151.5t160 98t207.5 34.5q59 0 117.5 -11t113 -32t103 -53t84 -74.5t55 -95.5t19.5 -118q0 -50 -12.5 -98.5t-39 -92t-66 -76.5t-92.5 -51q62 -14 110.5 -46.5t83 -76.5t52.5 -98q19 -52 19 -111q0 -76 -21 -139.5t-57.5 -114 t-87 -88.5t-111.5 -64t-129 -39t-140 -13q-123 0 -225.5 30t-174.5 90t-110 152t-35 216z" />
<glyph unicode="4" horiz-adv-x="1196" d="M47 594l626 841h284v-862h190v-241h-190v-332h-304v332h-603v262h-3zM306 573h347v468z" />
<glyph unicode="5" horiz-adv-x="1196" d="M75 415h317q6 -47 23 -84.5t45 -63.5t65 -39t81 -13q61 0 104 23.5t68 61t36 86.5t11 102q0 56 -15 104.5t-43.5 83.5t-70.5 56q-40 21 -96 21q-71 0 -129.5 -28t-101.5 -86h-285q6 33 11.5 66t13 76.5t18 100t24.5 134.5t31.5 180.5t42.5 238.5h841v-244h-607l-56 -306 q59 48 133 69.5t152 21.5q109 0 194 -35t142.5 -100t88.5 -154.5t31 -198.5q0 -110 -37.5 -205t-106.5 -164t-167 -108.5t-220 -39.5q-71 0 -138.5 11.5t-127 36t-109.5 60.5t-85 85t-56 111.5t-22 139.5z" />
<glyph unicode="6" horiz-adv-x="1196" d="M59 711q0 89 13 178.5t42.5 173.5t75 156.5t109.5 126t147 85.5t186 32q96 0 178 -27.5t144.5 -78t104 -125t52.5 -171.5h-303q-5 36 -21.5 69t-40 57t-53 39t-64.5 15q-45 0 -81 -18t-62.5 -47t-46 -67.5t-32.5 -81t-20.5 -86.5t-10.5 -85l9 -3q31 32 64 53.5t69 34 t76.5 18t84.5 5.5q97 0 180 -33.5t145 -95.5t97 -148q35 -84 35 -190q0 -110 -37.5 -206.5t-105 -167t-163 -111.5t-210.5 -41q-111 0 -195 30t-147 82t-105 122.5t-68 153t-36 172.5q-10 89 -10 180zM397 479q0 -56 14.5 -104.5t42.5 -83.5t68 -55.5t91 -20.5 q50 0 87.5 20.5t64 55.5t39.5 82t13 102q0 54 -11.5 102.5t-37.5 85.5t-64 57.5t-91 20.5q-56 0 -96.5 -20t-67 -55t-39.5 -83t-13 -104z" />
<glyph unicode="7" horiz-adv-x="1196" d="M74 1160v275h1048v-247q-68 -63 -130.5 -149t-117 -186t-98.5 -209.5t-75.5 -220.5t-50 -218.5t-18.5 -204.5h-338q12 159 53 314t107 301t153 283.5t188 261.5h-721z" />
<glyph unicode="8" horiz-adv-x="1196" d="M44 420q0 68 19 125.5t54.5 102t88.5 76.5t119 49q-53 18 -93.5 49t-69 69t-43.5 83.5t-15 95.5q0 65 20 119.5t55.5 97.5t83 76t102.5 55.5t115.5 33.5t119.5 11q91 0 163 -19.5t126.5 -51t92.5 -71t63 -82t35.5 -85.5t10.5 -78q0 -53 -13.5 -98.5t-40.5 -85t-67.5 -69 t-96.5 -50.5q63 -17 114.5 -51t87.5 -79t56 -100t20 -120q0 -76 -21.5 -138.5t-60.5 -112.5t-91 -87.5t-113 -62.5t-128 -38t-134 -13q-71 0 -140 11.5t-131 36t-114.5 61t-91 86.5t-60.5 114t-22 140zM363 435q0 -54 18.5 -99t51.5 -76t76.5 -48.5t93.5 -17.5t91 17.5 t72 48.5t48.5 75t17.5 97q0 50 -17.5 92.5t-49 72t-73.5 46.5t-89 17q-50 0 -94 -14.5t-76.5 -43.5t-51 -70t-18.5 -97zM395 1044q0 -47 17 -81t45 -57.5t65 -35.5t78 -12t77.5 12t64 35.5t43 59t15.5 79.5q0 17 -3 39t-11 43.5t-23 41.5t-37 36t-53.5 25.5t-72.5 9.5 t-78 -12.5t-65 -37.5t-45 -61.5t-17 -83.5z" />
<glyph unicode="9" horiz-adv-x="1196" d="M59 938q0 110 36.5 205.5t104.5 167t163.5 112t209.5 40.5q112 0 196.5 -30.5t147 -82t105 -122.5t67.5 -153.5t36 -173t11 -179.5q0 -88 -14 -177t-43 -173t-75 -157.5t-109 -127t-147 -85t-186 -31.5q-96 0 -177.5 27t-145 77.5t-103.5 125.5t-54 171h303 q6 -35 22 -68.5t39.5 -57t54 -38t65.5 -14.5q46 0 81 17.5t62 47t46.5 68t32 81t19.5 86.5t12 84l-9 4q-31 -32 -64 -54t-69 -34.5t-77 -17.5q-41 -6 -86 -6q-97 0 -179 34t-144 95t-97 147t-35 192zM376 958q0 -54 12.5 -102t38.5 -84.5t64 -58t91 -21.5q56 0 95.5 20 t67 55.5t40.5 84t13 104.5q0 55 -14.5 103.5t-42.5 84t-68.5 56t-90.5 20.5t-88 -20.5t-64 -56t-40 -82.5q-14 -50 -14 -103z" />
<glyph unicode=":" horiz-adv-x="568" d="M112 0v282h347v-282h-347zM112 760v282h347v-282h-347z" />
<glyph unicode=";" horiz-adv-x="568" d="M112 0v282h347v-279q0 -71 -23.5 -132.5t-68 -110t-108 -82.5t-146.5 -46v186q68 20 107 68t39 114h-147zM112 760v282h347v-282h-347z" />
<glyph unicode="&#x3c;" horiz-adv-x="1227" d="M84 550v232l1066 426v-241q-180 -73 -369 -150q-190 -79 -378 -153l747 -299v-242z" />
<glyph unicode="=" horiz-adv-x="1227" d="M85 350v209h1059v-209h-1059zM85 772v207h1059v-207h-1059z" />
<glyph unicode="&#x3e;" horiz-adv-x="1227" d="M81 123v242l745 299l-745 303v241l1066 -426v-232z" />
<glyph unicode="?" horiz-adv-x="1137" d="M37 988q3 110 34.5 203.5t94.5 161t161.5 105.5t234.5 38q107 0 187 -17.5t139 -48.5t96.5 -72t60 -84.5t31.5 -88t9 -83.5q0 -73 -15.5 -127.5t-42.5 -97t-66 -78t-86 -68.5q-36 -27 -64.5 -49.5t-50.5 -47.5t-34.5 -53t-12.5 -64v-80h-304v94q0 64 16 110.5t43 86 t64.5 73.5t84.5 74q21 17 43 35.5t38 42t26.5 53t10.5 67.5q0 93 -41 137t-118 44q-50 0 -86.5 -21.5t-58.5 -56.5t-32.5 -83.5t-11.5 -104.5h-350zM384 0v282h348v-282h-348z" />
<glyph unicode="@" horiz-adv-x="1669" d="M46 717q0 121 30 226t84.5 192t131 154.5t169 113.5t198.5 70q105 23 220 23q109 0 206 -19t180.5 -55.5t150 -91t113.5 -125t72 -156t25 -182.5q0 -81 -15.5 -156.5t-45 -140t-71.5 -119t-94.5 -93t-116 -59t-133.5 -20.5q-39 0 -68 7.5t-51.5 19.5t-37.5 28t-27 36 q-38 -41 -95 -66.5t-142 -25.5q-76 0 -139.5 25.5t-109 71t-70.5 109t-25 136.5q0 64 16 127.5t45.5 122.5t73 110.5t98 89t118.5 59t137.5 21.5t120.5 -20q47 -22 79 -57l10 44h203l-148 -600q-6 -26 -6 -43.5t6.5 -28t17.5 -15t26 -4.5q29 0 58 19.5t53 50t44.5 73.5 t34.5 90t22 96t8 96q0 112 -36.5 204t-106.5 159.5t-169 104t-226 36.5q-79 0 -152.5 -22t-137.5 -61.5t-117.5 -97t-92 -128t-59 -155t-20.5 -178.5q0 -134 43.5 -245t121.5 -190.5t186 -123.5t237 -44q62 0 121.5 10.5t114.5 31t103.5 50.5t89.5 68h246 q-53 -79 -131 -136.5t-170 -95.5t-191 -55.5t-196 -17.5q-118 0 -224.5 23.5t-197.5 67.5t-163 108.5t-123.5 148.5t-78.5 185.5t-27 218.5zM620 613q0 -91 38.5 -140.5t102.5 -49.5q80 0 129 65t80 201q0 3 3 15t7.5 29t9 36t8 36t6.5 29q4 13 4 19q15 72 -16 113.5 t-107 41.5q-46 0 -93 -30.5t-85 -85t-62.5 -126.5t-24.5 -153z" />
<glyph unicode="A" horiz-adv-x="1431" d="M-15 0l556 1464h356l547 -1464h-361l-110 325h-520q-9 -27 -19.5 -57t-23.5 -68t-30.5 -86.5t-39.5 -113.5h-355zM523 545h380l-186 552z" />
<glyph unicode="B" horiz-adv-x="1470" d="M141 0v1464h679q106 0 198.5 -20.5t160.5 -66t106 -117.5t38 -175q0 -52 -12.5 -99.5t-38 -88t-64 -70.5t-88.5 -48q68 -15 119.5 -47t85 -76t51.5 -100t18 -124q0 -73 -21 -135t-57.5 -109.5t-86.5 -83t-109 -58t-123.5 -34.5t-132.5 -12h-723zM492 238h314 q44 0 86.5 12t76.5 36t54.5 63t20.5 95t-18.5 95.5t-50 66t-73.5 39.5q-44 12 -91 12h-319v-419zM492 858h296q38 0 73.5 12t62.5 35.5t43 59t16 79.5q0 51 -19.5 85.5t-50.5 55t-70.5 29.5t-79.5 9h-271v-365z" />
<glyph unicode="C" horiz-adv-x="1546" d="M78 726q0 109 21.5 207.5t64 184.5t104 156t142.5 120t179.5 77t213.5 27q82 0 160 -15.5t147 -46.5t128 -75.5t103.5 -103.5t73.5 -131.5t40 -156.5h-341q-10 69 -38.5 123.5t-70 92t-94.5 57t-108 19.5q-69 0 -124.5 -20.5t-96.5 -57t-70.5 -86.5t-48 -109.5 t-26.5 -126.5t-8 -135q0 -106 19 -201.5t63.5 -167.5t116.5 -113t175 -41q64 0 118.5 24t96.5 71t70.5 114t38.5 154h340q-12 -138 -66 -249t-141.5 -189t-204 -120.5t-252.5 -42.5q-115 0 -213.5 27t-179.5 76.5t-142.5 118.5t-104 154t-64 182t-21.5 203z" />
<glyph unicode="D" horiz-adv-x="1546" d="M141 0v1464h644q97 0 184.5 -20.5t163 -60t136 -100t103 -141.5t66 -181t23.5 -222q0 -158 -41 -293.5t-125 -234.5t-211.5 -155t-298.5 -56h-644zM492 238h271q68 0 130.5 28t111 87t77.5 147t29 209q0 108 -19.5 203.5t-67.5 165t-125 108.5q-79 40 -193 40h-214v-988z " />
<glyph unicode="E" horiz-adv-x="1355" d="M141 0v1464h1122v-238h-772v-344h707v-232h-707v-412h788v-238h-1138z" />
<glyph unicode="F" horiz-adv-x="1243" d="M141 0v1464h1056v-238h-706v-391h611v-232h-611v-603h-350z" />
<glyph unicode="G" horiz-adv-x="1583" d="M78 726q0 109 22 207.5t65.5 184.5t106 156t144 120t180 77t214.5 27q123 0 232.5 -34.5t193.5 -100.5t138 -163q53 -95 67 -221h-337q-26 135 -99.5 208.5t-194.5 73.5q-69 0 -125 -20.5t-98 -57t-72 -87.5t-49 -110.5t-28 -125.5t-9 -133.5t9.5 -132.5t29.5 -123.5 t51 -107t72 -84.5t94 -56t118 -20q69 0 125.5 25t99 72t67.5 110t34 140h-309v242h641v-792h-203l-38 185q-26 -51 -73 -91t-104.5 -67t-121.5 -41t-126 -14q-114 0 -212 26.5t-178 75t-141 117t-102 152t-62.5 180.5t-21.5 203z" />
<glyph unicode="H" horiz-adv-x="1546" d="M141 0v1464h351v-567h561v567h349v-1464h-349v644h-561v-644h-351z" />
<glyph unicode="I" horiz-adv-x="632" d="M141 0v1464h350v-1464h-350z" />
<glyph unicode="J" horiz-adv-x="1167" d="M29 419v128h321v-103q0 -53 9 -97t28 -76.5t49.5 -50t75.5 -17.5q51 0 83.5 20t50 53t23.5 75.5t6 88.5v1024h350v-1002q0 -47 -6 -101.5t-24.5 -110.5t-52.5 -107.5t-89.5 -91t-136.5 -63t-193 -23.5q-61 0 -122 11.5t-116.5 35t-102.5 60.5t-80.5 87t-53 114.5 t-19.5 145.5z" />
<glyph unicode="K" horiz-adv-x="1493" d="M141 0v1464h351v-600l559 600h410l-579 -592l614 -872h-408l-429 641l-167 -174v-467h-351z" />
<glyph unicode="L" horiz-adv-x="1243" d="M141 0v1464h350v-1226h711v-238h-1061z" />
<glyph unicode="M" horiz-adv-x="1886" d="M141 0v1464h465l345 -1011q82 254 164 505q82 253 162 506h465v-1464h-329v1026q-8 -32 -19 -68q-9 -29 -21 -64.5t-24 -68.5l-286 -825h-243l-285 814q-10 30 -22 64.5t-21 65.5q-11 35 -20 70v-1014h-331z" />
<glyph unicode="N" horiz-adv-x="1546" d="M141 0v1464h362l497 -882q10 -18 22.5 -43.5t24.5 -48.5q13 -28 26 -58v1032h329v-1464h-361l-488 853q-12 19 -26 47q-15 26 -27 53q-15 29 -28 61v-1014h-331z" />
<glyph unicode="O" horiz-adv-x="1621" d="M79 726q0 109 22 207.5t65 184.5t106 156t144 120t179.5 77t214.5 27q115 0 214 -27t180.5 -77t144 -120t106 -156t65.5 -185q22 -98 22 -207q0 -106 -22 -203t-65.5 -182t-106 -154t-144 -118.5t-180 -76.5t-214.5 -27q-115 0 -214 27t-180 76.5t-144 118.5t-106 154 t-65 182t-22 203zM429 726q0 -60 9 -122.5t28 -121.5t49 -109.5t72 -88t98 -59.5t125 -22q71 0 126 22t97.5 59.5t72 88t48.5 109.5t28.5 120.5t9.5 123.5q0 63 -9.5 127t-28.5 123.5t-48.5 112t-72 90.5t-98.5 60t-125 22t-125 -22t-98 -60t-72 -90.5t-49 -112t-28 -123.5 t-9 -127z" />
<glyph unicode="P" horiz-adv-x="1395" d="M141 0v1464h673q94 0 168.5 -19t132.5 -51.5t99 -76.5t67.5 -96t39 -110t12.5 -117q0 -61 -12.5 -119t-39 -111t-67.5 -97t-99 -76t-132.5 -50t-168.5 -18h-323v-523h-350zM491 739h235q53 0 101.5 14t85.5 44.5t59 78t22 118.5q0 69 -22 116.5t-59 78t-85.5 44.5 t-101.5 14h-235v-508z" />
<glyph unicode="Q" horiz-adv-x="1621" d="M79 726q0 109 22 207.5t65 184.5t106 156t144 120t179.5 77t214.5 27q115 0 214 -27t180.5 -77t144 -120t106 -156t65.5 -185q22 -98 22 -207q0 -159 -49 -297q-49 -141 -145 -244l184 -176l-171 -162l-203 196q-75 -39 -161.5 -58.5t-186.5 -19.5q-115 0 -214 27 t-180 76.5t-144 118.5t-106 154t-65 182t-22 203zM429 726q0 -60 9 -122.5t28 -121.5t49 -109.5t72 -88t98 -59.5t125 -22q43 0 79 8q37 9 69 24l-176 168l171 164l170 -163q37 72 53 156t16 166q0 63 -9.5 127t-28.5 123.5t-48.5 112t-72 90.5t-98.5 60t-125 22t-125 -22 t-98 -60t-72 -90.5t-49 -112t-28 -123.5t-9 -127z" />
<glyph unicode="R" horiz-adv-x="1506" d="M141 0v1464h788q112 0 198 -29.5t144.5 -83.5t89.5 -130t31 -170q0 -62 -17.5 -118.5t-50.5 -105t-83 -86.5t-112 -65q62 -17 106 -49.5t72 -76t42.5 -95.5t17.5 -108q3 -53 6 -103t9 -95.5t17 -84t28 -64.5h-348q-15 41 -23 85t-11.5 88.5t-7.5 88.5q-5 44 -11 88 q-9 56 -24.5 98.5t-42.5 70.5t-66 42.5t-95 14.5h-306v-576h-351zM492 781h337q50 0 88.5 16.5t64.5 47t39.5 73.5t13.5 99q0 53 -13.5 95t-39.5 72t-64.5 46.5t-88.5 16.5h-337v-466z" />
<glyph unicode="S" horiz-adv-x="1356" d="M50 488h340q0 -73 25.5 -129t67.5 -96t97 -60.5t117 -20.5q53 0 103 12t86.5 37t58.5 64.5t22 95.5q0 47 -16 81t-54.5 60.5t-100.5 48.5q-61 23 -155 47q-59 14 -122 31t-123.5 41.5t-114 56t-94 75.5t-64 103t-23.5 134q0 76 22 137t61.5 108t94 82.5t116.5 57.5 t129.5 33t135.5 11q77 0 152 -11t142 -36t123 -62.5t96.5 -90.5t63 -121.5t22.5 -153.5h-341q-4 66 -27 114.5t-59 80.5t-83.5 47t-102.5 15q-35 0 -72.5 -11t-67 -33t-48.5 -55q-19 -34 -19 -79q0 -41 17.5 -73t65.5 -61t131 -57.5t212 -62.5q52 -15 104 -33t102 -44.5 t92.5 -60.5t75 -78t51 -98.5t18.5 -120.5q0 -100 -40.5 -183t-118.5 -142t-194 -91t-269 -32q-82 0 -161.5 13t-151 41t-131 70.5t-102 101.5t-66 132.5t-23.5 164.5z" />
<glyph unicode="T" horiz-adv-x="1278" d="M26 1226v238h1226v-238h-438v-1226h-349v1226h-439z" />
<glyph unicode="U" horiz-adv-x="1546" d="M135 553v911h350v-911q0 -40 4.5 -81t15.5 -80t31 -73.5t52 -60.5t77 -40.5t107 -14.5q82 0 136.5 24t88 70.5t47.5 111t14 144.5v911h350v-911q0 -149 -42.5 -259t-125 -183t-200.5 -109.5t-268 -36.5t-268.5 36t-201 108.5t-124.5 183.5q-43 110 -43 260z" />
<glyph unicode="V" horiz-adv-x="1318" d="M-15 1464h359l312 -1058l319 1058h358l-485 -1464h-389z" />
<glyph unicode="W" horiz-adv-x="1962" d="M-15 1464h350l221 -986l261 986h325l263 -986l221 986h348l-386 -1464h-353l-256 964l-256 -964h-350z" />
<glyph unicode="X" horiz-adv-x="1395" d="M-12 0l512 766l-471 698h400l274 -469l282 469h379l-470 -700l511 -764h-408l-308 509l-313 -509h-388z" />
<glyph unicode="Y" horiz-adv-x="1395" d="M-18 1464h388l330 -617l326 617h385l-541 -907v-557h-351v566z" />
<glyph unicode="Z" horiz-adv-x="1355" d="M56 0v247l811 979h-773v238h1194v-250l-822 -976h841v-238h-1251z" />
<glyph unicode="[" horiz-adv-x="718" d="M140 -372v1868h560v-197h-241v-1474h241v-197h-560z" />
<glyph unicode="\" horiz-adv-x="789" d="M-24 1496h280l554 -1531h-278z" />
<glyph unicode="]" horiz-adv-x="718" d="M18 -175h241v1474h-241v197h561v-1868h-561v197z" />
<glyph unicode="^" horiz-adv-x="1227" d="M112 644l351 791h298l355 -791h-265l-237 494l-238 -494h-264z" />
<glyph unicode="_" horiz-adv-x="1023" d="M18 -153h987v-107h-987v107z" />
<glyph unicode="`" horiz-adv-x="529" d="M-112 1480h359l223 -294h-241z" />
<glyph unicode="a" horiz-adv-x="1203" d="M65 282q0 62 20.5 110.5t54 84t79.5 60.5t97.5 42.5t106.5 27.5t108 18q47 6 90 17t75.5 30t51.5 45.5t19 61.5q0 62 -39 97t-125 35q-39 0 -70.5 -11t-55.5 -33.5t-37.5 -56.5t-14.5 -78h-334q5 68 28.5 121t61 93t86 67.5t105 44.5t117.5 24t121 7q54 0 110 -5.5 t109.5 -19.5t100 -37.5t82 -59t56 -84t20.5 -111.5v-534q0 -35 2 -70.5t6.5 -67.5t11 -57t18.5 -43h-323q-6 18 -12 46t-7 55q-62 -63 -148 -96.5t-189 -33.5q-78 0 -147 18t-121.5 55.5t-83 96.5t-30.5 141zM385 288q0 -38 13.5 -66t35.5 -44t51 -22q14 -3 29.5 -3t32.5 3 q62 9 104.5 34t68 59.5t36.5 76.5t11 86v97q-17 -9 -39 -15.5t-48.5 -13.5t-59.5 -12.5t-75 -11.5q-31 -6 -59.5 -18.5t-50.5 -32.5t-36 -49.5t-14 -67.5z" />
<glyph unicode="b" horiz-adv-x="1280" d="M112 0v1463h319v-490q20 25 51.5 46.5t68.5 37t76.5 24t75.5 8.5q120 0 215.5 -36.5t162 -107t101 -173t34.5 -234.5t-34.5 -236.5t-101 -178t-162.5 -113.5q-98 -39 -221 -39q-41 0 -81 10t-76.5 26.5t-69 39t-53.5 49.5v-96h-305zM422 532q0 -65 11 -129.5t37.5 -117.5 t72 -86.5t113.5 -33.5q64 0 109 33.5t73.5 87.5t43.5 118.5t15 126.5q0 44 -6 87.5t-18 84.5t-31 75.5t-45.5 60t-61.5 41t-79 15.5t-79.5 -15.5t-60.5 -40.5t-43.5 -60t-29.5 -75.5t-16 -84.5t-5 -87z" />
<glyph unicode="c" horiz-adv-x="1203" d="M63 514q0 124 37.5 230t108 182.5t173.5 119.5t235 43q65 0 126 -11t116 -33t102 -55.5t82.5 -78.5t57.5 -101.5t28 -124.5h-312q-6 44 -23.5 82.5t-43 67t-59.5 44.5q-35 16 -77 16q-44 0 -77.5 -17t-59.5 -44.5t-44 -65t-28.5 -79t-16.5 -83.5t-6 -81q0 -38 5 -78.5 t16.5 -81t29 -76.5t42.5 -64t58.5 -44t75.5 -16q47 0 83.5 20.5t64.5 53.5t45 77q18 44 24 93h309q-15 -106 -57.5 -187.5t-111 -137t-158 -84.5t-196.5 -29q-124 0 -224.5 40t-172.5 113t-112 172t-40 218z" />
<glyph unicode="d" horiz-adv-x="1280" d="M69 538q0 131 34.5 234t100.5 173.5t162 107t216 36.5q35 0 75 -8.5t76.5 -24t68 -37.5t52.5 -46v490h319v-1463h-306v96q-22 -27 -52 -49.5t-67 -39t-78 -26.5t-82 -10q-123 0 -220.5 39.5t-163.5 113t-100 178.5q-35 104 -35 236zM388 531q0 -62 14.5 -126.5 t43.5 -118.5t74 -88q44 -33 109 -33q68 0 113.5 33.5t72 86.5t37.5 117.5t11 129.5q0 43 -5 87t-16 84.5t-29.5 75.5t-43.5 60t-60.5 40.5t-79.5 15.5t-79.5 -15.5t-61.5 -41t-45.5 -60t-31 -75.5t-17.5 -85.5t-6 -86.5z" />
<glyph unicode="e" horiz-adv-x="1203" d="M59 529q0 119 41 221.5t113 178t175 118t226 42.5q131 0 230.5 -46t165.5 -127t99 -189q33 -107 33 -230q0 -9 -0.5 -19.5t-0.5 -20.5h-762q3 -67 20.5 -121.5t48.5 -92t75 -58t100 -20.5q36 0 69.5 11.5t61.5 33.5t50 53t37 68h288q-32 -94 -81.5 -162.5t-115 -112 t-146 -64.5t-172.5 -21q-127 0 -231 41t-175 115t-110 176.5t-39 225.5zM379 616h443q-6 59 -22 109.5t-43.5 89t-65 59.5t-85.5 21q-55 0 -95.5 -24t-69 -62.5t-44 -89t-18.5 -103.5z" />
<glyph unicode="f" horiz-adv-x="711" d="M9 891v170h164v78q0 71 23.5 130.5t69.5 102t115 67t161 24.5q12 0 26 -1t33 -1.5t44 -3t58 -6.5v-197q-18 6 -31 8t-25 3.5t-22.5 2.5t-20.5 1q-50 0 -80 -34.5t-30 -112.5v-61h200v-170h-200v-891h-321v891h-164z" />
<glyph unicode="g" horiz-adv-x="1280" d="M78 564q0 103 31.5 198t92 168t149.5 116t203 43q53 0 95.5 -8t78.5 -24t65.5 -36.5t56.5 -47.5v88h305v-990q0 -45 -7 -96t-27.5 -104t-59 -101.5t-101 -87t-153 -60.5t-213.5 -22q-53 0 -109 8t-107.5 26.5t-96 45t-79 64.5t-57 88t-24.5 111h308q6 -44 23.5 -77.5 t42.5 -55.5t56 -32t66 -10q69 0 114 24t71.5 64.5t37 92.5t10.5 108v84q-30 -26 -60.5 -46t-67.5 -34.5t-79 -23.5q-40 -8 -90 -8q-83 0 -149.5 20t-119 54.5t-92 84t-64.5 109t-37.5 127t-12.5 140.5zM397 567q0 -55 11.5 -115.5t36.5 -111t68 -83t104 -32.5 q59 0 102.5 28.5t72 74t43.5 102.5q15 58 15 114q0 65 -11 127.5t-38.5 112t-72 80.5t-111.5 31q-57 0 -99 -28.5t-68.5 -75.5t-39.5 -106t-13 -118z" />
<glyph unicode="h" horiz-adv-x="1243" d="M112 0v1463h317v-496q24 25 54.5 46.5t68 39t82.5 27t97 9.5q100 0 175.5 -27t124.5 -77t74 -123.5t25 -164.5v-697h-319v657q0 119 -33.5 173.5t-107.5 54.5q-58 0 -104 -28t-75 -75t-45.5 -106t-16.5 -120v-556h-317z" />
<glyph unicode="i" horiz-adv-x="557" d="M121 0v1061h317v-1061h-317zM121 1220v243h317v-243h-317z" />
<glyph unicode="j" horiz-adv-x="598" d="M-38 -148q20 -3 32 -5.5t21 -3t14 -0.5h9q21 0 38.5 5t31 18t21.5 33t8 50v1112h319v-1096q0 -83 -21.5 -146t-68 -105.5t-120 -64t-175.5 -21.5q-12 0 -27 1t-29.5 3t-28.5 4t-24 4v212zM137 1220v243h319v-243h-319z" />
<glyph unicode="k" horiz-adv-x="1203" d="M138 0v1463h318v-757l342 355h366l-405 -398q107 -165 218 -332.5t218 -330.5h-363l-282 459q-27 -25 -50 -50q-24 -24 -44 -47v-362h-318z" />
<glyph unicode="l" horiz-adv-x="557" d="M121 0v1463h317v-1463h-317z" />
<glyph unicode="m" horiz-adv-x="1883" d="M121 0v1061h301v-97q53 62 128.5 93.5t178.5 31.5q44 0 89.5 -8t87 -24t76.5 -45q35 -27 57 -68q33 41 72 68t81.5 44t88 25t88.5 8q88 0 160 -20.5t124 -66t80 -117.5q28 -74 28 -176v-709h-317v698q0 97 -37 142t-105 45q-38 0 -74 -21.5t-64.5 -62t-46 -100.5 t-17.5 -137v-564h-318v698q0 97 -36.5 142t-104.5 45q-38 0 -74 -21.5t-65 -62t-46.5 -100.5t-17.5 -137v-564h-317z" />
<glyph unicode="n" horiz-adv-x="1243" d="M112 0v1061h303v-97q25 27 58.5 49t74 39.5t86 27t97.5 9.5q100 0 175.5 -27t124.5 -77t74 -123.5t25 -164.5v-697h-319v657q0 119 -33.5 173.5t-107.5 54.5q-58 0 -104 -28t-75 -75t-45.5 -106t-16.5 -120v-556h-317z" />
<glyph unicode="o" horiz-adv-x="1280" d="M78 529q0 127 39.5 230.5t112.5 176t177.5 113t230.5 40.5q129 0 233 -40.5t177.5 -113t113 -176t39.5 -230.5q0 -126 -39.5 -229t-113 -176.5t-177.5 -113t-233 -39.5q-126 0 -230.5 39.5t-177.5 113t-112.5 176.5t-39.5 229zM397 529q0 -41 5 -84.5t16 -84t30 -76.5 t45.5 -62t62 -41.5t82.5 -15.5t83 15.5t63 41.5t45.5 62t29.5 76.5t17 84t6 84.5t-6 85.5t-17 85.5t-29.5 76t-45.5 61.5t-63 42t-83 15.5t-82.5 -15.5t-62 -42t-45.5 -61.5t-30 -76t-16 -85.5t-5 -85.5z" />
<glyph unicode="p" horiz-adv-x="1280" d="M112 -373v1433h305v-93q21 25 50.5 47t64.5 39t77 26q41 9 88 9q123 0 220 -39t163.5 -112.5t101 -178.5t34.5 -238q0 -130 -34.5 -232.5t-101 -173t-162 -107t-215.5 -36.5q-43 0 -83.5 8.5t-75.5 23.5t-65 34q-29 19 -48 42v-452h-319zM422 526q0 -42 5 -85.5t16 -83 t29.5 -75t43.5 -62t60.5 -41t79.5 -14.5t79 14.5t61.5 41t45.5 62t31 75.5t18 83.5t6 87.5q0 62 -15 126.5t-43.5 117.5t-74.5 88q-44 34 -108 34q-68 0 -113.5 -33t-72 -86t-37.5 -119t-11 -131z" />
<glyph unicode="q" horiz-adv-x="1280" d="M68 520q0 133 35 238t101 178.5t162 112.5t221 39q47 0 88 -9t77 -26t65.5 -39t49.5 -47v93h306v-1433h-320v452q-21 -23 -49.5 -42t-64 -34t-76 -23.5t-82.5 -8.5q-121 0 -216 36.5t-161 107t-101 173.5t-35 232zM388 529q0 -44 6 -87.5t17.5 -83.5t30 -75.5t45.5 -62 t62.5 -41t79.5 -14.5t78.5 14.5t60.5 41t43.5 62t29.5 75t16 83t4 85.5q0 65 -10 131t-37.5 119t-72 86t-112.5 33q-65 0 -110.5 -34.5t-74 -87.5t-42.5 -117.5t-14 -126.5z" />
<glyph unicode="r" horiz-adv-x="824" d="M112 0v1061h303v-114q57 76 137 109t183 33q28 0 50.5 -5.5t34.5 -13.5v-238q-26 9 -58.5 14t-60.5 5q-76 0 -127.5 -32.5t-83 -84.5t-46.5 -119.5t-15 -136.5v-478h-317z" />
<glyph unicode="s" horiz-adv-x="1128" d="M59 347h314q0 -47 16.5 -84t45 -62.5t66 -39.5t78.5 -14t73 10.5t53 26.5t31.5 36.5t10.5 44.5q0 19 -6 39.5t-28 40.5t-61.5 39t-107.5 33q-124 30 -210.5 63.5t-142.5 78t-81 99.5q-25 56 -25 127q0 75 35.5 131.5t98.5 95t150.5 58t189.5 19.5q58 0 115.5 -6.5 t109 -22.5t95.5 -42.5t78 -65t55 -88.5q21 -53 27 -117h-305q-3 41 -18.5 74t-40.5 54.5t-57 32.5q-33 12 -68 12q-28 0 -54 -7t-46.5 -20.5t-33.5 -34t-13 -50.5q0 -32 17.5 -55.5t53 -42.5t86 -34.5t116.5 -31.5q106 -27 181 -59t122 -73.5t67.5 -92.5t20.5 -115 q0 -81 -35 -141t-100 -101t-157 -62q-93 -21 -205 -21q-63 0 -124 7.5t-117 25t-103.5 45.5t-83.5 69.5t-58 95.5t-25 125z" />
<glyph unicode="t" horiz-adv-x="749" d="M13 891v170h175v316h319v-316h213v-170h-213v-572q0 -35 5 -61t17 -42t33.5 -23.5t53.5 -7.5q15 0 41 2q28 1 63 7v-194l-72 -6q-29 -3 -60.5 -4.5t-52.5 -1.5q-70 0 -132 14t-110.5 47t-76.5 87.5t-28 133.5v621h-175z" />
<glyph unicode="u" horiz-adv-x="1243" d="M112 365v696h317v-658q0 -119 34 -173t110 -54q59 0 103 28t75 74.5t45.5 106t14.5 121.5v555h319v-1061h-311v94q-27 -26 -58.5 -49t-71 -39t-83.5 -25.5t-94 -9.5q-100 0 -175 27t-125 77.5t-75 123.5t-25 166z" />
<glyph unicode="v" horiz-adv-x="1093" d="M-18 1061h333l239 -729l243 729h314l-389 -1061h-349z" />
<glyph unicode="w" horiz-adv-x="1694" d="M-15 1061h334l179 -688l197 688h299l198 -688l178 688h335l-335 -1061h-328l-197 685l-198 -685h-327z" />
<glyph unicode="x" horiz-adv-x="1118" d="M-6 0l379 559l-347 502h358l173 -285l172 285h349l-350 -497l392 -564h-359l-208 335l-208 -335h-351z" />
<glyph unicode="y" horiz-adv-x="1092" d="M-12 1061h338l228 -738l219 738h329l-440 -1192q-24 -62 -57 -104.5t-79.5 -69.5t-106.5 -39.5t-137 -12.5q-47 0 -98.5 3.5t-92.5 8.5v211q19 -3 35.5 -3.5t32.5 -2t33.5 -1.5h39.5q31 0 57 10t43.5 28.5t27.5 44.5t10 55q0 24 -5.5 49.5t-13.5 44.5z" />
<glyph unicode="z" horiz-adv-x="1092" d="M44 0v213l618 654h-590v194h948v-214l-616 -653h641v-194h-1001z" />
<glyph unicode="{" horiz-adv-x="726" d="M4 473v177q40 3 68.5 14.5t47 31.5t27.5 50t9 74v405q0 70 25 122t66 87t92.5 51.5t104.5 16.5h251v-203h-103q-32 0 -54 -8.5t-36 -24.5t-20.5 -37.5t-6.5 -46.5v-394q0 -41 -11 -72t-30 -55t-42.5 -41t-46.5 -29t-44.5 -18t-35.5 -9v-5q14 -3 35.5 -9t44.5 -17 t46.5 -28t42.5 -42t30 -56t11 -72v-394q0 -25 6.5 -46t20.5 -36.5t36 -24.5t54 -9h103v-204h-251q-52 0 -104 17.5t-93 51.5t-66 86.5t-25 123.5v404q0 43 -9 74t-27.5 50t-47 30.5t-68.5 14.5z" />
<glyph unicode="|" horiz-adv-x="455" d="M97 -365v1850h263v-1850h-263z" />
<glyph unicode="}" horiz-adv-x="726" d="M31 -175h103q32 0 54 9t36 24.5t20.5 37.5t6.5 45v394q0 41 11 72t30.5 56t43 42t46 28t44.5 18q21 5 36 8v5q-15 3 -36.5 9t-44 18t-46 29t-43 41t-30.5 56q-11 30 -11 71v394q0 25 -6.5 46.5t-20.5 37.5t-36.5 24.5t-53.5 8.5h-103v203h251q52 0 104 -16.5t93 -51.5 t66 -87t25 -122v-405q0 -44 9 -74t27.5 -50t46.5 -31q29 -12 69 -15v-177q-40 -3 -68.5 -14.5t-47 -30.5t-27.5 -50t-9 -74v-404q0 -71 -25 -123.5t-66 -86.5t-92.5 -51.5t-104.5 -17.5h-251v204z" />
<glyph unicode="~" horiz-adv-x="1118" d="M93 706q16 32 44 57t63 42.5t73.5 26.5t74.5 9q42 0 78.5 -9t71 -23t68.5 -30t68.5 -30t69.5 -23q37 -9 75 -9q54 0 100.5 28t76.5 83l76 -206q-16 -33 -44 -58.5t-62.5 -42.5t-73 -26.5t-76.5 -9.5q-65 0 -124.5 20t-113 43.5t-102 43.5t-89.5 20q-54 0 -100.5 -29.5 t-77.5 -82.5z" />
<glyph unicode="&#xa2;" horiz-adv-x="1137" d="M49 514q0 109 28.5 203t83 167.5t133.5 123.5t182 71v153h253v-153q77 -15 143.5 -46.5t119 -80.5t84.5 -115.5t38 -151.5h-311q-9 50 -29.5 92.5t-53.5 72.5v-635q37 35 60 85.5t31 108.5h309q-12 -89 -44 -161t-83 -125.5t-118 -88t-146 -50.5v-184h-253v182 q-97 18 -176.5 65t-135 116t-85.5 159t-30 192zM368 525q0 -41 5.5 -87.5t20.5 -90.5t37 -82.5t54 -63.5v653q-32 -26 -54 -65t-36 -83t-20.5 -91.5t-6.5 -89.5z" />
<glyph unicode="&#xa3;" horiz-adv-x="1183" d="M29 632v176h115q-15 30 -29 61.5t-25 66t-16.5 74.5t-5.5 87q0 82 33.5 154t102 127t169 86.5t233.5 31.5q119 0 213.5 -29t161 -91t101.5 -154.5t34 -216.5h-313q0 55 -9 105.5t-31 90.5t-60.5 65t-99.5 25q-49 0 -83.5 -17t-58 -45t-34 -65.5t-10.5 -80.5 q0 -38 7.5 -71.5t21 -67t29.5 -67t31 -69.5h267v-176h-203q6 -29 10 -60t4 -66q0 -44 -11 -83t-31 -73.5t-47.5 -64t-60.5 -50.5q39 12 73.5 18t71.5 6q33 0 63 -5.5l60 -11t60 -10.5q29 -6 64 -6q25 0 53.5 6t58 18t56.5 30q26 20 48 46l130 -219q-39 -35 -80 -60 t-83 -39.5t-81.5 -21.5t-73.5 -7q-46 0 -84 4.5t-73 10.5t-67.5 13.5t-66.5 13t-70.5 10t-77.5 4.5q-24 0 -53.5 -3.5t-61 -11.5t-64.5 -21.5t-63 -30.5l-130 194q41 26 80.5 60.5t70.5 75t49.5 86t18.5 98.5q0 43 -7.5 79t-20.5 71h-205z" />
<glyph unicode="&#xa5;" horiz-adv-x="1202" d="M-10 1463h360l256 -605l252 605h358l-246 -493h203v-191h-297l-79 -157h376v-193h-403v-429h-339v429h-405v193h378l-78 157h-300v191h206z" />
<glyph unicode="&#xa9;" horiz-adv-x="1637" d="M19 732q0 118 28.5 219.5t80 186.5t123.5 151t161 113t191.5 70.5t214 23.5t215 -23.5t192.5 -70.5t161 -113t123.5 -151t79.5 -188q28 -100 28 -218q0 -116 -28 -218t-79.5 -187.5t-125 -153t-161.5 -113t-191 -70.5t-215 -25q-111 0 -213.5 25t-191.5 70.5t-161 113 t-123.5 153t-80 187.5t-28.5 218zM256 732q0 -91 20.5 -175t56.5 -153t86.5 -125t114 -95.5t135.5 -60t148.5 -20.5t148.5 20.5t134.5 60t114 95.5t87.5 125t56.5 151.5t20.5 176.5q0 96 -20.5 179t-56.5 152.5t-87.5 125t-114 93t-133.5 56.5q-73 20 -150 20 q-78 0 -149 -19.5t-134.5 -57t-114 -93t-86.5 -125t-56.5 -152.5t-20.5 -179zM370 729q0 100 32.5 184t91.5 145t143.5 95.5t190.5 34.5q73 0 144.5 -19t128.5 -59t97 -98.5t52 -138.5h-227q-9 35 -22 67.5t-35 57t-54.5 38.5t-76.5 14q-54 0 -96 -23t-71 -64t-43 -100 q-15 -60 -15 -130.5t16 -128t46.5 -98.5t72.5 -64q40 -23 93 -23q43 0 77.5 15.5t58 42t38 60t20.5 69.5h229q-11 -77 -52.5 -138t-100 -103t-128.5 -64q-72 -22 -142 -22q-103 0 -188.5 34t-147.5 94t-97 142.5t-35 179.5z" />
<glyph unicode="&#xab;" horiz-adv-x="908" d="M28 503v258l387 274v-251l-189 -152l189 -156v-253zM488 503v258l385 274v-251l-188 -152l188 -156v-253z" />
<glyph unicode="&#xad;" horiz-adv-x="833" d="M85 562v207h662v-207h-662z" />
<glyph unicode="&#xae;" horiz-adv-x="1637" d="M19 732q0 118 28.5 219.5t80 186.5t123.5 151t161 113t191.5 70.5t214 23.5t215 -23.5t192.5 -70.5t161 -113t123.5 -151t79.5 -188q28 -100 28 -218q0 -116 -28 -218t-79.5 -187.5t-125 -153t-161.5 -113t-191 -70.5t-215 -25q-111 0 -213.5 25t-191.5 70.5t-161 113 t-123.5 153t-80 187.5t-28.5 218zM256 732q0 -91 20.5 -175t56.5 -153t86.5 -125t114 -95.5t135.5 -60t148.5 -20.5t148.5 20.5t134.5 60t114 95.5t87.5 125t56.5 151.5t20.5 176.5q0 96 -20.5 179t-56.5 152.5t-87.5 125t-114 93t-133.5 56.5q-73 20 -150 20 q-78 0 -149 -19.5t-134.5 -57t-114 -93t-86.5 -125t-56.5 -152.5t-20.5 -179zM470 304v860h388q83 0 149 -13t112.5 -44t70.5 -79.5t24 -119.5q0 -55 -20.5 -95t-54.5 -68t-78 -43q-44 -17 -94 -23l237 -375h-254l-209 366h-50v-366h-221zM691 807h135q27 0 54.5 3.5 t50 15.5t36 34t13.5 62q0 34 -15 54.5t-38.5 32t-52.5 15.5t-55 4h-128v-221z" />
<glyph unicode="&#xbb;" horiz-adv-x="908" d="M37 223v253l186 156l-186 152v251l385 -274v-258zM495 223v253l187 156l-187 152v251l387 -274v-258z" />
<glyph unicode="&#xbc;" horiz-adv-x="1825" d="M35 1139v135q50 0 94 9t79.5 29t59 53t32.5 80h198v-888h-238v582h-225zM298 -44l847 1523h199l-843 -1523h-203zM979 160v166l397 535h242v-548h117v-153h-117v-160h-236v160h-403zM1164 313h218v296z" />
<glyph unicode="&#xbd;" horiz-adv-x="1819" d="M35 1139v135q50 0 94 9t79.5 29t59 53t32.5 80h198v-888h-238v582h-225zM298 -44l847 1523h199l-843 -1523h-203zM1025 0q0 79 24 138.5t63.5 106t92 85t112.5 74.5q30 18 63.5 40.5t61.5 50.5t45.5 60.5t17.5 72.5q0 67 -29.5 103t-83.5 36q-38 0 -64 -18t-40.5 -47 t-20.5 -62.5t-3 -64.5h-238q0 79 28 141t77 103.5t117.5 64t150.5 22.5q67 0 128.5 -18t109.5 -53t77 -88t29 -121q0 -50 -21 -95.5t-56.5 -85t-81.5 -74t-96 -65.5q-24 -15 -50.5 -31t-50.5 -35.5t-42.5 -41.5t-27.5 -45h418v-153h-710z" />
<glyph unicode="&#xbe;" horiz-adv-x="1819" d="M66 848h232q0 -38 8.5 -69.5t25 -53.5t42.5 -34.5t60 -12.5q28 0 53 11t42.5 28.5t27.5 42t10 51.5q0 74 -41 113t-111 39h-6t-9 -1t-16.5 -1t-27.5 -3v124q44 -3 79 4.5t61 23.5t40 41t14 60q0 25 -9 45t-24.5 35.5t-36.5 23.5t-48 8q-29 0 -52 -12t-38.5 -33t-24 -49.5 t-8.5 -58.5h-227q3 74 29.5 128t72 91t110.5 55.5t144 18.5q84 0 147 -21.5t105 -55.5t64 -78t22 -91q0 -29 -7.5 -58.5t-25 -54.5t-45.5 -45.5t-69 -35.5q44 -12 76.5 -31.5t55.5 -46t34 -58t11 -64.5q0 -73 -31 -127.5t-82.5 -89t-120 -51.5t-141.5 -17q-86 0 -154 21.5 t-115 61t-72 97t-24 130.5zM482 -44l847 1523h198l-842 -1523h-203zM1023 160v166l397 535h243v-548h116v-153h-116v-160h-237v160h-403zM1208 313h218v296z" />
<glyph unicode="&#xd7;" horiz-adv-x="1227" d="M118 353l314 314l-313 312l187 185l311 -311l309 308l188 -185l-311 -310l311 -312l-185 -186l-312 311l-314 -313z" />
<glyph unicode="&#xf7;" horiz-adv-x="1227" d="M118 556v216h996v-216h-996zM426 315q0 35 15 64.5t40.5 49t60 30.5t72.5 11q39 0 72.5 -11t58.5 -30.5t40 -49t15 -64.5q0 -37 -15 -66.5t-40 -49.5t-58.5 -31t-72.5 -11q-38 0 -72.5 11t-60 31.5t-40.5 50t-15 65.5zM426 1008q0 36 15 65t40.5 50t60 32t72.5 11 q39 0 72.5 -11t58.5 -32t40 -49q15 -30 15 -66t-15 -65t-40 -49.5t-58.5 -30.5t-72.5 -10q-38 0 -72.5 11t-60 30.5t-40.5 49t-15 64.5z" />
<glyph unicode="&#xe01;" horiz-adv-x="1371" d="M69 772v229q6 0 23.5 5t41 14t51 22t53.5 31q56 35 112 62.5t114.5 46t122 28.5t130.5 10q133 0 230.5 -28t161.5 -76.5t95 -113t31 -138.5v-864h-315v841q0 47 -16 81t-45.5 56t-69 30.5t-86.5 8.5q-52 -1 -98 -15t-89 -34t-82.5 -41t-79.5 -36q18 -2 38 -4t39.5 -3.5 t38 -3.5t33.5 -4v-876h-316v759z" />
<glyph unicode="&#xe02;" horiz-adv-x="1252" d="M51 947q0 54 20 102t57 83t92 57t125 24q109 3 189 -24.5t134.5 -76t81 -115t26.5 -141.5q0 -50 -7.5 -94.5t-25 -83.5t-44.5 -74q-27 -37 -65 -69q-31 -26 -57 -49t-45 -47t-30 -50t-11 -57v-135h303v1007h314v-1204h-932v294q0 59 18 108t54.5 95.5t94 95t133.5 104.5 q18 12 29.5 22t20.5 20.5t15 21.5q6 9 12 24q-40 -40 -95 -63.5t-124 -23.5q-59 0 -110.5 17t-89.5 48t-60.5 78t-22.5 106zM240 951q0 -19 6.5 -36.5t19.5 -32.5t32.5 -23t45.5 -8q24 0 43 9t32 23t19.5 32t6.5 36q0 21 -6.5 38.5t-19.5 31.5t-32 21.5t-46 7.5 q-25 0 -44 -9t-31.5 -22.5t-19 -31t-6.5 -36.5z" />
<glyph unicode="&#xe03;" horiz-adv-x="1392" d="M38 785q0 79 28 152.5t73.5 131t104.5 95.5t118 47l155 -117l150 120q65 -3 113.5 -30t80 -69t47 -95t15.5 -109q0 -55 -12.5 -102.5t-33.5 -88.5t-50.5 -79t-60.5 -77q-32 -38 -58 -68.5t-43 -62.5t-25.5 -66.5t-8.5 -78.5v-91h301v1007h316v-1204h-933v244 q0 59 16 109.5t45.5 99t74.5 98.5q46 49 102 102t85 94t42.5 73.5t15.5 56t2 40.5q0 39 -12 63q-10 25 -22 37l-145 -109l-154 109q-9 -6 -18.5 -14.5t-18.5 -20.5t-15.5 -23.5t-9.5 -22.5q82 -11 130 -61q48 -52 48 -134q0 -44 -17 -81t-46.5 -64t-69 -42t-85.5 -15 q-56 0 -98 19.5t-69.5 52.5t-42.5 78q-15 43 -15 96zM188 744q0 -15 5 -27.5t15 -22.5t23.5 -17t31.5 -7t32.5 7t24 17t14.5 23q4 12 4 27t-4.5 28t-14 23.5t-23.5 17t-33 6.5t-32 -6.5t-23.5 -17t-15 -23.5t-4.5 -28z" />
<glyph unicode="&#xe04;" horiz-adv-x="1400" d="M88 767q0 103 33 185.5t106 140.5t186 89t275 31q128 0 234.5 -26t182 -74.5t117.5 -120.5t42 -163v-829h-314v782q0 53 -15.5 97t-48 76.5t-84.5 50t-124 17.5q-80 0 -136.5 -17.5t-92.5 -50t-53 -76.5t-17 -100q0 -31 1.5 -65.5t4.5 -69.5t6 -67.5t6.5 -60.5t6 -49.5 t3.5 -31.5q3 27 9 65.5t13.5 79t15.5 78t14 61.5q11 44 34 75.5t51.5 52t65.5 31t76 10.5q46 0 86.5 -15.5t70.5 -43.5t47 -68q16 -41 16 -91q0 -45 -15.5 -84t-44.5 -67.5t-68.5 -45t-89.5 -16.5q-19 0 -34.5 2.5t-25.5 5.5q-8 -24 -15 -59.5t-16 -75.5t-16.5 -85 t-13 -88.5t-10 -84t-4.5 -72.5h-363q1 9 1 19v18v16q0 88 -15.5 175t-34.5 176q-20 97 -36.5 187t-16.5 176zM606 671.5q0 -14.5 5 -29t14.5 -25.5t24 -18.5t35.5 -7.5t35.5 7.5t25 18.5t14.5 25t4 30q0 14 -4 28t-14.5 26t-25 19.5t-35.5 7.5t-35.5 -7.5t-24 -19.5 t-14.5 -26t-5 -28.5z" />
<glyph unicode="&#xe05;" horiz-adv-x="1403" d="M88 767q0 89 24.5 165t74.5 135.5t125.5 98.5t178.5 51l184 -112l213 117q100 -14 170.5 -49t117.5 -88t69 -118q22 -64 22 -138v-829h-316v806q0 70 -20 120t-61 77l-191 -106l-184 106q-26 -18 -47.5 -38.5t-36 -48t-23.5 -62t-9 -75.5q0 -31 1.5 -67t4.5 -73.5 t7.5 -73.5t7.5 -66t5 -53t4 -33q3 27 7 65t11 77.5t13.5 75.5t15.5 60q28 85 89.5 126t142.5 41q46 0 86 -15t69.5 -43t47 -68.5t17.5 -90.5q0 -46 -16 -85t-44.5 -67.5t-69 -44.5t-90.5 -16q-19 0 -36.5 2t-28.5 5q-10 -35 -22.5 -89.5t-23 -114.5t-17.5 -121t-7 -110h-363 q1 9 1 19v18v16q0 88 -15.5 175t-34.5 176q-20 97 -36.5 187t-16.5 176zM607 642.5q0 -14.5 5 -29.5t15.5 -26t25 -18t35.5 -7t34.5 7t23.5 18t15.5 25t5.5 30q0 15 -5 29t-14.5 26t-24.5 19q-14 7 -35 7t-35.5 -7t-25 -19t-15.5 -26t-5 -28.5z" />
<glyph unicode="&#xe06;" horiz-adv-x="1489" d="M44 806q0 79 28.5 149.5t74.5 126.5t104 91t117 47l155 -118l150 120q65 -3 118 -30.5t89.5 -70t56 -95.5t19.5 -107q0 -56 -10.5 -102.5t-31 -87.5t-50.5 -79q-29 -38 -64 -74v-119l236 -175v922h316v-1204h-311l-253 194q-9 -41 -33 -78.5t-61.5 -65.5t-89 -44 t-116.5 -16q-68 0 -123.5 18t-95.5 53t-62 84t-22 111t23.5 111t63.5 85t94 55t116 19h3h-1v78q55 35 94 68.5t62.5 65t37 60t19.5 53t7 43.5q2 20 2 32q0 38 -12 61.5t-24 35.5l-144 -107l-156 109q-20 -11 -37.5 -30t-23.5 -39q82 -12 130.5 -62t48.5 -133 q0 -44 -17.5 -82t-47 -64.5t-69 -41t-84.5 -14.5q-55 0 -97 19t-70.5 52t-43.5 78t-15 98zM196 764q0 -14 5 -27.5t13.5 -23.5t23.5 -16t32 -6q18 0 33 6t23.5 16t13 23.5t4.5 27.5q0 15 -4.5 27.5t-13 23t-23.5 17t-33 6.5q-19 0 -33 -6.5t-23.5 -17t-13.5 -23.5 q-4 -12 -4 -27zM381 259q0 -18 6.5 -36.5t18 -32.5t31 -22.5t42.5 -8.5q25 0 44 8.5t31.5 22t18.5 32t6 37.5q0 17 -6 35t-19 32t-31.5 22t-43.5 8q-23 0 -42.5 -8t-31 -22t-18 -32t-6.5 -35z" />
<glyph unicode="&#xe07;" horiz-adv-x="1153" d="M1 882l239 229q25 -47 54 -117q25 -59 56.5 -151t66.5 -218q20 -69 35 -138.5t27 -128t19.5 -101t10.5 -60.5h192v476h-14h-14q-57 0 -108 18.5t-88 53t-58.5 83t-21.5 107.5t20.5 109.5t60 88t94 59t122.5 21.5q87 0 148.5 -24.5t100.5 -67t56.5 -100t17.5 -124.5v-897 h-755q0 1 -5.5 27.5t-13.5 70t-19.5 99.5t-26.5 116t-31 120.5t-34 113.5q-17 56 -37.5 111.5t-40 102.5t-33.5 79.5t-20 41.5zM588 935q0 -18 6 -35.5t19 -31.5t32 -22t43 -8q25 0 43.5 8t30 22t18 31.5t6.5 35.5t-5.5 37t-18 32t-32 22t-42.5 9q-25 0 -44 -9t-31.5 -23 t-18.5 -32t-6 -36z" />
<glyph unicode="&#xe08;" horiz-adv-x="1270" d="M26 839q6 93 55.5 163t128 116t178.5 70.5t209 24.5q114 0 216.5 -24.5t178 -76t119.5 -132.5q41 -80 41 -191q0 -73 -22 -158q-22 -87 -48 -181q-15 -53 -30.5 -106.5t-28 -110.5t-19.5 -115t-7 -118h-403q-3 35 -10.5 84.5t-16 100t-19 99t-19.5 84.5 q-10 -3 -28.5 -4.5t-30.5 -1.5q-45 0 -87 14t-74.5 42.5t-51.5 69.5t-19 97q0 50 16 92.5t48.5 73.5t78 49.5t104.5 18.5q56 0 100 -17t76.5 -46.5t53 -69t26.5 -86.5q3 -24 7.5 -52.5t8.5 -58t8 -57.5q2 -28 5 -50q2 10 7 36t12.5 61t14.5 77t13 84t10.5 81.5t4.5 70.5 q0 121 -60.5 177.5t-189.5 56.5q-53 0 -97 -13t-78 -36.5t-53.5 -57.5t-24.5 -80h-303zM397 591q0 -15 6 -29.5t15.5 -26.5t23.5 -18.5t34 -6.5q21 0 35.5 6.5t25 18.5t15.5 26q5 15 5 30t-5 29t-15.5 25t-25 18t-35.5 7q-20 0 -35 -7t-24.5 -18t-14.5 -25t-5 -29z" />
<glyph unicode="&#xe09;" horiz-adv-x="1458" d="M56 848q3 62 25 112.5t61.5 91t94 70.5t119 51t139.5 31t155 10q144 0 249.5 -26.5t175.5 -77t104.5 -125t34.5 -171.5v-291q56 -6 101.5 -26.5t78 -54t51 -80t18.5 -103.5q0 -63 -20 -112.5t-58 -85t-92 -53.5q-55 -18 -123 -18q-65 0 -112 15.5t-80.5 40.5t-55.5 58.5 t-34 71.5l-226 -176h-324v282q-3 0 -6 -0.5t-6 -0.5q-54 0 -102 16t-83 47.5t-55.5 78t-20.5 106.5q0 58 18 106.5t54 83.5t90 55t123 20q79 0 136.5 -23t94 -62.5t55 -94t18.5 -117.5v-232l246 176v332q0 58 -12.5 104t-43 80t-80.5 51.5t-126 17.5q-51 0 -95.5 -11.5 t-77.5 -34t-55 -55.5t-26 -77h-328zM247 531q0 -18 6 -35t17.5 -29.5t28.5 -20.5t41 -8q23 0 40 8t28.5 20.5t17.5 29.5t6 35q0 17 -5 34t-17 30.5t-29.5 22t-40.5 8.5q-24 0 -41.5 -8.5t-29.5 -22t-17 -30.5t-5 -34zM1080 259q0 -19 6 -37t18.5 -32t31.5 -22.5t43 -8.5 q25 0 44 8.5t31.5 23.5t18.5 32.5t6 35.5q0 17 -6 35.5t-19 32.5t-32.5 22t-42.5 8q-25 0 -43.5 -8t-30 -22t-18.5 -32q-7 -19 -7 -36z" />
<glyph unicode="&#xe0a;" horiz-adv-x="1277" d="M51 947q0 54 20 102t57 83t92 57t125 24q75 3 137 -11t112 -39t85 -60.5t59 -79.5l190 310h338l-258 -366q27 -13 50.5 -32t39.5 -46.5t26 -63.5q9 -34 9 -81v-744h-957v294q0 59 18 108t54.5 95.5t94.5 94.5q57 49 133 105q18 12 29.5 22t20.5 20.5t15 21.5q6 9 12 24 q-40 -40 -95 -63.5t-124 -23.5q-59 0 -110.5 17t-89.5 48t-60.5 78t-22.5 106zM240 951q0 -19 6.5 -36.5t19.5 -32.5t32.5 -23t45.5 -8q24 0 43 9t32 23t19.5 32t6.5 36q0 21 -6.5 38.5t-19.5 31.5t-32 21.5t-46 7.5q-25 0 -44 -9t-31.5 -22.5t-19 -31t-6.5 -36.5zM491 197 h326v547q0 56 -10 94t-34 62q2 -12 2.5 -22.5t0.5 -21.5q0 -50 -7.5 -94.5t-25 -83.5t-44.5 -74q-27 -37 -65 -69q-31 -26 -57 -49t-45 -47t-30 -50t-11 -57v-135z" />
<glyph unicode="&#xe0b;" horiz-adv-x="1392" d="M38 785q0 79 28 152.5t73.5 131t104.5 95.5t118 47l155 -117l150 120q80 -4 133 -42q56 -39 85 -96l157 257h338l-257 -366q27 -13 50.5 -32t39.5 -46.5t25 -63.5q10 -34 10 -81v-744h-933v244q0 59 16 109.5t45.5 99t74.5 98.5q46 49 102 102t85 94t42.5 73.5t15.5 56 t2 40.5q0 39 -12 63q-10 25 -22 37l-145 -109l-154 109q-9 -6 -18.5 -14.5t-18.5 -20.5t-15.5 -23.5t-9.5 -22.5q82 -11 130 -61q48 -52 48 -134q0 -44 -17 -81t-46.5 -64t-69 -42t-85.5 -15q-56 0 -98 19.5t-69.5 52.5t-42.5 78q-15 43 -15 96zM188 744q0 -15 5 -27.5 t15 -22.5t23.5 -17t31.5 -7t32.5 7t24 17t14.5 23q4 12 4 27t-4.5 28t-14 23.5t-23.5 17t-33 6.5t-32 -6.5t-23.5 -17t-15 -23.5t-4.5 -28zM631 197h301v547q0 64 -15 106q-6 -43 -20.5 -82t-33.5 -72.5t-44 -66t-53 -65.5q-32 -38 -58 -68.5t-43 -62.5t-25.5 -66.5 t-8.5 -78.5v-91z" />
<glyph unicode="&#xe0c;" horiz-adv-x="1921" d="M59 772v229q1 0 19 5t43.5 14t56.5 22t57 31q56 38 110.5 65.5t109.5 45.5t114.5 27t128.5 9q133 0 230.5 -28t162 -76.5t95.5 -113t31 -138.5v-385q31 -9 64 -26.5t65.5 -39.5t62 -45.5t52.5 -45.5v882h318v-1204h-313q-12 22 -29 46.5t-37 49.5t-41 45.5t-42 36.5 q-10 -35 -30 -69.5t-51.5 -61t-77 -43t-108.5 -16.5q-56 0 -104.5 16.5t-84.5 47t-56.5 77t-20.5 105.5q0 44 11 78.5t27 61t37.5 45t41.5 28.5v394q0 47 -16 82t-45 57.5t-68 33.5q-40 9 -88 9q-52 -1 -97 -13.5t-86.5 -32t-80 -40t-76.5 -37.5q18 -2 37 -4t39 -5t38 -4.5 t33 -3.5v-407q47 0 92.5 -16t79.5 -45.5t53.5 -75t19.5 -105.5q0 -59 -18 -105.5t-52 -77t-84 -47t-112 -16.5q-79 0 -135 22t-91 60.5t-51.5 90t-16.5 107.5v491zM373 232q0 -44 26.5 -72t72.5 -28q44 0 71 27q27 29 27 73q0 21 -7 39.5t-20.5 31.5t-31 20.5t-39.5 7.5 q-44 0 -71.5 -27.5t-27.5 -71.5zM953 232q0 -44 27 -72t71 -28t71.5 28t27.5 72t-26.5 71.5t-72.5 27.5q-22 0 -39.5 -7.5t-31 -20.5t-20.5 -31.5t-7 -39.5z" />
<glyph unicode="&#xe0d;" horiz-adv-x="1897" d="M59 772v229q29 6 71.5 21.5t97.5 47.5q65 38 120 67.5t110.5 47t114.5 26.5t127 9q132 0 230 -28t161.5 -76.5t94.5 -113t31 -138.5v-667h221v1007h317v-1204h-852v841q0 47 -16.5 82t-46 57.5t-68.5 33.5q-40 9 -87 9q-51 -1 -96 -13.5t-87 -32t-81 -40t-77 -37.5 q18 -2 37 -4t39.5 -5t39 -4.5t32.5 -3.5v-361q6 0 15 0.5t15 0.5q57 0 107 -16t88.5 -49t60.5 -82.5t22 -112.5q0 -65 -19.5 -115.5t-58 -86t-95.5 -54.5t-130 -19q-87 0 -148 25t-99 69t-56 102q-18 57 -18 125v448zM403 265q0 -20 6 -38t17.5 -32t30.5 -23t44 -9t44 9 t31 23t18 32q6 20 6 38q0 17 -6 35t-18.5 31t-31.5 22t-43 9q-25 0 -43 -9t-30.5 -22t-18.5 -31t-6 -35zM908 -270q0 41 15 77.5t42 62.5t66 40.5t88 14.5q53 0 92 -14.5t65 -40.5t39.5 -60.5t13.5 -74.5q0 -17 -3.5 -36t-12.5 -36q51 6 94.5 30.5t78 62t58.5 86t38 102.5 l188 -162q-32 -58 -86.5 -109.5t-122 -88.5t-150 -57.5t-172.5 -20.5q-85 0 -147.5 16t-103.5 45t-60.5 71t-19.5 92zM1053 -268q0 -29 20.5 -49.5t49.5 -20.5q31 0 50 20q19 21 19 50q0 31 -19 49.5t-50 18.5q-29 0 -49.5 -18.5t-20.5 -49.5z" />
<glyph unicode="&#xe0e;" horiz-adv-x="1480" d="M47 241q0 57 19 102t54.5 76t82.5 47t103 16h17h17v271q-18 3 -39.5 5.5t-41 5t-39.5 4.5t-35 4v229q2 0 20 4.5t44.5 14t56 22.5t56.5 31q55 38 109.5 64.5t110.5 45t116 26.5q61 8 128 8q132 0 230 -25.5t162 -72t95 -112t31 -143.5v-1308h-321q-37 35 -78 69 q-39 34 -84 63q-23 -32 -52.5 -59t-66 -46.5t-79.5 -29.5t-94 -10q-59 0 -106.5 15.5t-81.5 42t-53 63t-19 77.5q0 47 20.5 85.5t56.5 65.5t88 42t120 15q31 0 64.5 -5.5t70.5 -17.5q3 18 4 37q2 19 2 37h226q-5 -79 -28 -156q58 -29 96 -60v1042q0 47 -14.5 85.5 t-42.5 63.5t-70 38q-44 13 -99 10q-47 -1 -86 -11.5t-72 -24.5t-62 -30q-30 -16 -57 -28q-9 -3 -17.5 -7.5t-19 -8t-19 -7t-14.5 -5.5l200 -22v-584q0 -64 -20 -119t-60.5 -95t-102 -63.5t-145.5 -23.5q-62 0 -113.5 16t-89 48.5t-58 78t-20.5 104.5zM213 238 q0 -44 27.5 -72t71.5 -28t72 28t28 72t-28 72t-72 28q-22 0 -40 -7.5t-31 -20.5t-20.5 -32t-7.5 -40zM503 -254q0 -21 19.5 -36.5t52.5 -15.5q41 0 69.5 23.5t46.5 62.5q-28 10 -54.5 16.5t-49.5 6.5q-42 0 -63 -16t-21 -41z" />
<glyph unicode="&#xe0f;" horiz-adv-x="1480" d="M47 241q0 57 19 102t54.5 76t82.5 47t103 16h17h17v271q-18 3 -39.5 5.5t-41 5t-39.5 4.5t-35 4v229q2 0 20 4.5t44.5 14t56 22.5t56.5 31q55 38 109.5 64.5t110.5 45t116.5 26.5t127.5 8q132 0 230 -27t162 -75t95 -112.5t31 -138.5v-1308h-364l-89 116l-85 -117h-147 q-12 22 -24 42.5t-23 37.5q-45 -41 -103.5 -66.5t-138.5 -25.5q-58 0 -105 15.5t-81 42t-51.5 63t-17.5 77.5q0 47 19 85.5t55 65.5t88 42t117 15q18 0 34.5 -1t32 -2.5t32 -6t36.5 -8.5q3 18 4.5 34t1.5 35h235q-11 -59 -27.5 -112t-36.5 -98q20 -22 32 -49l94 127h118 l79 -94v1067q0 47 -17.5 82t-48 57.5t-71.5 33.5q-42 9 -89 9q-47 -1 -86 -11.5t-72 -24.5t-62 -30q-30 -16 -57 -28q-9 -3 -17.5 -7.5t-19 -8t-19 -7t-14.5 -5.5l200 -22v-584q0 -64 -20 -119t-60.5 -95t-102 -63.5t-145.5 -23.5q-62 0 -113.5 16t-89 48.5t-58 78 t-20.5 104.5zM213 238q0 -44 27.5 -72t71.5 -28t72 28t28 72t-28 72t-72 28q-22 0 -40 -7.5t-31 -20.5t-20.5 -32t-7.5 -40zM315 -256q0 -20 18 -33.5t49 -13.5q30 0 57.5 17.5t51.5 50.5q-50 32 -97 34q-41 0 -60 -15t-19 -40z" />
<glyph unicode="&#xe10;" horiz-adv-x="1195" d="M50 -450q0 41 16 73.5t41 54.5t59.5 33t71.5 11q19 0 36 -2t29 -7q0 12 -1.5 30.5t-4.5 27.5h206q0 -9 1.5 -21t1.5 -20q0 -30 -4.5 -64t-11.5 -67l76 -78h116v82q-26 3 -49.5 16t-41.5 34t-28 48q-10 26 -10 58q0 41 13 74t39 56.5t63.5 37t84.5 13.5q53 0 94 -14 t71 -39t46 -63.5t16 -85.5v-347h-501l-59 64q-14 -15 -30.5 -29t-38.5 -25t-50 -17.5t-63 -6.5q-41 0 -75 13t-59 36t-39.5 54.5t-14.5 69.5zM56 697q0 129 33.5 226t95.5 162.5t146 98.5t186 33q62 0 113.5 -6.5t91 -14t89.5 -12.5t100 -5q30 0 58 7.5t50.5 17.5t39.5 22 t24 21v-218q-8 -9 -27.5 -17.5t-46.5 -14.5t-60 -10.5t-70 -4.5q-41 0 -82 6t-81.5 14.5t-81.5 15.5q-40 7 -84 7q-36 0 -63.5 -10t-47 -26t-30.5 -38t-14 -45q21 5 45.5 9.5t50.5 8.5t52.5 6t50.5 2q131 0 224 -25t152.5 -69t87.5 -107.5t28 -139.5q0 -68 -19.5 -138.5 t-46 -145.5t-54.5 -151.5t-46 -155.5h-372q-1 15 -7 40t-13.5 53t-14.5 53.5t-13 41.5q-12 -1 -28 -4t-37 -3q-47 0 -89 14t-74 42t-50.5 69t-18.5 95q0 50 17.5 91.5t49 71.5t76 46t98.5 16q66 0 110 -20.5t71.5 -51.5t41.5 -69q15 -38 21 -73q3 -21 7.5 -44.5t9 -42.5 t7 -34t2.5 -18q0 3 4.5 22.5t9 43t10.5 47t9 37.5q10 44 18 92q8 47 8 91q0 32 -11.5 58.5t-35 45.5t-60.5 30t-85 11q-25 0 -52.5 -5t-54 -12.5t-50 -17t-40.5 -19.5h-328zM176 -449.5q0 -26.5 18 -43t44.5 -16.5t43.5 17q18 16 18 42.5t-17.5 43t-44 16.5t-44.5 -16.5 t-18 -43zM353 399.5q0 -17.5 6 -32t16 -26.5t26 -19t37 -7q22 0 39 7t27 19t16 27q6 14 6 32q0 15 -6 31t-16 28.5t-27 20.5q-18 8 -39 8q-22 0 -38 -8t-27 -20.5t-15.5 -27.5t-4.5 -32.5zM682 -238.5q0 -26.5 17.5 -44t42.5 -17.5q27 0 44 17.5t17 44t-17 43t-43.5 16.5 t-43.5 -16.5t-17 -43z" />
<glyph unicode="&#xe11;" horiz-adv-x="1592" d="M35 763q0 79 26.5 155.5t72 139t109.5 103.5q66 41 139 50l100 -84l115 86q62 -6 109 -32t80 -65.5t50 -91t17 -107.5q0 -48 -9 -90t-22.5 -79.5t-29.5 -73.5t-31 -71q-17 -41 -29 -70.5t-19 -53t-10 -45.5t-3 -50v-116l400 936h108q74 0 122.5 -17.5t75.5 -48t38 -71.5 t11 -87v-980h-317v797l-328 -797h-428v288q0 50 15 98t37 95.5t48.5 93t49.5 89.5q18 33 34 65t28 64.5t19 63.5t7 63q0 24 -6.5 46t-18.5 34l-116 -77l-117 85q-17 -11 -30.5 -31.5t-21.5 -44.5q44 -7 78 -25.5t56.5 -45t33 -59t10.5 -66.5q0 -45 -14.5 -83.5t-44 -64.5 t-69.5 -41t-90 -15q-63 0 -107.5 18.5t-72.5 50t-41.5 73.5t-13.5 89zM185 738q0 -15 4.5 -28t15 -25t24.5 -17.5t34 -5.5q21 0 35 5.5t24 17.5t15.5 25t5.5 28t-5.5 29.5t-15.5 25t-25 17.5t-34 7q-20 0 -34 -7t-24.5 -17.5t-15 -25t-4.5 -29.5z" />
<glyph unicode="&#xe12;" horiz-adv-x="1990" d="M85 741q0 88 26.5 167.5t78 142.5t128 107t176.5 59l194 -112l207 117q96 -11 169.5 -44.5t122 -86t73.5 -118t25 -138.5v-356q26 -6 58.5 -23.5t66.5 -38t64.5 -45.5t55.5 -49v881h316v-1204h-316q-9 21 -24 44.5t-33.5 47t-40 47t-41.5 40.5q-11 -38 -31.5 -73t-53 -61 t-78.5 -41.5t-111 -15.5q-60 0 -108 18t-81.5 51t-52 78.5t-18.5 99.5q0 35 10.5 69t25.5 61t36 48q21 19 41 31v362q0 70 -24 119q-23 50 -67 78l-188 -106l-194 106q-27 -21 -46.5 -44t-32 -53t-19.5 -68t-7 -93q0 -61 10 -128t23 -136t26 -136q11 -69 16 -130l152 217 q-31 6 -59.5 20.5t-50 41t-34.5 62t-13 81.5q0 42 15 80.5t44.5 67t71.5 45.5t95 17q56 0 99.5 -18t72 -47t44 -69t15.5 -84q0 -41 -9.5 -78t-26 -72t-38.5 -70.5t-48 -70.5q-30 -41 -60.5 -87.5t-60 -92t-56 -87.5t-44.5 -71h-364q3 56 -5.5 114.5t-22 120.5t-31.5 125 t-32.5 128t-25 128t-10.5 125zM603 632q0 -16 5.5 -31.5t16 -27t26.5 -19t37 -7.5t37 7.5t26 19t16 26t6 32.5q0 15 -6 30.5t-16 28t-26 19.5t-37 7t-37 -8t-26.5 -20.5t-16 -27t-5.5 -29.5zM1025 232q0 -44 27 -72t71 -28t72 28t28 72t-27 72q-29 28 -73 28q-22 0 -39.5 -7 t-31 -20.5t-20.5 -32.5t-7 -40z" />
<glyph unicode="&#xe13;" horiz-adv-x="2021" d="M59 772v229q29 6 71.5 21.5t97.5 47.5q65 38 120 67.5t110.5 47t114.5 26.5t127 9q132 0 230 -28t161.5 -76.5t94.5 -113t31 -138.5v-592l244 193v739h318v-682q53 -6 97.5 -24.5t79 -50.5t54 -79.5t19.5 -108.5q0 -59 -18.5 -108.5t-55.5 -86t-92 -58t-128 -21.5 q-67 0 -116 18t-83.5 46.5t-54.5 65.5q-20 38 -29 76l-227 -191h-322v841q0 47 -16.5 82t-46 57.5t-68.5 33.5q-40 9 -87 9q-51 -1 -96 -13.5t-87 -32t-81 -40t-77 -37.5q18 -2 37 -4t39.5 -5t39 -4.5t32.5 -3.5v-361q6 0 15 0.5t15 0.5q57 0 107 -16t88.5 -49t60.5 -82.5 t22 -112.5q0 -65 -19.5 -115.5t-58 -86t-95.5 -54.5t-130 -19q-87 0 -148 25t-99 69t-56 102q-18 57 -18 125v448zM403 265q0 -20 6 -38t17.5 -32t30.5 -23t44 -9t44 9t31 23t18 32q6 20 6 38q0 17 -6 35t-18.5 31t-31.5 22t-43 9q-25 0 -43 -9t-30.5 -22t-18.5 -31t-6 -35z M1646 253q0 -19 6 -37.5t18 -32.5t31 -23t44 -9t44 9t31 23t18 32q5 20 5 38q0 17 -5.5 35t-18 31t-32 22t-42.5 9q-25 0 -43.5 -9t-31 -22t-18.5 -31t-6 -35z" />
<glyph unicode="&#xe14;" horiz-adv-x="1417" d="M85 756q0 113 41.5 199t119 144t189.5 86.5t253 28.5q85 0 161.5 -11.5t142.5 -35t119 -57.5t91.5 -78t59 -97t20.5 -115v-820h-318v791q0 53 -20.5 95.5t-57 73.5t-89.5 47t-121 16q-67 -1 -118.5 -22t-87 -55.5t-53 -82t-17.5 -104.5q0 -62 10 -132t22.5 -141 t23.5 -140.5t11 -130.5l152 261q-31 6 -59.5 21t-50 41t-34.5 61.5t-13 81.5q0 42 15 80.5t44.5 67t71.5 45.5t95 17q56 0 99.5 -17.5t72 -47t44 -69.5t15.5 -84q0 -41 -11 -77.5t-27.5 -72t-38.5 -71.5t-45 -74q-18 -28 -37 -62t-39.5 -69t-41 -70.5t-40 -68t-35.5 -60 t-28 -48.5h-364q3 56 -5.5 116t-22 123.5t-31.5 128t-32.5 130.5t-25 131t-10.5 127zM603 676q0 -16 5.5 -31.5t16 -27t26.5 -19t37 -7.5t37 7.5t26 19t15.5 26.5t5.5 32q0 15 -5.5 30.5t-15.5 28t-26 19.5t-37 7t-37.5 -8t-27 -20.5t-15.5 -27t-5 -29.5z" />
<glyph unicode="&#xe15;" horiz-adv-x="1417" d="M85 741q0 88 26.5 167.5t78 142.5t128 107t176.5 59l182 -112l213 117q96 -11 169.5 -44.5t122.5 -86t75 -118t26 -138.5v-835h-318v806q0 70 -24 119q-23 50 -67 78l-192 -106l-184 106q-27 -21 -46.5 -44t-32 -53t-19.5 -68t-7 -93q0 -61 10 -128t23 -136t26 -136 q11 -69 16 -130l152 217q-31 6 -59.5 20.5t-50 41t-34.5 62t-13 81.5q0 42 15 80.5t44.5 67t71.5 45.5t95 17q56 0 99.5 -18t72 -47t44 -69t15.5 -84q0 -41 -9.5 -78t-26 -72t-38.5 -70.5t-48 -70.5q-30 -41 -60.5 -87.5t-60 -92t-56 -87.5t-44.5 -71h-364q3 56 -5.5 114.5 t-22 120.5t-31.5 125t-32.5 128t-25 128t-10.5 125zM603 632q0 -16 5.5 -31.5t16 -27t26.5 -19t37 -7.5t37 7.5t26 19t16 26t6 32.5q0 15 -6 30.5t-16 28t-26 19.5t-37 7t-37 -8t-26.5 -20.5t-16 -27t-5.5 -29.5z" />
<glyph unicode="&#xe16;" horiz-adv-x="1347" d="M59 772v229q29 6 71.5 21.5t97.5 47.5q65 38 120.5 67.5t110.5 47t114 26.5t127 9q132 0 230.5 -28t162.5 -76.5t95.5 -113t31.5 -138.5v-864h-317v841q0 47 -16.5 82t-44.5 57.5t-68 33.5q-42 9 -89 9q-51 -1 -96 -13.5t-86 -32t-81 -40t-78 -37.5q18 -2 37 -4t39.5 -5 t39 -4.5t32.5 -3.5v-361q6 0 15 0.5t15 0.5q57 0 107 -16t88.5 -49t60.5 -82.5t22 -112.5q0 -65 -19.5 -115.5t-58 -86t-95.5 -54.5t-130 -19q-87 0 -148 25t-99 69t-56 102q-18 57 -18 125v448zM403 265q0 -20 6 -38t17.5 -32t30.5 -23t44 -9t44 9t31 23t18 32q6 20 6 38 q0 17 -6 35t-18.5 31t-31.5 22t-43 9q-25 0 -43 -9t-30.5 -22t-18.5 -31t-6 -35z" />
<glyph unicode="&#xe17;" horiz-adv-x="1505" d="M32 935q0 65 21.5 116t61 86.5t97.5 55.5q56 20 129 20q87 0 147 -24.5t97.5 -67t54 -100t16.5 -124.5v-238q0 -39 -1.5 -69.5t-1.5 -54.5q0 -26 -3 -47l273 716h141q86 0 143 -23t94 -61t52 -87q16 -51 16 -104v-929h-316v941l-1 -2q-1 -1 -4.5 -13t-12.5 -36t-25 -69 t-42 -113.5t-63.5 -167.5t-87.5 -232t-114 -308h-363v675q-6 0 -15 -1t-15 -1q-56 0 -106.5 17t-89 50t-60.5 82q-22 48 -22 113zM223 935q0 -18 7 -35.5t19.5 -31.5t31.5 -22t42 -8q25 0 43.5 8t31 22t19 31.5t6.5 35.5t-5.5 37t-19 32t-32 22t-43.5 9t-43 -9t-30.5 -23 t-19.5 -32t-7 -36z" />
<glyph unicode="&#xe18;" horiz-adv-x="1302" d="M135 701q0 144 38.5 243.5t102.5 159.5t149 86.5t179 26.5q59 0 109 -6.5t97.5 -13t93.5 -13.5t96 -7q45 0 91.5 12.5t80.5 48.5v-221q-12 -7 -26 -15t-35.5 -15.5t-49.5 -12t-64 -4.5q-50 0 -91.5 8t-84 19t-87.5 19.5t-100 8.5q-39 0 -73.5 -11t-59.5 -33.5t-39.5 -56 t-14.5 -79.5q35 15 92 25q55 11 143 11q109 0 187.5 -10t132 -26.5t86 -39.5t50 -51.5t23 -60t5.5 -67.5v-626h-1019v547h315v-350h388v416q0 21 -7.5 40t-28 33t-59 21t-101.5 7q-45 0 -79 -6.5t-57.5 -18t-38 -27t-23.5 -31.5h-318q-1 17 -2 35.5t-1 34.5z" />
<glyph unicode="&#xe19;" horiz-adv-x="1506" d="M32 935q0 65 21.5 116t61 86.5t97.5 55.5q56 20 129 20q87 0 147 -24.5t97.5 -67t54 -100t16.5 -124.5v-641l291 185v763h316v-684q54 -3 99.5 -20.5t79.5 -51t53 -81t19 -108.5q0 -65 -19 -115t-56.5 -85t-92.5 -54.5t-126 -19.5q-62 0 -110.5 17t-83.5 44.5t-55.5 62.5 t-29.5 73l-274 -182h-327v675q-6 0 -15 -1t-15 -1q-56 0 -106.5 17t-89 50t-60.5 82q-22 48 -22 113zM223 935q0 -18 7 -35.5t19.5 -31.5t31.5 -22t42 -8q25 0 43.5 8t31 22t19 31.5t6.5 35.5t-5.5 37t-19 32t-32 22t-43.5 9t-43 -9t-30.5 -23t-19.5 -32t-7 -36zM1129 259 q0 -19 6 -37t18.5 -32t30.5 -22.5t45 -8.5q25 0 43.5 8.5t30 23.5t18 32.5t6.5 35.5q0 17 -6.5 35.5t-18 32.5t-31 22t-42.5 8q-25 0 -43.5 -8t-31.5 -22t-19 -32q-6 -19 -6 -36z" />
<glyph unicode="&#xe1a;" horiz-adv-x="1487" d="M32 935q0 65 21.5 116t61 86.5t97.5 55.5q56 20 129 20q87 0 147 -24.5t97.5 -67t54 -100t16.5 -124.5v-700h372v1007h316v-1204h-1004v675q-6 0 -15 -1t-15 -1q-56 0 -106.5 17t-89 50t-60.5 82q-22 48 -22 113zM223 935q0 -18 7 -35.5t19.5 -31.5t31.5 -22t42 -8 q25 0 43.5 8t31 22t19 31.5t6.5 35.5t-5.5 37t-19 32t-32 22t-43.5 9t-43 -9t-30.5 -23t-19.5 -32t-7 -36z" />
<glyph unicode="&#xe1b;" horiz-adv-x="1524" d="M32 935q0 65 21.5 116t61 86.5t97.5 55.5q56 20 129 20q87 0 147 -24.5t97.5 -67t54 -100t16.5 -124.5v-700h408v1308h318v-1505h-1042v675q-6 0 -15 -1t-15 -1q-56 0 -106.5 17t-89 50t-60.5 82q-22 48 -22 113zM223 935q0 -18 7 -35.5t19.5 -31.5t31.5 -22t42 -8 q25 0 43.5 8t31 22t19 31.5t6.5 35.5t-5.5 37t-19 32t-32 22t-43.5 9t-43 -9t-30.5 -23t-19.5 -32t-7 -36z" />
<glyph unicode="&#xe1c;" horiz-adv-x="1371" d="M100 788q0 95 25.5 174t75 134.5t120.5 86t163 30.5q70 0 125 -21.5t92 -59.5t54.5 -88t17.5 -106q0 -65 -25 -112.5t-64.5 -79.5t-88.5 -46q-48 -15 -98 -15q-18 0 -40 1.5t-41 7.5q3 -35 12.5 -84.5t19 -100t18.5 -100.5q10 -49 13 -86l221 315l211 -300v866h316v-1204 h-360l-167 251l-165 -251h-312q-5 65 -12.5 126.5t-18 120.5t-21.5 115q-12 58 -24 114q-18 83 -32.5 160.5t-14.5 151.5zM391 941q0 -18 6 -35.5t18.5 -31.5t31.5 -22t43 -8t42.5 8t31 22t18.5 31.5t6 35.5q0 17 -6 36.5t-17.5 32.5t-31 22t-43.5 9q-25 0 -44.5 -9t-31 -23 t-17.5 -32.5t-6 -35.5z" />
<glyph unicode="&#xe1d;" horiz-adv-x="1422" d="M100 788q0 95 25.5 174t75 134.5t120.5 86t163 30.5q70 0 125 -21.5t92 -59.5t54.5 -88t17.5 -106q0 -65 -25 -112.5t-64.5 -79.5t-88.5 -46q-48 -15 -98 -15q-18 0 -40 1.5t-41 7.5q3 -35 12.5 -84.5t19 -100t18.5 -100.5q10 -49 13 -86l253 325l231 -301v1158h316 v-1505h-353l-197 273l-194 -273h-312q-5 65 -12.5 126.5t-18 120.5t-21.5 115q-12 58 -24 114q-18 83 -32.5 160.5t-14.5 151.5zM391 941q0 -18 6 -35.5t18.5 -31.5t31.5 -22t43 -8t42.5 8t31 22t18.5 31.5t6 35.5q0 17 -6 36.5t-17.5 32.5t-31 22t-43.5 9q-25 0 -44.5 -9 t-31 -23t-17.5 -32.5t-6 -35.5z" />
<glyph unicode="&#xe1e;" horiz-adv-x="1559" d="M32 933q0 65 22 116t61 87.5t95 56.5q55 20 125 20q87 0 148 -24.5t100 -67t56.5 -100t17.5 -124.5v-186q0 -14 -1 -36v-40q-2 -23 -3 -50l208 619h20l227 -619q-3 24 -4 49q-2 20 -3 41q-1 19 -1 34v495h317v-1204h-341l-195 588l-199 -588h-341v672q-12 -2 -31 -2 q-59 0 -109 17t-87.5 50t-59.5 83t-22 113zM226 935q0 -18 6 -35.5t18.5 -31.5t31.5 -22t43 -8q25 0 43.5 8t31 22t18 31.5t5.5 35.5t-5.5 37t-17.5 32t-31 22t-44 9t-44 -9t-31 -23t-18 -32t-6 -36z" />
<glyph unicode="&#xe1f;" horiz-adv-x="1589" d="M32 933q0 65 22 116t61 87.5t95 56.5q55 20 125 20q87 0 148 -24.5t100 -67t56.5 -100t17.5 -124.5v-106q0 -40 -0.5 -74.5t-0.5 -63.5q-2 -33 -3 -59l232 610h16l237 -610q-3 26 -5 59q-1 28 -2.5 64t-1.5 74v714h317v-1505h-341l-217 597l-203 -597h-344v672 q-12 -2 -31 -2q-59 0 -109 17t-87.5 50t-59.5 83t-22 113zM226 935q0 -18 6 -35.5t18.5 -31.5t31.5 -22t43 -8q25 0 43.5 8t31 22t18 31.5t5.5 35.5t-5.5 37t-17.5 32t-31 22t-44 9t-44 -9t-31 -23t-18 -32t-6 -36z" />
<glyph unicode="&#xe20;" horiz-adv-x="1480" d="M47 241q0 57 19 102t54.5 76t82.5 47t103 16h17h17v271q-18 3 -39.5 5.5t-41 5t-39.5 4.5t-35 4v229q2 0 20 4.5t44.5 14t56 22.5t56.5 31q55 38 109.5 64.5t110.5 45t116 26.5q61 8 128 8q132 0 230 -25.5t162 -72t95 -112t31 -143.5v-864h-315v826q0 47 -14.5 85.5 t-42.5 63.5t-70 38q-44 13 -99 10q-47 -1 -86 -11.5t-72 -24.5t-62 -30q-30 -16 -57 -28q-9 -3 -17.5 -7.5t-19 -8t-19 -7t-14.5 -5.5l200 -22v-584q0 -64 -20 -119t-60.5 -95t-102 -63.5t-145.5 -23.5q-62 0 -113.5 16t-89 48.5t-58 78t-20.5 104.5zM213 238 q0 -44 27.5 -72t71.5 -28t72 28t28 72t-28 72t-72 28q-22 0 -40 -7.5t-31 -20.5t-20.5 -32t-7.5 -40z" />
<glyph unicode="&#xe21;" horiz-adv-x="1472" d="M115 935q0 65 20.5 116t58.5 86.5t95.5 55.5t129.5 20q85 0 146 -23.5t100 -65.5t57.5 -99.5t18.5 -123.5v-451l273 -171v925h315v-1204h-312l-294 198q-9 -41 -32.5 -79t-59.5 -66.5t-86.5 -45.5t-115.5 -17q-67 0 -121.5 19t-93 54t-59.5 84.5t-21 111.5q0 61 21 109.5 t60 82.5t92 51.5t115 17.5h1v156q-6 0 -14.5 -0.5t-14.5 -0.5q-57 0 -108 17t-88.5 49t-60.5 81q-22 48 -22 113zM309 935q0 -18 5.5 -35.5t19 -31.5t32.5 -22t43 -8q25 0 43 8t30 22t18.5 31.5t6.5 35.5t-6 37t-18.5 32t-31.5 22t-42 9q-25 0 -44.5 -9t-32 -23t-18 -32 t-5.5 -36zM320 259q0 -18 7 -36.5t19.5 -32.5t30.5 -22.5t43 -8.5t43.5 8.5t32 22t19 32t5.5 37.5q0 17 -6.5 35t-19 32t-31 22t-43.5 8q-23 0 -42 -8t-31.5 -22t-19.5 -32t-7 -35z" />
<glyph unicode="&#xe22;" horiz-adv-x="1356" d="M121 856q0 85 27 152t75.5 112.5t115.5 69t149 23.5q68 0 121 -20t91 -55.5t58 -86.5t20 -113q0 -71 -26 -119.5t-67 -79t-92.5 -44t-100.5 -13.5h-17.5t-20.5 3q24 -23 58.5 -39.5t77 -26t92 -14t103.5 -4.5v-166q-62 0 -107.5 -20t-78 -53t-50.5 -75.5t-23 -89.5h371 v1007h316v-1204h-1042q0 12 -1.5 25t-1.5 25q0 62 13 123t41 118t72 108.5t106 92.5q-53 15 -104 46t-89.5 78t-62 108t-23.5 132zM397 940.5q0 -17.5 6 -35t17.5 -31t30.5 -21.5t43 -8q23 0 41 8t30.5 21.5t19 31t6.5 35t-6 35.5t-18.5 32.5t-31 22.5t-41.5 8q-24 0 -43 -8 t-30.5 -22.5t-17.5 -32.5t-6 -35.5z" />
<glyph unicode="&#xe23;" horiz-adv-x="1131" d="M44 652v34q0 146 37.5 247.5t102 164t149 91t180.5 28.5q76 0 130 -6t93 -13t69 -13t62 -6q22 0 39 2t34 7.5t34 16.5q17 12 40 30v-222q-29 -18 -66 -30.5t-90 -12.5q-39 0 -76.5 9t-76 19t-77.5 19q-37 8 -78 8q-33 0 -63.5 -11t-52.5 -31t-37 -47.5t-18 -59.5h618 v-516q0 -88 -23.5 -155.5t-68 -114t-107.5 -71.5t-142 -25q-64 0 -119.5 18.5t-97 53t-65.5 83t-24 110.5q0 59 20 109.5t56.5 88t88 58t114.5 20.5q15 0 28 -1.5t25 -4.5v165h-229q-43 0 -69 -19q-25 -19 -28 -59h-310q-2 18 -2 36zM532 268q0 -18 6.5 -36.5t19 -32.5 t30.5 -22.5t43 -8.5t44 8.5t31.5 23.5t19 32.5t6.5 36.5q0 18 -6.5 36t-19 31.5t-31 22.5t-41.5 9q-25 0 -44.5 -9t-32 -23t-19 -32.5t-6.5 -35.5z" />
<glyph unicode="&#xe24;" horiz-adv-x="1356" d="M59 772v229q29 6 71.5 21.5t97.5 47.5q65 38 120.5 67.5t110.5 47t114 26.5t127 9q132 0 230.5 -28t162.5 -76.5t95.5 -113t31.5 -138.5v-1267h-317v1244q0 47 -16.5 82t-44.5 57.5t-69 32.5t-88 10q-51 -1 -96 -13.5t-86 -32t-81 -40t-78 -37.5q18 -2 37 -4t39.5 -5 t39 -4.5t32.5 -3.5v-361q6 0 15 0.5t15 0.5q57 0 107 -16t88.5 -49t60.5 -82.5t22 -112.5q0 -65 -19.5 -115.5t-58 -86t-95.5 -54.5t-130 -19q-87 0 -148 25t-99 69t-56 102q-18 57 -18 125v448zM403 265q0 -20 6 -38t17.5 -32t30.5 -23t44 -9t44 9t31 23t18 32q6 20 6 38 q0 17 -6 35t-18.5 31t-31.5 22t-43 9q-25 0 -43 -9t-30.5 -22t-18.5 -31t-6 -35z" />
<glyph unicode="&#xe25;" horiz-adv-x="1420" d="M26 841q15 97 66.5 168t136 118.5t197.5 69.5q115 23 250 23q156 0 273.5 -38t196.5 -106t118.5 -160.5t39.5 -201.5q0 -35 -3 -76t-8 -85t-11 -91t-12 -93q-6 -47 -12 -97t-11.5 -98t-8.5 -92t-3 -82h-332q-15 159 -38.5 281t-56 205t-78 126.5t-105.5 43.5 q-24 0 -47.5 -10.5t-42.5 -28t-33 -45.5t-20 -63l16 1q62 0 111.5 -17t85.5 -49t55.5 -79t19.5 -109q0 -56 -19 -104.5t-55.5 -84.5t-92.5 -56.5t-130 -20.5q-72 0 -128.5 25t-96 68t-60.5 101q-20 57 -20 125q0 123 33.5 226t95.5 176.5t150 114.5t195 41q68 0 125.5 -21 t103.5 -60t78.5 -95t47.5 -125q0 13 1.5 29.5t3 35.5t1.5 38v38q-2 66 -20.5 125t-59 101.5t-107 67.5t-163.5 25q-62 0 -116.5 -14t-95.5 -38t-69 -58t-40 -75h-306zM379 256q0 -19 6 -37.5t18.5 -32.5t31 -23t44.5 -9q25 0 43.5 9t30 23t18.5 32q7 20 7 38q0 17 -7 35 t-18.5 31t-30.5 22t-43 9q-25 0 -43.5 -9t-31.5 -22t-19 -31t-6 -35z" />
<glyph unicode="&#xe26;" horiz-adv-x="1480" d="M47 240q0 57 19 102t54.5 76.5t82.5 47.5t103 16q6 0 17 -0.5t17 -0.5v272q-18 3 -39.5 5.5t-41 5t-39.5 4.5t-35 4v229q2 0 20 4.5t44.5 14t56 22.5t56.5 31q55 38 109.5 64.5t110.5 45t116 26.5q61 8 128 8q132 0 230 -25.5t162 -72t95 -112t31 -143.5v-1267h-315v1229 q0 47 -14.5 85.5t-42.5 63.5t-70 38q-44 13 -99 10q-47 -1 -86 -11.5t-72 -24.5t-62 -30q-30 -16 -57 -28q-9 -3 -17.5 -7.5t-19 -8t-19 -7t-14.5 -5.5l200 -22v-585q0 -65 -20 -119t-60.5 -95.5t-102 -64t-145.5 -22.5q-62 0 -113.5 16.5t-89 47.5t-58 77.5t-20.5 105.5z M213 237q0 -44 27.5 -71.5t71.5 -27.5t72 27.5t28 71.5t-28 71t-72 27q-22 0 -40 -7.5t-31 -20.5t-20.5 -30.5t-7.5 -39.5z" />
<glyph unicode="&#xe27;" horiz-adv-x="1146" d="M-13 788q0 29 5 73.5t22.5 91.5t51.5 94t93 83.5t144 59.5t206 23q144 0 242.5 -31.5t157 -86t83.5 -127.5t25 -155v-507q0 -68 -17.5 -125.5t-55.5 -100t-100 -66t-147 -23.5q-74 0 -130.5 19t-95.5 54.5t-58 87t-19 116.5q0 64 22 112.5t60 81t89 48.5t108 16h15h15 v284q0 47 -11 86t-34.5 66t-62.5 42q-36 15 -92 15q-55 0 -94 -18t-64 -48.5t-37 -72.5q-14 -42 -14 -92h-307zM588 266q0 -18 6 -36t18.5 -33t31 -23.5t44.5 -8.5q25 0 43.5 8.5t31 23.5t18 32.5t5.5 36.5q0 18 -6.5 36t-18 31.5t-30 22.5t-43.5 9q-24 0 -43 -9t-32 -22.5 t-19 -31t-6 -36.5z" />
<glyph unicode="&#xe28;" horiz-adv-x="1400" d="M88 767q0 103 33 185.5t106 140.5t186 89t275 31q29 0 52.5 -1t43 -2.5t37 -4.5t35.5 -5l79 133h364l-179 -232q69 -50 106.5 -118.5t37.5 -153.5v-829h-314v782q0 53 -15.5 97t-48 76.5t-84.5 50t-124 17.5q-80 0 -136.5 -17.5t-92.5 -50t-53 -76.5t-17 -100 q0 -31 1.5 -65.5t4.5 -69.5t6 -67.5t6.5 -60.5t6 -49.5t3.5 -31.5q3 27 9 65.5t13.5 79t15.5 78t14 61.5q11 44 34 75.5t51.5 52t65.5 31t76 10.5q46 0 86.5 -15.5t70.5 -43.5t47 -68q16 -41 16 -91q0 -45 -15.5 -84t-44.5 -67.5t-68.5 -45t-89.5 -16.5q-19 0 -34.5 2.5 t-25.5 5.5q-8 -24 -15 -59.5t-16 -75.5t-16.5 -85t-13 -88.5t-10 -84t-4.5 -72.5h-363q1 9 1 19v18v16q0 88 -15.5 175t-34.5 176q-20 97 -36.5 187t-16.5 176zM606 671.5q0 -14.5 5 -29t14.5 -25.5t24 -18.5t35.5 -7.5t35.5 7.5t25 18.5t14.5 25t4 30q0 14 -4 28t-14.5 26 t-25 19.5t-35.5 7.5t-35.5 -7.5t-24 -19.5t-14.5 -26t-5 -28.5z" />
<glyph unicode="&#xe29;" horiz-adv-x="1546" d="M32 935q0 65 21.5 116t61 86.5t97.5 55.5q56 20 129 20q87 0 147 -24.5t97.5 -67t54 -100t16.5 -124.5v-700h432v1007h314v-1204h-1062v675q-6 0 -15 -1t-15 -1q-56 0 -106.5 17t-89 50t-60.5 82q-22 48 -22 113zM223 935q0 -18 7 -35.5t19.5 -31.5t31.5 -22t42 -8 q25 0 43.5 8t31 22t19 31.5t6.5 35.5t-5.5 37t-19 32t-32 22t-43.5 9t-43 -9t-30.5 -23t-19.5 -32t-7 -36zM675 688q0 43 14 79t39 61.5t61.5 39.5t82.5 14q56 0 94.5 -19t62.5 -50t32.5 -70.5t2.5 -80.5q138 11 250 67t194 160v-275q-117 -69 -255.5 -107t-280.5 -38 q-87 0 -144.5 20t-91 51.5t-47.5 70.5t-14 77zM803 692q0 -29 20.5 -49t49.5 -20q31 0 50 19.5t19 50t-19 49.5t-50 19q-29 0 -49.5 -19t-20.5 -50z" />
<glyph unicode="&#xe2a;" horiz-adv-x="1420" d="M26 841q15 97 66.5 168t136 118.5t197.5 69.5q115 23 250 23q50 0 95.5 -4.5t86.5 -11.5l77 129h364l-182 -236q94 -69 140.5 -167t46.5 -216q0 -35 -3 -76t-8 -85t-11 -91t-12 -93q-6 -47 -12 -97t-11.5 -98t-8.5 -92t-3 -82h-332q-15 159 -38.5 281t-56 205t-78 126.5 t-105.5 43.5q-24 0 -47.5 -10.5t-42.5 -28t-33 -45.5t-20 -63l16 1q62 0 111.5 -17t85.5 -49t55.5 -79t19.5 -109q0 -56 -19 -104.5t-55.5 -84.5t-92.5 -56.5t-130 -20.5q-72 0 -128.5 25t-96 68t-60.5 101q-20 57 -20 125q0 123 33.5 226t95.5 176.5t150 114.5t195 41 q68 0 125.5 -21t103.5 -60t78.5 -95t47.5 -125q0 13 1.5 29.5t3 35.5t1.5 38v38q-2 66 -20.5 125t-59 101.5t-107 67.5t-163.5 25q-62 0 -116.5 -14t-95.5 -38t-69 -58t-40 -75h-306zM379 256q0 -19 6 -37.5t18.5 -32.5t31 -23t44.5 -9q25 0 43.5 9t30 23t18.5 32q7 20 7 38 q0 17 -7 35t-18.5 31t-30.5 22t-43 9q-25 0 -43.5 -9t-31.5 -22t-19 -31t-6 -35z" />
<glyph unicode="&#xe2b;" horiz-adv-x="1515" d="M32 935q0 65 21.5 116t61 86.5t97.5 55.5q56 20 129 20q87 0 147 -24.5t97.5 -67t54 -100t16.5 -124.5v-277q0 -28 -1.5 -60t-3.5 -60q-4 -33 -4 -65l126 275q18 40 46 65t66 31q-13 8 -23.5 24.5t-18.5 34.5t-11.5 39t-3.5 41q0 59 19.5 108t58 84.5t91.5 55.5t120 20 q74 0 128 -20t91 -54t54.5 -81t17.5 -101q0 -79 -30.5 -134.5t-83.5 -84.5q23 -10 40 -26.5t26.5 -36t14 -43t4.5 -47.5v-585h-315v645q0 30 -7 40t-19 10t-23.5 -9.5t-23.5 -37.5l-288 -648h-363v675q-6 0 -15 -1t-15 -1q-56 0 -106.5 17t-89 50t-60.5 82q-22 48 -22 113z M223 935q0 -18 7 -35.5t19.5 -31.5t31.5 -22t42 -8q25 0 43.5 8t31 22t19 31.5t6.5 35.5t-5.5 37t-19 32t-32 22t-43.5 9t-43 -9t-30.5 -23t-19.5 -32t-7 -36zM1023 942q0 -17 6 -35.5t19 -32t31.5 -22t43.5 -8.5q24 0 43 8.5t30.5 22t18.5 31t7 36.5q0 18 -7 36.5t-18.5 33 t-30.5 23.5t-43 9q-25 0 -44 -9t-31.5 -23.5t-18.5 -32.5t-6 -37z" />
<glyph unicode="&#xe2c;" horiz-adv-x="1581" d="M32 935q0 65 21.5 116t61 86.5t97.5 55.5q56 20 129 20q84 0 143.5 -24.5t97.5 -67t56 -100t18 -124.5v-200q0 -40 -1 -76t-2 -62q-3 -33 -3 -62l156 331h170l154 -331q-3 29 -4 62q-1 28 -2 64t-1 74l-1 300q-36 -9 -70.5 -13.5t-78.5 -4.5q-48 0 -94.5 11t-83 34.5 t-59 59.5t-22.5 85q0 44 18.5 80.5t53 64t86 43.5t119.5 16q54 0 97 -7q41 -8 79 -19q5 17 7 33t2 31h334q-3 -32 -14 -66t-28 -67.5t-37 -62.5t-43 -49q11 -12 20 -29t15.5 -39t10.5 -53t4 -72v-973h-338l-212 484q-53 -121 -105 -242q-51 -121 -104 -242h-339v675 q-6 0 -15 -1t-15 -1q-56 0 -106.5 17t-89 50t-60.5 82q-22 48 -22 113zM223 935q0 -18 7 -35.5t19.5 -31.5t31.5 -22t42 -8q25 0 43.5 8t31 22t19 31.5t6.5 35.5t-5.5 37t-19 32t-32 22t-43.5 9t-43 -9t-30.5 -23t-19.5 -32t-7 -36zM903 1173q0 -13 7 -22.5t17.5 -15.5 t25 -9t26.5 -3q35 0 64 14.5t52 41.5q-19 21 -48 34q-30 13 -71 13q-12 0 -25 -3t-23.5 -9.5t-17.5 -16t-7 -24.5z" />
<glyph unicode="&#xe2d;" horiz-adv-x="1339" d="M37 847q12 82 55 149.5t118 116t184 75t253 26.5q132 0 235 -26.5t175 -78.5t108.5 -129t36.5 -179v-801h-1029v479q0 68 18 125.5t57 100t98.5 66t140.5 23.5q61 0 113.5 -16.5t87.5 -48.5t55.5 -76t20.5 -100q0 -68 -20.5 -113.5t-54 -74t-78 -41t-91.5 -12.5 q-8 0 -15.5 1.5t-16.5 1.5v-118h398v582q0 121 -61 184t-187 63q-57 0 -102 -9.5t-80.5 -31t-58.5 -55.5q-24 -33 -35 -83h-325zM401 546.5q0 -17.5 7 -35t18.5 -31t30 -21.5t41.5 -8q24 0 42.5 8t30 21.5t18 31t6.5 35t-5.5 35.5t-18 32.5t-30.5 22.5t-43 8q-23 0 -41.5 -8 t-31 -22.5t-18.5 -32.5t-6 -35.5z" />
<glyph unicode="&#xe2e;" horiz-adv-x="1309" d="M63.5 882q-7.5 22 1.5 56q17 65 64 117.5t118 89.5t160.5 57t195.5 20q123 1 220 -25q24 29 47.5 58.5t45.5 58.5h325l-193 -229q30 -27 54 -57.5t39.5 -66.5t23.5 -75t8 -78v-808h-1029v457q0 68 17.5 125t56.5 99t98.5 67t140.5 25q62 0 114 -17.5t87.5 -48.5t56 -76.5 t20.5 -99.5q0 -68 -20.5 -114.5t-54.5 -74t-78 -40t-91 -12.5q-9 0 -16.5 0.5t-15.5 2.5v-96h398v588q0 23 -2 44t-8 40q-39 -24 -88.5 -34t-126.5 -10h-441q-29 0 -55.5 5t-45.5 17.5t-26.5 34.5zM372 525q0 -18 6.5 -35t18.5 -31t30 -22t42 -8q23 0 41.5 8t30.5 22 t18.5 31t6.5 34.5t-6 36t-18.5 32t-30 22t-42.5 8.5q-24 0 -42 -8.5t-30.5 -22t-18.5 -31t-6 -36.5zM378 967h209q11 0 23 1.5t24.5 6t25.5 15t25 27.5l13 15q-25 9 -50 12q-28 3 -54 3q-75 0 -126 -21t-90 -59z" />
<glyph unicode="&#xe2f;" horiz-adv-x="1165" d="M94 963q0 53 17.5 97.5t51 78.5t80.5 54q45 20 104 20q56 0 103 -14t80 -42t51 -70q19 -43 19 -99q0 -43 -19 -80.5t-55 -54.5q56 11 94.5 40.5t63.5 75t35 105t10 130.5h293v-1204h-316v726q-18 -10 -43.5 -21t-59 -20t-73 -15t-89.5 -6q-72 0 -134.5 21t-109.5 59 t-75 94t-28 125zM265 982q0 -37 23.5 -61t61.5 -24t61.5 24t23.5 61q0 38 -23.5 61.5t-61.5 23.5q-18 0 -34 -6t-28 -17.5t-17.5 -27.5t-5.5 -34z" />
<glyph unicode="&#xe30;" horiz-adv-x="852" d="M53 253q0 50 16 92.5t48.5 73.5t78 47t107.5 16q53 0 97 -14.5t75 -41t48.5 -65t17.5 -82.5v-19q28 12 56.5 27.5t56.5 34.5t51.5 39.5t38.5 42.5l114 -178q-32 -29 -85 -64.5t-121 -66t-150 -50.5t-170 -20q-66 0 -118 17.5t-87.5 48.5t-54.5 73t-19 89zM53 964 q0 50 16 93t48.5 73t78 47t107.5 17q53 0 97 -15t75 -42t48.5 -64.5t17.5 -83.5v-19q28 12 56.5 28t56.5 35.5t51.5 40t38.5 40.5l114 -176q-32 -30 -85 -66t-121 -66t-150 -50.5t-170 -20.5q-66 0 -118 17.5t-87.5 48.5t-54.5 73q-19 43 -19 90zM220 258.5 q0 -35.5 22.5 -57.5t55.5 -22q36 0 58 22t22 57.5t-22 57.5t-57.5 22t-57 -22t-21.5 -57.5zM220 968.5q0 -35.5 22.5 -57.5t55.5 -22q36 0 58 23t22 57q0 35 -22 57t-57.5 22t-57 -22t-21.5 -57.5z" />
<glyph unicode="&#xe31;" d="M-906 1639q0 50 18 90.5t50 68.5t76 42q45 15 95 15q51 0 93 -15.5t71.5 -42.5t46 -64t16.5 -81q0 -3 -0.5 -8.5t-0.5 -8.5q106 38 201.5 99.5t170.5 142.5l128 -187q-30 -29 -71 -60.5t-92.5 -61.5t-110 -58t-123.5 -49.5t-132.5 -34t-135.5 -12.5q-82 0 -139.5 17.5 t-92.5 48.5t-51.5 72t-16.5 87zM-753 1638q0 -36 23.5 -59.5t59.5 -23.5q38 0 60 23.5t22 59.5t-22 59t-60 23q-36 0 -59.5 -23t-23.5 -59z" />
<glyph unicode="&#xe32;" horiz-adv-x="1059" d="M-35 791q1 82 30 158t88.5 134.5t153.5 94t228 35.5q113 0 199 -24.5t143 -71.5t86.5 -114.5t29.5 -152.5v-850h-314v847q0 38 -9 69t-27.5 54.5t-47 36t-69.5 12.5q-39 0 -72 -14t-57 -43.5t-38 -72t-16 -98.5h-308z" />
<glyph unicode="&#xe33;" horiz-adv-x="1059" d="M-591 1705q0 58 22 105t60.5 80t91 51.5t116.5 18.5q63 0 116 -18.5t91 -51.5t60 -80t22 -105q0 -56 -22 -103t-60 -80.5t-91 -52t-116 -18.5q-64 0 -116.5 18.5t-91 52t-60.5 80.5t-22 103zM-403 1705q0 -17 6 -35.5t19 -32.5t32.5 -22t42.5 -8q25 0 44 8t31.5 22 t20.5 31q7 20 7 37q0 18 -6.5 36.5t-19 32.5t-31.5 22.5t-46 8.5q-25 0 -43.5 -8.5t-31.5 -23.5t-19 -32.5t-6 -35.5zM-35 791q1 82 30 158t88.5 134.5t153.5 94t228 35.5q113 0 199 -24.5t143 -71.5t86.5 -114.5t29.5 -152.5v-850h-314v847q0 38 -9 69t-27.5 54.5t-47 36 t-69.5 12.5q-39 0 -72 -14t-57 -43.5t-38 -72t-16 -98.5h-308z" />
<glyph unicode="&#xe34;" d="M-1255 1452v199q23 6 54 19t65 30.5t67.5 37.5t63.5 38q76 47 145 66t140 19q73 0 142 -21q66 -20 143 -63q53 -29 94 -50.5t75.5 -37t63.5 -26.5t54 -17v-194h-1107zM-970 1596h508v8l-26 13t-38 22q-38 21 -88 37.5t-106 16.5q-22 0 -45 -5t-46.5 -13t-44 -18.5 t-39.5 -18.5q-36 -20 -52.5 -28t-22.5 -11v-3z" />
<glyph unicode="&#xe35;" d="M-1255 1452v199q23 6 54 19t65 30.5t67.5 37.5t63.5 38q76 47 145 66t140 19q67 0 130.5 -17.5t132.5 -53.5v180h309v-518h-1107zM-970 1596h508v8l-26 13t-38 22q-38 21 -88 37.5t-106 16.5q-22 0 -45 -5t-46.5 -13t-44 -18.5t-39.5 -18.5q-36 -20 -52.5 -28t-22.5 -11 v-3z" />
<glyph unicode="&#xe36;" d="M-1255 1452v199q23 6 54 19t65 30.5t67.5 37.5t63.5 38q76 47 145 66t140 19q38 0 74.5 -6t72.5 -16q6 32 23.5 61t45.5 50t67 33.5t87 12.5q55 0 96.5 -16t69.5 -42.5t43 -62.5t15 -77q0 -40 -12.5 -78t-39.5 -65q16 -6 30 -9v-194h-1107zM-970 1596h508v8l-26 13 t-38 22q-38 21 -88 37.5t-106 16.5q-22 0 -45 -5t-46.5 -13t-44 -18.5t-39.5 -18.5q-36 -20 -52.5 -28t-22.5 -11v-3zM-432 1796q0 -35 22 -58.5t59 -23.5q38 0 59.5 23.5t21.5 58.5q0 37 -22.5 60t-58.5 23t-58.5 -23t-22.5 -60z" />
<glyph unicode="&#xe37;" d="M-1255 1452v199q23 6 54 19t65 30.5t67.5 37.5t63.5 38q61 38 118.5 57t113.5 25v110h244v-145q23 -9 46.5 -21t47.5 -25l23 -13v204h264v-516h-1107zM-970 1596h508v8l-26 13t-38 22q-38 21 -88 37.5t-106 16.5q-22 0 -45 -5t-46.5 -13t-44 -18.5t-39.5 -18.5 q-36 -20 -52.5 -28t-22.5 -11v-3z" />
<glyph unicode="&#xe38;" d="M-641 -373q0 42 14.5 79.5t42.5 65.5t71 45t98 17q68 0 118 -17t82.5 -46.5t48.5 -72t16 -92.5v-379h-306v209q-41 1 -75.5 16.5t-58.5 40.5t-37.5 59.5t-13.5 74.5zM-491 -368q0 -32 20.5 -52.5t53 -20.5t52.5 20.5t20 52.5q0 33 -20 53.5t-52.5 20.5t-53 -20.5 t-20.5 -53.5z" />
<glyph unicode="&#xe39;" d="M-1076 -373q0 42 14 79.5t42.5 65.5t71 44t98.5 16q68 0 115 -17.5t76.5 -48.5t41.5 -74q13 -45 13 -95v-200h142v418h314v-588h-743v209q-41 1 -76.5 15.5t-59 40.5t-36.5 59.5t-13 75.5zM-929 -368q0 -32 20.5 -52.5t53 -20.5t53 20.5t20.5 52.5q0 33 -20.5 53.5 t-53 20.5t-53 -20.5t-20.5 -53.5z" />
<glyph unicode="&#xe3a;" d="M-509 -312q0 31 11 60.5t33.5 52.5t57 37t81.5 14t82 -14t57 -37t33 -52q10 -28 10 -61q0 -29 -10.5 -57t-33 -50t-57 -34.5t-81.5 -12.5t-81 12.5t-56 34.5t-34 50t-12 57z" />
<glyph unicode="&#xe3e;" />
<glyph unicode="&#xe3f;" horiz-adv-x="1430" d="M121 0v1420h479v150h250v-150q98 -3 185.5 -25t152 -66t103 -111.5t38.5 -163.5q0 -50 -16 -95t-45 -83t-71 -67.5t-95 -49.5q133 -42 202 -125.5t69 -213.5q0 -107 -40.5 -185.5t-111 -130t-166.5 -77.5q-97 -26 -205 -27v-182h-250v182h-479zM462 232h138v406h-138 v-406zM462 835h138v353h-138v-353zM850 235q36 5 69.5 17.5t58.5 36t39.5 59.5t14.5 83t-14 83t-38 61t-58 39q-34 15 -72 21v-400zM850 838q69 12 108 56t39 120q0 39 -10.5 68t-30.5 49.5t-47 32.5t-59 18v-344z" />
<glyph unicode="&#xe40;" horiz-adv-x="757" d="M146 300v904h316v-691q5 0 14 0.5t15 0.5q57 0 108 -16t89 -49.5t60 -82t22 -112.5t-20.5 -112.5t-58.5 -82t-93 -50.5q-57 -18 -125 -18q-79 0 -141 23.5t-103 65t-62 97t-21 123.5zM379 256q0 -19 6 -37.5t18.5 -32.5t31 -23t44.5 -9q25 0 43.5 9t30 23t18.5 32 q7 20 7 38q0 17 -7 35t-18.5 31t-30.5 22t-43 9q-25 0 -43.5 -9t-31.5 -22t-19 -31t-6 -35z" />
<glyph unicode="&#xe41;" horiz-adv-x="1440" d="M146 300v904h316v-691q5 0 14 0.5t15 0.5q57 0 108 -16t89 -49.5t60 -82t22 -112.5q0 -61 -20.5 -109.5t-58.5 -82.5t-93 -52q-57 -19 -125 -19q-79 0 -141 23.5t-103 65t-62 97t-21 123.5zM379 256q0 -19 6 -37.5t18.5 -32.5t31 -23t44.5 -9q25 0 43.5 9t30 23t18.5 32 q7 20 7 38q0 17 -7 35t-18.5 31t-30.5 22t-43 9q-25 0 -43.5 -9t-31.5 -22t-19 -31t-6 -35zM829 300v904h316v-691q6 0 14 0.5t14 0.5q57 0 108.5 -16t90 -49.5t61 -82t22.5 -112.5q0 -61 -20.5 -110.5t-59.5 -83.5t-94 -51.5t-123 -17.5q-79 0 -140.5 23.5t-103.5 65 t-63.5 97t-21.5 123.5zM1063 256q0 -19 6 -37.5t18.5 -32.5t31.5 -23t42 -9q25 0 44.5 9t32 23t17.5 32q6 20 6 38q0 17 -5.5 35t-19 31t-32.5 22t-43 9q-25 0 -43 -9t-30 -22t-18.5 -31t-6.5 -35z" />
<glyph unicode="&#xe42;" horiz-adv-x="779" d="M-122 1482v185q24 56 61 104.5t90 85t121 58t153 21.5q59 0 109 -9.5t94 -20t82 -19t76 -8.5q18 0 37 3.5t35.5 9.5t29.5 14t20 14v-209q-10 -7 -21.5 -14t-26.5 -11t-33.5 -7t-41.5 -3q-41 0 -80 11.5t-81.5 25.5t-89.5 25t-100 11q-27 0 -52 -8.5t-45.5 -25 t-33.5 -38.5t-16 -47h317v-1108q6 0 15 0.5t15 0.5q57 0 107.5 -16t89 -49t60.5 -82q22 -47 22 -111q0 -65 -20 -115t-59 -85.5t-94.5 -53t-129.5 -17.5q-76 0 -135 25t-101 67.5t-63 100t-21 125.5v1170h-290zM401 262q0 -19 6 -37t18.5 -32t31.5 -22.5t43 -8.5 q25 0 44 8.5t31.5 23.5t18.5 32.5t6 35.5q0 17 -6 35.5t-19 32.5t-32.5 22t-42.5 8q-25 0 -43.5 -8t-30 -22t-18.5 -32q-7 -19 -7 -36z" />
<glyph unicode="&#xe43;" horiz-adv-x="779" d="M-312 1626q0 73 32.5 132t87 101t127.5 64q74 20 156 20q103 -1 176.5 -27t121.5 -73t70.5 -113t22.5 -148v-1060q6 0 15 0.5t15 0.5q57 0 107.5 -16t89 -49t60.5 -82q22 -47 22 -111q0 -65 -20 -115t-58 -85.5t-94.5 -53t-130.5 -17.5q-76 0 -135.5 23.5t-101 67 t-62.5 103t-21 130.5v1067q0 23 1.5 52t2.5 58t3.5 58t2.5 54q0 41 -8 69.5t-22 46t-33 25t-41 7.5q-12 0 -27 -1.5t-21 -4.5q18 -9 35.5 -22t31.5 -32t22 -44t8 -58q0 -38 -13 -73t-41 -61.5t-67.5 -41.5t-92.5 -15t-94 16.5t-69 46t-43 70.5t-15 91zM-165 1601 q0 -31 21 -52.5t54 -21.5q34 0 55.5 21.5t21.5 52.5t-21.5 53t-55.5 22q-33 0 -54 -22t-21 -53zM401 262q0 -19 6 -37t18.5 -32t31.5 -22.5t43 -8.5q25 0 44 8.5t31.5 23.5t18.5 32.5t6 35.5q0 17 -6 35.5t-19 32.5t-32.5 22t-42.5 8q-25 0 -43.5 -8t-30 -22t-18.5 -32 q-7 -19 -7 -36z" />
<glyph unicode="&#xe44;" horiz-adv-x="779" d="M-182 1685v267l179 -147l175 144q82 0 140 -25t96.5 -70.5t56 -107t17.5 -135.5v-1089q6 0 15 0.5t15 0.5q57 0 107.5 -16.5t89 -50t60.5 -82t22 -112.5q0 -130 -78 -199t-225 -69q-76 0 -135.5 23.5t-101 66t-62.5 101.5t-21 130v1306q0 12 -1.5 24.5t-6.5 18.5 l-160 -129zM401 262q0 -19 6 -37t18.5 -32t31.5 -22.5t43 -8.5q25 0 44 8.5t31.5 23.5t18.5 32.5t6 35.5q0 17 -6 35.5t-19 32.5t-32.5 22t-42.5 8q-25 0 -43.5 -8t-30 -22t-18.5 -32q-7 -19 -7 -36z" />
<glyph unicode="&#xe45;" horiz-adv-x="1059" d="M-35 791q1 82 30 158t88.5 134.5t153.5 94t228 35.5q113 0 199 -24.5t143 -71.5t86.5 -114.5t29.5 -152.5v-1253h-314v1250q0 38 -9 69t-27.5 54.5t-47 36t-69.5 12.5q-39 0 -72 -14t-57 -43.5t-38 -72t-16 -98.5h-308z" />
<glyph unicode="&#xe46;" horiz-adv-x="1537" d="M357 759q0 88 23 167t67 141t110 101.5t154 48.5l143 -109l135 108q89 -3 155.5 -32t112 -73t68.5 -102t23 -120v-1292h-316v1320q0 33 -7 54q-5 20 -22 32l-147 -106l-165 111q-15 -10 -27.5 -24t-21 -28.5t-14 -29.5t-6.5 -29q56 -2 96.5 -17.5t66.5 -42t38.5 -63 t12.5 -80.5q0 -46 -16.5 -83.5t-47.5 -64t-72 -41.5t-91 -15q-59 0 -106 18t-79.5 52.5t-49.5 84t-17 114.5zM531 697q0 -15 5 -29t14.5 -25t23.5 -17.5t35 -6.5q20 0 35 6.5t25 17.5t14.5 25t4.5 29q0 14 -4.5 28t-14.5 25t-25 18.5t-35 7.5q-21 0 -35 -7.5t-23.5 -18.5 t-14.5 -25t-5 -28z" />
<glyph unicode="&#xe47;" d="M-1038 1720q0 76 26.5 135.5t72 100t108 62.5t134.5 22h46h63t60 -0.5t40 -0.5q34 0 62.5 6.5t52 22.5t40.5 42.5t27 66.5l194 -107q-17 -50 -43 -85.5t-63.5 -57.5t-89.5 -31q-54 -9 -124 -9h-23h-36h-44.5h-45.5h-39h-25q-69 0 -105 -42.5t-36 -115.5q0 -27 3 -50 q4 -24 7 -36q26 40 67.5 79t98.5 77q15 -56 37 -101q20 -46 47 -78q3 29 16 57t36.5 51t57.5 37t81 14q51 0 88.5 -15t62.5 -40t37 -58.5t12 -69.5q0 -35 -12 -70t-41.5 -63t-75.5 -44.5t-115 -16.5q-53 0 -97 12t-80 31t-64 46q-27 26 -47 53q-12 -15 -25.5 -32.5 t-27.5 -38.5t-26.5 -41.5t-20.5 -37.5q-65 5 -115 34.5t-85.5 73.5t-52.5 101q-18 55 -18 117zM-397 1598q0 -12 3.5 -24.5t12 -21t21.5 -14.5t29 -6q34 0 50 20.5t16 45.5q0 26 -16 46t-50 20t-50 -20.5t-16 -45.5z" />
<glyph unicode="&#xe48;" d="M-447 2120v338h285v-338h-285z" />
<glyph unicode="&#xe49;" d="M-650 2378.5q0 35.5 13.5 65t37 51.5t57 34.5t75.5 12.5q44 0 77.5 -14t55 -37.5t32.5 -56t11 -67.5q0 -30 -14.5 -67.5t-35.5 -65.5q34 18 70.5 43.5t72 53.5t65.5 56t51 50l92 -163q-23 -20 -59 -44.5t-81.5 -49.5t-98.5 -48.5t-109 -45.5t-114 -40q-57 -17 -112 -29 l-56 113q17 9 33.5 21.5t32 25.5t27 26.5t17.5 25.5q-24 0 -49 11.5t-44.5 30.5t-33 45.5t-13.5 62zM-534 2378.5q0 -23.5 16.5 -41t47.5 -17.5q32 0 46.5 17.5t14.5 40.5q0 12 -3 24t-11.5 20.5t-20.5 14.5t-26 6q-33 0 -48.5 -20.5t-15.5 -44z" />
<glyph unicode="&#xe4a;" d="M-673 2224q-3 53 11.5 105t47 95t82.5 71q50 30 116 36l110 -82l109 82q53 -3 94 -25t67.5 -55.5t40 -76.5t13.5 -88q0 -21 -7 -43.5t-14 -37.5q18 6 41.5 19t46 29.5t44 34t39.5 35.5l55 -144q-35 -20 -77.5 -39.5t-89.5 -37.5t-100 -34t-109 -25l-31 91q24 20 38 53.5 t14 73.5q0 50 -18 82.5t-48 48.5l-108 -78l-109 78q-13 0 -24 -7t-21 -14t-16 -17.5t-9 -19.5q23 3 51 -3.5t51.5 -24t39 -45t15.5 -65.5q0 -34 -11.5 -62.5t-33 -48.5t-52.5 -31t-69 -11t-70.5 12.5t-55 36t-36.5 56.5t-17 76zM-554 2192q0 -12 3.5 -23t11.5 -20t20.5 -14 t27.5 -5q16 0 28 5t20 14t11.5 20t3.5 23t-3.5 23.5t-11 21t-20 15.5t-28.5 6q-32 0 -47.5 -20.5t-15.5 -45.5z" />
<glyph unicode="&#xe4b;" d="M-573 2214v147h147v144h250v-144h148v-147h-148v-144h-250v144h-147z" />
<glyph unicode="&#xe4c;" d="M-470 2017q0 25 5 50.5t17.5 49t32.5 45.5q20 19 47 37q27 15 62.5 31t82.5 30t108 26.5t137 24.5l63 -162q-25 0 -57 -3t-65.5 -7.5t-61 -11.5t-42.5 -13q13 -9 21 -22t14 -26.5t9 -26t3 -24.5q0 -29 -10.5 -59t-33 -55t-58.5 -40.5t-86 -15.5q-47 0 -83 15.5t-59 40.5 t-34.5 55.5t-11.5 60.5zM-350 2017q0 -12 4.5 -24.5t12.5 -22t20.5 -15.5t28.5 -6q18 0 29.5 6t20 15.5t12.5 22t4 24.5q0 25 -16.5 43.5t-49.5 18.5q-32 0 -48 -19q-18 -18 -18 -43z" />
<glyph unicode="&#xe4d;" d="M-591 1705q0 58 22 105t60.5 80t91 51.5t116.5 18.5q63 0 116 -18.5t91 -51.5t60 -80t22 -105q0 -56 -22 -103t-60 -80.5t-91 -52t-116 -18.5q-64 0 -116.5 18.5t-91 52t-60.5 80.5t-22 103zM-403 1705q0 -17 6 -35.5t19 -32.5t32.5 -22t42.5 -8q25 0 44 8t31.5 22 t20.5 31q7 20 7 37q0 18 -6.5 36.5t-19 32.5t-31.5 22.5t-46 8.5q-25 0 -43.5 -8.5t-31.5 -23.5t-19 -32.5t-6 -35.5z" />
<glyph unicode="&#xe4e;" d="M-586.5 1632q-8.5 56 17.5 117q15 33 37 56.5t47.5 36.5t53.5 17.5t52 1.5q-21 15 -32.5 37.5t-17.5 50t-4.5 56.5t13.5 56q30 76 87 107t139 31q59 0 101.5 -19t77.5 -48l-86 -148q-18 20 -40 28.5t-42 8t-37.5 -9.5t-24.5 -27q-9 -20 -6 -39t14 -34.5t30 -26.5t41 -17 l-62 -147q-16 12 -37.5 17.5t-42.5 3.5t-38 -14q-17 -13 -26 -37q-6 -19 -5 -35.5t8 -31.5t20.5 -25t30.5 -15q15 -3 31 -3q17 2 34 11l-29 -150q-11 0 -26 -1t-24 -1q-68 0 -122.5 26t-89 68.5t-43 98.5z" />
<glyph unicode="&#xe4f;" horiz-adv-x="1424" d="M96 603q0 82 21 158.5t60 144t94 122t124.5 94t148.5 61t167 21.5q89 0 169.5 -21.5t149 -61t123.5 -94t95 -122t60.5 -144t20.5 -158.5q0 -83 -20.5 -160.5t-60.5 -144t-95 -122t-123.5 -94t-149 -60.5t-169.5 -22q-88 0 -167 22t-148.5 60.5t-124.5 94t-94 122t-60 144 t-21 160.5zM412 601q0 -62 22 -115.5t62.5 -93t95.5 -63t119 -23.5q65 0 121 23.5t96.5 63t63 94t22.5 114.5q0 62 -22.5 115.5t-63 93.5t-95.5 63q-57 24 -122 24q-64 0 -119 -23.5t-95.5 -63.5t-62.5 -93.5t-22 -115.5zM541 603q0 35 13 66t36.5 54.5t54.5 37.5t68 14 q35 0 66.5 -14t55 -37.5t37 -54.5t13.5 -66q0 -36 -13.5 -68t-37 -55t-54 -37t-67.5 -14q-35 0 -67 14t-55.5 37t-36.5 55t-13 68z" />
<glyph unicode="&#xe50;" horiz-adv-x="1353" d="M115 459q0 103 38 191t110 151t178 100t244 37q135 0 241 -37t178.5 -100t111.5 -151t39 -191q0 -102 -39.5 -191t-112.5 -153.5t-178.5 -101.5t-239.5 -37q-135 0 -241.5 38.5t-179.5 103t-111 152t-38 189.5zM432 456q-1 -56 14.5 -110.5t47 -95.5t79 -67.5 t109.5 -26.5q65 -2 113.5 24t80.5 68.5t47 97t15 110.5t-15 110t-45.5 97.5t-78.5 69.5t-114 26q-65 0 -112.5 -26t-78.5 -69.5t-46.5 -97.5t-15.5 -110z" />
<glyph unicode="&#xe51;" horiz-adv-x="1402" d="M94 466q0 103 42.5 189.5t122 149t192 98t249.5 35.5q135 0 246 -34.5t191 -97t124 -152.5t44 -198q0 -74 -16 -141t-42.5 -124t-62.5 -105t-76 -86h-294q33 26 65 69t58.5 99.5t43 126.5t16.5 152q0 66 -20 123.5t-57.5 99t-93.5 65.5t-126 24q-69 0 -123 -22.5 t-91.5 -62t-55.5 -94t-17 -117.5q0 -4 1 -11.5t1.5 -15t1 -14.5t3.5 -10q31 17 67 29t80.5 12t88.5 -12t81.5 -38.5t61.5 -69t24 -104.5q0 -54 -19 -97.5t-55 -75t-89.5 -48.5t-122.5 -17q-100 0 -182.5 34.5t-140.5 97t-89 150t-31 193.5zM476 225q0 -16 4.5 -31 t15.5 -27.5t27 -19.5q18 -7 39 -7q20 0 36 7t26.5 19.5t15 27.5t4.5 31q0 15 -5 30t-15.5 27t-26 18.5t-36 6.5t-36.5 -6.5t-27 -18.5t-16.5 -26.5t-5.5 -30.5z" />
<glyph unicode="&#xe52;" horiz-adv-x="1402" d="M0 1038l206 194q44 -15 78 -46t57.5 -72.5t36 -94t12.5 -111.5v-570q0 -38 8 -70.5t25.5 -55t44 -36t61.5 -13.5h334q26 0 55 8t52.5 24.5t39.5 43t16 61.5v385q0 21 -9 41.5t-28 32.5l-116 -78l-117 78q-14 -6 -22 -22.5t-11.5 -34t-4.5 -33.5t-1 -25h21q47 0 89 -12 t75 -36t52 -62.5t19 -91.5q0 -47 -16 -87t-47 -68t-76.5 -43t-104.5 -15q-62 0 -114.5 22t-91 66.5t-62 109t-23.5 146.5q0 74 20.5 137t59.5 110t97 78t138 40l120 -91l121 89q67 -3 127.5 -19.5t106 -49t70.5 -79.5t25 -112v-376q0 -59 -18.5 -113.5t-56 -95.5t-94 -66 t-131.5 -25h-623q-75 0 -134 20.5t-99.5 58t-61 92.5t-20.5 126v545q0 24 -4.5 55t-14.5 59.5t-26 50.5t-40 31zM656 438q0 -15 4 -29t14.5 -25t24.5 -17q12 -7 33 -7q19 0 34 6.5t24.5 18.5t13.5 25t4 28t-4 28t-13.5 24t-24.5 17.5t-34 6.5t-33 -6.5t-23.5 -17.5 t-14.5 -24t-5 -28z" />
<glyph unicode="&#xe53;" horiz-adv-x="1402" d="M109 459q0 91 28 173t82 147t135 107.5t184 51.5l165 -138l164 136q97 -4 173.5 -32t128 -73.5t79.5 -107t28 -135.5v-588h-306v544q0 70 -19 114.5t-44 63.5l-207 -165l-200 160q-38 -31 -57.5 -86.5t-16.5 -145.5q0 -18 2 -33q1 -14 4 -26q30 12 62 19.5t65 7.5 q44 0 88 -13.5t80 -40t58.5 -69t22.5 -104.5q0 -54 -19 -97.5t-55 -74t-89.5 -47t-122.5 -16.5q-93 0 -169.5 35.5t-130.5 97t-84 147.5q-29 88 -29 188zM467 225q0 -16 6 -31t16.5 -27.5t26.5 -19.5t37 -7q20 0 36.5 7t26.5 19.5t16 27.5t6 31q0 15 -6 30t-16 27 t-26.5 18.5t-37 6.5t-36.5 -6.5t-26.5 -18.5t-16.5 -26.5t-6 -30.5z" />
<glyph unicode="&#xe54;" horiz-adv-x="1402" d="M82 441q-1 97 17.5 170.5t53.5 128.5t85 92.5t110.5 59.5t129.5 32.5t145 10.5q81 0 143.5 4.5t109.5 16t81 32t56 54.5t33.5 79.5t17.5 108.5l256 -152q-7 -98 -58.5 -162.5t-137.5 -103.5t-203 -55q-115 -16 -254 -16q-32 0 -63.5 -4.5t-61 -17.5t-55 -35t-45 -54.5 t-31 -76.5t-11.5 -103q0 -56 10 -98t28 -73.5t41.5 -53.5t47.5 -35.5t48.5 -19t44.5 -5.5q43 0 80.5 5.5t66.5 16.5q-23 20 -43 46t-34 56.5t-22 66t-8 70.5q0 47 19 91.5t55 76.5t87 51q49 19 114 19t115 -19t83.5 -51t50.5 -76q17 -45 17 -92q0 -38 -9.5 -68t-27 -54.5 t-41.5 -42.5q-23 -20 -53 -32q9 -9 23.5 -17t36 -15t48.5 -12.5t61 -5.5h12t18.5 1.5t18.5 1.5h11l-79 -192q-87 0 -163 20q-78 19 -140 55q-17 -9 -45 -20t-68.5 -22t-91.5 -19q-50 -10 -109 -10q-68 0 -132 10.5t-121 33t-106.5 58.5t-85 86t-55.5 114q-21 66 -21 145z M850 426.5q0 -14.5 5.5 -30t16 -27.5t26.5 -18.5t37 -6.5t37 6.5t26 18.5t16 26q5 17 5 31q0 15 -5.5 30.5t-15.5 28t-26 20t-37 7.5t-37 -7.5t-27 -20t-16 -28t-5 -30z" />
<glyph unicode="&#xe55;" horiz-adv-x="1402" d="M82 432q-3 127 29.5 213t91.5 139.5t138 78.5t172 34q-7 20 -11.5 45t-4.5 43q0 48 17.5 88.5t50 69.5t75.5 44q42 15 95 15q51 0 95.5 -15t76 -44t49.5 -68q20 -40 20 -87q41 38 60 97.5t28 144.5l256 -152q-7 -98 -58.5 -165.5t-137.5 -109.5t-203 -61 q-115 -19 -254 -19q-32 0 -63.5 -4.5t-61 -16t-55 -31.5t-45 -51.5t-31 -74t-11.5 -101.5q0 -56 10 -98t28 -72.5t41.5 -52t47.5 -33.5t48.5 -17.5t44.5 -5.5q43 0 80.5 5.5t66.5 16.5q-23 20 -43 46t-34 56.5t-22 66t-8 70.5q0 47 19 91.5t55 76.5t87 51q49 19 114 19 t115 -19t83.5 -51t50.5 -76q17 -45 17 -92q0 -38 -9.5 -68t-27 -54.5t-41.5 -42.5q-23 -20 -53 -32q9 -9 23.5 -17t36 -15t48.5 -12.5t61 -5.5h12t18.5 1.5t18.5 1.5h11l-79 -192q-87 0 -163 20q-78 19 -140 55q-17 -9 -45 -20t-68.5 -22t-91.5 -19q-50 -10 -109 -10 q-68 0 -132 10.5t-121 32.5t-106.5 55.5t-85 83.5t-56 113.5t-20.5 142.5zM657 973q0 -17 6.5 -30.5t17 -24.5t25 -17.5t32.5 -6.5t32.5 6.5t25.5 17.5t18 25q6 13 6 30q0 16 -6.5 31.5t-17.5 26t-25.5 17t-32.5 6.5t-32.5 -6.5t-25.5 -17t-17 -26t-6 -31.5zM850 426.5 q0 -14.5 5.5 -30t16 -27.5t26.5 -18.5t37 -6.5t37 6.5t26 18.5t16 26q5 17 5 31q0 15 -5.5 30.5t-15.5 28t-26 20t-37 7.5t-37 -7.5t-27 -20t-16 -28t-5 -30z" />
<glyph unicode="&#xe56;" horiz-adv-x="1402" d="M0 1070l225 156q23 -24 49.5 -56t51 -74t46.5 -90.5t37 -102.5q20 5 51.5 12.5t68.5 15t76 11t77 3.5q77 0 150.5 -11.5t141 -36t124 -63.5t97.5 -92.5t64.5 -122t23.5 -153.5q0 -118 -44.5 -206.5t-124 -149.5t-190 -92t-242.5 -31q-123 0 -219.5 19.5t-163.5 58 t-103 92.5q-34 55 -37 122q-3 62 17.5 107.5t57 75.5t84.5 44q47 14 99 14q65 0 113.5 -19t79.5 -51.5t45.5 -71t14.5 -77.5q0 -19 -3 -38t-8.5 -37.5t-13 -34t-16.5 -26.5q12 -2 27.5 -2.5t25.5 -0.5q62 0 115 22t90.5 61.5t58.5 94t21 119.5q0 73 -25 130.5t-70.5 97 t-105.5 60t-128 20.5q-54 0 -102 -5.5t-94.5 -16t-94 -26.5t-100.5 -40q-12 38 -37 91t-57 107.5t-72 106t-81 86.5zM332 294q0 -21 7.5 -37t19 -27t26.5 -16t32 -5q15 0 30 5.5t26.5 16t19 26.5t7.5 37t-7.5 37t-19 26.5t-26.5 15.5t-30 5q-14 0 -30.5 -5t-28 -15.5 t-19 -26.5t-7.5 -37z" />
<glyph unicode="&#xe57;" horiz-adv-x="1540" d="M35 459q0 103 27.5 188t79.5 148t127 100t172 41l182 -151l184 151q62 -3 111 -22t87.5 -49t65 -68t44 -82.5t25 -91.5t7.5 -91q0 -53 -3 -95.5t-9 -78t-13.5 -64t-16.5 -54.5q21 11 42.5 37t37.5 62.5t25.5 83.5t9.5 103q0 65 -3.5 118t-8 101.5t-8 94.5t-3.5 99 q0 89 22 163t66 124l242 -165q-11 -11 -22 -29.5t-18.5 -41.5t-11.5 -49.5t-2 -55.5q6 -85 6 -166t-3 -153t-9.5 -134t-17.5 -106q-11 -56 -38.5 -105.5t-70.5 -91t-105 -72.5q-62 -33 -141 -51q-34 -9 -71.5 -11t-76 -2t-75 2t-71.5 5q14 32 32.5 79t34 107.5t27.5 137 t12 170.5q0 176 -87 229l-199 -159l-200 159q-23 -13 -39 -34.5t-26.5 -50.5t-16.5 -63t-6 -74q0 -9 1.5 -21.5t3 -23.5t3.5 -20q1 -10 4 -16q28 15 61 24t65 9q44 0 88.5 -12.5t80.5 -40t58.5 -70t22.5 -104.5q0 -54 -18 -97.5t-54 -74t-90 -47.5q-52 -16 -123 -16 q-92 0 -166.5 35.5t-126 97t-79.5 147.5q-28 88 -28 188zM379 225q0 -16 6 -31t16.5 -27.5t26.5 -19.5t37 -7q20 0 36 7t26.5 19.5t16.5 27.5t6 31q0 15 -6 30t-16.5 27t-26.5 18.5t-36.5 6.5t-36.5 -6.5t-26.5 -18.5t-16.5 -26.5t-6 -30.5z" />
<glyph unicode="&#xe58;" horiz-adv-x="1402" d="M103 447q0 97 19 170.5t54.5 128t82.5 89.5t104 57t121 32q63 11 130 11h109q99 0 161.5 19t100.5 56.5t54 93.5t22 131l259 -165q-7 -67 -38.5 -121.5t-92 -95t-154.5 -67.5q-94 -25 -229 -36q-36 -3 -72.5 -4.5t-74.5 -1.5q-53 0 -96.5 -12.5t-74.5 -45.5t-48 -90.5 t-18 -145.5q0 -21 2 -47.5t6.5 -53t10.5 -49t12 -35.5q12 25 29.5 53.5t40 59.5t51.5 60t64 56q18 -41 40 -81.5t45.5 -76.5t44 -64t38.5 -43q-2 6 -3.5 16.5t-1.5 20.5q0 47 15.5 90.5t46.5 76t78 51.5t111.5 19t113 -19t82.5 -51.5t50 -75t16 -91.5q0 -53 -17.5 -102 t-57 -87.5t-104.5 -61t-157 -22.5q-68 0 -124.5 11t-100.5 30t-78 44t-58 54q-8 -13 -18 -30t-18.5 -35t-16 -38t-11.5 -36q-58 0 -113 12.5t-105 37.5t-92.5 62.5t-73.5 88t-48.5 113.5t-17.5 140zM972 266q0 -15 5 -30.5t15.5 -27t26.5 -18t36 -6.5q21 0 37 6.5t26.5 18 t16.5 26.5t6 31t-5.5 31t-16.5 27.5t-27 19.5t-37 7q-20 0 -36 -7t-26.5 -19.5t-15.5 -27.5t-5 -31z" />
<glyph unicode="&#xe59;" horiz-adv-x="1574" d="M65 466q0 115 32 203t92.5 147.5t148.5 90.5t200 31q71 0 129 -16t104 -42t80 -57.5t59 -62.5q-4 41 3 71t23.5 51.5t40.5 32.5t53 11q27 0 49.5 -6t42 -15.5t35.5 -20.5t28 -23q6 -4 14 -9t16 -11t17.5 -9t18.5 -3q10 0 20.5 4.5t19 20.5t14.5 44t6 75q0 80 -4.5 143 t-12.5 119l273 -175v-28q0 -100 -16 -179.5t-48 -134t-81 -83.5t-114 -29q-47 0 -80.5 14.5t-69.5 43.5q-20 15 -33.5 22.5t-30.5 7.5q-18 0 -32 -16t-14 -55q0 -19 5 -43t10 -38q47 -108 84 -217q38 -110 64 -219l-255 -130q-65 225 -119.5 376t-104.5 240.5t-96 127.5 q-45 39 -92 39q-38 0 -70.5 -18t-54.5 -51.5t-34 -80.5t-12 -106v-24.5t1.5 -30t4.5 -29.5q0 -13 3 -22q27 23 68 39.5t94 16.5q56 0 100.5 -17t76.5 -47t49.5 -71.5t17.5 -91.5q0 -54 -17.5 -97.5t-53 -74t-88.5 -47t-122 -16.5q-100 0 -182 34.5t-140.5 97t-89 150 t-30.5 193.5zM453 225q0 -16 6 -31t16 -27.5t26 -19.5t37 -7t37 7t26.5 19.5t16 27.5t5.5 31q0 15 -5.5 30t-16 27t-26.5 18.5t-37 6.5t-37 -6.5t-26 -18.5t-16 -26.5t-6 -30.5z" />
<glyph unicode="&#xe5a;" horiz-adv-x="1606" d="M94 963q0 53 17.5 97.5t51 78.5t80.5 54q45 20 104 20q56 0 103 -14t80 -42t51 -70q19 -43 19 -99q0 -43 -19 -80.5t-55 -54.5q56 11 94.5 40.5t63.5 75t35 105t10 130.5h293v-1204h-316v726q-18 -10 -43.5 -21t-59 -20t-73 -15t-89.5 -6q-72 0 -134.5 21t-109.5 59 t-75 94t-28 125zM265 982q0 -37 23.5 -61t61.5 -24t61.5 24t23.5 61q0 38 -23.5 61.5t-61.5 23.5q-18 0 -34 -6t-28 -17.5t-17.5 -27.5t-5.5 -34zM1147 0v1204h316v-1204h-316z" />
<glyph unicode="&#xe5b;" horiz-adv-x="2469" d="M112 678q0 111 38 197t102 146.5t148.5 91.5t175.5 31q97 0 173.5 -28t129.5 -78t79.5 -120.5t26.5 -154.5q0 -62 -20 -109.5t-54.5 -80t-80 -48.5t-99.5 -16q-58 0 -100.5 20.5t-70.5 52.5t-42.5 72t-14.5 78q0 50 16 87.5t43 63t62 39t70 13.5q-3 6 -10.5 12 t-20.5 11.5t-31 8.5t-38 3q-35 0 -72.5 -17t-68 -52t-49.5 -88.5t-19 -127.5q0 -63 20 -124t60.5 -111t102 -79.5t145.5 -29.5q73 0 140 28t119.5 91t87 161.5t45.5 239.5q3 50 21.5 84t46 54.5t59 26.5t63 1.5t58 -20.5t43.5 -43l174 -267l129 206q15 20 32.5 32t37 12 t38.5 -10.5t36 -29.5l150 -184h341v-191h-461l-72 88l-156 -235q-15 -20 -34 -32t-39.5 -12t-40.5 10.5t-35 30.5l-176 252q-29 -124 -86 -216t-136 -153.5t-178.5 -92.5t-213.5 -31q-74 0 -146 12.5t-138 39t-122 68.5t-98.5 102t-66 138t-23.5 177zM650 731q0 -21 7 -36.5 t19 -25.5t26.5 -16t29.5 -6t31 5t28 15.5t19 26t7 37.5q0 20 -7 37t-19 27.5t-26.5 15.5t-32.5 5q-15 0 -29.5 -5t-26.5 -16t-19 -27.5t-7 -36.5z" />
<glyph unicode="&#x2000;" horiz-adv-x="1271" />
<glyph unicode="&#x2001;" horiz-adv-x="2542" />
<glyph unicode="&#x2002;" horiz-adv-x="1271" />
<glyph unicode="&#x2003;" horiz-adv-x="2542" />
<glyph unicode="&#x2004;" horiz-adv-x="847" />
<glyph unicode="&#x2005;" horiz-adv-x="635" />
<glyph unicode="&#x2006;" horiz-adv-x="423" />
<glyph unicode="&#x2007;" horiz-adv-x="423" />
<glyph unicode="&#x2008;" horiz-adv-x="317" />
<glyph unicode="&#x2009;" horiz-adv-x="508" />
<glyph unicode="&#x200a;" horiz-adv-x="141" />
<glyph unicode="&#x200b;" />
<glyph unicode="&#x2010;" horiz-adv-x="833" d="M85 562v207h662v-207h-662z" />
<glyph unicode="&#x2011;" horiz-adv-x="833" d="M85 562v207h662v-207h-662z" />
<glyph unicode="&#x2012;" horiz-adv-x="833" d="M85 562v207h662v-207h-662z" />
<glyph unicode="&#x2013;" horiz-adv-x="1023" d="M15 556v216h996v-216h-996z" />
<glyph unicode="&#x2014;" horiz-adv-x="2046" d="M15 556v216h2017v-216h-2017z" />
<glyph unicode="&#x2018;" horiz-adv-x="568" d="M112 838v295q0 71 22 132t66 108t109 77q64 29 148 38v-171q-73 -18 -109 -66.5t-36 -130.5h147v-282h-347z" />
<glyph unicode="&#x2019;" horiz-adv-x="568" d="M112 1188v282h347v-294q0 -71 -22 -132t-66.5 -107t-109 -77t-148.5 -40v172q74 18 110 67t36 129h-147z" />
<glyph unicode="&#x201c;" horiz-adv-x="990" d="M74 838v295q0 71 22.5 132t66 108t107.5 77q65 29 150 38v-171q-73 -18 -110 -66.5t-34 -130.5h147v-282h-349zM545 838v295q0 71 23 132t66.5 108t107.5 77q64 29 149 38v-171q-74 -18 -110 -66.5t-34 -130.5h147v-282h-349z" />
<glyph unicode="&#x201d;" horiz-adv-x="990" d="M97 1185v282h350v-295q0 -71 -23 -132t-66 -108t-108 -77q-65 -29 -150 -38v171q73 17 110 65.5t34 131.5h-147zM569 1185v282h348v-295q0 -71 -22 -132t-66 -108t-109 -77q-64 -29 -150 -38v171q74 17 110.5 65.5t35.5 131.5h-147z" />
<glyph unicode="&#x2022;" horiz-adv-x="1077" d="M194 542q0 75 25 137.5t70.5 107.5t109 70.5t136.5 25.5q77 0 140 -25.5t108 -70.5t69 -107.5t24 -137.5q0 -73 -24 -136t-69 -108t-108 -71t-140 -26q-75 0 -137.5 26t-108 71t-70.5 108t-25 136z" />
<glyph unicode="&#x202f;" horiz-adv-x="508" />
<glyph unicode="&#x205f;" horiz-adv-x="635" />
<glyph unicode="&#x20ac;" horiz-adv-x="1137" d="M16 490l66 151h835l-64 -151h-837zM16 856l66 151h929l-64 -151h-931zM150 744q0 125 24 228t68.5 184.5t105.5 141.5t135 100.5t158 60.5t172 20q44 0 94.5 -6.5t101.5 -20t97 -33.5t82 -46l-130 -226q-26 29 -52.5 48t-56 31.5t-62.5 17.5q-34 6 -73 6 q-64 0 -122 -29.5t-103 -91.5t-72 -158t-27 -232q0 -144 27 -246t72 -169t103 -98q58 -32 122 -32q42 0 84.5 8t82 25t76.5 45t66 66l-3 -282q-70 -46 -154 -68.5t-175 -22.5q-88 0 -170.5 19t-154 60t-129.5 103t-100.5 148.5t-64.5 198.5t-22 250z" />
<glyph unicode="&#x2122;" horiz-adv-x="2046" d="M113 1302v161h716v-161h-238v-685h-238v685h-240zM908 617v846h306l197 -544l197 544h303v-846h-226v494l-191 -494h-168l-193 493v-493h-225z" />
<glyph unicode="&#x25cc;" horiz-adv-x="1287" d="M123 717l136 67q-3 -18 -4.5 -36.5t-1.5 -36.5q0 -14 1.5 -31t4.5 -33zM268 347l51 141q21 -29 43.5 -52.5t49.5 -44.5zM288 1085l135 -49q-29 -17 -52 -40t-43 -49zM572 1097l69 135l66 -132q-15 2 -31 2h-32q-18 0 -36.5 -1t-35.5 -4zM578 323q16 -3 33.5 -4t32.5 -1 q16 0 30 1t27 4l-60 -126zM867 1036l147 49l-51 -141q-21 26 -43.5 49t-52.5 43zM870 385q27 18 48 39t39 46l37 -123zM1032 654q3 13 4 27q2 16 2 30q0 17 -1.5 33.5t-4.5 31.5l126 -65z" />
<glyph unicode="&#x25fc;" horiz-adv-x="1061" d="M0 0v1061h1061v-1061h-1061z" />
<glyph unicode="&#xf700;" horiz-adv-x="1167" d="M41 697q0 129 34 226t95.5 162.5t145.5 98.5t187 33q61 0 112.5 -6.5t91.5 -14t90 -12.5t100 -5q29 0 57 7.5t51 17.5t39.5 22t24.5 21v-218q-9 -9 -28 -17.5t-46.5 -14.5t-60.5 -10.5t-70 -4.5q-41 0 -82 6t-81.5 14.5t-81.5 15.5q-40 7 -84 7q-35 0 -63 -10t-47 -26 t-30 -38t-14 -45q20 5 44.5 9.5t51 8.5t53 6t49.5 2q131 0 224.5 -25t153 -69t87.5 -107.5t28 -139.5q0 -68 -20 -138.5t-46.5 -145.5t-54.5 -151.5t-45 -155.5h-372q-2 15 -8 40t-13 53t-14.5 53.5t-13.5 41.5q-12 -1 -28 -4t-37 -3q-47 0 -88.5 14t-74 42t-51 69t-18.5 95 q0 50 17.5 91.5t49.5 71.5t76 46t98 16q66 0 110.5 -20.5t71.5 -51.5t41 -69q15 -38 21 -73q3 -21 7.5 -44.5t9 -42.5t7.5 -34t3 -18q0 3 4.5 22.5t8.5 43t10 47t9 37.5q10 44 18 92q9 47 9 91q0 32 -12 58.5t-35.5 45.5t-60.5 30t-85 11q-25 0 -52 -5t-53.5 -12.5t-50 -17 t-41.5 -19.5h-328zM338 399.5q0 -17.5 6 -32t16 -26.5t26.5 -19t36.5 -7q22 0 39 7t27.5 19t16.5 27q6 14 6 32q0 15 -6 31t-16.5 28.5t-27.5 20.5q-18 8 -39 8q-22 0 -38 -8t-27 -20.5t-15.5 -27.5t-4.5 -32.5z" />
<glyph unicode="&#xf701;" d="M-1476 1452v202q18 6 39 18.5t45.5 29t53 36.5t62.5 41q68 41 123.5 61.5t114.5 21.5q30 0 59 -5t58.5 -15t60.5 -26.5t66 -36.5q47 -30 84 -50.5t66.5 -36t51.5 -24.5q22 -10 42 -17v-199h-926zM-1261 1596h455v5q-16 9 -33 20t-37 22q-18 9 -35.5 19.5t-37.5 18 t-42.5 11.5t-52.5 4q-23 0 -43.5 -4t-38.5 -12.5t-34.5 -18t-33.5 -20.5q-11 -8 -30 -20q-20 -13 -37 -20v-5z" />
<glyph unicode="&#xf702;" d="M-1476 1452v202q18 6 39 18.5t45.5 29t53 36.5t62.5 41q68 41 123.5 61.5t114.5 21.5q49 0 95 -13t99 -41v160h294v-516h-926zM-1261 1596h455v5q-16 9 -33 20t-37 22q-18 9 -35.5 19.5t-37.5 18t-42.5 11.5t-52.5 4q-23 0 -43.5 -4t-38.5 -12.5t-34.5 -18t-33.5 -20.5 q-11 -8 -30 -20q-20 -13 -37 -20v-5z" />
<glyph unicode="&#xf703;" d="M-1476 1452v202q18 6 39 18.5t45.5 29t53 36.5t62.5 41q68 41 123.5 61.5t114.5 21.5q27 0 52 -3.5t48 -10.5q6 32 23.5 59.5t45.5 46.5t65.5 30t81.5 11t84 -14t70 -39t47.5 -60.5t17.5 -79.5q0 -42 -16 -81t-45 -66l14 -4v-199h-926zM-1261 1596h455v5q-16 9 -33 20 t-37 22q-18 9 -35.5 19.5t-37.5 18t-42.5 11.5t-52.5 4q-23 0 -43.5 -4t-38.5 -12.5t-34.5 -18t-33.5 -20.5q-11 -8 -30 -20q-20 -13 -37 -20v-5zM-808 1796q0 -35 23.5 -58.5t58.5 -23.5q38 0 60 23.5t22 58.5q0 37 -22 60t-60 23q-35 0 -58.5 -23t-23.5 -60z" />
<glyph unicode="&#xf704;" d="M-1476 1452v202q18 6 39 18.5t45.5 29t53 36.5t62.5 41q35 20 65.5 36.5t59.5 26.5v126h237v-128q28 -10 56.5 -25.5t60.5 -32.5v186h247v-516h-926zM-1261 1596h455v5q-16 9 -33 20t-37 22q-18 9 -35.5 19.5t-37.5 18t-42.5 11.5t-52.5 4q-23 0 -43.5 -4t-38.5 -12.5 t-34.5 -18t-33.5 -20.5q-11 -8 -30 -20q-20 -13 -37 -20v-5z" />
<glyph unicode="&#xf705;" d="M-844 1452v456h288v-456h-288z" />
<glyph unicode="&#xf706;" d="M-973 1855q0 41 16 76.5t45 63.5t69 43.5t87 15.5q53 0 93.5 -17t68 -45t42 -66.5t14.5 -79.5q0 -17 -4.5 -37.5t-12 -43t-19.5 -42.5q-14 -21 -29 -35q40 20 83.5 49.5t84.5 62t76.5 64.5t58.5 59l112 -191q-27 -25 -70 -54t-97 -57.5t-116.5 -57t-128.5 -53.5 t-134.5 -45.5t-132.5 -35.5l-65 132q21 10 40.5 25t37.5 30.5t32 31.5t19 31q-30 0 -60.5 11.5t-54.5 35t-39.5 56t-15.5 73.5zM-829 1854q0 -28 18.5 -48.5t54.5 -20.5q37 0 55.5 20.5t18.5 48.5q0 14 -4.5 28t-13.5 24.5t-23.5 16.5t-32.5 6q-19 0 -33 -6t-22.5 -16.5 t-13 -25t-4.5 -27.5z" />
<glyph unicode="&#xf707;" d="M-1314 1667q0 62 16 117.5t50 101.5t87 76q53 31 126 40l128 -97l128 97q63 -6 108 -30t73 -63t41 -88q13 -48 13 -104q0 -18 -3 -38.5t-9 -35.5q43 21 83.5 56.5t74.5 76.5l72 -188q-42 -22 -86 -44.5t-96 -42t-113 -36.5t-135 -30l-33 104q14 12 26.5 29t20 37.5 t11.5 43.5q5 24 5 44.5t-4 42t-12 40.5t-19 34.5t-25 25.5l-121 -88l-126 88q-12 -3 -23 -13t-18.5 -22.5t-12 -24.5t-4.5 -18q33 3 63.5 -7.5t54 -31t38.5 -49.5t15 -66q0 -33 -10.5 -64.5t-34 -54t-59.5 -36.5q-34 -14 -84 -14q-47 0 -86 16t-65.5 47t-40.5 73.5t-14 95.5 zM-1177 1599.5q0 -11.5 4 -25t13 -22t21.5 -14.5t30 -6t31 6t21.5 14.5t12 21.5q5 14 5 25q0 14 -4 26.5t-12.5 22.5t-22 16t-30.5 6q-18 0 -31 -6t-22 -16t-12.5 -23.5t-3.5 -25z" />
<glyph unicode="&#xf708;" d="M-995 1608v159h160v156h271v-156h160v-159h-160v-156h-271v156h-160z" />
<glyph unicode="&#xf709;" d="M-963 1632q0 29 6.5 60t22 59.5t40 54.5t58.5 46q29 18 69.5 35.5t95 33.5t122 31t152.5 30l77 -192q-31 0 -67 -2.5t-70 -8t-62 -12t-45 -12.5q14 -12 26 -28t19 -33.5t10 -34.5q3 -16 3 -30q0 -36 -11.5 -74t-39.5 -67.5t-71.5 -48.5t-105.5 -19q-58 0 -101 19 t-71.5 48.5t-42.5 67.5t-14 77zM-814 1630.5q0 -14.5 4 -30t14.5 -26.5t25 -18t35.5 -7t35.5 7t25 18t14.5 25.5t4 30.5q0 15 -4 29t-14.5 24t-25 16t-35.5 6t-35.5 -6t-24 -16t-14.5 -24t-5 -28.5z" />
<glyph unicode="&#xf70a;" d="M-454 1452v456h303v-456h-303z" />
<glyph unicode="&#xf70b;" d="M-920 1855q0 41 15.5 76.5t44 63.5t68 43.5t89.5 15.5q53 0 93 -17t68 -45t41.5 -66.5t13.5 -79.5q0 -17 -3.5 -37.5t-12.5 -43t-20.5 -43t-26.5 -34.5q40 20 83.5 49.5t84.5 62t76.5 64.5t58.5 59l109 -191q-27 -25 -69.5 -54t-96 -57.5t-116 -57t-128.5 -53.5 t-134 -45.5t-132 -35.5l-68 132q21 10 41.5 25t38 30.5t31.5 31.5q15 16 21 31q-31 0 -61.5 11.5t-55 35t-39 56t-14.5 73.5zM-779 1854q0 -28 19 -48.5t56 -20.5t55 20q20 21 20 49q0 14 -4.5 28t-14 24.5t-23.5 16.5t-33 6t-32.5 -6t-23.5 -16.5t-14.5 -25t-4.5 -27.5z " />
<glyph unicode="&#xf70c;" d="M-1107 1667q0 62 17 117.5t51 101.5t86.5 76.5t126.5 39.5l126 -97l128 97q63 -6 108 -30t73.5 -63t42.5 -88q13 -48 13 -104q0 -18 -3 -38.5t-9 -35.5q43 21 84 53q41 33 75 74l75 -196q-41 -22 -86.5 -41.5t-98 -36.5t-114 -32.5t-135.5 -28.5l-35 104q15 12 27.5 29 t20.5 37.5t12 43.5q5 24 5 44.5t-4.5 42t-12 40.5t-19 34.5t-26.5 25.5l-121 -88l-126 88q-12 -3 -22 -13t-17.5 -22.5t-12 -24.5t-5.5 -18q32 3 63.5 -7.5t55 -31t38.5 -49.5t15 -66q0 -33 -11.5 -64.5t-34 -54t-59.5 -36.5t-85 -14q-47 0 -86 16t-65.5 47t-40.5 73.5 t-14 95.5zM-970 1599.5q0 -11.5 4.5 -25t13 -22t22 -14.5t31 -6t30 6t20.5 14.5t13 21.5q4 14 4 25q0 14 -3.5 26.5t-12.5 22.5t-21.5 16t-30.5 6q-17 0 -30.5 -6t-22 -16t-13 -23.5t-4.5 -25z" />
<glyph unicode="&#xf70d;" d="M-613 1608v159h160v156h299v-156h160v-159h-160v-156h-299v156h-160z" />
<glyph unicode="&#xf70e;" d="M-750 1632q0 29 7.5 60t22 59.5t38 54.5t59.5 46q32 18 74.5 37t100 36t131 32.5t167.5 28.5l76 -196q-29 0 -69.5 -2t-80 -7t-74.5 -12q-34 -5 -55 -14q15 -12 26.5 -28t19 -33.5t12 -34t4.5 -30.5q0 -36 -13.5 -74t-40.5 -67.5t-70.5 -48.5t-104.5 -19q-59 0 -101.5 19 t-71.5 48.5t-43 67.5t-14 77zM-601 1630.5q0 -14.5 5 -30t14.5 -26.5t25 -18t34.5 -7q21 0 36.5 7t25 18t14.5 25.5t5 30.5q0 15 -6 29t-15.5 24t-24 16t-35.5 6q-20 0 -34 -6t-24.5 -16t-15.5 -24t-5 -28.5z" />
<glyph unicode="&#xf70f;" horiz-adv-x="1897" d="M59 772v229q29 6 71.5 21.5t97.5 47.5q65 38 120 67.5t110.5 47t114.5 26.5t127 9q132 0 230 -28t161.5 -76.5t94.5 -113t31 -138.5v-667h221v1007h317v-1204h-852v841q0 47 -16.5 82t-46 57.5t-68.5 33.5q-40 9 -87 9q-51 -1 -96 -13.5t-87 -32t-81 -40t-77 -37.5 q18 -2 37 -4t39.5 -5t39 -4.5t32.5 -3.5v-361q6 0 15 0.5t15 0.5q57 0 107 -16t88.5 -49t60.5 -82.5t22 -112.5q0 -65 -19.5 -115.5t-58 -86t-95.5 -54.5t-130 -19q-87 0 -148 25t-99 69t-56 102q-18 57 -18 125v448zM403 265q0 -20 6 -38t17.5 -32t30.5 -23t44 -9t44 9 t31 23t18 32q6 20 6 38q0 17 -6 35t-18.5 31t-31.5 22t-43 9q-25 0 -43 -9t-30.5 -22t-18.5 -31t-6 -35z" />
<glyph unicode="&#xf710;" d="M-1280 1639q0 50 16.5 90.5t49 68.5t78 42.5t103.5 14.5q51 0 92 -15.5t69 -42.5t43 -64t15 -81v-8.5t-2 -8.5q102 38 193 96q92 57 167 133l127 -184q-30 -29 -71 -59t-92.5 -60.5t-109 -57t-120 -46t-127.5 -31.5t-131 -12q-83 0 -140 17.5t-93.5 48.5t-51.5 72t-15 87 zM-1126 1638q0 -36 22 -59.5t59 -23.5q38 0 59.5 23.5t21.5 59.5t-22 59t-59 23q-35 0 -58 -23t-23 -59z" />
<glyph unicode="&#xf711;" d="M-1047 1705q0 58 22 105t60.5 80t91.5 51.5t116 18.5t116 -18.5t91 -51.5t60.5 -80t22.5 -105q0 -56 -22.5 -103t-60.5 -80.5t-91 -52t-116 -18.5t-116 18.5t-91.5 52t-60.5 80.5t-22 103zM-858 1705q0 -17 5.5 -35.5t19 -32.5t32.5 -22t42 -8q25 0 44.5 8t32 22t19.5 31 q7 20 7 37q0 18 -6.5 36.5t-19 32.5t-31.5 22.5t-46 8.5q-25 0 -43 -8.5t-31.5 -23.5t-19 -32.5t-5.5 -35.5z" />
<glyph unicode="&#xf712;" d="M-1408 1720q0 76 26.5 135.5t72 100t108 62.5t134.5 22h45h63.5t60.5 -0.5t40 -0.5q33 0 62 6.5t52.5 22.5t40.5 42.5t27 66.5l194 -107q-18 -50 -43.5 -85.5t-63 -57.5t-89.5 -31q-54 -9 -125 -9h-21.5h-37h-44h-45.5h-39h-26q-69 0 -105 -42.5t-36 -115.5q0 -27 4 -50 q3 -24 6 -36q27 40 68 79t99 77q14 -56 36 -101q21 -46 47 -78q3 29 16.5 57t37 51t57 37t80.5 14q52 0 89.5 -15t62.5 -40t36.5 -58.5t11.5 -69.5q0 -35 -11.5 -70t-41 -63t-76 -44.5t-115.5 -16.5q-53 0 -97 12t-80 31t-64 46q-26 26 -47 53q-12 -15 -25 -32.5t-27 -38.5 t-26.5 -41.5t-21.5 -37.5q-64 5 -114 34.5t-85.5 73.5t-53.5 101q-17 55 -17 117zM-767 1598q0 -12 3.5 -24.5t11.5 -21t21.5 -14.5t29.5 -6q34 0 50 20.5t16 45.5q0 26 -16 46t-50 20t-50 -20.5t-16 -45.5z" />
<glyph unicode="&#xf713;" d="M-836 2120v338h277v-338h-277z" />
<glyph unicode="&#xf714;" d="M-1047 2378.5q0 35.5 13.5 65t37 51.5t57 34.5t75.5 12.5q44 0 77.5 -14t55 -37.5t32.5 -56t11 -67.5q0 -30 -14.5 -67.5t-35.5 -65.5q34 18 70.5 43.5t72 53.5t65.5 56t51 50l92 -163q-23 -20 -59 -44.5t-81.5 -49.5t-98.5 -48.5t-109 -45.5t-114 -40q-57 -17 -112 -29 l-56 113q17 9 33.5 21.5t32 25.5t27 26.5t17.5 25.5q-24 0 -48.5 11.5t-44.5 30.5t-33.5 45.5t-13.5 62zM-931 2378.5q0 -23.5 16.5 -41t47.5 -17.5q32 0 46.5 17.5t14.5 40.5q0 12 -2.5 24t-11.5 20.5t-21 14.5t-26 6q-33 0 -48.5 -20.5t-15.5 -44z" />
<glyph unicode="&#xf715;" d="M-1070 2224q-3 53 11.5 105t47 95t82.5 71q50 30 116 36l110 -82l109 82q53 -3 94 -25t67.5 -55.5t40 -76.5t13.5 -88q0 -21 -6.5 -43.5t-14.5 -37.5q18 6 41.5 19t46 29.5t44 34t39.5 35.5l56 -144q-36 -20 -78.5 -39.5t-89.5 -37.5t-100 -34t-109 -25l-31 91 q24 20 38 53.5t14 73.5q0 50 -17.5 82.5t-48.5 48.5l-108 -78l-108 78q-14 0 -25 -7t-21 -14t-16 -17.5t-9 -19.5q24 3 51.5 -3.5t51 -24t39 -45t15.5 -65.5q0 -34 -11.5 -62.5t-33 -48.5t-52.5 -31t-69 -11t-70.5 12.5t-55 36t-36.5 56.5t-17 76zM-951 2192q0 -12 3.5 -23 t11.5 -20t20.5 -14t27.5 -5q16 0 28 5t20 14t11.5 20t3.5 23t-3.5 23.5t-11 21t-20 15.5t-28.5 6q-32 0 -47.5 -20.5t-15.5 -45.5z" />
<glyph unicode="&#xf716;" d="M-970 2214v147h147v144h250v-144h148v-147h-148v-144h-250v144h-147z" />
<glyph unicode="&#xf717;" d="M-867 2017q0 25 5 50.5t17.5 49t32.5 45.5q20 19 48 37q26 15 61.5 31t82.5 30t108 26.5t137 24.5l63 -162q-25 0 -57 -3t-65 -7.5t-61 -11.5t-43 -13q13 -9 21 -22t14 -26.5t9 -26t3 -24.5q0 -29 -10.5 -59t-33 -55t-58.5 -40.5t-86 -15.5q-47 0 -83 15.5t-59 40.5 t-34.5 55.5t-11.5 60.5zM-747 2017q0 -12 4.5 -24.5t12.5 -22t20.5 -15.5t28.5 -6q18 0 30 6t20 15.5t12.5 22t4.5 24.5q0 25 -17 43.5t-50 18.5q-32 0 -48 -19q-18 -18 -18 -43z" />
<glyph unicode="&#xf718;" d="M-626 -697q0 43 14.5 80.5t42.5 65.5t70.5 44.5t98.5 16.5q68 0 116.5 -16.5t78 -46t42.5 -72t13 -92.5v-268h-291v97q-41 2 -75.5 17t-59 40t-37.5 60t-13 74zM-476 -691q0 -32 20.5 -52.5t53 -20.5t52 20.5t19.5 52.5t-19.5 53t-52 21t-53 -21t-20.5 -53z" />
<glyph unicode="&#xf719;" d="M-1017 -697q0 43 14 80.5t42.5 65.5t71 44.5t98.5 16.5q59 0 102.5 -16.5t70.5 -46t40.5 -72t13.5 -92.5v-94h123v308h288v-482h-679v97q-41 2 -76.5 17t-59 40t-36.5 60t-13 74zM-869 -691q0 -32 20.5 -52.5t53 -20.5t52.5 20.5t20 52.5t-19 53t-53 21q-33 0 -53.5 -21 t-20.5 -53z" />
<glyph unicode="&#xf71a;" d="M-485 -650q0 31 10 60.5t32.5 52.5t56.5 36q36 14 83 14t81.5 -13.5t57.5 -36.5t33 -51.5t10 -61.5q0 -29 -11.5 -57t-33.5 -50t-56 -34.5t-81 -12.5t-80.5 12.5t-57.5 34.5t-34 50t-10 57z" />
<glyph unicode="&#xf71d;" horiz-adv-x="1581" d="M32 935q0 65 21.5 116t61 86.5t97.5 55.5q56 20 129 20q84 0 143.5 -24.5t97.5 -67t56 -100t18 -124.5v-200q0 -40 -1 -76t-2 -62q-3 -33 -3 -62l156 331h170l154 -331q-3 23 -4 54q-1 25 -2 59t-1 72l-1 241q-36 -9 -70.5 -14.5t-78.5 -5.5q-48 0 -94.5 11.5t-83 35 t-59 59.5t-22.5 85q0 44 18.5 80.5t53 64.5t86 43t119.5 15q54 0 97 -6q41 -6 79 -18q5 18 7 33q2 17 2 32h334q-3 -33 -14 -68t-28 -67.5t-37 -62t-43 -49.5q11 -12 20 -28t15.5 -39t10.5 -54t4 -72v-898h-338l-212 484q-53 -121 -105 -242q-51 -121 -104 -242h-339v675 q-6 0 -15 -1t-15 -1q-56 0 -106.5 17t-89 50t-60.5 82q-22 48 -22 113zM223 935q0 -18 7 -35.5t19.5 -31.5t31.5 -22t42 -8q25 0 43.5 8t31 22t19 31.5t6.5 35.5t-5.5 37t-19 32t-32 22t-43.5 9t-43 -9t-30.5 -23t-19.5 -32t-7 -36zM903 1098q0 -13 7 -23.5t17.5 -16 t25 -8.5t26.5 -3q35 0 64 15q29 14 52 40q-19 21 -48 34q-30 14 -71 14q-12 0 -25 -3t-23.5 -9t-17.5 -16.5t-7 -23.5z" />
<glyph d="M-880.5 1632q-8.5 56 17.5 117q15 33 37 56.5t47.5 36.5t53.5 17.5t52 1.5q-21 15 -32.5 37.5t-17.5 50t-4.5 56.5t13.5 56q30 76 87 107t139 31q59 0 101.5 -19t77.5 -48l-86 -148q-18 20 -40 28.5t-42 8t-37.5 -9.5t-24.5 -27q-9 -20 -6 -39t14 -34.5t30 -26.5t41 -17 l-62 -147q-16 12 -37.5 17.5t-42.5 3.5t-38 -14q-17 -13 -26 -37q-6 -19 -5 -35.5t8 -31.5t20.5 -25t30.5 -15q15 -3 31 -3q17 2 34 11l-29 -150q-11 0 -26 -1t-24 -1q-68 0 -122.5 26t-89 68.5t-43 98.5z" />
<glyph horiz-adv-x="1059" d="M-1047 1705q0 58 22 105t60.5 80t91.5 51.5t116 18.5t116 -18.5t91 -51.5t60.5 -80t22.5 -105q0 -56 -22.5 -103t-60.5 -80.5t-91 -52t-116 -18.5t-116 18.5t-91.5 52t-60.5 80.5t-22 103zM-858 1705q0 -17 5.5 -35.5t19 -32.5t32.5 -22t42 -8q25 0 44.5 8t32 22t19.5 31 q7 20 7 37q0 18 -6.5 36.5t-19 32.5t-31.5 22.5t-46 8.5q-25 0 -43 -8.5t-31.5 -23.5t-19 -32.5t-5.5 -35.5zM-35 791q1 82 30 158t88.5 134.5t153.5 94t228 35.5q113 0 199 -24.5t143 -71.5t86.5 -114.5t29.5 -152.5v-850h-314v847q0 38 -9 69t-27.5 54.5t-47 36 t-69.5 12.5q-39 0 -72 -14t-57 -43.5t-38 -72t-16 -98.5h-308z" />
<glyph horiz-adv-x="1059" d="M-1047 1705q0 58 22 105t60.5 80t91.5 51.5t116 18.5t116 -18.5t91 -51.5t60.5 -80t22.5 -105q0 -56 -22.5 -103t-60.5 -80.5t-91 -52t-116 -18.5t-116 18.5t-91.5 52t-60.5 80.5t-22 103zM-858 1705q0 -17 5.5 -35.5t19 -32.5t32.5 -22t42 -8q25 0 44.5 8t32 22t19.5 31 q7 20 7 37q0 18 -6.5 36.5t-19 32.5t-31.5 22.5t-46 8.5q-25 0 -43 -8.5t-31.5 -23.5t-19 -32.5t-5.5 -35.5zM-35 791q1 82 30 158t88.5 134.5t153.5 94t228 35.5q113 0 199 -24.5t143 -71.5t86.5 -114.5t29.5 -152.5v-850h-314v847q0 38 -9 69t-27.5 54.5t-47 36 t-69.5 12.5q-39 0 -72 -14t-57 -43.5t-38 -72t-16 -98.5h-308z" />
<glyph horiz-adv-x="1465" d="M50 864q0 68 31 127t81 103.5t112 74.5q61 31 126 42l120 -79l124 79q51 -9 98 -34.5t83 -66.5t57 -96.5t21 -124.5q0 -32 -6 -63t-16.5 -60.5t-23.5 -55.5q-13 -25 -26 -48q-33 -53 -72 -102l307 -269v913h250v-1204h-275l-315 291v-291h-379l-219 320q15 27 37.5 55 t52 57.5t63.5 57t71.5 53.5t76 47.5t75.5 35.5q30 21 59 44.5t52 54.5t37.5 69t14.5 88q0 21 -4 40t-11.5 35t-19.5 28.5t-23 18.5l-86 -60l-103 66q-5 -3 -12 -8l-11 -11q19 -9 36 -24.5t30 -37t20.5 -46.5t7.5 -54q0 -44 -17.5 -82t-47 -66t-70.5 -44q-41 -14 -88 -14 q-50 0 -91.5 19.5t-69.5 51.5t-42 76q-15 44 -15 94zM194 835q0 -15 4.5 -29.5t14.5 -25t25 -17.5t35 -7q21 0 35 7t23.5 17.5t15.5 25t6 29.5t-6 28t-15.5 25t-24.5 18q-13 7 -34 7q-20 0 -35 -6.5t-25 -18.5t-14.5 -25t-4.5 -28zM395 309l83 -113v186q-12 -6 -25 -14.5 t-24.5 -19t-20 -20.5t-13.5 -19z" />
<glyph horiz-adv-x="1912" d="M84 772v226l15 5q16 4 39.5 13t51.5 23q30 14 57 31q57 40 112.5 68t111 45.5t113.5 25.5t123 8q125 0 220.5 -28t159.5 -75t97 -111.5t33 -138.5v-380q30 -17 69.5 -45.5t79 -61.5t74 -67.5t54.5 -61.5v956h249v-1204h-247q-17 21 -40 47.5t-48.5 53.5t-53.5 54 t-54 50.5t-48 42.5q-23 20 -38 28v-276h-335l-143 279q17 39 42.5 75.5t56.5 69t65 56.5q35 23 67 37v324q0 48 -22 84t-60 59.5t-88 34t-106 10.5q-62 -1 -118 -18t-105 -38.5t-89.5 -43t-68.5 -32.5l141 -15v-406q53 3 101.5 -10t86 -42.5t59.5 -77.5t22 -112 q0 -59 -19 -104.5t-53.5 -77t-81 -48t-101.5 -16.5q-71 0 -121 22t-81.5 60.5t-46.5 88.5t-15 106v492zM366 232q0 -44 27 -72t71.5 -28t72.5 27q27 29 27 73q0 21 -7 39.5t-20.5 31.5t-31 20.5t-40.5 7.5q-45 0 -72 -27.5t-27 -71.5zM926 279l54 -111v176q-7 -6 -15 -13.5 t-15.5 -17t-14 -19t-9.5 -15.5z" />
<glyph horiz-adv-x="1966" d="M103 717q0 97 26.5 181t76.5 149.5t121 109t161 57.5l193 -109l222 112q83 -9 151.5 -39.5t116.5 -79t74.5 -112t26.5 -136.5v-388q29 -17 69.5 -42.5t80 -54t73.5 -59.5t54 -58v956h250v-1204h-247q-26 32 -64.5 70.5t-79.5 73.5t-77.5 64.5t-60.5 44.5v-253h-337 l-163 212q16 38 45 77.5t64 75t73 61.5q39 27 71 41v344q0 36 -9 68t-26.5 57t-44 46t-61.5 32l-196 -100l-189 100q-69 -44 -107.5 -117.5t-38.5 -182.5q0 -79 14 -152.5t31 -142t30 -129.5q14 -61 12 -117l187 262q-30 0 -60 12.5t-55.5 37.5t-42 62.5t-16.5 90.5 q0 47 17 85t46.5 64.5t69 41.5t86.5 15q53 0 94.5 -16.5t70.5 -44t44.5 -66t15.5 -82.5q0 -60 -22.5 -119.5t-61.5 -115.5q-14 -21 -35.5 -51.5t-46.5 -66t-52 -73.5t-52 -75.5t-46.5 -72.5t-36.5 -61h-311q4 47 -3.5 103t-22 115.5t-32 123.5t-33 127t-26.5 126.5 t-11 121.5zM588 632q0 -16 6 -31.5t16 -27t26.5 -19t36.5 -7.5q21 0 37 7.5t26.5 19t16.5 26t6 32.5q0 15 -6 30.5t-16.5 28t-26.5 19.5t-37 7q-20 0 -36.5 -8t-26.5 -20.5t-16 -27t-6 -29.5zM967 220l68 -82v156q-7 -6 -17 -15t-20 -20.5t-19 -22t-12 -16.5z" />
<glyph horiz-adv-x="2016" d="M91 772v226l16 5q15 4 38.5 13t52 23t55.5 31q57 40 110 68t106 45.5t109.5 25.5t121.5 8q125 0 216.5 -28t151 -75t89 -111.5t29.5 -138.5v-623l310 244v719h250v-675q56 -3 106 -20t86 -50t57.5 -83t21.5 -117q0 -61 -22 -108.5t-61 -81.5t-92.5 -51.5t-118.5 -17.5 h-59h-67h-60h-41v248l-291 -248h-269v841q0 48 -18 84t-52 59.5t-81 34t-101 10.5q-62 -1 -116.5 -18t-101 -38.5t-83.5 -42.5q-36 -22 -65 -33l141 -15v-359q58 12 116.5 1.5t106 -42.5t77.5 -85.5t30 -127.5q0 -63 -21 -114.5t-59.5 -87t-92.5 -54.5t-119 -19 q-78 0 -133 23.5t-89.5 66t-50 100t-15.5 123.5v450zM409 270q0 -19 5.5 -37t18 -32t31 -23t45.5 -9q25 0 43 9t30 23t18 32q7 20 7 37q0 18 -6.5 35.5t-18.5 31t-31 22.5t-42 9q-25 0 -43.5 -9t-32 -22.5t-19 -31t-5.5 -35.5zM1743 168q45 0 69 27t24 67q0 20 -6.5 37 t-18.5 29.5t-29.5 20t-38.5 7.5v-188z" />
<glyph horiz-adv-x="1486" d="M32 935q0 63 21.5 114.5t60.5 87.5t93 55q55 19 119 19q78 0 132.5 -26.5t89 -70.5t50.5 -102.5t16 -125.5v-645l358 244v719h250v-675q55 -3 104.5 -20t86 -50t57.5 -83t21 -117q0 -61 -22.5 -108.5t-60.5 -81.5t-92.5 -51.5t-118.5 -17.5h-58.5h-66.5h-60h-40l-2 248 l-333 -248h-272v682q-59 -12 -118 -1.5t-106 43t-78 85t-31 126.5zM215 935q0 -18 6.5 -35.5t19 -31.5t31.5 -22t43 -8q25 0 43 8t30.5 22t19.5 31.5t7 35.5t-6 37t-19.5 32t-31.5 22t-43 9t-43.5 -9t-31 -23t-19 -32t-6.5 -36zM1220 168q44 0 69 27t25 67q0 20 -6 37 t-18.5 29.5t-29 20t-40.5 7.5v-188z" />
<glyph horiz-adv-x="1459" d="M126 932q0 63 21 114.5t59.5 87.5t92.5 56.5t120 20.5q72 0 126.5 -24t90.5 -66t54.5 -99.5t18.5 -124.5v-350l339 -300v957h250v-1204h-275l-317 291v-291h-338l-221 297q18 38 51.5 79t75.5 79.5t90 69.5t95 48v106q-30 -6 -66.5 -6t-73.5 9.5t-72 29t-61.5 49.5 t-43 72.5t-16.5 98.5zM309 935q0 -18 5.5 -35.5t19 -31.5t32.5 -22t43 -8q25 0 43 8t30 22t18.5 31.5t6.5 35.5t-6 37t-18.5 32t-31.5 22t-42 9q-25 0 -44.5 -9t-32 -23t-18 -32t-5.5 -36zM378 279l82 -113v187q-12 -6 -24.5 -15.5t-24 -20t-20.5 -20.5t-13 -18z" />
<glyph horiz-adv-x="1105" d="M46 619q-6 109 6.5 195.5t40.5 152.5t69 113t91 77.5t108 43.5t120 13q56 0 103.5 -6t88.5 -13t78 -13t66 -6q47 0 87 12t60 29v-207q-20 -13 -55.5 -23.5t-79.5 -10.5q-35 0 -73.5 8t-78.5 17.5t-80.5 18.5t-79.5 9q-76 0 -126 -40q-50 -39 -63 -116h619v-566 q0 -66 -16.5 -123.5t-50 -100t-89 -66t-132.5 -23.5q-65 0 -119.5 19t-92.5 54.5t-59.5 87t-21.5 114.5q0 74 30 127.5t78 85.5t107.5 42.5t116.5 -1.5v174h-313q-32 0 -55.5 -19t-26.5 -59h-257zM548 270q0 -17 7 -36t18.5 -33t30.5 -23t43 -9q25 0 44 9t31.5 23t18.5 31.5 t6 37.5q0 18 -6 35.5t-19 31t-31.5 22.5t-43.5 9q-24 0 -43 -9t-30.5 -22.5t-18.5 -31t-7 -35.5z" />
<glyph d="M-447 2040v338h285v-338h-285z" />
<glyph d="M-797 2358q0 35 13.5 64.5t37 51t57 34t75.5 12.5q44 0 77.5 -14t55 -38.5t32.5 -55.5t11 -66q0 -29 -14.5 -67.5t-35.5 -66.5q34 18 70.5 43.5t72 53.5t65.5 56t51 50l92 -163q-23 -21 -59 -45t-81.5 -48.5t-98.5 -49.5t-109 -46t-114 -39q-57 -16 -112 -28l-56 112 q17 9 33.5 20.5t32 25t26.5 27.5q12 15 18 27q-24 0 -49 10.5t-44.5 29.5t-33 47t-13.5 63zM-681 2354.5q0 -23.5 16.5 -41t47.5 -17.5q32 0 46.5 17.5t14.5 41.5q0 12 -3 23.5t-11.5 21t-20.5 15t-26 5.5q-33 0 -48 -20q-16 -22 -16 -45.5z" />
<glyph d="M-894 2165q-3 53 12 105.5t47 95t82 71.5q50 30 116 36l111 -83l109 83q52 -3 93.5 -25t68 -56t39.5 -76.5t13 -88.5q0 -21 -6.5 -43.5t-13.5 -37.5q17 6 40.5 19.5t46.5 29.5t44 33.5t39 35.5l56 -144q-35 -19 -78 -39t-90 -37.5t-100 -34t-108 -25.5l-31 92 q23 19 37 52.5t14 73.5q0 50 -17.5 82.5t-48.5 48.5l-107 -78l-109 78q-13 0 -24 -6.5t-21.5 -14t-16.5 -18t-9 -18.5q24 2 52 -4.5t51.5 -24t39 -44.5t15.5 -66q0 -33 -12 -62t-33 -48.5t-52 -31t-69.5 -11.5t-70.5 12.5t-55 36.5t-37 57t-17 75zM-775 2133q0 -12 4 -23 t12 -19.5t20.5 -14t27.5 -5.5q16 0 27.5 5.5t19.5 14t12 19.5t4 23t-4 23.5t-11 21t-19.5 15.5t-28.5 6q-33 0 -48.5 -20.5t-15.5 -45.5z" />
<glyph d="M-617 2134v146h147v144h250v-144h148v-146h-148v-144h-250v144h-147z" />
<glyph d="M-836 2032v338h277v-338h-277z" />
<glyph d="M-1047 2349q0 35 13.5 64.5t37 51.5t57 34.5t75.5 12.5q44 0 77.5 -14t55 -37.5t32.5 -55.5t11 -68q0 -29 -14.5 -66.5t-35.5 -65.5q34 18 70.5 43.5t72 53.5t65.5 56t51 50l92 -163q-23 -21 -59 -45t-81.5 -49t-98.5 -48.5t-109 -46t-114 -39.5q-57 -18 -112 -30 l-56 114q17 8 33.5 20.5t32 26t27 26.5t17.5 25q-24 0 -48.5 12t-44.5 31t-33.5 45.5t-13.5 61.5zM-931 2349.5q0 -23.5 16.5 -41.5t47.5 -18q32 0 46.5 18t14.5 41q0 12 -2.5 23.5t-11.5 20.5t-21 15t-26 6q-33 0 -48.5 -20.5t-15.5 -44z" />
<glyph d="M-1070 2165q-3 53 11.5 105.5t47 95t82.5 71.5q50 30 116 36l110 -83l109 83q53 -3 94 -25t67.5 -56t40 -76.5t13.5 -88.5q0 -21 -6.5 -43.5t-14.5 -37.5q18 6 41.5 19.5t46 29.5t44 33.5t39.5 35.5l56 -144q-36 -19 -78.5 -39t-89.5 -37.5t-100 -34t-109 -25.5l-31 92 q24 19 38 52.5t14 73.5q0 50 -17.5 82.5t-48.5 48.5l-108 -78l-108 78q-14 0 -25 -6.5t-21 -14t-16 -18t-9 -18.5q24 2 51.5 -4.5t51 -24t39 -44.5t15.5 -66q0 -33 -11.5 -62t-33 -48.5t-52.5 -31t-69 -11.5t-70.5 12.5t-55 36.5t-36.5 57t-17 75zM-951 2133q0 -12 3.5 -23 t11.5 -19.5t20.5 -14t27.5 -5.5q16 0 28 5.5t20 14t11.5 19.5t3.5 23t-3.5 23.5t-11 21t-20 15.5t-28.5 6q-32 0 -47.5 -20.5t-15.5 -45.5z" />
<glyph d="M-970 2126v147h147v144h250v-144h148v-147h-148v-144h-250v144h-147z" />
<glyph d="M-1188 1452v199q40 12 77.5 32.5t76.5 44t79.5 47t83 42.5t89.5 31.5t101 12.5q50 0 95 -11.5t87.5 -30t84 -43t84 -48t88 -45.5t94.5 -37v-194h-1040zM-906 1596h444v8q-30 14 -56 31t-51 29.5t-51.5 20.5t-60.5 8q-30 0 -59 -9.5t-56 -23.5t-54 -30q-29 -16 -56 -31v-3 z" />
<glyph d="M-1188 1452v199q40 12 77.5 32.5t76.5 44t79.5 47t83 42.5t89.5 31.5t101 12.5q62 0 116.5 -17.5t107.5 -44.5v171h309v-518h-1040zM-906 1596h444v8q-30 14 -56 31t-51 29.5t-51.5 20.5t-60.5 8q-30 0 -59 -9.5t-56 -23.5t-54 -30q-29 -16 -56 -31v-3z" />
<glyph d="M-1188 1452v199q40 12 77.5 32.5t76.5 44t79.5 47t83 42.5t89.5 31.5t101 12.5q30 0 57 -3.5t54 -11.5q6 31 23.5 58.5t45.5 48t66 32t85 11.5q55 0 96.5 -16t69.5 -42.5t43 -62.5t15 -77q0 -40 -12 -78t-38 -65q5 -3 13 -5q7 -1 15 -4v-194h-1040zM-906 1596h444v8 q-30 14 -56 31t-51 29.5t-51.5 20.5t-60.5 8q-30 0 -59 -9.5t-56 -23.5t-54 -30q-29 -16 -56 -31v-3zM-432 1796q0 -35 22 -58.5t59 -23.5q38 0 59.5 23.5t21.5 58.5q0 37 -22.5 60t-58.5 23t-58.5 -23t-22.5 -60z" />
<glyph d="M-1188 1452v199q50 15 98.5 43.5t98.5 58t104 57.5q52 28 114 39v119h244v-136q29 -12 58.5 -27t58.5 -29v192h264v-516h-1040zM-906 1596h444v8q-30 14 -56 31t-51 29.5t-51.5 20.5t-60.5 8q-30 0 -59 -9.5t-56 -23.5t-54 -30q-29 -16 -56 -31v-3z" />
<glyph d="M-547 1452v456h303v-456h-303z" />
<glyph d="M-876 1855q0 41 15.5 76.5t44 63.5t68 43.5t89.5 15.5q53 0 93 -17t68 -45t42 -66.5t14 -79.5q0 -17 -4 -37.5t-12.5 -43t-20.5 -43t-27 -34.5q40 20 83.5 49.5t84.5 62t76.5 64.5t58.5 59l109 -191q-27 -25 -69.5 -54t-96 -57.5t-116 -57t-128.5 -53.5t-134 -45.5 t-132 -35.5l-68 132q21 10 41.5 25t38 30.5t31.5 31.5q16 16 21 31q-30 0 -61 11.5t-55.5 35t-39 56t-14.5 73.5zM-735 1854q0 -28 19 -48.5t56 -20.5t55 20q20 21 20 49q0 14 -4.5 28t-14 24.5t-23.5 16.5t-33 6t-32.5 -6t-23.5 -16.5t-14.5 -25t-4.5 -27.5z" />
<glyph d="M-1129 1667q0 62 16 117.5t50.5 101.5t88.5 76.5t126 39.5l128 -97l126 97q63 -6 108 -30t73.5 -63t42.5 -88q13 -48 13 -104q0 -18 -4 -38.5t-8 -35.5q43 21 84 53q41 33 75 74l75 -196q-41 -22 -87 -41.5t-98.5 -36.5t-113.5 -32.5t-135 -28.5l-34 104q15 12 27 29 t20 37.5t11 43.5q4 24 4 44.5t-3 42t-11 40.5t-19 34.5t-26 25.5l-120 -88l-127 88q-11 -3 -23 -13t-19.5 -22.5t-12 -24.5t-4.5 -18q33 3 64 -7.5t55 -31t38.5 -49.5t14.5 -66q0 -33 -11 -64.5t-34.5 -54t-58.5 -36.5t-85 -14q-47 0 -85.5 16t-65 47t-41 73.5t-14.5 95.5z M-991 1599.5q0 -11.5 4.5 -25t13.5 -22t20.5 -14.5t29 -6t31 6t22.5 14.5t13 21.5q4 14 4 25q0 14 -4 26.5t-13 22.5t-22.5 16t-30.5 6q-18 0 -30.5 -6t-21 -16t-12.5 -23.5t-4 -25z" />
<glyph d="M-706 1608v159h161v156h298v-156h160v-159h-160v-156h-298v156h-161z" />
<glyph d="M-757 1632q0 29 6.5 60t22 59.5t40 54.5t57.5 46q33 18 75.5 37t100.5 36t131.5 32.5t164.5 28.5l78 -196q-29 0 -69.5 -2t-80 -7t-74.5 -12q-33 -5 -54 -14q15 -12 27 -28t19 -33.5t10 -34t3 -30.5q0 -36 -11.5 -74t-39.5 -67.5t-71.5 -48.5t-105.5 -19q-59 0 -101.5 19 t-71 48.5t-42.5 67.5t-14 77zM-609 1630.5q0 -14.5 4.5 -30t15 -26.5t25 -18t35 -7t35.5 7t25 18t14.5 25.5t4.5 30.5q0 15 -4.5 29t-14.5 24t-25 16t-35 6q-21 0 -35.5 -6t-24 -16t-15 -24t-5.5 -28.5z" />
<glyph d="M-1001 1639q0 50 18.5 90.5t50 68.5t75 42.5t93.5 14.5q51 0 93.5 -15.5t73 -42.5t46.5 -64t16 -81v-8.5t-2 -8.5q106 38 201 99.5t171 142.5l127 -187q-30 -29 -70 -60.5t-91 -61.5t-110.5 -58t-123.5 -49.5t-132.5 -34t-135.5 -12.5q-83 0 -140 17.5t-93 48.5t-51.5 72 t-15.5 87zM-847 1638q0 -36 22 -59.5t59 -23.5q38 0 59.5 23.5t21.5 59.5t-22 59t-59 23q-35 0 -58 -23t-23 -59z" />
<glyph d="M-1349 1452v199q23 6 54 19t64 30.5t67 37.5q32 20 62 38q76 47 146 66t140 19q74 0 142 -20.5t145 -63.5q53 -29 94 -50.5t75 -37t62 -26.5t54 -17v-194h-1105zM-1067 1596h510v8q-9 4 -27 13q-19 9 -39 22q-39 21 -88.5 37.5t-105.5 16.5q-22 0 -45 -5t-45 -13 t-44 -18.5t-40 -18.5q-35 -20 -52.5 -28t-23.5 -11v-3z" />
<glyph d="M-1349 1452v199q23 6 54 19t64 30.5t67 37.5q32 20 62 38q76 47 146 66t140 19q68 0 131 -17.5t132 -53.5v180h309v-518h-1105zM-1067 1596h510v8q-9 4 -27 13q-19 9 -39 22q-39 21 -88.5 37.5t-105.5 16.5q-22 0 -45 -5t-45 -13t-44 -18.5t-40 -18.5q-35 -20 -52.5 -28 t-23.5 -11v-3z" />
<glyph d="M-1349 1452v199q23 6 54 19t64 30.5t67 37.5q32 20 62 38q76 47 146 66t140 19q38 0 74 -6t75 -16q5 32 22 61t46 50t67 33.5t87 12.5q54 0 96 -16t70.5 -42.5t43.5 -62.5t15 -77q0 -40 -13.5 -78t-39.5 -65q16 -6 29 -9v-194h-1105zM-1067 1596h510v8q-9 4 -27 13 q-19 9 -39 22q-39 21 -88.5 37.5t-105.5 16.5q-22 0 -45 -5t-45 -13t-44 -18.5t-40 -18.5q-35 -20 -52.5 -28t-23.5 -11v-3zM-529 1796q0 -35 23.5 -58.5t58.5 -23.5q38 0 60 23.5t22 58.5q0 37 -22 60t-60 23q-35 0 -58.5 -23t-23.5 -60z" />
<glyph d="M-1349 1452v199q23 6 54 19t64 30.5t67 37.5q32 20 62 38q61 38 119 57q60 19 116 25v110h244v-145q23 -9 46 -21q24 -12 48 -25l22 -13v204h263v-516h-1105zM-1067 1596h510v8q-9 4 -27 13q-19 9 -39 22q-39 21 -88.5 37.5t-105.5 16.5q-22 0 -45 -5t-45 -13t-44 -18.5 t-40 -18.5q-35 -20 -52.5 -28t-23.5 -11v-3z" />
<glyph d="M-685 1705q0 58 21.5 105t59.5 80t91 51.5t116 18.5t117 -18.5t92 -51.5t58.5 -80t20.5 -105q0 -56 -20.5 -103t-58.5 -80.5t-92 -52t-117 -18.5t-116 18.5t-91 52t-59.5 80.5t-21.5 103zM-500 1705q0 -17 7.5 -35.5t20 -32.5t32.5 -22t43 -8q25 0 43.5 8t31.5 22t19 31 q6 20 6 37q0 18 -6 36.5t-19 32.5t-32 22.5t-43 8.5q-25 0 -45 -8.5t-31.5 -23.5t-19 -32.5t-7.5 -35.5z" />
<glyph d="M-542 2120v338h283v-338h-283z" />
<glyph d="M-744 2378.5q0 35.5 12.5 65t37 51.5t58 34.5t74.5 12.5q45 0 77 -14t54 -37.5t32.5 -56t10.5 -67.5q0 -30 -13.5 -67.5t-36.5 -65.5q34 18 71.5 43.5t72.5 53.5t66 56t50 50l93 -163q-24 -20 -60 -44.5t-81.5 -49.5t-98.5 -48.5t-109.5 -45.5t-114 -39.5t-113.5 -29.5 l-55 113q17 9 35 21.5t32.5 25.5t26 26.5t17.5 25.5q-23 0 -48 11.5t-45.5 30.5t-32.5 45.5t-12 62zM-629 2378.5q0 -23.5 15.5 -41t46.5 -17.5q32 0 47 17q17 18 17 41q0 12 -4.5 24t-11.5 20.5t-19 14.5t-29 6q-33 0 -47.5 -20.5t-14.5 -44z" />
<glyph d="M-767 2224q-3 53 11.5 105t47 95t81.5 71q49 30 115 36l109 -82l112 82q53 -3 93.5 -25t67.5 -55.5t40 -76.5q11 -43 11 -88q0 -21 -6 -43.5t-13 -37.5q17 6 40 19t46.5 29.5t45.5 34t37 35.5l55 -144q-35 -20 -77 -39.5t-89.5 -37.5t-99.5 -34q-54 -16 -110 -25l-29 91 q23 20 36.5 53.5t13.5 73.5q0 50 -18 82.5t-47 48.5l-109 -78l-107 78q-13 0 -25 -7t-20.5 -14t-15.5 -18q-5 -10 -8 -19q23 3 50.5 -3.5t51 -24t39 -45t15.5 -65.5q0 -34 -12 -62.5t-33.5 -48.5t-52 -31t-69 -11t-70 12.5t-55 36t-36.5 56.5t-16 76zM-650 2192 q0 -12 4.5 -23t12 -20t20 -14t26.5 -5q17 0 28.5 5t19 14t12 20t4.5 23t-4 23.5t-12 21t-19.5 15.5t-28.5 6q-32 0 -47.5 -20.5t-15.5 -45.5z" />
<glyph d="M-670 2214v147h150v144h248v-144h149v-147h-149v-144h-248v144h-150z" />
<glyph d="M-542 2040v338h283v-338h-283z" />
<glyph d="M-891 2358q0 35 12.5 64.5t37 51t58 34t74.5 12.5q45 0 77 -14t54 -38.5t32.5 -55.5t10.5 -66q0 -29 -13.5 -67.5t-36.5 -66.5q34 18 71.5 43.5t72.5 53.5t66 56t50 50l93 -163q-24 -21 -60 -45t-81.5 -48.5t-98.5 -49.5t-109.5 -46t-113.5 -39q-58 -16 -113 -28l-56 112 q17 9 35 20.5t32.5 25t26.5 27.5q11 15 17 27q-23 0 -48 10.5t-45.5 29.5t-32.5 47t-12 63zM-776 2354.5q0 -23.5 15.5 -41t46.5 -17.5q32 0 47 18q17 17 17 41q0 12 -4.5 23.5t-11.5 21t-19 15t-29 5.5q-33 0 -47 -20q-15 -22 -15 -45.5z" />
<glyph d="M-988 2165q-3 53 12 105.5t47 95t82 71.5q49 30 115 36l109 -83l111 83q53 -3 93.5 -25t68 -56t39.5 -77q11 -42 11 -88q0 -21 -6 -43.5t-13 -37.5q18 6 40.5 19.5t46 29.5t45.5 33.5t37 35.5l56 -144q-35 -19 -77 -39t-90 -37.5t-100 -34.5q-54 -16 -109 -25l-30 92 q24 19 37 52.5t13 73.5q0 50 -17.5 82.5t-46.5 48.5l-109 -78l-108 78q-13 0 -24.5 -6.5t-20.5 -14t-16 -17.5q-5 -11 -8 -19q24 2 51 -4.5t50.5 -24t39 -44.5t15.5 -66q0 -33 -11.5 -62t-33 -48.5t-52.5 -31t-69 -11.5t-69.5 12.5t-55 36.5t-37 57t-16.5 75zM-870 2133 q0 -12 4.5 -23t11.5 -19.5t19.5 -14t27.5 -5.5q16 0 28 5.5t19 14t11.5 19.5t4.5 23t-3.5 23.5t-11.5 21t-20 15.5t-28 6q-32 0 -47.5 -20.5t-15.5 -45.5z" />
<glyph d="M-714 2134v146h150v144h248v-144h148v-146h-148v-144h-248v144h-150z" />
<glyph d="M-597 2046q0 25 6 51t18.5 49.5t32.5 44.5q20 20 48 38q26 14 61.5 30.5t83 30t108 26t136.5 24.5l63 -161q-25 0 -57 -3t-64.5 -7.5t-60.5 -12t-46 -13.5q14 -9 23.5 -22t15.5 -26t8 -25.5t2 -24.5q0 -30 -11 -60t-33 -55t-58 -40q-38 -16 -88 -16q-47 0 -82 15.5 t-58.5 40.5t-35.5 56t-12 60zM-473 2046q0 -12 3 -24.5t11.5 -22t20.5 -15t29 -5.5q18 0 29.5 5.5t20 15t12 22t3.5 24.5q0 25 -16 43.5t-49 18.5q-32 0 -48 -18.5t-16 -43.5z" />
<glyph horiz-adv-x="1059" d="M-685 1705q0 58 21.5 105t59.5 80t91 51.5t116 18.5t117 -18.5t92 -51.5t58.5 -80t20.5 -105q0 -56 -20.5 -103t-58.5 -80.5t-92 -52t-117 -18.5t-116 18.5t-91 52t-59.5 80.5t-21.5 103zM-500 1705q0 -17 7.5 -35.5t20 -32.5t32.5 -22t43 -8q25 0 43.5 8t31.5 22t19 31 q6 20 6 37q0 18 -6 36.5t-19 32.5t-32 22.5t-43 8.5q-25 0 -45 -8.5t-31.5 -23.5t-19 -32.5t-7.5 -35.5zM-35 791q1 82 30 158t88.5 134.5t153.5 94t228 35.5q113 0 199 -24.5t143 -71.5t86.5 -114.5t29.5 -152.5v-850h-314v847q0 38 -9 69t-27.5 54.5t-47 36t-69.5 12.5 q-39 0 -72 -14t-57 -43.5t-38 -72t-16 -98.5h-308z" />
</font>
</defs>
</svg>
