<?xml version="1.0" standalone="no"?>
<!DOCTYPE svg PUBLIC "-//W3C//DTD SVG 1.1//EN" "http://www.w3.org/Graphics/SVG/1.1/DTD/svg11.dtd" >
<svg xmlns="http://www.w3.org/2000/svg">
<metadata></metadata>
<defs>
<font id="tepc_kanigaregular" horiz-adv-x="0" >
<font-face units-per-em="2048" ascent="1638" descent="-410" />
<missing-glyph horiz-adv-x="908" />
<glyph unicode="&#xe4f;&#x22;" horiz-adv-x="932" d="M98 546q0 76 28 144t78.5 118t117 78.5t144.5 28.5q79 0 146 -28.5t116.5 -78.5t78.5 -118t29 -144q0 -75 -29 -144t-78.5 -118.5t-117.5 -80t-145 -30.5q-75 0 -143 29t-118.5 78.5t-78.5 117.5t-28 148zM157 546q0 -64 24.5 -121.5t67.5 -98t98.5 -65t118.5 -24.5 q64 0 120 24.5t99 66.5t67 98t24 120t-24 119.5t-67 97t-99 65t-120 23.5q-55 0 -110.5 -20.5t-99.5 -61.5t-71.5 -97t-27.5 -126zM309 546q0 64 47 110.5t110 46.5q67 0 113 -45t46 -112q0 -61 -42.5 -111t-116.5 -50q-66 0 -111.5 47.5t-45.5 113.5zM312 1194q0 40 37 40 h45q37 0 37 -40l-25 -185q-3 -29 -36 -29q-30 0 -34 29zM521 1194q0 40 37 40h43q40 0 38 -40l-23 -185q-3 -29 -37 -29t-36 29z" />
<glyph unicode="&#xe24;&#xe32;" horiz-adv-x="1900" d="M121 830l15 55q43 151 170.5 242t281.5 91q121 0 218 -43.5t155 -135.5q51 87 130.5 134.5t193.5 47.5q170 0 273 -98.5t103 -277.5v-1317h-103v1317q0 133 -73 203.5t-200 70.5q-128 0 -200.5 -72t-72.5 -202v-1317h-103v1314q0 76 -25.5 127.5t-69.5 83.5t-102 47.5 t-121 15.5q-104 0 -197.5 -53.5t-135.5 -150.5q26 -3 56.5 -6t56.5 -13.5t44.5 -29t21.5 -53.5q-61 -18 -94.5 -67t-33.5 -107v-303q37 18 79 19q78 0 131.5 -53t53.5 -129q0 -78 -53.5 -131.5t-131.5 -53.5q-79 0 -132 51t-53 134v466q0 46 21.5 90t53.5 81zM309 170 q0 -34 23 -58.5t56 -24.5q34 0 57.5 24.5t23.5 58.5t-23.5 56.5t-57.5 22.5t-56.5 -23t-22.5 -56z" />
<glyph unicode="&#xe26;&#xe32;" horiz-adv-x="2036" d="M90 170q0 76 53.5 129t131.5 53q43 0 80 -19v303q0 46 13.5 90t47.5 81l-158 23l14 55q43 151 170.5 242t281.5 91q121 0 218 -43.5t155 -135.5q51 87 130.5 134.5t194.5 47.5q170 0 272.5 -98.5t102.5 -277.5v-1317h-102v1317q0 133 -72.5 203.5t-200.5 70.5 q-127 0 -200.5 -68t-73.5 -196v-1327h-102v1317q0 73 -25.5 124.5t-70 83.5t-101.5 47.5t-121 15.5q-103 0 -197 -53.5t-137 -150.5q26 -3 57 -6t56.5 -13.5t44 -29t21.5 -53.5q-61 -18 -87 -67t-26 -107v-466q0 -87 -48 -136t-137 -49q-78 0 -131.5 52.5t-53.5 132.5z M191 170q0 -37 24.5 -61.5t59.5 -24.5q37 0 61.5 24.5t24.5 61.5q0 34 -26 58t-60 24q-37 0 -60.5 -24.5t-23.5 -57.5z" />
<glyph unicode="fi" horiz-adv-x="938" d="M61 909v106h118v70q0 142 72.5 219.5t233.5 77.5h140v-106h-140q-109 0 -152.5 -49.5t-43.5 -141.5v-70h257q34 0 49 7.5t21 16.5q9 12 9 22h115v-1061h-112v909h-301q-24 0 -31 -12t-7 -33v-864h-110v909h-118z" />
<glyph unicode="fl" horiz-adv-x="1172" d="M61 909v106h118v70q0 142 72.5 219.5t233.5 77.5h252v-1043q0 -34 6 -74t27.5 -75.5t59 -59t101.5 -23.5h139v-107h-139q-142 0 -224 91t-82 248v937h-140q-109 0 -152.5 -49.5t-43.5 -141.5v-70h220v-106h-182q-24 0 -31 -12t-7 -33v-864h-110v909h-118z" />
<glyph unicode="B&#x35;&#x31;&#x33;DS&#x21;GN" horiz-adv-x="12136" d="M303 0v1331h672q98 0 186 -18.5t154.5 -59.5t106 -106t39.5 -161q0 -165 -148 -258q112 -49 158.5 -135.5t46.5 -195.5q0 -104 -42 -178t-113.5 -122t-163.5 -72.5t-193 -24.5h-703zM673 286h290q79 0 133.5 23.5t54.5 112.5q0 78 -51 111.5t-137 33.5h-290v-281z M673 813h270q63 0 104 30t41 94q0 75 -48 93.5t-125 18.5h-242v-236zM1816 104l105 278l83 -43q40 -21 106 -37t146 -16q60 0 109.5 16t83.5 50q40 40 36 102q0 52 -27.5 85.5t-69.5 53.5t-97 27.5t-105 7.5q-46 0 -90.5 -3t-85.5 -9l-116 -20l116 755h809v-305h-528 q-6 -37 -12 -60t-12 -64h9q93 0 175.5 -18.5t148.5 -52.5q116 -58 181 -156.5t65 -225.5q0 -106 -43.5 -195t-123 -152.5t-188 -100t-235.5 -36.5q-107 0 -207 19.5t-169 59.5zM3115 1177l379 174h261v-1348h-348v980q-21 -9 -55.5 -26t-68.5 -32q-40 -18 -82 -40zM4153 112 l115 279l82 -46q34 -18 105 -38.5t152 -20.5q136 0 188 53q24 24 28.5 49t4.5 37q0 55 -36.5 85t-83 45t-89.5 18t-55 3h-188v291h188q34 0 72 6t69.5 19.5t53 35t21.5 52.5q0 57 -48.5 73.5t-103.5 16.5q-67 0 -127.5 -20t-93.5 -44l-88 -54l-117 275l63 37q58 40 164 72 t233 32q124 0 212 -32t146.5 -84t86 -117t27.5 -135q0 -78 -34.5 -143t-95.5 -117q87 -55 136 -137t49 -181q0 -79 -35 -158t-106 -141t-180.5 -100t-257.5 -38q-130 0 -233 27.5t-160 60.5zM5538 -15v1360h15h639q162 0 287.5 -49.5t210.5 -144.5q173 -179 173 -475 q0 -303 -170 -491q-177 -200 -501 -200h-654zM5568 15h624q310 0 477 191q161 176 160 470q0 286 -160 455q-164 179 -477 179h-624v-1295zM5905 281v768h18h188q206 0 300 -115q82 -90 82 -295q0 -161 -76 -248q-81 -110 -248 -110h-264zM5941 312h228q100 0 157 38 t87.5 89.5t39.5 108t9 91.5q0 182 -76 276q-84 103 -275 103h-170v-706zM7017 949q0 199 176 315q157 106 382 106q321 0 479 -140l9 -12l-268 -218l-12 12q-37 34 -92.5 46t-127.5 12q-9 0 -35 -3t-53.5 -12t-49 -29t-21.5 -54q0 -48 78 -70.5t183 -46.5q90 -20 188 -48.5 t182 -75.5q194 -109 194 -323q0 -230 -194 -344q-79 -52 -190 -78t-233 -26q-116 0 -253 21.5t-264 105.5l-12 11l179 257l12 -10q85 -58 182.5 -70t166.5 -12q30 0 69.5 4.5t73.5 21.5q60 26 60 93q0 58 -80.5 85t-191.5 51q-87 21 -182 48t-173 73q-91 55 -136.5 129 t-45.5 181zM7051 949q0 -188 165 -284q73 -43 164 -67.5t180 -45.5q61 -12 115 -27.5t95 -34t65 -45t24 -63.5q0 -85 -85 -122q-37 -14 -77.5 -20t-73.5 -6q-69 0 -166 13t-186 65q-6 -9 -27.5 -39t-45 -63.5t-45 -64t-27.5 -38.5q93 -61 210 -88.5t276 -27.5 q106 0 210.5 23t187.5 72.5t134.5 129t51.5 192.5t-50 185t-128.5 117t-174 71t-187.5 43q-118 24 -199.5 54.5t-81.5 93.5q0 70 60.5 97.5t127.5 27.5q75 0 134.5 -10.5t102.5 -43.5q6 6 37.5 31.5t68 54t69.5 54.5t42 35q-148 121 -442 121q-107 0 -201 -25.5t-163 -73.5 q-162 -106 -160 -291zM8451 -12v354h370h15v-354h-385zM8457 940v376v15l382 -3v-18q0 -46 1.5 -91t1.5 -91q2 -46 2 -91v-94q0 -88 -14.5 -190t-33.5 -198q-9 -46 -16.5 -86.5t-13.5 -77.5v-18h-231l-3 18q-3 37 -10.5 77.5t-15.5 86.5q-18 98 -33.5 199t-15.5 186z M8477 15h328v297h-328v-297zM8486 940q0 -85 15.5 -183t33.5 -196q6 -43 15.5 -80.5t15.5 -72.5h175q6 35 12.5 72.5t12.5 80.5q18 98 33.5 196t15.5 186v185q-3 43 -3 85v85h-58t-105 1.5t-104 1.5h-59v-361zM9000 665q0 148 48 278t146 228q97 103 232.5 157t300.5 54 q145 0 272 -50t219 -138l12 -11l-281 -231l-14 9q-78 97 -208 97q-88 0 -150 -31.5t-108 -92.5q-72 -101 -72 -269q0 -157 75 -259q87 -119 255 -117q40 0 88 7t91 34.5t71 77t28 135.5v224h376v-782h-194q-21 24 -39 45q-14 17 -31 35.5t-23 24.5q-73 -60 -168.5 -95 t-198.5 -35q-82 0 -156.5 14t-144.5 38q-64 26 -121.5 63t-104.5 89q-98 98 -149 224.5t-51 276.5zM9029 665q0 -143 49 -266.5t142 -213.5q200 -194 507 -194q100 0 194 35t164 98l12 6l48 -55q18 -20 34.5 -37t20.5 -23h151v722h-312v-194q0 -151 -98 -222 q-84 -66 -214 -66q-177 0 -279 127q-40 58 -61.5 129t-21.5 154q0 60 16 138.5t64 148.5q98 133 282 133q139 0 225 -90q5 5 40 34t74 61t72.5 59.5t42.5 35.5q-87 79 -204 122.5t-250 43.5q-154 0 -283 -51t-227 -154q-90 -94 -139 -216.5t-49 -264.5zM10575 -15v1360h364 q130 -191 236 -347q46 -67 90 -133.5t81.5 -121.5t63.5 -94t35 -56v752h376h12v-1360h-379q-131 188 -236 342q-45 67 -89 132t-82.5 119.5t-66 95.5t-35.5 54v-743h-370zM10603 15h315v809l272 -399q52 -76 101 -149t88 -129.5t63.5 -92.5t24.5 -39h336v1295h-330v-819 q-148 228 -271 406q-52 75 -100 150t-85.5 132.5t-62 94t-27.5 36.5h-324v-1295z" />
<glyph unicode="&#xd;" horiz-adv-x="908" />
<glyph unicode=" "  horiz-adv-x="908" />
<glyph unicode="&#x09;" horiz-adv-x="908" />
<glyph unicode="&#xa0;" horiz-adv-x="908" />
<glyph unicode="!" horiz-adv-x="544" d="M222 0v176h105v-176h-105zM222 379v1145h105v-1145h-105z" />
<glyph unicode="&#x22;" horiz-adv-x="605" d="M139 1498h119l-21 -301q-3 -49 -33.5 -54.5t-42.5 -5.5zM349 1498h117l-21 -301q-2 -49 -32.5 -54.5t-42.5 -5.5z" />
<glyph unicode="#" horiz-adv-x="1363" d="M161 408l21 95h221l54 249h-217l23 96h214l75 329h115l-79 -329h267l73 329h118l-77 -329h240q-12 -34 -32 -53t-34 -28q-18 -12 -40 -12h-151l-58 -252h252q-9 -34 -29 -53t-38 -28q-21 -12 -49 -14h-151l-72 -330q-9 -23 -26 -41q-14 -15 -38.5 -30.5t-66.5 -15.5 l91 417h-267l-72 -330q-9 -23 -25 -41q-15 -15 -39.5 -30.5t-66.5 -15.5l88 417h-224zM521 530q-6 -27 28 -27h203q15 0 25 6t15 21l41 194q6 29 -23 31h-209q-12 0 -24.5 -7.5t-15.5 -23.5z" />
<glyph unicode="$" horiz-adv-x="1363" d="M197 434h106q0 -76 30.5 -136.5t78.5 -105t110.5 -68t125.5 -31.5v508q0 43 -38 41q-79 0 -153.5 15.5t-132.5 52t-92.5 97t-34.5 151.5q0 100 39 178.5t103 135t144.5 89.5t164.5 42v147h107v-104q0 -24 13 -35t24 -14q78 -18 152 -52.5t132 -89.5t92.5 -127.5 t34.5 -166.5h-106q0 78 -30.5 137t-77 100.5t-109 65.5t-125.5 34v-514q0 -34 13 -37.5t24 -3.5q81 -3 155 -18.5t130.5 -50.5t91 -95.5t34.5 -153.5q0 -101 -37.5 -178t-101.5 -131.5t-144.5 -88t-164.5 -42.5v-158h-107v112q0 24 -13 36.5t-28 15.5q-79 15 -153.5 49.5 t-131 91t-91 132t-34.5 170.5zM303 958q0 -37 10.5 -73.5t47 -67t104.5 -48t183 -23.5v521q0 24 -13 25.5t-25 -1.5q-61 -12 -115.5 -38t-97 -66.5t-68.5 -98.5t-26 -130zM755 139q0 -27 15.5 -35.5t27.5 -5.5q60 12 112.5 37.5t95.5 66.5t67 95.5t24 127.5q0 40 -10.5 75.5 t-45.5 64t-103 48.5t-183 26v-500z" />
<glyph unicode="%" horiz-adv-x="1515" d="M197 1119q0 106 72.5 180t178.5 74q107 0 181 -74.5t74 -179.5q0 -52 -19 -99.5t-55 -82t-81 -54t-100 -19.5q-54 0 -99.5 19.5t-78.5 54t-53 82t-20 99.5zM237 3l876 1307q21 29 44 53.5t64 24.5q24 0 64 -15l-879 -1312q-52 -79 -103 -79q-34 0 -66 21zM300 1119 q0 -61 44 -105.5t104 -44.5q61 0 104.5 44.5t43.5 105.5t-43.5 106t-104.5 45q-60 0 -104 -45t-44 -106zM833 255q0 106 75 180t180 74q55 0 100.5 -20t79 -54.5t52.5 -81.5t19 -98q0 -107 -72.5 -181t-178.5 -74q-52 0 -98.5 20t-81.5 55t-55 80t-20 100zM940 255 q0 -61 43.5 -104.5t104.5 -43.5q60 0 104.5 43.5t44.5 104.5q0 60 -44.5 104t-104.5 44q-61 0 -104.5 -44t-43.5 -104z" />
<glyph unicode="&#x26;" horiz-adv-x="1363" d="M170 388q0 69 30.5 144t99.5 135l194 169q-23 34 -52 69t-55 72.5t-43 78.5t-17 87q0 112 77.5 190.5t191.5 78.5q55 0 104 -21t86.5 -57t59 -86.5t21.5 -104.5q0 -98 -56 -161t-126 -121q-23 -17 -25 -43q0 -17 19 -45l307 -418q49 116 66.5 235t20.5 186h107 q-3 -30 -10 -86.5t-20 -126t-36 -148.5t-56 -152l185 -239q-29 -24 -63 -24q-24 0 -39.5 4.5t-32.5 23t-41 51.5t-69 88q-76 -87 -187 -133t-207 -46q-93 0 -172.5 33.5t-137 89.5t-91 128.5t-33.5 148.5zM272 385q0 -58 26 -109t72 -92.5t104.5 -66t126.5 -24.5 q64 0 135 24.5t140 79.5q34 24 33 52q0 23 -33 72l-315 431q-49 -43 -101 -86.5t-94 -89.5t-68 -92.5t-26 -98.5zM434 1143q0 -64 48 -113.5t114 -49.5q64 0 114.5 49.5t50.5 113.5q0 66 -50.5 115t-114.5 49q-75 0 -118.5 -47.5t-43.5 -116.5z" />
<glyph unicode="'" horiz-adv-x="301" d="M93 1498h119l-21 -301q-3 -49 -33.5 -54.5t-42.5 -5.5z" />
<glyph unicode="(" horiz-adv-x="877" d="M194 591q0 161 10.5 317t30.5 288t46.5 227t63.5 132q55 55 140 104.5t212 49.5v-69q-87 0 -149.5 -49t-104.5 -90q-37 -37 -62.5 -129.5t-42.5 -220t-26 -277.5t-9 -301q0 -122 6 -240t21 -216.5t41 -174t63 -112.5q43 -43 109.5 -92.5t153.5 -49.5v-67q-127 0 -215 49 t-146 105q-37 37 -63.5 119t-45 191t-26 239t-7.5 267z" />
<glyph unicode=")" horiz-adv-x="871" d="M182 -312q87 0 148 50t104 92q40 40 65 117t42 180.5t23 224t6 249.5q0 148 -9 293t-26 269.5t-43 214t-58 123.5q-43 43 -104 91t-148 48v69q127 0 210 -49.5t141 -104.5q34 -37 61.5 -128t45 -218t28.5 -280t11 -310q0 -139 -7 -274.5t-25.5 -249t-46 -197 t-67.5 -123.5q-58 -58 -141 -106t-210 -48v67z" />
<glyph unicode="*" horiz-adv-x="605" d="M110 1437l165 -58v113q0 40 20 54.5t47 8.5v-176l103 36q35 12 55.5 -1.5t26.5 -40.5l-166 -54l67 -85q23 -26 17.5 -54.5t-29.5 -42.5l-107 145l-66 -91q-21 -29 -47 -30t-48 22l112 136l-109 35q-64 24 -41 83z" />
<glyph unicode="+" horiz-adv-x="908" d="M104 585v106h299v298h103v-298h301v-106h-301v-296h-103v296h-299z" />
<glyph unicode="," horiz-adv-x="605" d="M182 -154q43 3 69.5 19.5t40.5 36.5t18.5 40.5t4.5 39.5h-9q-51 0 -83 32t-32 84q0 51 32 84t83 33q64 0 94.5 -47t30.5 -104q0 -30 -7.5 -76t-33.5 -89.5t-75 -78.5t-133 -45v71z" />
<glyph unicode="-" horiz-adv-x="908" d="M133 585v106h643v-106h-643z" />
<glyph unicode="." horiz-adv-x="605" d="M188 118q0 52 33.5 87t84.5 35q52 0 87 -35t35 -87q0 -51 -35 -84.5t-87 -33.5q-51 0 -84.5 33.5t-33.5 84.5z" />
<glyph unicode="/" horiz-adv-x="1059" d="M133 -34l654 1385q18 40 44.5 57t53.5 17q24 0 46 -10l-656 -1394q-29 -67 -84 -67q-30 0 -58 12z" />
<glyph unicode="0" horiz-adv-x="1272" d="M130 425v521q0 106 41 189t111 140.5t160.5 86.5t190.5 29q98 0 190 -29t162 -86.5t112.5 -139t42.5 -187.5v-518q0 -107 -41 -190.5t-112.5 -140.5t-162 -87.5t-191.5 -30.5q-100 0 -190.5 29t-160.5 86t-111 139t-41 189zM234 425q0 -82 34.5 -146t91 -106.5t127.5 -64 t146 -21.5q79 0 150.5 23t125.5 65.5t87.5 106t33.5 149.5v518q0 81 -33.5 144.5t-89.5 106.5t-127 64t-147 21q-75 0 -147.5 -21t-129 -65.5t-89.5 -108t-33 -144.5v-521z" />
<glyph unicode="1" horiz-adv-x="1272" d="M200 0v107h318q46 0 64.5 19t18.5 62v1046q0 24 -22 9l-243 -176l-64 87l332 237q40 0 60.5 -20t29.5 -43q12 -30 12 -67v-1073q0 -37 21.5 -59t59.5 -22h301v-107h-888z" />
<glyph unicode="2" horiz-adv-x="1272" d="M157 0v55q0 63 6.5 110t23 88.5t44 77.5t69.5 72q128 106 256.5 184t264.5 156q79 43 125 97t46 163q0 70 -32 122t-82.5 88t-114 54t-130.5 18q-63 0 -125.5 -18t-110.5 -52.5t-78 -88t-30 -123.5h-107q0 94 39 167t104.5 121t146 74t161.5 26q85 0 168.5 -26 t148.5 -75.5t104.5 -122.5t39.5 -164q0 -148 -64 -224t-151 -128q-130 -72 -254.5 -147.5t-248.5 -170.5q-90 -70 -107 -172q-9 -54 43 -54h822v-107h-977z" />
<glyph unicode="3" horiz-adv-x="1272" d="M154 425h104q0 -88 33 -152t86.5 -106.5t121.5 -62.5t137 -20q70 0 136.5 21.5t121.5 62.5t86.5 104.5t31.5 149.5q-3 136 -92.5 195t-240.5 59q-40 0 -40 42v34q0 12 9 23.5t31 11.5q134 0 206.5 44.5t72.5 189.5q0 73 -29 123t-75.5 82t-104.5 45.5t-116 13.5 q-142 0 -231.5 -77t-89.5 -205h-106q0 85 31.5 156t89.5 122.5t135.5 80.5t170.5 29q197 0 314 -100t117 -270q0 -87 -30.5 -155t-81.5 -111q-18 -18 0 -34q81 -46 121 -123t46 -173q6 -110 -35 -192t-111 -139t-159.5 -86t-177.5 -29q-90 0 -176.5 29t-154.5 84.5 t-109.5 139t-41.5 193.5z" />
<glyph unicode="4" horiz-adv-x="1272" d="M170 333q0 67 12 103t46 88l564 867h127q-9 -15 -49 -74t-94.5 -145.5t-119.5 -186.5t-129 -198.5t-119.5 -185t-92.5 -141.5q-6 -6 -3 -13t15 -7h503q40 0 40 40v223q0 101 105 101v-364h159v-107h-119q-40 0 -40 -38v-295h-105v333h-700z" />
<glyph unicode="5" horiz-adv-x="1272" d="M151 425h104q0 -85 33 -149t89.5 -106.5t129 -64t147.5 -21.5q76 0 147.5 21.5t128 65.5t89.5 107.5t33 146.5v130q0 78 -34.5 136t-92.5 95.5t-129.5 56t-141.5 18.5q-90 0 -179.5 -33t-150.5 -113q-24 -34 -35 -50.5t-34 -16.5q-18 0 -54.5 11t-36.5 38v515 q0 87 51 133t149 46h727v-106h-727q-46 0 -70.5 -16.5t-24.5 -62.5v-355q0 -12 10 -13.5t16 4.5q81 64 167.5 92.5t191.5 28.5q90 0 180.5 -25.5t163 -75t116 -127.5t43.5 -180v-130q0 -107 -40.5 -190.5t-110 -139t-160.5 -86t-192 -30.5q-100 0 -190.5 30.5t-160 86 t-111 139t-41.5 190.5z" />
<glyph unicode="6" horiz-adv-x="1272" d="M142 422v524q0 109 41.5 190.5t111 139t160.5 86.5t190 29q116 0 227 -40.5t186 -129.5l-83 -73q-60 73 -149 106.5t-178 33.5q-75 0 -147.5 -21t-129 -65.5t-89.5 -108t-33 -147.5v-154q0 -12 10 -17t19 3q154 134 370 134q228 0 365.5 -119.5t137.5 -367.5 q0 -101 -42 -184.5t-111.5 -140.5t-160.5 -89t-192 -32q-100 0 -190.5 29t-160 84.5t-111 139t-41.5 190.5zM249 422q0 -82 33 -146t89.5 -106.5t127.5 -64t146 -21.5q79 0 150.5 23t125.5 65.5t88 106t34 149.5q0 205 -111 292t-284 87q-75 0 -147.5 -21.5t-129 -64 t-89.5 -104.5t-33 -145v-50z" />
<glyph unicode="7" horiz-adv-x="1272" d="M185 1285v106h909q0 -103 -22.5 -184.5t-56.5 -163.5l-396 -1043h-116l472 1240q6 15 -7 30t-31 15h-752z" />
<glyph unicode="8" horiz-adv-x="1272" d="M133 413q0 136 66.5 222t179.5 146q12 6 20.5 21.5t-11.5 36.5q-30 27 -74.5 88.5t-44.5 139.5q0 73 32 133.5t84 102.5t117 65t134 23q70 0 135 -23t118.5 -65t85 -102.5t31.5 -133.5q0 -43 -13 -79t-33 -65t-43 -50.5t-38 -33.5q-12 -9 -14 -24.5t32 -30.5 q109 -48 177.5 -146t68.5 -222q0 -113 -44 -195t-115.5 -134.5t-160.5 -78.5t-184 -26q-97 0 -187.5 24t-162 75.5t-114 133.5t-42.5 198zM240 413q0 -87 33 -150t88 -101t127.5 -56.5t150.5 -18.5q76 0 147.5 18.5t127 58t89 100t33.5 144.5q0 85 -33.5 148t-89 103.5 t-127 60.5t-150.5 20q-72 0 -143 -21.5t-127.5 -62t-91 -101.5t-34.5 -142zM376 1067q0 -52 23 -92.5t60.5 -69.5t84.5 -44.5t92 -15.5q49 0 95.5 15.5t85 44.5t61 69.5t22.5 92.5t-22.5 91t-61 68t-85 44t-95.5 15q-45 0 -92 -15t-84.5 -42.5t-60.5 -68t-23 -92.5z" />
<glyph unicode="9" horiz-adv-x="1272" d="M127 946q0 100 42.5 183t112.5 141t160.5 89.5t190.5 31.5q101 0 191.5 -29t160.5 -85t111 -139t41 -189v-524q0 -110 -41 -192t-111 -139t-160.5 -86t-191.5 -29q-115 0 -225.5 41t-185.5 128l81 74q61 -73 150.5 -107t176.5 -34q79 0 150 23t127 65.5t89.5 106 t33.5 149.5v154q0 12 -10.5 17t-19.5 -5q-153 -134 -370 -134q-227 0 -365 120t-138 369zM237 943q0 -203 110 -291t283 -88q79 0 150 21.5t127 65t89.5 105.5t33.5 144v49q0 81 -33.5 144.5t-89.5 106.5t-127 64t-147 21q-78 0 -149 -21t-126 -65.5t-88 -108t-33 -147.5z " />
<glyph unicode=":" horiz-adv-x="757" d="M258 118q0 52 31.5 85.5t83.5 33.5t85 -33.5t33 -85.5q0 -51 -33 -83t-85 -32t-83.5 32t-31.5 83zM258 919q0 52 31.5 84.5t83.5 32.5t85 -33.5t33 -83.5q0 -52 -33 -83.5t-85 -31.5t-83.5 31.5t-31.5 83.5z" />
<glyph unicode=";" horiz-adv-x="757" d="M249 -154q43 3 69.5 19.5t40.5 36.5t18.5 40.5t4.5 39.5h-9q-52 0 -83.5 32t-31.5 84q0 51 31.5 84t83.5 33q64 0 94 -47t30 -104q0 -30 -7.5 -76t-33 -89.5t-74.5 -78.5t-133 -45v71zM258 919q0 52 31.5 84.5t83.5 32.5t85 -33.5t33 -83.5q0 -52 -33 -83.5t-85 -31.5 t-83.5 31.5t-31.5 83.5z" />
<glyph unicode="&#x3c;" horiz-adv-x="1272" d="M136 673l992 733v-27q0 -37 -1.5 -57.5t-9 -37.5t-24.5 -32t-47 -40l-725 -536l725 -503q30 -21 47 -36.5t24.5 -32.5t9 -37.5t1.5 -54.5v-24z" />
<glyph unicode="=" horiz-adv-x="908" d="M104 482v103h703v-103h-703zM104 706v107h703v-107h-703z" />
<glyph unicode="&#x3e;" horiz-adv-x="1272" d="M139 -12v24q0 34 1.5 54.5t9 37.5t24.5 32t48 37l727 503q-182 134 -364 268.5t-363 267.5q-30 24 -45.5 39.5t-23.5 31t-9.5 36t-1.5 54.5v33l989 -733z" />
<glyph unicode="?" horiz-adv-x="1151" d="M145 1119q6 81 41.5 156.5t92.5 133.5t133 92.5t161 34.5q87 0 163.5 -33t134 -91t91 -133.5t33.5 -162.5q0 -79 -47.5 -172t-174.5 -177q-67 -43 -105 -103t-38 -140v-148h-121v148q0 78 41 170.5t165 169.5q58 34 89.5 66.5t48.5 64.5t21.5 62.5t4.5 58.5 q0 64 -24.5 119.5t-65 96.5t-97 65.5t-119.5 24.5q-64 0 -120 -24.5t-97 -65.5t-67 -96.5t-29 -116.5h-115zM515 -3v167h113v-167h-113z" />
<glyph unicode="@" horiz-adv-x="1817" d="M157 776q0 164 62 306t168.5 250t251.5 168.5t310 60.5q142 0 270.5 -48.5t225.5 -136.5t156.5 -209t59.5 -267q0 -98 -35 -205t-98.5 -197t-154.5 -148t-199 -58q-55 0 -101 26.5t-64 84.5q-48 -43 -113.5 -64t-128.5 -21q-128 0 -194.5 77t-66.5 212q0 100 33.5 206 t94 195t148.5 146.5t198 57.5q60 0 114 -16t91 -59q12 -6 21 -6q18 0 24 15l19 54h102l-217 -633q-18 -49 -18 -95q0 -78 84 -78q85 0 150 56t111 135.5t69 168t23 152.5q0 127 -52 229t-137 173t-194 109t-227 38q-142 0 -266.5 -56.5t-215.5 -152t-143 -221t-52 -267.5 q0 -139 53.5 -262t147.5 -214t218.5 -144.5t263.5 -53.5q78 0 161.5 15.5t159 47.5t141 78.5t110.5 113.5h134q-49 -90 -127.5 -158.5t-172.5 -114t-198.5 -68t-207.5 -22.5q-171 0 -314.5 62.5t-250 171t-167 254.5t-60.5 312zM625 619q0 -70 40.5 -127.5t115.5 -57.5 q79 0 143.5 54.5t109.5 136t69.5 174t24.5 167.5q0 55 -41 101t-101 46q-82 0 -149 -50.5t-114 -126t-72.5 -160.5t-25.5 -157z" />
<glyph unicode="A" horiz-adv-x="1215" d="M27 0l500 1382h106l504 -1382h-119l-176 494q-12 34 -33.5 46t-53.5 12h-410l-203 -552h-115zM400 674q6 -20 25 -20h356l-188 509q-5 12 -13 13q-7 0 -13 -13l-167 -454q-3 -8 -3 -16.5t3 -18.5z" />
<glyph unicode="B" horiz-adv-x="1284" d="M145 0v1224q0 72 50.5 115t122.5 43h222q101 0 192.5 -17t162.5 -57.5t114 -111.5t43 -184q0 -93 -47 -164.5t-123 -116.5h-3q246 -98 246 -355q0 -110 -41 -182.5t-111 -114.5t-159.5 -60.5t-188.5 -18.5h-480zM260 107h365q72 0 141.5 10t124.5 40.5t88 82.5t33 136 q0 151 -97 220t-239 69h-416v-558zM260 842q0 -72 70 -72h315q55 0 107 17t94 48.5t68 77t26 99.5q0 88 -35 139.5t-91 79t-128.5 36.5t-145.5 9h-222q-23 0 -40.5 -12t-17.5 -40v-382z" />
<glyph unicode="C" horiz-adv-x="1284" d="M115 425v536q0 106 42.5 189.5t112 139t163.5 86t195 30.5q100 0 193.5 -30.5t163.5 -86t112.5 -139t42.5 -189.5h-116q0 84 -33 148.5t-89.5 106.5t-127.5 63.5t-146 21.5q-76 0 -149 -21.5t-127.5 -65t-87.5 -107.5t-33 -146v-536q0 -82 33 -146t88.5 -106.5t127.5 -64 t148 -21.5q78 0 149 23t127.5 65.5t89.5 108t33 150.5h113q0 -107 -41 -192t-112.5 -142t-163.5 -87.5t-195 -30.5q-101 0 -193.5 29t-163.5 86t-113.5 139t-42.5 189z" />
<glyph unicode="D" horiz-adv-x="1284" d="M145 0v1382h503q104 0 196.5 -28.5t163.5 -86.5t111.5 -141t40.5 -189v-494q0 -107 -42 -188.5t-113 -139t-163.5 -86.5t-193.5 -29h-503zM260 107h388q76 0 147.5 20.5t128 63.5t89.5 106.5t33 145.5v494q0 84 -33 147.5t-88 106.5t-126 64t-151 21h-388v-1169z" />
<glyph unicode="E" horiz-adv-x="1284" d="M115 425v536q0 106 41 189.5t112 140.5t163.5 86t196.5 29q100 0 193.5 -30.5t163.5 -86t112.5 -139t42.5 -189.5h-113q0 84 -33 148.5t-89.5 106.5t-129 63.5t-147.5 21.5q-76 0 -148 -21.5t-127.5 -65t-88.5 -107.5t-33 -146v-131q0 -66 64 -66h475v-107h-539v-232 q0 -82 33 -146t88.5 -106.5t129 -64t148.5 -21.5q76 0 147 23t127.5 65.5t89.5 108t33 150.5h116q0 -107 -42.5 -192t-112 -142t-163.5 -87.5t-195 -30.5q-100 0 -194 29t-165 86t-113.5 139t-42.5 189z" />
<glyph unicode="F" horiz-adv-x="1166" d="M115 0v961q0 106 41 189.5t112 140.5t163.5 86t196.5 29q100 0 193.5 -30.5t163.5 -86t112.5 -139t42.5 -189.5h-113q0 84 -33 148.5t-89.5 106.5t-129 63.5t-147.5 21.5q-76 0 -148 -21.5t-127.5 -65t-88.5 -107.5t-33 -146v-131q0 -66 64 -66h475v-107h-539v-657h-116z " />
<glyph unicode="G" horiz-adv-x="1284" d="M115 425v536q0 106 42.5 189.5t112 140.5t162 86t196.5 29q100 0 193.5 -30.5t163.5 -86t112.5 -139t42.5 -189.5h-113q0 84 -33 148.5t-89.5 106.5t-129 63.5t-147.5 21.5q-76 0 -148 -21.5t-127.5 -65t-88.5 -107.5t-33 -146v-536q0 -82 33 -146t88.5 -106.5t129 -64 t148.5 -21.5q76 0 147 23t127.5 65.5t89.5 106t33 149.5v151q0 81 -78 83h-284v102h478v-336q0 -107 -42.5 -190.5t-112 -140.5t-163.5 -87.5t-195 -30.5q-100 0 -194 29t-165 86t-113.5 139t-42.5 189z" />
<glyph unicode="H" horiz-adv-x="1345" d="M145 0v1382h115v-549q0 -66 55 -66h728v615h114v-1382h-114v591q0 34 -20 54t-54 20h-709v-665h-115z" />
<glyph unicode="I" horiz-adv-x="448" d="M145 0v1382h115v-1382h-115z" />
<glyph unicode="J" horiz-adv-x="1203" d="M55 419h115q0 -79 30.5 -143t81.5 -108t117.5 -67t143.5 -23q73 0 141 24.5t117.5 68.5t80 106t30.5 142v778q0 82 -79 82h-284v103h475v-963q0 -101 -37.5 -184.5t-103 -140.5t-153.5 -89t-187 -32q-100 0 -190 32t-155 89t-104 140.5t-39 184.5z" />
<glyph unicode="K" horiz-adv-x="1244" d="M148 -3v1385h115v-630q185 161 367.5 316.5t364.5 316.5l72 -84l-445 -395q-6 -6 -6 -15q0 -21 12 -21q93 0 179.5 -27.5t153 -80.5t106.5 -130t40 -175v-460h-115v460q0 76 -30.5 133.5t-82.5 95.5t-117 58t-134 20q-70 0 -135 -20t-117 -59.5t-82.5 -97t-30.5 -133.5 v-457h-115z" />
<glyph unicode="L" horiz-adv-x="1071" d="M145 170v1212h115v-1212q0 -29 7.5 -46t41.5 -17h657v-107h-657q-81 0 -122.5 46.5t-41.5 123.5z" />
<glyph unicode="M" horiz-adv-x="1614" d="M148 0v1209q0 24 6.5 54.5t20 56t35 44t53.5 18.5l483 -1136q9 -21 38 -21q24 0 31 18l495 1139q34 0 56 -18.5t35.5 -44t18.5 -54t5 -53.5v-1212h-112v1116l-480 -1116h-105l-468 1103v-1103h-112z" />
<glyph unicode="N" horiz-adv-x="1371" d="M145 0v1215q0 52 30.5 108t93.5 59l804 -1194v1194h112v-1215q0 -23 -7 -53t-22.5 -55t-38.5 -42t-56 -17l-801 1194v-1194h-115z" />
<glyph unicode="O" horiz-adv-x="1284" d="M115 425v536q0 106 42.5 189.5t112 140.5t162 86t196.5 29q100 0 193.5 -29t165 -86t114 -139t42.5 -189v-532q0 -107 -42.5 -190.5t-112 -140.5t-163.5 -87.5t-195 -30.5q-100 0 -194 29t-165 86t-113.5 139t-42.5 189zM231 425q0 -82 33 -146t88.5 -106.5t129 -64 t148.5 -21.5q76 0 147 23t127.5 65.5t89.5 106t33 149.5v532q0 82 -33 146.5t-89.5 106.5t-129 63.5t-147.5 21.5q-76 0 -148 -21.5t-127.5 -65t-88.5 -107.5t-33 -146v-536z" />
<glyph unicode="P" horiz-adv-x="1223" d="M145 0v1212q0 84 50.5 127t134.5 43h315q88 0 170 -25.5t144 -76t98.5 -123t36.5 -165.5q0 -91 -36.5 -164t-98.5 -123.5t-143.5 -75.5t-170.5 -25h-385v-604h-115zM260 773q0 -64 58 -64h327q64 0 124.5 18.5t106.5 53t75 88t29 123.5q0 69 -29 124t-75 91t-106.5 54 t-124.5 18h-315q-37 0 -53.5 -13.5t-16.5 -53.5v-439z" />
<glyph unicode="Q" horiz-adv-x="1284" d="M115 425v536q0 106 42.5 189.5t112 140.5t162 86t196.5 29q100 0 193.5 -29t165 -86t114 -139t42.5 -189v-535q0 -94 -33.5 -171.5t-91 -133.5t-137 -89.5t-169.5 -45.5q-21 -6 -21 -40q0 -29 23 -49t59.5 -32t80 -18t86.5 -6q37 0 65 1.5t53 4.5v-109q-26 -3 -50.5 -3 h-49.5q-113 0 -187 17.5t-116 49.5t-60.5 77.5t-21.5 103.5q-93 9 -177 41t-146 88t-98.5 133t-36.5 178zM231 425q0 -82 33 -146t88.5 -106.5t129 -64t148.5 -21.5q76 0 147 23t127.5 65.5t89.5 106t33 149.5v532q0 82 -33 146.5t-89.5 106.5t-129 63.5t-147.5 21.5 q-76 0 -148 -21.5t-127.5 -65t-88.5 -107.5t-33 -146v-536z" />
<glyph unicode="R" horiz-adv-x="1269" d="M145 0v1212q0 84 50.5 127t134.5 43h315q88 0 170 -25.5t144 -76t98.5 -121.5t36.5 -164q0 -88 -35 -156.5t-96 -129.5q-11 -12 -11 -24q0 -15 14 -31q61 -58 91.5 -120t30.5 -149v-385h-116v385q0 40 -10 77.5t-31.5 69.5t-53.5 52t-73 20h-544v-604h-115zM260 773 q0 -64 58 -64h327q64 0 124.5 18.5t106.5 54.5t75 89.5t29 123.5q0 69 -29 122.5t-75 89.5t-106.5 54t-124.5 18h-315q-37 0 -53.5 -13.5t-16.5 -53.5v-439z" />
<glyph unicode="S" horiz-adv-x="1284" d="M115 434h116q0 -85 33 -150.5t88.5 -108t127.5 -65.5t148 -23q75 0 146 21.5t127.5 64t89.5 106t33 146.5q0 75 -39 119t-100 65t-129 25.5t-128 4.5q-85 0 -176 9t-165.5 42.5t-123 95.5t-48.5 172q0 106 42.5 189t112 140.5t162 86.5t196.5 29q100 0 192 -29 t163.5 -86.5t112.5 -139t41 -187.5h-113q0 84 -33 148.5t-89.5 106.5t-127.5 63.5t-146 21.5q-76 0 -148 -21.5t-127.5 -65t-88.5 -107.5t-33 -149q0 -79 39 -121t98.5 -63.5t129 -24.5t130.5 -3q87 0 176.5 -9t165.5 -43t123 -97.5t47 -171.5q0 -107 -42.5 -189 t-114 -137.5t-163.5 -84.5t-192 -29q-101 0 -195 30.5t-163.5 88t-112 140.5t-42.5 190z" />
<glyph unicode="T" horiz-adv-x="1090" d="M24 1279v103h1009v-103h-385q-23 0 -41.5 -19.5t-18.5 -44.5v-1215h-111v1212q0 24 -18.5 45.5t-42.5 21.5h-392z" />
<glyph unicode="U" horiz-adv-x="1284" d="M115 425v957h116v-957q0 -82 33 -146t88.5 -106.5t127.5 -64t148 -21.5q78 0 149 23t127.5 65.5t89.5 106t33 149.5v951h113v-951q0 -107 -41 -190.5t-112.5 -140.5t-163.5 -87.5t-195 -30.5q-101 0 -195 29t-163.5 86t-112 139t-42.5 189z" />
<glyph unicode="V" horiz-adv-x="1221" d="M27 1382h115l404 -1101q9 -34 36 -32q26 0 37 32l396 1101h119l-501 -1382h-103z" />
<glyph unicode="W" horiz-adv-x="1796" d="M58 1382h118l318 -1113q3 -9 13.5 -9t13.5 9l324 1022h107l330 -1022q3 -9 14 -9t14 9l312 1113h118l-389 -1382h-105l-340 1058q-3 6 -7.5 6t-7.5 -6l-330 -1058h-110z" />
<glyph unicode="X" horiz-adv-x="1169" d="M24 0l430 628q23 32 23 63.5t-23 63.5l-430 627h137l409 -595l410 595h136l-437 -627q-23 -32 -23 -63.5t23 -63.5l437 -628h-136l-410 585l-409 -585h-137z" />
<glyph unicode="Y" horiz-adv-x="1192" d="M24 1382h137l394 -581q13 -19 26 -19t26 19l396 581h137l-458 -664q-20 -30 -33 -63t-13 -82v-573h-112v573q0 46 -15 83.5t-29 61.5z" />
<glyph unicode="Z" horiz-adv-x="1284" d="M115 0q0 90 21 137.5t70 105.5l806 1033h-897v106h1028q0 -90 -24.5 -142t-66.5 -103l-809 -1030h897v-107h-1025z" />
<glyph unicode="[" horiz-adv-x="811" d="M151 -197v1733q0 73 47.5 123t125.5 50h306v-106h-300q-27 0 -49.5 -12t-22.5 -55v-1733q0 -55 15.5 -66.5t56.5 -11.5h300v-104h-303q-30 0 -60 6t-56 24.5t-43 54.5t-17 97z" />
<glyph unicode="\" horiz-adv-x="1059" d="M148 1385q27 9 49 9q26 0 53 -16t45 -56q17 -40 90 -194q29 -67 75 -164t111 -234t150.5 -316.5t193.5 -413.5q-24 -12 -51 -12q-57 0 -88 64z" />
<glyph unicode="]" horiz-adv-x="811" d="M182 -275h303q40 0 56.5 11.5t16.5 66.5v1733q0 43 -24.5 55t-48.5 12h-300v106l303 -3q73 0 122.5 -48.5t49.5 -121.5v-1733q0 -61 -16 -97t-40.5 -54.5t-56.5 -24.5t-62 -6h-303v104z" />
<glyph unicode="^" horiz-adv-x="1272" d="M145 966l506 668l480 -671h-69t-42.5 6t-30.5 20t-31 41l-307 425q-63 -82 -121 -161q-52 -67 -106 -139.5t-97 -124.5q-21 -24 -35 -37t-30 -20t-43.5 -7h-73.5z" />
<glyph unicode="_" horiz-adv-x="1272" d="M179 0h915v-107h-915v107z" />
<glyph unicode="`" horiz-adv-x="671" d="M191 1412l101 55l162 -230q-23 -17 -59.5 -22.5t-70.5 31.5z" />
<glyph unicode="a" horiz-adv-x="1050" d="M84 358q0 76 30.5 144t85.5 118t126 79t154 29q78 0 143 -27.5t117 -75.5q6 -6 16.5 -4.5t10.5 12.5v104q0 61 -23 103t-61 71t-87.5 42t-101.5 13q-97 0 -165.5 -33t-128.5 -94l-88 76q88 81 176 119.5t203 38.5q76 0 145.5 -21.5t123 -63.5t85 -106t31.5 -145v-737 h-109v58q0 17 -13.5 21.5t-19.5 -1.5q-112 -93 -254 -93q-82 0 -153.5 29t-126.5 80t-85.5 119t-30.5 145zM197 358q0 -55 23 -103.5t60.5 -85t89.5 -58t110 -21.5q57 0 106.5 21.5t87.5 58t61 85t23 103.5t-23 103t-61 83t-88 56.5t-106 21.5q-58 0 -110 -21.5t-89.5 -56.5 t-60.5 -83t-23 -103z" />
<glyph unicode="b" horiz-adv-x="1068" d="M124 321v1061h113v-352q0 -27 26 -27q12 0 15 3q107 67 243 67q72 0 145.5 -21.5t131 -63.5t92.5 -106t35 -145v-413q0 -81 -35 -145t-92.5 -106.5t-129.5 -63.5t-144 -21q-73 0 -145.5 21t-128.5 62t-91 105t-35 145zM237 321q0 -58 26 -101.5t66.5 -72.5t91.5 -43 t103 -14t103.5 14t92.5 44.5t67 74t26 101.5v413q0 61 -26 103t-67 71t-94 42t-105 13t-101.5 -13t-90 -40.5t-66.5 -69.5t-26 -100v-422z" />
<glyph unicode="c" horiz-adv-x="1044" d="M124 321v413q0 84 35 148t91 106t127 63.5t144 21.5q72 0 145.5 -21.5t131 -65t92.5 -107.5t35 -145h-112q0 61 -26 104.5t-67 72.5t-94 42t-105 13t-103 -13t-91.5 -42t-65 -72.5t-24.5 -104.5v-413q0 -58 26 -101.5t66.5 -72.5t91.5 -43t103 -14t103.5 14t92.5 44.5 t67 74t26 104.5h112q0 -81 -35 -145t-92.5 -108t-129.5 -65t-144 -21q-73 0 -145.5 21t-128.5 62t-91 105t-35 145z" />
<glyph unicode="d" horiz-adv-x="1120" d="M124 327v413q0 81 35 145t91 106t128.5 63.5t145.5 21.5q133 0 243 -67q6 -3 14 -3q30 0 32 27v349h112v-1382h-112v30q0 29 -32 31q-5 0 -17 -6h3q-104 -64 -246 -64q-73 0 -144 21.5t-127 63.5t-91 106t-35 145zM237 327q0 -58 24.5 -101.5t65 -74t91.5 -44.5t103 -14 t105 14t94 43t67 72.5t26 101.5v422q0 58 -26 100t-67 69.5t-92.5 40.5t-103.5 13t-103 -13t-91.5 -42t-66.5 -71t-26 -103v-413z" />
<glyph unicode="e" horiz-adv-x="1030" d="M124 321v413q0 81 33.5 143.5t88 106t126 66.5t149.5 23t151.5 -23t128 -65t86.5 -104.5t32 -143.5v-80q0 -69 -49 -108.5t-118 -39.5h-515v-188q0 -58 24.5 -100t65 -71t90 -44.5t104.5 -15.5t108 15.5t94 46t65.5 74t24.5 101.5h112q0 -78 -33.5 -142t-88 -107.5 t-128 -66.5t-154.5 -23q-76 0 -148.5 23t-127 65t-88 104.5t-33.5 140.5zM234 676q0 -66 69 -66h443q67 0 67 66v61q0 58 -24.5 100t-65.5 71t-94 43.5t-108 14.5t-106 -14.5t-92.5 -43.5t-65 -72.5t-23.5 -101.5v-58z" />
<glyph unicode="f" horiz-adv-x="657" d="M30 909v106h149v70q0 142 72.5 219.5t233.5 77.5h140v-106h-140q-109 0 -152.5 -49.5t-43.5 -141.5v-70h251v-106h-213q-24 0 -31 -12t-7 -33v-864h-110v909h-149z" />
<glyph unicode="g" horiz-adv-x="1120" d="M124 321v413q0 81 32 143.5t86.5 106t127.5 66.5t151 23q142 0 246 -64q11 -6 17 -6q24 0 26.5 18t2.5 40h112v-1122q0 -87 -30.5 -149t-82 -102t-121 -59.5t-148.5 -19.5q-106 0 -194.5 33.5t-148.5 102.5l78 70q43 -52 117 -76.5t148 -24.5q110 0 190 50.5t80 174.5v98 q0 21 -26 21q-11 0 -20 -6q-58 -34 -116 -50.5t-127 -16.5q-76 0 -148.5 22.5t-128.5 66.5t-89.5 106.5t-33.5 140.5zM237 321q0 -58 24.5 -100t65 -71t91.5 -44.5t106 -15.5t106.5 14t92.5 43t65.5 71t24.5 97v422q0 58 -24.5 100t-65.5 71t-94 43.5t-108 14.5 t-104.5 -14.5t-90 -43.5t-65 -72.5t-24.5 -101.5v-413z" />
<glyph unicode="h" horiz-adv-x="1078" d="M124 0v1382h113v-352q0 -27 23 -27q12 0 15 3q52 34 115.5 50.5t130.5 16.5q75 0 147 -21.5t127.5 -63.5t89.5 -106t34 -145v-737h-106v737q0 61 -26 103t-67 71t-94 42t-105 13t-101.5 -13t-90 -40.5t-66.5 -69.5t-26 -100v-743h-113z" />
<glyph unicode="i" horiz-adv-x="435" d="M121 1264v118h119v-118h-119zM124 0v1061h113v-1061h-113z" />
<glyph unicode="j" horiz-adv-x="432" d="M-209 -286h139q64 0 102 24.5t59 59.5t27 76.5t6 73.5v1113h113v-1113q0 -161 -81 -250t-226 -89h-139v105zM121 1264v118h119v-118h-119z" />
<glyph unicode="k" horiz-adv-x="1065" d="M124 0v1382h113v-734l584 419l67 -87l-295 -210q-11 -9 -9.5 -24.5t12.5 -21.5q64 -21 117.5 -47t91 -62t60.5 -84.5t23 -114.5v-416h-112v416q0 52 -22.5 91t-61 66.5t-86.5 41t-100 13.5t-100 -13.5t-86.5 -41t-60.5 -67.5t-22 -93v-413h-113z" />
<glyph unicode="l" horiz-adv-x="674" d="M124 339v1043h113v-1043q0 -34 6 -74t27.5 -75.5t59 -59t101.5 -23.5h139v-107h-139q-142 0 -224.5 91t-82.5 248z" />
<glyph unicode="m" horiz-adv-x="1574" d="M98 0v1061h105v-25q0 -18 15.5 -24t21.5 0q93 61 205 61q82 0 156.5 -32t126.5 -92q18 -18 36 0q51 60 126 92t153 32q67 0 130.5 -21.5t113 -63.5t80 -106t30.5 -145v-737h-109v737q0 118 -77 173.5t-168 55.5q-45 0 -88 -13t-76.5 -42t-54 -72.5t-20.5 -104.5v-734 h-113v737q0 118 -77.5 173.5t-168.5 55.5q-90 0 -166 -52.5t-76 -167.5v-746h-105z" />
<glyph unicode="n" horiz-adv-x="1093" d="M124 0v1061h113v-31q0 -18 11.5 -25t26.5 1q110 67 246 67q75 0 147 -21.5t127.5 -63.5t89.5 -106t34 -145v-737h-106v737q0 61 -26 103t-67 71t-94 42t-105 13t-101.5 -13t-90 -40.5t-66.5 -69.5t-26 -100v-743h-113z" />
<glyph unicode="o" horiz-adv-x="1050" d="M124 321v413q0 84 35 148t91 106t127 63.5t144 21.5q72 0 145.5 -21.5t131 -63.5t92.5 -106t35 -145v-413q0 -81 -35 -145t-92.5 -106.5t-129.5 -63.5t-144 -21q-73 0 -145.5 21t-128.5 62t-91 105t-35 145zM237 321q0 -58 26 -101.5t66.5 -72.5t91.5 -43t103 -14 t103.5 14t92.5 44.5t67 74t26 101.5v413q0 61 -26 103t-67 71t-94 42t-105 13t-103 -13t-91.5 -42t-65 -72.5t-24.5 -104.5v-413z" />
<glyph unicode="p" horiz-adv-x="1068" d="M124 -382v1443h113v-31q0 -18 13 -25t28 1h-3q107 64 246 64q75 0 147 -20t127.5 -59t89.5 -101.5t34 -143.5v-425q0 -81 -34 -145t-89.5 -106.5t-127.5 -63.5t-147 -21q-136 0 -246 67q-15 9 -26.5 1.5t-11.5 -26.5v-409h-113zM237 312q0 -57 26 -98t66.5 -68.5 t90 -41.5t101.5 -14t105 14t94 43t67 72.5t26 101.5v413q0 61 -26 103t-67 72.5t-94 43.5t-105 13t-103 -13t-91.5 -42t-65 -71t-24.5 -103v-425z" />
<glyph unicode="q" horiz-adv-x="1123" d="M124 321v413q0 81 35 145t91 106t127 63.5t144 21.5q70 0 130.5 -17t112.5 -47q14 -8 31.5 -2.5t17.5 26.5v31h112v-1443h-112v409q0 17 -16 25.5t-30 -0.5q-110 -67 -243 -67q-73 0 -145.5 21t-128.5 63.5t-91 106.5t-35 145zM237 321q0 -58 26 -101.5t66.5 -72.5 t91.5 -43t103 -14t103.5 14t92.5 41.5t67 70t26 99.5v422q0 61 -26 103t-67 71t-94 42t-105 13t-103 -13t-91.5 -43.5t-65 -72.5t-24.5 -103v-413z" />
<glyph unicode="r" horiz-adv-x="996" d="M124 0v1061h113v-95q0 -17 13 -24.5t25 1.5q52 37 115.5 51.5t130.5 14.5q75 0 147 -21.5t127.5 -65t89.5 -107t34 -145.5h-109q0 61 -26 104.5t-67 72.5t-92.5 42.5t-103.5 13.5t-101.5 -13.5t-90 -41t-66.5 -69.5t-26 -100v-679h-113z" />
<glyph unicode="s" horiz-adv-x="1033" d="M124 327h113q0 -115 88 -176t196 -61q55 0 108 15.5t94 44.5t65.5 71t24.5 100q0 52 -26 81t-68.5 45t-95.5 23t-111 10q-69 2 -139 9.5t-124.5 33.5t-89.5 76.5t-35 134.5q0 81 33.5 143.5t88 106t126 66.5t149.5 23t151.5 -23t129.5 -66.5t89.5 -106t33.5 -143.5h-112 q0 58 -24.5 101.5t-65.5 72.5t-94 43.5t-108 14.5q-110 0 -197 -59t-87 -173q0 -49 24.5 -79t65 -46t91.5 -21.5t109 -8.5q69 -3 141 -12t127.5 -35t92.5 -76t37 -135q0 -78 -33.5 -140.5t-89.5 -104.5t-128.5 -65t-152.5 -23q-78 0 -149.5 23t-126 66.5t-88 107.5 t-33.5 142z" />
<glyph unicode="t" horiz-adv-x="717" d="M15 909v106h152v367h108v-318q0 -24 7 -36.5t36 -12.5h206v-106h-249v-570q0 -90 43 -161t151 -71h144v-107h-144q-157 0 -229.5 100t-72.5 239v570h-152z" />
<glyph unicode="u" horiz-adv-x="1120" d="M124 324v737h113v-737q0 -58 24.5 -101.5t65 -72.5t91.5 -43t103 -14t103.5 14t92.5 41.5t67 69.5t26 100v743h109v-1061h-109v30q0 29 -26 31q-11 0 -17 -6q-104 -67 -246 -67q-73 0 -144 21t-127 63.5t-91 106.5t-35 145z" />
<glyph unicode="v" horiz-adv-x="1044" d="M61 1064h118l303 -836q6 -18 22.5 -17t22.5 17l340 833h122l-434 -1061h-107z" />
<glyph unicode="w" horiz-adv-x="1511" d="M34 1061h111l261 -824q2 -6 12 -6t13 6l257 763h104l263 -760q3 -9 12 -9t12 9l254 821h116l-330 -1061h-107l-260 784q-3 6 -10.5 7t-13.5 -7l-259 -784h-102z" />
<glyph unicode="x" horiz-adv-x="1075" d="M121 0l330 485q18 24 18 45q0 24 -18 46l-330 485h134l297 -433l296 433h135l-329 -479q-18 -27 -18 -52q0 -21 15 -45l332 -485h-135l-296 437l-297 -437h-134z" />
<glyph unicode="y" horiz-adv-x="1062" d="M61 1061h118l312 -852q3 -6 16.5 -6t16.5 6l346 852h119l-523 -1261q-37 -90 -111 -142t-222 -52h-69v105h69q61 0 100 10t63.5 26t41.5 39t29 53l39 94q14 30 22.5 51.5t8.5 38.5t-7.5 36t-21.5 51z" />
<glyph unicode="z" horiz-adv-x="1024" d="M90 0q6 84 27.5 125.5t58.5 86.5l573 743h-659v106h795q0 -69 -21.5 -115t-59.5 -98l-570 -741h651v-107h-795z" />
<glyph unicode="{" horiz-adv-x="999" d="M107 712q5 0 40 18.5t74 43t72.5 56t33.5 58.5q0 272 42 463t97 246q113 112 352 112v-60q-100 0 -166.5 -41t-108.5 -84q-43 -43 -74.5 -213.5t-31.5 -422.5q0 -27 -26 -57t-58 -54.5t-62.5 -43t-35.5 -21.5q14 -9 44.5 -28t59.5 -43.5t50.5 -53.5t21.5 -57 q0 -275 25.5 -469t86.5 -255q43 -43 109 -85t166 -42v-58q-242 0 -352 110q-75 75 -108.5 287.5t-36.5 511.5q0 26 -33 59t-72.5 60t-72.5 45t-36 18z" />
<glyph unicode="|" horiz-adv-x="757" d="M321 -234l3 1773q0 49 24.5 58t59.5 9h29v-1779q0 -46 -20 -53.5t-56 -7.5h-40z" />
<glyph unicode="}" horiz-adv-x="1001" d="M182 -321q101 0 167.5 42t107.5 85q61 61 87 255t29 469q0 26 24.5 57.5t54.5 58.5t57.5 45t33.5 21q-12 9 -42.5 27.5t-59 43t-51.5 51.5t-23 54q0 252 -33.5 422.5t-76.5 213.5t-109.5 84t-165.5 41v60q240 0 351 -112q58 -58 100.5 -246t42.5 -463q0 -27 35 -58.5 t76 -56.5q49 -30 110 -61q-58 -30 -105 -64q-43 -26 -76.5 -58t-33.5 -60q-3 -301 -37.5 -512.5t-111.5 -286.5q-107 -110 -351 -110v58z" />
<glyph unicode="~" horiz-adv-x="1212" d="M148 546q43 79 106.5 147t161.5 68q46 0 98.5 -18.5t107 -41t105.5 -42.5t97 -20q30 0 57.5 18.5t50.5 39.5t43 39.5t37 18.5q18 0 43 -15l36 -28q-43 -79 -107.5 -135t-159.5 -56q-46 0 -98.5 18.5t-107 41.5t-106.5 40.5t-96 17.5q-37 0 -63 -19t-49 -42t-42 -43 t-37 -20t-38 10.5t-39 20.5z" />
<glyph unicode="&#xa1;" horiz-adv-x="544" d="M225 -394v1146h105v-1146h-105zM225 955v176h105v-176h-105z" />
<glyph unicode="&#xa2;" horiz-adv-x="996" d="M101 -406q46 128 86.5 239.5t78.5 218.5q-66 43 -107 108t-41 161v388q0 84 33.5 148.5t87 106.5t121.5 63.5t137 21.5q70 0 131 -22q29 79 47.5 133.5t33.5 88.5q15 40 25 67q34 81 102 81q12 0 37 -6q-43 -109 -79 -209t-70 -196q69 -43 112 -111t43 -166h-106 q0 61 -24.5 103.5t-60.5 69.5q-93 -252 -163.5 -442.5t-121.5 -335.5q40 -12 97 -14q52 0 100 14t86 44.5t62.5 74t24.5 104.5h106q0 -81 -33 -145t-86.5 -108t-121.5 -65t-138 -21q-34 0 -67 6l-66 12l-127 -345q-24 -72 -92 -74h-22.5t-24.5 7zM225 321q0 -58 22 -100.5 t59 -69.5q94 257 164 450.5t121 329.5q-24 6 -47 9t-47 3q-49 0 -98.5 -14t-88 -42.5t-62 -72.5t-23.5 -105v-388z" />
<glyph unicode="&#xa3;" horiz-adv-x="1172" d="M75 642v107h137v197q0 202 114 323.5t310 121.5q116 0 205.5 -43.5t144.5 -123.5l-86 -67q-85 128 -264 128q-151 0 -234.5 -91t-83.5 -248v-128q0 -40 12 -54.5t49 -14.5h288v-107h-349v-399q0 -37 15 -37q12 0 21.5 3t24.5 3q46 0 98.5 -18t107 -41t106.5 -43t96 -20 q30 0 58 18.5t51 40t42.5 39.5t33.5 18q21 0 46 -15l37 -27q-43 -78 -108 -134.5t-160 -56.5q-46 0 -98.5 18t-107 41t-105.5 40.5t-97 17.5t-73.5 -19t-46.5 -42t-36 -43t-35 -20t-38 9.5t-38 21.5q21 37 60.5 97t39.5 158v336q0 40 -9 47t-42 7h-86z" />
<glyph unicode="&#xa4;" horiz-adv-x="1123" d="M110 324l133 133q-79 116 -79 234q0 116 79 237l-133 130l75 82l136 -134q113 79 237 79q118 0 240 -79l133 134l78 -82l-136 -130q79 -115 79 -237q0 -118 -79 -234l136 -133l-78 -81l-133 136q-119 -82 -240 -82q-118 0 -237 82l-136 -136zM275 691q0 -58 23 -109.5 t62.5 -91t89.5 -61t108 -21.5q52 0 100 20t88.5 56.5t65 88.5t24.5 118q0 58 -22 109t-60.5 89.5t-88 60.5t-107.5 22q-121 0 -202 -82.5t-81 -198.5z" />
<glyph unicode="&#xa5;" horiz-adv-x="1136" d="M27 1379h130l395 -581q18 -18 30 -20q6 0 14 7t14 13q97 142 198 290.5t198 290.5h131l-455 -661q-3 -3 -3 -12q0 -18 12 -18h345v-100h-403v-175h403v-101h-403v-312h-106v312h-440v101h440v175h-440v100h382q15 0 16 21q0 6 -3 9z" />
<glyph unicode="&#xa6;" horiz-adv-x="523" d="M212 312h100v-740h-100v740zM212 688v737h100v-737h-100z" />
<glyph unicode="&#xa7;" horiz-adv-x="1136" d="M151 610q0 93 38.5 162.5t102.5 115.5q-43 40 -70.5 92.5t-27.5 122.5q0 78 32 138t85 99t121 58.5t144 19.5q75 0 148.5 -22.5t130.5 -66.5t92.5 -108t35.5 -142h-107q0 58 -27.5 101.5t-69.5 74t-96.5 46t-106.5 15.5t-101.5 -12.5t-87.5 -38t-62.5 -65.5t-24.5 -97 q0 -49 27.5 -88.5t70 -72.5t92.5 -60t95 -55q57 -34 126.5 -70t130.5 -82.5t102.5 -109t41.5 -149.5q0 -93 -38.5 -163.5t-102.5 -116.5q43 -40 70.5 -91t27.5 -123q0 -79 -32 -138t-85 -99t-121.5 -59.5t-143.5 -19.5q-76 0 -149 22.5t-130 67t-92.5 108t-35.5 141.5h106 q0 -57 27.5 -101t71.5 -74t97 -46t105 -16t101.5 13t89.5 38.5t62 65t22 97.5q0 48 -27.5 89t-69.5 72.5t-92.5 59t-94.5 54.5q-58 34 -127.5 70t-130 84.5t-102 110.5t-41.5 148zM258 610q0 -70 62 -132t144 -114t163.5 -91t124.5 -67q58 29 92.5 81t34.5 129 q0 69 -60.5 131.5t-141.5 113.5t-163.5 91t-128.5 66q-58 -26 -92.5 -79.5t-34.5 -128.5z" />
<glyph unicode="&#xa8;" horiz-adv-x="671" d="M73 1342q0 34 22.5 58.5t55.5 24.5q34 0 58.5 -24.5t24.5 -58.5t-24.5 -56t-58.5 -22t-56 22t-22 56zM440 1342q0 34 22.5 58.5t55.5 24.5q34 0 58.5 -24.5t24.5 -58.5t-24.5 -56t-58.5 -22t-56 22t-22 56z" />
<glyph unicode="&#xa9;" horiz-adv-x="1487" d="M27 703q0 164 65 297.5t168.5 226t232.5 144t256 51.5q164 0 296 -62t226 -164t145 -231t51 -262q0 -161 -62.5 -294.5t-162 -229t-228.5 -146.5t-265 -51q-154 0 -286.5 61t-229.5 160.5t-151.5 230t-54.5 269.5zM104 703q0 -130 49.5 -247t136 -206t205 -140.5 t254.5 -51.5t253 49.5t204.5 137.5t137.5 205t50 253q0 133 -51.5 250t-139 205t-204.5 139t-250 51q-136 0 -254.5 -51t-205 -140.5t-136 -206.5t-49.5 -247zM382 700q0 185 100 289.5t276 104.5q231 0 303 -188l-69 -18q-73 145 -237 145q-127 0 -206.5 -86t-79.5 -250 q0 -157 73.5 -243.5t200.5 -86.5q197 0 260 185l76 -22q-76 -231 -330 -230q-167 0 -267 106t-100 294z" />
<glyph unicode="&#xaa;" horiz-adv-x="747" d="M118 983q0 103 70 172t173 69q49 0 94 -20.5t75 -49.5q3 -3 8 -1.5t5 7.5v49q0 73 -53 109t-120 36q-52 0 -97 -22t-67 -68l-67 30q30 66 93 100t138 34q90 0 169.5 -54.5t79.5 -164.5v-457h-76v35q0 12 -6.5 14.5t-9.5 -0.5q-67 -61 -166 -61q-103 0 -173 69.5 t-70 173.5zM194 983q0 -70 50.5 -119t116.5 -49q70 0 121 48.5t51 119.5q0 66 -51 115.5t-121 49.5q-66 0 -116.5 -49.5t-50.5 -115.5z" />
<glyph unicode="&#xab;" horiz-adv-x="1123" d="M161 506q61 85 114 159q46 60 88.5 120t61.5 85q34 40 65 50.5t74 -1.5l-286 -413l280 -428q-37 -11 -70.5 -5.5t-65.5 54.5zM552 506q58 85 113 161q45 64 89 121t61 82q35 43 64.5 53.5t63.5 -4.5l-286 -413l283 -428q-34 -14 -64.5 -7t-62.5 56z" />
<glyph unicode="&#xac;" horiz-adv-x="1181" d="M136 851v115h907v-547h-118v432h-789z" />
<glyph unicode="&#xad;" horiz-adv-x="908" d="M133 585v106h643v-106h-643z" />
<glyph unicode="&#xae;" horiz-adv-x="1487" d="M27 703q0 164 65 297.5t168.5 226t232.5 144t256 51.5q164 0 296 -62t226 -164t145 -231t51 -262q0 -161 -62.5 -294.5t-162 -229t-228.5 -146.5t-265 -51q-154 0 -286.5 61t-229.5 160.5t-151.5 230t-54.5 269.5zM104 703q0 -130 49.5 -247t136 -206t205 -140.5 t254.5 -51.5t253 49.5t204.5 137.5t137.5 205t50 253q0 133 -51.5 250t-139 205t-204.5 139t-250 51q-136 0 -254.5 -51t-205 -140.5t-136 -206.5t-49.5 -247zM445 315v752h252q107 0 170.5 -18.5t97 -46t42 -62t8.5 -67.5q0 -75 -59 -136t-183 -67l34 -28q26 -20 70.5 -69 t97.5 -136l77 -122h-100l-64 116q-67 121 -120 172t-140 51h-101v-339h-82zM527 718h182q217 0 219 146q0 27 -8 53t-32 46t-69.5 33t-121.5 13h-170v-291z" />
<glyph unicode="&#xaf;" horiz-adv-x="917" d="M3 1619v105h916v-105h-916z" />
<glyph unicode="&#xb0;" horiz-adv-x="808" d="M151 1206q0 104 73 176.5t176 72.5q51 0 97 -20t79.5 -53.5t54 -78.5t20.5 -97q0 -49 -19 -94t-54 -78.5t-81 -54.5t-97 -21q-104 0 -176.5 72.5t-72.5 175.5zM228 1209q0 -78 52.5 -127t119.5 -49q72 0 122.5 52t50.5 121q0 70 -52 123t-121 53q-70 0 -121 -51.5 t-51 -121.5z" />
<glyph unicode="&#xb1;" horiz-adv-x="908" d="M104 9v106h703v-106h-703zM104 585v106h299v298h103v-298h301v-106h-301v-296h-103v296h-299z" />
<glyph unicode="&#xb2;" horiz-adv-x="671" d="M84 715v77q0 60 30.5 102.5t75 75.5t97 60.5t97 55t74.5 59.5t30 73q0 61 -51.5 94t-109.5 33q-61 0 -110.5 -34.5t-49.5 -104.5h-69q0 107 71 163t158 56t160.5 -56t73.5 -151q0 -75 -33.5 -110t-76.5 -62q-40 -26 -91 -57t-96.5 -63t-76 -64t-30.5 -64q0 -6 10 -6h415 v-77h-498z" />
<glyph unicode="&#xb3;" horiz-adv-x="671" d="M61 958h72q0 -88 59.5 -131t128.5 -43q64 0 124.5 40t57.5 122q-3 60 -26 84q-24 24 -53.5 32t-81.5 8q-30 0 -30 33v16q0 12 7.5 22t22.5 10q61 0 98 18.5t37 88.5t-50.5 98.5t-108.5 28.5q-69 0 -113 -40.5t-44 -107.5h-74q0 101 65.5 161t165.5 60q107 0 170.5 -55 t63.5 -145q0 -93 -64 -142q24 -12 42 -31q26 -27 37.5 -60t14.5 -76q3 -58 -19.5 -103t-61 -77t-85 -47.5t-95.5 -15.5t-95.5 17t-82.5 49t-59 78.5t-23 107.5z" />
<glyph unicode="&#xb4;" horiz-adv-x="671" d="M228 1237l163 230l100 -55l-133 -166q-34 -37 -70 -32.5t-60 23.5z" />
<glyph unicode="&#xb5;" horiz-adv-x="1120" d="M124 -397v1458h113v-737q0 -112 88 -171.5t196 -59.5q52 0 103.5 14t92.5 41.5t67 69.5t26 100v743h109v-1061h-109v30q0 17 -16 25.5t-30 -0.5h3q-104 -67 -246 -67q-78 0 -152 23t-132 70v-478h-113z" />
<glyph unicode="&#xb6;" horiz-adv-x="1087" d="M27 1006q0 79 21.5 148.5t73 124t136 86.5t211.5 32h598v-121h-139v-1676h-121v1676h-267v-1676h-115v1028q-179 0 -288.5 102.5t-109.5 275.5z" />
<glyph unicode="&#xb7;" horiz-adv-x="535" d="M151 697q0 52 32 85t83 33q52 0 85.5 -33t33.5 -85t-33.5 -83.5t-85.5 -31.5q-51 0 -83 31.5t-32 83.5z" />
<glyph unicode="&#xb8;" horiz-adv-x="602" d="M139 -297l67 63l31 -32q21 -21 44 -23q24 0 42.5 18.5t18.5 42.5t-15 42.5t-46 18.5h-44v167h90v-81q46 -15 76.5 -55t30.5 -92q0 -61 -46 -106t-107 -45q-63 0 -111 49z" />
<glyph unicode="&#xb9;" horiz-adv-x="683" d="M133 715v77h173q34 0 33 32v527l-130 -93l-42 61l182 130q24 0 36 -12t18 -28q8 -18 10 -39v-546q0 -34 30 -32h167v-77h-477z" />
<glyph unicode="&#xba;" horiz-adv-x="750" d="M112 946v275q0 115 78.5 174.5t182.5 59.5q101 0 180.5 -59.5t79.5 -171.5v-275q0 -110 -78 -172t-182 -62t-182.5 59t-78.5 172zM179 952q0 -79 59 -122t135 -43q75 0 133 44.5t58 123.5v263q0 78 -59.5 121t-131.5 43q-76 0 -135 -42t-59 -125v-263z" />
<glyph unicode="&#xbb;" horiz-adv-x="1142" d="M194 78l283 428l-283 409q37 14 64.5 5.5t59.5 -50.5q24 -26 67 -87.5t87 -122.5q55 -72 113 -154q-64 -90 -119 -170q-46 -67 -88 -127.5t-57 -81.5q-34 -49 -63.5 -56t-63.5 7zM573 915q75 29 136 -45q24 -26 68 -87.5t90 -122.5q54 -72 108 -154q-63 -87 -117 -167 q-45 -67 -87.5 -127.5t-58.5 -84.5q-34 -46 -66.5 -53t-69.5 4l279 428z" />
<glyph unicode="&#xbc;" horiz-adv-x="1715" d="M133 715v77h173q34 0 33 32v527l-130 -93l-42 61l182 130q24 0 36 -12t18 -28q8 -15 10 -39v-546q0 -34 30 -32h167v-77h-477zM303 -58l1070 1507h94l-1070 -1507h-94zM1052 139q0 43 9 66t27 50q69 112 148.5 233.5t151.5 232.5h88q-6 -9 -32 -48.5t-61 -92.5 t-74 -112.5t-72.5 -112t-58 -91.5t-30.5 -49h258q18 0 19 22v112q0 61 76 59v-193h81v-76h-64q-17 0 -17 -18v-151h-76v169h-373z" />
<glyph unicode="&#xbd;" horiz-adv-x="1715" d="M133 715v77h173q34 0 33 32v527l-130 -93l-42 61l182 130q24 0 36 -12t18 -28q8 -15 10 -39v-546q0 -34 30 -32h167v-77h-477zM295 -58l1070 1507h99l-1070 -1507h-99zM1091 37q0 58 30 100t74.5 75.5t97 60.5t97 56t75 61t30.5 73q0 61 -52 94.5t-110 33.5 q-60 0 -109.5 -35t-49.5 -105h-71q0 107 71.5 163t158.5 56q88 0 161 -56t73 -151q0 -75 -33 -110t-76 -61q-40 -27 -91 -58t-97 -63t-76.5 -64t-30.5 -64q0 -6 11 -6h414v-77h-497v77z" />
<glyph unicode="&#xbe;" horiz-adv-x="1715" d="M90 958h74q0 -88 58.5 -131t129.5 -43q64 0 124 40t57 122q-3 60 -27 84t-52.5 32t-80.5 8q-30 0 -31 33v16q0 12 8 22t23 10q61 0 97 18.5t36 88.5t-50 98.5t-107 28.5q-69 0 -113.5 -40.5t-44.5 -107.5h-73q0 101 65.5 161t165.5 60q107 0 170 -55t63 -145 q0 -93 -64 -142q24 -12 43 -31q27 -27 38 -60t14 -76q3 -58 -20 -103t-61 -77t-85 -47.5t-95 -15.5q-49 0 -96 17t-83.5 49t-59.5 78.5t-23 107.5zM303 -58h94l1070 1507h-97zM1079 139q0 43 9 66t28 50l299 466h89q-6 -9 -32 -48.5t-61 -92.5t-74 -112.5t-73 -112 t-57.5 -91.5t-29.5 -49h257q18 0 18 22v112q0 61 75 59v-193h82v-76h-64q-18 0 -18 -18v-151h-75v169h-373z" />
<glyph unicode="&#xbf;" horiz-adv-x="1218" d="M145 -107q0 79 47.5 171.5t174.5 178.5q67 43 104.5 103t37.5 139v148h121v-148q0 -40 -8.5 -83.5t-31.5 -88t-62.5 -88t-102.5 -80.5q-58 -34 -90 -65t-49 -64.5t-21.5 -63.5t-4.5 -59q0 -63 24.5 -118.5t65.5 -97t97 -66t120 -24.5q63 0 119.5 24.5t97 66t66.5 97 t29 115.5h116q-3 -81 -39.5 -156.5t-94 -133t-134 -92.5t-160.5 -35q-85 0 -162.5 33.5t-135 91t-91 133t-33.5 162.5zM512 845v167h113v-167h-113z" />
<glyph unicode="&#xc0;" horiz-adv-x="1215" d="M27 0l500 1382h106l504 -1382h-119l-176 494q-12 34 -33.5 46t-53.5 12h-410l-203 -552h-115zM388 1701l101 55l162 -230q-23 -17 -59.5 -22.5t-70.5 31.5zM400 674q6 -20 25 -20h356l-188 509q-5 12 -12.5 13t-13.5 -13l-167 -454q-6 -15 0 -35z" />
<glyph unicode="&#xc1;" horiz-adv-x="1215" d="M27 0l500 1382h106l504 -1382h-119l-176 494q-12 34 -33.5 46t-53.5 12h-410l-203 -552h-115zM400 674q6 -20 25 -20h356l-188 509q-5 12 -12.5 13t-13.5 -13l-167 -454q-6 -15 0 -35zM494 1526l163 230l100 -55l-133 -166q-34 -37 -70 -32.5t-60 23.5z" />
<glyph unicode="&#xc2;" horiz-adv-x="1215" d="M27 0l500 1382h106l504 -1382h-119l-176 494q-12 34 -33.5 46t-53.5 12h-410l-203 -552h-115zM357 1499l228 280l217 -280h-53t-32.5 6.5t-26 17t-27.5 31.5l-78 103l-82 -106q-17 -21 -28 -31.5t-24.5 -15.5t-35 -5h-58.5zM400 674q6 -20 25 -20h356l-188 509 q-5 12 -12.5 13t-13.5 -13l-167 -454q-6 -15 0 -35z" />
<glyph unicode="&#xc3;" horiz-adv-x="1215" d="M27 0l500 1382h106l504 -1382h-119l-176 494q-12 34 -33.5 46t-53.5 12h-410l-203 -552h-115zM296 1521q34 64 79 112t106 48q30 0 56.5 -12t48.5 -29t45 -28.5t44 -11.5q24 0 39.5 11.5t28 25.5t24 26t29.5 12t34 -12l27 -21q-34 -63 -75 -101.5t-104 -38.5 q-30 0 -54.5 14t-47 29l-43.5 29t-49 14q-27 0 -42.5 -15.5t-27 -32t-25 -32t-32.5 -15.5q-15 0 -30 9.5t-31 18.5zM400 674q6 -20 25 -20h356l-188 509q-5 12 -12.5 13t-13.5 -13l-167 -454q-6 -15 0 -35z" />
<glyph unicode="&#xc4;" horiz-adv-x="1215" d="M27 0l500 1382h106l504 -1382h-119l-176 494q-12 34 -33.5 46t-53.5 12h-410l-203 -552h-115zM313 1614q0 34 22.5 58.5t55.5 24.5q34 0 58.5 -24.5t24.5 -58.5t-24.5 -56t-58.5 -22t-56 22t-22 56zM400 674q6 -20 25 -20h356l-188 509q-5 12 -12.5 13t-13.5 -13 l-167 -454q-6 -15 0 -35zM680 1614q0 34 22.5 58.5t55.5 24.5q34 0 58.5 -24.5t24.5 -58.5t-24.5 -56t-58.5 -22t-56 22t-22 56z" />
<glyph unicode="&#xc5;" horiz-adv-x="1215" d="M27 0l500 1382h106l504 -1382h-119l-176 494q-12 34 -33.5 46t-53.5 12h-410l-203 -552h-115zM376 1649q0 84 59 142t138 58q78 0 141 -58t63 -142q0 -78 -62 -139t-142 -61q-76 0 -136.5 58t-60.5 142zM400 674q6 -20 25 -20h356l-188 509q-5 12 -12.5 13t-13.5 -13 l-167 -454q-6 -15 0 -35zM459 1652q0 -61 34.5 -91t79.5 -30q51 0 86 33t35 85t-35 85t-86 33q-52 0 -83 -31.5t-31 -83.5z" />
<glyph unicode="&#xc6;" horiz-adv-x="2111" d="M75 0l501 1382h882q100 0 192.5 -30t164 -86.5t112 -139.5t40.5 -189h-110q0 84 -34.5 147.5t-90 106.5t-127.5 64t-147 21h-336q-24 0 -42.5 -19.5t-18.5 -44.5v-382q0 -66 64 -66h472v-107h-536v-232q0 -82 33.5 -146t89.5 -106.5t128.5 -64t148.5 -21.5q75 0 147 23 t127.5 65.5t88.5 108t33 150.5h113q0 -107 -41 -192t-112 -142t-163.5 -87.5t-192.5 -30.5q-91 0 -183.5 30.5t-165.5 84.5t-118 130t-45 164v81q0 34 -20 57t-53 23h-482l-200 -552h-119zM443 682q0 -9 7 -18.5t32 -9.5h470v622h-240q-24 0 -38 -9t-23 -21q-12 -12 -15 -31 l-185 -506q-3 -6 -5.5 -13.5t-2.5 -13.5z" />
<glyph unicode="&#xc7;" horiz-adv-x="1284" d="M115 425v536q0 106 42.5 189.5t112 139t163.5 86t195 30.5q100 0 193.5 -30.5t163.5 -86t112.5 -139t42.5 -189.5h-116q0 84 -33 148.5t-89.5 106.5t-127.5 63.5t-146 21.5q-76 0 -149 -21.5t-127.5 -65t-87.5 -107.5t-33 -146v-536q0 -82 33 -146t88.5 -106.5t127.5 -64 t148 -21.5q78 0 149 23t127.5 65.5t89.5 108t33 150.5h113q0 -101 -36.5 -181t-100 -137.5t-148.5 -91t-179 -39.5v-66h-3q49 -15 80 -55t31 -92q0 -61 -46.5 -106t-109.5 -45q-35 0 -65 12t-51 37q-6 6 -15 16.5t-15 16.5l70 66l33 -35q20 -21 43 -23q23 0 40 18.5t17 42.5 t-15.5 42.5t-41.5 18.5h-49v152q-91 6 -176 39.5t-148.5 89.5t-101.5 134.5t-38 176.5z" />
<glyph unicode="&#xc8;" horiz-adv-x="1284" d="M115 425v536q0 106 41 189.5t112 140.5t163.5 86t196.5 29q100 0 193.5 -30.5t163.5 -86t112.5 -139t42.5 -189.5h-113q0 84 -33 148.5t-89.5 106.5t-129 63.5t-147.5 21.5q-76 0 -148 -21.5t-127.5 -65t-88.5 -107.5t-33 -146v-131q0 -66 64 -66h475v-107h-539v-232 q0 -82 33 -146t88.5 -106.5t129 -64t148.5 -21.5q76 0 147 23t127.5 65.5t89.5 108t33 150.5h116q0 -107 -42.5 -192t-112 -142t-163.5 -87.5t-195 -30.5q-100 0 -194 29t-165 86t-113.5 139t-42.5 189zM434 1701l101 55l162 -230q-23 -17 -59.5 -22.5t-70.5 31.5z" />
<glyph unicode="&#xc9;" horiz-adv-x="1284" d="M115 425v536q0 106 41 189.5t112 140.5t163.5 86t196.5 29q100 0 193.5 -30.5t163.5 -86t112.5 -139t42.5 -189.5h-113q0 84 -33 148.5t-89.5 106.5t-129 63.5t-147.5 21.5q-76 0 -148 -21.5t-127.5 -65t-88.5 -107.5t-33 -146v-131q0 -66 64 -66h475v-107h-539v-232 q0 -82 33 -146t88.5 -106.5t129 -64t148.5 -21.5q76 0 147 23t127.5 65.5t89.5 108t33 150.5h116q0 -107 -42.5 -192t-112 -142t-163.5 -87.5t-195 -30.5q-100 0 -194 29t-165 86t-113.5 139t-42.5 189zM531 1526l163 230l100 -55l-133 -166q-34 -37 -70 -32.5t-60 23.5z " />
<glyph unicode="&#xca;" horiz-adv-x="1284" d="M115 425v536q0 106 41 189.5t112 140.5t163.5 86t196.5 29q100 0 193.5 -30.5t163.5 -86t112.5 -139t42.5 -189.5h-113q0 84 -33 148.5t-89.5 106.5t-129 63.5t-147.5 21.5q-76 0 -148 -21.5t-127.5 -65t-88.5 -107.5t-33 -146v-131q0 -66 64 -66h475v-107h-539v-232 q0 -82 33 -146t88.5 -106.5t129 -64t148.5 -21.5q76 0 147 23t127.5 65.5t89.5 108t33 150.5h116q0 -107 -42.5 -192t-112 -142t-163.5 -87.5t-195 -30.5q-100 0 -194 29t-165 86t-113.5 139t-42.5 189zM411 1499l228 280l217 -280h-53t-32.5 6.5t-26 17t-27.5 31.5l-78 103 l-82 -106q-17 -21 -28 -31.5t-24.5 -15.5t-35 -5h-58.5z" />
<glyph unicode="&#xcb;" horiz-adv-x="1284" d="M115 425v536q0 106 41 189.5t112 140.5t163.5 86t196.5 29q100 0 193.5 -30.5t163.5 -86t112.5 -139t42.5 -189.5h-113q0 84 -33 148.5t-89.5 106.5t-129 63.5t-147.5 21.5q-76 0 -148 -21.5t-127.5 -65t-88.5 -107.5t-33 -146v-131q0 -66 64 -66h475v-107h-539v-232 q0 -82 33 -146t88.5 -106.5t129 -64t148.5 -21.5q76 0 147 23t127.5 65.5t89.5 108t33 150.5h116q0 -107 -42.5 -192t-112 -142t-163.5 -87.5t-195 -30.5q-100 0 -194 29t-165 86t-113.5 139t-42.5 189zM362 1645q0 34 22.5 58.5t55.5 24.5q34 0 58.5 -24.5t24.5 -58.5 t-24.5 -56t-58.5 -22t-56 22t-22 56zM729 1645q0 34 22.5 58.5t55.5 24.5q34 0 58.5 -24.5t24.5 -58.5t-24.5 -56t-58.5 -22t-56 22t-22 56z" />
<glyph unicode="&#xcc;" horiz-adv-x="445" d="M30 1701l101 55l162 -230q-23 -17 -59.5 -22.5t-70.5 31.5zM145 0v1382h115v-1382h-115z" />
<glyph unicode="&#xcd;" horiz-adv-x="445" d="M135 1526l163 230l100 -55l-133 -166q-34 -37 -70 -32.5t-60 23.5zM145 0v1382h115v-1382h-115z" />
<glyph unicode="&#xce;" horiz-adv-x="445" d="M0 1499l228 280l217 -280h-53t-32.5 6.5t-26 17t-27.5 31.5l-78 103l-82 -106q-17 -21 -28 -31.5t-24.5 -15.5t-35 -5h-58.5zM145 0v1382h115v-1382h-115z" />
<glyph unicode="&#xcf;" horiz-adv-x="445" d="M-54 1645q0 34 22.5 58.5t55.5 24.5q34 0 58.5 -24.5t24.5 -58.5t-24.5 -56t-58.5 -22t-56 22t-22 56zM145 0v1382h115v-1382h-115zM313 1645q0 34 22.5 58.5t55.5 24.5q34 0 58.5 -24.5t24.5 -58.5t-24.5 -56t-58.5 -22t-56 22t-22 56z" />
<glyph unicode="&#xd0;" horiz-adv-x="1466" d="M55 660v107h160v615h503q100 0 192.5 -28.5t164 -86.5t113.5 -141t42 -189v-494q0 -107 -43.5 -188.5t-115 -139t-164 -86.5t-189.5 -29h-503v660h-160zM330 107h388q75 0 147 20.5t128 63.5t89.5 106.5t33.5 145.5v494q0 84 -33.5 147.5t-88 106.5t-125.5 64t-151 21 h-388v-509h388v-107h-388v-553z" />
<glyph unicode="&#xd1;" horiz-adv-x="1371" d="M145 0v1215q0 52 30.5 108t93.5 59l804 -1194v1194h112v-1215q0 -23 -7 -53t-22.5 -55t-38.5 -42t-56 -17l-801 1194v-1194h-115zM400 1521q34 64 79 112t106 48q30 0 56.5 -12t48.5 -29t45 -28.5t44 -11.5q24 0 39.5 11.5t28 25.5t24 26t29.5 12t34 -12l27 -21 q-34 -63 -75 -101.5t-104 -38.5q-30 0 -54.5 14t-47 29l-43.5 29t-49 14q-27 0 -42.5 -15.5t-27 -32t-25 -32t-32.5 -15.5q-15 0 -30 9.5t-31 18.5z" />
<glyph unicode="&#xd2;" horiz-adv-x="1284" d="M115 425v536q0 106 42.5 189.5t112 140.5t162 86t196.5 29q100 0 193.5 -29t165 -86t114 -139t42.5 -189v-532q0 -107 -42.5 -190.5t-112 -140.5t-163.5 -87.5t-195 -30.5q-100 0 -194 29t-165 86t-113.5 139t-42.5 189zM231 425q0 -82 33 -146t88.5 -106.5t129 -64 t148.5 -21.5q76 0 147 23t127.5 65.5t89.5 106t33 149.5v532q0 82 -33 146.5t-89.5 106.5t-129 63.5t-147.5 21.5q-76 0 -148 -21.5t-127.5 -65t-88.5 -107.5t-33 -146v-536zM524 1701l101 55l162 -230q-23 -17 -59.5 -22.5t-70.5 31.5z" />
<glyph unicode="&#xd3;" horiz-adv-x="1284" d="M115 425v536q0 106 42.5 189.5t112 140.5t162 86t196.5 29q100 0 193.5 -29t165 -86t114 -139t42.5 -189v-532q0 -107 -42.5 -190.5t-112 -140.5t-163.5 -87.5t-195 -30.5q-100 0 -194 29t-165 86t-113.5 139t-42.5 189zM231 425q0 -82 33 -146t88.5 -106.5t129 -64 t148.5 -21.5q76 0 147 23t127.5 65.5t89.5 106t33 149.5v532q0 82 -33 146.5t-89.5 106.5t-129 63.5t-147.5 21.5q-76 0 -148 -21.5t-127.5 -65t-88.5 -107.5t-33 -146v-536zM613 1526l163 230l100 -55l-133 -166q-34 -37 -70 -32.5t-60 23.5z" />
<glyph unicode="&#xd4;" horiz-adv-x="1284" d="M115 425v536q0 106 42.5 189.5t112 140.5t162 86t196.5 29q100 0 193.5 -29t165 -86t114 -139t42.5 -189v-532q0 -107 -42.5 -190.5t-112 -140.5t-163.5 -87.5t-195 -30.5q-100 0 -194 29t-165 86t-113.5 139t-42.5 189zM231 425q0 -82 33 -146t88.5 -106.5t129 -64 t148.5 -21.5q76 0 147 23t127.5 65.5t89.5 106t33 149.5v532q0 82 -33 146.5t-89.5 106.5t-129 63.5t-147.5 21.5q-76 0 -148 -21.5t-127.5 -65t-88.5 -107.5t-33 -146v-536zM484 1499l228 280l217 -280h-53t-32.5 6.5t-26 17t-27.5 31.5l-78 103l-82 -106 q-17 -21 -28 -31.5t-24.5 -15.5t-35 -5h-58.5z" />
<glyph unicode="&#xd5;" horiz-adv-x="1284" d="M115 425v536q0 106 42.5 189.5t112 140.5t162 86t196.5 29q100 0 193.5 -29t165 -86t114 -139t42.5 -189v-532q0 -107 -42.5 -190.5t-112 -140.5t-163.5 -87.5t-195 -30.5q-100 0 -194 29t-165 86t-113.5 139t-42.5 189zM231 425q0 -82 33 -146t88.5 -106.5t129 -64 t148.5 -21.5q76 0 147 23t127.5 65.5t89.5 106t33 149.5v532q0 82 -33 146.5t-89.5 106.5t-129 63.5t-147.5 21.5q-76 0 -148 -21.5t-127.5 -65t-88.5 -107.5t-33 -146v-536zM423 1521q34 64 79 112t106 48q30 0 56.5 -12t48.5 -29t45 -28.5t44 -11.5q24 0 39.5 11.5 t28 25.5t24 26t29.5 12t34 -12l27 -21q-34 -63 -75 -101.5t-104 -38.5q-30 0 -54.5 14t-47 29l-43.5 29t-49 14q-27 0 -42.5 -15.5t-27 -32t-25 -32t-32.5 -15.5q-15 0 -30 9.5t-31 18.5z" />
<glyph unicode="&#xd6;" horiz-adv-x="1284" d="M115 425v536q0 106 42.5 189.5t112 140.5t162 86t196.5 29q100 0 193.5 -29t165 -86t114 -139t42.5 -189v-532q0 -107 -42.5 -190.5t-112 -140.5t-163.5 -87.5t-195 -30.5q-100 0 -194 29t-165 86t-113.5 139t-42.5 189zM231 425q0 -82 33 -146t88.5 -106.5t129 -64 t148.5 -21.5q76 0 147 23t127.5 65.5t89.5 106t33 149.5v532q0 82 -33 146.5t-89.5 106.5t-129 63.5t-147.5 21.5q-76 0 -148 -21.5t-127.5 -65t-88.5 -107.5t-33 -146v-536zM434 1645q0 34 22.5 58.5t55.5 24.5q34 0 58.5 -24.5t24.5 -58.5t-24.5 -56t-58.5 -22t-56 22 t-22 56zM801 1645q0 34 22.5 58.5t55.5 24.5q34 0 58.5 -24.5t24.5 -58.5t-24.5 -56t-58.5 -22t-56 22t-22 56z" />
<glyph unicode="&#xd7;" horiz-adv-x="929" d="M179 437l212 208l-212 213l76 76l211 -213l210 210l76 -73l-209 -213l212 -208l-79 -76l-213 209l-211 -209z" />
<glyph unicode="&#xd8;" horiz-adv-x="1284" d="M93 0l107 176q-37 52 -59.5 114t-22.5 135v536q0 106 42.5 189.5t112 140.5t162 86t195.5 29q64 0 133.5 -18t127.5 -43q9 18 24.5 42.5t24.5 43.5q18 34 38 44.5t43 10.5q27 0 67 -19h3q-12 -21 -24 -39.5t-21 -36.5q-14 -23 -28.5 -49t-28.5 -51q69 -58 113 -141 t44 -187v-532q0 -107 -42.5 -190.5t-112 -140.5t-163.5 -87.5t-195 -30.5q-97 0 -189 29t-163 79q-29 -52 -52 -80t-62 -28q-37 0 -74 18zM234 425q0 -43 7.5 -76.5t21.5 -62.5l573 969h3q-46 24 -100 35t-109 11q-75 0 -146 -21.5t-127.5 -65t-89.5 -107.5t-33 -146v-536z M336 188q58 -49 137 -75t160 -26q76 0 147 23t127 65.5t89.5 106t33.5 149.5v532q0 148 -96 231z" />
<glyph unicode="&#xd9;" horiz-adv-x="1272" d="M115 425v957h116v-957q0 -82 33 -146t88.5 -106.5t127.5 -64t148 -21.5q78 0 149 23t127.5 65.5t89.5 106t33 149.5v951h113v-951q0 -107 -41 -190.5t-112.5 -140.5t-163.5 -87.5t-195 -30.5q-101 0 -195 29t-163.5 86t-112 139t-42.5 189zM431 1701l101 55l162 -230 q-23 -17 -59.5 -22.5t-70.5 31.5z" />
<glyph unicode="&#xda;" horiz-adv-x="1272" d="M115 425v957h116v-957q0 -82 33 -146t88.5 -106.5t127.5 -64t148 -21.5q78 0 149 23t127.5 65.5t89.5 106t33 149.5v951h113v-951q0 -107 -41 -190.5t-112.5 -140.5t-163.5 -87.5t-195 -30.5q-101 0 -195 29t-163.5 86t-112 139t-42.5 189zM520 1526l163 230l100 -55 l-133 -166q-34 -37 -70 -32.5t-60 23.5z" />
<glyph unicode="&#xdb;" horiz-adv-x="1272" d="M115 425v957h116v-957q0 -82 33 -146t88.5 -106.5t127.5 -64t148 -21.5q78 0 149 23t127.5 65.5t89.5 106t33 149.5v951h113v-951q0 -107 -41 -190.5t-112.5 -140.5t-163.5 -87.5t-195 -30.5q-101 0 -195 29t-163.5 86t-112 139t-42.5 189zM403 1499l228 280l217 -280 h-53t-32.5 6.5t-26 17t-27.5 31.5l-78 103l-82 -106q-17 -21 -28 -31.5t-24.5 -15.5t-35 -5h-58.5z" />
<glyph unicode="&#xdc;" horiz-adv-x="1272" d="M115 425v957h116v-957q0 -82 33 -146t88.5 -106.5t127.5 -64t148 -21.5q78 0 149 23t127.5 65.5t89.5 106t33 149.5v951h113v-951q0 -107 -41 -190.5t-112.5 -140.5t-163.5 -87.5t-195 -30.5q-101 0 -195 29t-163.5 86t-112 139t-42.5 189zM351 1631q0 34 22.5 58.5 t55.5 24.5q34 0 58.5 -24.5t24.5 -58.5t-24.5 -56t-58.5 -22t-56 22t-22 56zM718 1631q0 34 22.5 58.5t55.5 24.5q34 0 58.5 -24.5t24.5 -58.5t-24.5 -56t-58.5 -22t-56 22t-22 56z" />
<glyph unicode="&#xdd;" horiz-adv-x="1192" d="M24 1385h137l394 -581q27 -37 52 0l396 581h137l-458 -664q-20 -30 -33 -63t-13 -82v-573h-112v573q0 46 -15 83.5t-29 61.5zM494 1526l163 230l100 -55l-133 -166q-34 -37 -70 -32.5t-60 23.5z" />
<glyph unicode="&#xde;" horiz-adv-x="1386" d="M215 0v1406h112v-296h385q87 0 169 -26t144.5 -76t98.5 -121.5t36 -165.5q0 -91 -36 -162t-98.5 -119.5t-143.5 -74.5t-170 -26h-194t-194 -3h3v-336h-112zM327 506q0 -63 58 -63h327q64 0 124.5 18.5t106.5 53t74.5 85.5t28.5 121q0 69 -28.5 122.5t-74.5 89.5 t-106.5 54.5t-124.5 18.5h-315q-37 0 -53.5 -13t-16.5 -53v-434z" />
<glyph unicode="&#xdf;" horiz-adv-x="1232" d="M148 0v1036q0 157 80.5 248.5t216.5 91.5q267 0 350 -127q23 -40 23 -98q0 -69 -28.5 -137t-58.5 -120q-3 -6 -6.5 -12t-6.5 -12q-9 -23 -16.5 -47.5t-7.5 -41.5q0 -51 46.5 -98t117.5 -98q40 -27 81 -59t72.5 -71t52.5 -86.5t21 -105.5q0 -136 -98.5 -214.5 t-234.5 -78.5q-64 0 -121.5 19.5t-103 57t-71 92.5t-25.5 121h115q0 -97 63.5 -141t142.5 -44q81 0 149 46t68 142q0 76 -55.5 130.5t-126.5 106.5q-81 61 -143 129t-62 155q0 27 9.5 64t27.5 71q9 9 9 18q11 21 29.5 54t32 69.5t18 73.5t-10.5 57q-46 79 -252 79 q-57 0 -93.5 -24.5t-56.5 -59.5t-26 -75.5t-6 -74.5v-1036h-115z" />
<glyph unicode="&#xe0;" horiz-adv-x="1050" d="M84 358q0 76 30.5 144t85.5 118t126 79t154 29q78 0 143 -27.5t117 -75.5q6 -6 16.5 -4.5t10.5 12.5v104q0 61 -23 103t-61 71t-87.5 42t-101.5 13q-97 0 -165.5 -33t-128.5 -94l-88 76q88 81 176 119.5t203 38.5q76 0 145.5 -21.5t123 -63.5t85 -106t31.5 -145v-737 h-109v58q0 17 -13.5 21.5t-19.5 -1.5q-112 -93 -254 -93q-82 0 -153.5 29t-126.5 80t-85.5 119t-30.5 145zM197 358q0 -55 23 -103.5t60.5 -85t89.5 -58t110 -21.5q57 0 106.5 21.5t87.5 58t61 85t23 103.5t-23 103t-61 83t-88 56.5t-106 21.5q-58 0 -110 -21.5t-89.5 -56.5 t-60.5 -83t-23 -103zM391 1412l101 55l162 -230q-23 -17 -59.5 -22.5t-70.5 31.5z" />
<glyph unicode="&#xe1;" horiz-adv-x="1050" d="M84 358q0 76 30.5 144t85.5 118t126 79t154 29q78 0 143 -27.5t117 -75.5q6 -6 16.5 -4.5t10.5 12.5v104q0 61 -23 103t-61 71t-87.5 42t-101.5 13q-97 0 -165.5 -33t-128.5 -94l-88 76q88 81 176 119.5t203 38.5q76 0 145.5 -21.5t123 -63.5t85 -106t31.5 -145v-737 h-109v58q0 17 -13.5 21.5t-19.5 -1.5q-112 -93 -254 -93q-82 0 -153.5 29t-126.5 80t-85.5 119t-30.5 145zM197 358q0 -55 23 -103.5t60.5 -85t89.5 -58t110 -21.5q57 0 106.5 21.5t87.5 58t61 85t23 103.5t-23 103t-61 83t-88 56.5t-106 21.5q-58 0 -110 -21.5t-89.5 -56.5 t-60.5 -83t-23 -103zM407 1237l163 230l100 -55l-133 -166q-34 -37 -70 -32.5t-60 23.5z" />
<glyph unicode="&#xe2;" horiz-adv-x="1050" d="M84 358q0 76 30.5 144t85.5 118t126 79t154 29q78 0 143 -27.5t117 -75.5q6 -6 16.5 -4.5t10.5 12.5v104q0 61 -23 103t-61 71t-87.5 42t-101.5 13q-97 0 -165.5 -33t-128.5 -94l-88 76q88 81 176 119.5t203 38.5q76 0 145.5 -21.5t123 -63.5t85 -106t31.5 -145v-737 h-109v58q0 17 -13.5 21.5t-19.5 -1.5q-112 -93 -254 -93q-82 0 -153.5 29t-126.5 80t-85.5 119t-30.5 145zM197 358q0 -55 23 -103.5t60.5 -85t89.5 -58t110 -21.5q57 0 106.5 21.5t87.5 58t61 85t23 103.5t-23 103t-61 83t-88 56.5t-106 21.5q-58 0 -110 -21.5t-89.5 -56.5 t-60.5 -83t-23 -103zM293 1227l228 280l217 -280h-53t-32.5 6.5t-26 17t-27.5 31.5l-78 103l-82 -106q-17 -21 -28 -31.5t-24.5 -15.5t-35 -5h-58.5z" />
<glyph unicode="&#xe3;" horiz-adv-x="1050" d="M84 358q0 76 30.5 144t85.5 118t126 79t154 29q78 0 143 -27.5t117 -75.5q6 -6 16.5 -4.5t10.5 12.5v104q0 61 -23 103t-61 71t-87.5 42t-101.5 13q-97 0 -165.5 -33t-128.5 -94l-88 76q88 81 176 119.5t203 38.5q76 0 145.5 -21.5t123 -63.5t85 -106t31.5 -145v-737 h-109v58q0 17 -13.5 21.5t-19.5 -1.5q-112 -93 -254 -93q-82 0 -153.5 29t-126.5 80t-85.5 119t-30.5 145zM197 358q0 -55 23 -103.5t60.5 -85t89.5 -58t110 -21.5q57 0 106.5 21.5t87.5 58t61 85t23 103.5t-23 103t-61 83t-88 56.5t-106 21.5q-58 0 -110 -21.5t-89.5 -56.5 t-60.5 -83t-23 -103zM238 1249q34 64 79 112t106 48q30 0 56.5 -12t48.5 -29t45 -28.5t44 -11.5q24 0 39.5 11.5t28 25.5t24 26t29.5 12t34 -12l27 -21q-34 -63 -75 -101.5t-104 -38.5q-30 0 -54.5 14t-47 29l-43.5 29t-49 14q-27 0 -42.5 -15.5t-27 -32t-25 -32 t-32.5 -15.5q-15 0 -30 9.5t-31 18.5z" />
<glyph unicode="&#xe4;" horiz-adv-x="1050" d="M84 358q0 76 30.5 144t85.5 118t126 79t154 29q78 0 143 -27.5t117 -75.5q6 -6 16.5 -4.5t10.5 12.5v104q0 61 -23 103t-61 71t-87.5 42t-101.5 13q-97 0 -165.5 -33t-128.5 -94l-88 76q88 81 176 119.5t203 38.5q76 0 145.5 -21.5t123 -63.5t85 -106t31.5 -145v-737 h-109v58q0 17 -13.5 21.5t-19.5 -1.5q-112 -93 -254 -93q-82 0 -153.5 29t-126.5 80t-85.5 119t-30.5 145zM197 358q0 -55 23 -103.5t60.5 -85t89.5 -58t110 -21.5q57 0 106.5 21.5t87.5 58t61 85t23 103.5t-23 103t-61 83t-88 56.5t-106 21.5q-58 0 -110 -21.5t-89.5 -56.5 t-60.5 -83t-23 -103zM249 1305q0 34 22.5 58.5t55.5 24.5q34 0 58.5 -24.5t24.5 -58.5t-24.5 -56t-58.5 -22t-56 22t-22 56zM616 1305q0 34 22.5 58.5t55.5 24.5q34 0 58.5 -24.5t24.5 -58.5t-24.5 -56t-58.5 -22t-56 22t-22 56z" />
<glyph unicode="&#xe5;" horiz-adv-x="1050" d="M84 358q0 76 30.5 144t85.5 118t126 79t154 29q78 0 143 -27.5t117 -75.5q6 -6 16.5 -4.5t10.5 12.5v104q0 61 -23 103t-61 71t-87.5 42t-101.5 13q-97 0 -165.5 -33t-128.5 -94l-88 76q88 81 176 119.5t203 38.5q76 0 145.5 -21.5t123 -63.5t85 -106t31.5 -145v-737 h-109v58q0 17 -13.5 21.5t-19.5 -1.5q-112 -93 -254 -93q-82 0 -153.5 29t-126.5 80t-85.5 119t-30.5 145zM197 358q0 -55 23 -103.5t60.5 -85t89.5 -58t110 -21.5q57 0 106.5 21.5t87.5 58t61 85t23 103.5t-23 103t-61 83t-88 56.5t-106 21.5q-58 0 -110 -21.5t-89.5 -56.5 t-60.5 -83t-23 -103zM310 1379q0 84 59 142t138 58q78 0 141 -58t63 -142q0 -78 -62 -139t-142 -61q-76 0 -136.5 58t-60.5 142zM393 1382q0 -61 34.5 -91t79.5 -30q51 0 86 33t35 85t-35 85t-86 33q-52 0 -83 -31.5t-31 -83.5z" />
<glyph unicode="&#xe6;" horiz-adv-x="1759" d="M78 358q0 76 30.5 144t84 118t124.5 79t152 29q79 0 150.5 -27.5t123.5 -75.5q6 -6 12 -6q15 0 15 14v104q0 61 -26 103t-67 71t-92.5 42t-102.5 13q-75 0 -151 -33t-128 -94l-79 76q61 69 156.5 113.5t201.5 44.5q107 0 199 -40.5t146 -120.5q52 78 144.5 119.5 t199.5 41.5q78 0 150.5 -23t127.5 -65t88 -104.5t33 -143.5v-92q0 -69 -48.5 -108.5t-121.5 -39.5h-515v-176q0 -58 24.5 -100t65 -71t91 -44.5t105.5 -15.5q54 0 107 15.5t93.5 46t65 74t24.5 101.5h112q0 -78 -33 -142t-88 -107.5t-127.5 -66.5t-153.5 -23 q-82 0 -158 24.5t-134 71.5q-40 34 -66 34q-35 0 -70 -37q-52 -48 -123 -72t-151 -24q-81 0 -152 29t-124.5 80t-84 119t-30.5 145zM191 358q0 -55 23 -103.5t60.5 -85t87 -58t107.5 -21.5t109.5 21.5t89.5 58t61 85t23 103.5t-23 103t-61 83t-89.5 56.5t-109.5 21.5 t-107.5 -21.5t-87 -56.5t-60.5 -83t-23 -103zM882 676q0 -43 21.5 -61.5t51.5 -18.5h436q24 0 47 21.5t23 47.5v72q0 58 -24.5 100t-65 71t-93.5 43.5t-107 14.5q-55 0 -107 -14.5t-92.5 -43.5t-65 -72.5t-24.5 -101.5v-58z" />
<glyph unicode="&#xe7;" horiz-adv-x="1044" d="M124 321v413q0 84 35 148t91 106t127 63.5t144 21.5q72 0 145.5 -21.5t131 -65t92.5 -107.5t35 -145h-112q0 61 -26 104.5t-67 72.5t-94 42t-105 13t-103 -13t-91.5 -42t-65 -72.5t-24.5 -104.5v-413q0 -58 26 -101.5t66.5 -72.5t91.5 -43t103 -14t103.5 14t92.5 44.5 t67 74t26 104.5h112q0 -75 -30.5 -136t-80.5 -103t-114 -66.5t-130 -30.5v-58q49 -14 80.5 -54t31.5 -91q0 -60 -47 -106t-114 -46q-30 0 -61.5 12.5t-56.5 36.5l-30 34l70 63l29 -34q27 -20 49 -20q27 0 45.5 17.5t18.5 42.5q0 24 -15 42.5t-49 18.5h-49v142 q-66 6 -130 30.5t-112 65t-77 100t-29 134.5z" />
<glyph unicode="&#xe8;" horiz-adv-x="1030" d="M124 321v413q0 81 33.5 143.5t88 106t126 66.5t149.5 23t151.5 -23t128 -65t86.5 -104.5t32 -143.5v-80q0 -69 -49 -108.5t-118 -39.5h-515v-188q0 -58 24.5 -100t65 -71t90 -44.5t104.5 -15.5t108 15.5t94 46t65.5 74t24.5 101.5h112q0 -78 -33.5 -142t-88 -107.5 t-128 -66.5t-154.5 -23q-76 0 -148.5 23t-127 65t-88 104.5t-33.5 140.5zM234 676q0 -66 69 -66h443q67 0 67 66v61q0 58 -24.5 100t-65.5 71t-94 43.5t-108 14.5t-106 -14.5t-92.5 -43.5t-65 -72.5t-23.5 -101.5v-58zM330 1412l101 55l162 -230q-23 -17 -59.5 -22.5 t-70.5 31.5z" />
<glyph unicode="&#xe9;" horiz-adv-x="1030" d="M124 321v413q0 81 33.5 143.5t88 106t126 66.5t149.5 23t151.5 -23t128 -65t86.5 -104.5t32 -143.5v-80q0 -69 -49 -108.5t-118 -39.5h-515v-188q0 -58 24.5 -100t65 -71t90 -44.5t104.5 -15.5t108 15.5t94 46t65.5 74t24.5 101.5h112q0 -78 -33.5 -142t-88 -107.5 t-128 -66.5t-154.5 -23q-76 0 -148.5 23t-127 65t-88 104.5t-33.5 140.5zM234 676q0 -66 69 -66h443q67 0 67 66v61q0 58 -24.5 100t-65.5 71t-94 43.5t-108 14.5t-106 -14.5t-92.5 -43.5t-65 -72.5t-23.5 -101.5v-58zM477 1237l163 230l100 -55l-133 -166 q-34 -37 -70 -32.5t-60 23.5z" />
<glyph unicode="&#xea;" horiz-adv-x="1030" d="M124 321v413q0 81 33.5 143.5t88 106t126 66.5t149.5 23t151.5 -23t128 -65t86.5 -104.5t32 -143.5v-80q0 -69 -49 -108.5t-118 -39.5h-515v-188q0 -58 24.5 -100t65 -71t90 -44.5t104.5 -15.5t108 15.5t94 46t65.5 74t24.5 101.5h112q0 -78 -33.5 -142t-88 -107.5 t-128 -66.5t-154.5 -23q-76 0 -148.5 23t-127 65t-88 104.5t-33.5 140.5zM234 676q0 -66 69 -66h443q67 0 67 66v61q0 58 -24.5 100t-65.5 71t-94 43.5t-108 14.5t-106 -14.5t-92.5 -43.5t-65 -72.5t-23.5 -101.5v-58zM287 1227l228 280l217 -280h-53t-32.5 6.5t-26 17 t-27.5 31.5l-78 103l-82 -106q-17 -21 -28 -31.5t-24.5 -15.5t-35 -5h-58.5z" />
<glyph unicode="&#xeb;" horiz-adv-x="1030" d="M124 321v413q0 81 33.5 143.5t88 106t126 66.5t149.5 23t151.5 -23t128 -65t86.5 -104.5t32 -143.5v-80q0 -69 -49 -108.5t-118 -39.5h-515v-188q0 -58 24.5 -100t65 -71t90 -44.5t104.5 -15.5t108 15.5t94 46t65.5 74t24.5 101.5h112q0 -78 -33.5 -142t-88 -107.5 t-128 -66.5t-154.5 -23q-76 0 -148.5 23t-127 65t-88 104.5t-33.5 140.5zM224 1305q0 34 22.5 58.5t55.5 24.5q34 0 58.5 -24.5t24.5 -58.5t-24.5 -56t-58.5 -22t-56 22t-22 56zM234 676q0 -66 69 -66h443q67 0 67 66v61q0 58 -24.5 100t-65.5 71t-94 43.5t-108 14.5 t-106 -14.5t-92.5 -43.5t-65 -72.5t-23.5 -101.5v-58zM591 1305q0 34 22.5 58.5t55.5 24.5q34 0 58.5 -24.5t24.5 -58.5t-24.5 -56t-58.5 -22t-56 22t-22 56z" />
<glyph unicode="&#xec;" horiz-adv-x="417" d="M0 1412l101 55l162 -230q-23 -17 -59.5 -22.5t-70.5 31.5zM124 0v1061h113v-1061h-113z" />
<glyph unicode="&#xed;" horiz-adv-x="414" d="M118 1237l163 230l101 -55l-133 -166q-34 -37 -70.5 -32.5t-60.5 23.5zM124 0v1061h113v-1061h-113z" />
<glyph unicode="&#xee;" horiz-adv-x="420" d="M-40 1227l228 280l218 -280h-54t-32.5 6.5t-26 17t-27.5 31.5l-78 103l-81 -106q-18 -21 -29 -31.5t-24.5 -15.5t-35 -5h-58.5zM124 0v1061h113v-1061h-113z" />
<glyph unicode="&#xef;" horiz-adv-x="417" d="M-81 1298q0 34 22 57.5t56 23.5t57.5 -24t23.5 -57q0 -34 -24 -57t-57 -23q-34 0 -56 23t-22 57zM124 0v1061h113v-1061h-113zM286 1298q0 34 22 57.5t56 23.5t57.5 -24t23.5 -57q0 -34 -24 -57t-57 -23q-34 0 -56 23t-22 57z" />
<glyph unicode="&#xf0;" horiz-adv-x="1163" d="M164 315v413q0 85 36.5 148.5t95.5 105.5t134.5 63.5t151.5 21.5q51 0 109 -12t101 -31q18 -6 21 -6q8 0 8 18q0 37 -65 106.5t-163 121.5l-156 -98l-64 83l109 67q3 3 3 12q0 3 -14 11.5t-31.5 19.5t-37.5 20t-29 15l58 95q46 -24 89.5 -49t80.5 -49l151 90l63 -81 l-100 -61v-3q0 -3 -1.5 -3t-1.5 -2q0 -6 9 -12q124 -88 203 -238t79 -387v-376q0 -81 -36 -144.5t-95 -106.5t-135.5 -64t-151.5 -21q-76 0 -151.5 21t-136 62.5t-97 105t-36.5 144.5zM278 315q0 -57 27.5 -101t72 -73t98.5 -43t109 -14q54 0 109 14t97 44.5t68 74t26 101.5 v413q0 61 -27.5 103t-69.5 71t-97 42.5t-109 13.5q-55 0 -109 -13.5t-97 -42.5t-70.5 -73.5t-27.5 -103.5v-413z" />
<glyph unicode="&#xf1;" horiz-adv-x="1093" d="M124 0v1061h113v-31q0 -18 11.5 -25t26.5 1q110 67 246 67q75 0 147 -21.5t127.5 -63.5t89.5 -106t34 -145v-737h-106v737q0 61 -26 103t-67 71t-94 42t-105 13t-101.5 -13t-90 -40.5t-66.5 -69.5t-26 -100v-743h-113zM218 1249q34 64 79 112t106 48q30 0 56.5 -12 t48.5 -29t45 -28.5t44 -11.5q24 0 39.5 11.5t28 25.5t24 26t29.5 12t34 -12l27 -21q-34 -63 -75 -101.5t-104 -38.5q-30 0 -54.5 14t-47 29l-43.5 29t-49 14q-27 0 -42.5 -15.5t-27 -32t-25 -32t-32.5 -15.5q-15 0 -30 9.5t-31 18.5z" />
<glyph unicode="&#xf2;" horiz-adv-x="1050" d="M124 321v413q0 84 35 148t91 106t127 63.5t144 21.5q72 0 145.5 -21.5t131 -63.5t92.5 -106t35 -145v-413q0 -81 -35 -145t-92.5 -106.5t-129.5 -63.5t-144 -21q-73 0 -145.5 21t-128.5 62t-91 105t-35 145zM237 321q0 -58 26 -101.5t66.5 -72.5t91.5 -43t103 -14 t103.5 14t92.5 44.5t67 74t26 101.5v413q0 61 -26 103t-67 71t-94 42t-105 13t-103 -13t-91.5 -42t-65 -72.5t-24.5 -104.5v-413zM391 1412l101 55l162 -230q-23 -17 -59.5 -22.5t-70.5 31.5z" />
<glyph unicode="&#xf3;" horiz-adv-x="1050" d="M124 321v413q0 84 35 148t91 106t127 63.5t144 21.5q72 0 145.5 -21.5t131 -63.5t92.5 -106t35 -145v-413q0 -81 -35 -145t-92.5 -106.5t-129.5 -63.5t-144 -21q-73 0 -145.5 21t-128.5 62t-91 105t-35 145zM237 321q0 -58 26 -101.5t66.5 -72.5t91.5 -43t103 -14 t103.5 14t92.5 44.5t67 74t26 101.5v413q0 61 -26 103t-67 71t-94 42t-105 13t-103 -13t-91.5 -42t-65 -72.5t-24.5 -104.5v-413zM416 1237l163 230l100 -55l-133 -166q-34 -37 -70 -32.5t-60 23.5z" />
<glyph unicode="&#xf4;" horiz-adv-x="1050" d="M124 321v413q0 84 35 148t91 106t127 63.5t144 21.5q72 0 145.5 -21.5t131 -63.5t92.5 -106t35 -145v-413q0 -81 -35 -145t-92.5 -106.5t-129.5 -63.5t-144 -21q-73 0 -145.5 21t-128.5 62t-91 105t-35 145zM237 321q0 -58 26 -101.5t66.5 -72.5t91.5 -43t103 -14 t103.5 14t92.5 44.5t67 74t26 101.5v413q0 61 -26 103t-67 71t-94 42t-105 13t-103 -13t-91.5 -42t-65 -72.5t-24.5 -104.5v-413zM315 1227l228 280l217 -280h-53t-32.5 6.5t-26 17t-27.5 31.5l-78 103l-82 -106q-17 -21 -28 -31.5t-24.5 -15.5t-35 -5h-58.5z" />
<glyph unicode="&#xf5;" horiz-adv-x="1050" d="M124 321v413q0 84 35 148t91 106t127 63.5t144 21.5q72 0 145.5 -21.5t131 -63.5t92.5 -106t35 -145v-413q0 -81 -35 -145t-92.5 -106.5t-129.5 -63.5t-144 -21q-73 0 -145.5 21t-128.5 62t-91 105t-35 145zM237 321q0 -58 26 -101.5t66.5 -72.5t91.5 -43t103 -14 t103.5 14t92.5 44.5t67 74t26 101.5v413q0 61 -26 103t-67 71t-94 42t-105 13t-103 -13t-91.5 -42t-65 -72.5t-24.5 -104.5v-413zM260 1249q34 64 79 112t106 48q30 0 56.5 -12t48.5 -29t45 -28.5t44 -11.5q24 0 39.5 11.5t28 25.5t24 26t29.5 12t34 -12l27 -21 q-34 -63 -75 -101.5t-104 -38.5q-30 0 -54.5 14t-47 29l-43.5 29t-49 14q-27 0 -42.5 -15.5t-27 -32t-25 -32t-32.5 -15.5q-15 0 -30 9.5t-31 18.5z" />
<glyph unicode="&#xf6;" horiz-adv-x="1050" d="M124 321v413q0 84 35 148t91 106t127 63.5t144 21.5q72 0 145.5 -21.5t131 -63.5t92.5 -106t35 -145v-413q0 -81 -35 -145t-92.5 -106.5t-129.5 -63.5t-144 -21q-73 0 -145.5 21t-128.5 62t-91 105t-35 145zM237 321q0 -58 26 -101.5t66.5 -72.5t91.5 -43t103 -14 t103.5 14t92.5 44.5t67 74t26 101.5v413q0 61 -26 103t-67 71t-94 42t-105 13t-103 -13t-91.5 -42t-65 -72.5t-24.5 -104.5v-413zM270 1305q0 34 22.5 58.5t55.5 24.5q34 0 58.5 -24.5t24.5 -58.5t-24.5 -56t-58.5 -22t-56 22t-22 56zM637 1305q0 34 22.5 58.5t55.5 24.5 q34 0 58.5 -24.5t24.5 -58.5t-24.5 -56t-58.5 -22t-56 22t-22 56z" />
<glyph unicode="&#xf7;" horiz-adv-x="902" d="M130 593v101h637v-101h-637zM364 382q0 37 24.5 62t59.5 25q37 0 62.5 -25t25.5 -62t-25.5 -61t-62.5 -24t-60.5 24t-23.5 61zM364 906q0 37 24.5 63t59.5 26q37 0 62.5 -26t25.5 -63t-25.5 -62.5t-62.5 -25.5t-60.5 25.5t-23.5 62.5z" />
<glyph unicode="&#xf8;" horiz-adv-x="1050" d="M110 -3q20 37 40 66.5t38 63.5q-64 79 -64 194v413q0 84 35 148t91 106t127 63.5t144 21.5q109 0 203 -46l40 64q20 34 46 47t54 13q30 0 55 -11q-30 -52 -53.5 -90t-47.5 -81q98 -81 107 -232v-413q0 -81 -35 -145t-92.5 -106.5t-129.5 -63.5t-144 -21 q-67 0 -133.5 16.5t-118.5 50.5q-49 -73 -96 -73q-27 0 -66 15zM237 321q0 -49 15 -87l418 703q-63 29 -149 29q-52 0 -103 -13t-91.5 -42t-65 -72.5t-24.5 -104.5v-413zM327 145q43 -27 94 -41t103 -14t103.5 14t92.5 44.5t67 74t26 101.5v413q0 43 -14.5 77t-37.5 62z" />
<glyph unicode="&#xf9;" horiz-adv-x="1120" d="M124 324v737h113v-737q0 -58 24.5 -101.5t65 -72.5t91.5 -43t103 -14t103.5 14t92.5 41.5t67 69.5t26 100v743h109v-1061h-109v30q0 29 -26 31q-11 0 -17 -6q-104 -67 -246 -67q-73 0 -144 21t-127 63.5t-91 106.5t-35 145zM379 1412l101 55l162 -230 q-23 -17 -59.5 -22.5t-70.5 31.5z" />
<glyph unicode="&#xfa;" horiz-adv-x="1120" d="M124 324v737h113v-737q0 -58 24.5 -101.5t65 -72.5t91.5 -43t103 -14t103.5 14t92.5 41.5t67 69.5t26 100v743h109v-1061h-109v30q0 29 -26 31q-11 0 -17 -6q-104 -67 -246 -67q-73 0 -144 21t-127 63.5t-91 106.5t-35 145zM462 1237l163 230l100 -55l-133 -166 q-34 -37 -70 -32.5t-60 23.5z" />
<glyph unicode="&#xfb;" horiz-adv-x="1120" d="M124 324v737h113v-737q0 -58 24.5 -101.5t65 -72.5t91.5 -43t103 -14t103.5 14t92.5 41.5t67 69.5t26 100v743h109v-1061h-109v30q0 29 -26 31q-11 0 -17 -6q-104 -67 -246 -67q-73 0 -144 21t-127 63.5t-91 106.5t-35 145zM324 1227l228 280l217 -280h-53t-32.5 6.5 t-26 17t-27.5 31.5l-78 103l-82 -106q-17 -21 -28 -31.5t-24.5 -15.5t-35 -5h-58.5z" />
<glyph unicode="&#xfc;" horiz-adv-x="1120" d="M124 324v737h113v-737q0 -58 24.5 -101.5t65 -72.5t91.5 -43t103 -14t103.5 14t92.5 41.5t67 69.5t26 100v743h109v-1061h-109v30q0 29 -26 31q-11 0 -17 -6q-104 -67 -246 -67q-73 0 -144 21t-127 63.5t-91 106.5t-35 145zM279 1305q0 34 22.5 58.5t55.5 24.5 q34 0 58.5 -24.5t24.5 -58.5t-24.5 -56t-58.5 -22t-56 22t-22 56zM646 1305q0 34 22.5 58.5t55.5 24.5q34 0 58.5 -24.5t24.5 -58.5t-24.5 -56t-58.5 -22t-56 22t-22 56z" />
<glyph unicode="&#xfd;" horiz-adv-x="1062" d="M61 1064h118l312 -852q3 -6 16.5 -6t16.5 6l346 852h119l-523 -1261q-37 -90 -111 -142t-222 -52h-69v105h69q61 0 100 10t63.5 26t41.5 39t29 53l39 94q14 30 22.5 51.5t8.5 38.5t-7.5 36t-21.5 51zM440 1237l163 230l100 -55l-133 -166q-34 -37 -70 -32.5t-60 23.5z " />
<glyph unicode="&#xfe;" horiz-adv-x="1200" d="M203 -382v1813h112v-401q0 -18 15 -25t31 1h-3q107 64 243 64q75 0 147.5 -21.5t129 -63.5t89.5 -106t33 -145v-425q0 -81 -33 -144.5t-89.5 -106.5t-129 -64t-147.5 -21q-133 0 -243 67q-15 9 -29 1.5t-14 -26.5v-397h-112zM315 303q0 -57 26 -99.5t66.5 -69.5t91 -41.5 t102.5 -14.5q55 0 106 14.5t91.5 43t66.5 72.5t26 101v425q0 61 -26 103t-66.5 72.5t-92.5 43.5t-105 13q-52 0 -104 -13t-92.5 -42t-65 -71t-24.5 -103v-434z" />
<glyph unicode="&#xff;" horiz-adv-x="1062" d="M61 1061h118l312 -852q3 -6 16.5 -6t16.5 6l346 852h119l-523 -1261q-37 -90 -111 -142t-222 -52h-69v105h69q61 0 100 10t63.5 26t41.5 39t29 53l39 94q14 30 22.5 51.5t8.5 38.5t-7.5 36t-21.5 51zM264 1305q0 34 22.5 58.5t55.5 24.5q34 0 58.5 -24.5t24.5 -58.5 t-24.5 -56t-58.5 -22t-56 22t-22 56zM631 1305q0 34 22.5 58.5t55.5 24.5q34 0 58.5 -24.5t24.5 -58.5t-24.5 -56t-58.5 -22t-56 22t-22 56z" />
<glyph unicode="&#x131;" horiz-adv-x="445" d="M145 0v1382h115v-1382h-115z" />
<glyph unicode="&#x141;" horiz-adv-x="1071" d="M-101 503l246 243v636h115v-524l134 134q29 23 49 23t35.5 -11.5t30.5 -28.5l21 -17l-270 -267v-521q0 -29 7.5 -46t41.5 -17h657v-107h-657q-81 0 -122.5 46.5t-41.5 123.5v409l-115 -116q-24 -23 -45 -23q-15 0 -29 10t-29 27z" />
<glyph unicode="&#x142;" horiz-adv-x="445" d="M-98 540l492 487q23 24 46 25q14 0 29.5 -12.5t30.5 -27.5l21 -17l-494 -495q-24 -23 -42 -23q-15 0 -27.5 10t-27.5 25zM145 0v1382h115v-1382h-115z" />
<glyph unicode="&#x152;" horiz-adv-x="2329" d="M197 408v538q0 106 40.5 189t111 140.5t163 86.5t194.5 29q145 0 268 -59t189 -169q64 113 187 170.5t269 57.5q101 0 194 -30t162.5 -86.5t112.5 -139.5t43 -189h-109q0 84 -35 147.5t-91 106.5t-128.5 64t-148.5 21q-75 0 -147 -21t-128 -65.5t-89.5 -108t-33.5 -144.5 v-131q0 -66 64 -66h476v-107h-540v-234q0 -81 35 -144.5t91 -106t127 -63.5t148 -21q76 0 148.5 22.5t128.5 65t89.5 107.5t33.5 151h112q0 -107 -43 -192t-112.5 -142.5t-163.5 -88t-193 -30.5q-121 0 -230.5 43t-182.5 124q-18 24 -46 24q-12 0 -22 -7.5l-22 -16.5 q-73 -78 -181 -122.5t-229 -44.5q-101 0 -194 29t-163.5 86.5t-112.5 139.5t-42 187zM309 408q0 -81 35 -144.5t91 -106t127 -63.5t147 -21q75 0 148.5 22.5t129.5 65t89.5 106t33.5 149.5v533q0 81 -35.5 144.5t-91 106.5t-129 64t-148.5 21q-76 0 -147 -21t-127 -65.5 t-89.5 -108t-33.5 -144.5v-538z" />
<glyph unicode="&#x153;" horiz-adv-x="1759" d="M78 321v413q0 84 35 148t91 106t129 63.5t147 21.5q106 0 199.5 -40.5t144.5 -120.5q55 78 147.5 119.5t199.5 41.5q78 0 150.5 -23t127.5 -65t88 -104.5t33 -143.5v-92q0 -69 -48.5 -108.5t-121.5 -39.5h-515v-176q0 -58 24.5 -100t65 -71t91 -44.5t105.5 -15.5 q54 0 107 15.5t93.5 46t65 74t24.5 101.5h112q0 -78 -33 -142t-88 -107.5t-127.5 -66.5t-153.5 -23q-85 0 -164 27.5t-137 82.5q-26 20 -43 20t-46 -20q-60 -55 -138.5 -82.5t-160.5 -27.5q-75 0 -147 21t-129.5 62t-92.5 105t-35 145zM191 321q0 -58 26 -101.5t66.5 -72.5 t92.5 -43t106 -14q52 0 103 14t92 44.5t65.5 74t24.5 101.5v413q0 61 -26 103t-67 71t-92.5 42t-101.5 13q-55 0 -107 -13t-92.5 -42t-65 -72.5t-24.5 -104.5v-413zM882 665q0 -67 64 -69h445q24 0 47 21.5t23 47.5v72q0 58 -24.5 100t-65 71t-94 43.5t-106.5 14.5 q-55 0 -107 -14.5t-92.5 -43.5t-65 -72.5t-24.5 -101.5v-69z" />
<glyph unicode="&#x160;" horiz-adv-x="1284" d="M115 434h116q0 -85 33 -150.5t88.5 -108t127.5 -65.5t148 -23q75 0 146 21.5t127.5 64t89.5 106t33 146.5q0 75 -39 119t-100 65t-129 25.5t-128 4.5q-85 0 -176 9t-165.5 42.5t-123 95.5t-48.5 172q0 106 42.5 189t112 140.5t162 86.5t196.5 29q100 0 192 -29 t163.5 -86.5t112.5 -139t41 -187.5h-113q0 84 -33 148.5t-89.5 106.5t-127.5 63.5t-146 21.5q-76 0 -148 -21.5t-127.5 -65t-88.5 -107.5t-33 -149q0 -79 39 -121t98.5 -63.5t129 -24.5t130.5 -3q87 0 176.5 -9t165.5 -43t123 -97.5t47 -171.5q0 -107 -42.5 -189 t-114 -137.5t-163.5 -84.5t-192 -29q-101 0 -195 30.5t-163.5 88t-112 140.5t-42.5 190zM409 1788h54t33.5 -6t25 -17t28.5 -32l78 -104l81 107q18 21 29 32t24.5 15.5t35 4.5h56.5l-226 -280z" />
<glyph unicode="&#x161;" horiz-adv-x="1033" d="M124 327h113q0 -115 88 -176t196 -61q55 0 108 15.5t94 44.5t65.5 71t24.5 100q0 52 -26 81t-68.5 45t-95.5 23t-111 10q-69 2 -139 9.5t-124.5 33.5t-89.5 76.5t-35 134.5q0 81 33.5 143.5t88 106t126 66.5t149.5 23t151.5 -23t129.5 -66.5t89.5 -106t33.5 -143.5h-112 q0 58 -24.5 101.5t-65.5 72.5t-94 43.5t-108 14.5q-110 0 -197 -59t-87 -173q0 -49 24.5 -79t65 -46t91.5 -21.5t109 -8.5q69 -3 141 -12t127.5 -35t92.5 -76t37 -135q0 -78 -33.5 -140.5t-89.5 -104.5t-128.5 -65t-152.5 -23q-78 0 -149.5 23t-126 66.5t-88 107.5 t-33.5 142zM281 1507h54t33.5 -6t25 -17t28.5 -32l78 -104l81 107q18 21 29 32t24.5 15.5t35 4.5h56.5l-226 -280z" />
<glyph unicode="&#x178;" horiz-adv-x="1192" d="M24 1382h137l394 -581q27 -37 52 0l396 581h137l-458 -664q-20 -30 -33 -63t-13 -82v-573h-112v573q0 46 -15 83.5t-29 61.5zM313 1614q0 34 22.5 58.5t55.5 24.5q34 0 58.5 -24.5t24.5 -58.5t-24.5 -56t-58.5 -22t-56 22t-22 56zM680 1614q0 34 22.5 58.5t55.5 24.5 q34 0 58.5 -24.5t24.5 -58.5t-24.5 -56t-58.5 -22t-56 22t-22 56z" />
<glyph unicode="&#x17d;" horiz-adv-x="1284" d="M115 0q0 90 21 137.5t70 105.5l806 1033h-897v106h1028q0 -90 -24.5 -142t-66.5 -103l-809 -1030h897v-107h-1025zM420 1779h54t33.5 -6t25 -17t28.5 -32l78 -104l81 107q18 21 29 32t24.5 15.5t35 4.5h56.5l-226 -280z" />
<glyph unicode="&#x17e;" horiz-adv-x="1024" d="M90 0q6 84 27.5 125.5t58.5 86.5l573 743h-659v106h795q0 -69 -21.5 -115t-59.5 -98l-570 -741h651v-107h-795zM263 1507h54t33.5 -6t25 -17t28.5 -32l78 -104l81 107q18 21 29 32t24.5 15.5t35 4.5h56.5l-226 -280z" />
<glyph unicode="&#x192;" horiz-adv-x="1123" d="M-118 -379l28 107q78 0 152 14.5t120 45.5q93 67 130 212l194 818h-142l27 107h142l31 133q24 98 58.5 165.5t94 108.5t150.5 59t224 18l-24 -105q-115 0 -183.5 -15.5t-109 -44.5t-60.5 -75.5t-35 -110.5l-34 -133h243l-30 -107h-164q-43 0 -62 -18.5t-28 -53.5 l-176 -746q-46 -200 -188 -297q-64 -43 -161 -62.5t-197 -19.5z" />
<glyph unicode="&#x2c6;" horiz-adv-x="747" d="M151 1227l228 280l217 -280h-53t-32.5 6.5t-26 17t-27.5 31.5l-78 103l-82 -106q-17 -21 -28 -31.5t-24.5 -15.5t-35 -5h-58.5z" />
<glyph unicode="&#x2c7;" horiz-adv-x="747" d="M151 1507h54t33.5 -6t25 -17t28.5 -32l78 -104l81 107q18 21 29 32t24.5 15.5t35 4.5h56.5l-226 -280z" />
<glyph unicode="&#x2d8;" horiz-adv-x="760" d="M121 1507h76q0 -76 53 -125t120 -49q73 0 123 52t50 122h79q0 -49 -20 -94t-55 -78.5t-80 -55t-97 -21.5q-104 0 -176.5 72.5t-72.5 176.5z" />
<glyph unicode="&#x2d9;" horiz-adv-x="671" d="M258 1342q0 34 22.5 58.5t55.5 24.5q34 0 58.5 -24.5t24.5 -58.5t-24.5 -56t-58.5 -22t-56 22t-22 56z" />
<glyph unicode="&#x2da;" horiz-adv-x="808" d="M203 1261q0 84 59 142t138 58q78 0 141 -58t63 -142q0 -78 -62 -139t-142 -61q-76 0 -136.5 58t-60.5 142zM286 1264q0 -61 34.5 -91t79.5 -30q51 0 86 33t35 85t-35 85t-86 33q-52 0 -83 -31.5t-31 -83.5z" />
<glyph unicode="&#x2db;" horiz-adv-x="602" d="M142 -228q0 52 30.5 92t76.5 55v81h90v-167h-44q-30 0 -45.5 -18t-15.5 -43q0 -24 17.5 -42.5t43.5 -18.5q23 0 44 23l31 32l67 -63l-31 -33q-43 -49 -111 -49q-61 0 -107 45t-46 106z" />
<glyph unicode="&#x2dc;" horiz-adv-x="908" d="M148 1249q34 64 79 112t106 48q30 0 56.5 -12t48.5 -29t45 -28.5t44 -11.5q24 0 39.5 11.5t28 25.5t24 26t29.5 12t34 -12l27 -21q-34 -63 -75 -101.5t-104 -38.5q-30 0 -54.5 14t-47 29l-43.5 29t-49 14q-27 0 -42.5 -15.5t-27 -32t-25 -32t-32.5 -15.5q-15 0 -30 9.5 t-31 18.5z" />
<glyph unicode="&#x2dd;" horiz-adv-x="605" d="M139 1498h119l-21 -301q-3 -49 -33.5 -54.5t-42.5 -5.5zM349 1498h117l-21 -301q-2 -49 -32.5 -54.5t-42.5 -5.5z" />
<glyph unicode="&#xe00;" horiz-adv-x="3031" />
<glyph unicode="&#xe01;" horiz-adv-x="1223" d="M121 827l15 58q43 154 165 243.5t287 89.5q87 0 166 -22t140 -68t97 -117t36 -169v-842h-102v842q0 73 -27.5 126t-74.5 85t-108 47.5t-124 15.5q-104 0 -197.5 -55t-135.5 -149q26 -3 56.5 -6t56.5 -13.5t44.5 -30.5t21.5 -55q-58 -15 -93 -64t-35 -110v-633h-106v633 q0 52 23 96t52 78z" />
<glyph unicode="&#xe02;" horiz-adv-x="1151" d="M61 943q0 63 25.5 113.5t68 87t97 55.5t112.5 19q118 0 202.5 -66.5t84.5 -190.5q0 -70 -29 -118t-65 -86.5t-65 -75t-29 -80.5v-497h344q45 0 44 50v1046h104v-1046q0 -67 -39.5 -110.5t-105.5 -43.5h-449v601q0 66 29 110t65 80t65 74t29 93q0 75 -52 121t-124 46 q-34 0 -55 -7.5t-26 -14.5q54 0 96.5 -47t42.5 -113q0 -76 -53.5 -130.5t-131.5 -54.5q-79 0 -132 53t-53 132zM161 943q0 -34 25.5 -59.5t59.5 -25.5t59 25.5t25 59.5t-26 59t-58 25q-34 0 -59.5 -26t-25.5 -58z" />
<glyph unicode="&#xe03;" horiz-adv-x="1235" d="M90 906q0 60 21.5 116.5t59.5 97t88 65t105 24.5q43 0 78 -24.5t58 -56.5q24 20 44 43t38 47q60 -49 109 -109t49 -143q0 -75 -30.5 -127t-65 -92.5t-65 -74t-30.5 -76.5v-492h342q46 0 46 50v1043h102v-1043q0 -67 -39 -110.5t-109 -43.5h-446v596q0 64 30.5 105.5 t65.5 79t65 80t30 105.5q0 30 -14.5 65.5t-36.5 59.5l-85 -85q-23 40 -55 75t-81 35q-61 0 -101.5 -35t-56.5 -83q17 20 43 29t48 9q76 0 129.5 -54t53.5 -131q0 -75 -53.5 -129.5t-131.5 -54.5q-98 0 -151.5 74t-53.5 165zM209 851q0 -34 24.5 -59t61.5 -25q34 0 59 25 t25 59q0 37 -26 61.5t-58 24.5q-37 0 -61.5 -24.5t-24.5 -61.5z" />
<glyph unicode="&#xe04;" horiz-adv-x="1244" d="M151 148v691q0 90 40 160.5t103.5 118.5t143.5 72.5t163 24.5q84 0 164 -24.5t143.5 -71t102 -117.5t38.5 -166v-836h-103v836q0 73 -30.5 124.5t-79.5 85t-110 50.5t-125 17q-61 0 -121.5 -17t-111 -52t-82 -85t-31.5 -120v-544l170 486q20 58 67.5 93t108.5 35 q75 0 129 -52.5t54 -132.5q0 -76 -54 -128.5t-129 -52.5q-76 0 -129 50l-217 -593q-52 15 -78 54t-26 94zM515 728q0 -37 24.5 -63t61.5 -26q34 0 59 26t25 59q0 37 -26 61.5t-58 24.5q-34 0 -60 -24t-26 -58z" />
<glyph unicode="&#xe05;" horiz-adv-x="1244" d="M151 148v700q0 124 77.5 221t190.5 140q18 6 26 6q43 0 91.5 -34.5t79.5 -58.5q26 24 77 58.5t91 34.5q12 0 31 -6q64 -21 107.5 -60t71 -88t41.5 -103.5t14 -102.5v-855h-103v855q0 88 -41 159t-129 102q-15 -3 -38 -18.5t-45.5 -33.5t-43.5 -36.5t-33 -29.5 q-12 11 -33.5 29.5t-44.5 36.5t-46 32t-38 14q-78 -34 -138.5 -102t-60.5 -160v-556l170 486q20 58 67.5 93t108.5 35q75 0 127.5 -54t52.5 -131q0 -76 -52.5 -128.5t-132.5 -52.5q-69 0 -127 51l-214 -591q-55 12 -79.5 55t-24.5 93zM515 724q0 -37 24.5 -62.5t56.5 -25.5 q37 0 61.5 26t24.5 59q0 37 -23.5 61.5t-57.5 24.5q-37 0 -61.5 -24.5t-24.5 -58.5z" />
<glyph unicode="&#xe06;" horiz-adv-x="1420" d="M90 903q0 60 21.5 115t59.5 97t88 68t105 26q43 0 79.5 -24.5t59.5 -56.5l79 90q60 -52 109 -110.5t49 -141.5q0 -72 -26 -125.5t-55 -91t-54.5 -68t-25.5 -56.5v-249q0 -24 17 -44t40 -29l486 -193v1087h102v-1046q0 -46 -22 -98.5t-80 -55.5l-471 191q0 -81 -46.5 -142 t-135.5 -61q-78 0 -127.5 52.5t-49.5 129.5q0 79 54 132t131 53v273q0 54 25 90.5t54 71t54.5 75.5t25.5 104q0 34 -14.5 70.5t-33.5 60.5l-85 -82q-26 37 -58 69t-81 32q-55 0 -100.5 -35t-54.5 -81q14 21 43 28.5t45 7.5q76 0 129.5 -54t53.5 -127q0 -78 -53.5 -133 t-131.5 -55q-49 0 -87 21t-64 54.5t-40 76t-14 84.5zM209 851q0 -37 25.5 -60.5t60.5 -23.5q34 0 59 24t25 60q0 34 -25 60t-59 26q-35 0 -60.5 -26t-25.5 -60zM385 167q0 -34 25 -60t59 -26t60 26t26 60t-26 59.5t-60 25.5t-59 -24.5t-25 -60.5z" />
<glyph unicode="&#xe07;" horiz-adv-x="951" d="M90 591l83 63q151 -188 237.5 -298t129.5 -165q52 -64 67 -84q18 5 31 20t13 58v682q-40 -17 -81 -19q-79 0 -132 53.5t-53 128.5q0 79 53 132t132 53q75 0 130 -52.5t55 -129.5v-848q0 -87 -45 -136t-128 -49h-24zM485 1030q0 -34 25.5 -59t59.5 -25t59 26t25 61 q0 34 -25 58.5t-59 24.5t-59.5 -24.5t-25.5 -61.5z" />
<glyph unicode="&#xe08;" horiz-adv-x="1195" d="M121 728v108q0 88 38 158t100 119.5t141.5 75.5t160.5 26t162 -26t141.5 -72.5t98 -116t37.5 -161.5v-691q0 -55 -24 -94t-79 -54l-203 593q-52 -51 -127 -50q-79 0 -132 52.5t-53 128.5q0 78 53 131.5t129 53.5q61 0 109 -35t67 -93l157 -486v544q0 70 -29 120t-77 85 t-108.5 52t-121.5 17q-58 0 -118.5 -18.5t-108.5 -53.5t-78.5 -86.5t-30.5 -118.5v-108h-104zM482 724q0 -34 24 -59.5t61 -25.5q34 0 57.5 26t23.5 63q0 34 -23.5 58t-57.5 24q-37 0 -61 -24.5t-24 -61.5z" />
<glyph unicode="&#xe09;" horiz-adv-x="1229" d="M121 561q0 75 53.5 130t131.5 55q79 0 130.5 -56.5t51.5 -134.5v-428l388 215q34 18 46 50.5t12 64.5v382q0 70 -32 120t-82 85t-112.5 52t-122.5 17q-64 0 -127.5 -15.5t-112 -49t-78.5 -86.5t-30 -126v-41h-104v41q0 98 38 169t100 118.5t144 69.5t170 22 q81 0 161.5 -24.5t146 -72.5t104.5 -117.5t39 -161.5v-497q61 -18 98 -66t37 -109q0 -78 -53.5 -131.5t-131.5 -53.5q-88 0 -135 54t-47 140l-316 -176q-51 6 -77 55t-26 96v257q-30 -26 -79 -26q-75 0 -130 50t-55 129zM222 561q0 -34 23.5 -59t60.5 -25q34 0 58 25t24 59 t-24.5 59t-57.5 25q-37 0 -60.5 -25t-23.5 -59zM903 167q0 -34 24.5 -60t58.5 -26q37 0 60.5 24.5t23.5 61.5q0 34 -24.5 59.5t-59.5 25.5q-34 0 -58.5 -26t-24.5 -59z" />
<glyph unicode="&#xe0a;" horiz-adv-x="1169" d="M61 946q0 63 25.5 113.5t68 85.5t97 54t112.5 19q113 0 191 -55.5t93 -170.5q43 3 88 23.5t82 56t61 77.5t24 91h115q0 -46 -16 -91.5t-43.5 -86.5t-62.5 -74t-72 -54q131 -58 131 -206v-574q0 -67 -39.5 -110.5t-108.5 -43.5h-446v607q0 66 29 108.5t65 78.5t65 72.5 t29 91.5q0 78 -53 122.5t-123 44.5q-55 0 -81 -22q57 0 98 -48.5t41 -108.5q0 -76 -53.5 -132t-128.5 -56q-79 0 -133.5 54.5t-54.5 133.5zM161 943q0 -34 24 -59.5t61 -25.5q34 0 59 25.5t25 59.5t-26 59t-58 25q-34 0 -59.5 -26t-25.5 -58zM463 104h344q45 0 44 50v574 q0 43 -19 71t-49.5 46.5t-68.5 29t-75 10.5q-11 -40 -40 -76t-59.5 -69.5t-53.5 -65.5t-23 -67v-503z" />
<glyph unicode="&#xe0b;" horiz-adv-x="1253" d="M90 903q0 58 20 112.5t55 98t85 69.5t111 26q49 0 82.5 -26t56.5 -55q46 46 82 90q57 -43 101.5 -97t53.5 -129q43 6 86.5 28.5t80 56t61 75.5t24.5 88h114q0 -46 -16.5 -91.5t-44 -86.5t-62 -74t-71.5 -54q130 -64 130 -206v-574q0 -67 -39 -110.5t-109 -43.5h-446v588 q0 66 30.5 109t65.5 82t65 81.5t30 105.5q0 30 -14.5 65.5t-36.5 59.5l-85 -85q-23 37 -53.5 73.5t-79.5 36.5q-46 0 -95.5 -29t-65.5 -89q15 23 45 30.5t46 7.5q76 0 129.5 -54t53.5 -131q0 -75 -56.5 -128t-131.5 -53q-94 0 -148 72.5t-54 160.5zM209 851q0 -34 24.5 -59 t61.5 -25q34 0 59 25.5t25 58.5q0 37 -25 61.5t-59 24.5q-37 0 -61.5 -24.5t-24.5 -61.5zM549 104h342q46 0 46 50v574q0 40 -20 68t-50.5 46.5t-66.5 29t-72 13.5q-15 -55 -46 -89.5t-60 -65t-51 -65.5t-22 -89v-472z" />
<glyph unicode="&#xe0c;" horiz-adv-x="1651" d="M121 827l15 58q40 148 156 240.5t272 92.5q176 0 285 -95.5t109 -277.5v-457q0 -34 15.5 -52t41.5 -33l336 -188v1085h104v-1049q0 -49 -23 -100t-81 -51l-321 188q3 -9 3 -27q0 -69 -55.5 -122.5t-126.5 -53.5q-78 0 -131 52.5t-53 132.5q0 76 54.5 129t133.5 53v493 q0 136 -77.5 203.5t-213.5 67.5q-101 0 -182.5 -56.5t-123.5 -147.5q26 -3 56.5 -6t58 -13.5t46 -29t18.5 -53.5q-61 -18 -94.5 -67t-33.5 -110v-300q37 18 79 19q78 0 131.5 -53t53.5 -132q0 -75 -53.5 -128.5t-131.5 -53.5q-76 0 -130.5 49.5t-54.5 129.5v469 q0 49 21.5 93t53.5 81zM306 170q0 -37 24.5 -63t57.5 -26q37 0 60.5 26t23.5 60q0 37 -23.5 61t-60.5 24q-34 0 -58 -24.5t-24 -57.5zM767 170q0 -37 23.5 -61.5t60.5 -24.5q34 0 58.5 24.5t24.5 58.5q0 37 -23 61t-60 24t-60.5 -24.5t-23.5 -57.5z" />
<glyph unicode="&#xe0d;" horiz-adv-x="1651" d="M121 830l15 55q43 148 150.5 240.5t265.5 92.5q176 0 285 -95.5t109 -277.5v-741h361q46 0 44 50v1046h104v-1046q0 -67 -39.5 -110.5t-108.5 -43.5h-465v845q0 136 -77 203.5t-213 67.5q-101 0 -176.5 -56.5t-117.5 -144.5q26 -3 56.5 -7.5t56.5 -13.5t44.5 -29 t21.5 -55q-61 -18 -94.5 -67t-33.5 -107v-303q37 18 79 19q78 0 131.5 -53t53.5 -129q0 -78 -53.5 -131.5t-131.5 -53.5q-82 0 -133.5 58t-51.5 136v457q0 46 21.5 90t53.5 81zM306 170q0 -34 24.5 -60t57.5 -26q37 0 60.5 24.5t23.5 61.5q0 34 -23.5 59.5t-60.5 25.5 q-34 0 -58 -26t-24 -59zM833 -292q0 79 53.5 132t131.5 53q76 0 129 -54t53 -131q0 -31 -9 -57q70 34 97.5 91.5t27.5 130.5h106q0 -162 -96 -257.5t-256 -95.5q-40 0 -82 13t-77 36t-56.5 57.5t-21.5 81.5zM934 -292q0 -37 23.5 -60.5t60.5 -23.5q34 0 59.5 26t25.5 58 q0 34 -25.5 60t-59.5 26q-37 0 -60.5 -24.5t-23.5 -61.5z" />
<glyph unicode="&#xe0e;" horiz-adv-x="1360" d="M90 167q0 76 53.5 130.5t131.5 54.5q37 0 80 -22v303q0 46 13.5 91.5t47.5 79.5l-158 23l14 58q43 154 170.5 243.5t281.5 89.5q81 0 160 -23.5t141.5 -72.5t100 -118.5t37.5 -161.5v-996q0 -161 -97 -267t-251 -140l-190 145q-15 -64 -65.5 -106t-116.5 -42 q-76 0 -129.5 53.5t-53.5 131.5q0 76 53.5 130.5t129.5 54.5q39 0 81 -21v137h104v-208l214 -159q101 34 160 109.5t59 181.5v996q0 73 -30.5 124.5t-77.5 85t-106.5 49t-118.5 15.5q-103 0 -197 -55t-137 -149q26 -3 57 -6t56.5 -13.5t44 -30.5t21.5 -55q-61 -18 -87 -67 t-26 -107v-454q0 -78 -51 -137.5t-134 -59.5q-78 0 -131.5 52.5t-53.5 132.5zM191 167q0 -34 24.5 -60t59.5 -26q34 0 58.5 26t24.5 60q0 37 -24.5 61t-58.5 24q-37 0 -60.5 -25.5t-23.5 -59.5zM361 -379q0 -37 23.5 -60.5t58.5 -23.5q37 0 60.5 23.5t23.5 57.5 q0 37 -23.5 62t-60.5 25q-35 0 -58.5 -25t-23.5 -59z" />
<glyph unicode="&#xe0f;" horiz-adv-x="1360" d="M90 167q0 76 53.5 130.5t131.5 54.5q37 0 80 -22v303q0 46 13.5 91.5t47.5 79.5l-158 23l14 58q43 154 170.5 243.5t281.5 89.5q81 0 160 -23.5t141.5 -72.5t100 -118.5t37.5 -161.5v-1018q0 -79 -6 -135t-28 -99.5t-66.5 -78.5t-116.5 -72l-119 118l-121 -112l-93 101 q-24 -52 -70 -81t-100 -29q-76 0 -129.5 53.5t-53.5 131.5q0 76 53.5 130.5t129.5 54.5q39 0 81 -21v137h104v-234l100 -104l102 98l128 -122q40 21 60.5 50t30 63.5t11 71.5t1.5 76v1021q0 73 -30.5 124.5t-77.5 85t-106.5 49t-115.5 15.5q-106 0 -198.5 -53.5 t-138.5 -150.5q26 -3 57 -6t56.5 -13.5t44 -30.5t21.5 -55q-61 -18 -87 -67t-26 -107v-454q0 -78 -51 -137.5t-134 -59.5q-78 0 -131.5 52.5t-53.5 132.5zM191 167q0 -34 23.5 -60t60.5 -26t60 26t23 60q0 37 -24.5 61t-58.5 24q-37 0 -60.5 -26t-23.5 -59zM361 -379 q0 -37 23.5 -60.5t58.5 -23.5q37 0 60.5 23.5t23.5 57.5q0 37 -23.5 62t-60.5 25q-35 0 -58.5 -25t-23.5 -59z" />
<glyph unicode="&#xe10;" horiz-adv-x="1126" d="M118 -437q0 70 52 123.5t125 53.5q34 0 75 -21v130h99v-249l77 -97l90 91l116 -100q34 18 54.5 51t20.5 67q0 12 -3 18q-26 -15 -66 -15q-70 0 -117.5 48t-47.5 115q0 70 49 118.5t119 48.5q69 0 118 -49.5t49 -120.5q0 -78 -4.5 -134.5t-23 -100t-56 -78.5t-107.5 -69 l-98 101l-93 -101l-95 98q-20 -49 -63 -76.5t-93 -27.5q-73 0 -125 52t-52 124zM154 861q0 61 12.5 119.5t43 109t83.5 80.5t135 30q87 0 179.5 -21.5t179.5 -21.5q34 0 66 18.5t53 42.5l83 -67q-34 -42 -90.5 -69t-111.5 -27q-87 0 -179.5 19.5t-179.5 19.5 q-70 0 -114.5 -36.5t-53.5 -105.5q128 -18 258 -35t255 -35q156 -24 158 -185v-549q0 -52 -24.5 -94t-79.5 -54h-3q-3 9 -34.5 66.5t-68 124.5t-65 123t-31.5 65q-24 -27 -59.5 -41t-71.5 -14q-75 0 -130 53.5t-55 128.5q0 76 53.5 130.5t128.5 54.5q61 0 107.5 -37.5 t71.5 -89.5l140 -289q5 -9 6.5 -19t4.5 -19q3 -12 3 -25v476q0 43 -13 64t-56 26zM212 -437q0 -34 24 -57.5t59 -23.5q34 0 57.5 23t23.5 55q0 34 -24.5 59.5t-56.5 25.5q-35 0 -59 -24t-24 -58zM408 506q0 -34 26 -59t60 -25q37 0 61 23.5t24 60.5q0 34 -26 59.5t-59 25.5 q-34 0 -60 -24t-26 -61zM682 -218q0 -34 23 -56.5t56 -22.5q34 0 54.5 22.5t20.5 56.5t-20.5 55t-54.5 21t-56.5 -21t-22.5 -55z" />
<glyph unicode="&#xe11;" horiz-adv-x="1493" d="M90 900q0 61 20 117t56.5 98t88 68t115.5 26q40 0 75 -26t55 -58q24 23 44 44.5t38 45.5q60 -43 109 -106t49 -148q0 -70 -23 -112t-50.5 -74t-50.5 -64t-23 -81v-375q0 8 3 20q3 9 5.5 21.5t8.5 27.5l348 870q170 0 255 -66.5t85 -245.5v-882h-104v882q0 37 -4.5 72 t-20 65t-42.5 48t-72 18q-23 0 -46 -49q-109 -260 -209 -518t-207 -518q-57 3 -81 53.5t-24 97.5v479q0 70 22.5 109t51.5 71t51.5 64t22.5 87q0 34 -14.5 68.5t-36.5 58.5l-85 -85q-15 34 -51 73.5t-79 39.5q-52 0 -98.5 -29t-65.5 -89q15 20 43.5 29t50.5 9 q76 0 128 -55.5t52 -129.5q0 -78 -55 -131t-130 -53q-94 0 -149.5 73t-55.5 160zM209 851q0 -37 24.5 -60.5t61.5 -23.5q34 0 59 24t25 60q0 34 -25 60t-59 26q-37 0 -61.5 -26t-24.5 -60z" />
<glyph unicode="&#xe12;" horiz-adv-x="1669" d="M151 151v704q0 119 65 217.5t175 139.5q17 6 31 6q40 0 80.5 -35t70.5 -58q12 9 32 25t41 33t42 27.5t36 10.5q12 0 25 -6q124 -40 175 -134.5t51 -222.5v-470q0 -52 58 -82l337 -188v1070h103v-1034q0 -21 -4.5 -48.5t-16.5 -51.5t-32 -39t-50 -15l-318 188q3 -9 3 -24 q0 -75 -53 -127t-132 -52q-78 0 -131.5 54t-53.5 131q0 70 51 127.5t122 57.5h15v503q0 88 -33 159t-122 102q-9 -3 -30 -18.5t-43.5 -33.5t-42.5 -36.5t-29 -27.5q-9 9 -30.5 27.5t-43.5 36.5t-42 33.5t-32 15.5q-79 -34 -124.5 -103.5t-45.5 -157.5v-682l278 376 q-64 15 -106 65.5t-42 116.5q0 79 54.5 131.5t130.5 52.5q75 0 128.5 -54t53.5 -127q0 -67 -40 -118l-457 -616q-55 3 -79.5 53.5t-24.5 97.5zM482 731q0 -34 25.5 -60t59.5 -26t59 24.5t25 61.5q0 34 -23.5 59t-60.5 25q-34 0 -59.5 -25t-25.5 -59zM784 176 q0 -37 24.5 -61.5t61.5 -24.5q34 0 58 24.5t24 58.5q0 37 -24.5 62t-57.5 25q-37 0 -61.5 -25.5t-24.5 -58.5z" />
<glyph unicode="&#xe13;" horiz-adv-x="1651" d="M121 827l15 58q40 145 147.5 239t262.5 94q182 0 292.5 -95.5t110.5 -280.5v-715l349 215q34 21 45 47.5t11 67.5v740h104v-855q60 -18 96.5 -66t36.5 -109q0 -78 -52.5 -131.5t-132.5 -53.5q-84 0 -134.5 55.5t-50.5 138.5l-275 -176q-55 6 -78 55t-23 93v694 q0 136 -84.5 205t-211.5 69q-104 0 -176.5 -58t-114.5 -146q26 -3 56.5 -6t56.5 -13.5t44.5 -30.5t21.5 -55q-61 -18 -87 -67t-26 -107v-303q43 21 79 22q78 0 131.5 -54.5t53.5 -130.5q0 -78 -53 -131.5t-132 -53.5q-85 0 -135 58t-50 139v454q0 46 14 91.5t46 79.5z M321 167q0 -34 24.5 -60t57.5 -26q37 0 61 26t24 60t-24 59.5t-61 25.5q-34 0 -58 -24.5t-24 -60.5zM1322 167q0 -37 23.5 -61.5t60.5 -24.5q34 0 60 24.5t26 61.5q0 34 -26 59.5t-60 25.5t-59 -26t-25 -59z" />
<glyph unicode="&#xe14;" horiz-adv-x="1244" d="M151 148v694q0 90 40 160.5t103.5 119.5t144 72.5t162.5 23.5q84 0 164 -23.5t143.5 -71t102 -118.5t38.5 -166v-839h-106v839q0 73 -30.5 124.5t-79.5 85t-108.5 50.5t-123.5 17q-61 0 -123 -17t-112.5 -50.5t-80.5 -85t-30 -121.5v-669l278 376q-64 12 -106 61.5 t-42 117.5q0 79 54.5 131.5t130.5 52.5q75 0 128.5 -52.5t53.5 -128.5q0 -66 -40 -118l-457 -613q-55 6 -79.5 55t-24.5 93zM485 728q0 -34 24 -60t58 -26q37 0 62 26t25 60t-25 59.5t-59 25.5q-37 0 -61 -24t-24 -61z" />
<glyph unicode="&#xe15;" horiz-adv-x="1244" d="M151 154v697q0 121 79 218t192 140q18 6 26 6q43 0 88.5 -34.5t79.5 -58.5q29 24 81 58.5t87 34.5q6 0 16 -1.5t15 -4.5q122 -40 178 -133t56 -221v-855h-103v855q0 88 -41 159t-129 102q-15 -3 -38 -18.5t-45.5 -33.5t-43.5 -36.5t-33 -29.5q-12 8 -33.5 28t-44.5 38 t-46 32t-38 17q-78 -34 -138.5 -102t-60.5 -160v-678l281 373q-67 12 -109 63t-42 119q0 76 54.5 128.5t130.5 52.5q75 0 130 -52.5t55 -128.5q0 -61 -40 -115l-460 -613q-55 6 -79.5 56.5t-24.5 97.5zM485 728q0 -37 24 -61.5t61 -24.5q34 0 59 24.5t25 57.5q0 37 -25 63 t-59 26t-59.5 -26t-25.5 -59z" />
<glyph unicode="&#xe16;" horiz-adv-x="1223" d="M121 827l15 58q43 154 170.5 243.5t281.5 89.5q81 0 161.5 -23.5t141.5 -72.5t98.5 -118.5t37.5 -161.5v-842h-102v842q0 70 -30.5 120t-77.5 85t-106.5 52t-119.5 17q-104 0 -197.5 -55t-135.5 -149q26 -3 56.5 -6t56.5 -13.5t44.5 -29t21.5 -53.5q-58 -18 -93 -67 t-35 -110v-300q37 18 79 19q78 0 131.5 -53t53.5 -132q0 -75 -53.5 -130t-131.5 -55q-82 0 -132 54t-50 137v463q0 46 20 88.5t52 82.5zM306 170q0 -37 24 -63t58 -26q37 0 60.5 26t23.5 60q0 37 -23.5 61t-60.5 24q-34 0 -58 -24.5t-24 -57.5z" />
<glyph unicode="&#xe17;" horiz-adv-x="1360" d="M90 1027q0 79 53.5 132t131.5 53q76 0 130.5 -51t54.5 -131v-775q0 11 3 23t4.5 23t9.5 26l321 870q164 0 264.5 -65t100.5 -244v-888h-102v888q0 73 -34.5 136.5t-126.5 63.5q-34 0 -52 -45l-388 -1043q-60 3 -82.5 55t-22.5 96v713q-37 -17 -80 -19q-78 0 -131.5 53.5 t-53.5 128.5zM191 1027q0 -34 23.5 -59t60.5 -25q34 0 58.5 26t24.5 58q0 34 -23 60t-60 26t-60.5 -24.5t-23.5 -61.5z" />
<glyph unicode="&#xe18;" horiz-adv-x="1117" d="M136 851v43q0 130 69.5 221t210.5 91q87 0 182.5 -23t182.5 -23q34 0 66 17t53 41l80 -64q-34 -43 -89 -69.5t-110 -26.5q-87 0 -182.5 22.5t-182.5 22.5t-120 -42.5t-41 -120.5l512 -70q78 -12 116.5 -59t38.5 -123v-534q0 -67 -38.5 -110.5t-107.5 -43.5h-551v715h102 v-611h446q45 0 45 50v525q0 43 -11.5 64t-57.5 27z" />
<glyph unicode="&#xe19;" horiz-adv-x="1314" d="M90 1027q0 79 53.5 132t131.5 53q79 0 132 -52.5t53 -132.5v-915l501 209q26 12 41.5 41t15.5 57v778h104v-855q61 -15 97 -64.5t36 -110.5q0 -78 -54.5 -131.5t-130.5 -53.5q-84 0 -134.5 58t-50.5 136l-428 -176q-54 6 -78 55t-24 96v713q-37 -17 -80 -19 q-78 0 -131.5 53.5t-53.5 128.5zM191 1027q0 -34 24.5 -59t59.5 -25q34 0 58.5 26t24.5 58q0 34 -24.5 60t-58.5 26q-37 0 -60.5 -24.5t-23.5 -61.5zM986 167q0 -34 25 -60t59 -26t59 24.5t25 61.5q0 34 -25.5 59.5t-58.5 25.5q-34 0 -59 -26t-25 -59z" />
<glyph unicode="&#xe1a;" horiz-adv-x="1360" d="M90 1033q0 76 53.5 130.5t131.5 54.5q79 0 132 -52.5t53 -132.5v-929h555q46 0 46 50v1046h102v-1046q0 -67 -39 -110.5t-109 -43.5h-660v870q-43 -20 -80 -22q-78 0 -131.5 55t-53.5 130zM191 1033q0 -34 23.5 -59t60.5 -25q34 0 58.5 24.5t24.5 59.5q0 34 -24.5 60 t-58.5 26q-37 0 -60.5 -26t-23.5 -60z" />
<glyph unicode="&#xe1b;" horiz-adv-x="1360" d="M90 1033q0 76 53.5 130.5t131.5 54.5q85 0 135 -48t50 -137v-929h555q46 0 46 50v1729h102v-1729q0 -67 -39 -110.5t-109 -43.5h-660v870q-43 -20 -80 -22q-78 0 -131.5 55t-53.5 130zM191 1033q0 -34 23.5 -59t60.5 -25q34 0 58.5 25.5t24.5 58.5q0 34 -24.5 60 t-58.5 26q-37 0 -60.5 -26t-23.5 -60z" />
<glyph unicode="&#xe1c;" horiz-adv-x="1253" d="M151 151v885q0 75 54.5 128.5t130.5 53.5q75 0 130 -54t55 -131q0 -75 -54 -130t-131 -55q-40 0 -81 22v-713l309 328h78l313 -328v1040h103v-1049q0 -49 -24.5 -98.5t-81.5 -49.5l-348 370l-346 -370q-58 0 -82.5 50.5t-24.5 100.5zM252 1033q0 -34 24 -59t60 -25 q34 0 60 25.5t26 58.5q0 34 -26 60t-60 26t-59 -24.5t-25 -61.5z" />
<glyph unicode="&#xe1d;" horiz-adv-x="1253" d="M151 151v885q0 75 54.5 128.5t130.5 53.5q75 0 130 -54t55 -131q0 -75 -54 -130t-131 -55q-40 0 -81 22v-713l309 328h78l313 -328v1723h103v-1732q0 -49 -24.5 -98.5t-81.5 -49.5l-348 370l-346 -370q-58 0 -82.5 50.5t-24.5 100.5zM252 1033q0 -34 24 -59t60 -25 q34 0 60 25.5t26 58.5q0 34 -26 60t-60 26t-59 -24.5t-25 -61.5z" />
<glyph unicode="&#xe1e;" horiz-adv-x="1457" d="M90 1033q0 76 53.5 130.5t131.5 54.5q76 0 132 -55.5t56 -132.5v-767q0 6 3 18q3 9 4.5 20t9.5 23l287 728h81l295 -728q5 -12 6.5 -22t4.5 -21q3 -12 3 -18v955h104v-1067q0 -52 -23 -101.5t-84 -49.5l-344 885l-347 -885q-57 6 -82.5 53.5t-25.5 97.5v719 q-43 -22 -80 -22q-78 0 -131.5 55t-53.5 130zM191 1033q0 -34 24.5 -59t59.5 -25q34 0 60 25.5t26 58.5q0 37 -26 61.5t-60 24.5q-37 0 -60.5 -26t-23.5 -60z" />
<glyph unicode="&#xe1f;" horiz-adv-x="1457" d="M90 1033q0 76 53.5 130.5t131.5 54.5q76 0 132 -55.5t56 -132.5v-767q0 6 3 18q3 9 4.5 20t9.5 23l287 728h81l295 -728q5 -12 6.5 -22t4.5 -21q3 -12 3 -18v1617h104v-1729q0 -52 -23 -101.5t-84 -49.5l-344 885l-347 -885q-57 6 -82.5 53.5t-25.5 97.5v719 q-43 -22 -80 -22q-78 0 -131.5 55t-53.5 130zM191 1033q0 -34 24.5 -59t59.5 -25q34 0 60 25.5t26 58.5q0 37 -26 61.5t-60 24.5q-37 0 -60.5 -26t-23.5 -60z" />
<glyph unicode="&#xe20;" horiz-adv-x="1360" d="M90 167q0 79 53.5 132t131.5 53q43 0 80 -19v297q0 49 13.5 93t47.5 78l-158 23l14 58q43 151 170.5 242t281.5 91q87 0 166 -22t140 -68t97 -117t36 -169v-839h-102v839q0 73 -27.5 124.5t-73 85t-104 49t-122.5 15.5q-106 0 -200 -53.5t-140 -150.5q26 -3 57 -6 t56.5 -13.5t44 -29.5t21.5 -56q-61 -15 -87 -64t-26 -110v-451q0 -78 -51 -136t-134 -58q-78 0 -131.5 52.5t-53.5 129.5zM191 167q0 -34 24.5 -58.5t59.5 -24.5q37 0 60 24.5t23 61.5q0 34 -24.5 58t-58.5 24q-37 0 -60.5 -24.5t-23.5 -60.5z" />
<glyph unicode="&#xe21;" horiz-adv-x="1342" d="M90 1030q0 79 53.5 132t131.5 53q79 0 132 -51t53 -134v-651q0 -24 15.5 -45.5t39.5 -27.5l528 -196v1087h103v-1043q0 -49 -23 -101.5t-80 -52.5q-127 49 -256.5 95.5t-256.5 92.5q3 -9 3 -24q0 -72 -54 -125.5t-130 -53.5q-75 0 -130 52.5t-55 132.5q0 76 52.5 129 t128.5 53h7v515q-29 -17 -77 -19q-78 0 -131.5 53.5t-53.5 128.5zM191 1030q0 -34 24.5 -59t59.5 -25q34 0 58.5 26t24.5 58q0 34 -24.5 60t-58.5 26q-37 0 -60.5 -24.5t-23.5 -61.5zM263 170q0 -37 26 -61.5t60 -24.5t59.5 24.5t25.5 58.5q0 37 -24.5 62.5t-60.5 25.5 q-34 0 -60 -26t-26 -59z" />
<glyph unicode="&#xe22;" horiz-adv-x="1235" d="M121 867q0 52 20 112t56.5 112t86 86.5t107.5 34.5q78 0 131.5 -52.5t53.5 -129.5q0 -78 -53.5 -131.5t-131.5 -53.5q-46 0 -92.5 27.5t-61.5 79.5q-6 -15 -9 -42.5t-3 -42.5q0 -60 19 -95t51 -52t68.5 -21.5t70.5 -4.5h145q0 -52 -24.5 -71t-66.5 -22q-20 0 -34 -2.5 t-26 -2.5q-49 -3 -62.5 -26.5t-13.5 -57.5v-361q0 -49 51 -47h534v1090h102v-1194h-642q-61 0 -104.5 45t-43.5 106v376q0 49 10 64.5t27 24.5q-88 29 -126.5 94.5t-38.5 156.5zM306 1027q0 -34 26 -57.5t59 -23.5q37 0 61.5 24.5t24.5 59.5q0 34 -24.5 58.5t-61.5 24.5 q-34 0 -59.5 -24.5t-25.5 -61.5z" />
<glyph unicode="&#xe23;" horiz-adv-x="996" d="M75 836q0 61 11.5 126t41 120t81 89.5t133.5 34.5q87 0 183.5 -23t183.5 -23q34 0 66 17t52 41l79 -64q-34 -43 -88 -71t-109 -28q-87 0 -182.5 24t-184.5 24q-79 0 -115 -52.5t-45 -122.5l397 -52q87 -12 122.5 -60.5t35.5 -133.5v-515q0 -75 -54.5 -128.5t-130.5 -53.5 q-75 0 -130 52.5t-55 129.5q0 79 55 132t130 53q46 0 81 -19v349q0 46 -13 65.5t-59 25.5zM466 167q0 -34 26 -58.5t60 -24.5t59 24.5t25 58.5t-24 59.5t-60 25.5q-34 0 -60 -24t-26 -61z" />
<glyph unicode="&#xe24;" horiz-adv-x="1223" d="M121 830l15 55q43 151 170.5 242t281.5 91q87 0 166 -22t140 -68t97 -115.5t36 -167.5v-1317h-102v1317q0 73 -27.5 124.5t-74.5 83.5t-108 47.5t-124 15.5q-104 0 -197.5 -53.5t-135.5 -150.5q26 -3 56.5 -6t56.5 -13.5t44.5 -29t21.5 -53.5q-61 -18 -94.5 -67 t-33.5 -107v-303q37 18 79 19q78 0 131.5 -53t53.5 -129q0 -78 -53.5 -131.5t-131.5 -53.5q-79 0 -132 51t-53 134v466q0 46 21.5 90t53.5 81zM309 170q0 -34 23 -58.5t56 -24.5q34 0 57.5 24.5t23.5 58.5t-23.5 56.5t-57.5 22.5t-56.5 -23t-22.5 -56z" />
<glyph unicode="&#xe25;" horiz-adv-x="1235" d="M151 737v108q0 90 40 160.5t103.5 118t145 71t164.5 23.5q84 0 162.5 -23.5t139 -69.5t97 -115.5t36.5 -161.5v-700q0 -46 -32 -89.5t-73 -58.5q-34 75 -77.5 187.5t-92.5 221.5t-94 200t-79 128q-49 -27 -96 -71t-86 -97.5t-65 -111t-32 -112.5q21 6 45.5 9.5t48.5 3.5 q75 -6 121 -62t46 -132q0 -72 -55 -122.5t-127 -50.5q-58 0 -97 26t-62 66.5t-32 91t-9 100.5q0 94 32 181t88 162.5t133.5 140.5t168.5 114q37 -34 80.5 -103.5t85.5 -159t84.5 -186.5t73.5 -187v611q0 70 -29 120t-76.5 83.5t-106 49t-121.5 15.5q-61 0 -123 -15.5 t-112.5 -49t-82 -85t-31.5 -121.5v-108h-104zM306 176q0 -34 26 -61.5t59 -27.5q34 0 60 26t26 60t-23 56.5t-57 28.5q-34 0 -62.5 -21.5t-28.5 -60.5z" />
<glyph unicode="&#xe26;" horiz-adv-x="1360" d="M90 170q0 76 53.5 129t131.5 53q43 0 80 -19v303q0 46 13.5 90t47.5 81l-158 23l14 55q43 151 170.5 242t281.5 91q87 0 166 -22t140 -68t97 -115.5t36 -167.5v-1317h-102v1317q0 73 -27.5 124.5t-74.5 83.5t-107 47.5t-124 15.5q-103 0 -197 -53.5t-137 -150.5 q26 -3 57 -6t56.5 -13.5t44 -28t21.5 -54.5q-61 -18 -87 -67t-26 -107v-466q0 -87 -48 -136t-137 -49q-78 0 -131.5 52.5t-53.5 132.5zM191 170q0 -37 24.5 -61.5t59.5 -24.5q37 0 61.5 24.5t24.5 61.5q0 34 -26 58t-60 24q-37 0 -60.5 -24.5t-23.5 -57.5z" />
<glyph unicode="&#xe27;" horiz-adv-x="1120" d="M107 737v99q0 185 116 282t295 97q84 0 159 -26t129.5 -74t86.5 -117.5t32 -158.5v-672q0 -78 -55 -130t-130 -52q-78 0 -131.5 52.5t-53.5 129.5q0 79 52.5 132t132.5 53q43 0 81 -19v506q0 133 -88 203.5t-215 70.5q-136 0 -222.5 -66.5t-86.5 -210.5v-99h-102z M654 167q0 -34 26 -58.5t60 -24.5t59 24.5t25 58.5t-25.5 59.5t-58.5 25.5q-34 0 -60 -24.5t-26 -60.5z" />
<glyph unicode="&#xe28;" horiz-adv-x="1232" d="M151 148v694q0 93 38.5 163.5t100.5 118t140.5 71t157.5 23.5q87 0 178.5 -27.5t158.5 -87.5q34 72 42 122.5t8 56.5h107q0 -3 -3 -25.5t-12 -59.5t-26 -83.5t-46 -98.5q40 -75 38 -176v-839h-102v839q0 40 -9 76q-55 -64 -152 -120q14 -37 14 -71q0 -82 -57 -133 t-126 -51q-76 0 -132 53l-214 -593q-40 6 -61 29t-30 49q-12 34 -13 70zM255 292l170 489q20 61 69 94.5t110 33.5q29 0 55 -10.5t47 -22.5q90 55 142 113q6 6 7 20q0 27 -31.5 47t-76 33.5t-89.5 20t-70 6.5q-58 0 -119 -17t-107.5 -50.5t-76.5 -85t-30 -121.5v-550z M515 724q0 -34 26 -58t60 -24t59 24.5t25 57.5q0 34 -26 60t-58 26q-34 0 -60 -24.5t-26 -61.5z" />
<glyph unicode="&#xe29;" horiz-adv-x="1360" d="M90 1033q0 76 53.5 130.5t131.5 54.5q79 0 132 -52.5t53 -132.5v-929h555q46 0 46 50v361q-106 -49 -206 -49q-156 0 -220.5 62.5t-64.5 150.5q0 79 53 127.5t132 48.5q69 0 122.5 -48.5t53.5 -127.5q0 -34 -11 -64t-35 -54q90 0 176 61v578h102v-466q6 9 11.5 18 t10.5 21l91 -49q-40 -79 -113 -142v-428q0 -67 -39 -110.5t-109 -43.5h-660v870q-43 -20 -80 -22q-78 0 -131.5 55t-53.5 130zM191 1033q0 -34 23.5 -59t60.5 -25q34 0 58.5 24.5t24.5 59.5q0 34 -24.5 60t-58.5 26q-37 0 -60.5 -26t-23.5 -60zM670 679q0 -34 24 -60t61 -26 q26 0 50.5 26t24.5 60t-24.5 59.5t-50.5 25.5q-37 0 -61 -24.5t-24 -60.5z" />
<glyph unicode="&#xe2a;" horiz-adv-x="1238" d="M151 737v108q0 90 40 160.5t103.5 118t145 71t164.5 23.5q78 0 155 -20.5t141 -69.5q34 34 47.5 66.5t15.5 90.5h119q0 -82 -29 -128.5t-78 -101.5q64 -90 64 -207v-700q0 -46 -32 -89.5t-73 -58.5l-373 731q-107 -72 -178 -167t-83 -222q34 15 85 16q69 -6 118 -59 t49 -123q0 -78 -53.5 -131.5t-128.5 -53.5q-67 0 -106 26t-59 66.5t-24.5 91t-4.5 100.5q0 191 106 337t285 239q69 40 140 90.5t129 104.5q-52 37 -111.5 53.5t-120.5 16.5t-123 -15.5t-112.5 -49t-82 -85t-31.5 -121.5v-108h-104zM286 176q0 -34 23.5 -61.5t57.5 -27.5 t60.5 24.5t26.5 58.5t-22 58t-56 30q-37 0 -63.5 -21.5t-26.5 -60.5zM651 781l286 -544v611q0 70 -31 121q-52 -51 -120 -102.5t-135 -85.5z" />
<glyph unicode="&#xe2b;" horiz-adv-x="1374" d="M90 1033q0 76 53.5 130.5t131.5 54.5q76 0 130.5 -51t54.5 -131v-848l431 639q6 12 10.5 29t-10.5 29q-78 49 -78 151q0 75 53 128.5t132 53.5q78 0 130 -54t52 -131q0 -34 -13 -63.5t-30 -54.5q14 -18 27 -48.5t13 -79.5v-787h-104v787q0 61 -17 70.5t-23 -2.5 l-573 -855q-40 6 -62 29t-31 49q-12 34 -12 70v722q-43 -20 -80 -22q-78 0 -131.5 53.5t-53.5 131.5zM191 1033q0 -37 24.5 -60.5t59.5 -23.5q34 0 58.5 24.5t24.5 56.5q0 37 -23 63t-60 26t-60.5 -26t-23.5 -60zM912 1036q0 -37 24.5 -60.5t61.5 -23.5q34 0 57.5 23 t23.5 58q0 37 -24.5 63t-56.5 26q-37 0 -61.5 -26t-24.5 -60z" />
<glyph unicode="&#xe2c;" horiz-adv-x="1469" d="M90 1030q0 79 53.5 132t131.5 53q76 0 129 -52.5t53 -129.5v-845q0 9 3 21q3 9 4.5 20t7.5 20l306 488h64l301 -488q5 -9 6.5 -20t4.5 -20q3 -12 3 -21v663q0 46 -41 46h-43q-75 0 -128.5 53t-53.5 132q0 75 54.5 128.5t130.5 53.5q84 0 134.5 -60.5t50.5 -139.5v-66 q21 0 44 2.5t43 8.5q24 6 52 12l25 -93q-26 -6 -57 -16q-55 -15 -107 -15v-749q0 -49 -23 -100t-84 -51l-344 588l-347 -588q-57 6 -82.5 53.5t-25.5 97.5v719q-37 -19 -80 -19q-78 0 -131.5 53.5t-53.5 128.5zM191 1030q0 -34 26 -59t58 -25q34 0 60 27t26 60 q0 34 -26 58.5t-60 24.5q-37 0 -60.5 -24.5t-23.5 -61.5zM992 1082q0 -34 25 -59t59 -25t59 24t25 60q0 34 -23.5 59t-60.5 25q-34 0 -59 -25t-25 -59z" />
<glyph unicode="&#xe2d;" horiz-adv-x="1232" d="M107 737v102q0 93 39 165t104 119.5t147.5 71t166.5 23.5q81 0 166 -23.5t153.5 -71t110.5 -118.5t42 -163v-842h-614q-64 0 -107 40.5t-43 107.5v519q0 73 52 128.5t127 55.5q79 0 133.5 -52.5t54.5 -131.5q0 -72 -51.5 -128.5t-127.5 -56.5q-46 0 -84 21v-355 q0 -46 46 -44h512v738q0 70 -35 121.5t-89.5 85t-119.5 50.5t-126 17q-64 0 -126 -17t-114 -50.5t-83.5 -86.5t-31.5 -123v-102h-102zM373 667q0 -37 26 -61t58 -24q37 0 60 27t23 61q0 37 -26 59.5t-60 22.5t-57.5 -26t-23.5 -59z" />
<glyph unicode="&#xe2e;" horiz-adv-x="1186" d="M124 919q-40 64 6 136q43 76 153.5 118t256.5 42q79 0 167 -24.5t148 -74.5q52 61 74.5 107.5t25.5 52.5l97 -33q0 -3 -28.5 -63.5t-95.5 -136.5q27 -43 44 -93t17 -111v-839h-625q-67 0 -109.5 40.5t-42.5 107.5v404q0 76 51.5 130.5t127.5 54.5q72 0 130 -53.5 t58 -125.5q0 -78 -48.5 -133t-127.5 -58q-49 0 -85 18v-237q0 -34 18.5 -39t27.5 -5h521v735q0 37 -10.5 69t-26.5 58q-75 -60 -188.5 -105.5t-262.5 -45.5q-137 0 -194.5 35t-78.5 69zM215 969q8 -17 51 -33.5t131 -16.5q127 0 222.5 36.5t158.5 87.5q-48 34 -115 52 t-127 18q-139 0 -218.5 -39t-99.5 -74q-12 -20 -3 -31zM312 552q0 -37 26 -61.5t62 -24.5q34 0 58 26t24 63q0 34 -27 57.5t-61 23.5q-34 -3 -58 -27t-24 -57z" />
<glyph unicode="&#xe2f;" horiz-adv-x="1102" d="M121 1030q0 79 53.5 132t131.5 53q76 0 130.5 -54t54.5 -131q0 -52 -34 -99q107 18 190.5 90.5t113.5 175.5q54 0 77 -50t23 -95v-1052h-103v989q-142 -168 -367 -168q-46 0 -94 12t-87.5 38t-64 65t-24.5 94zM222 1030q0 -34 23.5 -59t60.5 -25q34 0 59.5 26t25.5 58 q0 34 -25.5 60t-59.5 26q-37 0 -60.5 -24.5t-23.5 -61.5z" />
<glyph unicode="&#xe30;" horiz-adv-x="1007" d="M151 278q0 79 53.5 132t131.5 53q75 0 130 -52.5t55 -132.5q0 -63 -44 -117q109 0 196.5 58.5t118.5 168.5l99 -27q-40 -145 -153 -224t-258 -79q-165 0 -247 66.5t-82 153.5zM151 931q0 78 53.5 131.5t131.5 53.5q75 0 130 -53.5t55 -131.5q0 -64 -44 -118 q109 0 196.5 59t118.5 164l99 -24q-40 -145 -153 -224t-258 -79q-165 0 -247 67.5t-82 154.5zM252 278q0 -34 24 -59t60 -25q34 0 60 26t26 58q0 37 -26 61.5t-60 24.5q-37 0 -60.5 -24.5t-23.5 -61.5zM252 931q0 -34 24 -60t60 -26q34 0 60 26t26 60t-26 59t-60 25 q-37 0 -60.5 -24.5t-23.5 -59.5z" />
<glyph unicode="&#xe31;" d="M-694 1634q0 78 54.5 131.5t130.5 53.5q75 0 130 -53.5t55 -131.5q0 -24 -7.5 -47t-20.5 -48q127 12 259.5 68.5t225.5 141.5l70 -77q-58 -51 -129 -96.5t-149.5 -77t-160.5 -49.5t-158 -18q-49 0 -102 9t-96.5 32t-72.5 62t-29 100zM-593 1634q0 -34 23.5 -59t60.5 -25 q34 0 59 25t25 59q0 37 -25 60.5t-59 23.5t-59 -24.5t-25 -59.5z" />
<glyph unicode="&#xe32;" horiz-adv-x="1007" d="M75 721v121q0 87 32 159t87 121t129 74t159 25t159 -25t128.5 -74t86.5 -118.5t32 -158.5v-845h-104v845q0 133 -87 203.5t-215 70.5q-127 0 -215 -72t-88 -205v-121h-104z" />
<glyph unicode="&#xe33;" horiz-adv-x="1033" d="M-413 1594q0 81 58 139t140 58q79 0 136.5 -57t57.5 -140q0 -81 -57.5 -139t-136.5 -58q-81 0 -139.5 58t-58.5 139zM-312 1594q0 -43 27 -69.5t70 -26.5q40 0 68.5 27.5t28.5 68.5q0 43 -29 70.5t-68 27.5q-43 0 -70 -27.5t-27 -70.5zM55 721v121q0 179 117 279t288 100 q85 0 159.5 -25t129.5 -74t86.5 -118.5t31.5 -158.5v-845h-106v845q0 133 -86.5 203.5t-214.5 70.5q-127 0 -215 -72t-88 -205v-121h-102z" />
<glyph unicode="&#xe34;" d="M-1079 1422q0 82 35 150t92.5 118t131.5 77t153 27q208 -6 337.5 -132t153.5 -317q-157 40 -328.5 60t-331.5 26q-125 0 -243 -9zM-928 1545q0 -27 31 -21q64 3 141 0t156 -10t154.5 -20t136.5 -27q-43 97 -143 165.5t-227 68.5q-30 0 -73 -12t-82 -32t-66.5 -49 t-27.5 -63z" />
<glyph unicode="&#xe35;" d="M-1079 1422q0 82 36.5 150t94 118t131.5 77t152 27q98 -3 193.5 -45.5t159.5 -111.5v234h100v-390q27 -69 36 -136q-154 40 -325.5 60t-334.5 26q-122 0 -243 -9zM-928 1545q0 -27 31 -21q64 3 141 0t157.5 -10t154.5 -20t135 -27q-43 97 -143 165.5t-227 68.5 q-30 0 -73 -12t-82 -32t-66.5 -49t-27.5 -63z" />
<glyph unicode="&#xe36;" d="M-1079 1422q0 82 36.5 150t94 118t131.5 77t152 27q70 0 123.5 -16.5t90.5 -31.5q6 64 52.5 109t112.5 42q70 0 116 -48.5t46 -118.5q-3 -61 -41 -103t-95 -54q34 -52 54.5 -105t29.5 -123q-157 40 -327 61.5t-333 24.5q-122 0 -243 -9zM-928 1545q0 -27 31 -21 q64 3 141 0t156 -10t154.5 -20t136.5 -27q-43 97 -143 165.5t-227 68.5q-30 0 -73 -12t-82 -32t-66.5 -49t-27.5 -63zM-367 1738q0 -35 21.5 -56t53.5 -21q30 -3 53.5 17.5t23.5 54.5q0 30 -21.5 53.5t-55.5 23.5q-29 0 -50.5 -21.5t-24.5 -50.5z" />
<glyph unicode="&#xe37;" d="M-1079 1422q0 82 36.5 150t94 118t131.5 77t152 27q35 0 85 -9t86 -24v104h94v-150q27 -14 47 -31.5t41 -40.5v222h100v-384q27 -69 36 -136q-157 40 -327 60t-333 26q-122 0 -243 -9zM-928 1545q0 -27 31 -21q64 3 141 0t156 -10t154.5 -20t136.5 -27q-43 97 -143 165.5 t-227 68.5q-30 0 -73 -12t-82 -32t-66.5 -49t-27.5 -63z" />
<glyph unicode="&#xe38;" d="M-515 -249q0 67 46.5 113t113.5 46q63 0 110.5 -47.5t47.5 -108.5v-361h-95v216q-14 -6 -29.5 -10.5t-33.5 -4.5q-67 0 -113.5 45.5t-46.5 111.5zM-425 -249q0 -29 20 -49t50 -20q26 0 46 20t20 49q0 30 -19 50t-47 20q-30 0 -50 -21.5t-20 -48.5z" />
<glyph unicode="&#xe39;" d="M-740 -249q0 64 46 111.5t112 47.5q64 0 110.5 -46t46.5 -113v-263h95q6 0 22 6t16 40v356h95v-356q0 -61 -36 -101t-97 -40h-188v216q-15 -6 -30.5 -10.5t-33.5 -4.5q-66 0 -112 45.5t-46 111.5zM-651 -249q0 -29 20 -49t49 -20q27 0 48.5 20t21.5 49q0 27 -21.5 48.5 t-48.5 21.5q-29 0 -49 -21.5t-20 -48.5z" />
<glyph unicode="&#xe3a;" d="M-373 -309q0 49 33.5 80.5t79.5 31.5q48 0 80 -31.5t32 -80.5t-32 -81t-80 -32q-49 0 -81 32t-32 81z" />
<glyph unicode="&#xe3f;" horiz-adv-x="1284" d="M142 0v1230q0 75 50.5 118t125.5 43h194v119q0 54 23 63t69 9h26v-194q85 -9 162.5 -32t135.5 -66.5t92.5 -111.5t34.5 -166q0 -90 -44.5 -163t-116.5 -118h-3q121 -49 179 -140t58 -212q0 -104 -42.5 -175t-112.5 -114.5t-159.5 -65t-183.5 -24.5v-124 q0 -49 -19.5 -56.5t-70.5 -7.5h-28v188h-370zM263 112h249v548h-249v-548zM263 842q0 -69 67 -69h182v506h-194q-21 0 -38 -12t-17 -37v-388zM630 115q15 0 77.5 7.5t129 35t119.5 81t53 143.5q0 69 -27 121t-72.5 87t-106 52.5t-127.5 17.5h-46v-545zM630 773h15 q55 0 107 17t92.5 48.5t66.5 75.5t26 98q0 70 -26 119t-69.5 79t-98.5 46.5t-113 19.5v-503z" />
<glyph unicode="&#xe40;" horiz-adv-x="666" d="M228 176v1018h102v-867q34 21 83 22q75 0 129 -53t54 -132q0 -75 -54 -130t-129 -55q-81 0 -133 59.5t-52 137.5zM327 167q0 -34 26 -61.5t60 -27.5t59 26t25 60t-25 59.5t-59 25.5t-60 -24.5t-26 -57.5z" />
<glyph unicode="&#xe41;" horiz-adv-x="1160" d="M228 176v1018h102v-867q34 21 83 22q75 0 129 -53t54 -132q0 -75 -54 -130t-129 -55q-81 0 -133 59.5t-52 137.5zM327 167q0 -34 26 -61.5t60 -27.5t59 26t25 60t-25 59.5t-59 25.5t-60 -24.5t-26 -57.5zM715 176v1018h103v-867q40 21 82 22q78 0 131.5 -53t53.5 -132 q0 -75 -52.5 -130t-132.5 -55q-82 0 -133.5 59.5t-51.5 137.5zM815 167q0 -34 26 -61.5t59 -27.5q34 0 60 26t26 60t-26 59.5t-60 25.5t-59.5 -24.5t-25.5 -57.5z" />
<glyph unicode="&#xe42;" horiz-adv-x="642" d="M-75 1579q0 55 13 108t43.5 94t79.5 67t115 26q61 0 113.5 -27.5t101.5 -27.5q29 0 55 13.5t42 44.5l82 -67q-30 -49 -77.5 -72t-101.5 -23q-49 0 -104.5 27.5t-116.5 27.5q-58 0 -95.5 -29t-44.5 -80q84 -21 167 -48q78 -23 113 -70.5t35 -130.5v-1085q40 22 83 22 q75 0 130 -53t55 -132q0 -75 -55 -130t-130 -55q-82 0 -133.5 59.5t-51.5 137.5v1230q0 46 -9 67.5t-55 36.5q-130 48 -254 69zM342 167q0 -34 26 -61.5t60 -27.5t59 26t25 60q0 37 -26 61t-58 24q-34 0 -60 -24.5t-26 -57.5z" />
<glyph unicode="&#xe43;" horiz-adv-x="626" d="M-101 1613q0 55 24.5 101.5t65.5 81.5t94 55t114 20t114 -20t93.5 -56.5t65 -86.5t24.5 -114q0 -67 -25.5 -112t-54.5 -79.5t-55 -63.5t-26 -63v-949q34 22 83 22q75 0 127.5 -53t52.5 -132q0 -75 -52.5 -130t-127.5 -55q-82 0 -133.5 59.5t-51.5 137.5v1100 q0 55 25 92.5t54 72.5t55 69.5t26 83.5q0 78 -56.5 131.5t-122.5 53.5q-15 0 -35 -1.5t-32 -7.5q49 -6 86.5 -52t37.5 -105q0 -75 -52.5 -130t-132.5 -55q-75 0 -130 54t-55 131zM0 1613q0 -34 25 -60t59 -26q37 0 61.5 26t24.5 60t-24.5 59.5t-58.5 25.5t-60.5 -26 t-26.5 -59zM330 167q0 -34 26 -61.5t60 -27.5t59 26t25 60q0 37 -26 61t-58 24q-34 0 -60 -24.5t-26 -57.5z" />
<glyph unicode="&#xe44;" horiz-adv-x="660" d="M-121 1804l78 76q34 -18 55.5 -56.5t32 -80.5t13.5 -84.5t3 -70.5l133 289q90 -18 131.5 -81t41.5 -159v-1310q33 22 78 22q79 0 132 -53t53 -132q0 -75 -53 -130t-132 -55q-78 0 -130 59.5t-52 137.5v1446q0 34 -4 72.5t-25 54.5l-153 -321l-96 33q0 26 -3 76.5 t-15.5 104t-31.5 98.5t-56 64zM367 167q0 -34 22 -58.5t56 -24.5q35 0 58.5 23t23.5 57t-23.5 58t-58.5 24q-29 0 -53.5 -23t-24.5 -56z" />
<glyph unicode="&#xe45;" horiz-adv-x="1090" d="M90 721v121q0 87 32 159t86.5 121t129.5 74t159 25q85 0 159.5 -25t128.5 -74t86 -118.5t32 -158.5v-1317h-102v1317q0 133 -88 203.5t-216 70.5q-127 0 -215 -72t-88 -205v-121h-104z" />
<glyph unicode="&#xe46;" horiz-adv-x="1148" d="M197 909q0 63 21.5 119.5t57.5 99.5t88 66.5t113 23.5q51 0 96.5 -29t77.5 -67l86 108q185 -43 185 -238v-1464h-104v1464q0 37 -11.5 69.5t-45.5 51.5l-104 -113q-34 43 -80.5 81t-99.5 38q-73 0 -107 -40t-34 -64q15 15 38 18t32 3q69 0 122.5 -52.5t53.5 -125.5 q0 -78 -52.5 -131.5t-132.5 -53.5q-101 0 -150.5 72.5t-49.5 163.5zM315 858q0 -37 24.5 -61t57.5 -24q37 0 61 24t24 61q0 34 -24 59.5t-61 25.5q-34 0 -58 -25.5t-24 -59.5z" />
<glyph unicode="&#xe47;" d="M-903 1585q0 127 84.5 183.5t199.5 56.5h211q51 0 85 23t34 83h95q0 -97 -65 -149t-154 -52h-226q-76 0 -123.5 -33t-47.5 -112q0 -43 21.5 -80.5t54.5 -37.5q9 0 21.5 14t26 30t24.5 34.5t17 27.5l139 -92l-9 11q-9 9 -9 26q0 70 46.5 117.5t116.5 47.5q66 0 115 -47.5 t49 -117.5q0 -75 -51.5 -119.5t-121.5 -44.5q-64 0 -129 38.5t-123 71.5l-75 -99q-101 0 -153.5 62t-52.5 158zM-440 1518q0 -34 23 -54.5t56 -20.5q75 0 75 75q0 35 -20.5 57t-54.5 22t-56.5 -22t-22.5 -57z" />
<glyph unicode="&#xe48;" d="M-297 2010v364h97v-364h-97z" />
<glyph unicode="&#xe49;" d="M-543 2253q6 66 53 107t111 41q70 0 112 -53.5t42 -131.5q0 -52 -20.5 -111.5t-63.5 -82.5q136 23 213.5 114t113.5 219l80 -24q-52 -182 -161.5 -285t-291.5 -106h-31t-45 3l3 76q37 12 67.5 32t36.5 55q-6 -3 -24.5 -7.5t-45.5 -4.5q-66 0 -107.5 47.5t-41.5 111.5z M-460 2247q0 -34 20.5 -55.5t54.5 -21.5t55 21.5t21 55.5t-21.5 54.5t-54.5 20.5q-34 0 -54.5 -20.5t-20.5 -54.5z" />
<glyph unicode="&#xe4a;" d="M-694 2152q0 64 21.5 109.5t51.5 72.5t63.5 41t57.5 14q23 -6 49 -23t48 -35q18 18 42.5 35t48.5 23q72 -15 101 -67t29 -112v-139q43 26 59 91t16 120q0 34 -4 53.5t-13 53.5l78 17q9 -34 14 -60.5t5 -66.5q0 -46 -12.5 -98.5t-37 -98.5t-63.5 -76t-97 -30 q-15 0 -26.5 20t-14.5 26q18 14 18 75v122q0 23 -13 50.5t-42 37.5q-18 -12 -39.5 -27.5t-45.5 -40.5q-20 21 -50 42.5t-50 28.5q-40 0 -72 -27t-44 -70q15 17 38 27t48 10q61 0 101.5 -37t46.5 -97q0 -60 -33 -109t-112 -49q-75 0 -121 55t-46 139zM-601 2103 q0 -30 21.5 -49.5t52.5 -19.5q30 0 50 21t20 48q0 30 -21.5 51.5t-51.5 21.5q-29 0 -50 -21.5t-21 -51.5z" />
<glyph unicode="&#xe4b;" d="M-463 2134v99h154v156h97v-156h154v-99h-154v-155h-97v155h-154z" />
<glyph unicode="&#xe4c;" d="M-431 2094q0 82 52 141t188 93q70 15 100 31t48 68l77 -23q-15 -46 -36.5 -73.5t-50 -42.5t-66.5 -25t-87 -19q46 -24 74 -65.5t28 -87.5q0 -63 -43.5 -115t-112.5 -52q-82 0 -126.5 53.5t-44.5 116.5zM-339 2088q0 -34 23.5 -54.5t55.5 -20.5q29 0 52 21.5t23 53.5 q0 34 -23 55t-52 21q-30 0 -54.5 -21t-24.5 -55z" />
<glyph unicode="&#xe4d;" d="M-413 1594q0 81 58 139t140 58q79 0 136.5 -57t57.5 -140q0 -81 -57.5 -139t-136.5 -58q-81 0 -139.5 58t-58.5 139zM-312 1594q0 -43 27 -69.5t70 -26.5q40 0 68.5 27.5t28.5 68.5q0 43 -29 70.5t-68 27.5q-43 0 -70 -27.5t-27 -70.5z" />
<glyph unicode="&#xe4e;" d="M-564 1600q0 61 39.5 109.5t124.5 72.5q9 6 9 9t-6 10q-23 15 -40 41.5t-17 60.5q0 82 54.5 120.5t124.5 49.5q78 12 182 3v-72q-110 9 -192 -17t-82 -84q0 -43 44.5 -63.5t125.5 -32.5v-77q-78 0 -131.5 -12t-85 -32t-43.5 -42t-12 -44q0 -40 43.5 -56.5t110.5 -16.5 q49 0 80.5 7.5t52.5 15.5q24 8 37 17l44 -72q-11 -15 -41 -28q-24 -12 -67 -21t-106 -9q-128 0 -188.5 49.5t-60.5 113.5z" />
<glyph unicode="&#xe4f;" horiz-adv-x="932" d="M98 546q0 76 28 144t78.5 118t117 78.5t144.5 28.5q79 0 146 -28.5t116.5 -78.5t78.5 -118t29 -144q0 -75 -29 -144t-78.5 -118.5t-117.5 -80t-145 -30.5q-75 0 -143 29t-118.5 78.5t-78.5 117.5t-28 148zM157 546q0 -64 24.5 -121.5t67.5 -98t98.5 -65t118.5 -24.5 q64 0 120 24.5t99 66.5t67 98t24 120t-24 119.5t-67 97t-99 65t-120 23.5q-55 0 -110.5 -20.5t-99.5 -61.5t-71.5 -97t-27.5 -126zM309 546q0 64 47 110.5t110 46.5q67 0 113 -45t46 -112q0 -61 -41 -111t-118 -50q-66 0 -111.5 47.5t-45.5 113.5z" />
<glyph unicode="&#xe50;" horiz-adv-x="1363" d="M161 451q0 104 45.5 188.5t119.5 146.5t166.5 97.5t186.5 35.5q98 0 188.5 -35.5t160 -97.5t112.5 -146.5t43 -188.5q0 -103 -43 -189t-112.5 -148t-160.5 -95.5t-188 -33.5q-93 0 -186 33.5t-167 95.5t-119.5 148t-45.5 189zM260 451q0 -81 38 -149t98.5 -115.5 t135.5 -75t147 -27.5q73 0 145.5 27.5t130 75t94 115.5t36.5 149q0 82 -36.5 149t-94 115.5t-130 75.5t-145.5 27q-72 0 -147 -27t-135.5 -75.5t-98.5 -115.5t-38 -149z" />
<glyph unicode="&#xe51;" horiz-adv-x="1363" d="M170 422q0 109 41 199.5t112 157t165 105t200 38.5q107 0 199.5 -44.5t162 -118.5t108.5 -171t39 -200q0 -85 -28.5 -171.5t-79 -162t-117 -137.5t-139.5 -102l-38 87q57 37 111.5 90.5t97 118.5t68 136t25.5 141q0 78 -32 157.5t-87.5 140t-130 98t-156.5 37.5 q-78 0 -154.5 -31.5t-135.5 -86.5t-95.5 -127.5t-36.5 -153.5q0 -40 14 -90.5t38 -95.5t59.5 -81.5t73.5 -47.5l6 5q-54 55 -54 131q0 81 57.5 137.5t137.5 56.5q81 0 137.5 -56.5t56.5 -137.5q0 -113 -76.5 -181t-182.5 -68q-79 0 -145.5 39.5t-116 100t-77 136.5 t-27.5 152zM503 243q0 -40 29 -69t69 -29t69.5 27.5t29.5 70.5t-29 71t-70 28q-40 0 -69 -28t-29 -71z" />
<glyph unicode="&#xe52;" horiz-adv-x="1363" d="M70 1039l54 86q85 -37 145.5 -126.5t60.5 -222.5v-548q0 -52 26 -86.5t87 -34.5h660v535q0 67 -21 119t-84 52q-43 0 -78 -29t-59 -63q-29 29 -78 60.5t-92 33.5q-37 -8 -63.5 -31t-45 -52t-27.5 -58t-9 -46q12 17 42.5 34t81.5 17q73 0 129 -60.5t56 -138.5 q0 -79 -57.5 -133.5t-143.5 -54.5q-124 0 -176.5 84t-52.5 203q0 69 26 127t63.5 101.5t81 69.5t80.5 32q40 0 94 -24t88 -49q24 24 62 48.5t78 24.5q106 0 155.5 -77t49.5 -199v-633h-755q-87 0 -153.5 56t-66.5 175v533q0 106 -37 178.5t-121 96.5zM561 482q0 -39 29 -68 t67 -29q40 0 70.5 27.5t30.5 69.5q0 43 -29 71.5t-72 28.5q-40 0 -68 -28.5t-28 -71.5z" />
<glyph unicode="&#xe53;" horiz-adv-x="1363" d="M151 451q0 98 24.5 181t73 145t120 98.5t161.5 36.5q58 0 128 -12t112 -52q34 40 96.5 53.5t108.5 13.5q119 0 179.5 -71t60.5 -168v-676h-102v676q0 58 -38.5 101.5t-99.5 43.5q-63 0 -108.5 -30t-45.5 -91v-599q0 -46 -30 -72t-73 -29v697q0 27 -18 50t-45 40t-60.5 24 t-64.5 7q-70 0 -121 -33t-82.5 -85t-47.5 -115.5t-16 -124.5q0 -37 6 -72.5t17 -63.5q63 61 133 61q87 0 140.5 -59.5t53.5 -140.5q0 -78 -61 -133t-136 -55q-73 0 -124.5 45t-82 114t-44.5 147.5t-14 147.5zM318 188q0 -40 29 -69t69 -29t69.5 27.5t29.5 70.5t-29 72 t-70 29q-40 0 -69 -29t-29 -72z" />
<glyph unicode="&#xe54;" horiz-adv-x="1363" d="M142 437q0 93 33.5 176.5t94 147t142.5 101.5t179 38h315q106 0 171.5 59t65.5 181h100q0 -168 -92.5 -252t-244.5 -84h-315q-76 0 -138 -30.5t-107.5 -82.5t-69.5 -117t-24 -137q0 -142 77 -239t223 -97h113q-52 23 -88.5 92.5t-36.5 133.5q0 55 15 109.5t45 98.5t77 71 t107 27q79 0 139 -56t60 -134q0 -79 -59.5 -136.5t-139.5 -57.5q-40 0 -77 18.5t-68 47.5q0 -78 56.5 -122.5t133.5 -63.5t159 -23.5t134 -4.5h93q-3 -52 -37.5 -76.5t-83.5 -24.5h-564q-98 0 -169.5 39t-120.5 101.5t-73.5 141.5t-24.5 155zM688 443q0 -43 29 -70.5 t67 -27.5q43 0 70.5 29t27.5 69q0 39 -27.5 68t-70.5 29q-40 0 -68 -27.5t-28 -69.5z" />
<glyph unicode="&#xe55;" horiz-adv-x="1363" d="M142 437q0 93 33.5 176.5t94 147t142.5 101.5t179 38h42q-23 49 -23 92q0 78 54 131.5t134 53.5q75 0 130 -52t55 -130q0 -40 -31 -92q84 18 137.5 75.5t53.5 161.5h100q0 -168 -94 -252t-243 -84h-315q-76 0 -138 -30.5t-107.5 -82.5t-69.5 -117t-24 -137 q0 -142 77 -239t223 -97h113q-52 37 -88.5 99.5t-36.5 126.5q0 55 15 109.5t45 98.5t77 71t107 27q79 0 139 -56t60 -134q0 -79 -59.5 -136.5t-139.5 -57.5q-40 0 -77 18.5t-68 47.5q0 -78 56.5 -122.5t133.5 -63.5t159 -23.5t134 -4.5h93q-3 -52 -37.5 -76.5t-83.5 -24.5 h-564q-98 0 -169.5 39t-120.5 101.5t-73.5 141.5t-24.5 155zM688 443q0 -43 29 -70.5t67 -27.5q43 0 70.5 29t27.5 69q0 39 -27.5 68t-70.5 29q-40 0 -68 -27.5t-28 -69.5zM703 995q0 -40 27.5 -66t64.5 -26q40 0 65 27.5t25 64.5q0 40 -26 65t-64 25q-40 0 -66 -26t-26 -64 z" />
<glyph unicode="&#xe56;" horiz-adv-x="1363" d="M34 1067l76 64l251 -339q73 66 167 93t181 27q104 0 189 -35t143.5 -97t91.5 -148t33 -189q0 -98 -31.5 -181t-91.5 -145t-151 -97t-207 -35q-57 0 -116.5 19.5t-106 56.5t-77 89.5t-30.5 115.5q0 79 57 135t137 56q79 0 135 -57.5t56 -139.5q0 -48 -29 -93.5t-81 -79.5 q24 -3 36.5 -3h15.5q173 0 274.5 104t101.5 266q0 73 -23 138t-68 114t-112.5 78t-151.5 29q-104 0 -192.5 -53.5t-158.5 -126.5zM448 266q0 -43 30.5 -72.5t70.5 -29.5t68 29t28 67q0 43 -28.5 73.5t-67.5 30.5q-43 0 -72 -29t-29 -69z" />
<glyph unicode="&#xe57;" horiz-adv-x="1363" d="M124 497q0 79 23 155t64 136t97 98.5t126 38.5q51 0 101 -23t93 -60q29 37 72 63t87 26q110 0 161.5 -73.5t51.5 -172.5v-581q12 0 38 11.5t50 48.5q34 52 43 126t9 207q0 119 -1.5 199t-16.5 146q-15 70 -45.5 121.5t-90.5 100.5l63 79q70 -58 109 -123t60 -153 q15 -69 20 -155.5t5 -214.5q0 -151 -14 -236t-63 -151q-43 -64 -105.5 -85.5t-145.5 -21.5h-21v682q0 61 -24.5 97t-82.5 36q-106 0 -105 -130v-55q0 -42 -30 -71t-76 -29v155q0 61 -42.5 93t-99.5 32q-55 0 -94.5 -33.5t-63.5 -84t-34.5 -109.5t-10.5 -106q0 -64 12 -108.5 t23 -68.5q30 43 73 61t80 18q75 0 133 -55t58 -133q0 -82 -56.5 -135t-137.5 -53q-79 0 -133.5 50.5t-90 126t-52 160.5t-16.5 154zM321 191q0 -40 29 -69t69 -29t69.5 27.5t29.5 70.5t-29 72t-70 29q-40 0 -69 -29t-29 -72z" />
<glyph unicode="&#xe58;" horiz-adv-x="1363" d="M133 428q0 106 41 193.5t109.5 149.5t156 97t182.5 35h254q85 0 136.5 23t79 57.5t36.5 75.5t9 81h106q0 -55 -17 -116t-57.5 -110.5t-111.5 -82.5t-181 -33h-254q-73 0 -143.5 -26t-126 -75t-88.5 -117t-33 -152q0 -148 57 -227.5t131 -88.5l127 160q37 -23 70 -54 q63 -55 139 -106q49 -34 115 -34q37 0 69.5 11.5t49.5 31.5q-73 0 -129 50.5t-56 134.5q0 79 54 133.5t137 54.5q81 0 140 -57.5t59 -136.5q0 -57 -24 -113.5t-66.5 -100t-101.5 -71t-129 -27.5q-55 0 -95.5 10.5t-76.5 30.5t-72 49t-77 67l-104 -145q-136 6 -225.5 114 t-89.5 314zM900 303q0 -40 29 -68.5t69 -28.5q39 0 69 27t30 70t-29 71.5t-70 28.5q-40 0 -69 -28.5t-29 -71.5z" />
<glyph unicode="&#xe59;" horiz-adv-x="1363" d="M101 448q0 98 28 182.5t82.5 148t137 102t184.5 38.5q81 0 162 -35.5t123 -96.5q6 88 45.5 145t105.5 57q49 0 78 -29t56 -29q40 0 54 66.5t14 142.5h99q0 -61 -9 -116t-29 -97t-52 -68t-77 -26q-24 0 -42 11t-33.5 21.5t-28.5 21t-30 10.5q-60 0 -60 -151 q0 -61 17 -109.5t40 -100.5l243 -527q-26 -12 -55 -12t-47.5 16.5t-30.5 41.5q-55 118 -121.5 257t-139.5 292q-48 98 -125 159t-157 61q-64 0 -124 -27t-105.5 -77t-74.5 -120t-29 -152q0 -60 31.5 -124t83.5 -117t118.5 -86.5t136.5 -33.5q-107 73 -107 173q0 85 55 139.5 t136 54.5q85 0 138 -54.5t53 -139.5q0 -54 -25 -102t-66.5 -84.5t-94 -59.5t-107.5 -23q-84 0 -166.5 35t-146 97t-101 145.5t-37.5 179.5zM555 260q0 -42 29 -70.5t70 -28.5q43 0 72 30.5t29 68.5q0 43 -29 75t-72 32t-71 -32t-28 -75z" />
<glyph unicode="&#xe5a;" horiz-adv-x="1290" d="M87 1030q0 79 53.5 132t131.5 53q76 0 130.5 -54t54.5 -131q0 -52 -32 -99q106 18 189 90.5t114 175.5q55 0 77 -50t22 -95v-1052h-103v989q-142 -168 -366 -168q-46 0 -94.5 12t-88 38t-64 65t-24.5 94zM188 1030q0 -34 24.5 -59t59.5 -25q34 0 60 26t26 58q0 34 -26 60 t-60 26q-37 0 -60.5 -24.5t-23.5 -61.5zM949 0h100v1049q0 49 -24.5 92.5t-75.5 43.5v-1185z" />
<glyph unicode="&#xe5b;" horiz-adv-x="2357" d="M73 549q0 164 59 283.5t168 188.5q116 70 258 70q145 0 315 -96l-9 -131q-142 107 -303 105q-170 0 -264 -121q-97 -124 -97 -321q0 -173 91 -283.5t276 -110.5q98 0 170.5 32t132.5 127q27 42 44 70.5t32 60t33.5 72.5t50.5 106l176 -219q21 24 41 46.5t38 48.5 q34 40 62.5 75.5t40.5 51.5q12 -18 36.5 -55t48.5 -72q14 -21 31 -45t35 -47l182 216l37 -55q18 -27 45.5 -64t61.5 -85q34 -49 66.5 -68.5t56.5 -19.5q66 0 103 26t58 67t30.5 92.5t21.5 106.5h109l-31 -153q-23 -115 -95 -174t-171 -59q-64 0 -118.5 24t-97.5 85l-79 116 l-182 -203l-157 203q-23 -27 -44.5 -51.5t-40.5 -49.5q-35 -40 -60 -69.5t-28 -29.5l-16 19t-42 45t-52 55t-41 47q-78 -191 -195 -292.5t-275 -101.5q-246 -3 -379 138.5t-133 398.5z" />
<glyph unicode="&#x2000;" horiz-adv-x="1213" />
<glyph unicode="&#x2001;" horiz-adv-x="2427" />
<glyph unicode="&#x2002;" horiz-adv-x="1213" />
<glyph unicode="&#x2003;" horiz-adv-x="2427" />
<glyph unicode="&#x2004;" horiz-adv-x="809" />
<glyph unicode="&#x2005;" horiz-adv-x="606" />
<glyph unicode="&#x2006;" horiz-adv-x="404" />
<glyph unicode="&#x2007;" horiz-adv-x="404" />
<glyph unicode="&#x2008;" horiz-adv-x="303" />
<glyph unicode="&#x2009;" horiz-adv-x="485" />
<glyph unicode="&#x200a;" horiz-adv-x="134" />
<glyph unicode="&#x200c;" />
<glyph unicode="&#x200d;" />
<glyph unicode="&#x200e;" />
<glyph unicode="&#x200f;" />
<glyph unicode="&#x2010;" horiz-adv-x="908" d="M133 585v106h643v-106h-643z" />
<glyph unicode="&#x2011;" horiz-adv-x="908" d="M133 585v106h643v-106h-643z" />
<glyph unicode="&#x2012;" horiz-adv-x="908" d="M133 585v106h643v-106h-643z" />
<glyph unicode="&#x2013;" horiz-adv-x="1314" d="M145 445v101h1026v-101h-1026z" />
<glyph unicode="&#x2014;" horiz-adv-x="1554" d="M151 445v98h1252v-98h-1252z" />
<glyph unicode="&#x2018;" horiz-adv-x="599" d="M154 1298q0 127 44.5 196.5t97.5 104.5t100 41t52 6l3 -76h-17q-30 0 -59.5 -18.5t-50.5 -44.5t-33.5 -55.5t-12.5 -54.5q0 -18 3 -24q24 6 37 6q52 0 85.5 -34.5t33.5 -86.5t-33.5 -92.5t-94.5 -40.5q-87 0 -121 51t-34 122z" />
<glyph unicode="&#x2019;" horiz-adv-x="599" d="M151 1177h19q30 0 59 17.5t50 43.5t33 56.5t12 53.5q0 18 -3 25q-24 -5 -35 -5q-52 0 -85.5 34.5t-33.5 86.5t33.5 92.5t94.5 40.5q87 0 120 -52t33 -121q0 -127 -43.5 -196.5t-96.5 -104.5t-100 -41.5t-54 -6.5z" />
<glyph unicode="&#x201a;" horiz-adv-x="639" d="M151 -185h19q30 0 59 18.5t50 43.5t33 55.5t12 55.5q0 18 -3 24q-24 -6 -35 -6q-52 0 -85.5 34.5t-33.5 86.5t33.5 92.5t94.5 40.5q87 0 120 -51.5t33 -121.5q0 -127 -43.5 -196.5t-96.5 -104.5t-100 -40.5t-54 -5.5z" />
<glyph unicode="&#x201c;" horiz-adv-x="848" d="M81 1298q0 127 44.5 196.5t97 104.5t100 41t53.5 6l3 -76h-18q-29 0 -59 -18.5t-50.5 -44.5t-33 -55.5t-12.5 -54.5q0 -18 3 -24q23 6 37 6q51 0 84.5 -34.5t33.5 -86.5t-33.5 -92.5t-93.5 -40.5q-88 0 -122 51t-34 122zM460 1298q0 127 44.5 196.5t97 104.5t100 41 t53.5 6l3 -76h-18q-30 0 -59.5 -18.5t-50 -44.5t-33 -55.5t-12.5 -54.5q0 -18 3 -24q23 6 37 6q51 0 84.5 -34.5t33.5 -86.5t-33.5 -92.5t-93.5 -40.5q-88 0 -122 51t-34 122z" />
<glyph unicode="&#x201d;" horiz-adv-x="848" d="M98 1177h17q30 0 59 17.5t50.5 43.5t33 56.5t11.5 53.5q0 18 -3 25q-23 -5 -35 -5q-52 0 -85.5 34.5t-33.5 86.5t33.5 92.5t94.5 40.5q87 0 120.5 -52t33.5 -121q0 -127 -44 -196.5t-97 -104.5t-99.5 -41.5t-52.5 -6.5zM472 1177h19q30 0 59 17.5t50.5 43.5t33 56.5 t11.5 53.5q0 18 -3 25q-23 -5 -35 -5q-52 0 -85.5 34.5t-33.5 86.5t33.5 92.5t94.5 40.5q87 0 120.5 -52t33.5 -121q0 -127 -44 -196.5t-97 -104.5t-100 -41.5t-52 -6.5z" />
<glyph unicode="&#x201e;" horiz-adv-x="1203" d="M98 -179h17q30 0 59 18.5t50.5 44.5t33 56t11.5 54q0 18 -3 24q-23 -6 -35 -6q-52 0 -85.5 34.5t-33.5 86.5t33.5 92.5t94.5 40.5q87 0 120.5 -51t33.5 -122q0 -127 -44 -196.5t-97 -104.5t-99.5 -41t-52.5 -6zM472 -179h19q30 0 59 18.5t50.5 44.5t33 56t11.5 54 q0 18 -3 24q-23 -6 -35 -6q-52 0 -85.5 34.5t-33.5 86.5t33.5 92.5t94.5 40.5q87 0 120.5 -51t33.5 -122q0 -127 -44 -196.5t-97 -104.5t-100 -41t-52 -6z" />
<glyph unicode="&#x2020;" horiz-adv-x="1515" d="M24 855v108h392v402h130v-402h397v-108h-397v-1197h-130v1197h-392z" />
<glyph unicode="&#x2021;" horiz-adv-x="1515" d="M24 24v109h395v767h-395v109h395v370h130v-370h397v-109h-397v-767h397v-109h-397v-366h-130v366h-395z" />
<glyph unicode="&#x2022;" horiz-adv-x="1515" d="M84 682q0 88 62.5 151.5t150.5 63.5q94 0 154.5 -62t60.5 -153q0 -90 -60.5 -151.5t-154.5 -61.5q-90 0 -151.5 61t-61.5 152z" />
<glyph unicode="&#x2026;" horiz-adv-x="1515" d="M93 118q0 46 29 82.5t90 36.5q60 0 87.5 -36.5t27.5 -82.5q0 -43 -27.5 -80.5t-87.5 -37.5q-61 0 -90 37.5t-29 80.5zM639 118q0 46 29 82.5t87 36.5q60 0 87.5 -36.5t27.5 -82.5q0 -43 -27.5 -80.5t-87.5 -37.5q-58 0 -87 37.5t-29 80.5zM1174 118q0 46 28 82.5t86 36.5 q60 0 89 -36.5t29 -82.5q0 -43 -29 -80.5t-89 -37.5q-58 0 -86 37.5t-28 80.5z" />
<glyph unicode="&#x202f;" horiz-adv-x="485" />
<glyph unicode="&#x2030;" horiz-adv-x="1999" d="M61 909v265q0 106 75.5 163t172.5 57q98 0 172 -56t74 -161v-265q0 -104 -74 -162.5t-172 -58.5q-97 0 -172.5 56.5t-75.5 161.5zM133 922q0 -70 53.5 -108t122.5 -38q67 0 121.5 39.5t54.5 109.5q0 121 -2.5 195t-20 116.5t-53.5 58t-100 15.5q-69 0 -122.5 -38 t-53.5 -112v-238zM330 -61q93 243 166.5 432.5t131 334.5t98.5 251.5t69 179.5q66 173 90 233q34 79 87 79q12 0 37 -6l-552 -1440q-14 -43 -32.5 -56.5t-45.5 -13.5h-21.5t-27.5 6zM773 167v264q0 106 76 163t172 57q98 0 172 -55.5t74 -161.5v-264q0 -103 -74 -162.5 t-172 -59.5q-97 0 -172.5 56.5t-75.5 162.5zM845 179q0 -69 53.5 -107t122.5 -38q67 0 121.5 39t54.5 109q0 121 -3 195t-20 116.5t-53 58t-100 15.5q-69 0 -122.5 -38t-53.5 -110v-240zM1446 167v264q0 106 75.5 163t173.5 57q97 0 171 -55.5t74 -161.5v-264 q0 -103 -74 -162.5t-171 -59.5q-98 0 -173.5 56.5t-75.5 162.5zM1518 179q0 -69 53.5 -107t123.5 -38q66 0 121 39t55 109q0 121 -3 195t-20 116.5t-53.5 58t-99.5 15.5q-70 0 -123.5 -38t-53.5 -110v-240z" />
<glyph unicode="&#x2032;" horiz-adv-x="605" d="M225 1146l41 361l116 -21l-73 -292q-14 -48 -43 -49.5t-41 1.5z" />
<glyph unicode="&#x2033;" horiz-adv-x="605" d="M130 1146l43 361l116 -21l-74 -292q-15 -48 -44 -49.5t-41 1.5zM339 1146l43 361l115 -21l-72 -292q-15 -48 -44 -49.5t-42 1.5z" />
<glyph unicode="&#x2039;" horiz-adv-x="1515" d="M24 506q60 85 115 159q46 60 88 120t62 85q34 40 65 50.5t74 -1.5l-286 -413l280 -428q-37 -11 -70.5 -5.5t-65.5 54.5z" />
<glyph unicode="&#x203a;" horiz-adv-x="1515" d="M27 919q43 12 74.5 1t65.5 -50q18 -23 61.5 -84.5t89.5 -120.5q55 -73 113 -159l-261 -379q-34 -49 -67 -54.5t-69 5.5l278 428z" />
<glyph unicode="&#x2044;" horiz-adv-x="1059" d="M133 -34l654 1385q18 40 44.5 57t53.5 17q24 0 46 -10l-656 -1394q-29 -67 -84 -67q-30 0 -58 12z" />
<glyph unicode="&#x205f;" horiz-adv-x="606" />
<glyph unicode="&#x20ac;" horiz-adv-x="1099" d="M-3 494l46 107h90v172h-136l46 106h90v79q0 106 41 189t112.5 140.5t164 86.5t194.5 29q125 0 230 -40.5t174 -119.5l-77 -80q-60 70 -144.5 102.5t-182.5 32.5q-75 0 -146 -21.5t-127.5 -66t-89.5 -108t-33 -144.5v-12q0 -67 63 -67h475l-44 -106h-494v-106 q0 -66 63 -66h355l-42 -107h-376v-72q0 -82 33 -146t89.5 -106.5t129 -64t147.5 -21.5q98 0 182.5 33.5t144.5 104.5l77 -80q-69 -78 -175.5 -120.5t-228.5 -42.5q-100 0 -193.5 29t-165 86t-114 139t-42.5 189v72h-136z" />
<glyph unicode="&#x2113;" horiz-adv-x="703" d="M3 394q3 0 49 57.5t130 181.5v550q0 90 46 145q46 54 121 54q88 0 142.5 -62t54.5 -169q0 -63 -26 -135.5t-63.5 -145t-83.5 -143t-84 -126.5v-383q0 -52 23.5 -88.5t69.5 -36.5q63 0 112 58l82 -67q-82 -97 -194 -96q-93 0 -146.5 66.5t-53.5 163.5v230 q-46 -60 -70.5 -90.5t-27.5 -33.5zM289 795q78 130 114.5 207t36.5 149q0 58 -23 91.5t-68 33.5q-60 0 -60 -93v-388z" />
<glyph unicode="&#x2122;" horiz-adv-x="1515" d="M61 1328v69h606v-69h-264v-686h-82v686h-260zM807 642v755h154l224 -700l212 700h153v-755h-74v662h-48l-204 -662h-84l-209 662h-52v-662h-72z" />
<glyph unicode="&#x2126;" horiz-adv-x="1617" d="M151 679q0 154 49 283t135.5 221.5t208 144t266.5 51.5t264.5 -51.5t207.5 -144t136.5 -221.5t48.5 -283q0 -100 -33.5 -185.5t-83 -158t-110 -130t-115.5 -98.5h257v-107h-439l-24 104q121 69 221 159q84 79 153 184t69 232q0 136 -41.5 246.5t-114 188t-174 118.5 t-222.5 41q-125 0 -226.5 -42.5t-174.5 -120t-112 -187.5t-39 -244q0 -130 66.5 -236.5t148.5 -182t150 -116t71 -40.5l-24 -104h-436v107h257q-167 136 -253.5 276.5t-86.5 295.5z" />
<glyph unicode="&#x212e;" horiz-adv-x="1272" d="M115 425v536q0 106 41 189.5t109 140.5t160.5 86t193.5 29h3q100 0 192 -29t160.5 -86t109.5 -140.5t41 -189.5v-52q0 -136 -75 -194t-189 -58h-639v-232q0 -82 33.5 -146t89 -106.5t128.5 -64t149 -21.5q75 0 146 23t127.5 65.5t89.5 108t33 150.5h107q0 -107 -41 -192 t-111 -142t-161 -87.5t-190 -30.5q-101 0 -192 29t-160.5 86t-112 139t-42.5 189zM222 830q0 -66 67 -66h569q162 0 160 142v63q0 64 -26 123t-75.5 106.5t-125.5 75t-172 27.5q-76 0 -147.5 -21.5t-127 -65t-89 -107.5t-33.5 -146v-131z" />
<glyph unicode="&#x2202;" horiz-adv-x="1235" d="M151 460q0 98 37 183t100.5 146.5t148 97t182.5 35.5q87 0 169 -27.5t146 -87.5q-30 97 -84.5 183t-132.5 149.5t-179 101.5t-229 38v106q179 0 323 -63.5t243.5 -177.5t154.5 -274.5t55 -357.5q0 -154 -43.5 -252.5t-112 -156t-152 -79t-158.5 -21.5q-101 0 -185.5 35 t-146.5 97t-99 145.5t-37 179.5zM258 460q0 -154 102.5 -252t258.5 -98q75 0 140 25.5t114 72.5t78 112t29 140q0 79 -29 143t-78 112.5t-114 74t-140 25.5q-76 0 -143.5 -27t-115.5 -74t-75 -112.5t-27 -141.5z" />
<glyph unicode="&#x2206;" horiz-adv-x="1238" d="M151 70l419 1315h103l415 -1315q0 -18 -12 -33q-9 -15 -24.5 -26t-42.5 -11h-772q-30 0 -47 10.5t-26 26.5q-12 15 -13 33zM275 107h691l-344 1090z" />
<glyph unicode="&#x220f;" horiz-adv-x="1244" d="M151 1336v49h943v-52q0 -20 -7.5 -31t-16.5 -18.5t-16.5 -21t-7.5 -44.5v-1325h-106v1386h-634v-1386h-106v1322q0 34 -7.5 49t-16.5 22.5t-17 17t-8 32.5z" />
<glyph unicode="&#x2211;" horiz-adv-x="1253" d="M151 0l471 660l-471 610v115h952v-106h-831l483 -614l-477 -665h825v-107h-952v107z" />
<glyph unicode="&#x2212;" horiz-adv-x="908" d="M104 585v106h703v-106h-703z" />
<glyph unicode="&#x221a;" horiz-adv-x="1314" d="M75 761v106h295l221 -691l473 1391l99 -40l-570 -1645l-269 783q-21 63 -38 79.5t-71 16.5h-140z" />
<glyph unicode="&#x221e;" horiz-adv-x="1478" d="M151 552q0 64 17 132t53.5 124t97 94t150.5 38t160.5 -39.5t110.5 -119.5q0 9 6 17q81 142 260 142t261 -142q37 -61 49 -127.5t12 -118.5q0 -61 -15 -129t-53.5 -125.5t-100.5 -95.5t-153 -38q-176 0 -260 139q-6 12 -6 15q-3 -3 -9 -15q-84 -139 -262 -139 q-90 0 -150.5 38t-98.5 95.5t-53.5 125.5t-15.5 129zM258 552q0 -133 51.5 -208t159.5 -75q119 2 170 89q43 76 43 194q0 136 -53 208.5t-160 72.5q-69 0 -110 -31.5t-64 -75.5t-30 -92.5t-7 -81.5zM795 552q0 -133 51 -208t160 -75q119 2 171 89q20 37 32 86.5t12 107.5 q0 133 -54 207t-161 74q-106 0 -158.5 -72.5t-52.5 -208.5z" />
<glyph unicode="&#x222b;" horiz-adv-x="796" d="M75 -188q165 0 236 63.5t71 208.5v1059q0 170 101.5 261t283.5 91v-107q-137 0 -205 -59t-68 -186v-1059q0 -379 -419 -379v107z" />
<glyph unicode="&#x2248;" horiz-adv-x="1212" d="M148 324q43 79 106.5 147.5t161.5 68.5q46 0 98.5 -18.5t107 -41.5t105.5 -42t97 -19q30 0 57.5 17.5t50.5 39t43 39.5t37 18q18 0 43 -15l36 -27q-43 -78 -107.5 -134.5t-159.5 -56.5q-46 0 -98.5 18t-107 41t-106.5 41.5t-96 18.5q-37 0 -63 -20t-49 -43l-42 -42 t-37 -19t-38 10t-39 19zM148 630q43 79 106.5 147t161.5 68q46 0 98.5 -17.5t107 -40.5t105.5 -43t97 -20q30 0 57.5 18.5t50.5 40t43 39t37 17.5q18 0 43 -15l36 -26q-43 -79 -107.5 -135t-159.5 -56q-46 0 -98.5 17.5t-107 40.5t-106.5 41t-96 18q-37 0 -63 -19.5 t-49 -42.5l-42 -42t-37 -19t-38 10.5t-39 18.5z" />
<glyph unicode="&#x2260;" horiz-adv-x="908" d="M104 482v103h241l74 121h-315v107h376l96 162l91 -53l-63 -109h203v-107h-264l-71 -121h335v-103h-394l-95 -167l-96 55l64 112h-182z" />
<glyph unicode="&#x2264;" horiz-adv-x="1272" d="M136 0v107h995v-107h-995zM136 784l992 622v-27q0 -37 -1.5 -57.5t-9 -37.5t-24.5 -32t-47 -40l-670 -425l670 -390q30 -21 47 -36.5t24.5 -32t9 -38t1.5 -53.5v-25z" />
<glyph unicode="&#x2265;" horiz-adv-x="1272" d="M136 0h995v107h-995v-107zM139 212v25q0 34 1.5 54.5t9 37t24.5 32t48 36.5l669 390l-669 425q-30 24 -47.5 39.5t-25 32.5t-9 37.5t-1.5 57.5v27l992 -622z" />
<glyph unicode="&#x25ca;" horiz-adv-x="1363" d="M151 642l488 601l43 51l530 -652l-530 -648zM289 642l393 -481l394 481l-394 483z" />
<glyph unicode="&#x25cc;" horiz-adv-x="1508" d="M112 706q0 64 67 64q64 0 64 -64t-64 -64q-67 0 -67 64zM157 482q0 67 65 67q64 0 64 -67q0 -63 -64 -63t-65 63zM157 931q0 64 65 64q64 0 64 -64q0 -67 -61 -67q-67 0 -68 67zM286 289q0 66 63 66q64 0 64 -66q0 -64 -64 -64q-63 0 -63 64zM286 1119q0 66 63 66 q64 0 64 -66q0 -58 -64 -58q-63 0 -63 58zM477 161q0 67 63 67q64 0 64 -61q0 -63 -64 -63q-63 0 -63 57zM477 1246q0 67 63 67q64 0 64 -67q0 -61 -64 -61q-63 0 -63 61zM700 121q0 64 61 64q66 0 66 -64q0 -66 -66 -66q-61 0 -61 66zM700 1294q0 63 61 65q66 -2 66 -65 q0 -67 -66 -67q-61 0 -61 67zM925 1246q0 67 67 67q57 0 57 -67q0 -61 -57 -61q-67 0 -67 61zM928 161q0 67 64 67q57 0 57 -67q0 -57 -57 -57q-64 0 -64 57zM1113 1119q0 66 67 66q60 0 60 -66q0 -58 -60 -58q-67 0 -67 58zM1116 289q0 66 64 66q60 0 60 -66q0 -64 -60 -64 q-64 0 -64 64zM1240 482q0 67 64 67q66 0 66 -67q0 -63 -66 -63q-64 0 -64 63zM1240 931q0 64 67 64q63 0 63 -64q0 -67 -66 -67q-64 0 -64 67zM1288 706q0 64 66 64q61 0 61 -64t-61 -64q-66 0 -66 64z" />
<glyph unicode="&#x25fc;" horiz-adv-x="1059" d="M0 0v1061h1061v-1061h-1061z" />
<glyph unicode="&#xf700;" horiz-adv-x="1126" d="M154 861q0 61 12.5 119.5t43 109t83.5 80.5t135 30q87 0 179.5 -21.5t179.5 -21.5q34 0 66 18.5t53 42.5l83 -67q-34 -42 -90.5 -69t-111.5 -27q-87 0 -179.5 19.5t-179.5 19.5q-70 0 -114.5 -36.5t-53.5 -105.5q128 -18 258 -35t255 -35q156 -24 158 -185v-549 q0 -52 -24.5 -94t-79.5 -54h-3q-3 9 -34.5 66.5t-68 124.5t-65 123t-31.5 65q-24 -27 -59.5 -41t-71.5 -14q-75 0 -130 53.5t-55 128.5q0 76 53.5 130.5t128.5 54.5q61 0 107.5 -37.5t71.5 -89.5l140 -289q5 -9 6.5 -19t4.5 -19q3 -12 3 -25v476q0 43 -13 64t-56 26z M408 506q0 -34 26 -59t60 -25q37 0 61 23.5t24 60.5q0 34 -26 59.5t-59 25.5q-34 0 -60 -24t-26 -61z" />
<glyph unicode="&#xf701;" d="M-1215 1422q3 165 104.5 270t262.5 102q209 -6 330 -132t145 -317q-157 40 -298.5 63t-300.5 23q-125 0 -243 -9zM-1064 1545q0 -27 31 -21q127 6 266 -8.5t261 -48.5q-43 97 -135.5 165.5t-219.5 68.5q-30 0 -66 -12t-66.5 -32t-50.5 -49t-20 -63z" />
<glyph unicode="&#xf702;" d="M-1215 1422q3 165 106 270t264 102q93 -3 182.5 -45.5t153.5 -111.5v234h101v-390q26 -69 35 -136q-157 40 -297 60t-302 26q-122 0 -243 -9zM-1064 1545q0 -27 31 -21q127 6 266 -8.5t261 -48.5q-43 97 -135.5 165.5t-219.5 68.5q-30 0 -66 -12t-66.5 -32t-50.5 -49 t-20 -63z" />
<glyph unicode="&#xf703;" d="M-1258 1422q3 165 106 270t264 102q70 0 115 -16.5t82 -31.5q6 64 53 107.5t114 43.5q70 0 115 -48.5t45 -118.5q0 -61 -39.5 -103t-96.5 -54q34 -52 54.5 -105t29.5 -123q-157 40 -296 61.5t-303 24.5q-122 0 -243 -9zM-1107 1545q0 -27 31 -21q127 6 266.5 -8.5 t260.5 -48.5q-43 97 -135 165.5t-219 68.5q-29 0 -66 -12t-67.5 -32t-50.5 -49t-20 -63zM-607 1738q0 -35 21.5 -56t55.5 -21q30 -3 53 17.5t23 54.5q0 30 -21.5 53.5t-54.5 23.5q-29 0 -51.5 -21.5t-25.5 -50.5z" />
<glyph unicode="&#xf704;" d="M-1215 1422q3 165 106 270t264 102q34 0 75.5 -9t78.5 -24v104h95v-150q26 -14 46 -31.5t41 -40.5v222h101v-384q26 -69 35 -136q-157 40 -297 60t-302 26q-122 0 -243 -9zM-1064 1545q0 -27 31 -21q127 6 266 -8.5t261 -48.5q-43 97 -135.5 165.5t-219.5 68.5 q-30 0 -66 -12t-66.5 -32t-50.5 -49t-20 -63z" />
<glyph unicode="&#xf705;" d="M-591 1440v428h103v-428h-103z" />
<glyph unicode="&#xf706;" d="M-1110 1752q3 70 56.5 115t116.5 39q90 -6 140.5 -69.5t44.5 -150.5q-3 -49 -27.5 -109.5t-71.5 -84.5q148 24 236 123.5t130 235.5l91 -23q-136 -463 -586 -437v79q30 11 62.5 41.5t38.5 64.5q-30 -15 -76 -15q-63 6 -112 61t-43 130zM-1018 1749q-3 -37 20 -64t46 -30 q37 -3 64 21.5t30 63.5q3 37 -21 61t-64 27q-23 3 -47.5 -21t-27.5 -58z" />
<glyph unicode="&#xf707;" d="M-1166 1558q-15 88 7 151.5t60 105.5t81 63.5t72 21.5q30 -6 60.5 -24.5t55.5 -41.5q23 23 52 40t57 26q88 -17 121 -81t33 -136v-167q52 34 71 110.5t19 143.5q0 37 -4 62t-16 62l94 24q12 -43 16.5 -74t4.5 -80q0 -55 -13 -117t-43.5 -116.5t-78 -91t-113.5 -36.5 q-15 0 -32 24.5t-20 30.5q23 18 22.5 65t-0.5 169q0 26 -15.5 62.5t-48.5 49.5q-23 -15 -48.5 -32t-54.5 -48q-24 24 -56 50.5t-63 32.5q-46 0 -82 -30.5t-51 -81.5q40 45 96 45q70 0 120 -44t56 -117q0 -69 -42 -128.5t-140 -59.5q-66 0 -115.5 47.5t-61.5 119.5z M-1067 1564q0 -37 27.5 -61t59.5 -24q37 0 61.5 25.5t24.5 59.5q0 37 -27.5 62.5t-61.5 25.5q-37 0 -60.5 -25.5t-23.5 -62.5z" />
<glyph unicode="&#xf708;" d="M-855 1585v107h179v176h103v-176h179v-107h-179v-176h-103v176h-179z" />
<glyph unicode="&#xf709;" d="M-861 1536q0 43 12.5 84t42.5 74t78.5 56t117.5 32q73 9 111.5 30.5t47.5 78.5l78 -23q-15 -55 -35 -87t-50 -47.5t-71 -24t-96 -17.5q49 -24 81 -67t32 -95q0 -66 -47.5 -121t-122.5 -55q-88 0 -133.5 56.5t-45.5 125.5zM-764 1527q0 -34 24.5 -56t57.5 -22q34 0 56 23 t22 55q0 34 -22 58t-56 24t-58 -24t-24 -58z" />
<glyph unicode="&#xf70a;" d="M-286 1440v428h104v-428h-104z" />
<glyph unicode="&#xf70b;" d="M-765 1752q3 70 56.5 115t116.5 39q90 -6 140.5 -69.5t44.5 -150.5q-3 -49 -27.5 -109.5t-71.5 -84.5q148 24 236 123.5t130 235.5l91 -23q-136 -463 -586 -437v79q30 11 62.5 41.5t38.5 64.5q-30 -15 -76 -15q-63 6 -112 61t-43 130zM-673 1749q-3 -37 20 -64t46 -30 q37 -3 64 21.5t30 63.5q3 37 -21 61t-64 27q-23 3 -47.5 -21t-27.5 -58z" />
<glyph unicode="&#xf70c;" d="M-981 1558q-15 88 7 151.5t60 105.5t81 63.5t72 21.5q30 -6 60.5 -24.5t55.5 -41.5q23 23 52 40t57 26q88 -17 121 -81t33 -136v-167q52 34 71 110.5t19 143.5q0 37 -4 62t-16 62l94 24q12 -43 16.5 -74t4.5 -80q0 -55 -13 -117t-43.5 -116.5t-78 -91t-113.5 -36.5 q-15 0 -32 24.5t-20 30.5q23 18 22.5 65t-0.5 169q0 26 -15.5 62.5t-48.5 49.5q-23 -15 -48.5 -32t-54.5 -48q-24 24 -56 50.5t-63 32.5q-46 0 -82 -30.5t-51 -81.5q40 45 96 45q70 0 120 -44t56 -117q0 -69 -42 -128.5t-140 -59.5q-66 0 -115.5 47.5t-61.5 119.5z M-882 1564q0 -37 27.5 -61t59.5 -24q37 0 61.5 25.5t24.5 59.5q0 37 -27.5 62.5t-61.5 25.5q-37 0 -60.5 -25.5t-23.5 -62.5z" />
<glyph unicode="&#xf70d;" d="M-477 1585v107h180v176h103v-176h179v-107h-179v-176h-103v176h-180z" />
<glyph unicode="&#xf70e;" d="M-549 1536q0 43 12.5 84t42.5 74t78.5 56t117.5 32q73 9 111.5 30.5t47.5 78.5l78 -23q-15 -55 -35 -87t-50 -47.5t-71 -24t-96 -17.5q49 -24 81 -67t32 -95q0 -66 -47.5 -121t-122.5 -55q-88 0 -133.5 56.5t-45.5 125.5zM-452 1527q0 -34 24.5 -56t57.5 -22q34 0 56 23 t22 55q0 34 -22 58t-56 24t-58 -24t-24 -58z" />
<glyph unicode="&#xf70f;" horiz-adv-x="1651" d="M121 830l15 55q43 148 149 240.5t267 92.5q176 0 285 -95.5t109 -277.5v-741h361q46 0 44 50v1046h104v-1046q0 -67 -39.5 -110.5t-108.5 -43.5h-465v845q0 136 -77 203.5t-213 67.5q-101 0 -176.5 -56.5t-117.5 -144.5q26 -3 56.5 -7.5t56.5 -13.5t44.5 -29t21.5 -55 q-61 -18 -87 -67t-26 -107v-303q37 18 79 19q78 0 131.5 -53t53.5 -129q0 -78 -53 -131.5t-132 -53.5q-82 0 -133.5 58t-51.5 136v457q0 46 14 90t46 81zM321 170q0 -34 24.5 -60t57.5 -26q37 0 61 24.5t24 61.5q0 34 -24 59.5t-61 25.5q-34 0 -58 -26t-24 -59z" />
<glyph unicode="&#xf710;" d="M-906 1619q0 79 54 132t131 53q76 0 130.5 -53t54.5 -132q0 -24 -8 -46.5t-20 -48.5q127 12 259 68.5t227 140.5l69 -75q-58 -52 -129 -97t-150 -77t-161 -50.5t-158 -18.5q-49 0 -101.5 9.5t-96 32t-72.5 62t-29 100.5zM-807 1619q0 -34 24.5 -60t61.5 -26q34 0 59.5 26 t25.5 60q0 37 -25.5 60.5t-59.5 23.5t-60 -24t-26 -60z" />
<glyph unicode="&#xf711;" d="M-827 1594q0 81 57.5 139t139.5 58q78 0 135.5 -57t57.5 -140q0 -81 -57.5 -139t-135.5 -58q-82 0 -139.5 58t-57.5 139zM-728 1594q0 -43 27.5 -69.5t70.5 -26.5q39 0 68 27.5t29 68.5q0 43 -29 70.5t-68 27.5q-43 0 -70.5 -27.5t-27.5 -70.5z" />
<glyph unicode="&#xf712;" d="M-1079 1585q0 127 84.5 183.5t199.5 56.5h211q51 0 85 23t34 83h95q0 -97 -65 -149t-154 -52h-226q-76 0 -123.5 -33t-47.5 -112q0 -43 21.5 -80.5t54.5 -37.5q9 0 21.5 14t26 30t24.5 34.5t17 27.5l139 -92l-9 11q-9 9 -9 26q0 70 46.5 117.5t116.5 47.5q66 0 115 -47.5 t49 -117.5q0 -75 -51.5 -119.5t-121.5 -44.5q-64 0 -129 38.5t-123 71.5l-75 -99q-101 0 -153.5 62t-52.5 158zM-616 1518q0 -34 23 -54.5t56 -20.5q75 0 75 75q0 35 -20.5 57t-54.5 22t-56.5 -22t-22.5 -57z" />
<glyph unicode="&#xf713;" d="M-497 2001v382h103v-382h-103z" />
<glyph unicode="&#xf714;" d="M-641 2253q6 66 53 107t111 41q70 0 112 -53.5t42 -131.5q0 -52 -20.5 -111.5t-63.5 -82.5q136 23 213.5 114t113.5 219l80 -24q-52 -182 -161.5 -285t-291.5 -106h-31t-45 3l3 76q37 12 67.5 32t36.5 55q-6 -3 -24.5 -7.5t-45.5 -4.5q-66 0 -107.5 47.5t-41.5 111.5z M-558 2247q0 -34 20.5 -55.5t54.5 -21.5t55 21.5t21 55.5t-21.5 54.5t-54.5 20.5q-34 0 -54.5 -20.5t-20.5 -54.5z" />
<glyph unicode="&#xf715;" d="M-900 2152q0 64 21.5 109.5t51.5 72.5t63.5 41t57.5 14q23 -6 49 -23t48 -35q18 18 42.5 35t48.5 23q72 -15 101 -67t29 -112v-139q43 26 59 91t16 120q0 34 -4 53.5t-13 53.5l78 17q9 -34 14 -60.5t5 -66.5q0 -46 -12.5 -98.5t-37 -98.5t-63.5 -76t-97 -30 q-15 0 -26.5 20t-14.5 26q18 14 18 75v122q0 23 -13 50.5t-42 37.5q-18 -12 -39.5 -27.5t-45.5 -40.5q-20 21 -50 42.5t-50 28.5q-40 0 -72 -27t-44 -70q15 17 38 27t48 10q61 0 101.5 -37t46.5 -97q0 -60 -33 -109t-112 -49q-75 0 -121 55t-46 139zM-807 2103 q0 -30 21.5 -49.5t52.5 -19.5q30 0 50 21t20 48q0 30 -21.5 51.5t-51.5 21.5q-29 0 -50 -21.5t-21 -51.5z" />
<glyph unicode="&#xf716;" d="M-673 2131v105h164v162h103v-162h163v-105h-163v-161h-103v161h-164z" />
<glyph unicode="&#xf717;" d="M-622 2094q0 82 52 141t188 93q70 15 100 31t48 68l77 -23q-15 -46 -36.5 -73.5t-50 -42.5t-66.5 -25t-87 -19q46 -24 74 -65.5t28 -87.5q0 -63 -43.5 -115t-112.5 -52q-82 0 -126.5 53.5t-44.5 116.5zM-530 2088q0 -34 23.5 -54.5t55.5 -20.5q29 0 52 21.5t23 53.5 q0 34 -23 55t-52 21q-30 0 -54.5 -21t-24.5 -55z" />
<glyph unicode="&#xf718;" d="M-512 -764q0 67 45 112t112 45q66 0 112 -46.5t46 -107.5v-315h-95v170q-14 -6 -29.5 -11t-33.5 -5q-67 0 -112 46t-45 112zM-425 -764q0 -29 21.5 -49t48.5 -20q29 0 49 19t20 50q0 30 -19 50t-50 20q-27 0 -48.5 -21.5t-21.5 -48.5z" />
<glyph unicode="&#xf719;" d="M-731 -764q0 64 46 110.5t112 46.5q67 0 112 -45t45 -112v-222h95q9 0 24.5 7t15.5 39v318h93v-318q0 -60 -36 -99.5t-97 -39.5h-188v173q-15 -6 -30.5 -11t-33.5 -5q-66 0 -112 46t-46 112zM-642 -764q0 -29 21.5 -49t47.5 -20q30 0 50 19t20 50q0 27 -20 48.5t-50 21.5 q-26 0 -47.5 -21.5t-21.5 -48.5z" />
<glyph unicode="&#xf71a;" d="M-370 -706q0 43 29 71t72 28t71 -29t28 -70q0 -43 -29 -72t-70 -29q-34 0 -67.5 26t-33.5 75z" />
<glyph unicode="&#xf71b;" horiz-adv-x="1351" d="M90 167q0 76 53.5 130.5t131.5 54.5q37 0 80 -22v303q0 46 13.5 91.5t47.5 79.5l-158 23l14 58q43 151 170.5 242t281.5 91q81 0 160 -23.5t141.5 -72.5t100 -118.5t37.5 -161.5v-932q0 -162 -97 -267.5t-251 -139.5l-190 145q-15 -64 -65.5 -106t-116.5 -42 q-76 0 -129.5 53t-53.5 132q0 75 53.5 130t129.5 55q39 0 81 -21v90h104v-161q51 -43 107.5 -80t106.5 -80q101 34 160 109.5t59 182.5v932q0 70 -30.5 120t-77.5 85t-106.5 52t-118.5 17q-103 0 -197 -55t-137 -149q26 -3 57 -6t56.5 -13.5t44 -30.5t21.5 -55 q-61 -18 -87 -67t-26 -107v-454q0 -78 -51 -137.5t-134 -59.5q-78 0 -131.5 52.5t-53.5 132.5zM191 167q0 -34 24.5 -60t59.5 -26q34 0 58.5 26t24.5 60q0 37 -24.5 61t-58.5 24q-37 0 -60.5 -25.5t-23.5 -59.5zM361 -315q0 -37 23.5 -61t58.5 -24q37 0 60.5 24t23.5 58 q0 37 -23.5 62t-60.5 25q-35 0 -58.5 -25t-23.5 -59z" />
<glyph unicode="&#xf71c;" horiz-adv-x="1351" d="M90 167q0 76 53.5 130.5t131.5 54.5q37 0 80 -22v303q0 46 13.5 91.5t47.5 79.5l-158 23l14 58q43 151 170.5 242t281.5 91q87 0 166 -22t140 -68t97 -117t36 -169v-954q0 -79 -6 -135t-28 -100t-66.5 -78.5t-116.5 -71.5l-119 118l-121 -112l-93 100q-24 -52 -70 -80.5 t-100 -28.5q-76 0 -129.5 53t-53.5 132q0 75 53.5 130t129.5 55q39 0 81 -21v90h104v-188l100 -103l102 89l128 -113q40 21 60.5 50t30 65t11 79t1.5 92v932q0 73 -27.5 124.5t-73 85t-104 49t-122.5 15.5q-106 0 -200 -53.5t-140 -150.5q26 -3 57 -6t56.5 -13.5t44 -30.5 t21.5 -55q-61 -18 -87 -67t-26 -107v-454q0 -78 -51 -137.5t-134 -59.5q-78 0 -131.5 52.5t-53.5 132.5zM191 167q0 -34 23.5 -60t60.5 -26t60 26t23 60q0 37 -24.5 61t-58.5 24q-37 0 -60.5 -26t-23.5 -59zM361 -315q0 -37 23.5 -61t58.5 -24q37 0 60.5 24t23.5 58 q0 37 -23.5 62t-60.5 25q-35 0 -58.5 -25t-23.5 -59z" />
<glyph unicode="&#xf71d;" horiz-adv-x="1469" d="M90 1030q0 79 53.5 132t131.5 53q76 0 129 -52.5t53 -129.5v-845q0 9 3 21q3 9 4.5 20t7.5 20l306 488h64l301 -488q5 -9 6.5 -20t4.5 -20q3 -12 3 -21v663q0 46 -41 46h-43q-75 0 -128.5 53t-53.5 132q0 75 54.5 128.5t130.5 53.5q84 0 134.5 -60.5t50.5 -139.5v-66 q21 0 44 2.5t43 8.5q24 6 52 12l25 -93q-26 -6 -57 -16q-55 -15 -107 -15v-749q0 -49 -23 -100t-84 -51l-344 588l-347 -588q-57 6 -82.5 53.5t-25.5 97.5v719q-37 -19 -80 -19q-78 0 -131.5 53.5t-53.5 128.5zM191 1030q0 -34 26 -59t58 -25q34 0 60 27t26 60 q0 34 -26 58.5t-60 24.5q-37 0 -60.5 -24.5t-23.5 -61.5zM992 1082q0 -34 25 -59t59 -25t59 24t25 60q0 34 -23.5 59t-60.5 25q-34 0 -59 -25t-25 -59z" />
<glyph horiz-adv-x="1033" d="M-842 1594q0 81 57 139t140 58q78 0 136 -57t58 -140q0 -81 -58 -139t-136 -58q-82 0 -139.5 58t-57.5 139zM-743 1594q0 -43 27.5 -69.5t70.5 -26.5q40 0 68 27.5t28 68.5q0 43 -29 70.5t-67 27.5q-43 0 -70.5 -27.5t-27.5 -70.5zM55 721v121q0 179 117 279t288 100 q85 0 159.5 -25t129.5 -74t86.5 -118.5t31.5 -158.5v-845h-106v845q0 133 -86.5 203.5t-214.5 70.5q-127 0 -215 -72t-88 -205v-121h-102z" />
<glyph d="M-879 1600q0 61 39.5 109.5t124.5 72.5q9 6 9 9t-6 10q-23 15 -40 41.5t-17 60.5q0 82 54.5 120.5t124.5 49.5q78 12 182 3v-72q-110 9 -192 -17t-82 -84q0 -43 44.5 -63.5t125.5 -32.5v-77q-78 0 -131.5 -12t-85 -32t-43.5 -42t-12 -44q0 -40 43.5 -56.5t110.5 -16.5 q49 0 80.5 7.5t52.5 15.5q24 8 37 17l44 -72q-11 -15 -41 -28q-24 -12 -67 -21t-106 -9q-128 0 -188.5 49.5t-60.5 113.5z" />
</font>
</defs>
</svg>
