<?xml version="1.0" standalone="no"?>
<!DOCTYPE svg PUBLIC "-//W3C//DTD SVG 1.1//EN" "http://www.w3.org/Graphics/SVG/1.1/DTD/svg11.dtd" >
<svg xmlns="http://www.w3.org/2000/svg">
<metadata></metadata>
<defs>
<font id="tepc_kanigabold" horiz-adv-x="0" >
<font-face units-per-em="2048" ascent="1638" descent="-410" />
<missing-glyph horiz-adv-x="908" />
<glyph unicode="&#xe4f;&#x22;" horiz-adv-x="951" d="M61 561q0 78 31.5 149t86.5 124.5t129 84t155 30.5q82 0 155 -30.5t128 -84t86.5 -124.5t31.5 -149q0 -79 -31.5 -150.5t-86.5 -125.5t-127.5 -86t-155.5 -32q-81 0 -155 30.5t-129 83t-86.5 126t-31.5 154.5zM173 561q0 -58 22.5 -111t62 -92.5t92.5 -62.5t113 -23 q58 0 111.5 23t92.5 62.5t62 92.5t23 111t-23 109t-62 89.5t-91 60.5t-113 22q-57 0 -108.5 -20.5t-92 -60.5t-65 -89.5t-24.5 -110.5zM255 1221q-6 27 17 45.5t52 18.5h43q34 0 56 -18t17 -46l-24 -178q-6 -29 -26 -40t-45 -11q-58 0 -67 51zM272 561q0 75 56.5 128.5 t134.5 53.5q79 0 133.5 -52t54.5 -130q0 -70 -49.5 -129t-138.5 -59q-78 0 -134.5 56t-56.5 132zM506 1221q-3 27 17 45.5t53 18.5h43q26 0 50.5 -18t18.5 -46l-23 -178q-6 -29 -24.5 -40t-44.5 -11q-23 0 -46 10t-26 41z" />
<glyph unicode="&#xe24;&#xe32;" horiz-adv-x="1938" d="M107 778l20 95q24 79 71.5 141t111 105.5t140.5 68t160 24.5q115 0 210 -36t155 -112q58 73 135.5 112t187.5 39q185 0 296.5 -103t111.5 -291v-1281h-170v1281q0 116 -65 176.5t-173 60.5q-110 0 -172 -60.5t-62 -176.5v-1281h-170v1293q-6 119 -89.5 170.5t-191.5 51.5 q-85 0 -159.5 -37.5t-123.5 -108.5q61 -6 109.5 -33.5t54.5 -108.5q-60 -18 -87.5 -60t-27.5 -88v-222q15 3 26 3h20q90 0 152 -59.5t62 -146.5t-62 -148t-152 -61q-91 0 -155 58t-64 151v425q0 34 9.5 71.5t30.5 70.5zM345 194q0 -34 23 -56.5t57 -22.5t57.5 23t23.5 56 q0 34 -23.5 54.5t-57.5 20.5t-57 -20.5t-23 -54.5z" />
<glyph unicode="&#xe26;&#xe32;" horiz-adv-x="2074" d="M84 194q0 87 62.5 146.5t153.5 59.5q30 0 45 -3v222q0 34 9.5 71.5t24.5 70.5l-133 17l17 95q46 154 179.5 246.5t303.5 92.5q115 0 210.5 -36t159.5 -112q55 73 132 112t189 39q182 0 294 -103t112 -291v-1281h-171v1281q0 116 -65 176.5t-170 60.5q-109 0 -173 -56 t-64 -172v-1290h-170v1293q0 119 -84.5 170.5t-196.5 51.5q-84 0 -160.5 -37.5t-119.5 -108.5q58 -6 107 -33.5t54 -108.5q-60 -18 -87.5 -60t-27.5 -88v-425q0 -101 -56 -155t-159 -54q-90 0 -153 61t-63 148zM215 194q0 -34 25.5 -58t59.5 -24q37 0 59.5 24t22.5 58 t-24.5 56t-57.5 22q-34 0 -59.5 -22t-25.5 -56z" />
<glyph unicode="fi" horiz-adv-x="969" d="M34 903v167h114v9q0 312 332 312h174v-167h-174q-82 0 -117.5 -36.5t-35.5 -108.5v-9h471v-1070h-185v903h-249q-37 0 -37 -39v-864h-179v903h-114z" />
<glyph unicode="fl" horiz-adv-x="1247" d="M34 876v167h114v30q0 154 80.5 236t251.5 82h362v-1030q0 -27 4.5 -61t20 -64t46 -49.5t79.5 -19.5h171v-167h-171q-154 0 -244.5 97t-90.5 264v863h-177q-82 0 -117.5 -39t-35.5 -112v-30h216v-167h-176q-40 0 -40 -40v-836h-179v876h-114z" />
<glyph unicode="B&#x35;&#x31;&#x33;DS&#x21;GN" horiz-adv-x="12136" d="M303 0v1331h672q98 0 186 -18.5t154.5 -59.5t106 -106t39.5 -161q0 -165 -148 -258q112 -49 158.5 -135.5t46.5 -195.5q0 -104 -42 -178t-113.5 -122t-163.5 -72.5t-193 -24.5h-703zM673 286h290q79 0 133.5 23.5t54.5 112.5q0 78 -51 111.5t-137 33.5h-290v-281z M673 813h270q63 0 104 30t41 94q0 75 -48 93.5t-125 18.5h-242v-236zM1816 104l105 278l83 -43q40 -21 106 -37t146 -16q60 0 109.5 16t83.5 50q40 40 36 102q0 52 -27.5 85.5t-69.5 53.5t-97 27.5t-105 7.5q-46 0 -90.5 -3t-85.5 -9l-116 -20l116 755h809v-305h-528 q-6 -37 -12 -60t-12 -64h9q93 0 175.5 -18.5t148.5 -52.5q116 -58 181 -156.5t65 -225.5q0 -106 -43.5 -195t-123 -152.5t-188 -100t-235.5 -36.5q-107 0 -207 19.5t-169 59.5zM3115 1177l379 174h261v-1348h-348v980q-21 -9 -55.5 -26t-68.5 -32q-40 -18 -82 -40zM4153 112 l115 279l82 -46q34 -18 105 -38.5t152 -20.5q136 0 188 53q24 24 28.5 49t4.5 37q0 55 -36.5 85t-83 45t-89.5 18t-55 3h-188v291h188q34 0 72 6t69.5 19.5t53 35t21.5 52.5q0 57 -48.5 73.5t-103.5 16.5q-67 0 -127.5 -20t-93.5 -44l-88 -54l-117 275l63 37q58 40 164 72 t233 32q124 0 212 -32t146.5 -84t86 -117t27.5 -135q0 -78 -34.5 -143t-95.5 -117q87 -55 136 -137t49 -181q0 -79 -35 -158t-106 -141t-180.5 -100t-257.5 -38q-130 0 -233 27.5t-160 60.5zM5538 -15v1360h15h639q162 0 287.5 -49.5t210.5 -144.5q173 -179 173 -475 q0 -303 -170 -491q-177 -200 -501 -200h-654zM5568 15h624q310 0 477 191q161 176 160 470q0 286 -160 455q-164 179 -477 179h-624v-1295zM5905 281v768h18h188q206 0 300 -115q82 -90 82 -295q0 -161 -76 -248q-81 -110 -248 -110h-264zM5941 312h228q100 0 157 38 t87.5 89.5t39.5 108t9 91.5q0 182 -76 276q-84 103 -275 103h-170v-706zM7017 949q0 199 176 315q157 106 382 106q321 0 479 -140l9 -12l-268 -218l-12 12q-37 34 -92.5 46t-127.5 12q-9 0 -35 -3t-53.5 -12t-49 -29t-21.5 -54q0 -48 78 -70.5t183 -46.5q90 -20 188 -48.5 t182 -75.5q194 -109 194 -323q0 -230 -194 -344q-79 -52 -190 -78t-233 -26q-116 0 -253 21.5t-264 105.5l-12 11l179 257l12 -10q85 -58 182.5 -70t166.5 -12q30 0 69.5 4.5t73.5 21.5q60 26 60 93q0 58 -80.5 85t-191.5 51q-87 21 -182 48t-173 73q-91 55 -136.5 129 t-45.5 181zM7051 949q0 -188 165 -284q73 -43 164 -67.5t180 -45.5q61 -12 115 -27.5t95 -34t65 -45t24 -63.5q0 -85 -85 -122q-37 -14 -77.5 -20t-73.5 -6q-69 0 -166 13t-186 65q-6 -9 -27.5 -39t-45 -63.5t-45 -64t-27.5 -38.5q93 -61 210 -88.5t276 -27.5 q106 0 210.5 23t187.5 72.5t134.5 129t51.5 192.5t-50 185t-128.5 117t-174 71t-187.5 43q-118 24 -199.5 54.5t-81.5 93.5q0 70 60.5 97.5t127.5 27.5q75 0 134.5 -10.5t102.5 -43.5q6 6 37.5 31.5t68 54t69.5 54.5t42 35q-148 121 -442 121q-107 0 -201 -25.5t-163 -73.5 q-162 -106 -160 -291zM8451 -12v354h370h15v-354h-385zM8457 940v376v15l382 -3v-18q0 -46 1.5 -91t1.5 -91q2 -46 2 -91v-94q0 -88 -14.5 -190t-33.5 -198q-9 -46 -16.5 -86.5t-13.5 -77.5v-18h-231l-3 18q-3 37 -10.5 77.5t-15.5 86.5q-18 98 -33.5 199t-15.5 186z M8477 15h328v297h-328v-297zM8486 940q0 -85 15.5 -183t33.5 -196q6 -43 15.5 -80.5t15.5 -72.5h175q6 35 12.5 72.5t12.5 80.5q18 98 33.5 196t15.5 186v185q-3 43 -3 85v85h-58t-105 1.5t-104 1.5h-59v-361zM9000 665q0 148 48 278t146 228q97 103 232.5 157t300.5 54 q145 0 272 -50t219 -138l12 -11l-281 -231l-14 9q-78 97 -208 97q-88 0 -150 -31.5t-108 -92.5q-72 -101 -72 -269q0 -157 75 -259q87 -119 255 -117q40 0 88 7t91 34.5t71 77t28 135.5v224h376v-782h-194q-21 24 -39 45q-14 17 -31 35.5t-23 24.5q-73 -60 -168.5 -95 t-198.5 -35q-82 0 -156.5 14t-144.5 38q-64 26 -121.5 63t-104.5 89q-98 98 -149 224.5t-51 276.5zM9029 665q0 -143 49 -266.5t142 -213.5q200 -194 507 -194q100 0 194 35t164 98l12 6l48 -55q18 -20 34.5 -37t20.5 -23h151v722h-312v-194q0 -151 -98 -222 q-84 -66 -214 -66q-177 0 -279 127q-40 58 -61.5 129t-21.5 154q0 60 16 138.5t64 148.5q98 133 282 133q139 0 225 -90q5 5 40 34t74 61t72.5 59.5t42.5 35.5q-87 79 -204 122.5t-250 43.5q-154 0 -283 -51t-227 -154q-90 -94 -139 -216.5t-49 -264.5zM10575 -15v1360h364 q130 -191 236 -347q46 -67 90 -133.5t81.5 -121.5t63.5 -94t35 -56v752h376h12v-1360h-379q-131 188 -236 342q-45 67 -89 132t-82.5 119.5t-66 95.5t-35.5 54v-743h-370zM10603 15h315v809l272 -399q52 -76 101 -149t88 -129.5t63.5 -92.5t24.5 -39h336v1295h-330v-819 q-148 228 -271 406q-52 75 -100 150t-85.5 132.5t-62 94t-27.5 36.5h-324v-1295z" />
<glyph unicode="&#xd;" horiz-adv-x="926" />
<glyph unicode=" "  horiz-adv-x="908" />
<glyph unicode="&#x09;" horiz-adv-x="908" />
<glyph unicode="&#xa0;" horiz-adv-x="908" />
<glyph unicode="!" horiz-adv-x="556" d="M182 0v222h176v-222h-176zM182 382v1160h176v-1160h-176z" />
<glyph unicode="&#x22;" horiz-adv-x="645" d="M101 1516h194l-26 -325q-3 -34 -20.5 -51.5t-42 -25t-47.5 -9.5t-32 -2zM336 1516h194l-24 -325q-3 -34 -21.5 -51.5t-40.5 -25t-45 -9.5t-35 -2z" />
<glyph unicode="#" horiz-adv-x="1391" d="M115 397l33 155h219l46 176h-222l43 160h209l72 318h191l-78 -318h187l73 318h191l-73 -318h237q-21 -61 -46.5 -91t-50.5 -45q-27 -18 -55 -21h-119l-38 -179h249q-18 -58 -45.5 -89.5t-52.5 -46.5q-30 -15 -64 -19h-121l-67 -293q-9 -30 -35 -55q-24 -21 -64 -39.5 t-109 -18.5l90 406h-188l-70 -296q0 -6 -8.5 -24.5t-31.5 -37t-62.5 -33.5t-105.5 -15l90 406h-224zM558 576q-6 -24 21 -24h136q34 0 37 27l26 124q6 27 -23 28h-133q-34 0 -37 -25z" />
<glyph unicode="$" horiz-adv-x="1391" d="M157 485h179q3 -136 83.5 -219.5t187.5 -104.5v427q0 37 -34 37q-82 3 -156.5 19t-131.5 56t-92.5 103.5t-35.5 157.5q0 100 38.5 178.5t102 136t143.5 94t166 48.5v149h174v-115q0 -30 34 -40q82 -18 156.5 -57t131.5 -100t90.5 -143t33.5 -181h-178q0 139 -80.5 217.5 t-187.5 103.5v-442q0 -21 11.5 -25t20.5 -4q84 -5 160 -21.5t131.5 -55.5t89 -101.5t33.5 -159.5q0 -101 -36.5 -179.5t-97 -134.5t-142 -89.5t-170.5 -48.5v-158h-174v115q0 24 -7 32t-27 17q-82 18 -158 57t-131.5 101.5t-91 144.5t-35.5 185zM336 961q0 -30 8 -59t35 -52 t82.5 -40t145.5 -23v434q0 24 -14 24.5t-23 -2.5q-98 -26 -166 -96.5t-68 -185.5zM781 206q0 -24 11.5 -31.5t22.5 -7.5q6 0 7.5 1.5t4.5 1.5h6q88 30 152 96.5t64 176.5q0 34 -6.5 62t-33 52.5t-80.5 41.5t-148 23v-416z" />
<glyph unicode="%" horiz-adv-x="1545" d="M157 1116q0 118 82 199.5t204 81.5q60 0 113.5 -21.5t92.5 -60.5t62 -88.5t23 -110.5q0 -116 -83.5 -198t-207.5 -82q-122 0 -204 82t-82 198zM182 24q151 222 269.5 394.5t209.5 304.5t156 227.5t111 162.5q105 154 142 206q15 23 33.5 44.5t46 32t69.5 9t106 -25.5 q-304 -439 -481 -699.5t-268 -393.5q-107 -157 -142 -213q-58 -76 -110 -88t-142 39zM327 1116q0 -46 33.5 -81t82.5 -35q48 0 83 35t35 81q0 52 -35 86.5t-83 34.5q-49 0 -82.5 -34.5t-33.5 -86.5zM787 278q0 58 23 110t62.5 89.5t92.5 59t111 21.5q61 0 112.5 -21.5 t91 -59t61 -89.5t21.5 -110q0 -57 -21.5 -108.5t-61 -89t-91 -59t-112.5 -21.5q-58 0 -111 21.5t-92.5 59t-62.5 89t-23 108.5zM958 278q0 -49 36 -83t82 -34t82 35t36 82q0 46 -36 82.5t-82 36.5t-82 -36.5t-36 -82.5z" />
<glyph unicode="&#x26;" horiz-adv-x="1391" d="M130 408q0 79 32 153.5t110 141.5l141 121q24 24 16.5 39.5t-13.5 24.5q-46 61 -86.5 117t-40.5 135q0 60 23.5 115t65 94t95.5 62t118 23q60 0 115 -23t97 -62t66.5 -94t24.5 -115q0 -104 -56.5 -170.5t-125.5 -124.5q-12 -12 -18 -19.5t18 -33.5l251 -344 q35 98 48 202.5t16 167.5h176l-3 -57q-3 -34 -9 -86.5t-20 -116.5t-33 -132t-50 -134l191 -243q-64 -49 -130.5 -47.5t-112.5 71.5l-50 72q-79 -75 -187 -116t-203 -41q-100 0 -184.5 35t-148 94t-98.5 134.5t-35 156.5zM303 406q0 -49 23 -94.5t64 -80t93.5 -56 t109.5 -21.5q58 0 121.5 21.5t127.5 73.5q34 20 -9 78l-281 388l-158 -139q-49 -40 -70 -84t-21 -86zM463 1140q0 -49 38.5 -88.5t89.5 -39.5q48 0 87.5 39.5t39.5 88.5q0 51 -39.5 89t-87.5 38q-61 0 -94.5 -36.5t-33.5 -90.5z" />
<glyph unicode="'" horiz-adv-x="617" d="M191 1516h197l-27 -325q-3 -34 -21.5 -51.5t-41.5 -25t-45 -9.5t-35 -2z" />
<glyph unicode="(" horiz-adv-x="926" d="M154 607q0 157 11 311.5t32 286t51 227t67 132.5h3q58 55 155 106t255 51v-130q-103 0 -164 -43.5t-101 -83.5q-34 -30 -57.5 -118t-38.5 -208t-23 -263.5t-8 -286.5q0 -119 4.5 -229t18.5 -202.5t37 -162t55 -104.5q43 -39 107 -84.5t170 -45.5v-127q-157 0 -257.5 50.5 t-161.5 107.5q-40 40 -70 121.5t-48 190.5t-27.5 237.5t-9.5 266.5z" />
<glyph unicode=")" horiz-adv-x="920" d="M200 -240q103 0 164 46t99 84q37 35 60 107.5t38 169t21 212t6 237.5q0 142 -7.5 279.5t-24 254.5t-39.5 200.5t-54 113.5q-40 40 -100 83.5t-163 43.5v130q161 0 255 -51t155 -106h3q37 -37 65 -129.5t48 -219.5t30.5 -279t10.5 -306q0 -139 -9 -272t-27.5 -245.5 t-49 -197.5t-71.5 -124q-61 -57 -156.5 -107.5t-253.5 -50.5v127z" />
<glyph unicode="*" horiz-adv-x="617" d="M81.5 1392.5q-14.5 44.5 5.5 96.5l153 -55v64q0 60 39 78t94 12v-151l61 21q46 15 82 -14t45 -79l-145 -49l35 -49q34 -43 15.5 -85t-66.5 -72l-94 127l-40 -49q-34 -42 -80.5 -36.5t-81.5 45.5l96 116l-58 20q-46 15 -60.5 59.5z" />
<glyph unicode="+" horiz-adv-x="926" d="M81 567v167h295v287h176v-287h293v-167h-293v-289h-176v289h-295z" />
<glyph unicode="," horiz-adv-x="617" d="M154 -87q64 6 91 28t33 44q-52 12 -83 50t-31 92q0 61 41 103t107 42q82 0 119.5 -54t37.5 -125q0 -34 -9 -83.5t-40.5 -96t-94 -86t-171.5 -52.5v138z" />
<glyph unicode="-" horiz-adv-x="926" d="M112 567v167h703v-167h-703z" />
<glyph unicode="." horiz-adv-x="617" d="M161 145q0 64 42.5 108t108.5 44q67 0 110.5 -44t43.5 -108q0 -61 -43.5 -103t-110.5 -42q-66 0 -108.5 42t-42.5 103z" />
<glyph unicode="/" horiz-adv-x="1081" d="M101 -18q217 452 347.5 722.5t199.5 417.5q82 170 116 237q34 69 89.5 79.5t129.5 -16.5q-206 -436 -337 -706.5t-203 -420.5q-85 -177 -122 -255q-34 -67 -86.5 -76.5t-133.5 18.5z" />
<glyph unicode="0" horiz-adv-x="1272" d="M93 451v495q0 115 44.5 204.5t118.5 150.5t172.5 92.5t204.5 31.5q107 0 204 -31.5t172.5 -92.5t121.5 -149t46 -203v-492q0 -115 -44.5 -204t-120 -151t-174 -94t-205.5 -32q-106 0 -203 32t-172.5 92.5t-120 149.5t-44.5 201zM269 451q0 -75 32 -131.5t82.5 -94 t117 -57.5t132.5 -20q70 0 136.5 20t117 59t81 97t30.5 133v492q0 75 -32 131.5t-82.5 94t-115.5 57.5t-135 20q-69 0 -134 -20t-117 -57.5t-82.5 -95.5t-30.5 -133v-495z" />
<glyph unicode="1" horiz-adv-x="1272" d="M179 0v167h342q46 0 46 48v965l-228 -168l-102 139l356 255q55 0 84 -23.5t44 -54.5q15 -34 19 -79v-1034q0 -49 44 -48h326v-167h-931z" />
<glyph unicode="2" horiz-adv-x="1272" d="M136 0v84q0 131 27.5 214.5t125.5 146.5l512 333q66 43 105.5 88.5t39.5 139.5q0 58 -27.5 103t-71 75.5t-100 46t-114.5 15.5q-54 0 -107.5 -18.5t-97 -51.5t-69.5 -85t-26 -119h-172q0 107 41 189t109 137.5t153 84.5t169 29q91 0 177.5 -26.5t154.5 -78.5t109.5 -128 t41.5 -173q0 -78 -18.5 -134.5t-49 -98.5t-72.5 -74t-88 -63l-485 -306q-88 -55 -88 -139q0 -15 9 -19.5t18 -4.5h812v-167h-1018z" />
<glyph unicode="3" horiz-adv-x="1272" d="M133 477h170q0 -85 29 -148t77 -103.5t107.5 -60.5t119.5 -20q61 0 120 18.5t106 55t75.5 92.5t28.5 129q-3 115 -79.5 164.5t-207.5 49.5q-43 0 -59 21.5t-16 52.5v33q0 23 17.5 44.5t57.5 21.5q110 0 171.5 35t61.5 156q0 64 -25.5 106t-65.5 68t-89.5 38.5t-98.5 12.5 q-121 0 -198 -76t-77 -198h-173q0 98 33.5 178t92.5 137.5t142 91t180 33.5q206 0 329 -104.5t123 -286.5q0 -170 -110 -269q79 -49 119 -127.5t46 -176.5q6 -112 -36.5 -200t-115.5 -146.5t-166.5 -89t-185.5 -30.5q-93 0 -184 32t-160.5 95.5t-114 156t-44.5 214.5z" />
<glyph unicode="4" horiz-adv-x="1272" d="M148 312q0 46 3 78t11 55.5t20 48t30 52.5l555 854h216l-607 -920h419q34 0 32 32v191q0 127 173 127v-350h154v-168h-121q-34 0 -33 -34v-278h-173v312h-679z" />
<glyph unicode="5" horiz-adv-x="1272" d="M130 477h173q0 -82 30.5 -145t78.5 -103.5t112 -62t130 -21.5q67 0 130.5 20t112.5 56.5t77.5 92.5t28.5 129v115q0 70 -31.5 118t-82 82t-112.5 48.5t-123 14.5q-78 0 -158 -30t-132 -97q-34 -46 -50.5 -60.5t-47.5 -14.5q-11 0 -32.5 4.5t-41 13t-35 24t-15.5 36.5v500 q0 203 231 203h740v-166h-740q-55 0 -55 -43v-303q139 101 336 101q93 0 188 -27.5t169 -81t121.5 -133.5t47.5 -189v-115q0 -110 -44.5 -196t-117 -145t-166.5 -91t-198 -32q-103 0 -196.5 33.5t-166.5 97t-117 156t-44 211.5z" />
<glyph unicode="6" horiz-adv-x="1272" d="M121 440v509q0 112 44 198.5t117 145t167 89t196 30.5q116 0 237 -46.5t209 -153.5l-128 -112q-66 78 -150.5 113.5t-164.5 35.5q-66 0 -130 -20t-113.5 -57.5t-78.5 -94t-29 -128.5v-73q0 -15 12 -20t21 2q70 49 147.5 70t170.5 21q237 0 381.5 -124.5t144.5 -381.5 q0 -107 -44.5 -191.5t-117 -145t-168 -94t-199.5 -33.5q-103 0 -196.5 30.5t-166.5 89t-117 145t-44 196.5zM297 440q0 -73 30.5 -127.5t78.5 -92.5t110.5 -56.5t128.5 -18.5q70 0 133.5 20t111 57.5t76.5 94t29 128.5q0 183 -95.5 259.5t-251.5 76.5q-66 0 -130 -19 t-113.5 -55.5t-78.5 -91t-29 -127.5v-48z" />
<glyph unicode="7" horiz-adv-x="1272" d="M164 1234v166h952q0 -121 -24.5 -212t-55.5 -170l-394 -1018h-185l465 1200q6 15 -0.5 24.5t-21.5 9.5h-736z" />
<glyph unicode="8" horiz-adv-x="1272" d="M112 434q0 142 67 230t179 151q15 6 0 21q-34 37 -73 98t-39 133q0 79 33 142.5t88 109.5t126 69.5t143 23.5q73 0 144 -23.5t126 -69.5t89.5 -109.5t34.5 -142.5q0 -78 -40.5 -137.5t-77.5 -93.5q-12 -12 0 -21q106 -63 178.5 -154t72.5 -227q0 -119 -45 -204t-119 -139 t-168 -81.5t-192 -27.5q-100 0 -195 26t-169.5 80t-118.5 139t-44 207zM289 434q0 -76 28 -130.5t77 -88t112.5 -50.5t132.5 -17q67 0 129 17t111 50.5t79.5 88t30.5 127.5q0 72 -29 127t-79.5 91t-112.5 52.5t-132 16.5q-63 0 -127 -18t-112 -54t-78 -89.5t-30 -122.5z M419 1067q0 -43 19 -76t51 -57.5t69.5 -36.5t77.5 -12t79.5 12t71 36.5t51.5 57.5t20 76t-20 75t-51.5 55.5t-71 36t-79.5 12.5t-77.5 -12.5t-69.5 -34.5t-51 -55.5t-19 -76.5z" />
<glyph unicode="9" horiz-adv-x="1272" d="M107 949q0 106 43.5 190.5t116 145t168 94t198.5 33.5q104 0 198 -30.5t166.5 -89t116 -143.5t43.5 -197v-509q0 -113 -43.5 -199.5t-116 -145t-166.5 -89t-198 -30.5q-115 0 -236.5 47t-208.5 153l127 116q67 -79 152 -114.5t163 -35.5q70 0 132 18.5t112.5 56.5 t79.5 94t29 129v75q0 12 -12.5 17t-21.5 -2q-70 -49 -149 -69.5t-170 -20.5q-233 0 -378 125.5t-145 380.5zM286 946q0 -179 97 -256t247 -77q70 0 132 19t112.5 55.5t79.5 91t29 127.5v46q0 72 -30.5 127t-79.5 92.5t-111 56t-129 18.5q-69 0 -132.5 -20t-111 -57.5 t-75.5 -94t-28 -128.5z" />
<glyph unicode=":" horiz-adv-x="772" d="M218 145q0 64 42.5 107t106.5 43q67 0 110.5 -43t43.5 -107q0 -61 -43.5 -101.5t-110.5 -40.5q-64 0 -106.5 40.5t-42.5 101.5zM218 894q0 61 42.5 103t106.5 42q67 0 110.5 -42t43.5 -103q0 -64 -43.5 -104.5t-110.5 -40.5q-64 0 -106.5 40.5t-42.5 104.5z" />
<glyph unicode=";" horiz-adv-x="772" d="M209 -87q63 6 92 28t35 44q-52 12 -85 50t-33 92q0 61 42.5 103t106.5 42q81 0 120.5 -54t39.5 -125q0 -34 -9 -83.5t-42 -96t-95.5 -86t-171.5 -52.5v138zM218 891q0 61 42.5 103t106.5 42q67 0 110.5 -42t43.5 -103q0 -64 -43.5 -104.5t-110.5 -40.5q-64 0 -106.5 40.5 t-42.5 104.5z" />
<glyph unicode="&#x3c;" horiz-adv-x="1296" d="M93 685l1081 779v-94q0 -39 -1.5 -63.5t-11.5 -42.5t-30.5 -36.5t-57.5 -44.5l-676 -495l676 -460q37 -24 57.5 -42.5t30.5 -37t11.5 -43t1.5 -59.5v-92z" />
<glyph unicode="=" horiz-adv-x="926" d="M81 443v164h764v-164h-764zM81 709v167h764v-167h-764z" />
<glyph unicode="&#x3e;" horiz-adv-x="1296" d="M121 -46v110q0 34 1.5 53t10.5 36t29 33.5t53 41.5l685 463l-685 492q-34 23 -52 41.5t-27 36.5t-10.5 42.5t-1.5 61.5v99l1076 -779z" />
<glyph unicode="?" horiz-adv-x="1175" d="M107 1085q0 90 33 175t94 150.5t145 105t188 39.5q93 0 175 -34.5t144.5 -95t98.5 -141.5t36 -171q0 -81 -49.5 -179t-187.5 -185q-57 -37 -92 -88t-35 -121v-176h-191v176q0 43 9.5 88t35 92t68.5 92.5t109 84.5q52 29 81 57.5t43.5 55t17.5 52.5t3 51q0 112 -77 189 t-189 77q-136 0 -205.5 -88t-69.5 -206h-185zM472 -3v228h182v-228h-182z" />
<glyph unicode="@" horiz-adv-x="1854" d="M121 784q0 165 64 310.5t174 253t259 169.5t319 62q157 0 294 -46.5t236.5 -133t156 -211t56.5 -282.5q0 -113 -38.5 -224.5t-106.5 -201t-163.5 -144.5t-211.5 -55q-54 0 -101 21.5t-76 67.5q-49 -30 -108.5 -45.5t-116.5 -15.5q-142 0 -218.5 84t-76.5 229 q0 100 35 209t101 200t159 150t208 59q61 0 119 -15.5t100 -53.5l12 35h179l-225 -636q-5 -15 -9.5 -39.5t1.5 -45.5q3 -14 17 -27t28 -13q73 0 130.5 49t100 118.5t65.5 151t23 148.5q0 124 -44.5 218t-121.5 157.5t-181.5 95.5t-225.5 32q-133 0 -250 -52.5t-203.5 -142 t-136 -206.5t-49.5 -247q0 -128 46.5 -241t131.5 -199.5t203.5 -137t260.5 -50.5q173 0 330.5 63.5t248.5 191.5h193q-118 -209 -325 -313.5t-447 -104.5q-185 0 -337 64t-257.5 172.5t-163.5 257.5t-58 314zM651 630q0 -54 33.5 -99.5t88.5 -45.5q63 0 116.5 50t82.5 101 q43 70 75 164t32 169q0 43 -30.5 76.5t-76.5 33.5q-72 0 -133 -45t-101.5 -114t-63.5 -146t-23 -144z" />
<glyph unicode="A" horiz-adv-x="1302" d="M46 0l515 1391h151l515 -1391h-184l-176 469q-6 18 -24.5 33.5t-50.5 15.5h-361l-197 -518h-188zM497 712q-2 -6 -2 -10q0 -14 20 -14h266l-130 355q-3 12 -15 12q-11 0 -14 -12z" />
<glyph unicode="B" horiz-adv-x="1317" d="M139 0v1203q0 88 58 138t142 50h219q104 0 200.5 -18.5t170.5 -63.5t119.5 -120.5t45.5 -193.5q0 -82 -36.5 -145t-96.5 -110q97 -58 149.5 -143t52.5 -200q0 -116 -42 -191.5t-114.5 -120.5t-168 -65t-199.5 -20h-500zM321 173h318q64 0 126 9t111 33.5t78 68t29 113.5 q0 130 -82.5 183t-209.5 53h-370v-460zM321 864q0 -23 15.5 -40t39.5 -17h284q104 0 178 46.5t74 141.5q0 72 -30.5 115.5t-80 68t-113 32t-130.5 7.5h-194q-43 0 -43 -38v-316z" />
<glyph unicode="C" horiz-adv-x="1317" d="M110 445v504q0 112 43.5 198.5t116 145t169.5 90.5t203 32q101 0 193.5 -30.5t165 -87.5t119 -142t57.5 -192l-185 -14q-15 145 -118.5 219.5t-231.5 74.5q-66 0 -130 -20t-113.5 -56t-78 -91t-28.5 -127v-504q0 -72 30 -127t79.5 -91t112 -54.5t128.5 -18.5 q64 0 124.5 18.5t108 54.5t79.5 91t41 127l182 -14q-9 -107 -56.5 -190.5t-120 -140.5t-165 -87.5t-193.5 -30.5q-103 0 -200 30.5t-171 89.5t-117.5 145t-43.5 198z" />
<glyph unicode="D" horiz-adv-x="1339" d="M139 0v1391h526q106 0 202 -30t171 -89.5t118.5 -147.5t43.5 -199v-462q0 -112 -43.5 -198t-119.5 -145t-171.5 -89.5t-200.5 -30.5h-526zM321 173h344q66 0 129.5 18t113.5 54t80 91t30 127v462q0 73 -30 127.5t-78.5 92.5t-112 55.5t-132.5 17.5h-344v-1045z" />
<glyph unicode="E" horiz-adv-x="1320" d="M110 445v504q0 112 42 200t114.5 146.5t169.5 89t206 30.5q101 0 193.5 -30.5t165 -87.5t119 -140.5t57.5 -193.5l-182 -14q-6 72 -38 127t-81 92.5t-109.5 56t-124.5 18.5q-66 0 -130 -20t-112 -56t-78 -91t-30 -127v-88q0 -60 57 -60h466v-173h-523v-183q0 -72 30 -127 t79.5 -91t113.5 -54.5t130 -18.5q64 0 123 18.5t106.5 54.5t79.5 91t41 127l185 -14q-9 -107 -58 -190.5t-121.5 -140.5t-163.5 -87.5t-192 -30.5q-106 0 -203 30.5t-171 89.5t-117.5 145t-43.5 198z" />
<glyph unicode="F" horiz-adv-x="1269" d="M110 0v949q0 112 42 200t114.5 146.5t169.5 89t206 30.5q101 0 193.5 -30.5t165 -87.5t119 -142t57.5 -192l-182 -14q-6 72 -38 127t-81 92.5t-109.5 56t-124.5 18.5q-66 0 -130 -20t-112 -56t-78 -91t-30 -127v-88q0 -60 57 -60h466v-173h-523v-628h-182z" />
<glyph unicode="G" horiz-adv-x="1320" d="M110 445v504q0 112 43.5 200t116 146.5t169.5 89t203 30.5q101 0 193.5 -30.5t165 -87.5t119 -140.5t57.5 -193.5l-182 -14q-6 72 -38 127t-81 92.5t-109.5 56t-124.5 18.5q-66 0 -130 -20t-112 -56t-78 -91t-30 -127v-504q0 -72 30 -127t79.5 -91t113.5 -54.5t130 -18.5 q67 0 130.5 20t112.5 56t79.5 92.5t30.5 128.5v101q0 76 -70 76h-286v170h541v-347q0 -112 -44.5 -199.5t-118.5 -146.5t-171 -91t-204 -32q-106 0 -203 30.5t-171 89.5t-117.5 145t-43.5 198z" />
<glyph unicode="H" horiz-adv-x="1380" d="M139 0v1391h182v-524q0 -26 20 -44.5t47 -18.5h627v587h182v-1391h-182v567q0 29 -20 47.5t-43 18.5h-631v-633h-182z" />
<glyph unicode="I" horiz-adv-x="489" d="M139 0v1391h182v-1391h-182z" />
<glyph unicode="J" horiz-adv-x="1215" d="M49 425l179 15q12 -140 103 -217.5t218 -77.5q133 0 224 79t91 216v708q0 35 -18.5 54t-50.5 19h-289v170h540v-951q0 -107 -40 -193t-106.5 -146.5t-157.5 -94t-193 -33.5q-101 0 -187.5 32t-153 90.5t-108.5 142t-51 187.5z" />
<glyph unicode="K" horiz-adv-x="1278" d="M139 -3v1394h176v-570q173 145 347 294t344 294l107 -127l-440 -385q94 -6 179 -38t148.5 -86.5t101.5 -131.5t38 -175v-469h-179v469q0 64 -27.5 114t-73 83.5t-103 50.5t-118.5 17q-63 0 -121 -17t-103 -51.5t-72.5 -85t-27.5 -114.5v-466h-176z" />
<glyph unicode="L" horiz-adv-x="1087" d="M139 200v1191h182v-1160q0 -58 49 -58h642v-173h-679q-101 0 -147.5 56t-46.5 144z" />
<glyph unicode="M" horiz-adv-x="1642" d="M139 0v1188q0 27 7.5 63.5t27.5 66.5t53 51.5t82 21.5l449 -1027q9 -18 17.5 -23t19.5 -5q9 0 17.5 4.5t14.5 23.5l458 1024q48 -3 81.5 -24.5t53.5 -50t27.5 -63.5t7.5 -62v-1188h-179v946q3 -6 0 -15q-3 -6 -4.5 -15.5t-7.5 -21.5l-397 -894h-149l-388 894q-6 12 -6 20 t-3 14q-3 9 -3 15v-943h-179z" />
<glyph unicode="N" horiz-adv-x="1408" d="M139 0v1194q0 27 9 62t30.5 63.5t54.5 50t79 21.5l731 -1058v1058h181v-1194q0 -30 -9 -63t-30.5 -63.5t-54.5 -50.5t-81 -20l-728 1058v-1058h-182z" />
<glyph unicode="O" horiz-adv-x="1320" d="M110 445v504q0 112 43.5 200t116 146.5t169.5 89t203 30.5q107 0 204 -30.5t172.5 -89t120 -145t44.5 -198.5v-501q0 -112 -44.5 -199.5t-118.5 -146.5t-171 -91t-204 -32q-106 0 -203 30.5t-171 89.5t-117.5 145t-43.5 198zM292 445q0 -72 30 -127t79.5 -91t113.5 -54.5 t130 -18.5q67 0 130.5 20t112.5 56t79.5 92.5t30.5 128.5v501q0 72 -30.5 127t-81 91t-114 54.5t-130.5 18.5q-66 0 -130 -20t-112 -56t-78 -91t-30 -127v-504z" />
<glyph unicode="P" horiz-adv-x="1238" d="M139 0v1191q0 101 58 150.5t155 49.5h308q93 0 179 -27.5t151 -78.5t103 -127t38 -175q0 -98 -38 -173.5t-103 -128.5t-150 -80.5t-180 -27.5h-342v-573h-179zM318 798q0 -55 52 -55h290q55 0 106.5 15t92.5 45t65.5 76t24.5 104q0 60 -24.5 104t-65.5 74t-92.5 45 t-106.5 15h-299q-43 0 -43 -44v-379z" />
<glyph unicode="Q" horiz-adv-x="1317" d="M110 443v506q0 112 43.5 198.5t116 145t169.5 89t203 30.5q107 0 202.5 -30.5t171 -89t120 -145t44.5 -195.5v-507q0 -193 -118.5 -307t-300.5 -147q-15 -3 -15 -18q0 -23 21 -34q29 -17 79.5 -24.5t102.5 -7.5q37 0 76 3t72 9v-171q-52 -6 -80 -6h-54q-106 0 -177 15 t-119 46q-97 70 -109 188q-90 12 -172.5 47t-144.5 92.5t-96.5 134.5t-34.5 178zM286 443q0 -73 29.5 -128t81 -92.5t117 -56t131.5 -18.5q70 0 133.5 20t112.5 57.5t79 94t30 128.5v504q0 72 -30 127t-80.5 92.5t-114 56t-133.5 18.5q-66 0 -131.5 -20t-115.5 -56 t-79.5 -92.5t-29.5 -128.5v-506z" />
<glyph unicode="R" horiz-adv-x="1284" d="M139 0v1191q0 101 58 150.5t155 49.5h308q93 0 179 -27.5t151 -78.5t103 -127t38 -175q0 -88 -29 -153.5t-87 -126.5q-9 -9 -9 -18t9 -18q58 -57 85.5 -121t27.5 -152v-394h-182v394q0 60 -33.5 118t-99.5 58h-495v-570h-179zM318 798q0 -55 52 -55h290q121 0 205 62 t84 178q0 60 -24.5 104t-65.5 74t-92.5 45t-106.5 15h-293q-49 0 -49 -44v-379z" />
<glyph unicode="S" horiz-adv-x="1320" d="M112 946q0 112 44 200t116.5 146.5t170 89t202.5 30.5q101 0 193.5 -30.5t163.5 -87.5t117.5 -140.5t57.5 -192.5l-179 -15q-6 72 -38 128.5t-81 94t-109.5 56t-124.5 18.5q-66 0 -130 -20t-112 -56t-78 -92.5t-30 -128.5q0 -61 34.5 -93t85.5 -46.5t113.5 -18.5 t116.5 -4q91 0 187 -8.5t173 -43.5t127.5 -101.5t50.5 -185.5q0 -112 -44.5 -196.5t-120 -143.5t-171 -89.5t-202.5 -30.5q-100 0 -190.5 30.5t-163.5 86t-120 139t-56 190.5l180 14q8 -72 40 -127t80 -91t107.5 -54.5t122.5 -18.5q67 0 129 18.5t112.5 54.5t81 91t30.5 127 q0 61 -36.5 96t-90 50.5t-114 18.5t-112.5 3q-87 0 -182.5 8.5t-173 42t-127.5 100t-50 182.5z" />
<glyph unicode="T" horiz-adv-x="1166" d="M46 1221v170h1057v-170h-372q-24 0 -44 -18t-20 -43v-1160h-182v1160q0 24 -18.5 42.5t-41.5 18.5h-379z" />
<glyph unicode="U" horiz-adv-x="1317" d="M110 445v946h182v-946q0 -72 30 -127t79.5 -91t112 -54.5t128.5 -18.5q70 0 133.5 20t112.5 56t79.5 92.5t30.5 128.5v940h182v-940q0 -112 -44.5 -199.5t-118.5 -146.5t-171 -91t-204 -32q-106 0 -203 30.5t-169.5 89.5t-116 145t-43.5 198z" />
<glyph unicode="V" horiz-adv-x="1269" d="M30 1391h185l370 -983q8 -26 34 -26q23 0 35 26l370 983h185l-512 -1391h-148z" />
<glyph unicode="W" horiz-adv-x="1842" d="M46 1391h191l269 -937q6 -17 12 -20t12 -3q9 0 15.5 3t12.5 20l287 786h135l293 -786q6 -17 12 -20t13 -3q6 0 12 3t12 20l269 937h191l-379 -1391h-160l-300 879q-3 18 -24 18q-18 0 -25 -18l-303 -879h-154z" />
<glyph unicode="X" horiz-adv-x="1290" d="M30 0l458 651q15 18 15 46q0 24 -12 40l-461 654h222l378 -540l382 540h218l-460 -648q-15 -24 -15 -40q0 -21 18 -49l457 -654h-218l-382 533l-378 -533h-222z" />
<glyph unicode="Y" horiz-adv-x="1317" d="M30 1391h222l349 -494q12 -18 20.5 -22.5t17.5 -4.5t18.5 4.5t24.5 22.5l354 494h219l-482 -682q-18 -27 -28.5 -53t-10.5 -68v-588h-182v588q0 40 -14 68.5t-29 52.5z" />
<glyph unicode="Z" horiz-adv-x="1320" d="M110 0q0 64 4 104.5t16 72.5t29 57.5t44 60.5l749 923h-842v173h1073q0 -63 -6 -105.5t-18.5 -72.5t-30.5 -56t-43 -60l-749 -924h844v-173h-1070z" />
<glyph unicode="[" horiz-adv-x="963" d="M200 -157v1678q0 85 57.5 142.5t150.5 57.5h341v-166h-333q-15 0 -27.5 -6.5t-12.5 -27.5v-1678q0 -34 12 -40t34 -6h327v-164h-330q-37 0 -75 6t-69.5 29t-53 63.5t-21.5 111.5z" />
<glyph unicode="\" horiz-adv-x="1081" d="M101 1394q69 24 129 13.5t94 -79.5q21 -49 98 -203q63 -130 189 -393t341 -714q-151 -70 -215 52q-46 90 -96 190.5t-120 248.5t-169.5 360.5t-250.5 524.5z" />
<glyph unicode="]" horiz-adv-x="960" d="M215 -203h337q18 0 27 6t9 40v1678q0 21 -10.5 27.5t-22.5 6.5h-337v166l337 -3q87 0 146.5 -56t59.5 -141v-1678q0 -69 -18.5 -110.5t-48 -64.5t-66.5 -29t-73 -6h-340v164z" />
<glyph unicode="^" horiz-adv-x="1296" d="M73 940l569 737l543 -740q-34 0 -58 -1.5t-45 -1.5q-37 0 -60.5 3t-41 12t-30.5 24.5t-31 38.5l-277 373l-290 -373q-18 -20 -32 -35.5t-31 -24.5t-40.5 -12t-63.5 -3q-21 0 -48 1.5t-64 1.5z" />
<glyph unicode="_" horiz-adv-x="1296" d="M142 0h977v-167h-977v167z" />
<glyph unicode="`" horiz-adv-x="683" d="M139 1412l158 86l200 -274q-23 -15 -53.5 -28t-64.5 -13q-52 0 -82 38z" />
<glyph unicode="a" horiz-adv-x="1053" d="M49 370q0 81 31.5 152t89.5 124.5t133.5 84t159.5 30.5q64 0 121.5 -20t106.5 -50q6 -6 15 -1.5t9 13.5v12q0 49 -21 83.5t-55.5 59t-79 36.5t-90.5 12q-66 0 -127 -32t-93 -101l-171 66q52 116 161 175t230 59q82 0 158 -23t135 -68t95.5 -111.5t36.5 -155.5v-715h-145 l-6 24q-8 25 -29 25q-13 0 -32 -9q-43 -24 -100.5 -39.5t-118.5 -15.5q-84 0 -159.5 29t-133.5 81.5t-89.5 123t-31.5 151.5zM215 370q0 -98 74 -164.5t174 -66.5q98 0 172 66.5t74 164.5q0 49 -19.5 92.5t-54 75.5t-79 50.5t-93.5 18.5t-94 -18.5t-79.5 -50.5t-54.5 -75.5 t-20 -92.5z" />
<glyph unicode="b" horiz-adv-x="1102" d="M112 342v1049h183v-342q0 -23 14 -25q9 0 21 6q101 43 203 43q81 0 157.5 -23t137 -68t97 -111.5t36.5 -155.5v-370q0 -87 -36.5 -154t-97 -112t-136 -68t-155.5 -23q-79 0 -154.5 23t-136 66.5t-97 110.5t-36.5 154zM295 342q0 -49 20.5 -83t55.5 -58.5t79 -37t86 -12.5 q46 0 88.5 12.5t77.5 37t55.5 60.5t20.5 84v370q0 49 -20.5 83.5t-55.5 59t-79 36.5t-90 12q-43 0 -85 -12t-77 -35t-55.5 -57.5t-20.5 -83.5v-376z" />
<glyph unicode="c" horiz-adv-x="1087" d="M98 342v370q0 87 36 156t97 114t136.5 68t150.5 23q73 0 144.5 -23t130 -66.5t100 -107t50.5 -148.5l-182 -16q-15 98 -87.5 146t-155.5 48q-46 0 -88 -12t-77 -36.5t-56.5 -60.5t-21.5 -85v-370q0 -49 21.5 -83t56.5 -58.5t79.5 -37t88.5 -12.5q81 0 153 47.5t87 143.5 l182 -15q-12 -81 -52 -145t-98.5 -108t-129 -65t-142.5 -21q-78 0 -153.5 23t-136.5 66.5t-97 110.5t-36 154z" />
<glyph unicode="d" horiz-adv-x="1120" d="M112 345v370q0 87 36.5 154.5t95.5 112.5t136 68t156 23q106 0 207 -43q12 -6 21 -6q14 0 14 25v342h183v-1049q0 -87 -36.5 -154t-97 -110.5t-137.5 -66.5t-157 -23q-76 0 -151.5 23t-136 68t-97 112t-36.5 154zM295 345q0 -49 20.5 -84.5t55.5 -60t77.5 -37t84.5 -12.5 q46 0 90 12.5t79 37t55.5 59.5t20.5 82v376q0 49 -20.5 83.5t-55.5 57.5t-79 35t-87 12t-86.5 -12t-78.5 -36.5t-55.5 -59t-20.5 -83.5v-370z" />
<glyph unicode="e" horiz-adv-x="1087" d="M98 342v370q0 84 34.5 151.5t91.5 114t135 71t159 24.5q84 0 160.5 -24.5t135.5 -69.5t94 -111.5t35 -152.5v-73q0 -84 -56.5 -130t-143.5 -46h-468v-124q0 -93 76.5 -142t166.5 -49q84 0 156 49t87 142l182 -15q-9 -78 -48.5 -142t-95.5 -107.5t-129.5 -66.5t-151.5 -23 q-81 0 -156.5 24.5t-135 69.5t-94 110.5t-34.5 149.5zM272 667q0 -39 43 -39h409q40 0 40 37v50q0 93 -75.5 142t-170.5 49q-93 0 -169.5 -48t-76.5 -146v-45z" />
<glyph unicode="f" horiz-adv-x="668" d="M3 867v166h142v40q0 154 80.5 236t254.5 82h171v-167h-171q-85 0 -120.5 -39t-35.5 -112v-40h280v-166h-234q-46 0 -46 -43v-824h-179v867h-142z" />
<glyph unicode="g" horiz-adv-x="1136" d="M98 342v370q0 84 34.5 151.5t91.5 114t135 71t159 24.5q52 0 108 -9t108 -37q20 -9 33 -9q18 0 20 18l8 25h151v-1082q0 -84 -35 -151.5t-94 -112.5t-136 -69.5t-163 -24.5q-118 0 -215 49t-155 145l161 81q34 -51 89.5 -79.5t119.5 -28.5q93 0 169.5 48.5t76.5 142.5v67 q-55 -27 -114 -44t-129 -17q-81 0 -158 24.5t-136.5 69.5t-94 112t-34.5 151zM275 342q0 -93 76.5 -142t169.5 -49q90 0 166.5 47.5t76.5 137.5v379q0 93 -75.5 142t-170.5 49q-90 0 -166.5 -48t-76.5 -146v-370z" />
<glyph unicode="h" horiz-adv-x="1136" d="M127 0v1391h182v-327q0 -24 16.5 -30.5t26.5 -0.5q91 40 200 40q78 0 155 -23t136.5 -68t95.5 -111.5t36 -155.5v-715h-177v715q0 49 -21.5 83.5t-56.5 59t-79.5 36.5t-88.5 12q-43 0 -86.5 -12t-78.5 -35t-56.5 -57.5t-21.5 -83.5v-718h-182z" />
<glyph unicode="i" horiz-adv-x="498" d="M121 1215v176h194v-176h-194zM127 0v1061h182v-1061h-182z" />
<glyph unicode="j" horiz-adv-x="535" d="M-161 -212h176q49 0 79 19.5t45 50t21.5 63.5t6.5 61v1079h178v-1079q0 -170 -84.5 -265.5t-245.5 -95.5h-176v167zM161 1212v179h188v-179h-188z" />
<glyph unicode="k" horiz-adv-x="1129" d="M127 0v1391h182v-642q0 -18 12 -24.5t24 -0.5l500 358l110 -139l-270 -194q-23 -18 0 -31q49 -18 95.5 -45.5t83 -65t58 -89.5t21.5 -115v-403h-182v403q0 87 -69.5 130t-158.5 43q-85 0 -154.5 -44t-69.5 -132v-400h-182z" />
<glyph unicode="l" horiz-adv-x="726" d="M127 361v1030h182v-1030q0 -27 4.5 -61t21.5 -64t47.5 -49.5t77.5 -19.5h173v-167h-173q-154 0 -243.5 97t-89.5 264z" />
<glyph unicode="m" horiz-adv-x="1623" d="M127 0v1061h151l8 -25q6 -24 47 -3q84 40 173 40q176 0 295 -118q51 57 126.5 87.5t157.5 30.5q69 0 137.5 -23t121.5 -68t86.5 -111.5t33.5 -155.5v-715h-179v715q0 98 -62.5 144.5t-137.5 46.5q-73 0 -135 -48t-62 -146v-712h-182v715q0 98 -62 144.5t-138 46.5 q-75 0 -136 -45.5t-61 -139.5v-721h-182z" />
<glyph unicode="n" horiz-adv-x="1132" d="M127 0v1061h151l8 -25q5 -20 24 -20q14 0 35 11q49 21 102 33.5t105 12.5q78 0 153.5 -23t135 -68t95.5 -111.5t36 -155.5v-715h-174v715q0 49 -21.5 83.5t-56.5 59t-79.5 36.5t-88.5 12q-43 0 -86.5 -12t-78.5 -35t-56.5 -57.5t-21.5 -83.5v-718h-182z" />
<glyph unicode="o" horiz-adv-x="1087" d="M98 342v370q0 87 36 156t97 114t136.5 68t150.5 23q81 0 157.5 -23t137 -68t97 -111.5t36.5 -155.5v-370q0 -87 -38 -154t-97 -112t-134.5 -68t-155.5 -23q-78 0 -153.5 23t-136.5 66.5t-97 110.5t-36 154zM275 342q0 -49 21.5 -83t56.5 -58.5t79.5 -37t88.5 -12.5 q46 0 88 12.5t77 37t56.5 60.5t21.5 84v370q0 49 -21.5 83.5t-56.5 59t-78.5 36.5t-89.5 12t-88 -12t-77 -36.5t-56.5 -60.5t-21.5 -85v-370z" />
<glyph unicode="p" horiz-adv-x="1117" d="M127 -370v1431h151l8 -25q5 -21 24 -21q12 0 29 9q52 24 105 35t108 11q78 0 153.5 -23t135 -68t95.5 -111.5t36 -155.5v-370q0 -87 -36 -154t-95.5 -112.5t-135 -68t-153.5 -22.5q-55 0 -109.5 12t-106.5 37q-3 3 -9 3q-18 0 -18 -25v-382h-182zM309 336q0 -46 21.5 -80 t56.5 -57t78.5 -35.5t86.5 -12.5q46 0 89.5 12.5t78.5 37t56.5 59.5t21.5 82v370q0 49 -21.5 85t-56.5 60.5t-79.5 36.5t-88.5 12q-46 0 -88 -12t-77 -36.5t-56.5 -59t-21.5 -83.5v-379z" />
<glyph unicode="q" horiz-adv-x="1099" d="M98 342v370q0 87 36 154.5t95.5 112.5t135 68t153.5 23q55 0 106.5 -9t99.5 -37q20 -12 37 -7.5t23 19.5l8 25h151v-1431h-182v382q0 24 -18 25q-6 0 -9 -3q-101 -49 -216 -49q-78 0 -153.5 22.5t-135 68t-95.5 112.5t-36 154zM272 342q0 -49 21.5 -83t56.5 -58.5 t78.5 -37t89.5 -12.5q43 0 86.5 12.5t78.5 35.5t56.5 58t21.5 79v379q0 49 -21.5 83.5t-56.5 59t-77 36.5t-88 12t-89.5 -12t-78.5 -36.5t-56.5 -60.5t-21.5 -85v-370z" />
<glyph unicode="r" horiz-adv-x="1053" d="M127 0v1061h182v-72q0 -15 13.5 -23t29.5 -3q91 46 200 46q73 0 144 -21.5t128.5 -65t97 -105.5t47.5 -144l-182 -16q-14 98 -84 141.5t-151 43.5q-43 0 -86.5 -10.5t-78.5 -33t-56.5 -57.5t-21.5 -84v-657h-182z" />
<glyph unicode="s" horiz-adv-x="1087" d="M98 712q0 84 34.5 151.5t91.5 114t135 71t159 24.5q78 0 151.5 -23t131 -68t95.5 -108.5t47 -145.5l-182 -16q-15 98 -84.5 146t-158.5 48q-93 0 -168 -49.5t-75 -144.5q0 -34 21.5 -53.5t56.5 -28t81 -11.5t93 -6q72 -3 147 -11.5t135.5 -35t98.5 -79.5t38 -148 q0 -84 -35 -149.5t-94 -110.5t-136 -68t-163 -23q-154 0 -274 88t-143 248l177 15q15 -90 85.5 -139t154.5 -49q93 0 169.5 47.5t76.5 140.5q0 37 -21.5 58.5t-58 32t-81.5 13t-94 5.5q-72 3 -146 9t-133.5 30.5t-95.5 78t-36 146.5z" />
<glyph unicode="t" horiz-adv-x="735" d="M3 870v166h145v355h182v-321q0 -34 34 -34h240v-166h-274v-509q0 -75 33.5 -134.5t118.5 -59.5h172v-167h-172q-170 0 -252 106t-82 255v509h-145z" />
<glyph unicode="u" horiz-adv-x="1148" d="M112 345v716h180v-716q0 -49 20.5 -83t55.5 -58.5t79 -37t86 -12.5q43 0 87.5 12.5t79 35.5t55.5 58t21 82v719h182v-1061h-151l-6 24q-6 14 -18.5 18t-42.5 -8q-49 -18 -100.5 -32t-106.5 -14q-79 0 -154.5 23t-134.5 68t-95.5 112t-36.5 154z" />
<glyph unicode="v" horiz-adv-x="1093" d="M34 1064h191l266 -706q6 -15 24 -16q15 0 21 16l300 703h194l-448 -1061h-151z" />
<glyph unicode="w" horiz-adv-x="1562" d="M34 1064h181l216 -651q6 -15 20 -16q15 0 21 16l216 559h154l216 -559q9 -15 24 -16q18 0 21 16l213 648h185l-344 -1061h-154l-219 636q-6 15 -17 15q-12 0 -18 -15l-219 -636h-154z" />
<glyph unicode="x" horiz-adv-x="1062" d="M34 0l351 497q10 17 10.5 33t-10.5 31l-351 500h215l266 -376l266 376h219l-352 -500q-9 -15 -7.5 -33.5t7.5 -30.5l352 -497h-219l-266 379l-266 -379h-215z" />
<glyph unicode="y" horiz-adv-x="1093" d="M34 1061h191l263 -697q9 -21 30 -22q21 0 31 22l290 697h191q-176 -422 -279 -669t-158 -371q-63 -145 -84 -194q-40 -98 -117 -153.5t-241 -55.5h-102v167h102q98 0 135.5 29t55.5 74l40 91q12 27 15 44t3 32t-3 30.5t-12 41.5z" />
<glyph unicode="z" horiz-adv-x="1050" d="M64 0q0 110 25.5 161t64.5 97l519 636h-609v167h842q0 -98 -21 -150.5t-64 -106.5l-515 -637h600v-167h-842z" />
<glyph unicode="{" horiz-adv-x="1114" d="M78 734q9 3 55 19.5t94 40.5t88 51.5t40 48.5q0 269 45 458.5t106 250.5q119 118 409 118v-124q-116 0 -180.5 -36.5t-104.5 -71.5q-37 -37 -65.5 -197.5t-28.5 -397.5q0 -24 -15 -50t-38 -48.5t-49 -40.5t-46 -34q43 -34 92.5 -81t49.5 -94q0 -260 23 -442t77 -237 q37 -40 104 -76.5t181 -36.5v-121q-179 0 -288 43t-171 147t-83 279.5t-24 443.5q0 18 -40 50t-88 60.5t-91 51.5t-52 26z" />
<glyph unicode="|" horiz-adv-x="772" d="M295 -228l2 1752q0 70 33.5 84t88.5 14h61v-1758q0 -70 -29 -81t-84 -11h-72z" />
<glyph unicode="}" horiz-adv-x="1099" d="M200 -246q115 0 181.5 36.5t103.5 76.5q55 58 79 238.5t24 440.5q0 49 48.5 95.5t94.5 79.5q-49 26 -99 73.5t-50 99.5q0 118 -9 219.5t-23 179t-30.5 127.5t-34.5 69q-37 37 -103.5 72.5t-181.5 35.5v124q154 0 253 -28.5t160 -89.5q57 -61 102.5 -249t45.5 -457 q0 -21 40.5 -51.5t92.5 -58.5q58 -34 130 -63q-72 -37 -127 -70q-49 -29 -89.5 -58t-40.5 -50q-3 -266 -23 -442.5t-80 -280.5t-171 -147t-293 -43v121z" />
<glyph unicode="~" horiz-adv-x="1235" d="M121 558q24 46 54.5 89.5t68 78.5t83.5 56.5t104 21.5q46 0 98.5 -18.5t105.5 -41.5t105 -41t93 -18q27 0 51.5 18t46 39.5t43 40t44.5 18.5q34 0 64 -25l61 -45q-52 -90 -127.5 -157.5t-182.5 -67.5q-49 0 -98.5 18.5t-102.5 39.5t-102.5 39.5t-98.5 18.5 q-30 0 -53 -18.5t-46 -41t-44.5 -42.5t-44.5 -20q-34 0 -66 16.5t-56 41.5z" />
<glyph unicode="&#xa1;" horiz-adv-x="556" d="M185 -382v1160h176v-1160h-176zM185 940v220h176v-220h-176z" />
<glyph unicode="&#xa2;" horiz-adv-x="1044" d="M52 -385q52 127 92.5 234.5t86.5 220.5q-67 45 -108.5 113.5t-41.5 158.5v379q0 87 38 156t97 114t137 68t153 23q34 0 56.5 -1.5t56.5 -10.5q23 61 40 106t29 79q12 37 24 64q49 97 149 96q37 0 76 -12q-43 -107 -82.5 -209.5t-76.5 -193.5q70 -48 113 -125t43 -187 h-182q0 104 -37 139q-82 -208 -154.5 -386t-106.5 -287q6 -3 26 -3h29q46 0 88 14t77 43t56.5 72.5t21.5 101.5h182q0 -93 -38 -168t-97 -124.5t-135 -75.5t-155 -26q-37 0 -59 1.5t-53 7.5q-30 -78 -53 -136t-38 -98q-17 -46 -31 -72q-34 -91 -130 -91q-40 0 -93 15z M263 342q0 -67 34 -99q79 214 145.5 384.5t112.5 284.5q-9 3 -24.5 3h-24.5q-46 0 -88 -12t-77 -36.5t-56.5 -60.5t-21.5 -85v-379z" />
<glyph unicode="&#xa3;" horiz-adv-x="1195" d="M37 622v173h133v154q0 211 123 338.5t335 127.5q127 0 227 -52.5t169 -150.5l-148 -109q-98 139 -248 140q-131 0 -203.5 -79t-72.5 -215v-113q0 -43 45 -41h300v-173h-345v-347h21q49 0 104.5 -17.5t110 -40.5t103.5 -41.5t85 -18.5q34 0 62.5 23t58.5 57q27 34 64 32 q26 0 78 -29l49 -34q-52 -98 -129 -165.5t-183 -67.5q-49 0 -100 18t-103 39.5t-103 39t-97 17.5q-27 0 -50 -17.5t-44 -40.5t-44 -43t-50 -20t-61 17t-69 41q18 29 39 56t37.5 55.5t27.5 63.5t11 79v301q0 43 -40 43h-93z" />
<glyph unicode="&#xa4;" horiz-adv-x="1123" d="M58 345l133 135q-67 106 -67 223q0 112 67 225l-133 130l118 127l139 -136q52 37 107 52t118 15q113 0 227 -67l139 139l118 -133l-133 -130q67 -107 67 -222q0 -58 -18 -114t-49 -107q34 -34 73 -71.5t63 -65.5l-124 -127l-139 137q-113 -66 -224 -66q-109 0 -225 66 l-139 -137zM303 703q0 -104 70 -173.5t167 -69.5q43 0 85 17t75.5 49t54.5 75.5t21 101.5q0 98 -70 169t-166 71q-100 0 -168.5 -71t-68.5 -169z" />
<glyph unicode="&#xa5;" horiz-adv-x="1212" d="M-6 1400h206l364 -533q15 -20 33.5 -21t30.5 18l370 536h208l-422 -608q-14 -21 -5.5 -41t36.5 -20h264v-161h-397v-136h397v-162h-397v-272h-170v272h-428v162h428v136h-428v161h304q29 0 37.5 21t-6.5 43z" />
<glyph unicode="&#xa6;" horiz-adv-x="523" d="M170 367h166v-783h-166v783zM170 667v779h166v-779h-166z" />
<glyph unicode="&#xa7;" horiz-adv-x="1136" d="M112 625q0 84 33.5 152t88.5 120q-37 40 -60 88t-23 118q0 84 33.5 147t89.5 105t131 63.5t153 21.5t156 -27.5t138 -77.5t98.5 -122.5t38.5 -166.5h-174q0 58 -24 100t-60.5 71t-81.5 44t-91 15q-87 0 -159 -41t-72 -132q0 -43 35 -83t83.5 -74t102 -62.5t88.5 -50.5 q58 -29 120 -65.5t115.5 -84t87 -108t33.5 -141.5q0 -88 -33.5 -155t-88.5 -118q34 -40 56.5 -88.5t22.5 -118.5q0 -84 -33.5 -146.5t-89.5 -104.5t-130 -63.5t-153 -21.5q-78 0 -154.5 27.5t-137 77t-98.5 123t-38 166.5h174q0 -58 23.5 -100t59.5 -71t82 -44t89 -15 q87 0 160 41t73 131q0 37 -19.5 69t-50 58t-70.5 48t-75 44q-81 49 -162 91t-144.5 92t-103 113.5t-39.5 155.5zM286 625q0 -37 22 -72t58.5 -67t82 -60.5t91.5 -52.5l188 -104q90 52 90 165q0 43 -27 79t-69.5 69.5t-92.5 62t-93 52.5l-163 90q-87 -47 -87 -162z" />
<glyph unicode="&#xa8;" horiz-adv-x="671" d="M6 1333q0 49 33.5 81t75.5 32q52 0 84 -32t32 -81q0 -42 -32 -75.5t-84 -33.5q-42 0 -75.5 33.5t-33.5 75.5zM422 1333q0 49 33 81t78 32q49 0 82 -32t33 -81q0 -42 -33 -75.5t-82 -33.5q-46 0 -78.5 33.5t-32.5 75.5z" />
<glyph unicode="&#xa9;" horiz-adv-x="1617" d="M75 715q0 93 27.5 188t79.5 182q49 84 118.5 154.5t153.5 111.5q174 91 356 92q190 0 370 -98q84 -49 155 -118.5t117 -153.5q90 -173 90 -358q0 -188 -99 -370h3q-49 -87 -117 -154t-155 -116q-171 -93 -364 -93q-188 0 -365 96q-176 94 -269 271q-49 88 -75 180.5 t-26 185.5zM222 715q0 -240 166 -415q170 -179 422 -179q251 0 420 171q170 168 170 423q0 246 -173 419q-176 173 -417 173q-246 0 -419 -173q-170 -171 -169 -419zM422 712q0 194 108 303h-3q106 110 291 110q249 0 339 -234l-133 -40q-72 151 -209 152q-109 0 -173 -75 q-66 -70 -66 -219q0 -145 63 -218q58 -69 168 -69q164 0 226 188l144 -40q-101 -278 -367 -278q-174 0 -283 111q-107 115 -105 309z" />
<glyph unicode="&#xaa;" horiz-adv-x="747" d="M90 986q0 109 75 183t187 74q43 0 81.5 -14t72.5 -35v12q0 61 -43.5 91.5t-101.5 30.5q-43 0 -85 -26t-64 -72l-105 46q37 84 105.5 124t148.5 40q49 0 97 -14t86 -44.5t61 -72.5t23 -103v-472h-122v30q-58 -37 -154 -36q-112 0 -187 72.5t-75 185.5zM212 986 q0 -61 42.5 -101t97.5 -40q61 0 103 40t42 101q0 54 -42 96.5t-103 42.5q-55 0 -97.5 -43t-42.5 -96z" />
<glyph unicode="&#xab;" horiz-adv-x="1123" d="M127 524q58 87 110 164q43 64 85 123t60 83q55 64 130 64q37 0 92 -15l-292 -419l281 -434q-23 -6 -46 -11.5t-44 -5.5q-72 0 -124 66q-15 21 -56.5 81.5t-82.5 131.5q-52 79 -113 172zM506 524q61 87 113 164q43 64 85 124.5t60 84.5q49 58 115 58q40 0 84 -18 l-284 -413l282 -431q-43 -20 -88 -20q-29 0 -60.5 15.5t-57.5 53.5q-12 18 -53.5 82.5t-83.5 131t-77 117.5z" />
<glyph unicode="&#xac;" horiz-adv-x="1181" d="M98 824v179h948v-597h-185v418h-763z" />
<glyph unicode="&#xad;" horiz-adv-x="926" d="M112 567v167h703v-167h-703z" />
<glyph unicode="&#xae;" horiz-adv-x="1487" d="M-9 715q0 93 27.5 188t79.5 182q49 84 118.5 154.5t153.5 111.5q173 91 354 92q191 0 370 -98q84 -49 156 -118.5t118 -153.5q90 -173 90 -358t-96 -370q-46 -87 -117 -154t-157 -113q-176 -97 -364 -96q-94 0 -185 26t-178 70q-81 46 -154.5 117t-119.5 154 q-46 88 -71 180.5t-25 185.5zM136 715q0 -240 167 -415q171 -179 421 -179q251 0 422 171q170 168 170 423q0 246 -173 419q-177 173 -419 173q-246 0 -418 -173q-170 -171 -170 -419zM397 306v794h279q76 0 138 -9t107 -35t71 -68t26 -109q0 -78 -54.5 -142t-136.5 -80 q67 -52 148 -185l104 -166h-176q-43 76 -71 126t-48 82t-35 50t-28 29q-37 40 -111 40h-64v-327h-149zM546 761h142q176 0 176 109q0 70 -50 90t-138 20h-130v-219z" />
<glyph unicode="&#xaf;" horiz-adv-x="957" d="M0 1570v168h958v-168h-958z" />
<glyph unicode="&#xb0;" horiz-adv-x="808" d="M112 1203q0 52 21 101.5t58 88t88 61t109 22.5q57 0 109 -22.5t90 -61t59 -86.5t21 -103q0 -57 -22.5 -107t-60.5 -88.5t-89.5 -59t-106.5 -20.5t-104.5 22t-88 60.5t-61 88t-22.5 104.5zM255 1206q0 -69 43.5 -104t89.5 -35q52 0 92.5 38t40.5 98q0 55 -39 95.5 t-94 40.5q-52 0 -92.5 -40.5t-40.5 -92.5z" />
<glyph unicode="&#xb1;" horiz-adv-x="908" d="M64 6v167h754v-167h-754zM81 597v167h295v287h176v-287h293v-167h-293v-289h-176v289h-295z" />
<glyph unicode="&#xb2;" horiz-adv-x="671" d="M61 700v58q0 72 11.5 111.5t63.5 82.5q43 34 99.5 67t104.5 66.5t81 66.5t33 63q0 49 -43.5 75t-89.5 26q-52 0 -92.5 -35t-40.5 -101h-118q0 63 21 111t57.5 81.5t81.5 50.5t91 17t91 -15.5t81.5 -46t58 -71t21.5 -92.5q0 -81 -36.5 -120.5t-82.5 -70.5q-37 -21 -82 -48 t-84 -54.5t-69.5 -53.5t-36.5 -47h411v-121h-532z" />
<glyph unicode="&#xb3;" horiz-adv-x="671" d="M37 986h117q0 -88 50.5 -129.5t110.5 -41.5q27 0 54.5 7.5t50.5 24.5t36 42.5t10 59.5q-3 49 -15 63q-17 24 -43 29t-75 5q-30 0 -41 16.5t-11 40.5v16q0 18 12.5 36.5t39.5 18.5q52 0 81 14.5t29 66.5q0 55 -42.5 77t-88.5 22q-60 0 -95 -40.5t-35 -104.5h-118 q0 122 69.5 193t178.5 71q116 0 184 -59.5t68 -158.5q0 -49 -9 -79t-37 -54q43 -34 58 -76.5t17 -93.5q3 -64 -20.5 -112t-65 -82t-91 -50.5t-101.5 -16.5t-101.5 20t-89.5 58t-63.5 92t-23.5 125z" />
<glyph unicode="&#xb4;" horiz-adv-x="671" d="M173 1224l197 274l160 -86l-157 -194q-43 -49 -100.5 -36.5t-99.5 42.5z" />
<glyph unicode="&#xb5;" horiz-adv-x="1065" d="M78 -385v1418h174v-688q0 -90 71 -140.5t159 -50.5q82 0 156 46t74 139v694h173v-1033h-173v15q0 15 -10.5 20t-16.5 -1q-90 -46 -203 -46q-48 0 -101.5 10.5t-99.5 35.5q-6 6 -17.5 1t-11.5 -20v-400h-174z" />
<glyph unicode="&#xb6;" horiz-adv-x="1229" d="M75 1009q0 79 23 153.5t78 131.5t143.5 90.5t220.5 33.5h614v-181h-136v-1625h-188v1625h-188v-1625h-182v998q-176 15 -280.5 120.5t-104.5 278.5z" />
<glyph unicode="&#xb7;" horiz-adv-x="535" d="M112 709q0 61 41 103.5t105 42.5q63 0 106.5 -42.5t43.5 -103.5t-43.5 -103t-106.5 -42q-64 0 -105 42t-41 103z" />
<glyph unicode="&#xb8;" horiz-adv-x="602" d="M90 -318l98 106q43 -29 56.5 -36t27.5 -7q18 0 32 10.5t14 32.5q0 49 -46 48h-78v213h158v-92q61 -15 87.5 -63t26.5 -106q0 -84 -55.5 -139t-138.5 -55q-46 0 -88 16.5t-94 71.5z" />
<glyph unicode="&#xb9;" horiz-adv-x="683" d="M107 700v121h185q17 0 17 18v462l-109 -83l-70 104l200 142q37 -3 56.5 -18t29.5 -34q12 -21 12 -47v-526q0 -18 15 -18h176v-121h-512z" />
<glyph unicode="&#xba;" horiz-adv-x="750" d="M84 949v269q0 124 85.5 188t194.5 64q55 0 104.5 -16.5t87 -48.5t62 -77.5t24.5 -106.5v-269q0 -119 -84 -185.5t-194 -66.5q-109 0 -194.5 63.5t-85.5 185.5zM200 955q0 -70 50 -103.5t114 -33.5q67 0 116.5 35t49.5 105q0 87 -1.5 133t-1.5 75v49q0 67 -49.5 101.5 t-113.5 34.5t-114 -34.5t-50 -104.5v-257z" />
<glyph unicode="&#xbb;" horiz-adv-x="1142" d="M127 937q46 18 85 18q66 0 115 -58q18 -24 62.5 -84.5t87.5 -124.5q51 -75 108 -164l-35 -51t-77 -117.5t-81.5 -130.5t-55.5 -83q-27 -40 -57 -54.5t-61 -14.5q-46 0 -88 20l283 431zM488 943q55 15 91 15q75 0 130 -64q18 -24 61 -83t85 -123q52 -75 108 -164 q-60 -93 -112 -172q-43 -69 -83 -130t-56 -83q-49 -66 -124 -66q-21 0 -44 5.5t-47 11.5l281 434z" />
<glyph unicode="&#xbc;" horiz-adv-x="1715" d="M107 731v120h185q17 0 17 19v461l-109 -82l-70 102l200 144q37 -3 56.5 -18.5t29.5 -33.5q12 -21 12 -49v-524q0 -18 15 -19h176v-120h-512zM269 -27l1079 1522h153l-1079 -1522h-153zM1033 167q3 61 14 91.5t26 56.5l303 466h142q-5 -8 -29.5 -46t-59.5 -90t-74 -110 t-72.5 -110t-58 -90t-30.5 -46h203v105q0 84 121 86v-191h82v-122h-82v-167h-121v167h-364z" />
<glyph unicode="&#xbd;" horiz-adv-x="1715" d="M107 740v121h185q17 0 17 18v460l-109 -81l-70 104l200 142q37 -3 56.5 -18.5t29.5 -33.5q12 -21 12 -49v-524q0 -18 15 -18h176v-121h-512zM269 -18l1079 1522h153l-1079 -1522h-153zM1073 0v58q0 72 12 111.5t63 82.5q43 34 99.5 67t104.5 66.5t81.5 66.5t33.5 63 q0 49 -44 75t-90 26q-51 0 -92 -35t-41 -101h-118q0 63 21.5 111t57.5 81.5t81.5 50.5t90.5 17q46 0 91.5 -15.5t81.5 -46t57.5 -71t21.5 -92.5q0 -81 -36 -120.5t-82 -70.5q-37 -21 -82.5 -48t-84.5 -54.5t-69.5 -53.5t-36.5 -47h412v-121h-533z" />
<glyph unicode="&#xbe;" horiz-adv-x="1715" d="M73 1030h118q0 -87 50.5 -128t110.5 -41q27 0 54.5 7.5t50.5 24t36 42.5t10 60q-3 48 -15 63q-17 24 -43 28.5t-75 4.5q-30 0 -41 17t-11 40v15q0 18 12 36.5t40 18.5q52 0 81 15.5t29 67.5q0 55 -43 77t-88 22q-60 0 -95.5 -40.5t-35.5 -104.5h-117q0 121 69.5 192 t178.5 71q116 0 184 -59t68 -158q0 -49 -9.5 -79.5t-36.5 -55.5q43 -34 58 -75.5t17 -92.5q3 -64 -21 -113t-65 -82t-91 -49.5t-101 -16.5q-52 0 -102 19.5t-89.5 57t-63.5 92.5t-24 124zM269 -18h153l1079 1522h-153zM1033 167q3 61 14 91.5t26 56.5l303 466h142 q-5 -8 -29.5 -46t-59.5 -90t-74 -110t-72.5 -110t-58 -90t-30.5 -46h203v105q0 84 121 86v-191h82v-122h-82v-167h-121v167h-364z" />
<glyph unicode="&#xbf;" horiz-adv-x="1218" d="M107 -70q0 85 48 180.5t181 184.5q58 37 89.5 88t31.5 120v176h188v-176q0 -40 -8.5 -86.5t-33 -94t-65.5 -92.5t-107 -85q-101 -61 -121.5 -113.5t-20.5 -101.5q0 -54 20.5 -103t55.5 -85.5t82 -57t102 -20.5q113 0 188.5 87.5t80.5 205.5h185q-5 -90 -43 -175 t-98.5 -150.5t-141.5 -104.5t-171 -39t-171 34.5t-141.5 95.5t-95 141t-34.5 171zM460 818v228h179v-228h-179z" />
<glyph unicode="&#xc0;" horiz-adv-x="1302" d="M399 1730l158 86l200 -274q-23 -15 -53.5 -28t-64.5 -13q-52 0 -82 38z" />
<glyph unicode="&#xc1;" horiz-adv-x="1302" d="M528 1542l197 274l160 -86l-157 -194q-43 -49 -100.5 -36.5t-99.5 42.5z" />
<glyph unicode="&#xc2;" horiz-adv-x="1302" d="M356 1497l289 351l278 -351q-60 -3 -96.5 -3t-59.5 6t-37.5 19.5t-32.5 38.5l-52 64l-52 -67q-18 -24 -33.5 -38t-37.5 -18.5t-60.5 -4.5t-105.5 3z" />
<glyph unicode="&#xc3;" horiz-adv-x="1302" d="M329 1537q43 79 97 138t126 59q34 0 63 -12.5t51 -27.5t42 -27.5t32 -12.5q15 0 27.5 11t23 24.5t26 24.5t33.5 11q34 0 72 -25l37 -27q-40 -81 -90 -128.5t-126 -47.5q-34 0 -60.5 12t-49.5 29t-41.5 29t-36.5 12q-15 0 -28 -13.5t-27 -29t-29 -29t-34 -13.5 q-24 0 -53 12t-55 31z" />
<glyph unicode="&#xc4;" horiz-adv-x="1302" d="M318 1636q0 49 33.5 81t75.5 32q52 0 84 -32t32 -81q0 -42 -32 -75.5t-84 -33.5q-42 0 -75.5 33.5t-33.5 75.5zM734 1636q0 49 33 81t78 32q49 0 82 -32t33 -81q0 -42 -33 -75.5t-82 -33.5q-46 0 -78.5 33.5t-32.5 75.5z" />
<glyph unicode="&#xc5;" horiz-adv-x="1302" d="M416 1727q0 46 18 86.5t49.5 72.5t72.5 49.5t87 17.5q43 0 85 -17.5t75.5 -48t53.5 -72.5t20 -88t-21.5 -88t-55 -72.5t-74 -49t-83.5 -18.5q-88 0 -157.5 66.5t-69.5 161.5zM561 1730q0 -43 24.5 -67.5t57.5 -24.5q34 0 61.5 24.5t27.5 64.5t-26 63.5t-63 23.5 q-34 0 -58 -22t-24 -62z" />
<glyph unicode="&#xc6;" horiz-adv-x="2100" d="M37 0l515 1406h882q107 0 203 -33.5t171 -98.5t118.5 -157.5t43.5 -210.5h-179q0 81 -30.5 142.5t-80 102t-114.5 62t-132 21.5h-297q-21 0 -38 -17t-17 -40v-307q0 -60 58 -60h466v-174h-524v-191q0 -72 30.5 -127t80.5 -91t113.5 -54.5t130.5 -18.5t130.5 21.5 t113 63.5t80 104.5t30.5 144.5h182q0 -118 -43.5 -212t-117.5 -159t-172 -100t-203 -35q-93 0 -189.5 32t-173 89.5t-124 136t-47.5 173.5v64q0 57 -52 56h-429l-197 -533h-188zM492.5 715.5q4.5 -12.5 25.5 -12.5h388v531h-178q-24 0 -39.5 -6.5t-23.5 -30.5l-171 -454 q-6 -15 -1.5 -27.5z" />
<glyph unicode="&#xc7;" horiz-adv-x="1296" d="M81 445v518q0 113 44.5 199.5t117 146t169.5 91t204 31.5q106 0 202.5 -33t169.5 -98.5t116.5 -159.5t43.5 -212h-182q0 81 -30 143.5t-79.5 103t-112 62t-128.5 21.5q-67 0 -130.5 -20t-114 -56t-79.5 -91t-29 -128v-518q0 -72 30.5 -127t81 -91t112.5 -54.5t129 -18.5 q69 0 133 21.5t112 63.5t78 104.5t30 144.5h179q0 -109 -34.5 -195.5t-96.5 -150.5t-143.5 -103t-176.5 -51v-52q61 -6 88.5 -48t27.5 -100q0 -84 -56.5 -139t-140.5 -55q-46 0 -90 16.5t-95 71.5l96 106q43 -29 58.5 -36t30.5 -7q17 0 30.5 10.5t13.5 32.5q0 40 -44 39h-83 v161q-90 9 -174 44t-144.5 94t-97 139t-36.5 180z" />
<glyph unicode="&#xc8;" horiz-adv-x="1320" d="M454 1730l158 86l200 -274q-23 -15 -53.5 -28t-64.5 -13q-52 0 -82 38z" />
<glyph unicode="&#xc9;" horiz-adv-x="1320" d="M531 1542l197 274l160 -86l-157 -194q-43 -49 -100.5 -36.5t-99.5 42.5z" />
<glyph unicode="&#xca;" horiz-adv-x="1320" d="M373 1497l289 351l278 -351q-60 -3 -96.5 -3t-59.5 6t-37.5 19.5t-32.5 38.5l-52 64l-52 -67q-18 -24 -33.5 -38t-37.5 -18.5t-60.5 -4.5t-105.5 3z" />
<glyph unicode="&#xcb;" horiz-adv-x="1320" d="M333 1666q0 49 33.5 81t75.5 32q52 0 84 -32t32 -81q0 -42 -32 -75.5t-84 -33.5q-42 0 -75.5 33.5t-33.5 75.5zM749 1666q0 49 33 81t78 32q49 0 82 -32t33 -81q0 -42 -33 -75.5t-82 -33.5q-46 0 -78.5 33.5t-32.5 75.5z" />
<glyph unicode="&#xcc;" horiz-adv-x="478" d="M12 1730l158 86l200 -274q-23 -15 -53.5 -28t-64.5 -13q-52 0 -82 38z" />
<glyph unicode="&#xcd;" horiz-adv-x="445" d="M80 1542l197 274l160 -86l-157 -194q-43 -49 -100.5 -36.5t-99.5 42.5z" />
<glyph unicode="&#xce;" horiz-adv-x="506" d="M-23 1497l289 351l278 -351q-60 -3 -96.5 -3t-59.5 6t-37.5 19.5t-32.5 38.5l-52 64l-52 -67q-18 -24 -33.5 -38t-37.5 -18.5t-60.5 -4.5t-105.5 3z" />
<glyph unicode="&#xcf;" horiz-adv-x="414" d="M-112 1666q0 49 33.5 81t75.5 32q52 0 84 -32t32 -81q0 -42 -32 -75.5t-84 -33.5q-42 0 -75.5 33.5t-33.5 75.5zM304 1666q0 49 33 81t78 32q49 0 82 -32t33 -81q0 -42 -33 -75.5t-82 -33.5q-46 0 -78.5 33.5t-32.5 75.5z" />
<glyph unicode="&#xd0;" horiz-adv-x="1496" d="M15 639v174h158v599h524q107 0 204 -30.5t169.5 -89t116 -146.5t43.5 -200v-483q0 -112 -43.5 -198t-117.5 -145t-171 -89.5t-201 -30.5h-524v639h-158zM355 173h342q67 0 129 18t112.5 54t80.5 91t30 127v483q0 72 -28.5 127t-79 92.5t-112.5 56t-132 18.5h-342v-427 h394v-174h-394v-466z" />
<glyph unicode="&#xd1;" horiz-adv-x="1360" d="M353 1506q43 79 97 138t126 59q34 0 63 -12.5t51 -27.5t42 -27.5t32 -12.5q15 0 27.5 11t23 24.5t26 24.5t33.5 11q34 0 72 -25l37 -27q-40 -81 -90 -128.5t-126 -47.5q-34 0 -60.5 12t-49.5 29t-41.5 29t-36.5 12q-15 0 -28 -13.5t-27 -29t-29 -29t-34 -13.5 q-24 0 -53 12t-55 31z" />
<glyph unicode="&#xd2;" horiz-adv-x="1320" d="M408 1701l158 86l200 -274q-23 -15 -53.5 -28t-64.5 -13q-52 0 -82 38z" />
<glyph unicode="&#xd3;" horiz-adv-x="1320" d="M494 1513l197 274l160 -86l-157 -194q-43 -49 -100.5 -36.5t-99.5 42.5z" />
<glyph unicode="&#xd4;" horiz-adv-x="1320" d="M347 1466l289 351l278 -351q-60 -3 -96.5 -3t-59.5 6t-37.5 19.5t-32.5 38.5l-52 64l-52 -67q-18 -24 -33.5 -38t-37.5 -18.5t-60.5 -4.5t-105.5 3z" />
<glyph unicode="&#xd5;" horiz-adv-x="1320" d="M313 1506q43 79 97 138t126 59q34 0 63 -12.5t51 -27.5t42 -27.5t32 -12.5q15 0 27.5 11t23 24.5t26 24.5t33.5 11q34 0 72 -25l37 -27q-40 -81 -90 -128.5t-126 -47.5q-34 0 -60.5 12t-49.5 29t-41.5 29t-36.5 12q-15 0 -28 -13.5t-27 -29t-29 -29t-34 -13.5 q-24 0 -53 12t-55 31z" />
<glyph unicode="&#xd6;" horiz-adv-x="1320" d="M303 1636q0 49 33.5 81t75.5 32q52 0 84 -32t32 -81q0 -42 -32 -75.5t-84 -33.5q-42 0 -75.5 33.5t-33.5 75.5zM719 1636q0 49 33 81t78 32q49 0 82 -32t33 -81q0 -42 -33 -75.5t-82 -33.5q-46 0 -78.5 33.5t-32.5 75.5z" />
<glyph unicode="&#xd7;" horiz-adv-x="929" d="M127 454l206 203l-206 207l119 122l205 -208l203 205l122 -119l-203 -207l205 -203l-124 -118l-206 200l-205 -200z" />
<glyph unicode="&#xd8;" horiz-adv-x="1296" d="M40 21l108 179q-27 49 -48.5 112.5t-21.5 132.5v518q0 113 44.5 201t117 147t169.5 89.5t204 30.5q69 0 127 -9.5t118 -36.5l27 55q49 70 104 70q48 0 121 -40q-34 -52 -57 -95.5t-44 -83.5q67 -61 103 -142.5t36 -182.5v-515q0 -112 -43.5 -199.5t-116.5 -146.5 t-170 -91t-202 -32q-188 0 -335 93q-15 -45 -49.5 -66t-67.5 -21q-49 0 -124 33zM260 445q0 -34 3 -48q128 208 249 411.5t252 421.5q-73 27 -151 28q-67 0 -130.5 -20t-112.5 -56t-79.5 -91t-30.5 -128v-518zM370 225q49 -30 114 -50.5t132 -20.5q66 0 130 20t112 56 t78 92.5t30 128.5v515q0 52 -13 94.5t-38 73.5q-215 -358 -349.5 -581t-195.5 -328z" />
<glyph unicode="&#xd9;" horiz-adv-x="1317" d="M442 1701l158 86l200 -274q-23 -15 -53.5 -28t-64.5 -13q-52 0 -82 38z" />
<glyph unicode="&#xda;" horiz-adv-x="1317" d="M512 1513l197 274l160 -86l-157 -194q-43 -49 -100.5 -36.5t-99.5 42.5z" />
<glyph unicode="&#xdb;" horiz-adv-x="1317" d="M359 1466l289 351l278 -351q-60 -3 -96.5 -3t-59.5 6t-37.5 19.5t-32.5 38.5l-52 64l-52 -67q-18 -24 -33.5 -38t-37.5 -18.5t-60.5 -4.5t-105.5 3z" />
<glyph unicode="&#xdc;" horiz-adv-x="1317" d="M336 1622q0 49 33.5 81t75.5 32q52 0 84 -32t32 -81q0 -42 -32 -75.5t-84 -33.5q-42 0 -75.5 33.5t-33.5 75.5zM752 1622q0 49 33 81t78 32q49 0 82 -32t33 -81q0 -42 -33 -75.5t-82 -33.5q-46 0 -78.5 33.5t-32.5 75.5z" />
<glyph unicode="&#xdd;" horiz-adv-x="1317" d="M531 1513l197 274l160 -86l-157 -194q-43 -49 -100.5 -36.5t-99.5 42.5z" />
<glyph unicode="&#xde;" horiz-adv-x="1400" d="M173 0v1431h182v-288h342q93 0 178.5 -27.5t150.5 -78.5t105 -127.5t40 -175.5q0 -98 -40 -173.5t-105 -128.5t-149.5 -80.5t-179.5 -27.5h-342v-324h-182zM355 540q0 -18 13.5 -30.5t31.5 -12.5h297q55 0 106.5 15t92.5 44t65.5 74.5t24.5 103.5q0 61 -24.5 104.5 t-65.5 74t-92.5 45t-106.5 14.5h-297q-46 0 -45 -38v-394z" />
<glyph unicode="&#xdf;" horiz-adv-x="1244" d="M115 0v1036q0 170 88.5 265.5t236.5 95.5q188 0 290.5 -62t102.5 -187q0 -57 -17.5 -111t-40.5 -100t-41.5 -84t-18.5 -61q0 -67 59 -118.5t130 -105t130.5 -118.5t59.5 -161q0 -73 -29 -132t-75.5 -100.5t-111.5 -64t-138 -22.5t-136.5 25.5t-111 71t-74.5 109.5 t-27 142h176q0 -93 53 -136t120 -43q64 0 121.5 35t57.5 115q0 66 -59 118.5t-132.5 109t-132.5 121.5t-59 157q0 49 20 88t43 78t42 83t19 102q0 84 -220 84q-49 0 -78 -19.5t-45.5 -49.5t-20.5 -63.5t-4 -61.5v-1036h-177z" />
<glyph unicode="&#xe0;" horiz-adv-x="1053" d="M293 1412l158 86l200 -274q-23 -15 -53.5 -28t-64.5 -13q-52 0 -82 38z" />
<glyph unicode="&#xe1;" horiz-adv-x="1053" d="M361 1224l197 274l160 -86l-157 -194q-43 -49 -100.5 -36.5t-99.5 42.5z" />
<glyph unicode="&#xe2;" horiz-adv-x="1053" d="M202 1194l289 351l278 -351q-60 -3 -96.5 -3t-59.5 6t-37.5 19.5t-32.5 38.5l-52 64l-52 -67q-18 -24 -33.5 -38t-37.5 -18.5t-60.5 -4.5t-105.5 3z" />
<glyph unicode="&#xe3;" horiz-adv-x="1053" d="M194 1234q43 79 97 138t126 59q34 0 63 -12.5t51 -27.5t42 -27.5t32 -12.5q15 0 27.5 11t23 24.5t26 24.5t33.5 11q34 0 72 -25l37 -27q-40 -81 -90 -128.5t-126 -47.5q-34 0 -60.5 12t-49.5 29t-41.5 29t-36.5 12q-15 0 -28 -13.5t-27 -29t-29 -29t-34 -13.5 q-24 0 -53 12t-55 31z" />
<glyph unicode="&#xe4;" horiz-adv-x="1053" d="M176 1296q0 49 33.5 81t75.5 32q52 0 84 -32t32 -81q0 -42 -32 -75.5t-84 -33.5q-42 0 -75.5 33.5t-33.5 75.5zM592 1296q0 49 33 81t78 32q49 0 82 -32t33 -81q0 -42 -33 -75.5t-82 -33.5q-46 0 -78.5 33.5t-32.5 75.5z" />
<glyph unicode="&#xe5;" horiz-adv-x="1053" d="M259 1419q0 46 18 86.5t49.5 72.5t72.5 49.5t87 17.5q43 0 85 -17.5t75.5 -48t53.5 -72.5t20 -88t-21.5 -88t-55 -72.5t-74 -49t-83.5 -18.5q-88 0 -157.5 66.5t-69.5 161.5zM404 1422q0 -43 24.5 -67.5t57.5 -24.5q34 0 61.5 24.5t27.5 64.5t-26 63.5t-63 23.5 q-34 0 -58 -22t-24 -62z" />
<glyph unicode="&#xe6;" horiz-adv-x="1712" d="M49 379q0 81 31.5 153t88 124.5t132 83t159.5 30.5q67 0 121.5 -18t103.5 -46q3 -3 15 -3q15 0 15 12v9q0 49 -21 83.5t-55.5 59t-79 36.5t-90.5 12q-69 0 -136 -38t-93 -116l-176 57q48 131 163 197.5t242 66.5q104 0 192 -33.5t149 -99.5q57 66 145 99.5t188 33.5 q84 0 160 -24.5t135.5 -69.5t94 -111.5t34.5 -152.5v-79q0 -84 -59 -130t-140 -46h-468v-127q0 -93 76 -142t167 -49q93 0 167.5 59t74.5 172h185q0 -90 -34.5 -165t-94 -124.5t-137 -77t-161.5 -27.5q-88 0 -168.5 26t-141.5 76q-23 24 -38 25q-18 0 -43 -28 q-55 -51 -132 -76.5t-160 -25.5q-84 0 -159.5 30.5t-132 84.5t-88 125.5t-31.5 153.5zM231 379q0 -93 68 -160.5t161 -67.5q98 0 167.5 67.5t69.5 160.5t-69.5 159t-167.5 66q-93 0 -161 -66t-68 -159zM897 667q0 -37 40 -37h411q37 0 37 35v59q0 93 -74 142t-168 49 t-170 -48.5t-76 -145.5v-54z" />
<glyph unicode="&#xe7;" horiz-adv-x="1090" d="M98 342v379q0 87 37.5 156t97 114t136 68t152.5 23q78 0 154.5 -26t137 -75.5t98.5 -123t38 -169.5h-182q0 58 -21.5 100t-56.5 71t-78.5 42.5t-89.5 13.5t-88 -12t-77 -36.5t-56.5 -60.5t-21.5 -85v-379q0 -49 21.5 -83t56.5 -58.5t79.5 -37t88.5 -12.5q46 0 88 14 t77 43t56.5 72.5t21.5 101.5h182q0 -82 -27.5 -147t-72.5 -113.5t-106 -80.5t-127 -44v-40q63 -15 92 -63t29 -106q0 -84 -57.5 -139t-146.5 -55q-49 0 -92.5 16.5t-98.5 71.5l103 106q43 -29 58 -36t30 -7q49 0 49 43q0 49 -49 48h-82v158q-69 9 -132.5 35t-114 69.5 t-78.5 105.5t-28 138z" />
<glyph unicode="&#xe8;" horiz-adv-x="1087" d="M296 1412l158 86l200 -274q-23 -15 -53.5 -28t-64.5 -13q-52 0 -82 38z" />
<glyph unicode="&#xe9;" horiz-adv-x="1087" d="M407 1224l197 274l160 -86l-157 -194q-43 -49 -100.5 -36.5t-99.5 42.5z" />
<glyph unicode="&#xea;" horiz-adv-x="1087" d="M254 1194l289 351l278 -351q-60 -3 -96.5 -3t-59.5 6t-37.5 19.5t-32.5 38.5l-52 64l-52 -67q-18 -24 -33.5 -38t-37.5 -18.5t-60.5 -4.5t-105.5 3z" />
<glyph unicode="&#xeb;" horiz-adv-x="1087" d="M209 1296q0 49 33.5 81t75.5 32q52 0 84 -32t32 -81q0 -42 -32 -75.5t-84 -33.5q-42 0 -75.5 33.5t-33.5 75.5zM625 1296q0 49 33 81t78 32q49 0 82 -32t33 -81q0 -42 -33 -75.5t-82 -33.5q-46 0 -78.5 33.5t-32.5 75.5z" />
<glyph unicode="&#xec;" horiz-adv-x="498" d="M-34 1446l158 84l200 -272q-24 -15 -54 -29t-64 -14q-52 0 -82 40zM136 0v1061h182v-1061h-182z" />
<glyph unicode="&#xed;" horiz-adv-x="498" d="M75 1258l197 272l162 -84l-159 -194q-43 -49 -100 -37t-100 43zM142 0v1061h182v-1061h-182z" />
<glyph unicode="&#xee;" horiz-adv-x="498" d="M-34 1227l289 352l278 -352q-61 -3 -97 -3t-58.5 6.5t-38 20t-33.5 37.5l-51 63l-52 -66q-18 -24 -33.5 -37.5t-37.5 -18.5t-60 -5t-106 3zM161 0v1061h181v-1061h-181z" />
<glyph unicode="&#xef;" horiz-adv-x="498" d="M-75 1322q0 48 33 80t76 32q52 0 83 -32t31 -80q0 -43 -32 -76.5t-82 -33.5q-43 0 -76 33.5t-33 76.5zM154 0v1061h182v-1061h-182zM339 1322q0 48 33.5 80t78.5 32q49 0 82.5 -32t33.5 -80q0 -43 -33.5 -76.5t-82.5 -33.5q-45 0 -78.5 33.5t-33.5 76.5z" />
<glyph unicode="&#xf0;" horiz-adv-x="1108" d="M115 336v379q0 87 36.5 156t97 114t136 68t151.5 23q34 0 77.5 -6t83.5 -21q-27 43 -64 78.5t-84 69.5l-161 -100l-93 130l102 67l-100 57l88 144l173 -98l145 98l101 -136l-98 -58q115 -90 185 -241t70 -378v-343q0 -87 -36.5 -154t-95.5 -112.5t-133 -68t-153 -22.5 q-78 0 -156 22.5t-138.5 66.5t-97 111t-36.5 154zM297 336q0 -49 21 -83.5t55.5 -58.5t79 -36.5t90.5 -12.5q43 0 85 12.5t75.5 36.5t54 61t20.5 84v379q0 49 -20.5 83.5t-55.5 59t-77.5 36.5t-88.5 12q-43 0 -85.5 -12t-77 -36.5t-55.5 -60.5t-21 -85v-379z" />
<glyph unicode="&#xf1;" horiz-adv-x="1132" d="M274 1234q43 79 97 138t126 59q34 0 63 -12.5t51 -27.5t42 -27.5t32 -12.5q15 0 27.5 11t23 24.5t26 24.5t33.5 11q34 0 72 -25l37 -27q-40 -81 -90 -128.5t-126 -47.5q-34 0 -60.5 12t-49.5 29t-41.5 29t-36.5 12q-15 0 -28 -13.5t-27 -29t-29 -29t-34 -13.5 q-24 0 -53 12t-55 31z" />
<glyph unicode="&#xf2;" horiz-adv-x="1087" d="M345 1412l158 86l200 -274q-23 -15 -53.5 -28t-64.5 -13q-52 0 -82 38z" />
<glyph unicode="&#xf3;" horiz-adv-x="1087" d="M358 1224l197 274l160 -86l-157 -194q-43 -49 -100.5 -36.5t-99.5 42.5z" />
<glyph unicode="&#xf4;" horiz-adv-x="1087" d="M251 1194l289 351l278 -351q-60 -3 -96.5 -3t-59.5 6t-37.5 19.5t-32.5 38.5l-52 64l-52 -67q-18 -24 -33.5 -38t-37.5 -18.5t-60.5 -4.5t-105.5 3z" />
<glyph unicode="&#xf5;" horiz-adv-x="1087" d="M219 1234q43 79 97 138t126 59q34 0 63 -12.5t51 -27.5t42 -27.5t32 -12.5q15 0 27.5 11t23 24.5t26 24.5t33.5 11q34 0 72 -25l37 -27q-40 -81 -90 -128.5t-126 -47.5q-34 0 -60.5 12t-49.5 29t-41.5 29t-36.5 12q-15 0 -28 -13.5t-27 -29t-29 -29t-34 -13.5 q-24 0 -53 12t-55 31z" />
<glyph unicode="&#xf6;" horiz-adv-x="1087" d="M209 1296q0 49 33.5 81t75.5 32q52 0 84 -32t32 -81q0 -42 -32 -75.5t-84 -33.5q-42 0 -75.5 33.5t-33.5 75.5zM625 1296q0 49 33 81t78 32q49 0 82 -32t33 -81q0 -42 -33 -75.5t-82 -33.5q-46 0 -78.5 33.5t-32.5 75.5z" />
<glyph unicode="&#xf7;" horiz-adv-x="902" d="M90 576v161h688v-161h-688zM318 373q0 49 32 83.5t84 34.5q51 0 86 -34.5t35 -83.5q0 -52 -35 -83.5t-86 -31.5q-52 0 -84 31.5t-32 83.5zM318 943q0 49 32 82t84 33q51 0 86 -33t35 -82q0 -52 -35 -85.5t-86 -33.5q-52 0 -84 33.5t-32 85.5z" />
<glyph unicode="&#xf8;" horiz-adv-x="1050" d="M55 15q23 40 44.5 73t39.5 63q-24 40 -41 90.5t-17 100.5v379q0 87 38 156t97 114t137 68t153 23q52 0 94 -6t88 -27q30 58 63 81.5t82 23.5q55 0 113 -26q-21 -27 -44 -68.5t-38 -61.5v2q-9 -14 -11 -22.5t-14 -25.5q43 -43 69 -100t26 -128v-379q0 -87 -38 -154 t-97 -112t-135 -68t-155 -23q-61 0 -121.5 13.5t-115.5 41.5q-37 -58 -99 -58q-43 0 -118 30zM263 361q70 116 123.5 200t91 148t66.5 111t49 83q-39 12 -87 12q-46 0 -88 -12t-77 -36.5t-56.5 -60.5t-21.5 -85v-360zM364 182q34 -18 68 -24.5t77 -6.5q46 0 88 12.5t77 37 t56.5 60.5t21.5 84v379q0 15 -3 33.5t-9 34.5q-161 -264 -253.5 -408t-122.5 -202z" />
<glyph unicode="&#xf9;" horiz-adv-x="1148" d="M336 1412l158 86l200 -274q-23 -15 -53.5 -28t-64.5 -13q-52 0 -82 38z" />
<glyph unicode="&#xfa;" horiz-adv-x="1148" d="M439 1224l197 274l160 -86l-157 -194q-43 -49 -100.5 -36.5t-99.5 42.5z" />
<glyph unicode="&#xfb;" horiz-adv-x="1148" d="M248 1194l289 351l278 -351q-60 -3 -96.5 -3t-59.5 6t-37.5 19.5t-32.5 38.5l-52 64l-52 -67q-18 -24 -33.5 -38t-37.5 -18.5t-60.5 -4.5t-105.5 3z" />
<glyph unicode="&#xfc;" horiz-adv-x="1148" d="M209 1296q0 49 33.5 81t75.5 32q52 0 84 -32t32 -81q0 -42 -32 -75.5t-84 -33.5q-42 0 -75.5 33.5t-33.5 75.5zM625 1296q0 49 33 81t78 32q49 0 82 -32t33 -81q0 -42 -33 -75.5t-82 -33.5q-46 0 -78.5 33.5t-32.5 75.5z" />
<glyph unicode="&#xfd;" horiz-adv-x="1093" d="M416 1224l197 274l160 -86l-157 -194q-43 -49 -100.5 -36.5t-99.5 42.5z" />
<glyph unicode="&#xfe;" horiz-adv-x="1200" d="M176 -382v1788h182v-357q0 -12 10.5 -17t19.5 1q52 24 103.5 35t104.5 11q82 0 158 -23t135.5 -68t95.5 -111.5t36 -155.5v-379q0 -87 -36 -154t-95.5 -112.5t-135 -68t-158.5 -22.5q-115 0 -211 49q-9 6 -18 -0.5t-9 -21.5v-394h-182zM358 336q0 -46 21 -80t55.5 -57 t77.5 -35.5t84 -12.5q46 0 90.5 12.5t79.5 37t55.5 59.5t20.5 82v379q0 49 -20.5 85t-55.5 60.5t-79.5 36.5t-90.5 12q-42 0 -84.5 -12t-77 -36.5t-55.5 -59t-21 -83.5v-388z" />
<glyph unicode="&#xff;" horiz-adv-x="1093" d="M218 1296q0 49 33.5 81t75.5 32q52 0 84 -32t32 -81q0 -42 -32 -75.5t-84 -33.5q-42 0 -75.5 33.5t-33.5 75.5zM634 1296q0 49 33 81t78 32q49 0 82 -32t33 -81q0 -42 -33 -75.5t-82 -33.5q-46 0 -78.5 33.5t-32.5 75.5z" />
<glyph unicode="&#x131;" horiz-adv-x="445" />
<glyph unicode="&#x141;" horiz-adv-x="1081" d="M-142 527l257 249v633h182v-457l70 69q43 40 76 40q23 0 49 -21.5t81 -76.5l-276 -269v-469q0 -34 10.5 -43t41.5 -9h637v-173h-677q-100 0 -147 56t-47 144v315l-57 -52q-40 -40 -67 -38q-21 0 -45 20.5t-88 81.5z" />
<glyph unicode="&#x142;" horiz-adv-x="454" d="M-148 561l263 254v591h182v-414l64 63q24 21 42.5 28.5t33.5 7.5q23 0 49 -19.5t81 -73.5l-270 -264v-734h-182v555l-63 -61q-37 -37 -67 -37q-18 0 -43.5 20t-89.5 84z" />
<glyph unicode="&#x152;" horiz-adv-x="2351" d="M154 431v518q0 112 44.5 200t117 146.5t169.5 89t203 30.5q139 0 256 -46.5t190 -147.5q72 101 190.5 147.5t254.5 46.5q107 0 204 -33.5t172.5 -98.5t119.5 -157.5t44 -210.5h-179q0 81 -31.5 142.5t-82 102t-115.5 62t-132 21.5q-66 0 -130 -20t-112.5 -56t-79 -91 t-30.5 -127v-94q0 -60 58 -60h470v-173h-528v-191q0 -73 30.5 -127.5t80.5 -91t114 -55t130 -18.5q67 0 132 21.5t115.5 63.5t80.5 106t30 147h179q0 -122 -44 -216t-118 -159t-171 -100.5t-204 -35.5q-127 0 -239.5 44.5t-191.5 128.5q-3 9 -14 9q-9 0 -18 -9 q-73 -72 -188.5 -122.5t-239.5 -50.5q-103 0 -200 30.5t-172.5 89.5t-120 145.5t-44.5 199.5zM336 431q0 -73 30.5 -127.5t80.5 -91t114 -55t130 -18.5q70 0 133.5 20t112.5 56.5t79 92.5t30 129v515q0 72 -30 127t-80.5 91t-114 54.5t-133.5 18.5q-66 0 -130 -20 t-112.5 -56t-79 -91t-30.5 -127v-518z" />
<glyph unicode="&#x153;" horiz-adv-x="1675" d="M40 342v379q0 87 35 156t91 114t128.5 68t145.5 23q97 0 180 -33.5t141 -99.5q57 63 141 98t180 35q78 0 151.5 -24.5t129 -69.5t89.5 -111.5t34 -152.5v-79q0 -84 -56.5 -130t-135.5 -46h-443v-127q0 -93 72 -142t159 -49t159 59t72 172h176q0 -90 -33.5 -165 t-89.5 -124.5t-129.5 -77t-154.5 -27.5q-87 0 -166.5 29t-137.5 87q-8 8 -17 8q-6 0 -15 -8q-61 -58 -140 -87t-163 -29q-76 0 -147 23t-128.5 66.5t-92.5 110.5t-35 154zM212 342q0 -49 21.5 -83t53 -58.5t74 -37t82.5 -12.5q84 0 157 49t73 145v379q0 49 -21.5 83.5 t-54.5 59t-74 36.5t-83 12q-82 0 -155 -48.5t-73 -145.5v-379zM848 703q0 -24 1.5 -48.5t17.5 -24.5h418q26 0 28 35v59q0 93 -71 142t-160 49q-87 0 -160.5 -48.5t-73.5 -145.5v-18z" />
<glyph unicode="&#x160;" horiz-adv-x="1320" d="M370 1833q64 3 100.5 3t60.5 -5.5t40 -19t33 -38.5l46 -64l55 67q18 23 32.5 36t37.5 18.5t59.5 5.5t102.5 -3l-287 -350z" />
<glyph unicode="&#x161;" horiz-adv-x="1087" d="M257 1521q64 3 100.5 3t60.5 -5.5t40 -19t33 -38.5l46 -64l55 67q18 23 32.5 36t37.5 18.5t59.5 5.5t102.5 -3l-287 -350z" />
<glyph unicode="&#x178;" horiz-adv-x="1317" d="M333 1605q0 49 33.5 81t75.5 32q52 0 84 -32t32 -81q0 -42 -32 -75.5t-84 -33.5q-42 0 -75.5 33.5t-33.5 75.5zM749 1605q0 49 33 81t78 32q49 0 82 -32t33 -81q0 -42 -33 -75.5t-82 -33.5q-46 0 -78.5 33.5t-32.5 75.5z" />
<glyph unicode="&#x17d;" horiz-adv-x="1320" d="M396 1824q64 3 100.5 3t60.5 -5.5t40 -19t33 -38.5l46 -64l55 67q18 23 32.5 36t37.5 18.5t59.5 5.5t102.5 -3l-287 -350z" />
<glyph unicode="&#x17e;" horiz-adv-x="1050" d="M235 1521q64 3 100.5 3t60.5 -5.5t40 -19t33 -38.5l46 -64l55 67q18 23 32.5 36t37.5 18.5t59.5 5.5t102.5 -3l-287 -350z" />
<glyph unicode="&#x192;" horiz-adv-x="1123" d="M-161 -367l43 167q84 0 158.5 13.5t113.5 41.5q81 55 112 188l179 752h-139l43 166h139l24 106q21 98 61 166t108 111.5t169.5 65t249.5 21.5l-36 -167h-31q-101 0 -160.5 -13.5t-94.5 -40.5t-52 -67t-32 -94l-24 -88h239l-48 -166h-188q-43 0 -51 -46l-174 -725 q-23 -104 -72 -181t-124 -124q-67 -43 -181 -64.5t-232 -21.5z" />
<glyph unicode="&#x2c6;" horiz-adv-x="747" d="M78 1194l289 351l278 -351q-60 -3 -96.5 -3t-59.5 6t-37.5 19.5t-32.5 38.5l-52 64l-52 -67q-18 -24 -33.5 -38t-37.5 -18.5t-60.5 -4.5t-105.5 3z" />
<glyph unicode="&#x2c7;" horiz-adv-x="747" d="M78 1521q64 3 100.5 3t60.5 -5.5t40 -19t33 -38.5l46 -64l55 67q18 23 32.5 36t37.5 18.5t59.5 5.5t102.5 -3l-287 -350z" />
<glyph unicode="&#x2d8;" horiz-adv-x="760" d="M81 1524h147q0 -51 12 -84.5t32 -51.5t42 -23.5t44 -5.5q67 0 100 43.5t33 121.5h145q0 -142 -82 -224t-196 -82q-109 0 -193 82t-84 224z" />
<glyph unicode="&#x2d9;" horiz-adv-x="671" d="M215 1333q0 49 33 81t79 32q49 0 81 -32t32 -81q0 -42 -32 -75.5t-81 -33.5q-46 0 -79 33.5t-33 75.5z" />
<glyph unicode="&#x2da;" horiz-adv-x="808" d="M161 1255q0 46 18 86.5t49.5 72.5t72.5 49.5t87 17.5q43 0 85 -17.5t75.5 -48t53.5 -72.5t20 -88t-21.5 -88t-55 -72.5t-74 -49t-83.5 -18.5q-88 0 -157.5 66.5t-69.5 161.5zM306 1258q0 -43 24.5 -67.5t57.5 -24.5q34 0 61.5 24.5t27.5 64.5t-26 63.5t-63 23.5 q-34 0 -58 -22t-24 -62z" />
<glyph unicode="&#x2db;" horiz-adv-x="602" d="M90 -231q0 58 27.5 107t88.5 63v61h158v-182h-78q-46 0 -46 -49q0 -21 13 -31t33 -10q14 0 27.5 6t56.5 35l96 -105q-52 -55 -94 -72t-86 -17q-82 0 -139 55t-57 139z" />
<glyph unicode="&#x2dc;" horiz-adv-x="908" d="M101 1234q43 79 97 138t126 59q34 0 63 -12.5t51 -27.5t42 -27.5t32 -12.5q15 0 27.5 11t23 24.5t26 24.5t33.5 11q34 0 72 -25l37 -27q-40 -81 -90 -128.5t-126 -47.5q-34 0 -60.5 12t-49.5 29t-41.5 29t-36.5 12q-15 0 -28 -13.5t-27 -29t-29 -29t-34 -13.5 q-24 0 -53 12t-55 31z" />
<glyph unicode="&#x2dd;" horiz-adv-x="605" d="M101 1516h194l-26 -325q-3 -34 -20.5 -51.5t-42 -25t-47.5 -9.5t-32 -2zM336 1516h194l-24 -325q-3 -34 -21.5 -51.5t-40.5 -25t-45 -9.5t-35 -2z" />
<glyph unicode="&#xe00;" horiz-adv-x="3031" />
<glyph unicode="&#xe01;" horiz-adv-x="1247" d="M98 776l20 97q46 162 176.5 250.5t306.5 88.5q90 0 175 -24.5t150.5 -72.5t104.5 -122t39 -175v-818h-170v818q0 64 -26 109t-66.5 72.5t-94 41.5t-109.5 14q-82 0 -159.5 -40t-123.5 -106q58 -6 104.5 -33.5t59.5 -114.5q-57 -15 -86 -55.5t-29 -89.5v-616h-170v616 q0 43 6 77.5t31 67.5q-18 3 -41 4.5t-48 4.5q-27 3 -50 6z" />
<glyph unicode="&#xe02;" horiz-adv-x="1175" d="M40 928q0 67 29 119.5t74 89.5t105.5 56t124.5 19q67 0 127.5 -17.5t105.5 -54.5t71 -88.5t26 -117.5q0 -76 -32 -127.5t-69.5 -94t-69.5 -86.5t-32 -105v-360h298q9 0 17.5 7.5t8.5 19.5v1006h171v-1006q0 -78 -53.5 -133t-134.5 -55h-477v521q0 64 33.5 112.5t75 94 t74.5 92.5t33 111q0 69 -53 110t-120 41q52 -21 75.5 -65.5t23.5 -88.5q0 -84 -63.5 -147t-150.5 -63q-91 0 -154.5 60.5t-63.5 149.5zM176 928q0 -34 24.5 -57t57.5 -23q34 0 57.5 23t23.5 57t-23.5 56t-57.5 22q-35 0 -58.5 -22.5t-23.5 -55.5z" />
<glyph unicode="&#xe03;" horiz-adv-x="1259" d="M78 879q0 133 82.5 227t209.5 94q43 0 83.5 -14.5t67.5 -45.5l75 84q76 -61 132 -133.5t56 -156.5q0 -82 -30 -141t-68 -106.5t-68 -89.5t-30 -94v-349h288q27 0 27 28v1009h164v-1009q0 -75 -53 -128.5t-132 -53.5h-460v503q0 64 33 113t72.5 95.5t72.5 98t33 124.5 q0 24 -8.5 51t-28.5 45l-69 -67q-43 61 -83.5 84t-73.5 23q-30 0 -61 -17t-46 -47q21 12 52 12q88 0 141 -53t53 -132q0 -81 -59 -140.5t-150 -59.5q-106 0 -164 75.5t-58 170.5zM222 833q0 -34 23.5 -54.5t54.5 -20.5q34 0 58 20.5t24 54.5q0 30 -24.5 53t-57.5 23 q-29 0 -53.5 -22.5t-24.5 -53.5z" />
<glyph unicode="&#xe04;" horiz-adv-x="1269" d="M133 173v642q0 98 42.5 170.5t111 122t153 75.5t173.5 26q90 0 176.5 -24.5t153 -74t107.5 -124t41 -173.5v-813h-169v813q0 63 -27.5 106.5t-70.5 74t-98.5 44.5t-112.5 14q-55 0 -110 -15.5t-98.5 -44.5t-71 -72.5t-30.5 -104.5l-14 -442q3 21 8 46q9 43 24 81l98 252 q24 66 78.5 105.5t124.5 39.5q87 0 150.5 -60.5t63.5 -148.5q0 -87 -63.5 -146.5t-150.5 -59.5q-15 0 -36.5 6t-39.5 12q-21 9 -46 15q-29 -46 -63 -121q-30 -64 -66.5 -161t-78.5 -233q-85 18 -122 65t-37 108zM543 691q0 -34 22.5 -57.5t56.5 -23.5t57.5 23.5t23.5 54.5 q0 34 -24.5 56.5t-56.5 22.5q-34 0 -56.5 -21t-22.5 -55z" />
<glyph unicode="&#xe05;" horiz-adv-x="1269" d="M133 173v651q0 128 86.5 229t208.5 147q15 6 19 6h10q46 0 90 -23t81 -52q34 29 79 55t88 26q20 0 26 -3q131 -43 200.5 -145.5t69.5 -233.5v-830h-169v830q0 73 -32 133.5t-106 91.5q-29 -15 -62.5 -35t-93.5 -71q-52 57 -93 77t-66 26q-69 -34 -116 -93t-50 -135 l-14 -451q3 24 8 49q9 46 24 78l104 258q23 63 76.5 102.5t123.5 39.5q87 0 149 -62t62 -147q0 -87 -62 -146.5t-152 -59.5q-30 0 -62.5 7.5t-56.5 22.5q-34 -46 -66 -121q-30 -64 -68.5 -161t-76.5 -233q-85 18 -122 65t-37 108zM546 694q0 -34 21 -57.5t55 -23.5 t57.5 23.5t23.5 54.5q0 34 -22 56.5t-56 22.5t-56.5 -21t-22.5 -55z" />
<glyph unicode="&#xe06;" horiz-adv-x="1447" d="M84 879q0 133 82.5 227t209.5 94q43 0 83.5 -14.5t67.5 -45.5l77 84q75 -61 136 -133.5t61 -156.5q0 -76 -27.5 -129t-61 -99t-60.5 -89.5t-27 -101.5v-124q0 -15 5.5 -27t29.5 -22q61 -21 134 -50t143 -52q78 -30 160 -61v1012h170v-1015q0 -27 -7.5 -58t-24.5 -57.5 t-43 -45t-64 -18.5l-431 170q-15 -75 -71 -128.5t-141 -53.5q-90 0 -150 59.5t-60 146.5q0 78 53.5 134.5t128.5 71.5v118q0 67 30.5 115.5t65.5 94t65 94t30 115.5q0 18 -10 48t-34 48l-71 -67q-43 61 -85 84t-72 23q-37 0 -69 -20t-38 -44q27 12 61 12q76 0 130.5 -53 t54.5 -132q0 -81 -59 -140.5t-150 -59.5q-106 0 -164 75.5t-58 170.5zM228 833q0 -34 23.5 -54.5t54.5 -20.5q34 0 59.5 20.5t25.5 54.5q0 30 -26 53t-59 23q-29 0 -53.5 -22.5t-24.5 -53.5zM403 191q0 -30 24 -54.5t58 -24.5q30 0 56 24.5t26 54.5q0 34 -26 56t-56 22 q-34 0 -58 -22t-24 -56z" />
<glyph unicode="&#xe07;" horiz-adv-x="969" d="M55 610l133 99l428 -527q6 0 7.5 4.5t1.5 22.5v592q-30 -6 -46 -6q-91 0 -154.5 59t-63.5 146q0 88 63.5 148.5t154.5 60.5q87 0 151.5 -59t64.5 -147v-794q0 -98 -55 -153.5t-152 -55.5h-39zM494 1000q0 -29 26 -53.5t59 -24.5q29 0 53.5 23.5t24.5 57.5t-23.5 56.5 t-54.5 22.5q-34 0 -59.5 -23.5t-25.5 -58.5z" />
<glyph unicode="&#xe08;" horiz-adv-x="1221" d="M104 676v137q0 90 40.5 164.5t107 125.5t151.5 78.5t170 27.5q87 0 172 -26t151.5 -75.5t106.5 -124t40 -168.5v-627q0 -64 -38.5 -114t-119.5 -74q-30 118 -64 213.5t-63 165.5q-34 78 -70 145q-26 -15 -52 -21t-57 -6q-91 0 -154.5 59.5t-63.5 146.5t63.5 148t151.5 61 q63 0 122.5 -42.5t79.5 -102.5q18 -52 32 -91.5t27.5 -77t26 -83.5t24.5 -109l-15 409q-6 119 -97 178t-203 59q-55 0 -107.5 -15.5t-95.5 -45.5t-70.5 -75.5t-27.5 -102.5v-137h-168zM497 703q0 -30 22.5 -54t59.5 -24q34 0 54.5 24t20.5 57q0 34 -20.5 54.5t-54.5 20.5 q-37 0 -59.5 -22t-22.5 -56z" />
<glyph unicode="&#xe09;" horiz-adv-x="1253" d="M107 500q0 85 62 147t152 62t151 -63.5t61 -151.5v-291q66 37 127 69q52 30 111 61t102 55q24 12 31.5 36t7.5 53v338q0 61 -28.5 104.5t-74 72.5t-100.5 44.5t-108 15.5q-58 0 -115.5 -14t-102 -43t-71 -74t-26.5 -108v-55h-168v55q0 103 39.5 177t106 122t154.5 72.5 t183 24.5q84 0 170.5 -26t155 -75.5t110.5 -122.5t42 -170v-430q64 -24 98.5 -75.5t34.5 -118.5q0 -87 -63.5 -148t-153.5 -61q-85 0 -139.5 48t-71.5 121l-278 -151q-69 9 -104 65t-35 111v127q-24 -6 -46 -6q-87 0 -150.5 58t-63.5 145zM243 500q0 -34 23 -56t55 -22 q30 0 54.5 22t24.5 56q0 30 -22.5 54.5t-56.5 24.5t-56 -22.5t-22 -56.5zM919 191q0 -30 21 -54.5t55 -24.5t57.5 22.5t23.5 56.5t-24.5 56t-56.5 22q-30 0 -53 -22t-23 -56z" />
<glyph unicode="&#xe0a;" horiz-adv-x="1192" d="M43 931q0 67 27.5 119.5t74 89.5t107 54.5t124.5 17.5q115 0 198 -54.5t108 -159.5q70 20 133.5 84t63.5 152h179q0 -93 -50 -183t-114 -142q55 -34 78 -85t23 -118v-527q0 -78 -47.5 -128.5t-132.5 -50.5h-460v570q0 58 26.5 98.5t58.5 76.5t59.5 79t27.5 104 q0 49 -30.5 80t-71.5 41q49 -57 47 -121q0 -84 -60.5 -147t-148.5 -63q-93 0 -156.5 60.5t-63.5 152.5zM176 928q0 -34 24.5 -57t59.5 -23q30 0 54.5 23t24.5 57t-23.5 56t-55.5 22q-34 0 -59 -22.5t-25 -55.5zM521 161h286q17 0 17 18v527q0 58 -46.5 88t-104.5 36 q-3 -26 -27 -61t-51.5 -69.5t-50.5 -69t-23 -60.5v-409z" />
<glyph unicode="&#xe0b;" horiz-adv-x="1256" d="M64 885q0 61 21.5 118.5t59 101t91 69.5t116.5 26q46 0 91 -17t69 -43l76 87q63 -52 110.5 -106t62.5 -121q69 24 125.5 89t56.5 145h179q0 -93 -49 -183t-115 -142q103 -64 103 -203v-521q0 -78 -53 -131.5t-135 -53.5h-457v503q0 61 33 107.5t72.5 92.5t73 99t33.5 123 q0 27 -12 55.5t-37 46.5l-52 -55q-34 40 -82 69t-90 29q-40 0 -66 -20t-37 -44q23 12 57 12q82 0 135 -56t53 -129q0 -87 -60.5 -140.5t-147.5 -53.5q-49 0 -90.5 21.5t-71 55t-46.5 78.5t-17 91zM206 833q0 -34 26 -56t60 -22q29 0 53.5 23t24.5 55q0 34 -24.5 56.5 t-53.5 22.5q-34 0 -60 -22.5t-26 -56.5zM582 154h291q24 0 24 31v521q0 52 -41 92.5t-92 49.5q-9 -52 -38 -95.5t-61 -84t-57.5 -81.5t-25.5 -84v-349z" />
<glyph unicode="&#xe0c;" horiz-adv-x="1684" d="M104 776l20 97q46 154 165 246.5t293 92.5q191 0 307.5 -100t116.5 -291v-421q0 -21 10.5 -31.5t32.5 -23.5l282 -151v1000h170v-1018q0 -27 -7.5 -58t-26 -57.5t-46 -43.5t-67.5 -17l-266 151q-6 -76 -66.5 -121t-139.5 -45q-90 0 -153.5 61t-63.5 148q0 78 48 133 t123 70v424q0 116 -68 175t-186 59q-79 0 -147 -41.5t-111 -104.5q30 -3 59.5 -9t51.5 -21t36 -40.5t17 -71.5q-121 -40 -121 -151v-219q12 3 24 3h22q87 0 151 -61t64 -148t-64 -146.5t-151 -59.5t-153 58t-66 145v428q0 51 15.5 81.5t33.5 63.5q-37 6 -73.5 9t-65.5 6z M333 194q0 -34 23 -58t57 -24t57.5 24.5t23.5 54.5q0 34 -24.5 56t-56.5 22q-34 0 -57 -20.5t-23 -54.5zM801 194q0 -34 23.5 -56.5t57.5 -22.5t56.5 23t22.5 53q0 34 -23 56t-56 22q-34 0 -57.5 -20.5t-23.5 -54.5z" />
<glyph unicode="&#xe0d;" horiz-adv-x="1684" d="M104 778l20 95q46 154 159.5 246.5t286.5 92.5q191 0 306.5 -100t115.5 -291v-660h318q21 0 21 18v1015h170v-1015q0 -78 -50.5 -128.5t-131.5 -50.5h-495v821q0 116 -68 175t-186 59q-79 0 -141 -40t-105 -106q30 -3 59.5 -10.5t51.5 -22.5t37.5 -40.5t18.5 -68.5 q-60 -18 -87.5 -60t-27.5 -88v-222q15 3 26 3h20q90 0 152 -59.5t62 -146.5t-62 -148t-152 -61q-93 0 -156 65t-63 153v416q0 34 9.5 71.5t30.5 70.5q-37 6 -75 10.5t-64 6.5zM342 194q0 -30 23 -54.5t57 -24.5t57.5 23t23.5 56q0 34 -23.5 56t-57.5 22q-30 0 -55 -22 t-25 -56zM824 -263q0 84 59.5 138.5t146.5 54.5q64 0 126 -48.5t62 -121.5q0 -12 -1.5 -34.5t-16.5 -37.5q61 43 81 114t20 125h163q0 -182 -112 -287.5t-276 -105.5q-46 0 -91 11.5t-81.5 37.5t-58 64t-21.5 90zM949 -263q0 -30 23.5 -53t57.5 -23q27 0 50 23.5t23 52.5 t-22.5 53.5t-50.5 24.5q-34 0 -57.5 -23t-23.5 -55z" />
<glyph unicode="&#xe0e;" horiz-adv-x="1386" d="M73 191q0 84 63.5 146.5t155.5 62.5q14 0 44 -6v222q0 75 34 142q-34 6 -72 10.5t-61 7.5l21 97q20 79 66 141t109.5 105.5t141.5 68t162 24.5q87 0 171 -26t150.5 -75.5t107 -122.5t40.5 -170v-951q0 -167 -108.5 -279t-282.5 -149l-161 118q-24 -54 -77 -86t-120 -32 q-87 0 -149 60.5t-62 148.5q0 84 62 147t149 63q15 0 24.5 -1.5t21.5 -4.5v108h170v-206l191 -136q79 30 125.5 95t46.5 154v951q0 61 -25 106t-68 74t-95.5 43t-107.5 14q-81 0 -159 -40t-121 -106q55 -6 105.5 -33.5t56.5 -111.5q-61 -18 -88.5 -61t-27.5 -87v-413 q0 -88 -59 -154.5t-155 -66.5q-91 0 -155 61t-64 148zM209 191q0 -30 24.5 -54.5t58.5 -24.5t54.5 24.5t20.5 54.5q0 34 -21.5 56t-53.5 22q-34 0 -58.5 -22t-24.5 -56zM376 -352q0 -34 23.5 -58t57.5 -24t56.5 23t22.5 56q0 34 -22.5 58.5t-56.5 24.5t-57.5 -24.5 t-23.5 -55.5z" />
<glyph unicode="&#xe0f;" horiz-adv-x="1386" d="M73 191q0 84 63.5 146.5t155.5 62.5q14 0 44 -6v222q0 75 34 142q-34 6 -72 10.5t-61 7.5l21 97q20 79 66 141t109.5 105.5t141.5 68t162 24.5q87 0 171 -26t150.5 -75.5t107 -122.5t40.5 -170v-972q0 -81 -7.5 -141t-33 -105t-77.5 -84.5t-139 -82.5l-113 142l-121 -142 l-85 87q-34 -42 -77.5 -61.5t-95.5 -19.5q-87 0 -149 60.5t-62 148.5q0 84 62 147t149 63q15 0 24.5 -1.5t21.5 -4.5v108h170v-235l70 -92l96 109l127 -118q52 34 61 89.5t9 119.5v985q0 61 -26.5 106t-69.5 74t-94 43t-103 14q-84 0 -162 -37.5t-121 -108.5 q55 -6 105.5 -33.5t56.5 -111.5q-61 -18 -88.5 -61t-27.5 -87v-413q0 -88 -59 -154.5t-155 -66.5q-91 0 -155 61t-64 148zM209 191q0 -30 24.5 -54.5t58.5 -24.5t54.5 24.5t20.5 54.5q0 34 -21.5 56t-53.5 22q-34 0 -58.5 -22t-24.5 -56zM376 -352q0 -34 23.5 -58t57.5 -24 t56.5 23t22.5 56q0 34 -22.5 58.5t-56.5 24.5t-57.5 -24.5t-23.5 -55.5z" />
<glyph unicode="&#xe10;" horiz-adv-x="1148" d="M104 -406q0 79 57 136.5t142 57.5q27 0 42 -3v79h161v-255l67 -89l72 61l107 -63q15 5 33.5 29.5t18.5 44.5h-43q-79 0 -132 55.5t-53 127.5q0 76 53 129t135 53q78 0 134.5 -54t56.5 -131v-38q0 -70 -3 -120.5t-23 -89.5t-61 -69.5t-116 -61.5l-101 67l-90 -70l-98 83 q-26 -34 -68.5 -55.5t-91.5 -21.5q-84 0 -141.5 59.5t-57.5 138.5zM142 864q0 64 21.5 118t59 97t92.5 67.5t119 24.5q106 0 192 -20t166 -20q23 0 55 21.5t56 50.5l124 -103q-52 -55 -115.5 -91.5t-119.5 -36.5q-88 0 -176.5 20t-172.5 20q-98 0 -122 -81q90 -12 176 -25 q73 -9 152 -19.5t132 -19.5q180 -23 180 -202v-489q0 -58 -35 -106.5t-119 -66.5q-27 67 -61 121.5t-61 97.5q-34 49 -63 84q-49 -29 -113 -31q-87 0 -149.5 58t-62.5 144q0 81 62.5 141.5t146.5 60.5q70 0 124.5 -37.5t78.5 -98.5q15 -34 32 -77.5t32 -83.5q17 -46 37 -93 l-15 376q0 29 -8.5 41t-31.5 18q-142 17 -304 40t-303 43q-3 14 -4.5 27.5t-1.5 29.5zM228 -406q0 -29 23.5 -52.5t51.5 -23.5q30 0 54.5 22.5t24.5 51.5t-24.5 53.5t-54.5 24.5q-26 0 -50.5 -24.5t-24.5 -51.5zM428 477q0 -30 23.5 -53.5t57.5 -23.5t56.5 21.5t22.5 55.5 t-24 54.5t-55 20.5q-34 0 -57.5 -21.5t-23.5 -53.5zM691 -222q0 -34 23 -54.5t50 -20.5q29 0 49 21t20 54q0 24 -19 46t-50 22q-27 0 -50 -22t-23 -46z" />
<glyph unicode="&#xe11;" horiz-adv-x="1524" d="M93 879q0 133 79.5 227t206.5 94q43 0 86.5 -14.5t70.5 -45.5l77 84q75 -61 131.5 -133.5t56.5 -156.5q0 -67 -26 -120t-58 -101t-59.5 -92.5t-27.5 -90.5l-8 -197q3 6 6 19q2 9 8 24t12 32l361 786q98 0 161.5 -17t101.5 -56t52.5 -102.5t14.5 -160.5v-858h-165v858 q0 58 -10 112t-64 54q-9 0 -21 -26q-110 -258 -224.5 -499t-221.5 -499q-87 3 -125.5 62t-38.5 114l-3 357q0 58 29 106.5t63.5 95t63.5 95.5t29 104q0 18 -7.5 52.5t-30.5 52.5l-67 -76q-43 61 -83.5 84t-74.5 23q-37 0 -69.5 -18.5t-40.5 -45.5q27 12 64 12 q78 0 128.5 -57.5t50.5 -127.5q0 -81 -57.5 -142t-148.5 -61q-106 0 -164 77t-58 172zM237 833q0 -34 22 -54.5t53 -20.5q34 0 59.5 20.5t25.5 54.5q0 30 -26 53t-59 23q-29 0 -52 -22.5t-23 -53.5z" />
<glyph unicode="&#xe12;" horiz-adv-x="1702" d="M139 176v654q0 125 73.5 227.5t193.5 145.5q23 9 37 9q42 0 80 -27.5t68 -53.5l2 3q35 26 77 55t79 29q12 0 18 -3q136 -43 196.5 -146t60.5 -236v-433q0 -18 12.5 -28.5t30.5 -22.5q37 -20 85 -48.5t91 -51.5q52 -30 105 -58v994h170v-1006q0 -27 -7 -58t-24 -57.5 t-44.5 -45t-69.5 -18.5l-273 161q-9 -78 -70 -127t-145 -49q-87 0 -152.5 62.5t-65.5 146.5q0 75 55.5 137.5t135.5 68.5v433q0 73 -25.5 133.5t-95.5 88.5q-18 -9 -62.5 -40.5t-83.5 -65.5q-30 34 -72 62t-74 41q-69 -29 -102.5 -89t-33.5 -133v-549l188 199q-52 26 -91 78 t-39 112q0 88 65 148.5t153 60.5q87 0 150 -62t63 -144q0 -75 -43 -133l-460 -540q-82 3 -119 62t-37 114zM500 670q0 -34 26 -56.5t56 -22.5q34 0 56 22.5t22 56.5t-22 56.5t-56 22.5q-30 0 -56 -22.5t-26 -56.5zM804 200q0 -34 23.5 -56.5t57.5 -22.5t56 23t22 53 q0 34 -22 57.5t-56 23.5t-57.5 -22t-23.5 -56z" />
<glyph unicode="&#xe13;" horiz-adv-x="1684" d="M107 776l20 97q43 148 155 243.5t285 95.5q191 0 311 -98.5t120 -295.5v-609q60 34 115 66q49 27 97 56.5t81 50.5q26 15 35.5 35t9.5 52v722h168v-806q57 -24 95 -78.5t38 -115.5q0 -87 -63.5 -148t-155.5 -61q-85 0 -139.5 46.5t-69.5 119.5l-243 -148 q-72 6 -105.5 63.5t-33.5 109.5v645q0 119 -71 178t-186 59q-79 0 -141 -41.5t-102 -104.5q58 -6 108 -32t56 -113q-60 -18 -86 -61t-26 -87v-222q29 6 46 6q90 0 152 -62.5t62 -146.5q0 -87 -62 -148t-152 -61q-101 0 -160 64t-59 157v413q0 34 9.5 71t30.5 71 q-18 3 -42.5 6t-46.5 6q-24 3 -50 6zM345 191q0 -30 23 -54.5t57 -24.5t56 24.5t22 54.5q0 34 -23 56t-55 22q-34 0 -57 -22t-23 -56zM1339 191q0 -34 22.5 -56.5t56.5 -22.5t58.5 22.5t24.5 56.5t-24.5 56t-58.5 22t-56.5 -22t-22.5 -56z" />
<glyph unicode="&#xe14;" horiz-adv-x="1269" d="M133 173v645q0 98 41 170.5t109.5 122t155 75.5t174.5 26q90 0 176.5 -24.5t153 -74t107.5 -124t41 -174.5v-815h-172v815q0 61 -26 106t-70.5 75.5t-98.5 44.5t-111 14q-55 0 -111.5 -14t-100 -44.5t-71 -74t-27.5 -104.5v-575l221 237q-52 23 -89.5 76.5t-37.5 113.5 q0 88 63.5 148.5t152.5 60.5q87 0 149 -59t62 -147q0 -78 -43 -133q-57 -69 -141.5 -164t-162.5 -179q-91 -101 -188 -200q-82 6 -119 65t-37 111zM530 670q0 -34 24.5 -56.5t55.5 -22.5q34 0 60.5 22.5t26.5 56.5t-26 56.5t-58 22.5q-34 0 -58.5 -22.5t-24.5 -56.5z" />
<glyph unicode="&#xe15;" horiz-adv-x="1269" d="M133 179v648q0 64 23 121.5t63.5 106t94 87t114.5 58.5q23 9 32 9q43 0 87 -26t78 -52q34 26 80.5 53.5t89.5 27.5q18 0 26 -3q131 -43 200.5 -145.5t69.5 -233.5v-830h-169v830q0 73 -32 132t-106 90q-29 -15 -81 -47.5t-75 -55.5q-12 12 -33.5 27.5t-46 30t-45.5 28.5 t-37 17q-69 -29 -116 -87.5t-47 -137.5v-584l218 237q-52 26 -89.5 79.5t-37.5 113.5q0 88 63.5 147t152.5 59q87 0 150.5 -59t63.5 -147q0 -75 -43 -130q-42 -55 -125 -147.5t-165 -180.5q-97 -104 -202 -218q-40 3 -70.5 21.5t-49 45t-27.5 57t-9 58.5zM527 673 q0 -34 24.5 -57t58.5 -23t57.5 23t23.5 54q0 34 -24.5 58t-56.5 24q-30 0 -56.5 -22.5t-26.5 -56.5z" />
<glyph unicode="&#xe16;" horiz-adv-x="1247" d="M98 776l20 97q46 154 179.5 246.5t303.5 92.5q87 0 172 -26t152 -75.5t106 -122.5t39 -170v-818h-170v818q0 61 -26 104.5t-68 72.5t-95.5 44.5t-106.5 15.5q-82 0 -159.5 -40t-123.5 -106q61 -6 110 -33.5t54 -108.5q-57 -18 -86 -60t-29 -91v-219q15 3 25.5 3h23.5 q87 0 150.5 -61t63.5 -148q0 -84 -63.5 -146.5t-150.5 -62.5q-98 0 -158.5 61t-60.5 154v422q0 34 11 71.5t29 70.5q-18 3 -41 4.5t-48 4.5q-27 3 -53 6zM336 194q0 -34 24.5 -58t58.5 -24t56 24.5t22 54.5q0 34 -22 56t-56 22t-58.5 -20.5t-24.5 -54.5z" />
<glyph unicode="&#xe17;" horiz-adv-x="1386" d="M73 998q0 87 63.5 147.5t155.5 60.5q87 0 150.5 -59t63.5 -147v-166t-3 -198q-3 -112 -3 -233q3 14 9 28q6 12 9 25t9 29l260 706q94 0 171.5 -15.5t132.5 -53t85 -99.5t30 -159v-864h-170v864q0 61 -28 106t-89 54q-15 0 -28 -21l-397 -1003q-46 0 -76 18.5t-48 43.5 t-26 55.5t-8 58.5v619q-15 -3 -44 -3q-91 0 -155 58.5t-64 147.5zM209 998q0 -30 24.5 -54.5t58.5 -24.5t54.5 23.5t20.5 55.5q0 34 -21.5 57.5t-53.5 23.5q-34 0 -58.5 -24.5t-24.5 -56.5z" />
<glyph unicode="&#xe18;" horiz-adv-x="1139" d="M118 801v69q0 139 77 234.5t233 95.5q90 0 182.5 -21.5t181.5 -21.5q23 0 56.5 20t57.5 50l124 -102q-46 -55 -110.5 -91t-127.5 -36q-88 2 -182.5 23.5t-181.5 21.5q-61 0 -88.5 -28.5t-36.5 -74.5q94 -15 182 -28q76 -12 156 -22.5t140 -16.5q94 -9 137 -63.5 t43 -142.5v-488q0 -78 -45.5 -128.5t-131.5 -50.5h-581v679h170v-518h403q17 0 19 18v481q0 27 -8.5 39.5t-31.5 18.5q-73 12 -182.5 24.5t-208.5 27.5q-118 14 -246 31z" />
<glyph unicode="&#xe19;" horiz-adv-x="1342" d="M78 998q0 87 62.5 147.5t154.5 60.5q90 0 152 -59t62 -149v-816l449 182q17 6 27 25t10 42v760h171v-806q61 -21 94.5 -74t33.5 -120q0 -87 -64 -148t-151 -61q-90 0 -145 49.5t-67 129.5l-390 -161q-73 9 -107 65t-34 111v619q-15 -3 -41 -3q-91 0 -154 58.5t-63 147.5z M209 998q0 -30 25.5 -54.5t60.5 -24.5q29 0 52 23.5t23 55.5q0 34 -23 57.5t-52 23.5q-35 0 -60.5 -23.5t-25.5 -57.5zM998 191q0 -30 25.5 -54.5t55.5 -24.5q34 0 59 22.5t25 56.5t-25 56t-59 22q-30 0 -55.5 -22t-25.5 -56z" />
<glyph unicode="&#xe1a;" horiz-adv-x="1386" d="M73 1003q0 85 63.5 147t155.5 62q93 0 153.5 -59t60.5 -150v-842h512q18 0 18 18v1015h170v-1015q0 -78 -49.5 -128.5t-132.5 -50.5h-688v801q-30 -6 -44 -6q-91 0 -155 62t-64 146zM209 1003q0 -29 24.5 -53.5t58.5 -24.5t54.5 22t20.5 56t-21.5 56.5t-53.5 22.5 q-34 0 -58.5 -23t-24.5 -56z" />
<glyph unicode="&#xe1b;" horiz-adv-x="1357" d="M43 1003q0 85 63.5 147t153.5 62q101 0 159 -56t58 -153v-842h509q20 0 20 18v1678h171v-1678q0 -78 -50.5 -128.5t-134.5 -50.5h-686v801q-29 -6 -46 -6q-90 0 -153.5 62t-63.5 146zM179 1003q0 -29 23.5 -53.5t57.5 -24.5q30 0 53 23.5t23 54.5q0 34 -20.5 56.5 t-55.5 22.5q-34 0 -57.5 -23t-23.5 -56z" />
<glyph unicode="&#xe1c;" horiz-adv-x="1278" d="M133 176v830q0 88 65 147t151 59q88 0 153 -62t65 -147q0 -84 -65 -146t-153 -62q-9 0 -20 1.5t-26 4.5v-541l261 258h106l261 -258v931h169v-1018q0 -55 -36.5 -114t-117.5 -59l-330 352l-327 -352q-82 0 -119 59t-37 117zM269 1003q0 -29 23 -53.5t57 -24.5t59.5 23.5 t25.5 54.5q0 34 -25.5 56.5t-59.5 22.5q-29 0 -54.5 -23t-25.5 -56z" />
<glyph unicode="&#xe1d;" horiz-adv-x="1278" d="M133 176v830q0 88 65 147t151 59q88 0 153 -62t65 -147q0 -84 -65 -146t-153 -62q-9 0 -20 1.5t-26 4.5v-541l261 258h103l264 -258v1594h169v-1681q0 -55 -36.5 -114t-117.5 -59l-330 352l-327 -352q-82 0 -119 59t-37 117zM269 1003q0 -29 23 -53.5t57 -24.5t59.5 23.5 t25.5 54.5q0 34 -25.5 56.5t-59.5 22.5q-29 0 -54.5 -23t-25.5 -56z" />
<glyph unicode="&#xe1e;" horiz-adv-x="1487" d="M78 1003q0 85 62.5 147t154.5 62q87 0 149 -59t62 -147l-9 -633q3 12 9 24q6 11 7.5 25.5t7.5 25.5l240 634h118l228 -602q6 -15 9 -33.5t9 -33.5q6 -18 9 -40v818h167v-1015q0 -58 -35.5 -117t-125.5 -59l-319 836l-321 -839q-84 9 -124 65t-40 114v625q-30 -6 -41 -6 q-91 0 -154 62t-63 146zM209 1003q0 -29 25.5 -53.5t60.5 -24.5q29 0 53.5 23.5t24.5 54.5q0 34 -24.5 56.5t-53.5 22.5q-35 0 -60.5 -23t-25.5 -56z" />
<glyph unicode="&#xe1f;" horiz-adv-x="1487" d="M78 1003q0 85 62.5 147t154.5 62q87 0 149 -59t62 -147l-9 -633q3 12 9 24q6 11 7.5 25.5t7.5 25.5l240 634h118l228 -602q6 -15 9 -33.5t9 -33.5q6 -18 9 -40v1484h167v-1681q0 -58 -35.5 -117t-125.5 -59l-319 836l-321 -839q-84 9 -124 65t-40 114v625q-30 -6 -41 -6 q-91 0 -154 62t-63 146zM209 1003q0 -29 25.5 -53.5t60.5 -24.5q29 0 53.5 23.5t24.5 54.5q0 34 -24.5 56.5t-53.5 22.5q-35 0 -60.5 -23t-25.5 -56z" />
<glyph unicode="&#xe20;" horiz-adv-x="1386" d="M73 191q0 87 63.5 148t155.5 61q29 0 44 -3v216q0 75 34 142l-133 18l21 97q20 79 66 141t109.5 105.5t140.5 68t163 24.5q93 0 178 -24.5t150.5 -72.5t103 -122.5t37.5 -174.5v-815h-170v815q0 61 -23.5 106t-65 74t-92.5 43t-109 14q-84 0 -163.5 -38.5t-122.5 -107.5 q55 -6 105.5 -33.5t56.5 -114.5q-61 -15 -88.5 -56.5t-27.5 -88.5v-410q0 -88 -59 -153t-155 -65q-91 0 -155 59.5t-64 146.5zM209 191q0 -30 24.5 -53t58.5 -23t54.5 22.5t20.5 56.5t-21.5 54.5t-53.5 20.5q-34 0 -58.5 -22t-24.5 -56z" />
<glyph unicode="&#xe21;" horiz-adv-x="1369" d="M73 1000q0 88 63.5 148.5t155.5 60.5q93 0 153.5 -57.5t60.5 -151.5v-603q0 -30 37 -39l475 -182v1015h170v-1012q0 -27 -7 -59.5t-24 -57.5t-44.5 -43.5t-63.5 -18.5l-470 167q-6 -78 -68.5 -130t-149.5 -52q-84 0 -150 61t-66 148q0 75 53.5 136t134.5 70v398l-41 -3 q-91 0 -155 58.5t-64 146.5zM209 1000q0 -29 24.5 -53.5t58.5 -24.5t54.5 23.5t20.5 54.5q0 35 -21.5 58.5t-53.5 23.5q-34 0 -58.5 -23.5t-24.5 -58.5zM281 194q0 -34 25.5 -56.5t54.5 -22.5q34 0 59 23t25 53q0 34 -24 57.5t-60 23.5q-29 0 -54.5 -22t-25.5 -56z" />
<glyph unicode="&#xe22;" horiz-adv-x="1259" d="M104 842q0 55 22 118.5t62 118.5t95.5 91t122.5 36q87 0 151.5 -59t64.5 -147q0 -87 -64 -147.5t-152 -60.5q-73 0 -134 50q0 -49 17 -77t43 -42t56.5 -18.5t56.5 -4.5h180q0 -84 -32 -114.5t-90 -30.5h-60q-27 0 -35 -18.5t-8 -39.5v-318q0 -18 19 -18h493v1030h167 v-1191h-666q-76 0 -130.5 53.5t-54.5 122.5v336q0 34 10.5 49t16.5 27q-79 40 -115 103.5t-36 150.5zM321 998q0 -30 26 -53t59 -23q34 0 56.5 22t22.5 56q0 35 -22.5 57t-56.5 22q-35 0 -60 -24.5t-25 -56.5z" />
<glyph unicode="&#xe23;" horiz-adv-x="1018" d="M55 784q0 91 16 185.5t86 155.5q40 40 90 57.5t105 17.5q91 0 186 -21.5t180 -21.5q23 0 56 20t56 50l128 -102q-46 -55 -113 -92.5t-127 -37.5q-88 0 -183 24t-183 24q-52 0 -80.5 -37t-37.5 -81l359 -46q98 -12 141.5 -69.5t43.5 -149.5v-469q0 -87 -65 -146.5 t-149 -59.5q-87 0 -154.5 59.5t-67.5 146.5t67.5 148t154.5 61h20.5t25.5 -3v263q0 30 -8.5 44t-34.5 17zM480 191q0 -30 25 -53t59 -23q29 0 53.5 23t24.5 53q0 34 -23 56t-55 22q-34 0 -59 -22t-25 -56z" />
<glyph unicode="&#xe24;" horiz-adv-x="1247" d="M98 778l20 95q46 154 179.5 246.5t303.5 92.5q93 0 178 -24.5t150.5 -71t103 -120.5t37.5 -175v-1281h-170v1281q0 64 -26 107.5t-66.5 71t-94 41.5t-109.5 14q-85 0 -161 -37.5t-122 -108.5q61 -6 110 -33.5t54 -108.5q-60 -18 -87.5 -60t-27.5 -88v-222q15 3 25.5 3 h23.5q87 0 150.5 -59.5t63.5 -146.5t-63.5 -148t-150.5 -61q-93 0 -156 58t-63 151v425q0 34 7.5 71.5t29.5 70.5zM339 194q0 -30 23 -53t57 -23q29 0 52 23t23 53q0 29 -23 50.5t-52 21.5q-34 0 -57 -19t-23 -53z" />
<glyph unicode="&#xe25;" horiz-adv-x="1259" d="M133 728v93q0 98 42.5 172t111 122t154.5 72.5t175 24.5q90 0 175 -24.5t148.5 -72.5t103 -120.5t39.5 -170.5v-642q0 -52 -46.5 -105t-110.5 -77q-40 90 -83.5 189.5t-86.5 193.5t-84 173.5t-78 128.5q-84 -55 -144.5 -117t-90.5 -165q12 3 33.5 3h33.5 q87 -9 140.5 -71.5t53.5 -146.5t-64 -140.5t-149 -56.5q-88 0 -147 63.5t-77 145.5q-9 46 -9 97q0 98 35 181t95.5 157t143.5 136t183 114q61 -61 122 -172.5t130 -258.5q12 -23 18 -44.5t12 -39.5q6 -21 10 -43l-10 497q-6 119 -93.5 175t-202.5 56q-55 0 -111.5 -14 t-101.5 -43t-72.5 -72.5t-27.5 -104.5v-93h-170zM327 200q0 -30 23 -53t56 -23q29 0 52.5 23t23.5 53q0 29 -23.5 50.5t-52.5 21.5q-35 0 -57 -19t-22 -53z" />
<glyph unicode="&#xe26;" horiz-adv-x="1386" d="M73 194q0 87 63.5 146.5t155.5 59.5q29 0 44 -3v222q0 34 9.5 71.5t24.5 70.5l-133 17l21 95q17 79 63 141t109.5 105.5t142 68t164.5 24.5q93 0 178 -24.5t150.5 -71t103 -120.5t37.5 -175v-1281h-170v1281q0 64 -23.5 107.5t-65 71t-95.5 41.5t-112 14 q-84 0 -160.5 -37.5t-119.5 -108.5q55 -6 105.5 -33.5t56.5 -108.5q-61 -18 -88.5 -60t-27.5 -88v-425q0 -101 -56 -155t-158 -54q-91 0 -155 61t-64 148zM209 194q0 -34 24.5 -56.5t58.5 -22.5t56 22.5t22 56.5t-23 54.5t-55 20.5q-34 0 -58.5 -20.5t-24.5 -54.5z" />
<glyph unicode="&#xe27;" horiz-adv-x="1142" d="M87 685v128q0 97 33.5 171t92.5 123.5t140 75.5t174 26q90 0 170.5 -27.5t140 -77t92.5 -124t33 -165.5v-624q0 -87 -63.5 -146.5t-150.5 -59.5q-90 0 -154.5 59.5t-64.5 146.5t63.5 148t155.5 61q18 0 49 -6v421q0 116 -78 176.5t-193 60.5q-121 0 -196.5 -57.5 t-75.5 -181.5v-128h-168zM667 191q0 -30 24 -53t58 -23t56 23t22 53q0 34 -23 56t-55 22q-34 0 -58 -22t-24 -56z" />
<glyph unicode="&#xe28;" horiz-adv-x="1256" d="M136 173v645q0 101 41 173.5t106.5 122t148.5 74t169 24.5q81 0 164 -19t154 -71q21 55 27 101.5t6 52.5h170q0 -3 -1.5 -29t-11 -66.5t-26 -91t-44.5 -100.5q21 -37 29 -79.5t8 -94.5v-815h-170v818q-15 -14 -42.5 -35.5t-50.5 -33.5q8 -27 8 -61q0 -87 -65 -145 t-149 -58q-64 0 -116 33q-34 -58 -66 -136q-30 -70 -65.5 -165.5t-67.5 -219.5q-58 6 -90 33.5t-48 59.5q-15 37 -18 83zM295 382q2 18 5 37q3 15 7.5 31t7.5 30l88 272q23 75 80 116t121 41q26 0 55 -9t53 -24q40 24 69 52t52 52q-43 40 -109.5 57.5t-122.5 17.5 q-52 0 -105 -14t-95.5 -44.5t-70 -74t-27.5 -104.5zM530 697q0 -30 23 -52.5t57 -22.5q29 0 52 22.5t23 52.5t-23 51.5t-52 21.5q-30 0 -55 -19.5t-25 -53.5z" />
<glyph unicode="&#xe29;" horiz-adv-x="1386" d="M73 1003q0 85 65 147t154 62q87 0 150.5 -62t63.5 -144v-845h518q15 0 15 18v234q-52 -15 -97 -18.5t-87 -3.5q-48 0 -97 15.5t-88.5 43t-65 66.5t-25.5 91q0 84 56 139t138 55q84 0 138.5 -55t54.5 -139q0 -15 -5.5 -35t-11.5 -32q54 0 90 12v642h167v-476l133 -64 q-60 -100 -133 -157v-318q0 -78 -49.5 -128.5t-132.5 -50.5h-688v801q-30 -6 -44 -6q-88 0 -153.5 62t-65.5 146zM212 1003q0 -29 23 -52t57 -23q29 0 52 22t23 53q0 30 -23 51.5t-52 21.5q-30 0 -55 -20t-25 -53zM691 613q0 -34 24.5 -57t57.5 -23q34 0 59.5 23t25.5 57 t-25.5 56t-59.5 22q-30 0 -56 -23t-26 -55z" />
<glyph unicode="&#xe2a;" horiz-adv-x="1263" d="M136 728v93q0 98 41 172t109.5 122t154.5 72.5t175 24.5q75 0 147.5 -16t139.5 -59q18 23 27.5 53.5t9.5 88.5h182q0 -98 -24.5 -150.5t-70.5 -110.5q27 -43 41 -92.5t14 -101.5v-651q0 -26 -12 -56t-33.5 -55t-50 -45t-61.5 -26l-364 674q-55 -37 -91 -64.5t-59 -56.5 t-35 -62.5t-21 -78.5q15 3 48 3q87 0 140 -67t53 -151q0 -87 -59.5 -142t-142.5 -55q-67 0 -112 27.5t-72.5 69.5t-40 95.5t-12.5 105.5q0 97 30.5 177t85 148t131 126t166.5 108q90 52 140.5 83.5t93.5 74.5q-40 21 -92 35t-96 14q-55 0 -111.5 -14t-101.5 -43t-72.5 -72.5 t-27.5 -104.5v-93h-167zM309 200q0 -30 23 -53t56 -23q29 0 52 23t23 53q0 29 -23 50.5t-52 21.5q-34 0 -56.5 -19t-22.5 -53zM685 743l200 -379q18 -30 27 -61q6 -14 10 -31l-10 552q0 52 -15 70q-55 -52 -103 -81t-109 -70z" />
<glyph unicode="&#xe2b;" horiz-adv-x="1403" d="M73 1003q0 85 63.5 147t155.5 62q87 0 150.5 -59t63.5 -147v-734l364 529q6 9 7.5 25t-7.5 22q-37 27 -57.5 70t-20.5 88q0 88 63.5 147t153.5 59q88 0 150 -62t62 -147q0 -23 -12 -66t-35 -58q14 -15 29 -42t15 -70v-767h-169v761q0 15 3 23q3 9 3 17l-564 -804 q-57 6 -89 33.5t-47 59.5q-15 37 -19 83v628q-30 -6 -44 -6q-91 0 -155 60t-64 148zM209 1003q0 -34 24.5 -56t58.5 -22t56 22t22 53q0 35 -23 58.5t-55 23.5q-34 0 -58.5 -22.5t-24.5 -56.5zM925 1006q0 -34 23.5 -56t60.5 -22q30 0 53 20.5t23 54.5t-23 58t-53 24 q-37 0 -60.5 -23t-23.5 -56z" />
<glyph unicode="&#xe2c;" horiz-adv-x="1502" d="M78 1003q0 88 62.5 148.5t154.5 60.5q87 0 149 -59t62 -147l-9 -760q6 17 18 35q9 15 18.5 35t21.5 36l212 372h112l209 -369q12 -15 21.5 -35t18.5 -34q12 -18 18 -40l-9 564q0 20 -18 20h-34q-87 0 -149.5 61t-62.5 148t63.5 147t151.5 60q97 0 156.5 -66.5 t59.5 -158.5v-21q15 6 29.5 13.5t31.5 32.5l108 -85q-24 -37 -73 -68.5t-96 -37.5v-679q0 -27 -8 -58t-26 -57.5t-48.5 -43.5t-75.5 -17l-322 540l-324 -543q-84 9 -122.5 65t-38.5 114v625q-15 -3 -44 -3q-91 0 -154 58.5t-63 146.5zM212 1003q0 -29 25.5 -53.5t57.5 -24.5 q34 0 56 25t22 56q0 30 -24.5 54.5t-53.5 24.5q-35 0 -59 -24t-24 -58zM1009 1039q0 -30 24.5 -54t54.5 -24q34 0 60 22.5t26 55.5q0 34 -26 57t-60 23q-30 0 -54.5 -23t-24.5 -57z" />
<glyph unicode="&#xe2d;" horiz-adv-x="1290" d="M90 715v100q0 101 44.5 175t115.5 123.5t160.5 74t180.5 24.5q87 0 178.5 -24.5t167 -74t123 -124t47.5 -171.5v-818h-627q-79 0 -129.5 46.5t-50.5 126.5v475q0 82 61 146t148 64q90 0 156 -60.5t66 -149.5q0 -81 -62 -144.5t-151 -63.5q-21 0 -52 5v-266q0 -18 19 -18 h455v657q0 61 -33.5 104.5t-85 74t-114 44.5t-116.5 14q-58 0 -116.5 -14t-107.5 -44.5t-79 -75.5t-30 -106v-100h-168zM437 648q0 -34 22.5 -57.5t55.5 -23.5q37 0 57.5 26t20.5 58q0 34 -23.5 55.5t-57.5 21.5t-54.5 -24.5t-20.5 -55.5z" />
<glyph unicode="&#xe2e;" horiz-adv-x="1212" d="M98 955q0 45 26.5 90.5t82.5 81.5t141.5 59t197.5 23q79 0 165.5 -17.5t152.5 -63.5q37 49 55 91t27 60l145 -49l-8 -22q-7 -23 -22 -56t-36.5 -71t-52.5 -75q24 -40 41 -88t17 -103v-815h-654q-79 0 -130.5 46.5t-51.5 126.5v318q0 88 62 148.5t150 60.5q84 0 151.5 -59 t67.5 -141q0 -87 -59.5 -150.5t-146.5 -68.5h-27.5t-27.5 5v-113q0 -12 12 -12h488v654q0 46 -19 76q-78 -52 -187 -85t-245 -33q-145 0 -230 47t-85 135zM258 955q0 -12 17 -19.5t40.5 -12t49.5 -4.5h48q93 0 179.5 25t147.5 62q-30 34 -88.5 47.5t-102.5 13.5 q-58 0 -111 -10.5t-92.5 -26t-63.5 -37t-24 -38.5zM327 491q0 -34 26 -58.5t63 -24.5q27 0 51 26t24 60q-3 30 -28 53t-55 23q-34 -3 -57.5 -26t-23.5 -53z" />
<glyph unicode="&#xe2f;" horiz-adv-x="1123" d="M104 1000q0 88 62 148.5t152 60.5q88 0 151.5 -62t63.5 -147v-24t-6 -24q75 29 133 93.5t83 145.5q46 0 75.5 -17t48 -42t26 -54t7.5 -57v-1021h-166v882q-69 -55 -154.5 -85t-176.5 -30q-52 0 -104.5 14t-97 44t-71 74t-26.5 101zM237 1000q0 -29 24.5 -53.5t56.5 -24.5 q30 0 56 23.5t26 54.5q0 35 -26 58.5t-56 23.5q-34 0 -57.5 -24.5t-23.5 -57.5z" />
<glyph unicode="&#xe30;" horiz-adv-x="1030" d="M133 300q0 88 62.5 148.5t153.5 60.5q88 0 153 -60.5t65 -148.5q0 -37 -18 -78q79 15 141 71t86 152l164 -45q-43 -165 -169 -255t-283 -90q-87 0 -148.5 19t-102.5 50q-49 34 -76.5 79.5t-27.5 96.5zM133 903q0 87 62.5 148.5t153.5 61.5q88 0 153 -60.5t65 -149.5 q0 -37 -18 -79q79 15 139.5 71.5t84.5 147.5l167 -37q-43 -164 -169 -255t-283 -91q-87 0 -148.5 18.5t-102.5 49.5q-49 34 -76.5 78.5t-27.5 96.5zM266 300q0 -29 24.5 -53.5t58.5 -24.5t58 23.5t24 54.5q0 34 -24 56.5t-58 22.5t-58.5 -23t-24.5 -56zM266 903 q0 -30 24.5 -54.5t58.5 -24.5t58 24.5t24 54.5q0 34 -24 57t-58 23t-58.5 -23t-24.5 -57z" />
<glyph unicode="&#xe31;" d="M-731 1619q0 87 65 148t154 61q87 0 151 -61t64 -148q0 -15 -1.5 -27.5t-4.5 -27.5q109 21 227.5 76t205.5 133l110 -118q-130 -116 -304 -190t-336 -74q-54 0 -112 10.5t-106.5 35t-80.5 70.5t-32 112zM-596 1619q0 -34 23.5 -58.5t60.5 -24.5q34 0 59 24.5t25 58.5 t-25 58t-59 24t-59 -24.5t-25 -57.5z" />
<glyph unicode="&#xe32;" horiz-adv-x="1030" d="M55 670v148q0 94 34.5 167t94 124t138 78.5t169.5 27.5t171.5 -27.5t139.5 -77t92.5 -124t33.5 -165.5v-821h-167v821q0 116 -78.5 176.5t-191.5 60.5q-115 0 -192 -62t-77 -178v-148h-167z" />
<glyph unicode="&#xe33;" horiz-adv-x="1053" d="M-437 1579q0 93 67 157.5t164 64.5q91 0 157.5 -64.5t66.5 -157.5t-66.5 -156.5t-157.5 -63.5q-97 0 -164 63.5t-67 156.5zM-297 1579q0 -37 25.5 -62t65.5 -25q37 0 62.5 25t25.5 62q0 40 -26 63.5t-62 23.5q-40 0 -65.5 -23.5t-25.5 -63.5zM27 670v148q0 94 33 167 t92.5 124t138.5 78.5t172 27.5q91 0 171.5 -27.5t139.5 -77t92.5 -124t33.5 -165.5v-821h-172v821q0 116 -76 176.5t-189 60.5q-115 0 -192 -62t-77 -178v-148h-167z" />
<glyph unicode="&#xe34;" d="M-1122 1376q0 88 36.5 162.5t97 127t139.5 83t164 30.5q109 0 200 -38t160.5 -103t113.5 -153t60 -187q-185 43 -362.5 65t-331.5 22q-61 0 -138.5 -1.5t-138.5 -7.5zM-891 1527q0 -17 21 -17q55 3 121.5 1.5t133 -7.5t130 -15.5t115.5 -24.5q-37 75 -120 128.5 t-192 53.5q-27 0 -61.5 -9t-68 -24.5t-56.5 -36.5t-23 -49z" />
<glyph unicode="&#xe35;" d="M-1122 1376q0 88 36.5 162.5t97 127t139.5 83t164 30.5q97 0 177 -29t147 -78v174h167v-397q34 -73 43 -151q-185 43 -362.5 65t-331.5 22q-61 0 -138.5 -1.5t-138.5 -7.5zM-891 1527q0 -17 21 -17q15 0 30.5 1.5t29.5 1.5q104 0 228.5 -12t211.5 -37q-37 75 -120 128.5 t-192 53.5q-27 0 -61.5 -9t-68 -24.5t-56.5 -36.5t-23 -49z" />
<glyph unicode="&#xe36;" d="M-1116 1376q0 88 36.5 162.5t97 127t139.5 83t164 30.5q97 0 188 -33q17 58 69 93t122 35q81 0 135.5 -55t54.5 -127q0 -52 -31.5 -96.5t-83.5 -68.5q61 -109 80 -229q-185 43 -362.5 65t-331.5 22q-61 0 -138.5 -1.5t-138.5 -7.5zM-885 1527q0 -17 21 -17q54 3 121 1.5 t133.5 -7.5t130 -15.5t115.5 -24.5q-37 75 -120 128.5t-192 53.5q-27 0 -62 -9t-68 -24.5t-56 -36.5t-23 -49zM-379 1698q0 -30 21.5 -51.5t51.5 -21.5q29 0 50.5 20t21.5 50q0 26 -19 46t-53 20q-27 0 -48.5 -20t-24.5 -43z" />
<glyph unicode="&#xe37;" d="M-1116 1376q0 88 36.5 162.5t97 127t139.5 83t164 30.5q72 0 136 -18v82h152v-148l39 -26v174h158v-379q18 -40 30.5 -82.5t18.5 -83.5q-185 43 -362.5 65t-331.5 22q-61 0 -138.5 -1.5t-138.5 -7.5zM-885 1527q0 -17 21 -17h60q107 0 230 -10.5t210 -35.5 q-37 75 -120 128.5t-192 53.5q-27 0 -62 -9t-68 -24.5t-56 -36.5t-23 -49z" />
<glyph unicode="&#xe38;" d="M-555 -255q0 79 57.5 130.5t136.5 51.5q75 0 131.5 -54.5t56.5 -124.5v-352h-157v167h-31q-79 0 -136.5 52t-57.5 130zM-431 -255q0 -66 70 -66q27 0 45.5 17.5t18.5 48.5q0 30 -18 48.5t-46 18.5q-34 0 -52 -20t-18 -47z" />
<glyph unicode="&#xe39;" d="M-795 -255q0 73 55 127.5t133 54.5q79 0 133.5 -51.5t54.5 -130.5v-199h61q24 0 25 23v341h157v-350q0 -72 -45 -118t-118 -46h-237v167h-31q-78 0 -133 52t-55 130zM-673 -255q0 -66 66 -66q27 0 49 17.5t22 48.5q0 27 -21.5 47t-49.5 20q-29 0 -47.5 -20t-18.5 -47z " />
<glyph unicode="&#xe3a;" d="M-403 -286q0 61 42.5 99.5t100.5 38.5q63 0 104 -38.5t41 -99.5q0 -60 -41 -99.5t-104 -39.5q-61 0 -102 39.5t-41 99.5z" />
<glyph unicode="&#xe3f;" horiz-adv-x="1296" d="M112 0v1224q0 87 56.5 137.5t143.5 50.5h160v86q0 75 30.5 87t90.5 12h55v-191q85 -9 161 -35t133.5 -72.5t91 -116t33.5 -170.5q0 -78 -36 -147.5t-97 -118.5q109 -52 156 -140t47 -209q0 -107 -41 -181t-107.5 -120.5t-154.5 -68t-186 -27.5v-90q0 -70 -27.5 -81 t-93.5 -11h-55v182h-360zM289 167h183v475h-183v-475zM289 848q0 -40 35 -38h148v433h-160q-23 0 -23 -19v-376zM648 170q30 3 83 12t103.5 33.5t88.5 68t38 116.5q0 121 -90 181.5t-206 60.5h-17v-472zM648 810q46 3 88 17.5t77 40.5t56.5 62t21.5 82q0 58 -20 97 t-53.5 66.5t-77 41t-92.5 20.5v-427z" />
<glyph unicode="&#xe40;" horiz-adv-x="677" d="M203 200v991h167v-800q15 3 26.5 4.5t25.5 1.5q87 0 150.5 -61t63.5 -148q0 -84 -63.5 -146.5t-150.5 -62.5q-98 0 -158.5 66.5t-60.5 154.5zM339 191q0 -30 24.5 -55.5t58.5 -25.5t56 23.5t22 54.5q0 34 -22 56t-56 22t-58.5 -22t-24.5 -53z" />
<glyph unicode="&#xe41;" horiz-adv-x="1232" d="M209 200v991h170v-800q15 3 26 4.5t23 1.5q87 0 150.5 -61t63.5 -148q0 -84 -63.5 -146.5t-150.5 -62.5q-98 0 -158.5 66.5t-60.5 154.5zM345 191q0 -30 26 -55.5t57 -25.5q34 0 56 23.5t22 54.5q0 34 -22 56t-56 22q-30 0 -56.5 -22t-26.5 -53zM737 200v991h166v-797 q12 3 24.5 3h24.5q90 0 154.5 -61t64.5 -148q0 -84 -64 -146.5t-155 -62.5q-98 0 -156.5 66.5t-58.5 154.5zM873 191q0 -30 23 -55.5t56 -25.5q29 0 55 23.5t26 54.5q0 34 -26 56t-55 22q-30 0 -54.5 -22t-24.5 -53z" />
<glyph unicode="&#xe42;" horiz-adv-x="654" d="M-104 1527q0 64 15.5 123t49 103t88.5 70t130 26q58 0 110.5 -26t107.5 -26q46 0 83 77l136 -107q-43 -64 -101 -97t-118 -33q-58 0 -110.5 32t-113.5 32q-29 0 -60.5 -20t-34.5 -50l140 -46q81 -24 122.5 -72.5t41.5 -139.5v-979q15 3 27.5 3h24.5q87 0 150.5 -61 t63.5 -148q0 -84 -63.5 -146.5t-150.5 -62.5q-98 0 -158.5 66.5t-60.5 154.5v1173q0 52 -39 64q-37 15 -85 29.5t-91 31.5q-52 15 -104 29zM349 191q0 -30 25.5 -55.5t59.5 -25.5q29 0 53.5 23.5t24.5 54.5q0 34 -24.5 56t-53.5 22q-34 0 -59.5 -22t-25.5 -53z" />
<glyph unicode="&#xe43;" horiz-adv-x="639" d="M-130 1564q0 64 27.5 115t72.5 88t104 58t126 21q66 0 128.5 -21t111 -61t77.5 -94t29 -120q0 -64 -27.5 -110t-60.5 -86.5t-60.5 -78.5t-27.5 -84v-797q15 3 27.5 3h21.5q87 0 150.5 -61t63.5 -148q0 -84 -63.5 -146.5t-150.5 -62.5q-93 0 -156 66.5t-63 154.5v991 q0 55 29 100t65 86t65 82.5t29 90.5q0 23 -10.5 55t-33.5 61t-56 48t-82 19q-24 0 -47 -4.5t-35 -16.5q9 3 27 3q55 0 103.5 -45t48.5 -109q0 -84 -65 -145.5t-154 -61.5q-87 0 -150.5 62.5t-63.5 147.5zM3 1561q0 -34 23.5 -57t57.5 -23t58.5 23t24.5 57t-23 56.5t-57 22.5 t-59 -23t-25 -56zM336 191q0 -30 24.5 -55.5t58.5 -25.5t57.5 23.5t23.5 54.5q0 34 -24.5 56t-56.5 22q-34 0 -58.5 -22t-24.5 -53z" />
<glyph unicode="&#xe44;" horiz-adv-x="671" d="M-139 1703l87 128q58 -24 90 -101.5t46 -159.5l119 273q115 -24 159 -84.5t44 -167.5v-1197q16 3 42 3q91 0 154 -61t63 -148q0 -84 -62.5 -146.5t-154.5 -62.5q-93 0 -152 66.5t-59 154.5v1434l-130 -255l-107 36q-3 34 -9 77.5t-21.5 86.5t-43 78t-65.5 46zM370 191 q0 -34 24.5 -56.5t53.5 -22.5q34 0 58 22.5t24 53.5q0 34 -24 56t-58 22q-26 0 -52 -20.5t-26 -54.5z" />
<glyph unicode="&#xe45;" horiz-adv-x="1111" d="M70 670v148q0 94 34.5 167t94 124t138.5 78.5t169 27.5t171 -27.5t140 -77t92.5 -122.5t33.5 -167v-1281h-167v1281q0 116 -78.5 176.5t-191.5 60.5q-115 0 -190.5 -62t-75.5 -178v-148h-170z" />
<glyph unicode="&#xe46;" horiz-adv-x="1172" d="M179 879q0 67 23 127.5t63.5 105.5t98.5 72.5t124 27.5q46 0 91.5 -23t77.5 -55l77 93q228 -52 227 -264v-1423h-166v1423q0 46 -37 76l-82 -84q-51 66 -86 93.5t-105 27.5q-34 0 -64 -21.5t-42 -42.5q15 9 36.5 10.5t35.5 1.5q76 0 125 -60.5t49 -130.5 q0 -87 -64 -147.5t-153 -60.5q-112 0 -170.5 78t-58.5 176zM330 833q0 -34 23 -56t55 -22q35 0 59 23t24 55q0 30 -24 54.5t-59 24.5q-34 0 -56 -24.5t-22 -54.5z" />
<glyph unicode="&#xe47;" d="M-949 1570q0 125 92.5 188.5t228.5 63.5l197 -12q40 0 69 29t29 79h157q0 -115 -74 -172t-181 -57l-197 12q-69 0 -124 -35t-55 -105q0 -43 17 -70t50 -27l70 109q34 -23 68.5 -46t77.5 -48q-12 8 -15.5 18t-3.5 16q0 60 53 98t117 38q73 0 124.5 -48t51.5 -122 q0 -67 -54.5 -113.5t-133.5 -46.5q-75 0 -128.5 33t-116.5 70l-58 -94q-136 0 -198.5 69.5t-62.5 172.5zM-443 1479q0 -27 21.5 -47t48.5 -20q34 0 52 20t18 47q0 34 -19.5 52.5t-50.5 18.5q-30 0 -50 -18.5t-20 -52.5z" />
<glyph unicode="&#xe48;" d="M-327 1976v413h163v-413h-163z" />
<glyph unicode="&#xe49;" d="M-573 2256q0 69 59.5 117t137.5 48q87 0 134.5 -57t47.5 -140q0 -34 -12 -74.5t-31 -70.5q46 15 79.5 47t59 72.5t45 91t35.5 99.5l145 -43q-63 -206 -181.5 -309t-327.5 -103h-38t-40 3v94q17 5 40 19.5t38 28.5q-90 0 -140.5 50.5t-50.5 126.5zM-457 2250q0 -30 22 -52 t56 -22q24 0 45.5 21.5t21.5 52.5q0 34 -21.5 53t-45.5 19q-34 0 -56 -19t-22 -53z" />
<glyph unicode="&#xe4a;" d="M-740 2094q-12 76 12.5 133.5t63.5 98.5t83.5 62t74.5 21q21 -3 48 -14.5t45 -27.5q15 14 47.5 26.5t50.5 15.5q52 -17 80.5 -43t43.5 -62.5t18 -86.5t3 -120q12 12 23 62.5t11 70.5q0 24 -6 70t-25 86l137 32q15 -49 22.5 -98.5t7.5 -92.5q0 -109 -62 -190.5 t-178 -105.5q-23 0 -49 36.5t-32 45.5q15 15 22 32t7 61v92q0 63 -38 87q-12 0 -33.5 -7.5t-44.5 -24.5q-49 40 -92 41q-61 -12 -85 -50q6 3 16.5 4.5t32.5 1.5q70 0 115 -40t51 -110q0 -69 -39 -125.5t-137 -56.5q-70 0 -124 44.5t-70 131.5zM-616 2088q0 -29 21.5 -49 t51.5 -20q29 0 50 21.5t21 47.5q0 27 -21.5 48.5t-52.5 21.5q-30 0 -50 -21.5t-20 -48.5z" />
<glyph unicode="&#xe4b;" d="M-491 2112v158h152v151h163v-151h152v-158h-152v-148h-163v148h-152z" />
<glyph unicode="&#xe4c;" d="M-422 2128q0 113 82 162.5t192 49.5q81 0 124 95l122 -61q-40 -93 -87.5 -117t-117.5 -30q21 -23 35 -53.5t14 -64.5q0 -75 -54.5 -123.5t-115.5 -48.5q-90 0 -142 59.5t-52 131.5zM-312 2122q0 -34 21.5 -55.5t53.5 -21.5q27 0 51.5 21.5t24.5 45.5q0 34 -21 58.5 t-55 24.5q-29 -3 -52 -23t-23 -50z" />
<glyph unicode="&#xe4d;" d="M-448 1579q0 93 66.5 157.5t163.5 64.5q91 0 157.5 -64.5t66.5 -157.5t-66.5 -156.5t-157.5 -63.5q-97 0 -163.5 63.5t-66.5 156.5zM-309 1579q0 -37 24.5 -62t66.5 -25q37 0 62.5 25t25.5 62q0 40 -26 63.5t-62 23.5q-42 0 -66.5 -23.5t-24.5 -63.5z" />
<glyph unicode="&#xe4e;" d="M-593 1585q0 61 42 112.5t114 84.5q-17 24 -31 52.5t-12 62.5q6 94 72 134t145 54q90 15 205 3v-130q-57 6 -110.5 4.5t-92.5 -13.5t-57 -32t-9 -46q15 -15 54 -35t109 -20v-121q-157 0 -220.5 -38t-63.5 -72q0 -24 28.5 -39.5t70.5 -15.5q46 0 80.5 14t59.5 29 q27 18 45 43l91 -109q-5 -9 -23.5 -27.5t-52 -38t-83 -35t-117.5 -15.5q-116 0 -180 62.5t-64 131.5z" />
<glyph unicode="&#xe4f;" horiz-adv-x="951" d="M61 561q0 78 31.5 149t86.5 124.5t129 84t155 30.5q82 0 155 -30.5t128 -84t86.5 -124.5t31.5 -149q0 -81 -30 -150t-88 -130q-121 -115 -283 -114q-81 0 -155 30.5t-129 83t-86.5 126t-31.5 154.5zM173 561q0 -121 87 -203q82 -84 203 -86q116 0 202 86q87 82 87 203 q0 58 -23 109t-62 89.5t-91 60.5t-113 22q-72 0 -137.5 -33t-107.5 -97q-21 -30 -33 -69t-12 -82zM272 561q0 72 55 127t136 55q79 0 133.5 -52t54.5 -130q3 -70 -48 -129t-140 -59q-78 0 -134.5 56t-56.5 132z" />
<glyph unicode="&#xe50;" horiz-adv-x="1391" d="M127 469q0 107 49 195t126 151.5t174 100t197 36.5q104 0 198.5 -36.5t169.5 -100t120 -151.5t45 -195q0 -109 -45 -198t-120 -152.5t-170 -98.5t-198 -35q-100 0 -197 35t-174 98.5t-126 152.5t-49 198zM292 469q0 -72 34.5 -133t88.5 -104.5t123 -66.5t135 -23 q70 0 135 23t118.5 66.5t85 104.5t31.5 133q0 73 -31.5 132t-85 103.5t-118.5 69t-135 24.5q-66 0 -135 -24.5t-123 -69t-88.5 -103.5t-34.5 -132z" />
<glyph unicode="&#xe51;" horiz-adv-x="1391" d="M154 440q0 112 44.5 206t118.5 162t174 107.5t212 39.5q110 0 208 -45.5t170.5 -121.5t115.5 -176t43 -206q0 -91 -33 -183.5t-91 -172.5t-134 -142t-161 -96l-57 133q60 37 116.5 89.5t98.5 115t69.5 127.5t27.5 129q0 72 -30.5 142.5t-80.5 125t-117 89.5t-142 35 q-73 0 -142.5 -29t-124 -78t-88 -114t-33.5 -137q0 -52 15.5 -107t57.5 -96v29q0 91 66.5 153.5t158.5 62.5q97 0 160 -62t63 -154q0 -124 -83 -198t-204 -74q-84 0 -157.5 40.5t-126.5 104.5t-83.5 143t-30.5 158zM518 266q0 -40 29 -68t69 -28q37 0 68 27.5t31 68.5 q0 40 -30.5 69t-68.5 29q-40 0 -69 -29t-29 -69z" />
<glyph unicode="&#xe52;" horiz-adv-x="1391" d="M40 1021l87 139q104 -43 176.5 -140.5t72.5 -235.5v-532q0 -34 13.5 -52t29.5 -27q18 -12 38 -12h622v493q0 52 -21.5 95t-62.5 43q-34 0 -60 -9.5t-59 -48.5q-34 34 -61.5 43.5t-59.5 17.5q-64 -15 -107.5 -53.5t-43.5 -68.5q24 34 57 39.5t63 5.5q84 0 150 -66.5 t66 -157.5q0 -43 -20 -82t-53.5 -68t-74 -46t-86.5 -17q-61 0 -109 30.5t-81.5 76.5t-52 100.5t-18.5 102.5q0 72 29 134t71.5 108t92.5 75t93 35q37 0 77 -17t65 -47q15 30 54 47t85 17q125 0 178 -83.5t53 -214.5v-645h-780q-106 0 -180 62t-74 193v518q0 93 -39.5 159 t-129.5 89zM619 500q0 -40 27 -68.5t69 -28.5q37 0 67.5 27t30.5 70q0 40 -29 68t-69 28q-43 0 -69.5 -28t-26.5 -68z" />
<glyph unicode="&#xe53;" horiz-adv-x="1391" d="M136 472q0 70 15.5 140t42.5 122q115 215 352 215q58 0 124.5 -7.5t110.5 -41.5q43 26 102.5 39t102.5 13q136 0 204 -78.5t68 -182.5v-691h-170v691q0 43 -27.5 76.5t-74.5 33.5q-49 0 -84 -21.5t-35 -67.5v-582q0 -57 -48.5 -93.5t-118.5 -42.5v715q0 43 -52 66 t-102 23q-69 0 -113.5 -35t-74.5 -90q-24 -51 -33.5 -100t-9.5 -93v-44t3 -42q30 20 57.5 28.5t55.5 8.5q75 0 154 -61q37 -30 54.5 -75.5t17.5 -88.5q0 -85 -56 -142q-64 -70 -170 -70q-82 0 -142 55q-79 63 -116 184.5t-37 238.5zM336 209q0 -40 27.5 -68.5t70.5 -28.5 q37 0 66.5 27.5t29.5 69.5q0 40 -29 68.5t-67 28.5q-43 0 -70.5 -28.5t-27.5 -68.5z" />
<glyph unicode="&#xe54;" horiz-adv-x="1391" d="M127 454q0 98 36.5 184t100 151.5t151.5 105t192 39.5h312q90 0 145 57.5t55 174.5h166q-3 -191 -103 -288t-263 -97h-312q-67 0 -123 -26.5t-95.5 -72.5t-62.5 -105t-23 -123q0 -127 68.5 -212t195.5 -85h84q-40 24 -85 86.5t-45 150.5q0 115 76 198.5t201 83.5 q93 0 161 -62t68 -154q0 -46 -17.5 -85t-49.5 -68t-75 -46.5t-87 -17.5q-21 0 -42.5 6t-40.5 11q34 -37 67 -56t81.5 -29.5t112 -14t155.5 -3.5h127q-3 -79 -47.5 -118t-107.5 -39h-557q-103 0 -181.5 40.5t-132 106t-79.5 146t-26 161.5zM703 460q0 -43 29 -68t66 -25 q43 0 69.5 27.5t26.5 65.5q0 37 -26.5 66t-69.5 29q-37 0 -66 -27.5t-29 -67.5z" />
<glyph unicode="&#xe55;" horiz-adv-x="1391" d="M127 454q0 94 35 180.5t98.5 153.5t150 106.5t190.5 39.5q-9 27 -10 61q0 90 62 149t157 59q87 0 152 -59t65 -146q0 -12 -6 -37q98 57 98 205h166q-3 -191 -103 -288t-263 -97h-312q-67 0 -123 -26.5t-95.5 -72.5t-62.5 -105t-23 -123q0 -127 68.5 -212t195.5 -85h84 q-40 24 -85 89.5t-45 147.5q0 115 76 198.5t201 83.5q93 0 161 -62t68 -154q0 -46 -17.5 -85t-49.5 -68t-75 -46.5t-87 -17.5q-21 0 -42.5 6t-40.5 11q34 -37 67 -56t81.5 -29.5t112 -14t155.5 -3.5h127q-3 -79 -47.5 -118t-107.5 -39h-557q-103 0 -181.5 40.5t-132 106 t-79.5 146t-26 161.5zM703 460q0 -43 29 -68t66 -25q43 0 69.5 27.5t26.5 65.5q0 37 -26.5 66t-69.5 29q-37 0 -66 -27.5t-29 -67.5zM718 998q0 -40 27.5 -66t61.5 -26q43 0 66.5 27.5t23.5 64.5t-24.5 62t-65.5 25q-37 0 -63 -26t-26 -61zM1252 1137v6l6 -6h-6z" />
<glyph unicode="&#xe56;" horiz-adv-x="1391" d="M6 1073l124 101l252 -332q75 52 164.5 78t174.5 26q109 0 198.5 -36.5t153.5 -100t98.5 -153t34.5 -196.5q0 -103 -33 -189t-98.5 -149.5t-159.5 -100t-218 -36.5q-64 0 -129 21t-116.5 61t-85 95.5t-33.5 126.5q0 90 68 152t160 62q90 0 155 -63.5t65 -158.5 q0 -75 -57 -139q142 0 225.5 95.5t83.5 234.5q0 130 -81.5 225t-236.5 95q-93 0 -184 -59.5t-170 -139.5zM460 289q0 -40 30.5 -70.5t70.5 -30.5t68 29t28 64q0 43 -28 72t-68 29q-43 0 -72 -26.5t-29 -66.5z" />
<glyph unicode="&#xe57;" horiz-adv-x="1391" d="M112 509q0 79 26 158t71.5 142.5t106 104.5t132.5 41q49 0 84 -20t72 -47q29 24 70 48.5t81 24.5q127 0 190.5 -80t63.5 -190q0 -139 -1.5 -237.5t-4.5 -161.5q-3 -76 -8 -122q63 27 92 98t29 241q0 116 -3 191.5t-19 138.5q-15 61 -38 114t-93 105l116 108 q87 -69 124 -134.5t58 -155.5q15 -69 19.5 -154.5t4.5 -212.5q0 -151 -15 -237.5t-67 -153.5q-52 -66 -146 -92t-181 -26h-55q6 73 9 173q3 87 4.5 216t1.5 302q0 46 -17.5 75t-57.5 29q-76 0 -76 -101v-43q0 -55 -39 -91t-113 -36v170q0 46 -36.5 69.5t-77.5 23.5 q-40 0 -66 -31.5t-42 -78.5t-23 -98.5t-7 -87.5q0 -72 16 -124q37 30 67 41t70 11q90 0 155 -62t65 -151q0 -91 -63.5 -151.5t-159.5 -60.5q-85 0 -145.5 49.5t-100.5 127.5t-56.5 169t-16.5 169zM336 206q0 -40 32 -69.5t69 -29.5q40 0 68 28.5t28 64.5q0 43 -28 71.5 t-68 28.5q-43 0 -72 -27t-29 -67z" />
<glyph unicode="&#xe58;" horiz-adv-x="1391" d="M118 443q0 109 44 200t115.5 156t165 100t193.5 35h252q73 0 117 20.5t68 56t32 76.5t8 76h172q0 -60 -16.5 -130t-62.5 -127.5t-123 -95t-195 -37.5h-252q-66 0 -129.5 -22.5t-114 -67t-81 -105t-30.5 -135.5q0 -128 40 -194.5t101 -78.5l133 169q9 -15 43.5 -51t77 -74 t88.5 -67t78 -29q27 0 38 3t20 9q-55 18 -88.5 65.5t-33.5 125.5q0 46 18.5 84t50.5 68t73 46.5t86 16.5q46 0 88.5 -18t74 -46.5t50 -68t18.5 -85.5q0 -69 -34 -139q-34 -72 -121 -134.5t-200 -62.5q-115 0 -186 41t-126 98l-88 -121q-153 6 -258.5 117t-105.5 326z M912 321q0 -40 30 -69.5t70 -29.5t69 28t29 65q0 43 -29 72t-69 29q-43 0 -71.5 -27.5t-28.5 -67.5z" />
<glyph unicode="&#xe59;" horiz-adv-x="1391" d="M87 463q0 104 30.5 193.5t89.5 154.5t144.5 101.5t197.5 36.5q70 0 138 -23t120 -62q14 70 52 109t99 39q51 0 81.5 -28.5t57.5 -28.5q37 0 43 66.5t6 141.5h164q0 -72 -11 -137t-33.5 -112t-61 -75.5t-91.5 -28.5q-43 0 -73.5 27t-56.5 27q-15 0 -29 -21.5t-14 -87.5 q0 -43 14.5 -88t25.5 -71q26 -60 71.5 -160t91.5 -196q54 -116 112 -240h-72q-35 0 -69.5 18.5t-52.5 54.5q-66 127 -124 254t-124 269q-43 91 -118.5 146.5t-145.5 55.5q-55 0 -109.5 -23t-95.5 -65.5t-66.5 -104.5t-25.5 -142q0 -112 60.5 -202.5t147.5 -103.5 q-15 24 -28 59.5t-13 61.5q0 98 62 158.5t158 60.5q98 0 161.5 -60.5t63.5 -158.5q0 -57 -28.5 -108.5t-74.5 -92t-105.5 -65t-119.5 -24.5q-85 0 -166 30.5t-143.5 89.5t-101 148t-38.5 207zM543 278q0 -40 29 -68t67 -28q43 0 72 30.5t29 65.5q0 43 -29 73.5t-72 30.5 q-40 0 -68 -30.5t-28 -73.5z" />
<glyph unicode="&#xe5a;" horiz-adv-x="1323" d="M70 1000q0 88 63.5 148.5t155.5 60.5q87 0 150.5 -62t63.5 -147v-24t-6 -24q76 29 132 93.5t83 145.5q43 0 73 -17t48 -42t27.5 -54t9.5 -57v-1021h-167v882q-70 -55 -155 -85t-178 -30q-52 0 -105 14t-97 44t-71 74t-27 101zM200 1000q0 -34 26 -57.5t63 -23.5 q34 0 57.5 23.5t23.5 57.5q0 35 -23.5 60t-57.5 25q-37 0 -63 -24.5t-26 -60.5zM963 0v1191q46 0 76.5 -17t49 -42t26 -54t7.5 -57v-1021h-159z" />
<glyph unicode="&#xe5b;" horiz-adv-x="2406" d="M73 564q0 167 62 289t177 196q119 70 276 70q151 0 346 -110l-12 -199q-90 69 -176 101t-155 32q-146 0 -236 -107q-87 -115 -89 -293q0 -154 81 -254.5t249 -100.5q91 0 154 33.5t112.5 95.5t93.5 148.5t102 191.5l188 -200l169 200l161 -200l157 194 q98 -133 161.5 -207t124.5 -74q37 0 63.5 26t46.5 66.5t35.5 87t24.5 92.5h172q-24 -130 -64.5 -215t-89.5 -133t-100 -66.5t-100 -18.5q-70 0 -132 44t-145 153l-160 -197l-167 197l-157 -197l-161 158q-85 -173 -200 -264t-269 -91q-261 0 -402 142.5t-141 409.5z" />
<glyph unicode="&#x2000;" horiz-adv-x="1217" />
<glyph unicode="&#x2001;" horiz-adv-x="2435" />
<glyph unicode="&#x2002;" horiz-adv-x="1217" />
<glyph unicode="&#x2003;" horiz-adv-x="2435" />
<glyph unicode="&#x2004;" horiz-adv-x="811" />
<glyph unicode="&#x2005;" horiz-adv-x="608" />
<glyph unicode="&#x2006;" horiz-adv-x="405" />
<glyph unicode="&#x2007;" horiz-adv-x="405" />
<glyph unicode="&#x2008;" horiz-adv-x="304" />
<glyph unicode="&#x2009;" horiz-adv-x="487" />
<glyph unicode="&#x200a;" horiz-adv-x="135" />
<glyph unicode="&#x200c;" />
<glyph unicode="&#x200d;" />
<glyph unicode="&#x200e;" />
<glyph unicode="&#x200f;" />
<glyph unicode="&#x2010;" horiz-adv-x="926" d="M112 567v167h703v-167h-703z" />
<glyph unicode="&#x2011;" horiz-adv-x="926" d="M112 567v167h703v-167h-703z" />
<glyph unicode="&#x2012;" horiz-adv-x="926" d="M112 567v167h703v-167h-703z" />
<glyph unicode="&#x2013;" horiz-adv-x="1515" d="M107 434v159h1064v-159h-1064z" />
<glyph unicode="&#x2014;" horiz-adv-x="1554" d="M112 434v157h1285v-157h-1285z" />
<glyph unicode="&#x2018;" horiz-adv-x="599" d="M112 1291q0 57 15 109q27 98 81.5 150.5t112.5 77t101.5 29t46.5 4.5v-140q-9 0 -52.5 -4t-74.5 -36q-24 -23 -28.5 -46t-7.5 -38q58 0 103 -37.5t45 -107.5q0 -61 -39 -112.5t-118 -51.5q-106 0 -145.5 60.5t-39.5 142.5z" />
<glyph unicode="&#x2019;" horiz-adv-x="599" d="M112 1091v139q9 0 53 5t75 35q23 24 27.5 46.5l7.5 37.5q-57 0 -102.5 38.5t-45.5 108.5q0 60 39.5 111.5t119.5 51.5q106 0 144.5 -61t38.5 -142q0 -58 -15 -110q-26 -97 -81 -150t-112.5 -77t-101.5 -28.5t-47 -4.5z" />
<glyph unicode="&#x201a;" horiz-adv-x="639" d="M118 -124q9 0 53 4.5t75 35.5q23 23 27.5 46t7.5 38q-58 0 -103 37.5t-45 107.5q0 61 39.5 112.5t119.5 51.5q106 0 145.5 -60.5t39.5 -141.5q0 -58 -17 -110q-26 -98 -81 -150.5t-112.5 -77t-101.5 -28.5t-47 -4v139z" />
<glyph unicode="&#x201c;" horiz-adv-x="1059" d="M112 1291q0 57 15 109q27 98 81.5 150.5t112.5 77t101.5 29t46.5 4.5v-140q-9 0 -52.5 -4t-74.5 -36q-24 -23 -28.5 -46t-7.5 -38q58 0 103 -37.5t45 -107.5q0 -61 -39 -112.5t-118 -51.5q-106 0 -145.5 60.5t-39.5 142.5zM521 1291q0 57 15 109q26 98 81.5 150.5 t112.5 77t101.5 29t47.5 4.5v-140q-9 0 -53.5 -4t-73.5 -36q-24 -23 -29 -46t-8 -38q58 0 103.5 -37.5t45.5 -107.5q0 -61 -40 -112.5t-118 -51.5q-107 0 -146 60.5t-39 142.5z" />
<glyph unicode="&#x201d;" horiz-adv-x="1059" d="M182 1091v139q9 0 52.5 5t74.5 35q24 24 28.5 46.5l7.5 37.5q-58 0 -103 38.5t-45 108.5q0 60 39 111.5t119 51.5q107 0 146 -61t39 -142q0 -58 -16 -110q-27 -97 -81.5 -150t-112.5 -77t-101.5 -28.5t-46.5 -4.5zM591 1091v139q8 0 52.5 5t74.5 35q23 24 28.5 46.5 t8.5 37.5q-58 0 -103 38.5t-45 108.5q0 60 39 111.5t118 51.5q106 0 145.5 -61t39.5 -142q0 -58 -15 -110q-27 -97 -81.5 -150t-112.5 -77t-102.5 -28.5t-46.5 -4.5z" />
<glyph unicode="&#x201e;" horiz-adv-x="1059" d="M182 -124q9 0 52.5 4.5t74.5 35.5q24 23 28.5 46t7.5 38q-58 0 -103 37.5t-45 107.5q0 61 39 112.5t119 51.5q107 0 146 -60.5t39 -141.5q0 -58 -16 -110q-27 -98 -81.5 -150.5t-112.5 -77t-101.5 -28.5t-46.5 -4v139zM591 -124q8 0 52.5 4.5t74.5 35.5q23 23 28.5 46 t8.5 38q-58 0 -103 37.5t-45 107.5q0 61 39 112.5t118 51.5q106 0 145.5 -60.5t39.5 -141.5q0 -58 -15 -110q-27 -98 -81.5 -150.5t-112.5 -77t-102.5 -28.5t-46.5 -4v139z" />
<glyph unicode="&#x2020;" horiz-adv-x="1515" d="M0 827v173h379v388h197v-388h385v-173h-385v-1160h-197v1160h-379z" />
<glyph unicode="&#x2021;" horiz-adv-x="1515" d="M0 24v170h382v679h-382v170h382v357h197v-357h384v-170h-384v-679h384v-170h-384v-357h-197v357h-382z" />
<glyph unicode="&#x2022;" horiz-adv-x="1515" d="M49 694q0 98 68 169t172 71q106 0 173.5 -69.5t67.5 -170.5q0 -103 -68 -171.5t-173 -68.5q-107 0 -173.5 68.5t-66.5 171.5z" />
<glyph unicode="&#x2026;" horiz-adv-x="1515" d="M55 145q0 61 37.5 105.5t113.5 44.5q75 0 110.5 -44.5t35.5 -105.5q0 -58 -35.5 -101.5t-110.5 -43.5q-76 0 -113.5 43.5t-37.5 101.5zM585 145q0 61 35.5 105.5t110.5 44.5q76 0 112 -44.5t36 -105.5q0 -58 -36 -101.5t-112 -43.5q-75 0 -110.5 43.5t-35.5 101.5z M1103 145q0 61 35.5 105.5t110.5 44.5q76 0 112 -44.5t36 -105.5q0 -58 -36 -101.5t-112 -43.5q-75 0 -110.5 43.5t-35.5 101.5z" />
<glyph unicode="&#x202f;" horiz-adv-x="487" />
<glyph unicode="&#x2030;" horiz-adv-x="2151" d="M61 915v256q0 60 23 105.5t62 75.5t87 46.5t103 16.5t103.5 -16.5t86.5 -46.5t61 -76t23 -102v-259q0 -58 -23 -103t-61 -77t-86.5 -48.5t-103.5 -16.5t-103 16.5t-87 47t-62 77.5t-23 104zM203 925q0 -52 41.5 -79.5t91.5 -27.5q52 0 94 29t42 81q0 78 -1.5 120.5 t-1.5 67.5v44q0 52 -40.5 81t-92.5 29t-92.5 -29t-40.5 -84v-232zM358 -49q90 234 161.5 419t126 327t95 248.5t72.5 182.5q69 176 96 245q20 52 48.5 73t69.5 21q40 0 80 -12q-173 -452 -279.5 -732t-167.5 -434q-69 -182 -102 -265q-34 -85 -115 -85q-40 0 -85 12z M842 194v254q0 61 23 107t62 78t88 48t104 16t103 -16t85.5 -46.5t60.5 -76.5t23 -107v-254q0 -58 -23 -103t-60.5 -77t-85.5 -49t-103 -17t-104 17t-88 47.5t-62 75.5t-23 103zM986 206q0 -52 40.5 -80t92.5 -28t94 29.5t42 81.5q0 78 -1.5 119.5t-1.5 68.5v43 q0 54 -40.5 81.5t-92.5 27.5t-92.5 -27.5t-40.5 -84.5v-231zM1539 194v254q0 61 23 107t62.5 78t88 48t103.5 16t103 -16t87 -46.5t62 -76.5t23 -107v-254q0 -58 -23 -103t-62 -77t-87 -49t-103 -17t-103.5 17t-88 47.5t-62.5 75.5t-23 103zM1683 206q0 -52 40.5 -80 t92.5 -28t94 29.5t42 81.5q0 78 -1.5 119.5t-1.5 68.5v43q0 54 -40.5 81.5t-92.5 27.5t-92.5 -27.5t-40.5 -84.5v-231z" />
<glyph unicode="&#x2032;" horiz-adv-x="605" d="M179 1116l49 414l188 -32l-80 -315q-12 -46 -42.5 -59.5t-59.5 -13.5q-30 0 -55 6z" />
<glyph unicode="&#x2033;" horiz-adv-x="654" d="M87 1116l49 414l188 -32l-81 -315q-12 -46 -41 -59.5t-60 -13.5q-30 0 -55 6zM336 1116l46 414l191 -32l-82 -315q-11 -46 -40 -59.5t-60 -13.5q-30 0 -55 6z" />
<glyph unicode="&#x2039;" horiz-adv-x="1515" d="M24 524q57 87 109 164q43 64 85 123t60 83q55 64 130 64q37 0 92 -15l-291 -419l282 -434q-23 -6 -46 -11.5t-45 -5.5q-34 2 -65.5 16.5t-59.5 49.5q-15 21 -55.5 81.5t-83.5 131.5q-52 79 -112 172z" />
<glyph unicode="&#x203a;" horiz-adv-x="1515" d="M0 943q78 20 131.5 11.5t90.5 -60.5q21 -27 64.5 -87.5t89.5 -124.5q55 -75 112 -158q-63 -93 -118 -172q-46 -69 -88 -130t-57 -83q-43 -61 -97.5 -65t-118.5 16l283 434z" />
<glyph unicode="&#x2044;" horiz-adv-x="1059" d="M101 -18q217 452 347.5 722.5t199.5 417.5q82 170 116 237q34 69 89.5 79.5t129.5 -16.5q-206 -436 -337 -706.5t-203 -420.5q-85 -177 -122 -255q-34 -67 -86.5 -76.5t-133.5 18.5z" />
<glyph unicode="&#x205f;" horiz-adv-x="608" />
<glyph unicode="&#x20ac;" horiz-adv-x="1108" d="M0 480l73 165h75v104h-148l73 166h75v46q0 112 43 198.5t114 146t166.5 89.5t201.5 30q125 0 236.5 -48.5t193.5 -139.5l-120 -124q-61 72 -144.5 108.5t-165.5 36.5q-66 0 -129.5 -20t-114 -56t-79.5 -92.5t-29 -128.5v-9q0 -37 34 -37h496l-67 -166h-463v-67 q0 -37 34 -37h382l-64 -165h-352v-40q0 -73 30.5 -127.5t79.5 -92.5t114 -56.5t131 -18.5q85 0 168.5 38.5t144.5 111.5l118 -125q-84 -90 -196.5 -140.5t-234.5 -50.5q-103 0 -198.5 30.5t-168 89t-117 145t-44.5 196.5v40h-148z" />
<glyph unicode="&#x2113;" horiz-adv-x="703" d="M34 434q3 0 38 51t116 169v526q0 45 12.5 85t39.5 74q52 64 142 64q106 0 167 -69.5t61 -185.5q0 -63 -24.5 -134t-61 -142t-80.5 -139t-83 -126v-364q0 -37 15 -63t40 -26q40 0 102 74l133 -107q-55 -60 -117 -96.5t-118 -36.5q-110 0 -169 77t-59 178v121 q-24 -24 -38 -39.5t-20 -21.5zM361 922q76 139 76 226q0 88 -55 89q-21 0 -21 -57v-258z" />
<glyph unicode="&#x2122;" horiz-adv-x="1571" d="M30 1288v130h658v-130h-254v-663h-153v663h-251zM752 625v793h209l193 -597q43 148 90 300t89 297h209v-793h-139v596q-46 -145 -94 -299.5t-91 -296.5h-130l-194 605v-605h-142z" />
<glyph unicode="&#x2126;" horiz-adv-x="1617" d="M112 691q0 151 47 281.5t135 226t212 148.5t278 53q145 0 269 -51t215 -143.5t140.5 -223.5t49.5 -291q0 -81 -26 -157.5t-65 -143t-88 -122.5t-96 -101h193v-167h-476l-36 164q3 0 24 10.5t52.5 29t70 45t74.5 60.5q93 88 146.5 187.5t53.5 194.5q0 252 -138 397.5 t-363 145.5q-228 0 -363 -145.5t-135 -397.5q0 -118 63.5 -216.5t140.5 -166.5t142 -106t68 -38l-35 -164h-474v167h194l-21 21q-252 234 -252 503z" />
<glyph unicode="&#x212e;" horiz-adv-x="1272" d="M75 443v520q0 113 43 199.5t115.5 146t168 89.5t202.5 30q106 0 199.5 -30t164.5 -89.5t114 -146t43 -199.5v-48q0 -148 -82 -213.5t-210 -65.5h-584v-193q0 -73 30 -128t79.5 -92.5t114 -56t131.5 -18.5q66 0 130 21.5t112 63.5t77 106t29 146h173q0 -118 -43 -212 t-115.5 -159t-166.5 -98.5t-196 -33.5q-104 0 -199.5 30.5t-168 89.5t-117 145t-44.5 196zM249 851q0 -46 46 -44h535q122 0 122 105v60q0 55 -23 107t-68.5 92.5t-110.5 65t-149 24.5q-67 0 -131 -20t-112.5 -56.5t-78.5 -92.5t-30 -129v-112z" />
<glyph unicode="&#x2202;" horiz-adv-x="1235" d="M112 480q0 103 38 190.5t104.5 151t154.5 100t192 36.5q130 0 232 -52q-69 145 -210 239.5t-360 94.5v166q197 0 350.5 -63.5t257.5 -178.5t160.5 -275.5t56.5 -358.5q0 -157 -46.5 -260t-118.5 -162t-158 -82t-164 -23q-104 0 -193.5 36t-156 100t-103 152t-36.5 189z M286 480q0 -134 88.5 -222t226.5 -88q69 0 126 24t98.5 66.5t65.5 99t24 120.5q0 133 -90.5 222.5t-223.5 89.5t-224 -89.5t-91 -222.5z" />
<glyph unicode="&#x2206;" horiz-adv-x="1238" d="M112 101l418 1305h146l415 -1305q-6 -27 -18 -49q-12 -18 -33.5 -35t-59.5 -17h-749q-43 0 -66 17t-35 35q-12 21 -18 49zM315 167h576l-287 912z" />
<glyph unicode="&#x220f;" horiz-adv-x="1244" d="M112 1328v78h985v-81q0 -21 -7.5 -35t-16.5 -23t-16.5 -21t-7.5 -34v-1345h-173v1373h-543v-1373h-176v1342q0 27 -7.5 39.5t-15 21.5t-15 20t-7.5 38z" />
<glyph unicode="&#x2211;" horiz-adv-x="1253" d="M112 1246v160h995v-166h-771l425 -561l-425 -615h771v-168h-992v147l446 627z" />
<glyph unicode="&#x2212;" horiz-adv-x="908" d="M64 567v167h754v-167h-754z" />
<glyph unicode="&#x221a;" horiz-adv-x="1314" d="M40 737v169h342l191 -594l436 1279l162 -61l-595 -1718l-295 853q-15 48 -26.5 60t-45.5 12h-169z" />
<glyph unicode="&#x221e;" horiz-adv-x="1478" d="M112 567q0 63 18 134.5t58 133.5t106.5 101t159.5 39q79 0 147.5 -34.5t113.5 -89.5q46 58 112.5 91t147.5 33q98 0 164.5 -40.5t107.5 -101t58 -132t17 -134.5q0 -61 -17 -132t-56.5 -133t-106 -103.5t-167.5 -41.5q-167 0 -257 118q-101 -118 -264 -118 q-97 0 -163 41.5t-106 102t-56.5 131.5t-16.5 135zM286 567q0 -127 43.5 -183.5t124.5 -56.5q174 0 174 240q0 121 -46 182t-128 61q-54 0 -87.5 -26t-51.5 -62.5t-23.5 -78.5t-5.5 -76zM807 567q0 -98 33 -169t135 -71q104 0 138.5 71t34.5 169q0 115 -45.5 179t-127.5 64 q-78 0 -123 -58t-45 -185z" />
<glyph unicode="&#x222b;" horiz-adv-x="796" d="M40 -118q84 0 140.5 10t91 37.5t49.5 73.5t15 112v1025q0 182 117 277.5t325 95.5v-168q-156 0 -209.5 -46.5t-53.5 -158.5v-1025q0 -112 -33.5 -187.5t-95.5 -123t-150 -69t-196 -21.5v168z" />
<glyph unicode="&#x2248;" horiz-adv-x="1212" d="M101 303q23 46 52 90t65.5 78.5t81.5 56t103 21.5q45 0 100 -18.5t108.5 -41.5t101.5 -40.5t88 -17.5q26 0 49 17.5t44 39t41 40t45 18.5q34 0 63 -25l60 -41q-52 -94 -127.5 -161t-174.5 -67q-49 0 -102.5 18.5t-103 39t-98.5 39t-94 18.5q-30 0 -53 -18.5t-43.5 -40.5 t-40.5 -42t-44 -20q-30 0 -65.5 17.5t-55.5 39.5zM101 679q23 46 52 90t65.5 78.5t81.5 56t103 21.5q45 0 98.5 -18.5t106 -41.5t103 -40.5t90.5 -17.5q26 0 49 17.5t44 39t41 40t45 18.5q34 0 63 -25l60 -42q-52 -93 -127.5 -160t-174.5 -67q-49 0 -102.5 18.5t-103 39 t-98.5 39t-94 18.5q-30 0 -53 -18.5t-43.5 -41.5t-40.5 -42t-44 -19q-30 0 -65.5 17.5t-55.5 39.5z" />
<glyph unicode="&#x2260;" horiz-adv-x="908" d="M64 451v168h248l49 84h-297v167h396l101 166l145 -87l-49 -79h161v-167h-257l-49 -84h306v-168h-399l-110 -188l-155 89l61 99h-151z" />
<glyph unicode="&#x2264;" horiz-adv-x="1272" d="M115 0v167h1039v-167h-1039zM115 851l1039 638v-67q0 -40 -1.5 -63t-10 -40.5t-28.5 -37.5t-56 -47l-633 -379l654 -355q27 -20 44 -36t22.5 -32t7 -40.5t1.5 -61.5v-64z" />
<glyph unicode="&#x2265;" horiz-adv-x="1272" d="M112 0v167h1039v-167h-1039zM112 266v64q0 37 1.5 61.5t7.5 40.5t23 32t44 36l654 355l-633 379q-37 27 -56.5 47t-28.5 37.5t-10.5 40.5t-1.5 63v67l1039 -638z" />
<glyph unicode="&#x25ca;" horiz-adv-x="1363" d="M104 654l556 685l558 -685l-558 -681zM324 657l336 -414l340 411l-340 416z" />
<glyph unicode="&#x25cc;" horiz-adv-x="1508" d="M84 715q0 84 92 86q84 -2 84 -86q0 -87 -84 -87q-90 0 -92 87zM130 494q0 91 85 91q88 0 88 -91q0 -84 -88 -86q-85 0 -85 86zM130 934q0 84 85 84q88 0 88 -84q0 -87 -85 -89q-88 0 -88 89zM255 306q0 88 84 88q89 0 89 -88q0 -87 -89 -88q-84 0 -84 88zM255 1119 q0 87 84 87q89 0 89 -87q0 -82 -89 -83q-84 0 -84 83zM443 182q0 87 84 87q86 0 86 -81q0 -87 -86 -87q-84 0 -84 81zM443 1243q0 88 84 88q86 0 86 -88q0 -84 -86 -86q-84 0 -84 86zM660 142q0 84 83 86q90 -2 90 -86q0 -87 -90 -87q-81 0 -83 87zM660 1288q0 87 83 88 q90 -1 90 -88q0 -88 -90 -88q-81 0 -83 88zM879 1243q0 88 90 88q80 0 80 -88q0 -84 -80 -86q-90 0 -90 86zM882 182q0 87 87 87q80 0 80 -87q0 -81 -80 -81q-87 0 -87 81zM1064 1119q0 87 87 87q86 0 86 -87q0 -82 -86 -83q-87 0 -87 83zM1067 306q0 88 84 88q86 0 86 -88 q0 -87 -86 -88q-84 0 -84 88zM1188 494q0 91 85 91q92 0 92 -91q0 -84 -92 -86q-85 0 -85 86zM1188 934q0 84 88 84q89 0 89 -84q0 -87 -92 -89q-85 0 -85 89zM1237 715q0 84 88 86q81 -2 81 -86q0 -87 -81 -87q-88 0 -88 87z" />
<glyph unicode="&#x25fc;" horiz-adv-x="1059" d="M0 0v1061h1061v-1061h-1061z" />
<glyph unicode="&#xf700;" horiz-adv-x="1148" d="M142 864q0 64 21.5 118t59 97t92.5 67.5t119 24.5q106 0 192 -20t166 -20q23 0 55 21.5t56 50.5l124 -103q-52 -55 -115.5 -91.5t-119.5 -36.5q-88 0 -176.5 20t-172.5 20q-98 0 -122 -81q90 -12 176 -25q73 -9 152 -19.5t132 -19.5q180 -23 180 -202v-489 q0 -58 -35 -106.5t-119 -66.5q-27 67 -61 121.5t-61 97.5q-34 49 -63 84q-49 -29 -113 -31q-87 0 -149.5 58t-62.5 144q0 81 62.5 141.5t146.5 60.5q70 0 124.5 -37.5t78.5 -98.5q15 -34 32 -77.5t32 -83.5q17 -46 37 -93l-15 376q0 29 -8.5 41t-31.5 18q-142 17 -304 40 t-303 43q-3 14 -4.5 27.5t-1.5 29.5zM428 477q0 -30 23.5 -53.5t57.5 -23.5t56.5 21.5t22.5 55.5t-24 54.5t-55 20.5q-34 0 -57.5 -21.5t-23.5 -53.5z" />
<glyph unicode="&#xf701;" d="M-1279 1385q3 176 115 280.5t273 104.5q209 0 320 -124.5t137 -323.5q-173 43 -306 59t-278 16q-58 0 -130.5 -3t-130.5 -9zM-1061 1527q0 -14 22 -14q104 5 211 -8t203 -38q-34 75 -95 127t-168 52q-24 0 -54 -9t-56 -24.5t-44.5 -36.5t-18.5 -49z" />
<glyph unicode="&#xf702;" d="M-1279 1385q3 176 115 280.5t273 104.5q93 0 154 -23t121 -75v177h159v-397q9 -34 13 -60.5t10 -69.5q-173 43 -306 59t-278 16q-58 0 -130.5 -3t-130.5 -9zM-1061 1527q0 -14 22 -14q15 0 28 1.5t28 1.5q101 0 187.5 -12t170.5 -37q-34 75 -95 127t-168 52q-24 0 -54 -9 t-56 -24.5t-44.5 -36.5t-18.5 -49z" />
<glyph unicode="&#xf703;" d="M-1316 1385q6 176 118.5 280.5t272.5 104.5q52 0 79.5 -3t67.5 -18q14 55 66 90t116 35q78 0 129 -53.5t51 -125.5q0 -52 -31 -98t-80 -70q30 -51 40 -95t21 -107q-173 43 -306.5 57.5t-282.5 14.5q-55 0 -127.5 -3t-133.5 -9zM-1094 1527q0 -14 21 -14q104 5 211 -8 t205 -38q-34 75 -96 127t-169 52q-24 0 -54 -9t-56 -24.5t-44 -36.5t-18 -49zM-673 1701q0 -35 20 -54t49 -19q30 0 50.5 18t20.5 52q0 23 -18.5 43t-52.5 20q-26 0 -46 -18.5t-23 -41.5z" />
<glyph unicode="&#xf704;" d="M-1279 1385q3 176 115 282t273 106q34 0 53.5 -3t50.5 -12v79h133v-139l38 -29v168h153v-370q12 -43 17.5 -72.5t11.5 -72.5q-173 43 -306 59t-278 16q-58 0 -130.5 -3t-130.5 -9zM-1061 1527q0 -14 22 -14h56q104 0 189 -12t169 -34q-34 75 -95 127t-168 52 q-24 0 -54 -9t-56 -24.5t-44.5 -36.5t-18.5 -49z" />
<glyph unicode="&#xf705;" d="M-588 1362v448h160v-448h-160z" />
<glyph unicode="&#xf706;" d="M-1094 1664q0 72 54 127t143 55q93 0 148 -53t55 -141q0 -94 -43 -163q87 34 146.5 123t96.5 189l145 -31q-70 -228 -198.5 -342.5t-346.5 -114.5h-26t-29 3q-14 3 -34 3l3 106q34 0 72 13.5t44 47.5q-6 0 -15 -5q-9 -2 -40 -2q-70 0 -122.5 48.5t-52.5 136.5zM-983 1666 q0 -37 24.5 -59t58.5 -22t56.5 24.5t22.5 56.5q0 35 -26 57.5t-56 22.5q-34 0 -57 -22.5t-23 -57.5z" />
<glyph unicode="&#xf707;" d="M-1143 1481q-14 88 8 154t62 111t86.5 68t80.5 23q24 -6 53 -24.5t52 -33.5q18 15 42.5 33.5t55.5 24.5q98 -24 132.5 -89t34.5 -142v-85q0 -14 -3.5 -28t-6.5 -23q-3 -12 -6 -18q15 9 27.5 33.5t20 56t12 65t4.5 57.5q0 34 -9 74.5t-27 83.5l145 38q6 -34 15 -66 q15 -67 15 -133q0 -61 -15 -120.5t-47 -107.5t-80.5 -76.5t-115.5 -28.5q-23 0 -52 33t-32 45q18 12 24.5 23t6.5 63v117q0 43 -15.5 67.5t-27.5 35.5q-40 -11 -95 -54q-29 23 -62.5 37t-54.5 20q-40 -6 -73 -31.5t-48 -64.5q12 12 27 24q29 21 66 21q79 0 132 -45.5 t53 -123.5q0 -67 -42 -124.5t-149 -57.5q-75 0 -127 46.5t-67 121.5zM-1021 1495q0 -37 24.5 -58.5t56.5 -21.5q34 0 55 23t21 57q0 29 -24 50.5t-55 21.5q-37 0 -57.5 -21.5t-20.5 -50.5z" />
<glyph unicode="&#xf708;" d="M-839 1492v157h166v161h167v-161h167v-157h-167v-161h-167v161h-166z" />
<glyph unicode="&#xf709;" d="M-858 1489q0 98 67 160.5t169 83.5q67 15 99 26t32 42q0 30 -6 45l130 22q12 -37 12 -74q0 -70 -51 -115t-146 -63q43 -9 67.5 -53.5t24.5 -83.5q0 -73 -55 -133.5t-145 -60.5q-87 0 -142.5 59t-55.5 145zM-734 1473q0 -34 24.5 -55t55.5 -21q34 0 54.5 23t20.5 56 q0 34 -25.5 51.5t-49.5 17.5q-34 0 -57 -23t-23 -49z" />
<glyph unicode="&#xf70a;" d="M-300 1362v448h161v-448h-161z" />
<glyph unicode="&#xf70b;" d="M-764 1667q0 72 54 127t143 55q93 0 148 -53t55 -141q0 -94 -43 -163q87 34 146.5 123t96.5 189l145 -31q-70 -228 -198.5 -342.5t-346.5 -114.5h-26t-29 3q-14 3 -34 3l3 106q34 0 72 13.5t44 47.5q-6 0 -15 -5q-9 -2 -40 -2q-70 0 -122.5 48.5t-52.5 136.5zM-653 1669 q0 -37 24.5 -59t58.5 -22t56.5 24.5t22.5 56.5q0 35 -26 57.5t-56 22.5q-34 0 -57 -22.5t-23 -57.5z" />
<glyph unicode="&#xf70c;" d="M-964 1481q-14 88 8 154t62 111t86.5 68t80.5 23q24 -6 53 -24.5t52 -33.5q18 15 42.5 33.5t55.5 24.5q98 -24 132.5 -89t34.5 -142v-85q0 -14 -3.5 -28t-6.5 -23q-3 -12 -6 -18q15 9 27.5 33.5t20 56t12 65t4.5 57.5q0 34 -9 74.5t-27 83.5l145 38q6 -34 15 -66 q15 -67 15 -133q0 -61 -15 -120.5t-47 -107.5t-80.5 -76.5t-115.5 -28.5q-23 0 -52 33t-32 45q18 12 24.5 23t6.5 63v117q0 43 -15.5 67.5t-27.5 35.5q-40 -11 -95 -54q-29 23 -62.5 37t-54.5 20q-40 -6 -73 -31.5t-48 -64.5q12 12 27 24q29 21 66 21q79 0 132 -45.5 t53 -123.5q0 -67 -42 -124.5t-149 -57.5q-75 0 -127 46.5t-67 121.5zM-842 1495q0 -37 24.5 -58.5t56.5 -21.5q34 0 55 23t21 57q0 29 -24 50.5t-55 21.5q-37 0 -57.5 -21.5t-20.5 -50.5z" />
<glyph unicode="&#xf70d;" d="M-480 1492v157h168v161h161v-161h169v-157h-169v-161h-161v161h-168z" />
<glyph unicode="&#xf70e;" d="M-552 1489q0 98 67 160.5t169 83.5q67 15 99 26t32 42q0 30 -6 45l130 22q12 -37 12 -74q0 -70 -51 -115t-146 -63q43 -9 67.5 -53.5t24.5 -83.5q0 -73 -55 -133.5t-145 -60.5q-87 0 -142.5 59t-55.5 145zM-428 1473q0 -34 24.5 -55t55.5 -21q34 0 54.5 23t20.5 56 q0 34 -25.5 51.5t-49.5 17.5q-34 0 -57 -23t-23 -49z" />
<glyph unicode="&#xf70f;" horiz-adv-x="1684" d="M104 778l20 95q46 154 159.5 246.5t286.5 92.5q191 0 306.5 -100t115.5 -291v-660h318q21 0 21 18v1015h170v-1015q0 -78 -50.5 -128.5t-131.5 -50.5h-495v821q0 116 -68 175t-186 59q-79 0 -141 -40t-105 -106q30 -3 59.5 -10.5t51.5 -22.5t37.5 -40.5t18.5 -68.5 q-60 -18 -87.5 -60t-27.5 -88v-222q15 3 26 3h20q90 0 152 -59.5t62 -146.5t-62 -148t-152 -61q-93 0 -156 65t-63 153v416q0 34 9.5 71.5t30.5 70.5q-37 6 -75 10.5t-64 6.5zM342 194q0 -30 23 -54.5t57 -24.5t57.5 23t23.5 56q0 34 -23.5 56t-57.5 22q-30 0 -55 -22 t-25 -56z" />
<glyph unicode="&#xf710;" d="M-946 1603q0 87 65.5 148.5t149.5 61.5q87 0 153 -60.5t66 -149.5q0 -15 -1.5 -27t-4.5 -26q110 20 226 75t205 133l108 -115q-64 -58 -141 -106t-162 -85t-170 -56.5t-164 -19.5q-54 0 -111 10.5t-106 36.5t-81 69.5t-32 110.5zM-813 1603q0 -34 24.5 -58t57.5 -24 q37 0 63 24.5t26 57.5q0 34 -26 58.5t-63 24.5q-34 0 -58 -24.5t-24 -58.5z" />
<glyph unicode="&#xf711;" d="M-873 1579q0 93 66.5 157.5t164.5 64.5q93 0 158 -64.5t65 -157.5t-65 -156.5t-158 -63.5q-98 0 -164.5 63.5t-66.5 156.5zM-740 1579q0 -40 27.5 -66.5t70.5 -26.5q40 0 66.5 26.5t26.5 66.5q0 43 -27.5 68t-65.5 25q-43 0 -70.5 -25t-27.5 -68z" />
<glyph unicode="&#xf712;" d="M-1201 1570q0 125 92.5 188.5t228.5 63.5l197 -12q40 0 69 29t29 79h157q0 -115 -74 -172t-181 -57l-197 12q-69 0 -124 -35t-55 -105q0 -43 17 -70t50 -27l70 109q34 -23 68.5 -46t77.5 -48q-12 8 -15.5 18t-3.5 16q0 60 53 98t117 38q73 0 124.5 -48t51.5 -122 q0 -67 -54.5 -113.5t-133.5 -46.5q-75 0 -128.5 33t-116.5 70l-58 -94q-136 0 -198.5 69.5t-62.5 172.5zM-695 1479q0 -27 21.5 -47t48.5 -20q34 0 52 20t18 47q0 34 -19.5 52.5t-50.5 18.5q-30 0 -50 -18.5t-20 -52.5z" />
<glyph unicode="&#xf713;" d="M-524 1946v431h166v-431h-166z" />
<glyph unicode="&#xf714;" d="M-674 2256q0 69 59.5 117t137.5 48q87 0 134.5 -57t47.5 -140q0 -34 -12 -74.5t-31 -70.5q46 15 79.5 47t59 72.5t45 91t35.5 99.5l145 -43q-63 -206 -181.5 -309t-327.5 -103h-38t-40 3v94q17 5 40 19.5t38 28.5q-90 0 -140.5 50.5t-50.5 126.5zM-558 2250q0 -30 22 -52 t56 -22q24 0 45.5 21.5t21.5 52.5q0 34 -21.5 53t-45.5 19q-34 0 -56 -19t-22 -53z" />
<glyph unicode="&#xf715;" d="M-952 2082q-11 76 13 133.5t62 97t81.5 59.5t71.5 20q21 -3 48.5 -18.5t45.5 -30.5q14 15 43 30.5t51 18.5q49 -18 77 -41t43.5 -56.5t18.5 -80.5t3 -117q15 12 25.5 56.5t10.5 65.5q0 23 -6 69t-27 86l136 32q15 -48 24 -98t9 -92q0 -110 -61.5 -191.5t-176.5 -106.5 q-12 0 -26 11t-26 26t-21.5 29t-12.5 17q18 15 26 38t8 67v80q0 61 -46 84q-12 0 -30.5 -6t-39.5 -25q-23 18 -43 29t-47 14q-23 -6 -43 -20.5t-37 -31.5q6 3 17 4.5t29 1.5q70 0 115.5 -39t51.5 -109q0 -69 -37.5 -125.5t-135.5 -56.5q-72 0 -125.5 44.5t-68.5 131.5z M-827 2076q0 -29 21.5 -49t50.5 -20q27 0 48.5 20.5t21.5 48.5q0 27 -23 48.5t-50 21.5q-29 0 -49 -21.5t-20 -48.5z" />
<glyph unicode="&#xf716;" d="M-703 2071v162h167v156h166v-156h164v-162h-164v-156h-166v156h-167z" />
<glyph unicode="&#xf717;" d="M-708 2128q0 113 82 162.5t192 49.5q81 0 124 95l122 -61q-40 -93 -87.5 -117t-117.5 -30q21 -23 35 -53.5t14 -64.5q0 -75 -54.5 -123.5t-115.5 -48.5q-90 0 -142 59.5t-52 131.5zM-598 2122q0 -34 21.5 -55.5t53.5 -21.5q27 0 51.5 21.5t24.5 45.5q0 34 -21 58.5 t-55 24.5q-29 -3 -52 -23t-23 -50z" />
<glyph unicode="&#xf718;" d="M-555 -767q0 79 57.5 130.5t136.5 51.5q75 0 131.5 -54.5t56.5 -124.5v-352h-157v167h-31q-79 0 -136.5 52t-57.5 130zM-431 -767q0 -66 70 -66q27 0 45.5 17.5t18.5 48.5q0 30 -18 48.5t-46 18.5q-34 0 -52 -20t-18 -47z" />
<glyph unicode="&#xf719;" d="M-795 -770q0 73 55 127.5t133 54.5q79 0 133.5 -51.5t54.5 -130.5v-199h61q24 0 25 23v341h157v-350q0 -72 -45 -118t-118 -46h-237v167h-31q-78 0 -133 52t-55 130zM-673 -770q0 -66 66 -66q27 0 49 17.5t22 48.5q0 27 -21.5 47t-49.5 20q-29 0 -47.5 -20t-18.5 -47z " />
<glyph unicode="&#xf71a;" d="M-403 -749q0 61 42.5 99.5t100.5 38.5q63 0 104 -38.5t41 -99.5q0 -60 -41 -99.5t-104 -39.5q-61 0 -102 39.5t-41 99.5z" />
<glyph unicode="&#xf71b;" horiz-adv-x="1386" d="M73 191q0 84 63.5 146.5t155.5 62.5q14 0 44 -6v222q0 75 34 142q-34 6 -72 10.5t-61 7.5l21 97q20 79 66 141t109.5 105.5t141.5 68t162 24.5q87 0 171 -26t150.5 -75.5t107 -122.5t40.5 -170v-891q0 -167 -108.5 -278.5t-282.5 -148.5l-161 118q-24 -55 -77 -86.5 t-120 -31.5q-87 0 -149 60.5t-62 147.5q0 85 62 148t149 63q15 0 24.5 -1.5t21.5 -4.5v78h170v-176l191 -136q79 29 125.5 94.5t46.5 153.5v891q0 61 -25 106t-68 74t-95.5 43t-107.5 14q-81 0 -159 -40t-121 -106q55 -6 105.5 -33.5t56.5 -111.5q-61 -18 -88.5 -61 t-27.5 -87v-413q0 -88 -59 -154.5t-155 -66.5q-91 0 -155 61t-64 148zM209 191q0 -30 24.5 -54.5t58.5 -24.5t54.5 24.5t20.5 54.5q0 34 -21.5 56t-53.5 22q-34 0 -58.5 -22t-24.5 -56zM376 -292q0 -34 23.5 -57.5t57.5 -23.5t56.5 23t22.5 55q0 35 -22.5 59t-56.5 24 t-57.5 -24t-23.5 -56z" />
<glyph unicode="&#xf71c;" horiz-adv-x="1386" d="M73 191q0 84 63.5 146.5t155.5 62.5q14 0 44 -6v222q0 75 34 142q-34 6 -72 10.5t-61 7.5l21 97q20 79 66 141t109.5 105.5t141.5 68t162 24.5q87 0 171 -26t150.5 -75.5t107 -122.5t40.5 -170v-911q0 -82 -7.5 -142t-33 -105t-77.5 -84t-139 -82l-113 112l-121 -112 l-85 87q-34 -43 -77.5 -62t-95.5 -19q-87 0 -149 60.5t-62 147.5q0 85 62 148t149 63q15 0 24.5 -1.5t21.5 -4.5v78h170v-206q12 -11 22.5 -24t22.5 -27q12 -15 25 -31l96 85l127 -103q52 34 61 89.5t9 118.5v925q0 61 -26.5 106t-69.5 74t-94 43t-103 14q-84 0 -162 -37.5 t-121 -108.5q55 -6 105.5 -33.5t56.5 -111.5q-61 -18 -88.5 -61t-27.5 -87v-413q0 -88 -59 -154.5t-155 -66.5q-91 0 -155 61t-64 148zM209 191q0 -30 24.5 -54.5t58.5 -24.5t54.5 24.5t20.5 54.5q0 34 -21.5 56t-53.5 22q-34 0 -58.5 -22t-24.5 -56zM376 -292 q0 -34 23.5 -57.5t57.5 -23.5t56.5 23t22.5 55q0 35 -22.5 59t-56.5 24t-57.5 -24t-23.5 -56z" />
<glyph unicode="&#xf71d;" horiz-adv-x="1502" d="M78 1003q0 88 62.5 148.5t154.5 60.5q87 0 149 -59t62 -147l-9 -760q6 17 18 35q9 15 18.5 35t21.5 36l212 372h112l209 -369q12 -15 21.5 -35t18.5 -34q12 -18 18 -40l-9 564q0 20 -18 20h-34q-87 0 -149.5 61t-62.5 148t63.5 147t151.5 60q97 0 156.5 -66.5 t59.5 -158.5v-21q15 6 29.5 13.5t31.5 32.5l108 -85q-24 -37 -73 -68.5t-96 -37.5v-679q0 -27 -8 -58t-26 -57.5t-48.5 -43.5t-75.5 -17l-322 540l-324 -543q-84 9 -122.5 65t-38.5 114v625q-15 -3 -44 -3q-91 0 -154 58.5t-63 146.5zM212 1003q0 -29 25.5 -53.5t57.5 -24.5 q34 0 56 25t22 56q0 30 -24.5 54.5t-53.5 24.5q-35 0 -59 -24t-24 -58zM1009 1039q0 -30 24.5 -54t54.5 -24q34 0 60 22.5t26 55.5q0 34 -26 57t-60 23q-30 0 -54.5 -23t-24.5 -57z" />
<glyph horiz-adv-x="1053" d="M-870 1579q0 93 66.5 157.5t164.5 64.5q93 0 158 -64.5t65 -157.5t-65 -156.5t-158 -63.5q-98 0 -164.5 63.5t-66.5 156.5zM-737 1579q0 -40 29 -66.5t69 -26.5t66.5 26.5t26.5 66.5q0 43 -27.5 68t-65.5 25q-40 0 -69 -25t-29 -68zM21 670v148q0 94 33 167t92.5 124 t138.5 78.5t172 27.5q91 0 171.5 -27.5t139.5 -77t92.5 -124t33.5 -165.5v-821h-173v821q0 116 -75.5 176.5t-188.5 60.5q-115 0 -192 -62t-77 -178v-148h-167z" />
<glyph d="M-992 1585q0 61 41.5 112.5t117.5 84.5q-21 24 -35 52.5t-11 62.5q6 94 71 134t143 54q91 15 208 3v-130q-58 6 -111.5 4.5t-92.5 -13.5t-57.5 -32t-9.5 -46q15 -15 55 -35t109 -20v-121q-157 0 -219 -38t-62 -72q0 -24 29 -39.5t67 -15.5q46 0 81 14t58 29q27 18 46 43 l92 -109q-6 -9 -24.5 -27.5t-52 -38t-83.5 -35t-117 -15.5q-115 0 -179 62.5t-64 131.5z" />
</font>
</defs>
</svg>
