<?xml version="1.0" standalone="no"?>
<!DOCTYPE svg PUBLIC "-//W3C//DTD SVG 1.1//EN" "http://www.w3.org/Graphics/SVG/1.1/DTD/svg11.dtd" >
<svg xmlns="http://www.w3.org/2000/svg">
<metadata></metadata>
<defs>
<font id="tepc_cmprasanmitregular" horiz-adv-x="0" >
<font-face units-per-em="2048" ascent="1638" descent="-410" />
<missing-glyph horiz-adv-x="1014" />
<glyph unicode="&#xe4f;&#x22;" horiz-adv-x="1470" d="M196 522q0 224 158 382t382 158t382.5 -158t158.5 -382q0 -225 -158.5 -383t-382.5 -158q-221 0 -380.5 159t-159.5 382zM277 522q0 -190 135 -325t324 -135t324.5 135t135.5 325q0 189 -135.5 323t-324.5 134t-324 -135t-135 -322zM413 522q0 133 95 228.5t228 95.5 q134 0 230 -95.5t96 -228.5q0 -134 -96 -228.5t-230 -94.5q-133 0 -228 94.5t-95 228.5zM494 522q0 -101 71 -171.5t171 -70.5t171.5 70t71.5 172q0 100 -71.5 171.5t-171.5 71.5t-171 -71.5t-71 -171.5zM599 1169v279h75v-279h-75zM805 1169v279h74v-279h-74z" />
<glyph unicode="&#xe24;&#xe32;" horiz-adv-x="2014" d="M156 1013q62 94 153.5 144.5t175.5 76.5q100 28 208 33q137 0 244.5 -44.5t165.5 -128.5q53 81 137 127t208 46q196 0 292 -107t96 -265v-1413h-130v1420q0 124 -70 190.5t-188 66.5q-111 0 -183.5 -66.5t-99.5 -184.5l4 -22v-1404h-134v1423q0 59 -29.5 106.5t-78 80 t-113.5 48.5t-133 16q-85 0 -170 -26.5t-153 -81.5q40 -10 78.5 -29t70.5 -43q37 -25 73 -54q-68 -13 -106 -52.5t-54 -80.5q-19 -50 -22 -108v-306q9 7 37 11.5t53 4.5q100 0 149.5 -62t49.5 -137q0 -74 -50 -139.5t-149 -65.5q-84 0 -155.5 50t-71.5 155v479 q0 108 42 167.5t95 80.5q-26 25 -67.5 41t-79.5 31q-46 12 -95 22zM378 192q0 -39 25.5 -70t75.5 -31q52 0 76.5 32.5t24.5 68.5q0 37 -24.5 67t-76.5 30q-53 0 -77 -31t-24 -66z" />
<glyph unicode="&#xe26;&#xe32;" horiz-adv-x="2129" d="M97 199q0 74 52.5 134.5t157.5 60.5q25 0 50 -4.5t37 -11.5v296q0 105 39 164.5t95 83.5q-22 26 -63.5 41.5t-79.5 30.5q-46 12 -99 22q59 94 149 145t174 76q100 29 205 33q156 0 255.5 -49t151.5 -118q53 78 135.5 122.5t206.5 44.5q196 0 292 -107t96 -265v-1413h-130 v1420q0 124 -70 190.5t-188 66.5q-111 0 -184.5 -66.5t-98.5 -184.5v-1426h-130v1429q0 56 -28 102t-76.5 77t-112 48.5t-132.5 17.5q-81 0 -163 -26t-153 -80q43 -10 82 -30t71 -44q36 -25 76 -54q-68 -16 -106.5 -52.5t-54.5 -77.5q-19 -49 -25 -105v-501q0 -32 -13.5 -67 t-39 -64t-67 -48.5t-98.5 -19.5q-105 0 -159 65.5t-54 143.5zM205 196q0 -37 26.5 -69.5t78.5 -32.5q53 0 76.5 32.5t23.5 69.5q0 36 -24.5 66.5t-75.5 30.5q-52 0 -78.5 -31t-26.5 -66z" />
<glyph unicode="fi" horiz-adv-x="1181" d="M40 941v124h205v231q0 130 68.5 190.5t177.5 60.5q115 0 172 -57t57 -132v-26h-121v13q0 29 -24.5 50.5t-80.5 21.5q-74 0 -88.5 -44t-14.5 -90v-218h631v-1065h-146v941h-485v-941h-146v941h-205zM863 1336v187h172v-187h-172z" />
<glyph unicode="fl" horiz-adv-x="1168" d="M40 941v124h205v231q0 130 68.5 190.5t177.5 60.5q115 0 172 -57t57 -132v-26h-121v13q0 29 -24.5 50.5t-80.5 21.5q-74 0 -88.5 -44t-14.5 -90v-218h243v-124h-243v-941h-146v941h-205zM876 0v1544h146v-1544h-146z" />
<glyph unicode="&#xd;" horiz-adv-x="1014" />
<glyph unicode=" "  horiz-adv-x="1014" />
<glyph unicode="&#x09;" horiz-adv-x="1014" />
<glyph unicode="&#xa0;" horiz-adv-x="1014" />
<glyph unicode="!" horiz-adv-x="796" d="M326 0v189h178v-189h-178zM326 1520h178l-22 -1162h-137z" />
<glyph unicode="&#x22;" horiz-adv-x="601" d="M130 908v571h108v-571h-108zM404 908v571h103v-571h-103z" />
<glyph unicode="#" horiz-adv-x="1691" d="M156 504l40 108h345l97 270h-371l35 112h375l183 507h131l-180 -507h264l178 507h133l-178 -507h330l-37 -112h-336l-97 -270h361l-39 -108h-361l-178 -504h-134l181 504h-260l-185 -504h-130l178 504h-345zM677 612h258l97 270h-261z" />
<glyph unicode="$" horiz-adv-x="1240" d="M108 385v9h159v-9q0 -242 296 -264v566q-221 62 -322 152t-101 255q0 156 110.5 258.5t312.5 119.5v140h102v-136q426 -20 435 -349h-143q-9 105 -79 158.5t-213 62.5v-540q241 -65 355 -155t114 -262q0 -176 -122.5 -278.5t-346.5 -115.5v-150h-102v147 q-221 12 -338 113t-117 278zM289 1100q0 -94 65.5 -154t208.5 -106v505q-134 -13 -204 -79.5t-70 -165.5zM665 124q316 37 314 274q0 90 -76 152t-238 108v-534z" />
<glyph unicode="%" horiz-adv-x="2132" d="M202 1091q0 186 94.5 295t247.5 109q149 0 243.5 -109t94.5 -295t-96 -295t-242 -109q-153 0 -247.5 110.5t-94.5 293.5zM339 1091q0 -140 55.5 -213t149.5 -73q90 0 146 73t56 213q0 143 -56 217.5t-146 74.5q-94 0 -149.5 -74.5t-55.5 -217.5zM584 -25l833 1520h133 l-833 -1520h-133zM1250 382q0 182 94.5 292.5t243.5 110.5q153 0 247.5 -109.5t94.5 -293.5q0 -186 -95.5 -296.5t-246.5 -110.5q-149 0 -243.5 110.5t-94.5 296.5zM1386 382q0 -144 56 -217.5t146 -73.5q94 0 150 73.5t56 217.5q0 143 -55 216t-151 73q-90 0 -146 -73 t-56 -216z" />
<glyph unicode="&#x26;" horiz-adv-x="1435" d="M162 398q0 87 31 160t80.5 132t110 104.5t117.5 75.5q-56 71 -104.5 152t-48.5 167q0 78 28 134.5t75 92.5t105.5 54t117.5 15q131 -6 218 -85t87 -215q0 -62 -23.5 -110.5t-62.5 -91t-90 -79.5t-107 -77q88 -108 174.5 -214t174.5 -212q22 55 34 131.5t12 151.5h140 q-7 -118 -24.5 -213.5t-66.5 -184.5l231 -283h-186l-126 166q-94 -105 -200.5 -155.5t-246.5 -50.5q-97 0 -179 33t-142 90t-94.5 136.5t-34.5 175.5zM307 404q6 -140 89 -226.5t226 -86.5q100 0 183.5 41t173.5 145l-403 494q-75 -43 -132 -100q-53 -49 -95 -116t-42 -151z M485 1189q0 -31 15 -72.5t35.5 -79t44 -70t39.5 -53.5l9 8q75 49 146.5 115t76.5 152q3 75 -54.5 122t-135.5 47q-68 0 -122 -40.5t-54 -128.5z" />
<glyph unicode="'" horiz-adv-x="370" d="M130 908v571h108v-571h-108z" />
<glyph unicode="(" horiz-adv-x="936" d="M326 649q0 299 243 895h108q-105 -296 -150 -521t-45 -377q0 -177 49 -405t146 -524h-108q-243 593 -243 932z" />
<glyph unicode=")" horiz-adv-x="939" d="M261 1544h106q248 -587 248 -932q0 -149 -62 -371t-183 -524h-106q105 299 148.5 522.5t43.5 375.5q0 190 -50.5 418t-144.5 511z" />
<glyph unicode="*" horiz-adv-x="1097" d="M162 1178q0 19 7 34q12 28 36 28l267 -28l7 9l-147 218q-9 16 -9 24q0 22 19 34.5t22 16.5q3 3 11 6q7 3 26 3q25 0 38 -25l108 -237h9l118 234q13 22 35 22q16 0 30 -7l13 -6q10 -3 19 -13q16 -15 18 -36q0 -16 -7 -22l-157 -215l6 -6l264 15q26 0 40 -28q6 -13 6 -34 q0 -3 -4.5 -32.5t-41.5 -29.5l-267 27l-3 -6l143 -222q6 -7 6 -23q0 -19 -16 -36q-9 -10 -19 -13q-3 0 -12 -3q-19 -7 -31 -7q-9 0 -18.5 3.5t-16.5 19.5l-108 241h-9l-118 -238q-9 -22 -35 -22q-16 0 -28 6t-15 6l-16 18q-19 19 -19 35q0 9 10 22l152 213l-3 10l-267 -18 q-29 0 -36 24.5t-7 37.5z" />
<glyph unicode="+" horiz-adv-x="1168" d="M94 453v131h431v451h127v-451h426v-131h-426v-453h-127v453h-431z" />
<glyph unicode="," horiz-adv-x="559" d="M130 -215l85 388h186l-137 -388h-134z" />
<glyph unicode="-" horiz-adv-x="618" d="M32 472v118h555v-118h-555z" />
<glyph unicode="." horiz-adv-x="585" d="M192 0v202h199v-202h-199z" />
<glyph unicode="/" horiz-adv-x="656" d="M37 -146l543 1687h120l-541 -1687h-122z" />
<glyph unicode="0" horiz-adv-x="1305" d="M140 749q0 774 509 774q510 0 510 -774q0 -385 -128.5 -579.5t-381.5 -194.5q-255 0 -382 194.5t-127 579.5zM302 749q0 -326 85 -482t262 -156q176 0 260.5 156t84.5 482q0 329 -85 487t-260 158q-177 0 -262 -158t-85 -487z" />
<glyph unicode="1" horiz-adv-x="933" d="M114 1081v159q85 7 174.5 87t171.5 177h152v-1504h-162v1283q-81 -105 -169.5 -145.5t-166.5 -56.5z" />
<glyph unicode="2" horiz-adv-x="1289" d="M183 1091q6 202 135 319.5t347 117.5q124 0 211.5 -34t143 -91.5t83 -132t27.5 -157.5q0 -72 -24.5 -140t-62 -135t-85 -128t-95.5 -120q-74 -91 -157.5 -169.5t-152.5 -140.5q-81 -72 -152 -131h749v-149h-964v149l6 4q16 12 63 53.5t112 102.5t147 141.5t167 171.5 q49 55 96 114t86 118.5t63.5 125t24.5 130.5q0 117 -71.5 193.5t-211.5 76.5t-222 -76.5t-82 -212.5h-181z" />
<glyph unicode="3" horiz-adv-x="1281" d="M111 407h169q6 -143 97.5 -213t247.5 -70q176 0 271 78t95 211q0 118 -96.5 202.5t-291.5 90.5h-62v134h55q199 15 280 81t81 203q0 121 -81 191.5t-248 70.5q-146 0 -233.5 -66.5t-101.5 -209.5h-159q9 189 146 301t351 112q228 0 359 -117t131 -296q0 -255 -285 -336 q156 -39 236.5 -142.5t80.5 -230.5q0 -91 -36 -169.5t-104.5 -135t-166 -89t-221.5 -32.5q-234 0 -370.5 113.5t-143.5 318.5z" />
<glyph unicode="4" horiz-adv-x="1334" d="M97 342v159l674 1000h208v-1026h236v-133h-236v-342h-159v342h-723zM264 475h556v843z" />
<glyph unicode="5" horiz-adv-x="1364" d="M196 378h168q3 -127 86.5 -197t226.5 -70q166 0 262 98.5t96 275.5q0 156 -86 253.5t-240 97.5q-105 0 -191 -54.5t-140 -159.5h-157l78 873h817v-147h-672l-53 -508q56 68 145 105.5t194 37.5q211 0 338.5 -134.5t127.5 -369.5q0 -234 -138.5 -369t-383.5 -135 q-208 0 -343 107t-135 296z" />
<glyph unicode="6" horiz-adv-x="1399" d="M196 709q0 410 133.5 610.5t419.5 200.5q211 0 333.5 -104t129.5 -289h-167q-10 124 -86.5 190t-209.5 66q-189 0 -284 -154t-104 -480q62 108 167.5 164.5t242.5 56.5q100 0 187 -36t149 -102.5t96 -157t34 -205.5q0 -227 -135 -360.5t-379 -133.5q-527 0 -527 734z M391 466q0 -81 29.5 -146.5t78 -113t110.5 -71.5t130 -24q153 0 241 96.5t88 261.5q0 177 -85 269t-240 92q-156 0 -254 -99.5t-98 -264.5z" />
<glyph unicode="7" horiz-adv-x="1151" d="M84 1348v147h981v-156q-94 -137 -164.5 -282.5t-118.5 -264.5q-59 -140 -98 -274q-46 -146 -67 -278t-21 -240h-195q9 189 68 410q49 189 148.5 431.5t280.5 506.5h-814z" />
<glyph unicode="8" horiz-adv-x="1386" d="M169 394q0 143 80 255.5t236 155.5q-137 36 -208.5 123.5t-71.5 198.5q0 81 34 154.5t99.5 127.5t156 86.5t208.5 32.5q114 0 204 -31t152 -86.5t96 -127t34 -156.5q0 -114 -70.5 -200.5t-207.5 -121.5q153 -43 233 -155.5t80 -255.5q0 -90 -35.5 -167.5t-104 -133.5 t-166.5 -87t-222 -31q-244 0 -385.5 116.5t-141.5 302.5zM342 407q0 -137 94.5 -216.5t259.5 -79.5q177 0 268.5 81t91.5 218q0 59 -25 118t-71 102.5t-114 71.5t-153 28q-78 0 -143 -28t-112 -71.5t-71.5 -102.5t-24.5 -121zM367 1134q0 -91 82 -166.5t247 -75.5 q169 0 249.5 74t80.5 168q0 100 -84.5 178t-248.5 78q-78 0 -140 -22.5t-102.5 -58t-62 -82t-21.5 -93.5z" />
<glyph unicode="9" horiz-adv-x="1364" d="M162 1035q0 111 41.5 202.5t110 154.5t159 97t192.5 34q279 -3 408 -185t129 -553q0 -186 -32.5 -336t-99.5 -256t-168 -162t-234 -56q-115 0 -199 31t-143 84t-94.5 124.5t-48.5 149.5h165q7 -49 33 -96t65 -83t91.5 -56.5t111.5 -20.5q165 0 272.5 151t119.5 412v3 q0 7 2 21t2 51q-66 -91 -170 -137t-229 -46q-62 0 -147.5 20t-158.5 71.5t-125.5 143t-52.5 237.5zM323 1041q0 -155 85.5 -245t229.5 -90q100 6 186 43q71 32 128.5 101t57.5 191q0 159 -95 250.5t-250 94.5q-140 0 -241 -95t-101 -250z" />
<glyph unicode=":" horiz-adv-x="761" d="M293 0v224h176v-224h-176zM293 833v223h176v-223h-176z" />
<glyph unicode=";" horiz-adv-x="771" d="M293 -199q49 19 73.5 79.5t24.5 119.5h-89v224h177v-227q0 -91 -45.5 -176t-140.5 -110v90zM299 833v223h180v-223h-180z" />
<glyph unicode="&#x3c;" horiz-adv-x="1113" d="M87 429v108l939 457v-124l-799 -388q19 -10 108 -53q75 -36 238 -111.5t453 -217.5v-122z" />
<glyph unicode="=" horiz-adv-x="1308" d="M162 251v134h984v-134h-984zM162 649v133h984v-133h-984z" />
<glyph unicode="&#x3e;" horiz-adv-x="1113" d="M87 -22v119q293 143 456 223.5t239 115.5q88 43 104 52q-16 6 -104 49q-74 37 -237 115t-458 218v124l939 -453v-109z" />
<glyph unicode="?" horiz-adv-x="1278" d="M211 1086v30q0 78 25 155t78 137.5t138 98t206 37.5q97 0 193.5 -36t154.5 -107q50 -62 70.5 -125.5t20.5 -129.5q0 -65 -17.5 -120.5t-44.5 -96.5q-3 -10 -27.5 -36t-55 -59t-60 -64t-49.5 -50q-40 -39 -83 -95t-43 -140v-140h-173v162q0 43 21.5 87t48.5 85t56.5 72 t49.5 50q19 19 45.5 44t52 52.5t47 53t33.5 46.5q43 75 43 149q0 109 -81.5 180.5t-194.5 71.5q-97 0 -154.5 -29.5t-90 -74t-43 -91.5t-10.5 -87q0 -43 8 -60h-160q-4 16 -4 30zM544 0v202h173v-202h-173z" />
<glyph unicode="@" horiz-adv-x="2191" d="M156 541q0 335 205 586q302 368 828 368q174 0 321 -45.5t252 -128.5q273 -208 273 -520q0 -176 -65 -321t-189 -238q-72 -56 -153 -85.5t-165 -29.5q-208 0 -210 156v3q-53 -75 -126.5 -117t-159.5 -42q-166 0 -249.5 87.5t-83.5 254.5q0 121 37.5 223.5t104.5 179 t155 118.5t185 42q199 0 267 -159l56 118h99l-144 -574q-19 -82 -20 -110q0 -84 111 -86q100 0 205 75q100 74 164 206t64 290q0 137 -52 247.5t-149.5 191.5t-234.5 125.5t-304 44.5q-345 0 -582 -193q-316 -260 -316 -680q0 -162 59 -296.5t166 -230t260.5 -148 t344.5 -52.5q162 0 330.5 51t314.5 151l35 -62q-307 -227 -677 -227q-391 0 -644 189q-313 234 -313 638zM758 463q0 -118 57.5 -181.5t157.5 -63.5q115 0 197.5 71.5t115.5 195.5l66 258q-47 198 -231 198q-75 0 -142.5 -37t-116 -101t-76.5 -152t-28 -188z" />
<glyph unicode="A" horiz-adv-x="1483" d="M52 0l600 1520h175l606 -1520h-166l-164 413h-733l-159 -413h-159zM417 541h639l-320 830z" />
<glyph unicode="B" horiz-adv-x="1380" d="M199 0v1520h397q302 0 442 -95.5t140 -290.5q0 -112 -48.5 -214.5t-165.5 -124.5q152 -37 217.5 -138t65.5 -234q0 -423 -619 -423h-429zM348 137h326q202 0 306 79.5t104 206.5q0 156 -122 230t-347 74h-267v-590zM348 854h267q212 0 308 62t96 214q0 134 -94.5 193.5 t-309.5 59.5h-267v-529z" />
<glyph unicode="C" horiz-adv-x="1386" d="M100 758q0 376 175 582.5t490 206.5q234 0 354.5 -110.5t154.5 -280.5h-164q-16 94 -102 171t-253 77q-221 0 -354.5 -168t-133.5 -484q0 -307 133.5 -469t354.5 -162q150 0 241.5 68.5t124.5 185.5h165q-36 -195 -177.5 -297.5t-369.5 -102.5q-292 0 -465.5 204 t-173.5 579z" />
<glyph unicode="D" horiz-adv-x="1497" d="M199 0v1520h420q387 0 583 -191.5t196 -566.5q0 -376 -196 -569t-583 -193h-420zM348 143h258q326 0 478.5 150.5t152.5 468.5q0 322 -152.5 471.5t-478.5 149.5h-258v-1240z" />
<glyph unicode="E" horiz-adv-x="1308" d="M199 0v1520h914v-134h-762v-532h733v-134h-733v-580h792v-140h-944z" />
<glyph unicode="F" horiz-adv-x="1203" d="M199 0v1520h873v-134h-721v-532h694v-134h-694v-720h-152z" />
<glyph unicode="G" horiz-adv-x="1470" d="M100 762q0 182 48 327t135 246t213 155t282 54q217 0 354.5 -106t166.5 -301h-162q-22 137 -120 203.5t-249 66.5q-111 0 -203.5 -46t-159 -128.5t-104 -203.5t-37.5 -271q0 -316 144.5 -480t405.5 -164q84 0 146 13t104.5 31t65.5 34t26 26v420h-382v136h531v-644 q-124 -90 -253.5 -122.5t-246.5 -32.5q-342 0 -523.5 204t-181.5 583z" />
<glyph unicode="H" horiz-adv-x="1507" d="M199 0v1520h152v-666h808v666h150v-1520h-150v720h-808v-720h-152z" />
<glyph unicode="I" horiz-adv-x="920" d="M183 0v127h205v1267h-205v126h556v-126h-205v-1267h205v-127h-556z" />
<glyph unicode="J" horiz-adv-x="1113" d="M68 378h156q0 -117 68.5 -192t205.5 -75q124 0 195.5 75t71.5 215v1119h149v-1132q0 -87 -23.5 -163t-74.5 -132t-129 -87t-189 -31q-177 0 -275.5 74.5t-135.5 184.5q-6 16 -12.5 60.5t-6.5 83.5z" />
<glyph unicode="K" horiz-adv-x="1321" d="M199 0v1520h152v-693l655 693h202l-648 -690l710 -830h-195l-612 727l-112 -112v-615h-152z" />
<glyph unicode="L" horiz-adv-x="1227" d="M199 0v1520h152v-1383h759v-137h-911z" />
<glyph unicode="M" horiz-adv-x="1874" d="M199 0v1520h214l538 -1296l504 1296h222v-1520h-146v1342l-528 -1342h-108l-547 1312v-1312h-149z" />
<glyph unicode="N" horiz-adv-x="1516" d="M199 0v1523h165l808 -1299v1299h146v-1523h-181l-792 1277v-1277h-146z" />
<glyph unicode="O" horiz-adv-x="1578" d="M118 762q0 182 48.5 327t138 247.5t215.5 156.5t278 54q153 0 278.5 -55.5t214.5 -156.5t138.5 -246t49.5 -327q0 -180 -49.5 -326.5t-138.5 -249t-214.5 -157t-278.5 -54.5q-152 0 -278 54.5t-215.5 157t-138 248t-48.5 327.5zM280 762q0 -147 37.5 -263.5t104 -202 t163 -130.5t213.5 -45q118 0 213.5 45t163.5 128.5t105.5 202t37.5 265.5q0 149 -37.5 268.5t-107.5 202t-166 127t-212 44.5q-118 0 -212.5 -46t-161 -130.5t-104 -203.5t-37.5 -262z" />
<glyph unicode="P" horiz-adv-x="1278" d="M199 0v1520h370q150 0 262.5 -11t197.5 -67q90 -59 136.5 -148t46.5 -194q0 -224 -132 -331.5t-428 -107.5h-297v-661h-156zM351 798h310q395 0 395 296q0 159 -96.5 224t-307.5 65h-301v-585z" />
<glyph unicode="Q" horiz-adv-x="1620" d="M100 762q0 182 49.5 327t139 246t214.5 156.5t279 55.5q153 0 280 -54t216 -156.5t138.5 -247.5t49.5 -327q0 -234 -72.5 -387.5t-175.5 -231.5h302v-143h-485l-246 -19q-159 0 -286.5 53t-217 156t-137.5 248.5t-48 323.5zM264 762q0 -143 37.5 -260t105.5 -202 t163 -132t212 -47q118 0 213.5 45t163.5 130.5t105.5 202t37.5 263.5q0 146 -37.5 265t-105.5 202t-164.5 129t-212.5 46q-233 0 -375.5 -172.5t-142.5 -469.5z" />
<glyph unicode="R" horiz-adv-x="1396" d="M199 0v1520h475q274 0 410.5 -89t136.5 -281q0 -268 -270 -352q84 -19 131.5 -63.5t73.5 -128.5q36 -127 40 -274q6 -78 18.5 -159.5t49.5 -172.5h-173q-23 65 -33 125.5t-13 135.5q-7 74 -15 162.5t-24 123.5q-31 84 -88.5 128.5t-168.5 44.5h-401v-720h-149zM348 854 h323q169 0 278.5 65t109.5 211q0 147 -90 201.5t-288 54.5h-333v-532z" />
<glyph unicode="S" horiz-adv-x="1252" d="M100 404h164q3 -143 101 -213t263 -70q177 0 276 74.5t99 195.5q0 56 -24.5 104.5t-80.5 88.5q-22 15 -53 29.5t-74 32.5q-40 15 -88.5 29.5t-102.5 33.5q-217 78 -328.5 168t-111.5 257q0 179 133.5 293t357.5 114q231 0 360.5 -93t142.5 -270h-158q-12 224 -324 226 q-169 0 -262.5 -71.5t-93.5 -186.5q0 -108 96 -174.5t289 -131.5q55 -20 103.5 -35.5t94.5 -36.5q91 -37 147 -81q130 -118 130 -286q0 -193 -141.5 -305t-389.5 -112q-485 0 -525 420z" />
<glyph unicode="T" horiz-adv-x="1194" d="M32 1383v137h1127v-137h-482v-1383h-159v1383h-486z" />
<glyph unicode="U" horiz-adv-x="1510" d="M199 580v940h149v-911q0 -234 96.5 -361t313.5 -127q212 0 313 124.5t101 360.5v914h140v-914q0 -137 -19 -239.5t-88 -190.5q-149 -201 -453 -201q-277 0 -415 157t-138 448z" />
<glyph unicode="V" horiz-adv-x="1376" d="M52 1520h166l485 -1328l466 1328h157l-548 -1520h-163z" />
<glyph unicode="W" horiz-adv-x="2041" d="M68 1523h150l351 -1334l366 1334h162l385 -1334l342 1334h149l-394 -1523h-181l-379 1318l-364 -1318h-186z" />
<glyph unicode="X" horiz-adv-x="1367" d="M52 0l541 789l-509 734h180l413 -618l439 618h177l-525 -731l547 -792h-175l-459 668l-450 -668h-179z" />
<glyph unicode="Y" horiz-adv-x="1357" d="M52 1523h186l458 -718l454 718h165l-547 -858v-665h-153v652z" />
<glyph unicode="Z" horiz-adv-x="1302" d="M100 0v153l894 1237h-860v133h1041v-143l-905 -1240h932v-140h-1102z" />
<glyph unicode="[" horiz-adv-x="615" d="M196 -323v1843h322v-100h-186v-1638h186v-105h-322z" />
<glyph unicode="\" horiz-adv-x="585" d="M-81 1541h124l541 -1687h-121z" />
<glyph unicode="]" horiz-adv-x="607" d="M94 -218h186v1638h-186v100h319v-1843h-319v105z" />
<glyph unicode="^" horiz-adv-x="2109" d="M417 929l574 575h130l572 -575h-152l-485 469l-487 -469h-152z" />
<glyph unicode="_" horiz-adv-x="1054" d="M-10 -417h1075v-81h-1075v81z" />
<glyph unicode="`" horiz-adv-x="1057" d="M267 1560h180l224 -361h-115z" />
<glyph unicode="a" horiz-adv-x="1097" d="M105 299q0 159 135 256t379 97h176v113q0 205 -248 205q-234 0 -251 -188h-150q16 150 120 226t281 76q189 0 289 -81q78 -65 95 -147t17 -195v-456q0 -46 5 -96t11 -109h-144l-9 156q-121 -178 -351 -178q-166 0 -260.5 85.5t-94.5 235.5zM248 299q0 -88 59.5 -145 t171.5 -57q143 0 229.5 86.5t86.5 210.5v143h-146q-205 0 -303 -65t-98 -173z" />
<glyph unicode="b" horiz-adv-x="1203" d="M149 0q10 245 10 273v1247h148v-609q137 180 354 180q206 0 324 -148t118 -415q0 -255 -123 -402.5t-328 -147.5q-218 0 -345 178l-8 -156h-150zM313 534q0 -211 87.5 -324t233.5 -113q147 0 233.5 111.5t86.5 319.5q0 215 -82.5 325.5t-230.5 110.5q-150 0 -239 -112.5 t-89 -317.5z" />
<glyph unicode="c" horiz-adv-x="1090" d="M100 518q0 277 127.5 421.5t352.5 144.5q186 0 294.5 -94.5t116.5 -269.5h-161q-6 115 -77.5 173t-180.5 58q-149 0 -231.5 -114t-82.5 -312q0 -202 79.5 -313.5t234.5 -111.5q109 0 177 59t87 173h155q-13 -176 -119.5 -266.5t-291.5 -90.5q-224 0 -352 144.5 t-128 398.5z" />
<glyph unicode="d" horiz-adv-x="1213" d="M94 528q0 267 119 415t324 148q218 0 355 -180v609h146v-1247q0 -28 10 -273h-150l-6 156q-126 -178 -340 -178h-5q-205 0 -329 147.5t-124 402.5zM245 528q0 -208 86 -319.5t232 -111.5t234.5 113t88.5 324q0 205 -90 317.5t-240 112.5q-146 0 -228.5 -110.5 t-82.5 -325.5z" />
<glyph unicode="e" horiz-adv-x="1155" d="M94 522q0 127 35.5 231t101 177t158.5 113.5t207 40.5q215 0 345.5 -141.5t130.5 -389.5v-46h-814q3 -202 94.5 -306t253.5 -104q114 0 198.5 67t103.5 181h151q-25 -176 -149.5 -273t-319.5 -97q-227 0 -361.5 147.5t-134.5 399.5zM261 631h650q-9 156 -96.5 246 t-227.5 90q-131 0 -216 -86t-110 -250z" />
<glyph unicode="f" horiz-adv-x="740" d="M43 941v124h205v231q0 130 68.5 190.5t177.5 60.5q115 0 172 -57t57 -132v-26h-120v13q0 29 -25 50.5t-80 21.5q-75 0 -89.5 -44t-14.5 -90v-218h244v-124h-244v-941h-146v941h-205z" />
<glyph unicode="g" horiz-adv-x="1203" d="M100 550q0 245 124 389.5t329 144.5q218 0 345 -176l7 154h151q-7 -108 -11 -175t-4 -102v-694q0 -261 -112 -386t-360 -125q-199 0 -312.5 79.5t-119.5 235.5h162q9 -188 267 -188h3q329 0 329 342v131q-130 -177 -354 -177q-205 0 -324.5 145t-119.5 402zM254 550 q0 -208 81.5 -315.5t230.5 -107.5q150 0 239.5 114t89.5 300q0 195 -86 310.5t-243 115.5q-143 0 -227.5 -109t-84.5 -308z" />
<glyph unicode="h" horiz-adv-x="1144" d="M149 0v1520h147v-615q146 173 335 173t277.5 -102.5t88.5 -307.5v-668h-146v655q0 150 -56 221.5t-183 71.5q-137 0 -226.5 -88.5t-89.5 -234.5v-625h-147z" />
<glyph unicode="i" horiz-adv-x="470" d="M149 1336v187h174v-187h-174zM162 0v1065h148v-1065h-148z" />
<glyph unicode="j" horiz-adv-x="575" d="M100 -289q59 0 91.5 9.5t49.5 32.5t21.5 62t4.5 101v1149h146v-1251q0 -124 -55.5 -175.5t-177.5 -51.5h-34.5t-45.5 3v121zM251 1332v188h175v-188h-175z" />
<glyph unicode="k" horiz-adv-x="1050" d="M149 0v1520h144v-868l465 413h215l-461 -400l504 -665h-205l-404 569l-114 -100v-469h-144z" />
<glyph unicode="l" horiz-adv-x="467" d="M165 0v1520h155v-1520h-155z" />
<glyph unicode="m" horiz-adv-x="1747" d="M149 1062h150v-164q52 81 130 129t177 48q241 0 326 -205q55 87 131.5 146t179.5 59q190 0 273.5 -107.5t83.5 -302.5v-665h-148v649q0 146 -50 220.5t-175 74.5q-68 0 -118 -29t-84 -74.5t-51 -101t-17 -105.5v-634h-146v649q0 149 -48.5 222t-172.5 73 q-68 0 -120.5 -27.5t-90 -71.5t-57.5 -99.5t-20 -111.5v-634h-143v814q0 65 -3 127t-7 121z" />
<glyph unicode="n" horiz-adv-x="1171" d="M165 1062h148l7 -164q149 177 335 177q196 0 281.5 -109t85.5 -298v-668h-146v652q0 130 -52.5 211t-185.5 81q-137 0 -227.5 -91t-90.5 -215v-638h-144v814q0 130 -11 248z" />
<glyph unicode="o" horiz-adv-x="1175" d="M100 531q0 127 38 229.5t103.5 176t156 112.5t198.5 39t197 -39t156 -112.5t104.5 -176t37.5 -229.5t-37.5 -229.5t-102.5 -176t-156.5 -112t-198.5 -38.5q-108 0 -198.5 38.5t-156 112t-103.5 176t-38 229.5zM254 531q0 -186 92.5 -306t249.5 -120q153 0 246 117t93 309 q0 186 -91.5 306t-247.5 120q-71 0 -134.5 -32.5t-109 -87.5t-72 -133.5t-26.5 -172.5z" />
<glyph unicode="p" horiz-adv-x="1187" d="M149 1062h150l8 -157q127 179 345 179q205 0 328 -147.5t123 -402.5q0 -264 -120 -411.5t-322 -147.5q-227 0 -351 174v-550h-151v1186q0 32 -10 277zM310 528q0 -205 95.5 -316.5t232.5 -111.5q140 0 226.5 110t86.5 324q0 209 -86.5 319.5t-233.5 110.5 q-130 0 -225.5 -112.5t-95.5 -323.5z" />
<glyph unicode="q" horiz-adv-x="1171" d="M84 534q0 255 122.5 402.5t327.5 147.5q218 0 345 -179l7 157h136v-1463h-146v550q-126 -174 -349 -174h-5q-199 0 -318.5 147.5t-119.5 411.5zM234 534q0 -214 88 -324t225 -110q68 0 128.5 31t104.5 86.5t70 133.5t26 177q0 211 -94.5 323.5t-231.5 112.5 t-226.5 -110.5t-89.5 -319.5z" />
<glyph unicode="r" horiz-adv-x="709" d="M169 1062h147l10 -140q94 146 286 146q16 0 34.5 -1.5t43.5 -4.5v-137q-32 4 -50 4h-28q-133 0 -208 -83.5t-75 -226.5v-619h-149v801q0 56 -11 261z" />
<glyph unicode="s" horiz-adv-x="1028" d="M87 293h151q16 -202 266 -202q140 0 215.5 58.5t75.5 143.5q0 81 -60.5 117.5t-184.5 68.5l-180 49q-39 13 -69.5 20.5t-52.5 23.5q-127 78 -127 217q0 140 104 219.5t293 79.5q183 0 281.5 -75t105.5 -224h-150q-19 184 -238 184h-5q-124 0 -186 -45.5t-62 -119.5 q0 -85 81 -118q43 -22 105 -35q32 -9 67.5 -18t78.5 -18q174 -47 261 -108t87 -204q0 -153 -115 -242.5t-322 -89.5q-404 0 -420 318z" />
<glyph unicode="t" horiz-adv-x="734" d="M37 948v124h208v217l146 63v-280h240v-124h-240v-659q0 -93 29.5 -135.5t110.5 -42.5q53 0 121 23v-134q-100 -19 -154 -19q-255 0 -253 250v717h-208z" />
<glyph unicode="u" horiz-adv-x="1151" d="M149 378v684h147v-668q0 -124 55.5 -205t182.5 -81q69 0 126 24t99 67t67 96t25 112v655h146v-814q0 -68 1.5 -128.5t4.5 -119.5h-146v149q-147 -171 -338 -171h-4q-189 0 -277.5 101t-88.5 299z" />
<glyph unicode="v" horiz-adv-x="1113" d="M68 1062h153l351 -866l336 866h154l-437 -1062h-118z" />
<glyph unicode="w" horiz-adv-x="1706" d="M52 1062h150l302 -844l285 844h152l271 -844l298 844h155l-398 -1062h-130l-274 889l-300 -889h-124z" />
<glyph unicode="x" horiz-adv-x="1132" d="M68 0l411 544l-395 518h174l308 -404l307 404h156l-383 -512l419 -550h-179l-326 439l-336 -439h-156z" />
<glyph unicode="y" horiz-adv-x="1125" d="M68 1062h166l346 -857l345 857h153l-420 -1030l-170 -433h-153l159 447z" />
<glyph unicode="z" horiz-adv-x="982" d="M100 0v137l593 801h-575v124h749v-133l-584 -802h599v-127h-782z" />
<glyph unicode="{" horiz-adv-x="1054" d="M173 491v112q23 -4 35.5 -4h22.5q143 0 198.5 65.5t55.5 221.5v244q0 109 13.5 182.5t52.5 121.5t105.5 68.5t173.5 20.5h52v-106h-46q-71 0 -116.5 -13.5t-70 -42.5t-32.5 -79.5t-8 -125.5v-248q0 -150 -34 -235.5t-149 -125.5q115 -43 149 -127.5t34 -233.5v-248 q0 -75 8 -123.5t32.5 -78t68.5 -43t115 -13.5h49v-106h-52q-108 0 -174 20.5t-105 66.5t-52.5 121t-13.5 181v245q0 156 -55 221t-203 65q-9 0 -22 -1.5t-32 -1.5z" />
<glyph unicode="|" horiz-adv-x="1054" d="M472 -498v2113h112v-2113h-112z" />
<glyph unicode="}" horiz-adv-x="1057" d="M173 -320h48q72 0 118 13.5t69.5 43t32.5 78t9 123.5v248q0 149 34 233.5t147 127.5q-114 40 -147.5 125.5t-33.5 235.5v248q0 75 -9 125.5t-34 79.5t-69.5 42.5t-119.5 13.5h-45v106h51q108 0 176.5 -20.5t106 -68.5t50 -122.5t12.5 -181.5v-244q0 -156 56 -221.5 t202 -65.5q13 0 24.5 2t30.5 2v-112q-19 0 -30.5 1.5t-24.5 1.5q-146 0 -202 -65t-56 -221v-245q0 -108 -12.5 -182t-50 -120t-106 -66.5t-176.5 -20.5h-51v106z" />
<glyph unicode="~" horiz-adv-x="1252" d="M134 665h3q19 31 45 68.5t60.5 70t78 54t96.5 21.5q49 0 104 -21.5t110 -46.5l37 -16q52 -25 96 -43.5t79 -18.5q31 0 61.5 17.5t54.5 43.5t42 57t31 57l3 3l86 -75v-3q-115 -227 -278 -227q-53 0 -122 27.5t-125 50.5l-68 33q-26 16 -55 27t-56 11q-40 0 -70.5 -17.5 t-55 -47t-44.5 -62t-36 -62.5l-6 -10z" />
<glyph unicode="&#xa1;" horiz-adv-x="823" d="M329 3l22 1162h137l19 -1162h-178zM329 1336v187h178v-187h-178z" />
<glyph unicode="&#xa2;" horiz-adv-x="1171" d="M97 563q0 140 38 249.5t106.5 182.5t160.5 110.5t201 37.5q65 0 124 -9l84 252h100l-91 -283q94 -42 156 -125t80 -210h-127q-40 143 -151 215l-287 -865q50 -13 112 -13q140 0 225.5 78t109.5 215h137q-13 -82 -48.5 -157.5t-96 -130t-142.5 -89t-185 -34.5 q-78 0 -147 19l-95 -286h-97l100 317q-137 68 -202 208t-65 318zM231 563q0 -121 42.5 -231.5t133.5 -169.5l280 857q-19 7 -40.5 8.5t-43.5 1.5q-97 0 -168 -40.5t-116.5 -106t-66.5 -149.5t-21 -170z" />
<glyph unicode="&#xa3;" horiz-adv-x="1227" d="M56 674v88h168q-13 28 -32 61.5t-35.5 72.5t-29.5 87.5t-13 110.5q0 168 117 278t356 110q208 0 343 -119.5t135 -330.5v-10h-140q-6 169 -96 257t-242 88q-62 0 -124 -17.5t-109 -51.5t-76.5 -86.5t-29.5 -123.5q0 -94 48.5 -168t94.5 -158h352v-88h-320q9 -36 16.5 -72 t7.5 -71q0 -121 -63.5 -220.5t-141.5 -176.5l6 -7q40 22 88.5 40.5t99.5 18.5q71 0 120.5 -15t92.5 -31q39 -16 79 -29.5t96 -13.5q74 0 126.5 36t102.5 85l71 -110q-49 -43 -88 -70.5t-80.5 -45t-88.5 -25t-112 -7.5q-39 0 -81.5 15t-86.5 31l-15 4q-46 15 -91 30.5 t-99 15.5q-62 0 -116.5 -23t-109.5 -49l-72 124q91 65 158.5 163.5t67.5 216.5q0 94 -46 186h-208z" />
<glyph unicode="&#xa4;" horiz-adv-x="1445" d="M159 267l170 162q-97 153 -98 301q0 146 98 299l-170 156l102 111l168 -166q140 91 301 91q156 0 299 -91l167 166l103 -111l-169 -156q91 -150 91 -299q0 -153 -91 -301l169 -162l-103 -105l-167 167q-150 -97 -299 -98q-153 0 -301 98l-168 -167zM370 730 q0 -146 107 -253t253 -107q127 0 237.5 95.5t110.5 264.5q0 143 -102.5 245.5t-245.5 102.5q-153 0 -256.5 -102.5t-103.5 -245.5z" />
<glyph unicode="&#xa5;" horiz-adv-x="1227" d="M43 1528h156l302 -541q28 -55 49 -95q22 -49 59 -130q29 71 53.5 122t57.5 113l290 531h165l-436 -770h388v-103h-446v-208h446v-96h-446v-351h-137v351h-450v96h450v208h-450v103h388z" />
<glyph unicode="&#xa6;" horiz-adv-x="1038" d="M472 -361v790h112v-790h-112zM472 687v789h112v-789h-112z" />
<glyph unicode="&#xa7;" horiz-adv-x="1135" d="M149 -3h150q16 -202 267 -202q140 0 215.5 59t75.5 143q0 78 -60.5 113.5t-184.5 72.5q-56 16 -99.5 25.5t-80.5 18.5q-39 16 -69.5 23.5t-52.5 22.5q-127 85 -127 215q0 183 165 294q-97 40 -148 99.5t-51 166.5q0 152 116.5 242t321.5 90q404 0 419 -318h-149 q-16 202 -267 202q-140 0 -215.5 -59t-75.5 -143q0 -81 60.5 -117.5t184.5 -68.5l179 -49q40 -13 70.5 -21t52.5 -24q127 -78 127 -216q0 -181 -162 -293q97 -39 146 -99t49 -164q0 -156 -116 -246t-321 -90q-199 0 -306 80.5t-114 242.5zM326 512q0 -89 81 -121 q43 -22 105 -36q65 -16 129 -29q105 46 147 99.5t42 121.5q0 84 -81 118q-43 22 -103 35q-53 16 -128 30q-105 -46 -148.5 -100t-43.5 -118z" />
<glyph unicode="&#xa8;" horiz-adv-x="1357" d="M439 1628v183h180v-183h-180zM789 1628v183h178v-183h-178z" />
<glyph unicode="&#xa9;" horiz-adv-x="1828" d="M159 736q0 156 60.5 294.5t163 241t239 161t292.5 58.5t295 -58.5t241.5 -161t161.5 -241t59 -294.5t-59 -292.5t-161.5 -240t-240.5 -163t-296 -59.5q-156 0 -292.5 59.5t-239 163t-163 240t-60.5 292.5zM289 736q0 -130 49.5 -244t133.5 -199t198.5 -133.5t243.5 -48.5 q131 0 245.5 48.5t198.5 133.5t133.5 199t49.5 244q0 131 -49.5 244.5t-133.5 198.5t-198.5 133.5t-245.5 48.5q-130 0 -244 -48.5t-198 -133.5t-133.5 -198.5t-49.5 -244.5zM556 749q0 211 99.5 330.5t282.5 119.5q137 0 208.5 -70t90.5 -178h-124q-6 52 -51.5 94.5 t-129.5 42.5q-115 0 -183 -88.5t-68 -253.5q0 -159 68 -246t183 -87q74 0 122.5 37.5t66.5 102.5h122q-22 -124 -103 -189t-215 -65q-168 0 -268.5 117.5t-100.5 332.5z" />
<glyph unicode="&#xaa;" horiz-adv-x="758" d="M43 572v83h657v-83h-657zM84 983q0 100 87 162.5t242 62.5h112v72q0 130 -158 130q-74 0 -115 -31t-47 -86h-94q10 93 76.5 141t179.5 48q118 0 183 -49q53 -43 62.5 -93.5t9.5 -124.5v-293q0 -52 9 -130h-90l-7 100q-74 -114 -224 -114q-105 0 -165.5 55.5t-60.5 149.5z M176 983q0 -56 37.5 -91t109.5 -35q90 0 146 53.5t56 130.5v93h-96q-127 0 -190 -41.5t-63 -109.5z" />
<glyph unicode="&#xab;" horiz-adv-x="1054" d="M186 472v134l286 230l7 -3v-130q-72 -59 -111 -93t-58 -50q-22 -19 -30 -23q9 -6 40 -32t67 -55.5t64 -54.5l28 -25v-125l-7 -3q-105 84 -164.5 131t-86.5 71zM572 472v134l288 230l7 -3v-130q-72 -59 -111 -93t-60 -50q-22 -19 -28 -23q9 -6 40 -32t67 -55.5t64 -54.5 l28 -25v-125l-7 -3q-105 84 -165.5 131t-85.5 71z" />
<glyph unicode="&#xac;" horiz-adv-x="1411" d="M165 938v127h1062v-561h-136v434h-926z" />
<glyph unicode="&#xad;" horiz-adv-x="618" d="M32 472v118h555v-118h-555z" />
<glyph unicode="&#xae;" horiz-adv-x="1828" d="M159 736q0 156 60.5 294.5t163 241t239 161t292.5 58.5t295 -58.5t241.5 -161t161.5 -241t59 -294.5t-59 -292.5t-161.5 -240t-240.5 -163t-296 -59.5q-156 0 -292.5 59.5t-239 163t-163 240t-60.5 292.5zM289 736q0 -130 49.5 -244t133.5 -199t198.5 -133.5t243.5 -48.5 q131 0 245.5 48.5t198.5 133.5t133.5 199t49.5 244q0 131 -49.5 244.5t-133.5 198.5t-198.5 133.5t-245.5 48.5q-130 0 -244 -48.5t-198 -133.5t-133.5 -198.5t-49.5 -244.5zM615 302v873h385q84 0 140 -20.5t88.5 -55t46.5 -79t14 -91.5q0 -91 -55.5 -150t-152.5 -73 l196 -404h-134l-189 388h-218v-388h-121zM736 789h172q137 0 199 28.5t62 120.5q0 65 -48.5 104t-137.5 39h-247v-292z" />
<glyph unicode="&#xaf;" horiz-adv-x="777" d="M118 1270v116h537v-116h-537z" />
<glyph unicode="&#xb0;" horiz-adv-x="693" d="M121 1267q0 85 56.5 153t170.5 68q115 0 173.5 -68t58.5 -153q0 -84 -58.5 -155t-173.5 -71q-114 0 -170.5 70t-56.5 156zM224 1267q0 -46 31 -83.5t93 -37.5q65 0 94.5 37.5t29.5 83.5t-29.5 82.5t-94.5 36.5q-62 0 -93 -37t-31 -82z" />
<glyph unicode="&#xb1;" horiz-adv-x="1168" d="M121 231h935v117h-935v-117zM121 805v130h404v370h127v-370h401v-130h-401v-373h-127v373h-404z" />
<glyph unicode="&#xb2;" horiz-adv-x="771" d="M68 590v100q29 56 94 124t131 130q68 66 123.5 111t62.5 52q46 43 65 80t19 63q0 68 -45.5 111t-132.5 43q-84 0 -135 -46t-54 -131h-124q6 125 89.5 193t220.5 68q155 0 225 -66.5t74 -160.5q0 -37 -16 -85.5t-62 -94.5q-23 -25 -50.5 -48t-54.5 -50q-32 -29 -76 -66.5 t-85 -76.5t-77 -78t-55 -78h488v-94h-625z" />
<glyph unicode="&#xb3;" horiz-adv-x="771" d="M40 833h113q3 -84 60 -126t157 -42q112 0 170.5 46.5t58.5 121.5q0 78 -60 124t-184 46h-16.5t-25.5 -3v88h38q234 0 236 159q0 68 -56 112.5t-161 44.5q-189 0 -208 -167h-106q6 115 94 183t225 68q147 0 232.5 -70t85.5 -175q0 -149 -178 -198q193 -50 191 -221 q0 -108 -89 -180t-247 -72q-146 0 -235 68.5t-95 192.5z" />
<glyph unicode="&#xb4;" horiz-adv-x="1057" d="M420 1199l226 361h178l-290 -361h-114z" />
<glyph unicode="&#xb5;" horiz-adv-x="1128" d="M137 -429v1529h127v-718q0 -144 65 -219.5t218 -75.5q156 0 244 116.5t88 297.5v599h127v-1097h-127v153q-25 -29 -56 -61.5t-72.5 -58.5t-96.5 -43.5t-126 -17.5q-91 0 -156 20.5t-108 47.5v-472h-127z" />
<glyph unicode="&#xb6;" horiz-adv-x="1327" d="M97 1100q0 174 108 301t375 127h654v-130h-153v-1837h-130v1837h-293v-1837h-124v1126q-199 0 -318 112t-119 301z" />
<glyph unicode="&#xb7;" horiz-adv-x="637" d="M242 908v183h178v-183h-178z" />
<glyph unicode="&#xb8;" horiz-adv-x="992" d="M286 -394l34 62q36 -10 68 -19.5t68 -9.5q46 0 91.5 20.5t45.5 76.5q0 46 -32.5 63.5t-72.5 17.5q-25 0 -46.5 -4.5t-47.5 -11.5l-30 30l127 172h81l-100 -124q19 7 39 10t39 3q69 0 112.5 -36t51.5 -74q3 -13 3 -40q0 -93 -72.5 -135.5t-165.5 -42.5q-50 0 -98.5 13 t-94.5 29z" />
<glyph unicode="&#xb9;" horiz-adv-x="771" d="M169 1234v98q55 26 109 60t113 80h94v-882h-103v768q-112 -84 -213 -124z" />
<glyph unicode="&#xba;" horiz-adv-x="957" d="M159 572v83h658v-83h-658zM159 1140q0 146 82 245.5t247 99.5t247 -99.5t82 -245.5q0 -156 -89.5 -252t-239.5 -96q-137 3 -233 89t-96 259zM242 1140q0 -124 62.5 -203.5t183.5 -79.5q65 0 113 24t76.5 65t43.5 91.5t15 102.5q0 115 -57 199t-191 84q-65 0 -112 -24.5 t-76.5 -65t-43.5 -91t-14 -102.5z" />
<glyph unicode="&#xbb;" horiz-adv-x="1054" d="M183 245v133q71 59 110 92.5t58 51.5q23 19 31 22q-10 6 -41 32.5t-67 54t-63 51.5l-28 24v127l6 3q108 -84 166 -131t84 -71l36 -28v-131l-286 -233zM569 245v133q72 59 111.5 92.5t58.5 51.5q23 19 29 22q-10 6 -41 32.5t-66.5 54t-63.5 51.5l-28 24v127l7 3 q108 -84 166.5 -131t84.5 -71l36 -28v-131l-287 -233z" />
<glyph unicode="&#xbc;" horiz-adv-x="1822" d="M159 1247v92q56 22 108.5 54.5t102.5 78.5h96v-834h-102v723q-108 -81 -205 -114zM370 -25l956 1520h129l-954 -1520h-131zM1116 189v91l407 550h134v-563h144v-78h-144v-189h-104v189h-437zM1212 267h341v463z" />
<glyph unicode="&#xbd;" horiz-adv-x="1822" d="M159 1247v92q56 22 108.5 54.5t102.5 78.5h96v-834h-102v723q-108 -81 -205 -114zM370 -25l956 1520h129l-954 -1520h-131zM1153 0v94q25 52 87 117.5t127 123.5q66 59 120 101.5t60 48.5q78 75 78 137t-42 101t-128 39q-81 0 -128 -42.5t-50 -123.5h-118 q3 118 82.5 182.5t210.5 64.5q149 0 216.5 -61.5t67.5 -153.5q0 -37 -15 -80.5t-61 -87.5q-40 -40 -95 -85.5t-108 -94.5t-100.5 -97.5t-73.5 -95.5h469v-87h-599z" />
<glyph unicode="&#xbe;" horiz-adv-x="1822" d="M40 870h106q10 -161 209 -161q105 0 159.5 46t54.5 115q0 74 -58 116.5t-172 42.5h-40v78h36q115 0 168 41t53 110q0 65 -53 107t-152 42q-179 0 -195 -157h-104q7 108 89.5 170t216.5 62q136 0 221.5 -63.5t85.5 -165.5q0 -134 -171 -185q180 -49 180 -205 q0 -105 -86.5 -171.5t-232.5 -66.5q-144 0 -226.5 63.5t-88.5 181.5zM367 -25l959 1520h126l-954 -1520h-131zM1113 189v91l410 550h131v-563h143v-78h-143v-189h-104v189h-437zM1208 267h342v463z" />
<glyph unicode="&#xbf;" horiz-adv-x="1278" d="M211 385q0 65 18.5 120t43.5 98q10 16 30 39t46 50.5t53 54.5l51 51q3 3 5 6.5t8 6.5q40 40 83.5 94.5t43.5 139.5v140h172v-163q0 -43 -21 -86.5t-48.5 -84t-57 -71.5t-48.5 -50t-45.5 -44t-52.5 -51t-47.5 -54t-34.5 -47q-43 -74 -43 -149q0 -108 82 -179.5t197 -71.5 q97 0 154 29t89.5 73t42 91.5t9.5 85.5q0 43 -6 62h159q3 -15 3 -30.5v-31.5q0 -78 -24.5 -154t-78 -136.5t-138.5 -98t-204 -37.5q-97 0 -194 36t-156 107q-49 62 -70 126t-21 129zM593 1329v202h172v-202h-172z" />
<glyph unicode="&#xc0;" horiz-adv-x="1477" d="M49 0l600 1520h175l605 -1520h-165l-164 413h-733l-159 -413h-159zM413 541h640l-320 830zM450 1989h178l226 -361h-115z" />
<glyph unicode="&#xc1;" horiz-adv-x="1477" d="M49 0h159l159 413h733l164 -413h165l-605 1520h-175zM413 541l320 830l320 -830h-640zM609 1628l224 361h180l-290 -361h-114z" />
<glyph unicode="&#xc2;" horiz-adv-x="1477" d="M49 0l600 1520h175l605 -1520h-165l-164 413h-733l-159 -413h-159zM378 1625l306 361h105l308 -361h-121l-240 254l-238 -254h-120zM413 541h640l-320 830z" />
<glyph unicode="&#xc3;" horiz-adv-x="1477" d="M49 0l600 1520h175l605 -1520h-165l-164 413h-733l-159 -413h-159zM391 1615v97q115 75 205 75q59 0 114 -20.5t110 -38.5q16 -6 36 -9t39 -3q46 0 93 21.5t109 63.5v-98q-111 -75 -202 -75q-59 0 -115.5 21.5t-111.5 37.5q-16 6 -34.5 9.5t-37.5 3.5q-46 0 -94.5 -21.5 t-110.5 -63.5zM413 541h640l-320 830z" />
<glyph unicode="&#xc4;" horiz-adv-x="1477" d="M49 0l600 1520h175l605 -1520h-165l-164 413h-733l-159 -413h-159zM413 541h640l-320 830zM475 1628v183h180v-183h-180zM824 1628v183h179v-183h-179z" />
<glyph unicode="&#xc5;" horiz-adv-x="1477" d="M49 0h159l159 413h733l164 -413h165l-605 1520h-175zM413 541l320 830l320 -830h-640zM501 1852q0 85 57 154t172 69q114 0 172 -68.5t58 -154.5q0 -84 -58.5 -154t-171.5 -70q-115 0 -172 70t-57 154zM606 1852q0 -46 31 -82.5t93 -36.5q65 0 94.5 37.5t29.5 81.5 q0 46 -29.5 83.5t-94.5 37.5q-62 0 -93 -37.5t-31 -83.5z" />
<glyph unicode="&#xc6;" horiz-adv-x="1979" d="M49 0l600 1520h1138v-134h-761v-532h733v-134h-733v-580h791v-140h-944v413h-506l-159 -413h-159zM413 541h457v830h-137z" />
<glyph unicode="&#xc7;" horiz-adv-x="1380" d="M97 758q0 376 175 582.5t490 206.5q233 0 354 -110.5t154 -280.5h-163q-16 94 -102 171t-253 77q-221 0 -354.5 -168t-133.5 -484q0 -307 133.5 -469t354.5 -162q150 0 241 68.5t123 185.5h167q-36 -195 -177.5 -296t-366.5 -104l-74 -96q19 7 38.5 10t39.5 3 q68 0 111.5 -36t50.5 -74q3 -13 3 -40q0 -93 -71.5 -135.5t-165.5 -42.5q-49 0 -97.5 13t-94.5 29l33 62q37 -10 68.5 -19.5t68.5 -9.5q46 0 91 20.5t45 76.5q0 46 -32.5 63.5t-71.5 17.5q-26 0 -47.5 -4.5t-46.5 -11.5l-31 30l109 147q-264 25 -416 225.5t-152 554.5z" />
<glyph unicode="&#xc8;" horiz-adv-x="1302" d="M196 0v1520h914v-134h-762v-532h733v-134h-733v-580h792v-140h-944zM375 1989h178l225 -361h-113z" />
<glyph unicode="&#xc9;" horiz-adv-x="1302" d="M196 0h944v140h-792v580h733v134h-733v532h762v134h-914v-1520zM563 1628l226 361h178l-290 -361h-114z" />
<glyph unicode="&#xca;" horiz-adv-x="1302" d="M196 0v1520h914v-134h-762v-532h733v-134h-733v-580h792v-140h-944zM293 1628l306 361h104l310 -361h-121l-240 255l-239 -255h-120z" />
<glyph unicode="&#xcb;" horiz-adv-x="1302" d="M196 0v1520h914v-134h-762v-532h733v-134h-733v-580h792v-140h-944zM394 1628v183h178v-183h-178zM743 1628v183h179v-183h-179z" />
<glyph unicode="&#xcc;" horiz-adv-x="621" d="M40 1989h178l226 -361h-115zM231 0v1520h154v-1520h-154z" />
<glyph unicode="&#xcd;" horiz-adv-x="621" d="M176 1628l225 361h179l-291 -361h-113zM231 0h154v1520h-154v-1520z" />
<glyph unicode="&#xce;" horiz-adv-x="621" d="M-46 1625l307 361h103l310 -361h-121l-240 254l-238 -254h-121zM231 0v1520h154v-1520h-154z" />
<glyph unicode="&#xcf;" horiz-adv-x="621" d="M49 1628v183h178v-183h-178zM231 0v1520h154v-1520h-154zM398 1628v183h178v-183h-178z" />
<glyph unicode="&#xd0;" horiz-adv-x="1679" d="M62 846h218v674h416q388 0 587 -193t199 -569q0 -375 -197 -566.5t-585 -191.5h-417v723h-218zM429 846h388v-123h-385v-580h252q326 0 480 150.5t154 464.5q0 326 -152.5 475.5t-478.5 149.5h-258v-537z" />
<glyph unicode="&#xd1;" horiz-adv-x="1510" d="M196 0v1523h165l808 -1299v1299h146v-1523h-181l-792 1277v-1277h-146zM420 1615v97q114 75 205 75q59 0 114.5 -20.5t111.5 -38.5q16 -6 35 -9t39 -3q46 0 93 21.5t109 63.5v-98q-111 -75 -202 -75q-58 0 -115.5 21.5t-113.5 37.5q-15 6 -32.5 9.5t-38.5 3.5 q-46 0 -94.5 -21.5t-110.5 -63.5z" />
<glyph unicode="&#xd2;" horiz-adv-x="1572" d="M114 762q0 182 48.5 327t138.5 247.5t215 156.5t279 54q153 0 278.5 -55.5t214.5 -156.5t138.5 -246t49.5 -327q0 -180 -49.5 -326.5t-138.5 -249t-214.5 -157t-278.5 -54.5t-278.5 54.5t-215.5 157t-138.5 248t-48.5 327.5zM277 762q0 -147 37 -263.5t104 -202 t163 -130.5t214 -45t213 45t163.5 128.5t106 202t37.5 265.5q0 149 -37.5 268.5t-107.5 202t-166 127t-212 44.5q-118 0 -212.5 -46t-161.5 -130.5t-104 -203.5t-37 -262zM475 1989h180l224 -361h-114z" />
<glyph unicode="&#xd3;" horiz-adv-x="1572" d="M114 762q0 -183 48.5 -328t138.5 -247.5t215 -157t279 -54.5q153 0 278.5 54.5t214.5 157t138.5 249t49.5 326.5q0 182 -49.5 327t-138.5 246t-214.5 156.5t-278.5 55.5t-278.5 -54t-215.5 -156.5t-138.5 -247.5t-48.5 -327zM277 762q0 143 37 262t104 203.5t161.5 130.5 t212.5 46q117 0 212.5 -44.5t165.5 -127t107.5 -202t37.5 -268.5q0 -147 -37.5 -265.5t-106 -202t-164.5 -128.5t-212 -45q-118 0 -214 45t-163 130.5t-104 202t-37 263.5zM674 1628l224 361h180l-289 -361h-115z" />
<glyph unicode="&#xd4;" horiz-adv-x="1572" d="M114 762q0 182 48.5 327t138.5 247.5t215 156.5t279 54q153 0 278.5 -55.5t214.5 -156.5t138.5 -246t49.5 -327q0 -180 -49.5 -326.5t-138.5 -249t-214.5 -157t-278.5 -54.5t-278.5 54.5t-215.5 157t-138.5 248t-48.5 327.5zM277 762q0 -147 37 -263.5t104 -202 t163 -130.5t214 -45t213 45t163.5 128.5t106 202t37.5 265.5q0 149 -37.5 268.5t-107.5 202t-166 127t-212 44.5q-118 0 -212.5 -46t-161.5 -130.5t-104 -203.5t-37 -262zM426 1628l307 361h103l310 -361h-120l-241 255l-238 -255h-121z" />
<glyph unicode="&#xd5;" horiz-adv-x="1572" d="M114 762q0 182 48.5 327t138.5 247.5t215 156.5t279 54q153 0 278.5 -55.5t214.5 -156.5t138.5 -246t49.5 -327q0 -180 -49.5 -326.5t-138.5 -249t-214.5 -157t-278.5 -54.5t-278.5 54.5t-215.5 157t-138.5 248t-48.5 327.5zM277 762q0 -147 37 -263.5t104 -202 t163 -130.5t214 -45t213 45t163.5 128.5t106 202t37.5 265.5q0 149 -37.5 268.5t-107.5 202t-166 127t-212 44.5q-118 0 -212.5 -46t-161.5 -130.5t-104 -203.5t-37 -262zM460 1615v97q114 75 205 75q58 0 113 -20.5t111 -38.5q16 -6 35.5 -9t39.5 -3q46 0 92.5 21.5 t108.5 63.5v-98q-111 -75 -201 -75q-59 0 -115.5 21.5t-112.5 37.5q-16 6 -34 9.5t-37 3.5q-46 0 -94.5 -21.5t-110.5 -63.5z" />
<glyph unicode="&#xd6;" horiz-adv-x="1699" d="M169 762q0 182 49 327t139 247.5t214.5 156.5t279.5 54q152 0 277 -55.5t215 -156.5t139 -246t49 -327q0 -180 -49 -326.5t-139 -249t-215 -157t-277 -54.5q-153 0 -278.5 54.5t-215.5 157t-139 248t-49 327.5zM332 762q0 -147 37.5 -263.5t104.5 -202t163 -130.5 t214 -45q117 0 212.5 45t164 128.5t106 202t37.5 265.5q0 149 -37.5 268.5t-107.5 202t-166 127t-214 44.5t-211.5 -46t-160.5 -130.5t-104.5 -203.5t-37.5 -262zM584 1628v183h178v-183h-178zM932 1628v183h178v-183h-178z" />
<glyph unicode="&#xd7;" horiz-adv-x="1756" d="M307 134l504 494l-504 496l71 72l501 -496l504 496l72 -72l-504 -496l504 -494l-72 -69l-504 495l-501 -495z" />
<glyph unicode="&#xd8;" horiz-adv-x="1572" d="M114 765q0 183 48.5 329t138.5 247t215 155t279 54q186 0 329 -74l72 139h119l-103 -201q124 -97 194 -264t70 -385q0 -180 -49.5 -326t-138.5 -249t-214.5 -157.5t-278.5 -54.5q-84 0 -161.5 17.5t-142.5 50.5l-55 -105h-123l85 159q-134 100 -209 270.5t-75 394.5z M277 765q0 -174 50.5 -305t144.5 -215l581 1097q-56 32 -121 50t-140 18q-118 0 -212.5 -47.5t-161.5 -132t-104 -203.5t-37 -262zM563 183q52 -26 109.5 -42.5t122.5 -16.5q118 0 213 45.5t163.5 129t106 202t37.5 264.5q0 168 -47 296t-131 213z" />
<glyph unicode="&#xd9;" horiz-adv-x="1504" d="M196 580v940h149v-911q0 -234 96 -361t314 -127q212 0 313 124.5t101 360.5v914h140v-914q0 -137 -19.5 -239.5t-87.5 -190.5q-149 -201 -453 -201q-277 0 -415 157t-138 448zM488 1989h180l224 -361h-114z" />
<glyph unicode="&#xda;" horiz-adv-x="1504" d="M196 580q0 -289 138 -447t415 -158q302 0 453 201q68 88 87.5 190.5t19.5 239.5v914h-140v-914q0 -234 -101 -359.5t-313 -125.5q-218 0 -314 127t-96 361v911h-149v-940zM661 1628l225 361h179l-291 -361h-113z" />
<glyph unicode="&#xdb;" horiz-adv-x="1504" d="M196 580v940h149v-911q0 -234 96 -361t314 -127q212 0 313 124.5t101 360.5v914h140v-914q0 -137 -19.5 -239.5t-87.5 -190.5q-149 -201 -453 -201q-277 0 -415 157t-138 448zM398 1628l305 361h105l308 -361h-119l-242 255l-237 -255h-120z" />
<glyph unicode="&#xdc;" horiz-adv-x="1504" d="M196 580v940h149v-911q0 -234 96 -361t314 -127q212 0 313 124.5t101 360.5v914h140v-914q0 -137 -19.5 -239.5t-87.5 -190.5q-149 -201 -453 -201q-277 0 -415 157t-138 448zM501 1628v183h180v-183h-180zM851 1628v183h178v-183h-178z" />
<glyph unicode="&#xdd;" horiz-adv-x="1349" d="M49 1523l563 -871v-652h153v665l547 858h-166l-453 -718l-459 718h-185zM584 1628l224 361h179l-291 -361h-112z" />
<glyph unicode="&#xde;" horiz-adv-x="1426" d="M270 0v1520h153v-305h218q149 0 262 -11.5t197 -66.5q91 -59 140 -149t49 -193q0 -224 -153 -332t-459 -108h-254v-355h-153zM423 491h310q391 0 391 298q0 159 -94.5 224t-306.5 65h-300v-587z" />
<glyph unicode="&#xdf;" horiz-adv-x="1194" d="M196 0v1196q0 218 99 320.5t301 102.5q180 0 289 -109t109 -289q0 -202 -161 -319q59 -29 99.5 -78.5t65 -102.5t36 -110.5t11.5 -106.5q0 -264 -115.5 -398.5t-333.5 -134.5h-81v134q46 -10 84 -11q118 0 179 62q62 62 99 127t37 167q0 202 -98.5 286t-300.5 84v134 q183 0 264 63.5t81 203.5q0 40 -12 91.5t-41 95.5t-81 75t-130 31q-90 0 -142.5 -27t-80.5 -71.5t-36 -103.5t-8 -116v-1196h-133z" />
<glyph unicode="&#xe0;" horiz-adv-x="1087" d="M97 299q0 159 135 256t380 97h177v113q0 205 -248 205q-234 0 -252 -188h-149q16 150 120 226t281 76q189 0 289 -81q78 -65 94.5 -147t16.5 -195v-456q0 -46 5 -96t11 -109h-143l-9 156q-121 -178 -352 -178q-165 0 -260.5 85.5t-95.5 235.5zM242 299q0 -88 59.5 -145 t170.5 -57q143 0 230 86.5t87 210.5v143h-148q-205 0 -302 -65t-97 -173zM264 1560h180l224 -361h-115z" />
<glyph unicode="&#xe1;" horiz-adv-x="1087" d="M97 299q0 -150 95.5 -235.5t260.5 -85.5q231 0 352 178l9 -156h143q-6 59 -11 109t-5 96v456q0 115 -16.5 196t-94.5 146q-100 81 -289 81q-177 0 -281 -76t-120 -226h149q16 189 252 188q248 0 248 -205v-113h-177q-245 0 -380 -96t-135 -257zM242 299q0 108 97 173 t302 65h148v-143q0 -124 -87 -210.5t-230 -86.5q-111 0 -170.5 57t-59.5 145zM417 1199l224 361h179l-289 -361h-114z" />
<glyph unicode="&#xe2;" horiz-adv-x="1087" d="M97 299q0 159 135 256t380 97h177v113q0 205 -248 205q-234 0 -252 -188h-149q16 150 120 226t281 76q189 0 289 -81q78 -65 94.5 -147t16.5 -195v-456q0 -46 5 -96t11 -109h-143l-9 156q-121 -178 -352 -178q-165 0 -260.5 85.5t-95.5 235.5zM196 1199l305 361h105 l308 -361h-119l-242 253l-237 -253h-120zM242 299q0 -88 59.5 -145t170.5 -57q143 0 230 86.5t87 210.5v143h-148q-205 0 -302 -65t-97 -173z" />
<glyph unicode="&#xe3;" horiz-adv-x="1087" d="M97 299q0 159 135 256t380 97h177v113q0 205 -248 205q-234 0 -252 -188h-149q16 150 120 226t281 76q189 0 289 -81q78 -65 94.5 -147t16.5 -195v-456q0 -46 5 -96t11 -109h-143l-9 156q-121 -178 -352 -178q-165 0 -260.5 85.5t-95.5 235.5zM202 1199v97q114 75 205 75 q59 0 114 -21t110 -38q16 -7 36 -10t39 -3q46 0 93 21.5t109 62.5v-97q-111 -74 -202 -74q-59 0 -115.5 20.5t-111.5 37.5q-16 7 -34.5 10t-37.5 3q-46 0 -94.5 -21.5t-110.5 -62.5zM242 299q0 -88 59.5 -145t170.5 -57q143 0 230 86.5t87 210.5v143h-148q-205 0 -302 -65 t-97 -173z" />
<glyph unicode="&#xe4;" horiz-adv-x="1087" d="M97 299q0 159 135 256t380 97h177v113q0 205 -248 205q-234 0 -252 -188h-149q16 150 120 226t281 76q189 0 289 -81q78 -65 94.5 -147t16.5 -195v-456q0 -46 5 -96t11 -109h-143l-9 156q-121 -178 -352 -178q-165 0 -260.5 85.5t-95.5 235.5zM242 299q0 -88 59.5 -145 t170.5 -57q143 0 230 86.5t87 210.5v143h-148q-205 0 -302 -65t-97 -173zM293 1199v181h179v-181h-179zM641 1199v181h179v-181h-179z" />
<glyph unicode="&#xe5;" horiz-adv-x="1087" d="M97 299q0 -150 95.5 -235.5t260.5 -85.5q231 0 352 178l9 -156h143q-6 59 -11 109t-5 96v456q0 115 -16.5 196t-94.5 146q-100 81 -289 81q-177 0 -281 -76t-120 -226h149q16 189 252 188q248 0 248 -205v-113h-177q-245 0 -380 -96t-135 -257zM242 299q0 108 97 173 t302 65h148v-143q0 -124 -87 -210.5t-230 -86.5q-111 0 -170.5 57t-59.5 145zM345 1420q0 84 56.5 152.5t170.5 68.5q115 0 174 -68.5t59 -152.5t-59 -154t-174 -70q-114 0 -170.5 70t-56.5 154zM450 1420q0 -46 30 -83.5t92 -37.5q66 0 95 37.5t29 83.5t-29 83.5t-95 37.5 q-62 0 -92 -37.5t-30 -83.5z" />
<glyph unicode="&#xe6;" horiz-adv-x="1836" d="M97 299q0 159 135 256t380 97h177v113q0 205 -248 205q-234 0 -252 -188h-149q16 150 120 226t281 76q186 0 292 -81q46 -36 72 -89q65 81 161 125.5t214 44.5q215 0 345 -141.5t130 -389.5v-46h-814q7 -202 96.5 -306t251.5 -104q115 0 199.5 67t107.5 181h150 q-26 -176 -150 -273t-319 -97q-199 0 -329 112l9 -87h-143l-9 156q-56 -88 -146 -133t-203 -45q-165 0 -262 85.5t-97 235.5zM242 299q0 -88 59.5 -145t170.5 -57q143 0 230 86.5t87 210.5v4q-10 58 -11 124v15h-137q-205 0 -302 -65t-97 -173zM948 631h648q-6 156 -96 246 t-230 90q-130 0 -213.5 -86t-108.5 -250z" />
<glyph unicode="&#xe7;" horiz-adv-x="1001" d="M65 518q0 277 127.5 421.5t351.5 144.5q186 0 295 -94.5t115 -269.5h-159q-6 115 -77.5 173t-180.5 58q-149 0 -232.5 -114t-83.5 -312q0 -202 80.5 -313.5t235.5 -111.5q109 0 177 59t87 173h153q-13 -176 -118.5 -265t-288.5 -92l-75 -96q19 7 39 10t39 3 q69 0 112.5 -36t51.5 -74q3 -13 3 -40q0 -93 -72.5 -135.5t-165.5 -42.5q-50 0 -98.5 13t-94.5 29l34 62q36 -10 68 -19.5t68 -9.5q46 0 91.5 20.5t45.5 76.5q0 46 -32.5 63.5t-72.5 17.5q-25 0 -46.5 -4.5t-47.5 -11.5l-30 30l108 150q-195 19 -301 160.5t-106 376.5z" />
<glyph unicode="&#xe8;" horiz-adv-x="1147" d="M91 522q0 127 35.5 231t101 177t158.5 113.5t207 40.5q215 0 345 -141.5t130 -389.5v-46h-814q4 -202 94.5 -306t254.5 -104q114 0 198.5 67t103.5 181h151q-26 -176 -150 -273t-319 -97q-228 0 -362 147.5t-134 399.5zM258 631h650q-10 156 -97.5 246t-226.5 90 q-131 0 -216 -86t-110 -250zM296 1560h179l225 -361h-113z" />
<glyph unicode="&#xe9;" horiz-adv-x="1147" d="M91 522q0 -252 133.5 -399.5t362.5 -147.5q195 0 318.5 97t150.5 273h-151q-19 -114 -103.5 -181t-198.5 -67q-163 0 -254 105t-95 305h814v46q0 248 -130 389.5t-345 141.5q-114 0 -207 -40.5t-158.5 -113.5t-101 -177t-35.5 -231zM258 631q25 162 110 249t216 87 q139 0 226.5 -89t97.5 -247h-650zM466 1199l224 361h180l-290 -361h-114z" />
<glyph unicode="&#xea;" horiz-adv-x="1147" d="M91 522q0 127 35.5 231t101 177t158.5 113.5t207 40.5q215 0 345 -141.5t130 -389.5v-46h-814q4 -202 94.5 -306t254.5 -104q114 0 198.5 67t103.5 181h151q-26 -176 -150 -273t-319 -97q-228 0 -362 147.5t-134 399.5zM227 1199l307 361h104l310 -361h-121l-240 253 l-239 -253h-121zM258 631h650q-10 156 -97.5 246t-226.5 90q-131 0 -216 -86t-110 -250z" />
<glyph unicode="&#xeb;" horiz-adv-x="1147" d="M91 522q0 127 35.5 231t101 177t158.5 113.5t207 40.5q215 0 345 -141.5t130 -389.5v-46h-814q4 -202 94.5 -306t254.5 -104q114 0 198.5 67t103.5 181h151q-26 -176 -150 -273t-319 -97q-228 0 -362 147.5t-134 399.5zM258 631h650q-10 156 -97.5 246t-226.5 90 q-131 0 -216 -86t-110 -250zM323 1202v181h178v-181h-178zM671 1202v181h180v-181h-180z" />
<glyph unicode="&#xec;" horiz-adv-x="507" d="M0 1560h180l224 -361h-115zM192 0v1065h147v-1065h-147z" />
<glyph unicode="&#xed;" horiz-adv-x="507" d="M137 1199l224 361h180l-290 -361h-114zM192 0h147v1065h-147v-1065z" />
<glyph unicode="&#xee;" horiz-adv-x="507" d="M-87 1199l305 361h105l308 -361h-119l-242 253l-238 -253h-119zM192 0v1065h147v-1065h-147z" />
<glyph unicode="&#xef;" horiz-adv-x="507" d="M3 1199v181h180v-181h-180zM192 0v1065h147v-1065h-147zM351 1199v181h180v-181h-180z" />
<glyph unicode="&#xf0;" horiz-adv-x="1364" d="M186 475q0 115 36 205.5t102.5 156t155.5 101t197 35.5q150 0 261 -75q-97 169 -229 298l-324 -134l-46 97l280 115q-66 52 -129.5 92.5t-131.5 75.5l74 86q75 -37 157 -83.5t176 -115.5l257 104l43 -94l-214 -92q322 -314 321 -740q0 -251 -135 -391.5t-360 -140.5 q-108 0 -198.5 35.5t-155.5 102.5t-101 159t-36 203zM339 485q0 -180 91.5 -280t246.5 -100q156 0 249 101t93 279q0 176 -93 277t-249 101q-155 0 -246.5 -101t-91.5 -277z" />
<glyph unicode="&#xf1;" horiz-adv-x="1165" d="M162 1062h148l6 -164q150 177 336 177q195 0 281 -109t86 -298v-668h-146v652q0 130 -52.5 211t-186.5 81q-136 0 -227 -91t-91 -215v-638h-143v814q0 130 -11 248zM242 1199v97q114 75 205 75q59 0 113.5 -21t110.5 -38q16 -7 36 -10t39 -3q46 0 93 21.5t109 62.5v-97 q-112 -74 -202 -74q-59 0 -116.5 20.5t-111.5 37.5q-16 7 -34 10t-37 3q-46 0 -95.5 -21.5t-109.5 -62.5z" />
<glyph unicode="&#xf2;" horiz-adv-x="1168" d="M97 531q0 127 38 229.5t102.5 176t156 112.5t199.5 39t197 -39t156 -112.5t104.5 -176t37.5 -229.5t-37.5 -229.5t-103 -176t-156.5 -112t-198 -38.5q-108 0 -199.5 38.5t-156 112t-102.5 176t-38 229.5zM251 531q0 -186 92.5 -306t249.5 -120q153 0 246 117t93 309 q0 186 -91.5 306t-247.5 120q-71 0 -135 -32.5t-110 -87.5t-71.5 -133.5t-25.5 -172.5zM302 1560h180l224 -361h-113z" />
<glyph unicode="&#xf3;" horiz-adv-x="1168" d="M97 531q0 -127 38 -229.5t102.5 -176t156 -112t199.5 -38.5t198.5 38.5t156 112t103 176t37.5 229.5t-37.5 229.5t-104.5 176t-156.5 112.5t-196.5 39q-108 0 -199.5 -39t-156 -112.5t-102.5 -176t-38 -229.5zM251 531q0 94 25.5 172.5t71.5 133.5t110 87.5t135 32.5 q156 0 247.5 -120t91.5 -306q0 -192 -93 -309t-246 -117q-156 0 -249 120t-93 306zM472 1199l224 361h180l-289 -361h-115z" />
<glyph unicode="&#xf4;" horiz-adv-x="1168" d="M97 531q0 127 38 229.5t102.5 176t156 112.5t199.5 39t197 -39t156 -112.5t104.5 -176t37.5 -229.5t-37.5 -229.5t-103 -176t-156.5 -112t-198 -38.5q-108 0 -199.5 38.5t-156 112t-102.5 176t-38 229.5zM242 1199l305 361h105l308 -361h-120l-241 253l-238 -253h-119z M251 531q0 -186 92.5 -306t249.5 -120q153 0 246 117t93 309q0 186 -91.5 306t-247.5 120q-71 0 -135 -32.5t-110 -87.5t-71.5 -133.5t-25.5 -172.5z" />
<glyph unicode="&#xf5;" horiz-adv-x="1168" d="M97 531q0 127 38 229.5t102.5 176t156 112.5t199.5 39t197 -39t156 -112.5t104.5 -176t37.5 -229.5t-37.5 -229.5t-103 -176t-156.5 -112t-198 -38.5q-108 0 -199.5 38.5t-156 112t-102.5 176t-38 229.5zM238 1199v97q115 75 206 75q58 0 113 -21t111 -38q16 -7 35.5 -10 t39.5 -3q46 0 92.5 21.5t108.5 62.5v-97q-111 -74 -201 -74q-59 0 -116.5 20.5t-111.5 37.5q-16 7 -34 10t-37 3q-46 0 -95.5 -21.5t-110.5 -62.5zM251 531q0 -186 92.5 -306t249.5 -120q153 0 246 117t93 309q0 186 -91.5 306t-247.5 120q-71 0 -135 -32.5t-110 -87.5 t-71.5 -133.5t-25.5 -172.5z" />
<glyph unicode="&#xf6;" horiz-adv-x="1168" d="M97 531q0 127 38 229.5t102.5 176t156 112.5t199.5 39t197 -39t156 -112.5t104.5 -176t37.5 -229.5t-37.5 -229.5t-103 -176t-156.5 -112t-198 -38.5q-108 0 -199.5 38.5t-156 112t-102.5 176t-38 229.5zM251 531q0 -186 92.5 -306t249.5 -120q153 0 246 117t93 309 q0 186 -91.5 306t-247.5 120q-71 0 -135 -32.5t-110 -87.5t-71.5 -133.5t-25.5 -172.5zM335 1199v181h180v-181h-180zM684 1199v181h179v-181h-179z" />
<glyph unicode="&#xf7;" horiz-adv-x="1230" d="M91 453v123h1036v-123h-1036zM485 234q0 49 34 85t80 36q47 0 81 -36t34 -85q0 -50 -34 -85t-81 -35q-46 0 -80 36t-34 84zM485 795q0 49 34 84t80 35q47 0 81 -35.5t34 -83.5q0 -49 -34 -85t-81 -36q-46 0 -80 36t-34 85z" />
<glyph unicode="&#xf8;" horiz-adv-x="1168" d="M97 534q0 127 38 230t102.5 176t156 112t199.5 39q127 0 231 -56l55 92h131l-99 -157q84 -75 130.5 -185.5t46.5 -250.5q0 -127 -37.5 -229.5t-103 -175.5t-156.5 -112t-198 -39q-143 0 -258 68l-42 -68h-131l89 140q-71 74 -112.5 178.5t-41.5 237.5zM251 534 q0 -176 81 -286l417 671q-75 43 -156 41q-71 0 -135 -32.5t-110 -87.5t-71.5 -133.5t-25.5 -172.5zM410 162q75 -54 183 -54q153 0 246 117t93 309q0 193 -99 309z" />
<glyph unicode="&#xf9;" horiz-adv-x="1144" d="M146 378v684h147v-668q0 -124 55.5 -205t182.5 -81q68 0 125.5 24t99.5 67t66 96t24 112v655h148v-814q0 -68 1.5 -128.5t4.5 -119.5h-146v149q-150 -173 -342 -171q-189 0 -277.5 101t-88.5 299zM238 1560h179l224 -361h-113z" />
<glyph unicode="&#xfa;" horiz-adv-x="1144" d="M146 378q0 -198 88.5 -299t277.5 -101q192 0 342 171v-149h146q-3 59 -4.5 119.5t-1.5 128.5v814h-148v-655q0 -59 -24 -112t-66 -96t-99.5 -67t-125.5 -24q-127 0 -182.5 81t-55.5 205v668h-147v-684zM482 1199l224 361h180l-290 -361h-114z" />
<glyph unicode="&#xfb;" horiz-adv-x="1144" d="M146 378v684h147v-668q0 -124 55.5 -205t182.5 -81q68 0 125.5 24t99.5 67t66 96t24 112v655h148v-814q0 -68 1.5 -128.5t4.5 -119.5h-146v149q-150 -173 -342 -171q-189 0 -277.5 101t-88.5 299zM208 1199l307 361h104l310 -361h-121l-242 253l-237 -253h-121z" />
<glyph unicode="&#xfc;" horiz-adv-x="966" d="M65 378v684h146v-668q0 -124 56 -205t183 -81q68 0 124.5 24t99.5 67t67 96t24 112v655h146v-814q0 -68 1.5 -128.5t6.5 -119.5h-148v149q-149 -173 -342 -171q-189 0 -276.5 101t-87.5 299zM224 1199v181h180v-181h-180zM572 1199v181h180v-181h-180z" />
<glyph unicode="&#xfd;" horiz-adv-x="1138" d="M65 1062l426 -1016l-159 -447h153l571 1463h-134l-346 -857l-345 857h-166zM460 1199l224 361h179l-291 -361h-112z" />
<glyph unicode="&#xfe;" horiz-adv-x="1337" d="M248 -401v1921h146v-609q118 177 342 177q205 0 329 -149.5t124 -404.5q0 -264 -120.5 -411.5t-322.5 -147.5q-118 0 -202 42t-150 136v-554h-146zM398 528q0 -205 88 -316.5t237 -111.5q150 0 231 111.5t81 325.5q0 206 -82.5 318t-229.5 112q-152 0 -238.5 -112 t-86.5 -327z" />
<glyph unicode="&#xff;" horiz-adv-x="1138" d="M65 1062h166l345 -857l346 857h153l-420 -1030l-170 -433h-153l159 447zM302 1199v181h180v-181h-180zM652 1199v181h178v-181h-178z" />
<glyph unicode="&#x131;" horiz-adv-x="543" d="M196 0v1520h152v-1520h-152z" />
<glyph unicode="&#x141;" horiz-adv-x="1299" d="M52 677v128l169 84v634h146v-526l170 84v-127l-170 -84v-746h818v-124h-964v762z" />
<glyph unicode="&#x142;" horiz-adv-x="516" d="M40 634v128l149 84v677h131v-569l149 84v-127l-149 -84v-827h-131v720z" />
<glyph unicode="&#x152;" horiz-adv-x="2222" d="M114 758q0 376 174.5 582.5t489.5 206.5q108 0 193 -28t145 -74v75h916v-134h-762v-532h733v-134h-733v-580h791v-140h-945v81q-137 -108 -364 -106q-292 0 -465 205t-173 578zM280 752q0 -307 133.5 -469t354.5 -162q137 0 223.5 55t124.5 150v859q-25 84 -109.5 151.5 t-238.5 67.5q-221 0 -354.5 -168t-133.5 -484z" />
<glyph unicode="&#x153;" horiz-adv-x="2160" d="M173 531q0 127 37.5 231.5t102.5 177.5t156 112t199 39q137 0 244 -63.5t172 -173.5q66 111 171.5 172.5t248.5 61.5q215 0 345.5 -141.5t130.5 -393.5v-46h-815q4 -199 95.5 -304.5t253.5 -105.5q114 0 198.5 67t104.5 184h150q-26 -179 -150 -276t-319 -97 q-143 0 -249 59.5t-168 170.5q-65 -108 -170.5 -169t-242.5 -61q-108 0 -199 40.5t-156 113.5t-102.5 175.5t-37.5 226.5zM326 531q0 -186 93 -304.5t249 -118.5q143 0 233 101t105 273q-3 12 -3 40v28t3 26q-12 168 -102 274.5t-236 106.5t-244 -118.5t-98 -307.5z M1169 634h652q-10 156 -98 244.5t-228 88.5q-131 0 -215 -84.5t-111 -248.5z" />
<glyph unicode="&#x160;" horiz-adv-x="1249" d="M97 404h164q3 -143 101 -213t263 -70q176 0 275.5 74.5t99.5 195.5q0 56 -24.5 104.5t-80.5 88.5q-22 15 -53 29.5t-74 32.5q-40 15 -88.5 29.5t-103.5 33.5q-218 78 -328.5 168t-110.5 257q0 179 133.5 293t357.5 114q231 0 359.5 -93t142.5 -270h-157q-13 224 -324 226 q-169 0 -262.5 -71.5t-93.5 -186.5q0 -108 96 -174.5t288 -131.5q56 -20 104.5 -35.5t94.5 -36.5q91 -37 146 -81q131 -118 131 -286q0 -193 -141.5 -305t-389.5 -112q-485 0 -525 420zM267 1992h121l240 -253l239 253h120l-306 -361h-105z" />
<glyph unicode="&#x161;" horiz-adv-x="1031" d="M87 293h151q16 -202 266 -202q140 0 215.5 58.5t75.5 143.5q0 81 -60.5 117.5t-184.5 68.5l-180 49q-39 13 -69.5 20.5t-52.5 23.5q-127 78 -127 217q0 140 104 219.5t293 79.5q183 0 281.5 -75t105.5 -224h-150q-19 186 -243 184q-124 0 -186 -45.5t-62 -119.5 q0 -85 81 -118q43 -22 105 -35q32 -9 67.5 -18t78.5 -18q174 -47 261 -108t87 -204q0 -153 -115 -242.5t-322 -89.5q-404 0 -420 318zM149 1563h121l242 -254l237 254h121l-307 -361h-103z" />
<glyph unicode="&#x178;" horiz-adv-x="1349" d="M49 1523h185l459 -718l453 718h166l-547 -858v-665h-153v652zM426 1628v183h180v-183h-180zM774 1628v183h180v-183h-180z" />
<glyph unicode="&#x17d;" horiz-adv-x="1295" d="M97 0v153l894 1237h-861v133h1042v-143l-905 -1240h932v-140h-1102zM299 1992h121l241 -253l237 253h121l-305 -361h-105z" />
<glyph unicode="&#x17e;" horiz-adv-x="976" d="M97 0v137l593 801h-576v124h749v-133l-583 -802h599v-127h-782zM143 1563h121l240 -254l239 254h120l-307 -361h-103z" />
<glyph unicode="&#x192;" horiz-adv-x="1100" d="M-52 -391l39 121q32 -19 53.5 -24t56.5 -5q62 0 108 53.5t82 157.5t68.5 254t64.5 338l62 342h-240v102h256q19 87 42 193t67.5 197t116 153t187.5 62q78 0 151 -43l-43 -103q-25 16 -51.5 24t-62.5 8h-22.5t-25.5 -3q-62 -10 -96 -62.5t-55.5 -122.5t-36 -151 t-35.5 -152h245v-102h-260l-137 -709q-22 -112 -51.5 -212.5t-79 -175.5t-118 -118.5t-168.5 -43.5q-55 0 -117 22z" />
<glyph unicode="&#x2c6;" horiz-adv-x="1082" d="M199 1199l305 361h105l310 -361h-121l-242 253l-236 -253h-121z" />
<glyph unicode="&#x2c7;" horiz-adv-x="1082" d="M192 1560h121l240 -255l239 255h119l-305 -361h-105z" />
<glyph unicode="&#x2d8;" horiz-adv-x="1044" d="M245 1466h84q16 -87 75 -130t146 -43q180 0 228 173h79q-16 -137 -101 -202t-215 -65q-128 0 -207.5 71.5t-88.5 195.5z" />
<glyph unicode="&#x2d9;" horiz-adv-x="1628" d="M634 1495v182h180v-182h-180z" />
<glyph unicode="&#x2da;" horiz-adv-x="998" d="M296 1420q0 84 57 152.5t172 68.5q114 0 172 -68.5t58 -152.5t-58.5 -154t-171.5 -70q-115 0 -172 70t-57 154zM401 1420q0 -46 31 -83.5t93 -37.5q65 0 94.5 37.5t29.5 83.5t-29.5 83.5t-94.5 37.5q-62 0 -93 -37.5t-31 -83.5z" />
<glyph unicode="&#x2db;" horiz-adv-x="992" d="M332 -215q0 75 48.5 130.5t110.5 87.5h105v-3q-22 -13 -53 -32.5t-55.5 -42t-43 -50.5t-18.5 -61q0 -62 44.5 -91.5t98.5 -29.5q46 0 89 21v-96q-46 -16 -108 -16q-84 0 -151 45.5t-67 137.5z" />
<glyph unicode="&#x2dc;" horiz-adv-x="1113" d="M205 1199v97q115 75 205 75q59 0 114.5 -21t109.5 -38q16 -7 36 -10t39 -3q46 0 94 21.5t108 62.5v-97q-111 -74 -202 -74q-59 0 -115.5 20.5t-111.5 37.5q-16 7 -34.5 10t-37.5 3q-46 0 -94.5 -21.5t-110.5 -62.5z" />
<glyph unicode="&#x2dd;" horiz-adv-x="1113" d="M280 1199l224 361h180l-290 -361h-114zM556 1199l226 361h178l-289 -361h-115z" />
<glyph unicode="&#xe00;" />
<glyph unicode="&#xe01;" horiz-adv-x="1392" d="M176 1016q62 94 153 145t175 76q100 29 213 33q100 0 187 -24.5t149.5 -71.5t99 -119t36.5 -166v-889h-133v908q0 59 -29.5 106.5t-80.5 78.5t-116 48.5t-134 17.5q-84 0 -166.5 -26t-151.5 -80q40 -10 80 -31.5t73 -45.5q37 -25 72 -54q-69 -13 -108 -51t-56 -79 q-19 -49 -22 -108v-684h-134v674q0 108 42 166t95 82q-26 26 -68 41.5t-82 30.5q-46 12 -94 22z" />
<glyph unicode="&#xe02;" horiz-adv-x="1256" d="M72 957q0 69 34 127.5t86.5 99t115 63.5t121.5 23q177 0 263 -93t86 -217q0 -65 -19.5 -97.5t-42.5 -62t-42 -68.5t-19 -113v-501h178q56 0 83.5 22t27.5 87v1026h134v-1035q0 -84 -45.5 -151t-178.5 -67h-463v118h134v475q0 97 19 144.5t43.5 78t44.5 64.5t20 107 q0 75 -59 125t-143 50q-72 0 -105 -32q65 -6 97.5 -40t48.5 -71q16 -43 21 -90q0 -32 -15 -68.5t-44.5 -67.5t-70 -50.5t-89.5 -19.5q-56 0 -98 21t-70 55t-40.5 74.5t-12.5 83.5zM189 944q0 -39 25.5 -73.5t78.5 -34.5q55 0 80 34.5t25 73.5q0 40 -25 72t-80 32 q-53 0 -78.5 -32.5t-25.5 -71.5z" />
<glyph unicode="&#xe03;" horiz-adv-x="1376" d="M72 889q0 97 34 169t81 117.5t96 67t78 21.5q3 0 8.5 -1.5t21.5 -12t48.5 -31t91.5 -57.5l150 102q31 -9 69.5 -35.5t71 -62.5t54.5 -82t22 -97q0 -65 -19 -103t-40.5 -70t-41 -68.5t-19.5 -96.5v-531h186q104 0 104 97v1038h131v-1045q0 -105 -59 -156.5t-164 -51.5 h-464v118h137v537q0 59 19 98t43.5 71.5t43.5 66.5t19 82q0 84 -37 122.5t-56 50.5l-150 -101l-173 111q-19 0 -45.5 -16t-47 -37.5t-37.5 -47.5t-17 -49q10 7 23 16q25 16 82 16q88 0 151.5 -58t63.5 -147q0 -75 -55.5 -144.5t-159.5 -69.5q-71 0 -120.5 27.5t-75.5 68 t-37 88.5t-11 86zM208 830q0 -40 26.5 -71.5t78.5 -31.5q53 0 78.5 31t25.5 69q0 40 -25.5 72.5t-78.5 32.5q-52 0 -78.5 -31t-26.5 -71z" />
<glyph unicode="&#xe04;" horiz-adv-x="1376" d="M183 792q0 124 45 214.5t120 149.5t168 86.5t184 27.5q93 0 183 -26t160 -80t113 -133.5t43 -187.5v-843h-131v827q0 81 -32.5 141.5t-85 101t-119 62t-135.5 21.5q-68 0 -136.5 -21.5t-121.5 -63.5t-87.5 -106t-34.5 -148q0 -71 11.5 -123.5t24 -96.5t24.5 -81.5 t12 -80.5v-22q0 -9 -3 -19l44 293q19 117 83 190.5t178 73.5q105 0 155 -65.5t50 -139.5q0 -78 -53 -148t-161 -70q-78 0 -109 25.5t-41 33.5l-108 -584h-137v289q0 94 -16 153t-35.5 108t-35.5 101.5t-16 140.5zM584 736q0 -43 23.5 -75.5t76.5 -32.5q55 0 80 32.5t25 75.5 t-25 75t-80 32q-53 0 -76.5 -32.5t-23.5 -74.5z" />
<glyph unicode="&#xe05;" horiz-adv-x="1380" d="M183 857q0 75 24 141.5t66.5 120t96 91t112.5 51.5q36 9 65 9q32 0 56 -17l136 -103q29 25 55 43.5t46 33.5q22 16 42 26q26 16 50 17q6 0 25 -4.5t37 -12.5q62 -26 104 -63t61 -74q26 -43 34.5 -91.5t8.5 -113.5v-911h-130v911q0 46 -2 64.5t-11 50.5q-13 36 -48 80 t-89 50l-27 -16q-19 -13 -56.5 -39t-102.5 -75q-62 52 -111 84q-26 16 -45 33q-12 10 -33 10q-16 0 -32.5 -6.5t-32.5 -12.5q-62 -32 -115.5 -111t-53.5 -196q0 -72 18.5 -148t43.5 -148q13 -37 14.5 -64.5t1.5 -75.5l41 293q16 117 82 185.5t179 68.5q105 0 155 -66.5 t50 -141.5q0 -78 -51.5 -145t-153.5 -70q-84 0 -116.5 25.5t-42.5 31.5l-108 -572h-137v310q0 81 -15.5 143t-37 120t-37.5 125t-16 159zM587 727q0 -43 23.5 -75.5t76.5 -32.5q56 0 80.5 32.5t24.5 75.5t-24.5 74.5t-80.5 31.5q-53 0 -76.5 -32.5t-23.5 -73.5z" />
<glyph unicode="&#xe06;" horiz-adv-x="1604" d="M72 889q0 97 34 169t83 117.5t97.5 67t77.5 21.5q3 0 10.5 -1.5t23 -12t48.5 -31t85 -57.5l150 102q93 -32 155 -112t62 -165q0 -65 -17.5 -103t-40.5 -70t-40.5 -68.5t-17.5 -93.5v-208q177 -40 303.5 -108.5t210.5 -143.5v1061h130v-1253h-152q-16 40 -65.5 88.5 t-114.5 93.5t-141.5 81t-151.5 47q10 -22 11.5 -52.5t1.5 -55.5q-6 -81 -62 -146.5t-149 -65.5q-112 0 -170 72t-58 156q0 87 64.5 162.5t206.5 75.5v212q0 49 20.5 86.5t45 71.5t43.5 70t19 77q0 59 -23.5 106.5t-69.5 63.5l-150 -98l-173 111q-19 0 -44 -16t-47 -37.5 t-37 -47.5t-15 -45q0 -4 23 12t78 16q88 0 151.5 -56.5t63.5 -151.5q0 -75 -55.5 -141.5t-159.5 -66.5q-71 0 -119 27.5t-75.5 68t-38.5 87t-11 84.5zM211 830q0 -40 25 -71.5t74 -31.5q56 0 81.5 31t25.5 69q0 40 -25.5 72.5t-78.5 32.5q-52 0 -77 -31t-25 -71zM485 221 q0 -52 31 -88t77 -36t76.5 36t30.5 88t-25.5 86.5t-81.5 37.5q-46 0 -77 -36t-31 -88z" />
<glyph unicode="&#xe07;" horiz-adv-x="1001" d="M121 606l117 65l325 -506q16 -25 32.5 -28t32.5 -3q37 0 51 27.5t14 96.5v609q-49 -13 -94 -13q-105 0 -155 64.5t-50 143.5q0 75 52 141.5t157 66.5q114 0 167.5 -66.5t53.5 -168.5v-784q0 -49 -8 -106.5t-45 -92.5q-13 -15 -44 -40t-81 -25q-82 0 -124.5 34.5 t-77.5 86.5zM501 1062q0 -43 26 -75.5t79 -32.5q55 0 79 32.5t24 75.5t-24 75t-79 32q-53 0 -79 -33t-26 -74z" />
<glyph unicode="&#xe08;" horiz-adv-x="1194" d="M59 951q32 78 89 138.5t125.5 101t144.5 60t151 19.5q124 0 214 -40.5t149 -105.5t87.5 -151.5t28.5 -177.5q0 -19 -5 -55.5t-11 -58.5q-10 -56 -26 -150q-15 -81 -38.5 -210t-59.5 -321h-130l-91 576q-56 -72 -169 -72q-93 0 -147.5 60.5t-54.5 149.5q0 108 68.5 161.5 t146.5 53.5q68 0 115 -25t76.5 -64t46 -89.5t26.5 -101.5q0 -10 6 -50q7 -36 18 -103t27 -189q25 165 40.5 256.5t21.5 136.5q9 55 11 68q3 13 3 31v21q0 101 -52 177q-46 62 -119.5 107.5t-197.5 48.5q-52 0 -110 -16t-112 -47t-98 -80.5t-64 -117.5zM423 709 q0 -43 26 -74.5t79 -31.5q56 0 79.5 32.5t23.5 73.5q0 43 -23.5 75.5t-79.5 32.5q-53 0 -79 -32.5t-26 -75.5z" />
<glyph unicode="&#xe09;" horiz-adv-x="1435" d="M137 619q0 84 62 147.5t149 63.5q115 0 166.5 -76.5t51.5 -163.5v-401q100 112 216 166.5t234 91.5v399q0 43 -14.5 97t-54 99.5t-108 78t-171.5 32.5q-166 0 -263.5 -78t-146.5 -183l-115 59q19 46 59 101t102.5 104t152.5 81.5t208 32.5q152 0 248.5 -47.5t148 -114.5 t70 -140t18.5 -128v-387q71 -6 108.5 -40.5t53.5 -77.5q19 -49 27 -108q0 -43 -12 -86.5t-36 -77.5t-65 -55t-96 -21q-39 0 -76.5 9.5t-70 36t-52.5 70t-20 112.5v19q0 9 4 22.5t7 29.5q-84 -40 -157 -84q-62 -40 -114 -90t-67 -112h-152v423q-15 -3 -28 -6q-13 -4 -29.5 -7 t-32.5 -3q-81 0 -143 59t-62 153zM245 619q0 -40 24 -73.5t76 -33.5q56 0 80.5 34t24.5 73t-24.5 71.5t-80.5 32.5q-52 0 -76 -32.5t-24 -71.5zM1026 218q0 -49 24.5 -88t76.5 -39q53 0 78.5 39t25.5 85q0 49 -27 89.5t-77 40.5q-52 0 -76.5 -39t-24.5 -88z" />
<glyph unicode="&#xe0a;" horiz-adv-x="1321" d="M72 960q0 72 34 129t89.5 97.5t124 62t136.5 21.5q94 0 190.5 -31t161.5 -126q19 0 45 8.5t63.5 32.5t84.5 70t109 124l89 -78q-37 -46 -75 -89q-36 -36 -81.5 -72.5t-98.5 -55.5q32 -7 57 -22t40 -28q20 -12 37 -30q25 -25 35.5 -58t10.5 -98v-606q0 -81 -47.5 -146 t-171.5 -65h-476v118h134v516q0 69 21.5 110t46 75.5t45 73.5t20.5 107q0 26 -9.5 53.5t-45.5 53.5q-32 25 -79 41.5t-96 16.5q-59 0 -105 -28q52 -10 83 -36t45.5 -57t18.5 -60.5t4 -42.5q0 -90 -63.5 -144t-149.5 -54q-68 0 -112 21t-70 51.5t-35.5 70t-9.5 74.5zM186 957 q0 -40 27 -71.5t80 -31.5q52 0 78.5 32.5t26.5 70.5q0 37 -25 69.5t-77 32.5q-56 0 -83 -31t-27 -71zM693 118h189q69 0 89 32.5t20 73.5v600q0 36 -21 71q-16 29 -50 56.5t-100 42.5q0 -78 -19 -119.5t-43.5 -72.5t-44.5 -66.5t-20 -107.5v-510z" />
<glyph unicode="&#xe0b;" horiz-adv-x="1361" d="M72 908q0 22 6 66.5t27.5 97t65.5 102.5t115 84q16 6 34.5 9t21.5 3q13 0 19 -3l137 -102l140 105q43 -9 79 -30q32 -16 67.5 -47t61.5 -80q16 0 31 4t25 7q14 3 20 6q65 37 120 96.5t108 121.5l87 -78q-37 -46 -75 -89q-36 -36 -80 -71t-99 -57q25 -7 45 -19t37 -21 q16 -13 32 -19q65 -56 65 -140v-643q0 -111 -60.5 -161t-157.5 -50h-475v118h134v528q0 65 21.5 102t48.5 71.5t48.5 78t21.5 121.5q0 49 -31 85t-66 46l-148 -97l-156 103q-40 -13 -64 -37.5t-39 -51t-21.5 -48.5t-6.5 -32q16 16 42.5 29t75.5 13q84 -3 146 -51.5 t62 -153.5q0 -94 -69.5 -145t-144.5 -51q-115 0 -181.5 73t-69.5 207zM218 830q0 -40 26 -71.5t79 -31.5q55 0 82 32.5t27 70.5q0 40 -25 72.5t-81 32.5t-82 -32.5t-26 -72.5zM736 118h196q55 0 76 29t21 74v612q0 59 -47 96.5t-122 64.5q0 -78 -20 -119.5t-43 -74 t-42 -68.5t-19 -110v-504z" />
<glyph unicode="&#xe0c;" horiz-adv-x="1865" d="M149 1016q66 94 152.5 145t164.5 76q90 29 186 33q97 0 187 -18t159.5 -58.5t110.5 -109t41 -170.5v-454q36 -7 89.5 -28.5t110.5 -55.5t110.5 -79.5t92.5 -104.5v1061h134v-1253h-130q-7 13 -30 50t-63.5 83.5t-97.5 96.5t-132 90q6 -10 9.5 -26.5t6.5 -32.5t3 -29.5 v-16.5q0 -85 -59.5 -156.5t-161.5 -71.5q-40 0 -76.5 16t-69 45.5t-52.5 71.5t-20 91q0 101 57.5 167t147.5 75v461q0 59 -27.5 105t-74.5 77t-109 47t-131 16q-84 0 -172 -26t-154 -80q37 -7 74.5 -28.5t72.5 -45.5q39 -25 78 -54q-69 -16 -108 -54t-55 -79 q-19 -49 -22 -108v-309q16 10 40.5 13t50.5 3q105 0 153.5 -60.5t48.5 -134.5q0 -75 -50 -140.5t-152 -65.5q-84 0 -154 50.5t-70 155.5v491q0 81 37 148t99 87q-25 26 -68 41.5t-81 30.5q-46 12 -96 22zM370 192q0 -36 26.5 -68.5t82.5 -32.5q52 0 76.5 32.5t24.5 68.5 q0 37 -24.5 67t-80.5 30q-52 0 -78.5 -31t-26.5 -66zM925 221q0 -56 30.5 -91.5t76.5 -35.5t77 35.5t31 91.5q0 52 -31 89.5t-77 37.5t-76.5 -37.5t-30.5 -89.5z" />
<glyph unicode="&#xe0d;" horiz-adv-x="1822" d="M149 1016q62 94 147.5 145t159.5 76q88 29 182 33q97 0 183.5 -18t153 -60t104 -109t37.5 -164v-801h278q118 0 116 127v1008h134v-1008q0 -108 -56.5 -176.5t-186.5 -68.5h-496v118h78v801q0 59 -27 104t-71.5 76t-103 45.5t-120.5 14.5q-84 0 -166 -28t-140 -83 q36 -10 75 -29t71 -43q36 -25 71 -54q-68 -16 -107 -54t-55 -79q-19 -50 -22 -105v-306q32 16 78 16q108 0 161.5 -65t53.5 -140t-50.5 -137t-151.5 -62q-85 0 -153 50.5t-68 155.5v500q0 75 40.5 140.5t92.5 85.5q-32 26 -75 41.5t-78 30.5q-42 12 -89 22zM370 196 q0 -37 25 -69.5t77 -32.5q53 0 78.5 31t25.5 71q0 36 -24 66.5t-80 30.5q-52 0 -77 -31t-25 -66zM873 -323q0 75 50 142t165 67q104 0 152.5 -65.5t48.5 -136.5q0 -37 -12.5 -69t-39.5 -47q100 0 155.5 50t83.5 109q31 68 38 155h130q0 -114 -40.5 -197t-107.5 -136 t-148 -79t-163 -26q-124 0 -216.5 59.5t-95.5 173.5zM979 -316q0 -37 25 -65.5t77 -28.5q53 0 76.5 29.5t23.5 64.5q0 36 -23.5 67t-76.5 31q-52 0 -77 -31t-25 -67z" />
<glyph unicode="&#xe0e;" horiz-adv-x="1473" d="M111 192q0 75 52 137t157 62q25 0 49.5 -3t34.5 -10v283q0 124 42 180.5t95 83.5q-32 26 -76.5 42t-79.5 30q-43 13 -89 19q59 94 150 145t176 76q100 29 205 33q205 0 337 -98.5t132 -266.5v-1361l-212 -159q-25 22 -71 59q-40 28 -105 70t-162 98q-13 -43 -33 -85 t-52.5 -76.5t-81 -55t-119.5 -20.5q-115 0 -172 65.5t-57 155.5q0 59 23 102.5t60 70t85 39t95 12.5t101 -19t60 -22q6 32 8 64.5t5 59.5q3 29 0 54l124 -32q0 -25 -3.5 -73t-17.5 -122q94 -53 179 -104.5t115 -81.5l97 89v1265q0 124 -104 192.5t-244 68.5 q-81 0 -164.5 -26t-155.5 -80q43 -10 82 -30t73 -44q36 -25 74 -54q-68 -12 -107.5 -52t-55.5 -84q-19 -53 -23 -112v-491q0 -84 -62 -141.5t-155 -57.5q-105 0 -157 65.5t-52 139.5zM215 189q0 -36 24.5 -69t76.5 -33q56 0 80 33t24 69q0 37 -25 67t-79 30q-52 0 -76.5 -31 t-24.5 -66zM355 -407q0 -56 38.5 -80.5t75.5 -24.5q37 3 72 24q28 16 54.5 51.5t32.5 101.5q-46 15 -86.5 27t-72.5 12q-52 0 -83 -32.5t-31 -78.5z" />
<glyph unicode="&#xe0f;" horiz-adv-x="1473" d="M111 196q0 74 53.5 136t158.5 62q25 0 48 -4.5t36 -11.5v277q0 124 39 185.5t95 81.5q-26 26 -69 41.5t-81 30.5q-46 12 -95 22q59 94 150 145t176 76q100 29 205 33q208 0 338.5 -98.5t130.5 -266.5v-1403l-175 -111l-157 140l-169 -150q-13 16 -33 39q-16 19 -39 46 t-58 59q-19 -59 -57.5 -91.5t-76 -47t-66.5 -16t-36 -1.5q-81 0 -144.5 54.5t-63.5 163.5q0 90 68.5 146t157.5 56q78 0 146 -50l26 224l124 -28q-10 -75 -19.5 -141.5t-23.5 -132.5q28 -28 48 -51t37 -39q16 -19 29 -34l150 128l139 -121l62 30v1315q0 65 -27.5 114.5 t-76 85t-112 53t-132.5 17.5q-81 0 -164.5 -26t-154.5 -80q46 -13 85 -33t72 -44q37 -25 68 -51q-68 -12 -107.5 -52t-55.5 -84q-19 -53 -23 -115v-488q0 -84 -60 -140t-154 -56q-105 0 -158.5 65.5t-53.5 140.5zM215 189q0 -40 26 -71t79 -31q55 0 79 31t24 71t-24 70 t-79 30q-53 0 -79 -31t-26 -69zM335 -423q0 -46 33 -75.5t71 -29.5q27 0 52 16q19 13 37 30q36 37 44 97q-65 65 -128 65q-56 0 -82.5 -31t-26.5 -72z" />
<glyph unicode="&#xe10;" horiz-adv-x="1284" d="M137 -485q0 75 54 123.5t129 48.5q58 0 112 -35q10 59 12.5 112t2.5 90v41h100v-41q0 -72 -6.5 -148t-15.5 -142l84 -95l111 62l123 -78q55 46 68.5 60.5t13.5 36.5q0 19 -3 37q-9 -7 -21 -8.5t-22 -4.5q-12 -3 -19 0q-84 3 -125.5 53t-41.5 112q0 65 43 116t127 51 q81 0 126.5 -47.5t45.5 -125.5v-215q0 -36 -52 -74l-140 -109l-123 89l-133 -85l-102 120q-13 -36 -56.5 -75t-118.5 -39q-72 0 -122.5 44.5t-50.5 125.5zM173 938q7 49 38 107t82.5 107.5t123 82t159.5 32.5q68 0 127 -12t109.5 -26t93 -25.5t73.5 -11.5q37 0 63 17.5 t42 64.5q0 3 10 -7q6 -6 26 -23t52 -45q-29 -62 -71 -94.5t-82 -32.5q-52 0 -102 14t-101 31t-101 29.5t-106 12.5h-16q-114 -6 -168.5 -50t-60.5 -61q130 -7 220 -19.5t146 -22.5q65 -12 103 -23q124 -40 160 -98t36 -133v-39t-3 -42l-53 -671h-137q-19 65 -44 143 q-22 65 -57 153.5t-86 182.5q-53 -94 -183 -94q-100 3 -151 68t-51 140t51.5 138.5t163.5 63.5q68 0 119 -26t83 -98l176 -378l41 440q0 87 -65 124.5t-172 53.5q-49 6 -120 14q-62 7 -153.5 10t-214.5 3zM231 -479q0 -28 19.5 -54.5t75.5 -29.5q25 0 45 13t31 31t18 32 l6 15q-16 25 -36 40t-35 22q-20 9 -39 9q-43 0 -64 -24.5t-21 -53.5zM370 590q0 -43 26.5 -75.5t78.5 -32.5q53 0 79 32.5t26 75.5t-26 74.5t-79 31.5q-52 0 -78.5 -32.5t-26.5 -73.5zM782 -261q0 -32 21 -56.5t64 -24.5q42 0 63 24.5t21 56.5t-21.5 56.5t-62.5 24.5 q-43 0 -64 -23.5t-21 -57.5z" />
<glyph unicode="&#xe11;" horiz-adv-x="1685" d="M72 886q0 100 31 172t73 119t86.5 70t72.5 23q7 0 10 -1.5t6 -1.5l147 -98l160 98q37 -12 75 -38.5t69 -62.5t51 -83.5t20 -99.5q0 -53 -20 -83t-40.5 -56.5t-40.5 -59t-20 -88.5v-321q105 224 163 351.5t91 195.5q37 81 50 107q16 32 35 73t45 78.5t58.5 62t72.5 24.5 q65 0 110.5 -27.5t75 -68.5t42 -88.5t12.5 -82.5v-1000h-130v1000q0 37 -20.5 85.5t-86.5 48.5q-19 0 -46.5 -46.5t-60.5 -111.5t-65.5 -138t-59.5 -129q-94 -199 -160.5 -350t-99.5 -268q-13 -43 -14.5 -60.5t-5.5 -30.5h-136v714q0 46 19.5 78t43.5 63t44 62t20 70 q0 66 -32.5 103t-64.5 56l-154 -90l-163 106q-52 -22 -88 -76t-39 -83q0 -3 21.5 10t83.5 13q75 0 140 -48.5t65 -153.5q0 -53 -21.5 -92t-52.5 -62.5t-68 -35.5t-69 -12q-72 0 -118 27.5t-72 66.5t-35.5 84.5t-9.5 85.5zM199 827q0 -40 26 -72t82 -32q49 0 74.5 34.5 t25.5 72.5q0 40 -24.5 71t-75.5 31q-56 0 -82 -32.5t-26 -72.5z" />
<glyph unicode="&#xe12;" horiz-adv-x="1955" d="M183 824q0 74 27.5 145.5t74.5 130.5t106 101t121 57q16 3 27 3h24q43 0 65 -21q6 -3 24 -16q16 -9 40.5 -27.5t65.5 -53.5l144 100q28 19 55 21q13 0 19 -3q134 -37 200.5 -131.5t66.5 -275.5v-407q56 -10 115 -31.5t114.5 -54t101 -71.5t70.5 -85v1053h134v-1258h-143 q-29 78 -85 143q-46 56 -119 110t-178 79q16 -25 21.5 -54.5t5.5 -56.5q0 -97 -63.5 -165.5t-157.5 -68.5q-91 0 -155 68.5t-64 165.5q0 94 69.5 164.5t193.5 70.5h7v398q0 32 -1.5 71t-11 76t-31 71.5t-60.5 57.5q-12 10 -33 10q-19 0 -35 -10l-180 -114l-146 105 q-19 16 -43 16q-6 0 -9.5 -1.5t-6.5 -1.5q-43 -13 -86.5 -44t-76 -75.5t-53.5 -94.5t-21 -106q0 -52 14.5 -112.5t36 -122t42 -117t35.5 -101.5q16 -59 16 -107q36 50 71 98.5t68 91.5q37 49 72 90q-81 22 -120 81t-39 124q0 78 53.5 141.5t157.5 63.5q56 0 95 -19.5 t64.5 -52t39 -70t13.5 -75.5q0 -37 -13.5 -68t-29.5 -60q-10 -12 -28 -35t-37 -44.5t-36 -39t-23 -24.5q-52 -58 -105.5 -133t-97 -143.5t-73 -119t-36.5 -60.5h-154q16 46 24.5 86.5t8.5 86.5t-9 97q-6 40 -31 108.5t-49.5 144.5t-43.5 155.5t-19 145.5zM619 736 q0 -43 26 -75.5t78 -32.5q53 0 78.5 34t25.5 77q0 40 -24 72t-80 32q-52 0 -78 -34.5t-26 -72.5zM954 221q0 -56 29.5 -91.5t75.5 -35.5t76 35.5t30 91.5q0 65 -31 94.5t-75 29.5q-46 0 -75.5 -36t-29.5 -88z" />
<glyph unicode="&#xe13;" horiz-adv-x="1942" d="M149 1016q66 94 151 145t160 76q87 29 181 33q87 0 167.5 -18t145.5 -56q78 -50 122.5 -121.5t44.5 -155.5v-727q22 50 66 95t101 82.5t117.5 64t114.5 35.5v784h134v-790q65 -10 100.5 -47.5t53.5 -80.5q19 -49 22 -104q0 -43 -11 -84.5t-37.5 -75.5t-67 -57.5 t-95.5 -23.5q-32 0 -72 10t-71 36t-53 69.5t-25 112.5v6q0 13 3 41.5t16 57.5q-59 -19 -109 -65.5t-90 -96.5t-64 -96t-30 -65h-137v919q0 49 -27.5 93t-75.5 76.5t-111.5 51.5t-134.5 19q-75 0 -151.5 -29.5t-135.5 -76.5q43 -10 82 -31.5t71 -45.5q37 -25 72 -54 q-69 -16 -108 -54t-55 -76q-19 -46 -22 -102v-312q32 16 88 16q105 0 155 -63.5t50 -138.5q0 -74 -50 -138t-155 -64q-85 0 -153 50.5t-68 155.5v494q0 22 4.5 53t19 64t42 64t70.5 51q-25 26 -68 41.5t-81 30.5q-46 12 -96 22zM370 196q0 -37 26.5 -69.5t82.5 -32.5 q52 0 76.5 32.5t24.5 69.5q0 36 -24.5 66.5t-80.5 30.5q-52 0 -78.5 -31t-26.5 -66zM1510 221q0 -46 26.5 -86.5t78.5 -40.5q53 0 78.5 39.5t25.5 87.5q0 49 -25.5 88t-78.5 39q-52 0 -78.5 -39t-26.5 -88z" />
<glyph unicode="&#xe14;" horiz-adv-x="1389" d="M189 771q0 131 48.5 224t125 153t169.5 89.5t182 29.5q84 0 171.5 -24.5t161.5 -77t119.5 -132t45.5 -190.5v-843h-134v824q0 39 -15 92.5t-54 102.5t-107.5 85t-178.5 42q-87 0 -161 -29t-125.5 -76t-81 -107.5t-29.5 -122.5q0 -146 36 -270t51 -199q7 -26 8.5 -49 t1.5 -29q-6 -16 -9.5 -29.5t-3.5 -16.5l7 13q3 6 3 14q19 32 58.5 81t78.5 96t67 80l28 32q-81 22 -121 79.5t-40 122.5q0 78 54 143t158 65q55 0 94 -19.5t65.5 -52t39 -70t12.5 -75.5q0 -56 -27 -103.5t-79 -98.5q-29 -29 -72 -81.5t-90 -111.5t-87.5 -113t-64.5 -85 q-15 -26 -40 -69t-37 -65h-150q16 46 22.5 90t6.5 83q0 37 -3.5 65.5t-9.5 50.5q-3 32 -19 98t-32.5 139t-29.5 140t-13 105zM603 736q0 -43 23.5 -75.5t76.5 -32.5q52 0 78.5 34t26.5 77q0 40 -25 72t-77 32q-56 0 -79.5 -34.5t-23.5 -72.5z" />
<glyph unicode="&#xe15;" horiz-adv-x="1418" d="M183 824q0 74 27.5 145.5t74.5 130.5t106 101t121 57q19 6 38 6q43 0 75 -24q6 -3 24 -16q16 -9 40.5 -27.5t65.5 -53.5l147 100q25 19 52 21q16 0 22 -3q131 -37 197.5 -131.5t66.5 -275.5v-854h-130v854q0 32 -1.5 71t-13 76t-33 71.5t-59.5 57.5q-9 10 -33 10 q-19 0 -35 -10l-177 -114l-146 105q-19 16 -46 16q-6 0 -9.5 -1.5t-6.5 -1.5q-43 -13 -85 -44t-76 -75.5t-53.5 -94.5t-19.5 -106q0 -52 14.5 -112.5t34.5 -120t40.5 -117t33.5 -103.5q6 -26 11.5 -55t5.5 -45q4 0 0 -7q-3 -6 -12 -36q9 19 12.5 29.5t9.5 16.5l6 9 q32 47 66 92t63.5 82.5t48.5 62.5l18 24q-81 22 -118.5 79.5t-37.5 122.5q0 78 51.5 143t156.5 65q56 0 95 -19.5t64.5 -52t39 -70t13.5 -75.5q0 -62 -43 -128q-10 -12 -26.5 -33.5t-35.5 -43t-37.5 -39t-24.5 -23.5q-53 -62 -106 -137t-97 -143.5t-71.5 -119t-34.5 -60.5 h-154q29 84 30 165q0 50 -9 108q-7 40 -30 107t-47.5 145t-43.5 155.5t-19 143.5zM619 736q0 -43 24.5 -75.5t76.5 -32.5q53 0 80 34t27 77q0 40 -25.5 72t-78.5 32q-55 0 -79.5 -34.5t-24.5 -72.5z" />
<glyph unicode="&#xe16;" horiz-adv-x="1353" d="M162 1016q65 94 153.5 145t172.5 76q97 30 202 33q94 0 180.5 -21.5t155 -65t109 -113.5t40.5 -172v-898h-134v898q0 66 -29 113.5t-77.5 81.5t-114 50t-133.5 16q-84 0 -171 -26t-152 -80q40 -10 80.5 -30t73.5 -44q37 -25 72 -54q-68 -16 -107 -54t-57 -76 q-19 -46 -22 -102v-318q25 19 78 19q108 0 161 -63.5t53 -141.5q0 -75 -50 -138.5t-152 -63.5q-84 0 -154 52t-70 157v481q0 101 40.5 164.5t96.5 80.5q-29 26 -70 41.5t-79 30.5q-47 12 -96 22zM385 192q0 -39 25.5 -70t77.5 -31q56 0 80.5 31t24.5 70q0 40 -24.5 70.5 t-80.5 30.5q-52 0 -77.5 -31t-25.5 -70z" />
<glyph unicode="&#xe17;" horiz-adv-x="1448" d="M84 1059q0 78 52.5 144.5t152.5 66.5q115 0 170.5 -62t55.5 -155v-609q75 192 134.5 326.5t105.5 220.5q53 100 91 165q25 36 73 75t97 39q59 0 106 -23t79.5 -62t50.5 -88t18 -97v-1000h-133v1000q0 16 -5 39t-17 43.5t-31 37.5t-52 20h-3q-26 0 -47.5 -23t-43.5 -52 q-56 -78 -124 -214.5t-128.5 -291.5t-107.5 -304.5t-63 -254.5h-133v867q-23 -7 -47.5 -10t-48.5 -3q-105 3 -153.5 66t-48.5 139zM192 1068q0 -42 25.5 -76.5t71.5 -34.5q56 0 84 34.5t28 73.5q0 40 -26.5 72t-81.5 32h-4q-49 0 -73 -31t-24 -70z" />
<glyph unicode="&#xe18;" horiz-adv-x="1224" d="M156 882q16 82 52 150q19 36 43 71q65 97 164.5 130.5t196.5 33.5q124 0 222 -49t169 -78q13 -6 26 -10q25 -3 68 0l30 7l-11 -105q-9 0 -19 -3q-9 -3 -29 -3q-58 -4 -109 16t-104.5 45.5t-117 47t-144.5 21.5q-13 0 -49.5 -5t-78.5 -23t-81 -54t-55 -101 q231 -19 355 -38l127 -21q68 -9 107 -38.5t59 -67t26.5 -78t6.5 -72.5v-447q0 -90 -49.5 -150.5t-165.5 -60.5h-550v118h143v644h130v-644h253q65 0 86.5 32.5t21.5 73.5v457q0 58 -39 97t-104 49q-43 6 -133.5 16.5t-183.5 18.5t-169.5 14t-93.5 6z" />
<glyph unicode="&#xe19;" horiz-adv-x="1464" d="M84 1062q0 81 56 146q29 37 71.5 51.5t84.5 14.5q71 0 117 -31q66 -46 84 -96t18 -115v-849q3 0 24 25.5t61.5 59.5t99 74t133.5 68l89 29q37 13 76.5 21.5t73.5 8.5v784h133v-790q65 -7 99.5 -44t50.5 -80q19 -50 22 -108q0 -37 -11 -78.5t-36 -78.5t-65.5 -62 t-99.5 -25q-84 0 -147.5 53.5t-73.5 170.5v4q0 12 5 52t27 84q-22 -3 -51 -16q-25 -9 -57 -24t-70 -41q-65 -43 -138 -113t-129 -157h-149v867h-7q-9 -4 -32 -10t-54 -6t-68.5 11t-74.5 43q-25 25 -43.5 66.5t-18.5 90.5zM189 1062q0 -40 26.5 -74t77.5 -34q55 0 80 34 t25 74t-25 71.5t-80 31.5q-53 0 -78.5 -32.5t-25.5 -70.5zM1062 221q0 -49 25.5 -88t77.5 -39q53 0 79 39.5t26 87.5q0 49 -26 88t-79 39q-52 0 -77.5 -39t-25.5 -88z" />
<glyph unicode="&#xe1a;" horiz-adv-x="1432" d="M84 1059q0 78 54 144.5t158 66.5q114 0 168 -70t54 -155v-927h492q52 0 81.5 34t29.5 86v1015h132v-1011q0 -121 -64.5 -181.5t-188.5 -60.5h-749v118h134v749q-32 -13 -89 -13q-108 0 -160 62.5t-52 142.5zM192 1062q0 -43 25.5 -75.5t78.5 -32.5q52 0 78.5 34t26.5 77 q0 40 -25 72t-80 32q-53 0 -78.5 -34.5t-25.5 -72.5z" />
<glyph unicode="&#xe1b;" horiz-adv-x="1438" d="M91 1059q0 78 55.5 144.5t160.5 66.5q114 0 166 -70t52 -155v-927h491q52 0 83 34t31 86v1459h131v-1455q0 -242 -251 -242h-752v118h136v749q-16 -7 -39 -10t-48 -3q-108 0 -162 62.5t-54 142.5zM202 1062q0 -43 26 -75.5t79 -32.5q52 0 77.5 32.5t25.5 75.5 q0 40 -26 73.5t-77 33.5q-53 0 -79 -33t-26 -74z" />
<glyph unicode="&#xe1c;" horiz-adv-x="1408" d="M227 0v1038q0 97 54 163t158 66q114 0 168 -65t54 -143t-54 -143t-157 -65q-16 0 -33 3q-16 3 -29 4.5t-27 8.5v-633l339 346h71l329 -346v1019h131v-1253h-131q0 46 -27.5 88t-43.5 58l-293 314q-105 -109 -167 -174t-97 -100q-40 -43 -52 -59q-59 -62 -59 -127h-134z M342 1065q0 -43 26 -77t82 -34q52 0 76 34t24 74t-24 73.5t-76 33.5q-56 0 -82 -33t-26 -71z" />
<glyph unicode="&#xe1d;" horiz-adv-x="1408" d="M227 0v1038q0 97 54 163t155 66q114 0 168 -65t54 -143t-52.5 -143t-155.5 -65q-19 0 -37 3q-15 3 -29 4.5t-26 8.5v-633l342 346h68l329 -346v1463h134v-1697h-131q0 46 -29.5 88t-44.5 58l-290 314q-105 -109 -167 -174t-97 -100q-40 -43 -55 -59q-29 -28 -42.5 -63 t-13.5 -64h-134zM342 1065q0 -43 26 -77t82 -34q49 0 73 34t24 74t-24 73.5t-73 33.5q-56 0 -82 -33t-26 -71z" />
<glyph unicode="&#xe1e;" horiz-adv-x="1551" d="M84 1053q0 84 49.5 150.5t162.5 66.5q62 0 102.5 -21.5t66.5 -55.5t38 -71.5t12 -73.5v-684l336 841h54l338 -844v897h131v-1258h-134q-6 37 -11 59t-11 38l-10 30q-9 19 -46 118q-32 84 -98.5 252t-187.5 470q-114 -296 -179.5 -459t-97.5 -244q-36 -94 -43 -115 q-3 -12 -9 -31q-10 -32 -29 -118h-133v867q-13 -7 -29.5 -8.5t-29.5 -4.5t-30 -3q-97 0 -154.5 59.5t-57.5 142.5zM192 1062q0 -43 25.5 -75.5t78.5 -32.5q55 0 80 32.5t25 75.5t-25 75t-80 32q-53 0 -78.5 -33t-25.5 -74z" />
<glyph unicode="&#xe1f;" horiz-adv-x="1551" d="M84 1053q0 84 49.5 150.5t162.5 66.5q62 0 102.5 -21.5t66.5 -55.5t38 -71.5t12 -73.5v-684l336 841h54l338 -844v1336h131v-1697h-134q-6 37 -11 59t-11 38l-10 30q-9 19 -46 118q-32 84 -98.5 252t-187.5 470q-114 -296 -179.5 -459t-97.5 -244q-36 -94 -43 -115 q-3 -12 -9 -31q-10 -32 -29 -118h-133v867q-13 -7 -29.5 -8.5t-29.5 -4.5t-30 -3q-97 0 -154.5 59.5t-57.5 142.5zM192 1062q0 -43 25.5 -75.5t78.5 -32.5q55 0 80 32.5t25 75.5t-25 75t-80 32q-53 0 -78.5 -33t-25.5 -74z" />
<glyph unicode="&#xe20;" horiz-adv-x="1464" d="M105 196q0 74 51.5 136t159.5 62q26 0 49 -4.5t33 -11.5v296q0 97 40.5 160.5t95.5 87.5q-25 26 -68 41.5t-81 30.5q-46 12 -96 22q66 94 155.5 145t174.5 76q98 30 198 33q85 0 168 -21.5t150 -65t109 -110.5t42 -159v-914h-130v914q0 56 -28 102t-76.5 78.5 t-110.5 48.5t-130 16q-81 0 -164.5 -26t-155.5 -80q-3 0 65.5 -26.5t160.5 -104.5q-68 -13 -108 -51t-56 -82q-19 -53 -22 -112v-488q0 -28 -13.5 -65t-39 -66t-67 -48.5t-95.5 -19.5q-105 0 -158 65.5t-53 140.5zM211 196q0 -40 26.5 -72.5t78.5 -32.5q53 0 77 31t24 67 q0 40 -23.5 72t-77.5 32q-55 0 -80 -31t-25 -66z" />
<glyph unicode="&#xe21;" horiz-adv-x="1458" d="M169 1062q0 94 62 149.5t160 55.5q105 0 156.5 -66.5t51.5 -152.5v-588q109 -23 201 -62.5t163.5 -78.5t121 -75t65.5 -52v1061h130v-1253h-146q-32 56 -96.5 109t-139 99t-152.5 77t-140 44q6 -22 9.5 -51.5t3.5 -56.5q0 -40 -11.5 -82t-39 -74.5t-70 -53.5t-100.5 -21 q-94 0 -158 65.5t-64 162.5q0 87 37.5 138t86 75.5t98 31t71.5 6.5v398q-19 -7 -40.5 -11.5t-46.5 -4.5q-105 0 -159 66t-54 145zM277 1062q0 -43 26 -75.5t79 -32.5q55 0 79 32.5t24 75.5t-24.5 75t-78.5 32q-53 0 -79 -33t-26 -74zM289 221q0 -52 29.5 -88t75.5 -36 t76.5 36t30.5 88t-25.5 88t-81.5 39q-46 0 -75.5 -37.5t-29.5 -89.5z" />
<glyph unicode="&#xe22;" horiz-adv-x="1334" d="M189 911q0 65 22.5 130.5t65.5 116t99 81.5t128 31q118 0 170.5 -66.5t52.5 -150.5q0 -75 -49.5 -135.5t-152.5 -60.5q-43 0 -79 14.5t-60.5 32.5t-37.5 33l-13 14q-3 -16 -4.5 -29.5t-1.5 -26.5q0 -75 39 -120t93 -68t112 -29.5t95 -6.5q3 0 3 -16.5v-39.5v-40.5 t-3 -18.5h-69q-36 0 -64 -3t-50 -16q-46 -31 -63.5 -90t-17.5 -115v-214h504q65 0 89.5 39t24.5 77v1019h134v-1019q0 -100 -59 -167t-186 -67h-641v326q0 22 3.5 64t18.5 87t43.5 82t77.5 50q-120 40 -172 124t-52 178zM417 1065q0 -43 26 -75.5t79 -32.5q55 0 79 32.5 t24 75.5t-24 75t-79 32q-53 0 -79 -32.5t-26 -74.5z" />
<glyph unicode="&#xe23;" horiz-adv-x="1122" d="M94 879q9 72 37 127.5t58 93.5q37 46 75 78q49 43 107 67.5t147 24.5q50 0 95 -11.5t84 -26t71.5 -27.5t51.5 -13q37 0 59.5 13t49.5 48l84 -68q-16 -40 -44 -62.5t-55.5 -33.5t-52.5 -14t-34 -3q-37 3 -103 35.5t-158 45.5q-16 3 -28.5 3h-25.5q-46 0 -81 -9.5 t-61 -25.5q-25 -16 -47 -40q-19 -19 -40.5 -47t-34.5 -64q130 -16 209.5 -25.5t126.5 -15.5q55 -10 77 -15q82 -9 125.5 -41.5t63.5 -71.5t23 -73.5t3 -50.5v-429q0 -65 -16.5 -124t-81.5 -102q-20 -12 -51 -23.5t-66 -11.5q-46 0 -91 19t-76 56q-25 25 -36 64t-11 76 q0 97 62.5 151t145.5 54q40 0 67 -6.5t21 -6.5v271q0 49 -14.5 77.5t-36 45.5t-47.5 21.5t-49 7.5q-94 13 -186 26q-78 9 -164.5 19.5t-151.5 16.5zM553 199q0 -46 29.5 -77t75.5 -31t75 31t29 77t-29 77t-75 31t-75.5 -31t-29.5 -77z" />
<glyph unicode="&#xe24;" horiz-adv-x="1340" d="M149 1016q62 94 153.5 145t176.5 76q100 30 211 33q100 0 187 -24.5t150.5 -71.5t99 -119t35.5 -166v-1404h-133v1423q0 59 -29.5 106.5t-78 80t-113.5 48.5t-134 16q-84 0 -169 -26t-154 -80q40 -10 80.5 -30t72.5 -44q37 -25 72 -54q-69 -12 -108 -52t-55 -81 q-19 -49 -22 -108v-306q13 7 39 11.5t52 4.5q105 0 153.5 -60.5t48.5 -134.5q0 -78 -52 -143.5t-150 -65.5q-84 0 -154 50.5t-70 155.5v478q0 108 40.5 168t95.5 80q-25 26 -68 41.5t-81 30.5q-46 12 -96 22zM370 196q0 -37 26.5 -69.5t78.5 -32.5q50 0 75.5 32.5t25.5 69.5 q0 36 -24 66.5t-77 30.5q-52 0 -78.5 -31t-26.5 -66z" />
<glyph unicode="&#xe25;" horiz-adv-x="1314" d="M130 951q26 62 72 120.5t113 102.5t151 70t192 26q81 0 165.5 -21.5t154.5 -70t114.5 -130t44.5 -205.5v-843h-134q0 29 -19.5 99t-50.5 159.5t-73.5 187.5t-89.5 177.5t-94.5 132t-91.5 52.5q-43 0 -83.5 -45.5t-70 -110.5t-48 -132t-18.5 -113q0 -19 3 -25 q16 9 36 12.5t36 6.5q19 3 40 3q55 0 92.5 -23t62.5 -55q47 -62 42 -138.5t-42 -125.5q-52 -75 -165 -75q-94 0 -146.5 52t-71.5 120q-16 59 -17 151q0 56 7 109t13 93q10 56 34.5 125t67 131t102.5 106.5t141 44.5q47 0 84 -21.5t69.5 -54t60 -73t50.5 -83.5 q43 -72 76.5 -149.5t66.5 -152.5v429q0 118 -43.5 184.5t-102.5 101t-117.5 44t-87.5 9.5q-62 0 -125.5 -18.5t-119 -52.5t-98 -81t-61.5 -109zM361 196q0 -43 26 -76t79 -33q56 0 79.5 33t23.5 76q0 42 -23.5 74t-79.5 32q-53 0 -79 -32t-26 -74z" />
<glyph unicode="&#xe26;" horiz-adv-x="1470" d="M111 199q0 74 52 134.5t157 60.5q25 0 49.5 -4.5t37.5 -11.5v296q0 105 39 164.5t95 83.5q-23 26 -64 41.5t-79 30.5q-47 12 -99 22q59 94 148.5 145t174.5 76q100 30 205 33q124 0 212 -31t144.5 -80t83 -108.5t26.5 -118.5v-1447h-131v1429q0 56 -27.5 102t-76 77 t-112.5 48.5t-132 17.5q-81 0 -163 -26t-153 -80q43 -10 82 -30t72 -44q36 -25 75 -54q-69 -16 -106 -52.5t-55 -77.5q-19 -49 -25 -105v-501q0 -32 -13 -67t-39 -64t-66.5 -48.5t-99.5 -19.5q-105 0 -158.5 65.5t-53.5 143.5zM218 196q0 -37 26 -69.5t79 -32.5 q52 0 76 32.5t24 69.5q0 36 -24 66.5t-76 30.5q-53 0 -79 -31t-26 -66z" />
<glyph unicode="&#xe27;" horiz-adv-x="1106" d="M25 948q16 49 48 105.5t87 104t136.5 80t197.5 32.5q105 0 186.5 -32.5t137 -86.5t83.5 -125.5t28 -146.5v-683q0 -29 -10.5 -65.5t-34.5 -67.5t-65 -53.5t-105 -22.5q-105 0 -160.5 65.5t-55.5 143.5q0 74 52.5 134.5t158.5 60.5q22 0 51 -4.5t35 -11.5v504 q0 112 -74.5 193t-226.5 81q-93 0 -157 -26.5t-102.5 -65.5t-60 -84t-31.5 -85zM609 196q0 -37 24 -69.5t76 -32.5q53 0 77.5 32.5t24.5 69.5q0 36 -24.5 66.5t-77.5 30.5q-52 0 -76 -31t-24 -66z" />
<glyph unicode="&#xe28;" horiz-adv-x="1386" d="M183 801q0 124 45 213t117 146.5t165 83.5t183 26q94 0 184 -26t158 -79q26 26 53 56q49 56 93 131l93 -78q-85 -118 -153 -193q37 -49 56 -108t19 -130v-843h-131v827q0 84 -43 160q-55 -46 -99 -72t-80 -39q25 -25 37 -63.5t12 -73.5q0 -78 -51.5 -144.5t-153.5 -69.5 q-84 0 -117 25.5t-42 33.5l-108 -584h-137v289q0 97 -16 156t-34 108.5t-34 105t-16 142.5zM313 805q0 -66 11 -116.5t24 -93t25 -81.5t12 -82q0 -25 -3 -41l44 293q19 117 82.5 190.5t178.5 73.5q21 0 46 -7q56 23 109 57t102 77q-52 40 -117 59t-134 19 q-68 0 -136.5 -21.5t-121.5 -63.5t-87.5 -109t-34.5 -154zM580 736q0 -43 24 -75.5t77 -32.5q55 0 79.5 32.5t24.5 75.5t-24.5 75t-79.5 32q-53 0 -77 -32.5t-24 -74.5z" />
<glyph unicode="&#xe29;" horiz-adv-x="1510" d="M97 1065q0 78 52.5 141.5t157.5 63.5q118 0 169.5 -70t51.5 -155v-927h491q115 0 115 130v274q-62 -20 -164 -21q-62 0 -123.5 12t-113.5 39.5t-85 71.5t-33 109q0 29 9.5 61.5t34.5 62t64 49t97 19.5q109 0 155.5 -60t46.5 -126q0 -36 -11 -70.5t-38 -53.5q13 -3 40 -3 q25 0 46.5 3.5t37.5 6.5q19 3 37 6v630h133v-568q32 19 71 55.5t79 143.5l93 -65q-31 -105 -104.5 -165t-138.5 -93v-332q0 -85 -52.5 -159.5t-166.5 -74.5h-794v118h144v749q-16 -7 -42.5 -10t-48.5 -3q-105 0 -157.5 66.5t-52.5 144.5zM205 1062q0 -43 26.5 -75.5 t78.5 -32.5q56 0 79.5 34t23.5 74t-24.5 73.5t-78.5 33.5q-56 0 -80.5 -33t-24.5 -74zM723 739q0 -36 24 -67t70 -31q53 0 77.5 31t24.5 67q0 37 -24.5 65.5t-77.5 28.5q-46 0 -70 -29.5t-24 -64.5z" />
<glyph unicode="&#xe2a;" horiz-adv-x="1373" d="M146 951q26 62 72 120.5t111 102.5t149.5 70t192.5 26q84 0 171 -21.5t158 -73.5q22 25 48 56q22 25 47.5 56t44.5 65l87 -82q-39 -55 -72.5 -100.5t-70.5 -81.5q32 -47 50.5 -108t18.5 -137v-843h-134q0 29 -20 99t-50 159.5t-73 187.5t-90 177.5t-96 132t-94 52.5 q-43 0 -82 -45.5t-68 -110.5t-46.5 -132t-17.5 -113q0 -22 3 -25q16 9 35 12.5t36 6.5q19 3 38 3q56 0 92 -21.5t63 -50.5q49 -59 46.5 -135t-37.5 -125q-25 -37 -68 -61t-105 -24q-94 0 -146.5 52t-71.5 120q-9 29 -12.5 73.5t-3.5 93.5t5 97.5t14 88.5q13 56 36 125 t63.5 131t101 106.5t141.5 44.5q81 16 166 61.5t130 100.5q-37 26 -75 41t-72 21.5t-60.5 8t-32.5 1.5q-59 0 -122.5 -18.5t-119.5 -52.5t-98 -81t-61 -109zM378 196q0 -43 25.5 -76t78.5 -33q52 0 78.5 33t26.5 76q0 42 -26.5 74t-78.5 32q-53 0 -78.5 -32t-25.5 -74z M755 857q32 -29 70 -83t72.5 -117.5t67 -133.5t54.5 -138v458q0 86 -32 151q-39 -29 -79 -59q-37 -26 -76.5 -47t-76.5 -31z" />
<glyph unicode="&#xe2b;" horiz-adv-x="1477" d="M91 1065q0 105 65 155t157 50q112 0 160.5 -71.5t48.5 -163.5v-700q25 47 59 90.5t65 78.5q36 43 68 83q25 28 60 71q66 75 205 215q-46 16 -68 47t-32 63q-12 36 -12 79q3 91 59.5 148t161.5 57q93 0 152 -65t59 -146v-18q-6 -39 -19 -74q-13 -29 -36 -58.5t-66 -45.5 q16 -16 28 -26t18 -17l13 -12q10 -13 21 -27q6 -13 12.5 -27.5t6.5 -36.5v-714h-134v671q0 10 -6.5 34.5t-15.5 40.5q-3 6 -11 16q-7 9 -32 30q-78 -75 -138.5 -135.5t-99.5 -106.5q-47 -52 -78 -90q-81 -94 -148 -208.5t-92 -251.5h-131v863q-49 -16 -84 -17q-65 0 -111 30 q-23 13 -43 29q-62 62 -62 160zM202 1062q0 -43 24 -75.5t76 -32.5q56 0 80.5 32.5t24.5 75.5t-24.5 75t-80.5 32q-52 0 -76 -33t-24 -74zM979 1059q0 -40 26.5 -74t78.5 -34q56 0 80.5 34t24.5 74t-24.5 71.5t-80.5 31.5q-52 0 -78.5 -32.5t-26.5 -70.5z" />
<glyph unicode="&#xe2c;" horiz-adv-x="1572" d="M84 1062q0 78 54 143t158 65q114 0 168 -68t54 -161v-706l309 775h52l329 -775v740q-12 -7 -29 -8.5t-29 -1.5q-105 0 -155.5 63.5t-50.5 141.5q0 85 57.5 139t148.5 54q77 0 136 -57.5t59 -138.5q19 16 37.5 39t34.5 46q16 27 35 55l82 -65q-43 -81 -103 -140t-92 -75 v-1127h-140q0 6 -9 55.5t-28 93.5l-305 740l-297 -743q-7 -19 -16 -41q-16 -46 -26 -105h-133v867q-26 -7 -47.5 -11.5t-44.5 -4.5q-105 3 -157 67.5t-52 143.5zM196 1065q0 -39 23.5 -73.5t76.5 -34.5q55 0 80 34.5t25 73.5q0 40 -25 72t-80 32q-53 0 -76.5 -33t-23.5 -71z M1048 1267q0 -36 24.5 -67t70.5 -31q49 0 71.5 31t22.5 67q0 37 -22.5 65.5t-71.5 28.5q-46 0 -70.5 -29.5t-24.5 -64.5z" />
<glyph unicode="&#xe2d;" horiz-adv-x="1299" d="M97 948q16 49 43 87q40 65 98 111t123 73.5t136.5 39t136.5 11.5q97 0 187 -24.5t161 -77t113 -127t42 -178.5v-612q0 -52 -10.5 -97.5t-37.5 -79.5t-79.5 -54t-136.5 -20h-358q-143 0 -197 60.5t-54 181.5v429q0 25 8 64t32.5 77.5t68.5 65.5t115 27q97 0 151 -68.5 t54 -152.5q0 -75 -50 -138.5t-155 -66.5q-22 0 -45 6t-49 13v-256q0 -85 39 -104.5t95 -19.5h329q100 0 123 40.5t23 92.5v622q0 59 -29.5 109t-78.5 87.5t-115 59t-142 21.5q-109 0 -184.5 -25t-124.5 -62t-77 -82.5t-41 -88.5zM378 693q0 -40 25.5 -73t78.5 -33 q52 0 78.5 34t26.5 72q0 40 -26.5 72.5t-78.5 32.5q-53 0 -78.5 -32.5t-25.5 -72.5z" />
<glyph unicode="&#xe2e;" horiz-adv-x="1308" d="M196 1062q0 43 19 71.5t52 55.5q59 46 153.5 63.5t194.5 17.5q72 0 140 -12q59 -10 119.5 -33t104.5 -69q32 29 65.5 71.5t62.5 87.5l89 -81q-23 -29 -50 -62q-22 -26 -45 -52t-39 -42q32 -37 47 -80.5t15 -78.5v-708q0 -22 -7 -57.5t-32.5 -70t-78 -59t-146.5 -24.5 h-372q-114 0 -185.5 54t-71.5 167v345q0 25 8.5 63.5t32.5 72.5t67 60.5t114 26.5q105 0 155 -62t50 -137t-51 -140t-151 -65q-25 0 -49.5 6.5t-42.5 12.5v-173q0 -40 29.5 -76.5t100.5 -36.5h360q52 0 94.5 22t42.5 94v626q0 65 -7.5 90.5t-19.5 43.5q-59 -46 -122.5 -67.5 t-118.5 -34.5q-62 -13 -127 -16q-71 0 -142.5 9.5t-129 31t-93 57.5t-35.5 88zM323 1072q0 -29 26 -45.5t66.5 -24.5t89 -11.5t91.5 -3.5q50 0 104 13q46 10 99 27.5t99 53.5q-28 32 -77.5 48.5t-93.5 26.5q-56 13 -115 13q-40 0 -90 -5t-93.5 -14.5t-74.5 -29.5t-31 -48z M345 590q0 -40 26.5 -72.5t78.5 -32.5q56 0 79.5 32.5t23.5 72.5t-23.5 71.5t-79.5 31.5q-52 0 -78.5 -32.5t-26.5 -70.5z" />
<glyph unicode="&#xe2f;" horiz-adv-x="1209" d="M139 971.5q-12 73.5 4 138.5t67 112.5t141 47.5q105 0 157 -63.5t52 -138.5q0 -74 -45.5 -136t-139.5 -62q-25 0 -34 1.5t-15 4.5q9 -16 50 -47t112 -31q134 0 250.5 116t156.5 344h137v-910q0 -159 -51.5 -230.5t-137.5 -117.5l-91 91q59 31 88.5 71t42 75.5t14 66.5 t1.5 44v587q-55 -134 -167 -199t-233 -65q-97 0 -184 43.5t-134 128.5q-29 55 -41 128.5zM245 1068q0 -39 25.5 -71.5t80.5 -32.5q56 0 80.5 32.5t24.5 71.5q0 40 -24.5 72t-80.5 32q-55 0 -80.5 -32.5t-25.5 -71.5z" />
<glyph unicode="&#xe30;" horiz-adv-x="1171" d="M162 261q0 78 57.5 141.5t158.5 63.5q115 0 163.5 -62t48.5 -134q0 -84 -53 -136q13 -4 39 -4q84 0 146.5 50.5t107.5 108.5q52 69 89 158l122 -34q-42 -117 -110 -204.5t-160 -133.5q-59 -29 -121.5 -41t-145.5 -12q-183 0 -262.5 75.5t-79.5 163.5zM162 1041 q0 78 57.5 142t158.5 64q115 0 163.5 -61.5t48.5 -132.5q0 -85 -53 -139q13 -3 39 -3q84 0 146.5 51t107.5 110q52 68 89 155l122 -31q-42 -118 -110 -206t-160 -133q-59 -29 -121.5 -40.5t-145.5 -11.5q-183 0 -262.5 74.5t-79.5 161.5zM273 270q0 -39 26.5 -72t78.5 -33 q56 0 81.5 33t25.5 72q0 40 -26.5 70t-80.5 30q-52 0 -78.5 -30t-26.5 -70zM273 1053q0 -40 26.5 -72.5t78.5 -32.5q56 0 81.5 32.5t25.5 72.5q0 39 -26.5 69.5t-80.5 30.5q-52 0 -78.5 -31t-26.5 -69z" />
<glyph unicode="&#xe31;" d="M-743 1784q0 75 47 141.5t155 66.5q109 0 155.5 -62.5t46.5 -128.5q0 -39 -15.5 -78t-43.5 -58q63 -7 106.5 -6t105.5 15q105 23 198 92.5t180 209.5l101 -74q-91 -153 -242 -258.5t-399 -105.5q-94 0 -177.5 17.5t-139.5 66.5q-36 28 -57 69.5t-21 92.5zM-641 1794 q0 -43 27 -72t70 -29t71.5 28t28.5 73q0 49 -28.5 76.5t-71.5 27.5t-70 -29t-27 -75z" />
<glyph unicode="&#xe32;" horiz-adv-x="1057" d="M72 941q39 153 134.5 241t272.5 88q195 0 293 -107t98 -265v-898h-134v905q0 124 -68.5 190.5t-185.5 66.5q-115 0 -191 -71.5t-99 -198.5z" />
<glyph unicode="&#xe33;" horiz-adv-x="1038" d="M-479 1716q0 84 58 153t173 69q114 0 171.5 -68.5t57.5 -153.5t-57.5 -155t-171.5 -70q-115 0 -173 70t-58 155zM-370 1716q0 -46 28.5 -83t93.5 -37q62 0 93 37.5t31 82.5q0 46 -31 83t-93 37q-65 0 -93.5 -37t-28.5 -83zM22 941l121 -49q19 124 96 197t190 73 q118 0 188 -66.5t70 -190.5v-905h130v898q0 156 -96 264t-292 108q-176 0 -271.5 -88t-135.5 -241z" />
<glyph unicode="&#xe34;" d="M-1202 1557q22 90 71.5 163.5t114.5 124t144.5 78.5t165.5 28h28.5t28.5 -3q127 -16 215.5 -67t145.5 -121t86 -151t37 -161q-94 37 -179 60t-150 36q-78 13 -140 22q-32 3 -69 7q-32 3 -74.5 3h-98.5q-72 0 -154.5 -3.5t-171.5 -15.5zM-1026 1665q59 6 98 7.5t71 1.5h40 q39 0 75 -1.5t65 -4.5q36 -5 65 -8q28 -3 66.5 -9.5t80.5 -14.5t82.5 -20.5t69.5 -33.5q-16 37 -40.5 79t-67 82.5t-109 70t-166.5 32.5h-24q-115 0 -197.5 -59t-108.5 -122z" />
<glyph unicode="&#xe35;" d="M-1208 1573q19 84 66.5 156t114.5 125.5t144.5 83t159.5 29.5q77 -3 154 -22q65 -16 133.5 -51t112.5 -100v294h127v-528l23 -94q-85 37 -167.5 57.5t-147.5 33.5q-78 12 -150 22q-31 3 -71 6q-37 3 -84 3h-102q-69 0 -149 -3t-164 -12zM-1035 1681q56 6 94.5 7.5 t70.5 1.5h95t110 -6q69 -3 131 -16q55 -10 112.5 -26.5t101.5 -41.5q-28 87 -115 165t-239 94q-7 3 -16 3h-27q-124 0 -211.5 -58t-106.5 -123z" />
<glyph unicode="&#xe36;" d="M-1202 1573q22 90 71.5 164t114.5 124t144.5 78t165.5 28h28.5t28.5 -3q46 -7 85 -16.5t76 -26.5v6q0 62 42 113t126 51q85 0 128 -52.5t43 -114.5q0 -56 -33 -101t-98 -58q53 -68 80 -146t35 -153q-94 37 -179 59t-150 35q-78 13 -140 22q-32 3 -69 6q-32 4 -74.5 4 h-98.5q-72 0 -154.5 -3.5t-171.5 -15.5zM-1026 1681q59 6 98 7.5t71 1.5q65 0 130.5 -1.5t123.5 -7.5q29 -4 67 -10t78.5 -16.5t78 -25t66.5 -29.5q-16 36 -40.5 77.5t-67 82.5t-109 70t-166.5 32h-24q-115 0 -197.5 -58t-108.5 -123zM-410 1927q0 -36 27.5 -61.5 t62.5 -25.5q47 0 70 27.5t23 62.5q0 37 -23 63t-70 26q-46 0 -68 -27.5t-22 -64.5z" />
<glyph unicode="&#xe37;" d="M-1205 1573q19 84 68 156t114.5 125.5t143.5 83t159 29.5q55 0 99.5 -8t76.5 -18v147h124v-202q19 -13 35 -27q16 -13 33 -29t32 -36v294h128v-528l12 -46q7 -19 11 -48q-84 37 -167.5 57.5t-148.5 33.5q-78 12 -149 22q-16 3 -80 6t-178 3q-68 0 -148.5 -3t-164.5 -12z M-1032 1681q56 6 95 7.5t70 1.5h46h43t48.5 -1.5t68.5 -4.5q68 -3 130 -16q56 -10 114.5 -26.5t100.5 -41.5q-29 87 -115.5 165t-239.5 94q-6 3 -16 3h-27q-121 0 -208.5 -58t-109.5 -123z" />
<glyph unicode="&#xe38;" d="M-612 -345q0 75 51 140t148 65q100 0 155.5 -59t55.5 -162v-447h-127v274q-26 -16 -78 -16q-105 0 -155 65t-50 140zM-512 -345q0 -46 29.5 -75.5t75.5 -29.5t73 29.5t27 75.5t-27 74.5t-73 28.5t-75.5 -28.5t-29.5 -74.5z" />
<glyph unicode="&#xe39;" d="M-922 -335q0 74 49 134.5t146 60.5t151 -59t54 -130v-348h115q29 0 52 14t23 51v456h130v-472q0 -94 -52.5 -132t-136.5 -38h-258v276q-16 -3 -25.5 -6t-45.5 -3q-105 0 -153.5 60.5t-48.5 135.5zM-824 -332q0 -37 25 -68.5t72 -31.5h4q49 0 75 28.5t26 71.5q0 36 -26 67 t-79 31q-49 0 -73 -31t-24 -67z" />
<glyph unicode="&#xe3a;" d="M-444 -283q0 52 37 86.5t87 34.5q53 0 88.5 -34.5t35.5 -86.5t-35.5 -86.5t-88.5 -34.5q-52 0 -88 34.5t-36 86.5z" />
<glyph unicode="&#xe3f;" horiz-adv-x="1337" d="M186 0v1472h401v153h100v-153h9q228 0 347 -94.5t119 -280.5q0 -130 -58 -209.5t-163 -102.5q137 -25 210 -117t73 -248q0 -420 -462 -420h-75v-153h-100v153h-401zM329 130h258v566h-258v-566zM329 827h258v518h-258v-518zM687 130q105 0 179.5 11.5t123 44t71.5 88 t23 146.5q0 87 -27.5 141t-79.5 85t-125.5 40.5t-164.5 9.5v-566zM687 827q176 6 254 68t78 202q0 127 -73 184.5t-259 63.5v-518z" />
<glyph unicode="&#xe40;" horiz-adv-x="718" d="M227 196v1062h131v-880q19 10 44.5 13t50.5 3q97 -3 149.5 -66.5t52.5 -138.5t-52.5 -137t-155.5 -62q-94 0 -157 55t-63 151zM339 192q0 -39 26 -70t82 -31q52 3 77.5 34t25.5 67q0 37 -26 69t-77 32q-56 0 -82 -33t-26 -68z" />
<glyph unicode="&#xe41;" horiz-adv-x="1275" d="M227 196v1062h131v-883q33 19 95 19q97 -3 149.5 -68t52.5 -140t-52.5 -137t-155.5 -62q-94 0 -157 56.5t-63 152.5zM339 196q0 -40 26 -72.5t82 -32.5q52 0 77.5 31t25.5 70q0 40 -26 70.5t-77 30.5h-3q-53 0 -79 -31t-26 -66zM785 196v1062h134v-883q16 13 40.5 16 t50.5 3q97 -3 149.5 -68t52.5 -140t-52.5 -137t-156.5 -62q-94 0 -156 56.5t-62 152.5zM898 192q0 -39 26.5 -70t78.5 -31q53 0 78.5 32.5t25.5 68.5q0 37 -25.5 69t-78.5 32q-52 0 -78.5 -33t-26.5 -68z" />
<glyph unicode="&#xe42;" horiz-adv-x="845" d="M-97 1889q49 91 110.5 143t122 77.5t109 33t71.5 7.5h16q112 -10 168 -41t95 -68.5t82 -74t121 -55.5l-62 -84q-87 19 -123.5 50t-65.5 62t-72 59t-136 37h-29q-40 0 -105 -14t-111 -76q78 -26 148.5 -57.5t125.5 -78.5t87.5 -112.5t32.5 -155.5v-1163q10 4 34.5 8.5 t53.5 4.5q105 0 157 -60.5t52 -134.5q0 -78 -54 -143.5t-159 -65.5q-90 0 -152 48.5t-62 153.5v1342q0 65 -24 113.5t-79.5 91t-142.5 78t-209 75.5zM472 189q0 -36 25 -67t79 -31q52 0 78.5 32.5t26.5 68.5q0 37 -26.5 67t-78.5 30q-53 0 -78.5 -32.5t-25.5 -67.5z" />
<glyph unicode="&#xe43;" horiz-adv-x="814" d="M-29 1840q0 124 76.5 209.5t222.5 85.5q134 0 212 -81t78 -187q0 -19 -14.5 -65.5t-33 -99t-32.5 -96t-14 -62.5v-1162q25 6 39.5 9t50.5 3q105 0 157 -63.5t52 -138.5q0 -78 -53.5 -141.5t-158.5 -63.5q-93 0 -155.5 56.5t-62.5 161.5v1339q0 9 14.5 53t33 96.5t34 104 t15.5 81.5q0 50 -42 100t-117 50q-46 0 -75 -13t-43.5 -29.5t-19.5 -29.5l-5 -12l32 3q49 0 80 -18.5t51 -44.5t28 -55t8 -56q0 -12 -6.5 -41.5t-24.5 -59t-52.5 -51.5t-89.5 -22q-29 0 -61.5 11t-60.5 37t-45.5 73t-17.5 119zM68 1784q0 -37 21.5 -64t63.5 -27q46 0 69 28 t23 60t-23 59t-69 27t-65.5 -25t-19.5 -58zM453 192q0 -39 24 -70t76 -31q53 0 79 32.5t26 72.5q0 36 -24.5 66.5t-80.5 30.5q-52 0 -76 -31t-24 -70z" />
<glyph unicode="&#xe44;" horiz-adv-x="888" d="M-97 2159l107 50q15 -26 30.5 -50t21.5 -78l56 -404l211 414q16 28 28.5 38.5t36.5 10.5h88q40 0 47.5 -23t7.5 -63v-1669q16 6 35 9.5t56 3.5q105 0 155 -62.5t50 -136.5q0 -78 -51.5 -143.5t-156.5 -65.5q-97 0 -159 59t-62 150v1765q0 12 -6 12q-7 0 -16 -16 l-183 -348q-19 -36 -40.5 -64t-61.5 -28t-54 7t-21 33l-74 485q-7 36 -13.5 61.5t-31.5 52.5zM518 196q0 -40 25.5 -71t75.5 -31h6q52 3 77 35.5t25 69.5q0 36 -25 66.5t-77 30.5q-56 0 -81.5 -32.5t-25.5 -67.5z" />
<glyph unicode="&#xe45;" horiz-adv-x="1038" d="M62 941q43 153 137 241t273 88q196 0 292 -107t96 -265v-1413h-130v1420q0 124 -70 190.5t-188 66.5q-114 0 -190.5 -71.5t-95.5 -198.5z" />
<glyph unicode="&#xe46;" horiz-adv-x="1302" d="M196 932q0 49 12.5 105.5t43.5 105.5t86.5 82t143.5 33h25q32 -3 69 -18q28 -9 61.5 -28.5t62.5 -55.5q25 40 57 59t60 28q37 13 65 15q91 0 158 -59t67 -164v-1204q0 -52 -3.5 -89.5t-16 -71.5t-40.5 -65t-77 -71l-119 62l19 16q25 19 45 37.5t32.5 43t19 62t6.5 96.5 v1181q0 32 -25.5 67t-74.5 35q-56 0 -83.5 -26.5t-46.5 -59.5l-16 -29h-53q-25 65 -81 99.5t-111 34.5q-59 0 -106 -36t-53 -107q0 -4 20.5 15.5t95.5 19.5q105 0 153.5 -58t48.5 -133t-50 -140t-152 -65q-94 0 -168.5 70t-74.5 213zM342 851q0 -37 26 -68t76 -31 q52 0 76 31t24 68q0 36 -24 66.5t-76 30.5q-50 0 -76 -31t-26 -66z" />
<glyph unicode="&#xe47;" d="M-1006 1801q0 47 12 82q32 84 101 115t163 31h37.5t43.5 -3q43 -4 77.5 -5.5t77.5 -1.5q93 0 161.5 21t68.5 86v17l102 -20q-10 -108 -84 -156.5t-239 -48.5l-270 17q-65 0 -104 -41.5t-39 -106.5q0 -55 38 -130q22 55 74.5 68.5t76.5 13.5h9q26 0 54 -6q56 -9 102 -56 v20q0 65 45.5 104t107.5 39q78 0 117.5 -47t39.5 -103q0 -59 -41 -110.5t-126 -51.5h-12q-59 3 -98 20.5t-71.5 39t-63.5 39t-71 17.5q-22 0 -41 -13q-16 -12 -33 -35t-23 -68l-49 -8q-23 3 -49 29.5t-46.5 67t-34 88t-13.5 96.5zM-469 1690q0 -28 20 -51.5t58 -23.5 q36 0 55.5 25t19.5 53q0 29 -17.5 52t-57.5 23t-59 -24.5t-19 -53.5z" />
<glyph unicode="&#xe48;" d="M-323 2175v407h124v-407h-124z" />
<glyph unicode="&#xe49;" d="M-472 2530q0 84 58.5 123.5t120.5 39.5q85 0 127 -57t42 -113q0 -28 -5 -57.5t-11 -39.5q-16 -31 -33 -62q-16 -25 -37 -51.5t-51 -43.5h37q87 0 155.5 24.5t114 63.5t71.5 83t29 83l96 -35q-13 -58 -49.5 -112.5t-93 -96.5t-137 -68t-180.5 -26q-75 0 -132 3t-94 16 l-25 59h6q46 0 77 18t54 37q25 22 46 53h-16q-72 3 -121 45t-49 114zM-382 2533q0 -29 21.5 -53.5t61.5 -27.5q43 0 63.5 24.5t20.5 53.5q0 28 -21.5 54.5t-59.5 26.5q-46 0 -66 -24t-20 -54z" />
<glyph unicode="&#xe4a;" d="M-674 2402v21q6 84 57 148t151 64q22 0 46 -7q19 -6 42 -15t43 -28q36 26 76.5 33t59.5 7h13q43 -3 71 -24.5t45.5 -49.5t23.5 -59t6 -59q-3 -65 -15.5 -99.5t-28.5 -59.5q25 6 48 20.5t39 30.5q19 19 34 46q15 31 25 76t10 89q0 46 -10 80l118 15q3 -15 4.5 -33.5 t1.5 -43.5q0 -56 -15 -126t-57 -129q-52 -75 -130 -98t-137 -23q-16 0 -31 1.5t-24 1.5l-10 16q19 26 44 61t34 94q6 31 6 62q0 36 -12.5 71t-55.5 48q-3 3 -9 3h-23q-22 0 -49 -8t-52 -36q-16 22 -37.5 31.5t-40.5 15.5q-23 7 -47 8q-55 0 -87.5 -27.5t-32.5 -80.5 q22 22 58 29q16 3 37 3q68 0 110.5 -39t42.5 -104q0 -62 -47 -106t-106 -44q-87 0 -138 70t-51 154zM-560 2328q0 -26 17.5 -49t54.5 -23q40 0 59 25t19 50t-19 48t-56 23q-40 0 -57.5 -23.5t-17.5 -50.5z" />
<glyph unicode="&#xe4b;" d="M-512 2361v113h180v177h124v-177h165v-113h-168v-180h-121v180h-180z" />
<glyph unicode="&#xe4c;" d="M-488 2274q0 97 48.5 152.5t104.5 77.5q31 13 56 19.5t51 15t60 18t84 32.5q25 12 44 30q16 16 33 36.5t20 47.5l95 -27q-3 -13 -5.5 -25.5t-8.5 -19.5q-7 -9 -10 -15q-25 -37 -53 -61.5t-63 -40.5q-68 -32 -128.5 -48.5t-84.5 -23.5q-16 -3 -32 -9q-36 -11 -55 -34 q19 10 40.5 12.5t49.5 2.5q66 -7 108.5 -53t42.5 -127q0 -22 -8.5 -53t-31 -59t-58 -48t-91.5 -20q-90 0 -149 63.5t-59 156.5zM-375 2240q0 -43 29.5 -70t68.5 -27q40 0 67 27t27 67q0 43 -27 70t-67 27q-39 0 -68.5 -27t-29.5 -67z" />
<glyph unicode="&#xe4d;" d="M-840 1716q0 84 58.5 153t172.5 69q115 0 171 -68.5t56 -153.5t-56 -155t-171 -70q-114 0 -172.5 70t-58.5 155zM-733 1716q0 -46 29.5 -83t94.5 -37q62 0 93 37.5t31 82.5q0 46 -31 83t-93 37q-65 0 -94.5 -37t-29.5 -83z" />
<glyph unicode="&#xe4e;" d="M-808 1657q0 90 68.5 125t149.5 35q-19 0 -50 33t-31 74q0 19 6.5 51t30.5 57q46 56 104 64t132 8h47v-91q-16 0 -39 1.5t-49 1.5q-46 0 -81.5 -15t-42.5 -50q0 -62 44 -85t63 -23v-107h-107q-40 0 -85 -15t-45 -56q0 -59 40.5 -75.5t83.5 -16.5q19 0 35 1.5t22 1.5v-78 q-40 -16 -94 -16q-40 0 -77 14t-63 35q-22 19 -42 53.5t-20 72.5z" />
<glyph unicode="&#xe4f;" horiz-adv-x="1477" d="M180 531q0 111 43.5 206.5t120 167t177.5 114.5t218 43q118 0 219 -43t177.5 -114.5t120 -167.5t43.5 -206q0 -111 -43.5 -207.5t-120 -168t-177.5 -113.5t-219 -42q-117 0 -218 42t-177.5 113.5t-120 168t-43.5 207.5zM320 531q0 -81 32.5 -155t89 -127t133.5 -84 t164 -31q88 0 164 31t133.5 84t90 127t32.5 155t-32.5 154t-90 127.5t-133.5 85.5t-164 31q-87 0 -164 -31t-133.5 -85.5t-89 -127.5t-32.5 -154zM475 531q0 105 76.5 178t187.5 73q112 0 188 -74t76 -177q0 -105 -76 -178t-188 -73q-111 0 -187.5 73t-76.5 178z" />
<glyph unicode="&#xe50;" horiz-adv-x="1529" d="M180 498q0 97 40.5 188.5t116.5 162t183.5 112.5t237.5 42h7q133 0 240.5 -42t184.5 -110.5t119.5 -160t42.5 -192.5q0 -225 -158.5 -360t-425.5 -135q-130 0 -239 37.5t-187 102.5t-120 156.5t-42 198.5zM339 491q0 -87 35.5 -152.5t96 -109t138.5 -66.5t159 -23 q205 0 314.5 97.5t109.5 260.5q0 155 -112.5 262t-314.5 107q-183 0 -301.5 -95t-124.5 -271v-10z" />
<glyph unicode="&#xe51;" horiz-adv-x="1494" d="M162 482q0 108 46 210.5t140 180.5q72 59 173 88.5t212 29.5q124 0 244 -40t198 -121q84 -84 120.5 -185t36.5 -206q0 -84 -27 -178q-22 -75 -65 -150q-36 -65 -94 -133.5t-143 -114.5l-95 75q108 68 165 156.5t83 169.5q32 94 36 189q0 78 -24.5 149.5t-76.5 124.5 q-65 65 -158 102.5t-197 37.5q-140 0 -261 -72q-87 -52 -127.5 -137.5t-40.5 -175.5q0 -121 57 -205q46 -72 109.5 -92t113.5 -23q28 0 59 3.5t41 7.5q-3 0 -40.5 6.5t-80.5 31.5q-46 26 -70 80t-24 110q0 84 62 152.5t169 68.5q90 0 141 -36t75.5 -81t29.5 -90t5 -64 q0 -43 -20 -97.5t-63.5 -105.5t-113.5 -85t-167 -34q-111 0 -204 50.5t-152 144.5q-72 115 -72 258zM599 398q0 -47 29.5 -82.5t88.5 -35.5q56 0 83 34t27 77q0 46 -29.5 81t-88.5 35q-56 0 -83 -34t-27 -75z" />
<glyph unicode="&#xe52;" horiz-adv-x="1650" d="M97 1371l130 101q16 -16 31 -34t28 -34q13 -19 24 -40q22 -36 28.5 -83t6.5 -89v-903q0 -58 9.5 -89t39 -45.5t79 -17.5t126.5 -3h597q90 0 111.5 24.5t21.5 75.5v469q0 22 -4 50.5t-15 51t-37 37.5t-71 15q-37 0 -57.5 -12t-50.5 -37q-13 -13 -26 -30q-12 -16 -27 -33.5 t-31 -44.5q-7 22 -20.5 40l-25.5 34q-13 16 -29 31q-59 52 -150 52q-42 0 -73 -16.5t-52.5 -41.5t-33 -52t-14.5 -51q22 23 62 31q19 3 40 3q108 0 164.5 -71.5t56.5 -157.5q0 -84 -55.5 -152.5t-165.5 -68.5q-118 0 -189.5 79.5t-71.5 209.5q0 199 90.5 308.5t238.5 109.5 q46 -3 88 -17q36 -13 74.5 -39t61.5 -74l5 21q5 20 26.5 45t62 44.5t108.5 19.5q75 0 125 -26t81 -65t44.5 -83.5t13.5 -82.5v-538q0 -39 -4.5 -75t-31 -62t-80.5 -40.5t-148 -14.5h-602q-150 0 -231.5 9.5t-120.5 40.5t-45.5 88.5t-6.5 150.5v857q0 105 -24.5 149t-80.5 76 zM596 504q0 -46 29.5 -79.5t88.5 -33.5q56 0 83 36t27 80q0 43 -27 77.5t-83 34.5q-59 0 -88.5 -34.5t-29.5 -80.5z" />
<glyph unicode="&#xe53;" horiz-adv-x="1666" d="M146 507q0 108 32.5 199.5t91.5 157t138.5 101t171.5 35.5q85 0 143.5 -26t99 -60.5t61.5 -65.5t24 -40q22 74 70 113t94 55q55 21 117 24q100 0 164 -43t101 -116t51.5 -172.5t14.5 -212.5q0 -189 -27 -310t-38 -146h-143q6 37 16.5 90t20 120t16 140t6.5 144 q0 75 -8 143.5t-31 121t-59 83.5t-92 31q-49 0 -84 -23t-59.5 -59t-35.5 -79.5t-11 -86.5v-622h-148v622q0 25 -16 68t-48.5 82t-79.5 68.5t-112 29.5q-124 0 -209 -98t-85 -250q0 -37 3 -72.5t14 -74.5q22 37 53 54.5t60 27.5q37 12 71 12q109 0 166 -76t57 -169 q0 -87 -59 -162t-189 -75q-140 0 -231.5 122t-91.5 395zM367 234q0 -46 29.5 -79.5t91.5 -33.5q49 0 75.5 35.5t26.5 77.5q0 43 -26.5 77t-78.5 34q-59 0 -88.5 -34t-29.5 -77z" />
<glyph unicode="&#xe54;" horiz-adv-x="1594" d="M146 501q0 114 46 205.5t127.5 153.5t195 94.5t250.5 32.5q75 0 135 -5.5t106 -5.5q115 0 186.5 25t118.5 72.5t79.5 119t72.5 165.5l16 -3q12 -3 40 -8t77 -18q-3 -16 -18 -51t-35 -77t-42 -85.5t-49 -83.5q-10 -13 -38 -45.5t-74.5 -63.5t-112 -55.5t-149.5 -24.5 q-62 0 -136.5 8.5t-179.5 8.5q-101 0 -187.5 -21.5t-148.5 -66.5t-97.5 -115t-35.5 -169q0 -176 100.5 -263.5t290.5 -87.5q39 0 83 4.5t90 11.5q-19 6 -42 18t-44 28l-44 32q-81 65 -114 127t-33 146q0 87 73.5 158t176.5 71q62 0 105.5 -21.5t73 -54t43 -73t13.5 -80.5 q-3 -52 -24 -94q-15 -36 -49.5 -72t-99.5 -49q65 -81 128.5 -97t148.5 -16q65 0 139.5 -7t173.5 -48l-34 -124q-28 16 -87 28t-134 12l-62 -5q-71 -3 -126.5 -8t-109 -8t-115.5 -4.5t-153 -1.5q-93 0 -186 26t-167 85t-118 152.5t-44 227.5zM720 501q0 -43 27 -76.5 t83 -33.5t83.5 34.5t27.5 75.5q0 43 -27.5 78.5t-83.5 35.5t-83 -35.5t-27 -78.5z" />
<glyph unicode="&#xe55;" horiz-adv-x="1613" d="M146 456q0 121 49.5 207t121 146.5t157.5 94.5t157 50q-28 25 -45 53t-23 55q-10 29 -10 54q0 127 75 195.5t170 68.5q146 0 206.5 -79.5t60.5 -179.5q0 -25 -6 -56q-6 -25 -16.5 -51.5t-32.5 -46.5h55q78 0 137 16.5t106 60.5t84 118.5t74 189.5h3q7 0 34.5 -2 t111.5 -14q-36 -137 -83 -222t-93 -135q-56 -58 -110 -87q-81 -37 -143 -48t-124 -11q-56 0 -136 10.5t-144 16.5q-90 -9 -177 -38.5t-153.5 -80.5t-108 -121t-41.5 -164q0 -105 38 -168.5t99.5 -97.5t143.5 -45t172 -11h127q-15 15 -38.5 28.5t-38.5 29.5q-20 16 -43 32 q-56 40 -98 105t-42 159q0 43 18 85t50.5 76.5t79.5 56t106 21.5q124 -4 179 -79.5t55 -156.5q-3 -49 -22 -90q-16 -37 -52 -69.5t-101 -48.5q59 -75 107.5 -94.5t107.5 -19.5h81q52 0 114 -8t146 -37l-39 -127q-69 28 -250 28q-75 0 -130.5 -4.5t-108 -9.5t-113.5 -8 t-150 -3q-97 0 -195 21.5t-177.5 74.5t-130.5 141.5t-51 218.5zM674 1140q0 -59 34.5 -102.5t102.5 -43.5t104 43.5t36 96.5q0 49 -34.5 89.5t-105.5 46.5q-56 0 -96.5 -40.5t-40.5 -89.5zM762 491q0 -43 29 -76t85 -33t81.5 35.5t25.5 76.5q0 43 -25.5 77.5t-81.5 34.5 t-85 -36t-29 -79z" />
<glyph unicode="&#xe56;" horiz-adv-x="1489" d="M146 1374l96 98q46 -39 81 -114q32 -65 56.5 -169.5t24.5 -269.5q176 68 351 68q124 0 236 -32.5t198 -91.5q72 -46 114 -128.5t42 -184.5q0 -146 -73 -252t-181 -174t-234.5 -102.5t-234.5 -34.5q-66 0 -135.5 19t-127 60.5t-93 101t-35.5 142.5q0 94 66.5 162.5 t165.5 68.5q127 0 186.5 -76.5t59.5 -165.5q0 -37 -9 -68q-7 -26 -23.5 -55.5t-48.5 -48.5q81 0 177.5 28t179.5 79.5t138 128t55 174.5q0 66 -12.5 108t-49.5 78q-62 59 -151 84.5t-191 32.5h-44q-94 0 -176 -19.5t-140.5 -41t-93.5 -38.5l-34 -18q-3 50 -8 142 t-17.5 191.5t-38.5 189.5t-76 128zM355 302q0 -43 26 -76.5t82 -33.5q59 0 86 34.5t27 75.5q0 43 -27 79t-83 36t-83.5 -36t-27.5 -79z" />
<glyph unicode="&#xe57;" horiz-adv-x="1744" d="M146 491q0 88 21.5 171.5t67 150t117 105.5t173.5 39q39 -3 74 -16q32 -12 66.5 -35.5t61.5 -69.5l16 20q15 20 43 41.5t70 40.5t98 19q87 0 147.5 -35.5t99.5 -94.5t57.5 -132t18.5 -148q0 -78 -7 -156q-6 -65 -18 -136.5t-37 -124.5q3 0 4.5 -1.5t4.5 -1.5h3 q75 0 121 32.5t70 91.5t30.5 137t6.5 165q-10 177 -13 309t-3 245q0 124 28 223t93 146l105 -96q-56 -22 -76 -105t-20 -200q0 -115 8 -247t8 -259q0 -143 -20.5 -264.5t-85.5 -196.5q-53 -59 -123 -80.5t-135 -21.5q-62 0 -110.5 11.5t-75.5 19.5q29 58 47 136t26 151.5 t10.5 130.5t2.5 70v3q0 118 -40 207t-127 89q-43 0 -78.5 -23t-61 -55t-42.5 -63t-20 -52h-59q0 26 -12.5 59t-34 62.5t-54 50.5t-77.5 21q-59 0 -103.5 -31t-71.5 -79.5t-40.5 -110.5t-13.5 -121q0 -56 10.5 -104.5t29.5 -81.5q16 55 50 84.5t71 45.5q43 16 90 21 q115 0 170 -68.5t55 -154.5q0 -87 -62 -163.5t-185 -76.5q-90 0 -159.5 42t-114.5 113.5t-70 163t-25 188.5zM426 221q0 -43 26.5 -78t81.5 -35q56 0 85.5 36t29.5 77q0 43 -29.5 77t-85.5 34q-55 0 -81.5 -34t-26.5 -77z" />
<glyph unicode="&#xe58;" horiz-adv-x="1663" d="M146 447q0 140 51 237.5t132 160.5t183.5 92.5t207.5 29.5h42l427 -23q78 7 133 27t92 85q31 59 51 146t20 162l130 -68q-6 -49 -9 -93t-27 -119q-53 -165 -151.5 -219t-228.5 -54h-34q-68 3 -141 11t-178 14q-65 4 -92 4h-34q-165 0 -268.5 -72t-144.5 -184 q-19 -53 -21 -115q0 -84 31 -157.5t71 -96.5q6 87 37 136.5t66 74.5q43 29 93 34q36 0 72.5 -18.5t71 -42.5t63.5 -51.5t49 -51.5q58 -62 100.5 -98t77.5 -53.5t62 -22t57 -4.5q25 0 67.5 4.5t45.5 23.5q3 0 -16 -9.5t-56 -9.5q-32 0 -71 14.5t-71.5 40.5t-55.5 66.5 t-23 93.5q0 97 68.5 163.5t163.5 66.5h7q39 0 79 -14t75.5 -45t59 -81t23.5 -122q0 -156 -78 -241t-215 -85q-56 0 -101 13t-94.5 45.5t-108 83t-136.5 128.5q-62 62 -113 62q-53 0 -77.5 -57t-24.5 -125q0 -37 4.5 -67t17.5 -57l-97 -10q-22 16 -66.5 48.5t-88.5 86.5 t-76.5 132t-32.5 180zM1078 335q0 -42 29.5 -76.5t84.5 -34.5q59 0 86 34.5t27 76.5q0 43 -29 79t-84 36t-84.5 -36t-29.5 -79z" />
<glyph unicode="&#xe59;" horiz-adv-x="1617" d="M146 472q0 121 46 219t128 172q58 53 134.5 77t148.5 24q130 0 227 -50q25 -12 52 -35q23 -19 47.5 -46.5t43.5 -64.5v21q0 62 44.5 124.5t147.5 62.5q59 0 87 -22t50 -43q13 -13 28 -25.5t28 -15.5q32 0 47 56.5t24 132.5q0 13 5 56.5t5 80.5q0 36 -5 76t-8 49 q-6 29 -19 53q-9 19 -26 40.5t-39 30.5l134 46q6 0 12.5 -7t28.5 -32q32 -46 42 -120t10 -140q0 -114 -19 -212t-52 -144q-37 -55 -65.5 -72.5t-55.5 -17.5q-37 6 -59 21t-41 32.5t-42 30.5t-57 13h-13q-77 -10 -77 -110q0 -16 1.5 -32.5t4.5 -32.5q13 -69 40.5 -143.5 t62 -146t70 -132t69.5 -97.5q16 -19 31 -31q16 -13 29.5 -25t29.5 -18l-81 -97q-6 0 -43.5 12.5t-83.5 61.5q-46 50 -83.5 120t-71.5 148t-68.5 157t-72.5 151q-25 56 -63.5 99.5t-90.5 73.5q-68 40 -156 39q-105 0 -189 -66q-72 -55 -103 -133t-37 -172q0 -97 37 -186 q28 -72 76 -101t64 -29q-7 6 -19 34t-12 64q0 65 23 109t57.5 68.5t73.5 34t69 9.5q46 0 88 -14t74 -45q65 -65 65 -175q0 -36 -12.5 -80t-43.5 -81t-80.5 -63.5t-120.5 -26.5q-66 0 -135.5 17.5t-133.5 56.5t-114 101t-74 151q-19 85 -19 159zM541 242q0 -43 27.5 -77.5 t83.5 -34.5t83 36t27 79t-27 76.5t-83 33.5t-83.5 -34.5t-27.5 -78.5z" />
<glyph unicode="&#xe5a;" horiz-adv-x="1520" d="M180 1026q0 90 46.5 165.5t164.5 78.5h7q104 0 156 -63.5t52 -138.5q0 -74 -49.5 -136t-143.5 -62q-22 0 -28.5 1.5t-14.5 4.5q10 -16 51.5 -47t112.5 -31q134 0 251 116t156 344h137v-910q0 -159 -52.5 -230.5t-136.5 -117.5l-91 91q56 25 83 68t44 86q16 49 19 103v587 q-55 -134 -167 -199t-233 -65q-97 0 -184 43.5t-136 128.5q-46 74 -44 183zM289 1068q0 -39 26.5 -71.5t82.5 -32.5q55 0 79 32.5t24 71.5q0 40 -24 72t-79 32q-56 0 -82.5 -32.5t-26.5 -71.5zM1208 0v1258h134v-1258h-134z" />
<glyph unicode="&#xe5b;" horiz-adv-x="2617" d="M180 615q0 59 17.5 129t61 129t116 99.5t175.5 40.5q91 0 151.5 -31t97.5 -78t54 -104t17 -107q0 -40 -15 -82t-44 -76t-75 -56.5t-105 -22.5q-62 0 -109 48.5t-47 110.5q0 46 21.5 90t83.5 44t83 -36t21 -98q25 0 45 33t20 79q0 28 -9.5 59t-32.5 59t-59 45.5t-92 17.5 q-71 0 -119.5 -31t-75 -76.5t-37.5 -95.5t-11 -90q0 -81 27 -136.5t71.5 -89.5t102.5 -50t117 -16q75 0 132 29.5t99.5 78t70 110.5t46.5 127q43 152 50 345h160l81 -612l78 559h107l79 -504l81 452h78l81 -479l53 425h81l78 -264l453 -30v-78l-479 -26l-81 237l-52 -370 h-108l-51 345l-80 -423h-106l-78 475l-108 -531h-134l-52 585q-19 -121 -51.5 -225.5t-88.5 -185t-137 -127.5t-202 -47q-78 0 -159 21t-146 71.5t-105.5 131.5t-40.5 202z" />
<glyph unicode="&#x2000;" horiz-adv-x="1351" />
<glyph unicode="&#x2001;" horiz-adv-x="2703" />
<glyph unicode="&#x2002;" horiz-adv-x="1351" />
<glyph unicode="&#x2003;" horiz-adv-x="2703" />
<glyph unicode="&#x2004;" horiz-adv-x="901" />
<glyph unicode="&#x2005;" horiz-adv-x="675" />
<glyph unicode="&#x2006;" horiz-adv-x="450" />
<glyph unicode="&#x2007;" horiz-adv-x="450" />
<glyph unicode="&#x2008;" horiz-adv-x="337" />
<glyph unicode="&#x2009;" horiz-adv-x="540" />
<glyph unicode="&#x200a;" horiz-adv-x="150" />
<glyph unicode="&#x200c;" horiz-adv-x="488" />
<glyph unicode="&#x200d;" horiz-adv-x="686" />
<glyph unicode="&#x200e;" horiz-adv-x="1090" />
<glyph unicode="&#x200f;" horiz-adv-x="1132" />
<glyph unicode="&#x2010;" horiz-adv-x="618" d="M32 472v118h555v-118h-555z" />
<glyph unicode="&#x2011;" horiz-adv-x="618" d="M32 472v118h555v-118h-555z" />
<glyph unicode="&#x2012;" horiz-adv-x="618" d="M32 472v118h555v-118h-555z" />
<glyph unicode="&#x2013;" horiz-adv-x="1054" d="M0 485v87h1056v-87h-1056z" />
<glyph unicode="&#x2014;" horiz-adv-x="2109" d="M0 485v87h2104v-87h-2104z" />
<glyph unicode="&#x2018;" horiz-adv-x="607" d="M234 1000v247q0 84 38 141t110 81l6 3l-3 -89q-26 -16 -45.5 -43.5t-19.5 -86.5v-64h68v-189h-154z" />
<glyph unicode="&#x2019;" horiz-adv-x="562" d="M189 1000l3 84q23 16 42.5 44t19.5 90v65h-65v189h153v-248q0 -84 -39 -141t-107 -83h-7z" />
<glyph unicode="&#x201a;" horiz-adv-x="758" d="M283 -199q49 19 74 78t25 111v10h-89v224h176v-227q0 -91 -45.5 -176t-140.5 -110v90z" />
<glyph unicode="&#x201c;" horiz-adv-x="914" d="M234 1000v247q0 84 38 141t106 81l7 3v-89q-26 -16 -45.5 -43.5t-19.5 -86.5v-64h65v-189h-151zM528 1000v247q0 84 37.5 141t108.5 81l7 3l-4 -89q-25 -16 -45 -43.5t-20 -86.5v-64h69v-189h-153z" />
<glyph unicode="&#x201d;" horiz-adv-x="923" d="M251 1000l3 84q23 16 42.5 44t19.5 90v65h-65v189h153v-248q0 -84 -39 -141t-107 -83h-7zM541 1000l3 84q22 16 42 44t20 90v65h-65v189h152v-248q0 -84 -39 -141t-107 -83h-6z" />
<glyph unicode="&#x201e;" horiz-adv-x="917" d="M283 -199q49 19 74 78t25 111v10h-89v224h176v-227q0 -91 -45.5 -176t-140.5 -110v90zM596 -199q50 19 73.5 78t23.5 111v10h-87v224h176v-227q0 -91 -46 -176t-140 -110v90z" />
<glyph unicode="&#x2020;" horiz-adv-x="1044" d="M25 919v116h422v431h140v-431h426v-116h-426v-1286h-140v1286h-422z" />
<glyph unicode="&#x2021;" horiz-adv-x="1060" d="M25 25v118h425v824h-425v117h425v398h140v-398h426v-117h-426v-824h426v-118h-426v-392h-140v392h-425z" />
<glyph unicode="&#x2022;" horiz-adv-x="783" d="M162 733q0 94 67 162.5t162 68.5q100 0 165.5 -67t65.5 -164t-65.5 -163t-165.5 -66q-97 0 -163 65t-66 164z" />
<glyph unicode="&#x2026;" horiz-adv-x="2109" d="M261 0v183h178v-183h-178zM964 0v183h179v-183h-179zM1668 0v183h181v-183h-181z" />
<glyph unicode="&#x202f;" horiz-adv-x="540" />
<glyph unicode="&#x2030;" horiz-adv-x="2912" d="M202 1091q0 186 94.5 295t247.5 109q149 0 243.5 -109t94.5 -295t-96 -295t-242 -109q-153 0 -247.5 110.5t-94.5 293.5zM339 1091q0 -140 55.5 -213t149.5 -73q90 0 146 73t56 213q0 143 -56 217.5t-146 74.5q-94 0 -149.5 -74.5t-55.5 -217.5zM584 -25l833 1520h133 l-833 -1520h-133zM1250 382q0 182 94.5 292.5t243.5 110.5q153 0 247.5 -109.5t94.5 -293.5q0 -186 -95.5 -296.5t-246.5 -110.5q-149 0 -243.5 110.5t-94.5 296.5zM1386 382q0 -144 56 -217.5t146 -73.5q94 0 150 73.5t56 217.5q0 143 -55 216t-151 73q-90 0 -146 -73 t-56 -216zM2072 382q0 182 94.5 292.5t243.5 110.5q153 0 247.5 -109.5t94.5 -293.5q0 -186 -96 -296.5t-246 -110.5q-149 0 -243.5 110.5t-94.5 296.5zM2209 382q0 -144 55.5 -217.5t145.5 -73.5q94 0 150 73.5t56 217.5q0 143 -56 216t-150 73q-90 0 -145.5 -73 t-55.5 -216z" />
<glyph unicode="&#x2032;" horiz-adv-x="562" d="M189 1000l3 84q23 16 42.5 44t19.5 90v65h-65v189h153v-248q0 -84 -39 -141t-107 -83h-7z" />
<glyph unicode="&#x2033;" horiz-adv-x="923" d="M251 1000l3 84q23 16 42.5 44t19.5 90v65h-65v189h153v-248q0 -84 -39 -141t-107 -83h-7zM541 1000l3 84q22 16 42 44t20 90v65h-65v189h152v-248q0 -84 -39 -141t-107 -83h-6z" />
<glyph unicode="&#x2039;" horiz-adv-x="917" d="M183 553v105l575 433v-121l-469 -364l469 -361v-121z" />
<glyph unicode="&#x203a;" horiz-adv-x="917" d="M186 127v121l469 364l-469 361v121l576 -429v-105z" />
<glyph unicode="&#x2044;" horiz-adv-x="969" d="M-13 0l883 1671h121l-880 -1671h-124z" />
<glyph unicode="&#x205f;" horiz-adv-x="675" />
<glyph unicode="&#x20ac;" horiz-adv-x="1233" d="M6 541l46 124h75q0 12 -1.5 35t-1.5 58v34.5t3 53.5h-121l46 121h94q43 251 231.5 411t436.5 160q143 0 213 -18.5t154 -64.5v-175h-16q-74 59 -150.5 91.5t-190.5 35.5q-174 -3 -323.5 -107t-207.5 -333h481l-41 -121h-463q-3 -32 -3 -50v-34q0 -32 3 -55t7 -42h391 l-46 -124h-326q62 -228 213.5 -329t314.5 -107q149 6 211 35t130 91h16v-172q-111 -56 -175.5 -70t-194.5 -14q-248 0 -428.5 146t-239.5 420h-137z" />
<glyph unicode="&#x2113;" horiz-adv-x="659" d="M43 612v140q29 26 64.5 55t72.5 66v215q0 81 4.5 164.5t25.5 148.5t70 107t137 42q84 0 135 -62t51 -159q0 -40 -9.5 -85t-33.5 -91q-37 -72 -98 -148t-133 -145v-564q0 -94 29.5 -136t110.5 -42q53 0 121 22v-134q-100 -19 -154 -19q-255 0 -253 251v485 q-29 -25 -53.5 -45t-45.5 -37q-22 -16 -41 -29zM329 1022q46 50 82 96.5t52 83.5q25 59 25 107q0 46 -20 78.5t-48 32.5q-29 0 -47 -23t-28 -59t-13 -83t-3 -93v-140z" />
<glyph unicode="&#x2122;" horiz-adv-x="1771" d="M261 1452v68h544v-68h-236v-667h-75v667h-233zM867 785v735h109l255 -625l245 625h106v-735h-75v644l-249 -644h-50l-264 635v-635h-77z" />
<glyph unicode="&#x2126;" horiz-adv-x="1383" d="M32 0v130h431v121q-19 0 -84.5 19t-137.5 79.5t-128.5 172.5t-56.5 295q0 177 65 293.5t163 188.5t208.5 101t200.5 29q94 0 205.5 -29t207.5 -101t159.5 -188.5t63.5 -293.5q0 -183 -57 -295t-127 -172.5t-135.5 -79.5t-84.5 -19v-121h427v-130h-557v339q59 0 132 23 t136.5 77.5t106 148t42.5 229.5q0 56 -20 142t-76.5 167.5t-157.5 138t-265 56.5q-162 0 -264.5 -56.5t-160 -138t-76.5 -167.5t-19 -142q0 -136 44 -229.5t107.5 -148t135 -77.5t130.5 -23v-339h-558z" />
<glyph unicode="&#x212e;" horiz-adv-x="1380" d="M97 638q0 152 44.5 279.5t124 217t191.5 138t249 48.5q261 0 419 -171t158 -473v-55h-987q3 -245 114.5 -371.5t309.5 -126.5q140 0 241 79.5t127 219.5h179q-32 -215 -180.5 -331.5t-386.5 -116.5q-137 0 -249 46.5t-190 133.5t-121 210t-43 273zM299 771h792 q-13 189 -118.5 298t-279.5 109q-156 0 -260 -105.5t-134 -301.5z" />
<glyph unicode="&#x2202;" horiz-adv-x="1268" d="M72 444q0 71 19 143q46 189 171.5 289t300.5 100q28 0 60 -3t64 -9q94 -20 172.5 -80t127.5 -157q47 130 45 289q0 87 -17.5 172.5t-56.5 152t-100 105.5t-149 39q-87 0 -162 -43.5t-159 -139.5v180q62 52 143 92.5t175 40.5q130 0 218.5 -42t142.5 -117.5t78 -178 t24 -221.5q0 -156 -33 -328t-80 -346q-56 -202 -180 -308t-292 -106q-37 0 -69.5 3.5t-67.5 12.5q-177 43 -276 166t-99 294zM224 429q0 -124 65.5 -206.5t189.5 -114.5q25 -6 48 -10t45 -4q121 0 208 78.5t122 225.5q6 31 11.5 60.5t5.5 59.5q0 124 -67 210t-191 115 q-42 12 -98 14q-118 0 -202 -77t-119 -220q-10 -37 -14 -68.5t-4 -62.5z" />
<glyph unicode="&#x2206;" horiz-adv-x="1346" d="M32 0l518 1482h245l520 -1482h-1283zM208 124h929l-434 1237h-57z" />
<glyph unicode="&#x220f;" horiz-adv-x="1507" d="M196 -215v1735h1116v-1741h-147v1598h-826v-1592h-143z" />
<glyph unicode="&#x2211;" horiz-adv-x="1432" d="M162 16l600 665l-589 628v163h1026v-154h-801l562 -591v-72l-593 -655h870v-149h-1075v165z" />
<glyph unicode="&#x2212;" horiz-adv-x="1756" d="M254 590v81h1250v-81h-1250z" />
<glyph unicode="&#x221a;" horiz-adv-x="1442" d="M84 258v103h298l208 -504l615 1784h156l-696 -1976h-164l-247 593h-170z" />
<glyph unicode="&#x221e;" horiz-adv-x="1663" d="M143 475q0 88 29.5 148.5t73 97.5t96 55.5t102.5 18.5q93 0 189.5 -51t199.5 -188q127 125 222 188.5t203 63.5q52 0 104 -20t94 -60.5t68 -104t26 -148.5q0 -136 -83.5 -217.5t-235.5 -81.5q-62 0 -118.5 24t-107.5 58.5t-93 71.5t-79 68l-48 -53q-28 -29 -58.5 -58 t-69 -54t-87 -41t-114.5 -16q-68 0 -125.5 27.5t-98 72t-65 97.5t-24.5 102zM261 482q0 -40 19 -76t48.5 -61t66.5 -40.5t71 -15.5q84 0 146 52.5t143 133.5q-36 56 -81 101q-40 39 -91.5 70t-116.5 31q-62 0 -102.5 -21.5t-63.5 -52.5t-31 -63.5t-8 -57.5zM914 475 q53 -46 90 -77t68 -51.5t62 -34t71 -23.5q40 -6 78 2t72 41q65 66 65 143q0 72 -52.5 137t-127.5 65q-49 0 -105.5 -31t-105.5 -70q-59 -47 -115 -101z" />
<glyph unicode="&#x222b;" horiz-adv-x="871" d="M-52 -391l39 121q32 -19 53.5 -24t56.5 -5q62 0 108 53.5t82 157.5t68.5 254t64.5 338l78 444q19 87 42 193t67.5 197t116 153t187.5 62q78 0 151 -43l-43 -103q-25 16 -51.5 24t-62.5 8h-22.5t-25.5 -3q-62 -10 -96 -62.5t-55.5 -122.5t-36 -151t-35.5 -152l-152 -811 q-19 -112 -50 -212.5t-78 -175.5t-118 -118.5t-171 -43.5q-55 0 -117 22z" />
<glyph unicode="&#x2248;" horiz-adv-x="1243" d="M134 367h3q19 32 45 70t60.5 71t78 54.5t96.5 21.5q49 0 104 -21.5t110 -47.5l37 -17q52 -26 96 -44t79 -18q31 0 61.5 18t54.5 44.5t42 57.5t31 56l3 3l86 -74v-4q-115 -227 -278 -227q-53 0 -122 27t-125 51l-68 32q-26 16 -55 28t-56 12q-40 0 -70.5 -18.5t-55 -48 t-44.5 -62t-36 -61.5l-6 -9zM134 649h3q19 32 45 69t60.5 69.5t78 54t96.5 21.5q49 0 104 -21.5t110 -46.5l37 -17q52 -26 96 -43.5t79 -17.5q31 0 61.5 17.5t54.5 44t42 57.5t31 56l3 3l86 -75v-3q-115 -227 -278 -227q-53 0 -122 28t-125 50l-68 32q-26 16 -55 27.5 t-56 11.5q-40 0 -70.5 -18t-55 -46.5t-44.5 -61.5t-36 -63l-6 -9z" />
<glyph unicode="&#x2260;" horiz-adv-x="1314" d="M162 251v134h356l140 264h-496v133h565l81 150h121l-78 -150h295v-133h-368l-140 -264h508v-134h-577l-71 -137h-123l72 137h-285z" />
<glyph unicode="&#x2264;" horiz-adv-x="1213" d="M97 655v107l938 456v-124l-797 -388q20 -10 107 -51q75 -36 238 -112.5t452 -216.5v-124zM100 0v134h984v-134h-984z" />
<glyph unicode="&#x2265;" horiz-adv-x="1213" d="M97 202v121q293 143 456.5 222.5t238.5 115.5q87 43 103 53q-16 6 -103 48q-75 36 -238 114t-457 218v124l938 -453v-107zM100 0v134h984v-134h-984z" />
<glyph unicode="&#x25ca;" horiz-adv-x="1411" d="M97 658l623 706l622 -706l-622 -707zM264 658l456 -515l455 515l-455 517z" />
<glyph unicode="&#x25cc;" horiz-adv-x="1620" d="M121 758q0 69 71 69q69 0 69 -69q0 -68 -69 -68q-71 0 -71 68zM169 518q0 72 69 72t69 -72q0 -68 -69 -68q-68 0 -69 68zM169 1000q0 68 69 68t69 -68q0 -71 -65 -71q-72 0 -73 71zM307 310q0 72 68 72q69 0 69 -72q0 -68 -69 -68q-68 0 -68 68zM307 1202q0 72 68 72 q69 0 69 -72q0 -62 -69 -62q-68 0 -68 62zM512 173q0 72 68 72q69 0 69 -65q0 -69 -69 -69q-68 0 -68 62zM512 1339q0 71 68 71q69 0 69 -71q0 -65 -69 -65q-68 0 -68 65zM752 130q0 69 65 69q72 0 72 -69q0 -71 -72 -71q-65 0 -65 71zM752 1390q0 68 65 70q72 -2 72 -70 q0 -72 -72 -72q-65 0 -65 72zM994 1339q0 71 71 71q62 0 62 -71q0 -65 -62 -65q-71 0 -71 65zM997 173q0 72 68 72q62 0 62 -72q0 -62 -62 -62q-68 0 -68 62zM1196 1202q0 72 71 72q65 0 65 -72q0 -62 -65 -62q-71 0 -71 62zM1199 310q0 72 68 72q65 0 65 -72q0 -68 -65 -68 q-68 0 -68 68zM1332 518q0 72 69 72q71 0 71 -72q0 -68 -71 -68q-69 0 -69 68zM1332 1000q0 68 72 68q68 0 68 -68q0 -71 -71 -71q-69 0 -69 71zM1383 758q0 69 72 69q65 0 65 -69q0 -68 -65 -68q-72 0 -72 68z" />
<glyph unicode="&#x25fc;" horiz-adv-x="1057" d="M0 0v1059h1059v-1059h-1059z" />
<glyph unicode="&#xf700;" horiz-adv-x="1194" d="M97 938q6 49 37 107t83.5 107.5t124 82t159.5 32.5h17q124 -6 221 -40.5t166 -34.5q36 0 62.5 17.5t42.5 64.5q0 3 9 -7q7 -6 26.5 -23t51.5 -45q-29 -62 -71.5 -94.5t-81.5 -32.5q-52 0 -102 14t-101 31t-101 29.5t-106 12.5h-16q-114 -6 -168 -50t-61 -61 q131 -7 220.5 -19.5t145.5 -22.5q65 -12 103 -23q124 -40 160 -98t36 -133v-39t-3 -42l-53 -671h-136q-19 65 -45 143q-22 65 -57 153.5t-88 182.5q-52 -94 -181 -94q-100 3 -151 68t-51 140t52 138.5t163 63.5q68 0 118 -26t84 -98l176 -378l42 416v24q0 87 -65.5 124.5 t-171.5 53.5q-50 6 -115 14q-55 7 -136.5 10t-189.5 3h-49zM296 590q0 -43 26 -75.5t79 -32.5q52 0 77.5 32.5t25.5 75.5t-25.5 74.5t-77.5 31.5q-53 0 -79 -32.5t-26 -73.5z" />
<glyph unicode="&#xf701;" d="M-1455 1557q22 90 70.5 163.5t114 124t145.5 78.5t165 28h29.5t28.5 -3q128 -16 215.5 -67t144.5 -121t86.5 -151t35.5 -161q-94 37 -179 60t-150 36q-78 13 -140 22q-32 3 -68 7q-32 3 -75 3h-98q-72 0 -154.5 -3.5t-170.5 -15.5zM-1280 1665q59 6 98 7.5t72 1.5h38 q40 0 76 -1.5t64 -4.5q37 -5 65 -8q29 -3 67 -9.5t80.5 -14.5t83 -20.5t70.5 -33.5q-16 37 -40.5 79t-67.5 82.5t-110 70t-167 32.5h-22q-115 0 -197.5 -59t-109.5 -122z" />
<glyph unicode="&#xf702;" d="M-1452 1557q19 84 66 155.5t114 125.5t145.5 83.5t159.5 29.5q78 -3 153 -24q65 -16 133.5 -50t114.5 -99v294h127v-528l22 -96q-84 37 -167.5 58.5t-148.5 34.5q-78 12 -149 22q-32 3 -72 6q-37 4 -83.5 4h-102.5q-68 0 -147.5 -3.5t-164.5 -12.5zM-1280 1665 q56 6 95 7.5t72 1.5h95t110 -6q68 -3 130 -18q56 -9 112.5 -25t102.5 -43q-28 88 -115 166.5t-241 94.5q-6 3 -16 3h-25q-124 0 -212.5 -59t-107.5 -122z" />
<glyph unicode="&#xf703;" d="M-1455 1557q22 90 70.5 163.5t114 124t145.5 78.5t165 28h28.5t29.5 -3q47 -7 85.5 -17t73.5 -26v6q0 62 43 113t128 51q84 0 126 -52.5t42 -114.5q0 -56 -32.5 -101t-97.5 -58q52 -68 80 -147t34 -154q-94 37 -179 60t-150 36q-78 13 -140 22q-32 3 -68 7q-32 3 -75 3 h-98q-72 0 -154.5 -3.5t-170.5 -15.5zM-1280 1665q59 6 98 7.5t72 1.5q65 0 129.5 -1.5t123.5 -7.5q29 -3 67 -10.5t78.5 -17t78 -23.5t67.5 -32q-16 37 -40.5 79t-67.5 82.5t-110 70t-167 32.5h-22q-115 0 -197.5 -59t-109.5 -122zM-665 1911q0 -36 28 -61.5t65 -25.5 q46 0 68 27.5t22 62.5q0 37 -22 63t-68 26q-47 0 -70 -27.5t-23 -64.5z" />
<glyph unicode="&#xf704;" d="M-1455 1557q19 84 67.5 155.5t114 125.5t143 83.5t160.5 29.5q56 0 99.5 -8t75.5 -19v148h124v-202q19 -13 37 -27q15 -13 31 -29.5t34 -35.5v294h125v-528l15 -46q6 -19 9 -50q-84 37 -167.5 58.5t-148.5 34.5q-78 12 -150 22q-16 3 -79.5 6.5t-177.5 3.5 q-69 0 -148.5 -3.5t-163.5 -12.5zM-1283 1665q56 6 94.5 7.5t72.5 1.5h44h42.5t49.5 -1.5t69 -4.5q68 -3 129 -18q55 -9 114 -25t102 -43q-29 88 -115.5 166.5t-240.5 94.5q-7 3 -16 3h-26q-120 0 -208.5 -59t-110.5 -122z" />
<glyph unicode="&#xf705;" d="M-646 1538v504h128v-504h-128z" />
<glyph unicode="&#xf706;" d="M-1088 1619q50 0 85.5 15.5t61.5 39.5q28 26 52 59q-22 -3 -38.5 0t-32.5 10q-16 6 -34 12q-40 23 -67 63.5t-27 86.5q0 90 62 133t128 43q93 0 138.5 -60.5t45.5 -122.5q0 -31 -6.5 -62t-12.5 -42q-13 -37 -32 -69q-16 -25 -40.5 -54.5t-57.5 -45.5q108 -6 193.5 23 t147.5 74.5t98 100.5t42 98l102 -38q-13 -62 -59 -126t-116 -112.5t-166 -79.5t-206 -31q-75 0 -135 2t-97 17zM-991 1912q0 -33 21.5 -62t64.5 -29q46 0 68.5 26t22.5 58.5t-21.5 59.5t-62.5 27q-46 3 -69.5 -22t-23.5 -58z" />
<glyph unicode="&#xf707;" d="M-1267 1797q6 94 63.5 166t168.5 72q25 0 52 -6q23 -7 47.5 -16.5t46.5 -32.5q26 19 53.5 29t53.5 13q28 4 59 0q52 -3 86 -30.5t52.5 -63.5t23.5 -75t1 -69q-6 -62 -21 -98t-28 -51q29 6 53.5 22.5t40.5 35.5q19 23 40 50q28 55 35.5 136t-10.5 137l134 16 q3 -25 6 -69.5t-5 -95t-25.5 -104.5t-50.5 -103q-40 -56 -91.5 -83t-101.5 -38t-96.5 -11t-68.5 3l-9 19q22 29 48 66.5t36 102.5q3 19 6 50.5t-1.5 62t-20.5 56.5t-49 36q-26 6 -53 3q-22 -3 -46.5 -14t-50.5 -40q-16 25 -39 38t-45 19q-26 10 -53 8q-58 3 -97 -31t-36 -90 q13 16 31 22.5t34 12.5q19 7 38 4q75 0 122.5 -44t47.5 -119q0 -68 -52.5 -116.5t-117.5 -48.5q-52 0 -92.5 24t-67.5 61t-40.5 86.5t-10.5 97.5zM-1140 1696.5q0 -28.5 21.5 -55t59.5 -26.5q43 0 66 26.5t23 55t-21.5 55t-64.5 26.5t-63.5 -26.5t-20.5 -55z" />
<glyph unicode="&#xf708;" d="M-914 1736v123h194v198h127v-198h199v-123h-199v-198h-127v198h-194z" />
<glyph unicode="&#xf709;" d="M-863 1755q0 97 49 153t105 78q32 13 56.5 20t50.5 15t60.5 17.5t81.5 33.5q26 12 47 28q15 16 30.5 37.5t21.5 47.5l94 -26q-10 -55 -47 -96t-93 -68q-68 -31 -128.5 -48t-83.5 -23q-15 -3 -33 -10q-35 -9 -54 -31q25 12 65 12q59 3 117 -43.5t58 -135.5q0 -23 -9.5 -52 t-31 -57t-59 -48.5t-89.5 -20.5q-91 0 -149.5 63.5t-58.5 153.5zM-749 1722q0 -43 29.5 -70t67.5 -27q40 0 68 28t28 66q0 43 -28 70.5t-68 27.5t-68.5 -27.5t-28.5 -67.5z" />
<glyph unicode="&#xf70a;" d="M-323 1538v504h127v-504h-127z" />
<glyph unicode="&#xf70b;" d="M-730 1619h7q46 0 81.5 17.5t61.5 40.5q28 26 49 56h-16q-72 0 -127.5 50t-55.5 122q0 90 62 133t127 43q94 0 140 -60.5t46 -122.5q0 -31 -6 -62t-14 -42q-13 -37 -32 -69q-16 -25 -39 -54.5t-55 -45.5h32q97 0 177.5 31t139 74.5t91 95.5t39.5 95l100 -38 q-13 -62 -58 -124t-115 -112.5t-165 -81.5t-209 -31q-75 0 -135.5 2t-95.5 17zM-631 1908q0 -32 20.5 -58t63.5 -29q46 0 68.5 27.5t22.5 59.5t-21 58t-64 26h-6q-43 0 -63.5 -25.5t-20.5 -58.5z" />
<glyph unicode="&#xf70c;" d="M-895 1778v19q6 94 63.5 166t166.5 72q26 0 53 -6q22 -7 46.5 -16.5t47.5 -32.5q31 25 82 36q50 10 88 6q97 -12 128 -82t31 -132v-24q-7 -62 -21 -98t-28 -51q28 6 53.5 22.5t41.5 35.5q19 23 38 50q19 36 29.5 84.5t10.5 93.5q0 25 -3.5 49.5t-9.5 45.5l134 16 q3 -16 4.5 -37.5t1.5 -46.5q0 -65 -16.5 -142.5t-64.5 -145.5q-59 -84 -147 -108t-154 -24q-19 0 -33 1.5t-25 1.5l-10 19q22 29 48.5 66.5t37.5 102.5q3 16 4.5 34t1.5 41q0 42 -13.5 79.5t-57.5 50.5q0 3 -8 3h-23q-22 0 -56 -9.5t-64 -44.5q-16 25 -39 38t-46 19 q-25 10 -52 8h-6q-56 0 -92 -31t-36 -83v-7q13 16 31.5 22.5t34.5 12.5q19 7 39 4q75 0 122 -44t47 -119q0 -68 -52 -116.5t-117 -48.5q-97 0 -154 78t-57 172zM-768 1697q0 -29 20.5 -55.5t60.5 -26.5q46 0 67 26.5t21 58.5q0 28 -21 53t-64 25t-63.5 -25t-20.5 -56z" />
<glyph unicode="&#xf70d;" d="M-518 1736v123h195v198h127v-198h199v-123h-199v-198h-127v198h-195z" />
<glyph unicode="&#xf70e;" d="M-572 1755q0 97 48.5 153t103.5 78q32 13 56.5 20t51 15t60.5 17.5t83 33.5q26 12 45 28q16 16 31 37.5t21 47.5l94 -26q-6 -40 -45 -88.5t-95 -75.5q-68 -31 -128.5 -48t-82.5 -23q-16 -3 -32 -10q-37 -9 -56 -31q16 9 37.5 10.5t40.5 1.5q56 -3 109.5 -48.5 t53.5 -130.5q0 -23 -8 -52t-31 -57t-59 -47t-90 -22q-91 0 -149.5 63.5t-58.5 153.5zM-460 1722q0 -43 29.5 -70t69.5 -27t67 28t27 66q0 43 -27 70.5t-67 27.5t-69.5 -27.5t-29.5 -67.5z" />
<glyph unicode="&#xf70f;" horiz-adv-x="1721" d="M65 1016q62 94 146.5 145t158.5 76q88 29 183 33q97 0 184 -18t153.5 -60t104 -109t37.5 -164v-801h277q117 0 117 127v1008h134v-1008q0 -108 -57.5 -176.5t-187.5 -68.5h-495v118h78v801q0 59 -27.5 104t-71.5 76t-102.5 45.5t-120.5 14.5q-85 0 -166 -28t-140 -83 q37 -10 76 -29t71 -43q36 -25 71 -54q-68 -16 -107 -54t-55 -79q-19 -50 -24 -105v-306q32 16 80 16q108 0 161 -65t53 -140t-51 -137t-151 -62q-84 0 -152.5 50.5t-68.5 155.5v500q0 75 40.5 140.5t93.5 85.5q-32 26 -75 41.5t-79 30.5q-43 12 -88 22zM286 196 q0 -37 24.5 -69.5t77.5 -32.5q52 0 77.5 31t25.5 71q0 36 -23.5 66.5t-79.5 30.5q-53 0 -77.5 -31t-24.5 -66z" />
<glyph unicode="&#xf710;" d="M-1013 1746q0 75 47 141.5t155 66.5q105 0 153.5 -62t48.5 -130q0 -85 -52 -131q28 -6 51 -7.5t44 -1.5q94 0 170 42t135 98q69 62 124 140l97 -78q-3 -3 -3 -6.5t-3 -6.5q-49 -56 -101 -111.5t-118.5 -101t-152.5 -73t-197 -27.5q-62 0 -132 11t-129 40.5t-98 77 t-39 119.5zM-911 1755q0 -43 27 -72t70 -29q46 0 73 29t27 72q0 46 -25.5 75t-74.5 29q-43 0 -70 -29t-27 -75z" />
<glyph unicode="&#xf711;" d="M-914 1716q0 84 58 153t172 69q115 0 171.5 -68.5t56.5 -153.5t-56.5 -155t-171.5 -70q-114 0 -172 70t-58 155zM-808 1716q0 -46 29.5 -83t94.5 -37q62 0 93 37.5t31 82.5q0 46 -31 83t-93 37q-65 0 -94.5 -37t-29.5 -83z" />
<glyph unicode="&#xf712;" d="M-1175 1801q0 47 13 82q32 84 100 115t164 31h34t34 -3q40 -4 82 -5.5t83 -1.5q94 0 163.5 21t69.5 86v17l100 -20q-10 -108 -81.5 -158.5t-238.5 -50.5q-46 0 -99.5 5t-115.5 11l-28 5q-69 0 -121 -36.5t-52 -111.5q0 -55 39 -130q23 55 75 68.5t75 13.5h9q26 0 56 -6 q56 -9 100 -56v20q0 65 46 104t108 39q78 0 117 -47t39 -103q0 -59 -40.5 -110.5t-124.5 -51.5h-15q-58 3 -97 20.5t-71.5 39t-63 39t-70.5 17.5q-22 0 -43 -13q-15 -12 -31 -35t-23 -68l-49 -8q-22 3 -48.5 29.5t-48 67t-34 88t-12.5 96.5zM-638 1690q0 -28 19.5 -51.5 t58.5 -23.5q37 0 56 25t19 53q0 29 -17.5 52t-57.5 23q-39 0 -58.5 -24.5t-19.5 -53.5z" />
<glyph unicode="&#xf713;" d="M-563 2188v407h124v-407h-124z" />
<glyph unicode="&#xf714;" d="M-661 2520q0 84 58.5 124t120.5 40q84 0 126.5 -55.5t42.5 -114.5q0 -94 -47 -161t-90 -94h37q90 0 157 26.5t113 64t70 81t30 83.5l102 -40q-13 -62 -48.5 -118.5t-96 -100t-144 -70t-187.5 -26.5q-68 0 -123.5 3.5t-90.5 15.5l-27 75h6q46 0 77 18.5t53 37.5 q26 22 47 52h-16q-72 3 -121 47t-49 112zM-569 2523q0 -28 20.5 -53t60.5 -28q43 0 63.5 25t20.5 53q0 29 -21.5 55t-59.5 26h-6q-40 0 -59 -23.5t-19 -54.5z" />
<glyph unicode="&#xf715;" d="M-846 2414v19q6 84 58 149t150 65q23 0 45 -6q19 -6 42 -15.5t44 -30.5q32 25 69 32.5t60 7.5h20q43 -4 71.5 -23.5t45.5 -47.5t23.5 -59t6.5 -60v-22q-7 -55 -20.5 -88t-22.5 -49q25 7 46.5 21t38.5 30q16 19 32 46q19 32 28 75t9 84q0 53 -11 86l117 16q4 -16 5.5 -34 t1.5 -44q0 -55 -14.5 -125t-57.5 -132q-52 -75 -130 -96.5t-137 -21.5q-16 0 -30 1.5t-26 1.5l-9 18q19 25 43.5 59.5t34.5 92.5q6 32 6 62q0 37 -12.5 72t-55.5 49q0 3 -7 3h-22q-19 0 -48.5 -8.5t-54.5 -40.5q-16 22 -36 34t-41 19q-22 6 -44 6h-6q-53 0 -85.5 -31 t-32.5 -77q13 12 29.5 19.5t32.5 10.5t35 3q65 0 108 -39.5t43 -103.5q0 -62 -46 -105t-105 -43q-91 0 -141 67t-50 153zM-733 2342q0 -25 20 -49t55 -24q39 0 58.5 24.5t19.5 51.5q0 26 -19.5 49t-55.5 23q-40 0 -59 -24.5t-19 -50.5z" />
<glyph unicode="&#xf716;" d="M-739 2368v114h179v175h116v-175h180v-114h-180v-180h-116v180h-179z" />
<glyph unicode="&#xf717;" d="M-717 2218q0 97 49 152.5t105 78.5q32 12 56.5 18.5t51 15.5t60.5 18.5t82 31.5q25 13 46 30q16 16 31 37.5t21 46.5l94 -25q-9 -56 -46.5 -96.5t-93.5 -67.5q-68 -32 -128.5 -48.5l-82.5 -22.5q-16 -4 -32 -10q-37 -9 -56 -32q26 13 66 13q58 3 116 -44.5t58 -135.5 q0 -22 -9.5 -51.5t-31 -57t-58.5 -49t-88 -21.5q-91 0 -150.5 63.5t-59.5 155.5zM-603 2185q0 -43 29.5 -70t69.5 -27t67 27.5t27 65.5q0 43 -27 71t-67 28t-69.5 -28t-29.5 -67z" />
<glyph unicode="&#xf718;" d="M-547 -817q0 68 46 125.5t134 60.5q90 0 140.5 -52.5t50.5 -146.5v-339h-113v178q-13 -3 -26.5 -7.5t-45.5 -4.5q-94 0 -140 58.5t-46 127.5zM-456 -814q0 -37 24.5 -67t70.5 -30t68.5 30t22.5 67q0 36 -23 63.5t-68 27.5q-46 0 -70.5 -27.5t-24.5 -63.5z" />
<glyph unicode="&#xf719;" d="M-811 -805q0 66 44 118.5t129 52.5t133.5 -51t48.5 -116v-261h98q26 0 47.5 13.5t21.5 42.5v357h113v-370q0 -84 -45.5 -117t-120.5 -33h-227v199q-13 -3 -23.5 -4.5t-38.5 -1.5q-91 0 -135.5 53t-44.5 118zM-727 -805q0 -31 21.5 -59t67.5 -28h4q46 0 66.5 26t20.5 61 q0 37 -23 62.5t-68 25.5q-46 0 -67.5 -27t-21.5 -61z" />
<glyph unicode="&#xf71a;" d="M-453 -843q0 46 29.5 83t94.5 37q62 0 93 -37.5t31 -82.5q0 -46 -31 -83.5t-93 -37.5q-65 0 -94.5 37.5t-29.5 83.5z" />
<glyph unicode="&#xf71b;" horiz-adv-x="1461" d="M97 192q0 75 52.5 137t157.5 62q25 0 50 -3t34 -10v283q0 124 42 180.5t95 83.5q-32 26 -76.5 42t-81.5 30q-42 13 -87 19q59 94 150.5 145t175.5 76q100 29 205 33q205 0 337 -98.5t132 -266.5v-1361l-211 -159q-26 22 -72 59q-40 28 -105 70t-162 98q-13 -43 -32.5 -85 t-52.5 -76.5t-81.5 -55t-119.5 -20.5q-115 0 -172 65.5t-57 155.5q0 59 23 102.5t60.5 70t84 39t96.5 12.5q46 0 99 -19t60 -22q6 32 8.5 64.5t5.5 59.5q3 29 0 54l123 -32q0 -25 -3.5 -73t-16.5 -122q94 -53 179 -104.5t116 -81.5l97 89v1265q0 124 -104.5 192.5 t-244.5 68.5q-81 0 -164.5 -26t-154.5 -80q43 -10 82 -30t70 -44q37 -25 75 -54q-68 -12 -107 -52t-55 -84q-19 -53 -22 -112v-491q0 -84 -62 -141.5t-156 -57.5q-105 0 -157.5 65.5t-52.5 139.5zM202 189q0 -36 24 -69t76 -33q56 0 80.5 33t24.5 69q0 37 -24.5 67t-80.5 30 q-52 0 -76 -31t-24 -66zM342 -407q0 -56 39 -80.5t75 -24.5q37 3 72 24q28 16 54.5 51.5t32.5 101.5q-46 15 -86.5 27t-72.5 12q-52 0 -83 -32.5t-31 -78.5z" />
<glyph unicode="&#xf71c;" horiz-adv-x="1461" d="M97 196q0 74 54 136t159 62q25 0 48.5 -4.5t35.5 -11.5v277q0 124 39 185.5t95 81.5q-26 26 -68.5 41.5t-81.5 30.5q-46 12 -95 22q59 94 150.5 145t175.5 76q100 29 205 33q208 0 338.5 -98.5t130.5 -266.5v-1403l-176 -111l-156 140l-169 -150q-12 16 -33 39 q-16 19 -39 46t-58 59q-19 -59 -57.5 -91.5t-75.5 -47t-66.5 -16t-35.5 -1.5q-82 0 -145.5 54.5t-63.5 163.5q0 90 68.5 146t155.5 56q78 0 148 -50l26 224l124 -28q-10 -75 -20 -141.5t-23 -132.5q29 -28 48.5 -51t35.5 -39q16 -19 30 -34l150 128l140 -121l62 30v1315 q0 65 -28 114.5t-76.5 85t-112 53t-131.5 17.5q-82 0 -165.5 -26t-154.5 -80q46 -13 85 -33t71 -44q36 -25 68 -51q-68 -12 -107 -52t-55 -84q-19 -53 -22 -115v-488q0 -84 -60.5 -140t-154.5 -56q-105 0 -159 65.5t-54 140.5zM202 189q0 -40 26 -71t79 -31q56 0 79.5 31 t23.5 71t-24.5 70t-78.5 30q-53 0 -79 -31t-26 -69zM323 -423q0 -46 32.5 -75.5t70.5 -29.5q27 0 53 16q19 13 36 30q37 37 45 97q-66 65 -131 65q-55 0 -80.5 -31t-25.5 -72z" />
<glyph unicode="&#xf71d;" horiz-adv-x="1569" d="M81 1062q0 78 54 143t158 65q114 0 168 -68t54 -161v-706l309 775h52l329 -775v740q-13 -7 -29.5 -8.5t-29.5 -1.5q-105 0 -155 63.5t-50 141.5q0 85 57.5 139t147.5 54q78 0 137 -57.5t59 -138.5q19 16 37.5 39t34.5 46q15 27 34 55l83 -65q-43 -81 -103.5 -140 t-91.5 -75v-1127h-140q0 6 -9 55.5t-28 93.5l-305 740l-298 -743q-6 -19 -15 -41q-16 -46 -26 -105h-133v867q-26 -7 -47.5 -11.5t-45.5 -4.5q-105 3 -156.5 67.5t-51.5 143.5zM192 1065q0 -39 24 -73.5t77 -34.5q55 0 80 34.5t25 73.5q0 40 -25 72t-80 32q-53 0 -77 -33 t-24 -71zM1045 1267q0 -36 24.5 -67t70.5 -31q49 0 71.5 31t22.5 67q0 37 -22.5 65.5t-71.5 28.5q-46 0 -70.5 -29.5t-24.5 -64.5z" />
<glyph horiz-adv-x="1090" d="M-941 1716q0 84 58.5 153t173.5 69q114 0 170.5 -68.5t56.5 -153.5t-57 -155t-170 -70q-115 0 -173.5 70t-58.5 155zM-833 1716q0 -46 29.5 -83t94.5 -37q62 0 92 37.5t30 82.5q0 46 -31 83t-91 37q-65 0 -94.5 -37t-29.5 -83zM111 941l120 -49q19 124 96 197t191 73 q118 0 187 -66.5t69 -190.5v-905h131v898q0 156 -95.5 264t-291.5 108q-176 0 -271.5 -88t-135.5 -241z" />
<glyph d="M-840 1657q0 90 68.5 125t149.5 35q-19 0 -50 33t-31 74q0 19 6.5 51t28.5 57q46 56 105 64t134 8h44v-91q-16 0 -39 1.5t-48 1.5q-46 0 -82 -15t-42 -50q0 -62 44.5 -85t63.5 -23v-107h-108q-40 0 -85.5 -15t-45.5 -56q0 -59 40.5 -75.5t83.5 -16.5q19 0 36 1.5t23 1.5 v-78q-40 -16 -94 -16q-39 0 -76.5 14t-63.5 35q-22 19 -42 53.5t-20 72.5z" />
</font>
</defs>
</svg>
