<?xml version="1.0" standalone="no"?>
<!DOCTYPE svg PUBLIC "-//W3C//DTD SVG 1.1//EN" "http://www.w3.org/Graphics/SVG/1.1/DTD/svg11.dtd" >
<svg xmlns="http://www.w3.org/2000/svg">
<metadata></metadata>
<defs>
<font id="tepc_cmprasanmitbold" horiz-adv-x="0" >
<font-face units-per-em="2048" ascent="1638" descent="-410" />
<missing-glyph horiz-adv-x="1014" />
<glyph unicode="&#xe4f;&#x22;" horiz-adv-x="1426" d="M140 531q0 231 162 394t398 163q238 0 397 -163q167 -160 167 -394q0 -227 -167 -394q-162 -162 -397 -162q-228 0 -393 165t-167 391zM289 531q0 -87 31 -159.5t90 -133.5q127 -120 290 -120q168 0 291 120q124 125 122 293q0 169 -122 293q-118 124 -291 124 q-166 0 -290 -124q-121 -128 -121 -293zM355 531q0 75 27.5 138.5t73 109t109 73t135.5 27.5q74 0 138 -27.5t111.5 -73t75.5 -109t28 -138.5q0 -71 -28 -135t-75.5 -109t-111.5 -73t-138 -28q-147 0 -246 99.5t-99 245.5zM501 531q0 -84 57 -143t142 -59q84 0 144.5 59 t60.5 143t-60 144.5t-145 60.5t-142 -60.5t-57 -144.5zM534 1130v336h143v-336h-143zM733 1130v336h143v-336h-143z" />
<glyph unicode="&#xe24;&#xe32;" horiz-adv-x="2116" d="M156 948q32 81 89 136.5t120.5 91.5t130.5 53.5t121 26t87 10.5l32 1q146 0 255 -43t178 -114q120 157 345 157q195 0 309.5 -111t114.5 -296v-1361h-210v1368q0 104 -54.5 159t-159.5 55q-94 0 -161 -60.5t-83 -166.5v-1355h-211v1364q0 66 -43 112.5t-84 69.5 q-50 25 -116.5 35.5t-135 5.5t-133.5 -26.5t-108 -59.5q84 -22 153 -63.5t89 -76.5q-20 -6 -38 -11.5t-31 -12.5q-13 -6 -25 -12q-53 -29 -77.5 -80t-24.5 -103v-181q9 0 27.5 4.5t28.5 4.5q74 0 123.5 -32.5t74.5 -78.5q32 -56 32 -129t-32 -129q-62 -111 -205 -110 q-46 0 -91 14.5t-82.5 44t-60.5 77t-23 108.5v424q0 75 31 125t99 96q-25 16 -62 29q-32 13 -78 23t-111 17zM429 231q0 -37 25 -67t77 -30q53 0 78 31t25 66q0 36 -25 67t-78 31q-52 0 -77 -31t-25 -67z" />
<glyph unicode="&#xe26;&#xe32;" horiz-adv-x="2200" d="M97 234q0 43 15 85t46 76t78 55.5t109 21.5q13 0 23 -1.5t23 -4.5v168q0 66 13 107t32.5 65t43.5 40.5t45 32.5q-32 19 -75 34.5t-83 21.5q-46 9 -94 13q47 120 143 185.5t190 93.5q111 37 237 40q124 0 231 -39t176 -107l8 -5q121 151 342 151q195 0 308.5 -111 t113.5 -296v-1361h-208v1368q0 104 -55.5 159t-158.5 55q-97 0 -165 -62t-83 -173v-1347h-212v1377q0 68 -40.5 109t-73.5 56q-85 43 -202 43q-72 0 -142 -19.5t-126 -64.5q56 -16 102 -40q40 -19 80 -43.5t57 -56.5q-29 -9 -64 -24.5t-64 -40t-48.5 -62t-19.5 -95.5v-411 q0 -36 -15 -77.5t-46 -77t-79.5 -59t-113.5 -23.5q-124 0 -186 76.5t-62 167.5zM245 231q0 -47 25.5 -72t71.5 -25t74 29t28 68q0 46 -28 72t-74 26t-71.5 -28t-25.5 -70z" />
<glyph unicode="fi" horiz-adv-x="1480" d="M91 898v164h208v156q0 134 55.5 211.5t146.5 108.5q32 9 65 12t65 3q105 0 170.5 -31t99.5 -74.5t45 -93t11 -87.5v-24h-199v7q0 12 -1.5 32t-12.5 37t-34 29.5t-61 12.5q-40 0 -80.5 -14.5t-50.5 -76.5q-3 -15 -3 -29v-29q0 -26 1.5 -49t1.5 -39v-62h818v-1062h-223v898 h-595v-898h-219v898h-208zM1094 1277v237h258v-237h-258z" />
<glyph unicode="fl" horiz-adv-x="1480" d="M91 898v164h208v156q0 134 55.5 211.5t146.5 108.5q32 9 65 12t65 3q105 0 170.5 -31t99.5 -74.5t45 -93t11 -87.5v-24h-199v7q0 12 -1.5 32t-12.5 37t-34 29.5t-61 12.5q-40 0 -80.5 -14.5t-50.5 -76.5q-3 -15 -3 -29v-29q0 -26 1.5 -49t1.5 -39v-62h442v-164h-442v-898 h-219v898h-208zM1113 0v1550h223v-1550h-223z" />
<glyph unicode="&#xd;" horiz-adv-x="1014" />
<glyph unicode=" "  horiz-adv-x="1014" />
<glyph unicode="&#x09;" horiz-adv-x="1014" />
<glyph unicode="&#xa0;" horiz-adv-x="1014" />
<glyph unicode="!" horiz-adv-x="817" d="M326 0v264h189h41v-264h-230zM326 1059v501h189h41v-504l-28 -686h-173z" />
<glyph unicode="&#x22;" horiz-adv-x="864" d="M153 967v534h222v-534h-222zM491 967v534h223v-534h-223z" />
<glyph unicode="#" horiz-adv-x="1197" d="M29 394v159h241l59 333h-221v155h250l78 438h195l-81 -438h232l78 438h188l-78 -438h195v-155h-227l-59 -333h218v-159h-251l-78 -437h-181l78 437h-229l-85 -437h-192l83 437h-213zM466 553h230l56 333h-227z" />
<glyph unicode="$" horiz-adv-x="1473" d="M199 413h240q3 -127 65 -183.5t164 -64.5v493q-84 26 -164.5 55.5t-141 74.5t-98 115t-37.5 181q0 91 40 166.5t102.5 129t143 82.5t161.5 33v146h124v-143q88 -3 169 -26.5t143 -68.5t101 -118t50 -178h-242q-3 100 -70 143t-154 49v-439q84 -22 171 -54t156.5 -80.5 t113.5 -120t44 -179.5q0 -118 -39 -200.5t-106 -138t-156.5 -84t-186.5 -35.5v-186h-124v186q-78 0 -163 22.5t-153.5 75t-110.5 136.5t-42 211zM469 1075q0 -37 21.5 -64.5t51.5 -48.5t67 -37.5t65 -26.5v395q-94 -7 -149.5 -61t-55.5 -157zM795 165q105 7 174 64t69 178 q0 46 -20.5 82t-56.5 63.5t-78.5 45t-87.5 27.5v-460z" />
<glyph unicode="%" horiz-adv-x="1955" d="M130 1113q0 159 81.5 272t273.5 113t273.5 -113t81.5 -272t-81.5 -271t-273.5 -112t-273.5 112t-81.5 271zM316 1113q0 -43 6.5 -84.5t25.5 -75.5t51.5 -55.5t85.5 -21.5q52 0 85 21.5t52 55.5t26 76.5t7 83.5q0 43 -7 85t-26 76.5t-52 57.5t-85 23q-53 0 -85.5 -23 t-51.5 -57.5t-25.5 -76.5t-6.5 -85zM404 -81l948 1631h158l-944 -1631h-162zM1116 351q0 159 82 272t274 113q193 0 274 -113t81 -272t-81 -271t-274 -112q-192 0 -274 112t-82 271zM1302 351q0 -43 6.5 -85t26.5 -76t52.5 -55t84.5 -21q53 0 84.5 21t51.5 55t26.5 77 t6.5 84q0 43 -6.5 85.5t-26.5 76.5t-52.5 57t-83.5 23q-52 0 -84.5 -23t-52.5 -57t-26.5 -76.5t-6.5 -85.5z" />
<glyph unicode="&#x26;" horiz-adv-x="1669" d="M118 404q0 173 92 285t222 203q-65 65 -116.5 150t-51.5 189q0 87 34 149t93 102.5t133.5 59t152.5 18.5q75 0 151.5 -16t137 -54t97.5 -101t37 -158q0 -56 -23.5 -107.5t-66.5 -101t-93 -91.5t-106 -77l354 -350q62 111 83.5 235t12.5 261h243q-9 -173 -45 -339.5 t-144 -302.5l362 -345l-12 -13h-313l-183 183q-131 -121 -261 -168t-309 -47q-93 0 -180 30.5t-153.5 87.5t-107 136.5t-40.5 181.5zM358 410q0 -62 27.5 -107t71.5 -76t101 -46.5t119 -15.5q101 0 186 46.5t156 111.5l-435 423q-91 -69 -158.5 -140.5t-67.5 -195.5z M504 1215q0 -26 18.5 -55.5t43 -58.5t50 -54t45.5 -44q32 23 68 50.5t65.5 57t47.5 59t18 54.5q0 72 -57 104.5t-126 32.5q-62 0 -117.5 -42t-55.5 -104z" />
<glyph unicode="'" horiz-adv-x="604" d="M196 967v534h217v-534h-217z" />
<glyph unicode="(" horiz-adv-x="995" d="M326 665q0 100 26 213t63.5 226.5t81.5 222.5t79 204h160q-75 -234 -133.5 -455.5t-58.5 -410.5q0 -193 58.5 -413t133.5 -454h-160q-37 94 -80 203.5t-80.5 223.5t-63.5 226t-26 214z" />
<glyph unicode=")" horiz-adv-x="998" d="M261 -202q78 234 135 454t57 413q0 189 -57 410t-135 456h162q37 -94 80.5 -203.5t81 -223t63.5 -226.5t26 -213q0 -101 -26 -213.5t-63.5 -226.5t-81 -223.5t-80.5 -203.5h-162z" />
<glyph unicode="*" horiz-adv-x="1194" d="M162 1032v176l345 -46l-208 286l161 86l136 -316l140 316l159 -89l-214 -283l351 40v-180l-351 40l208 -280l-156 -95l-140 319l-146 -316l-164 88l218 284z" />
<glyph unicode="+" horiz-adv-x="1256" d="M108 432v167h439v433h167v-433h439v-167h-439v-432h-167v432h-439z" />
<glyph unicode="," horiz-adv-x="656" d="M196 6v261h267v-261q0 -117 -76.5 -190.5t-187.5 -88.5v120q55 10 89.5 57t31.5 102h-124z" />
<glyph unicode="-" horiz-adv-x="740" d="M87 485v167h568v-167h-568z" />
<glyph unicode="." horiz-adv-x="615" d="M180 0v270h264v-270h-264z" />
<glyph unicode="/" horiz-adv-x="607" d="M-52 -202l556 1733h161l-557 -1733h-160z" />
<glyph unicode="0" horiz-adv-x="1324" d="M162 717q0 134 23 266.5t82 240.5t158.5 175t255.5 67q155 0 254.5 -70t157 -179.5t80.5 -245t23 -268.5q0 -131 -23 -260.5t-80.5 -233.5t-157 -167.5t-254.5 -63.5q-156 0 -255.5 66.5t-158.5 171t-82 238t-23 263.5zM394 709q0 -52 6.5 -116.5t22.5 -129.5 t43.5 -125.5t70.5 -103.5q56 -59 144 -58q90 0 143 58q43 43 70.5 101.5t42 120.5t19 123.5t4.5 113.5v24q0 56 -4.5 122t-19 134t-40.5 130t-69 105q-56 56 -146 56q-91 0 -147 -56q-43 -43 -70.5 -103t-42 -125.5t-21 -130t-6.5 -119.5v-21z" />
<glyph unicode="1" horiz-adv-x="966" d="M124 979l3 217q65 -4 127 35t113 87q59 59 115 127h224v-1445h-231v384v288.5v205v138.5v146q-43 -49 -97 -87q-46 -37 -109.5 -64.5t-144.5 -31.5z" />
<glyph unicode="2" horiz-adv-x="1249" d="M180 0l3 196l32 31q62 62 133.5 126t144.5 130.5t141.5 139.5t127.5 155q55 77 86 137.5t25 132.5q-19 214 -235 216q-101 0 -159 -62q-32 -37 -45.5 -80.5t-13.5 -95.5v-10h-240v10q-2 192 119 313q127 127 335 127q212 0 342.5 -116t126.5 -312q-3 -105 -43.5 -192.5 t-124.5 -187.5q-43 -49 -105 -117.5t-127 -133.5t-126.5 -122.5t-104.5 -82.5h658v-202h-950z" />
<glyph unicode="3" horiz-adv-x="1302" d="M149 394h242q0 -87 53 -143q74 -75 205 -75q52 0 102 13t89 39t64 68.5t25 104.5q0 65 -17 97.5t-52 64.5q-49 46 -130 60.5t-199 14.5h-13v202h13h69.5t85 8.5t85 24.5t72.5 46q31 29 48 56.5t17 83.5q0 91 -63 148t-190 57q-43 0 -86.5 -13.5t-78 -41.5t-56 -67 t-21.5 -89h-240q0 165 107 273q65 68 159.5 104t198.5 36q87 0 178.5 -21.5t165.5 -70t121 -127t47 -191.5q0 -115 -79.5 -200t-200.5 -117q133 -22 217.5 -115t84.5 -236q0 -199 -137 -304.5t-389 -105.5q-112 0 -217.5 32.5t-170.5 97.5q-112 118 -109 286z" />
<glyph unicode="4" horiz-adv-x="1321" d="M124 289v196l654 960h232v-954h208v-202h-208v-289h-212v289h-674zM358 491l68 -1q68 -2 150 -2t152 2l70 1l2 48q1 48 1 118v152.5v154v95.5l-3 71q-121 -179 -218 -319q-43 -59 -81.5 -118t-69.5 -102.5t-51 -71.5z" />
<glyph unicode="5" horiz-adv-x="1353" d="M227 364h242q3 -52 26 -85.5t57.5 -55t78 -31t86.5 -12.5q137 -7 210 79t73 223q0 124 -66.5 212t-194.5 88q-81 0 -156.5 -38t-122.5 -135l-4 -6h-208l62 830h817v-202h-639l-3 -58q-3 -57 -8 -121.5t-11 -121.5l-6 -57q46 56 128.5 79.5t179.5 23.5q114 0 201 -42 t143.5 -113.5t84 -160t27.5 -181.5q0 -228 -133.5 -364.5t-387.5 -136.5q-205 0 -335.5 101.5t-140.5 284.5z" />
<glyph unicode="6" horiz-adv-x="1334" d="M162 652q0 118 20 259.5t79 264.5t169.5 206.5t296.5 83.5q189 0 304 -107.5t134 -280.5h-221q-3 25 -12.5 58t-35.5 60.5t-72 47.5t-121 20q-94 0 -154.5 -52.5t-94.5 -125.5t-48.5 -156.5t-14.5 -147.5q75 91 157.5 126.5t187.5 35.5q100 0 187 -34t149 -96t97.5 -150 t35.5 -195q0 -105 -35.5 -194t-99.5 -156t-153.5 -104t-199.5 -37q-168 0 -276.5 65t-170.5 164.5t-85 218t-23 226.5zM429 460q0 -115 68.5 -199.5t208.5 -84.5q124 0 194 83t70 188q0 55 -11 107t-42 94t-83 68.5t-131 26.5q-81 0 -134.5 -29.5t-84.5 -72t-43 -92.5 t-12 -89z" />
<glyph unicode="7" horiz-adv-x="1155" d="M87 1231v202h991v-199q-87 -115 -166 -277t-137 -336t-90.5 -338.5t-32.5 -282.5h-251q9 100 23.5 188.5t31.5 153.5q16 78 38 143q66 231 157.5 428t175.5 318h-740z" />
<glyph unicode="8" horiz-adv-x="1349" d="M189 388q0 146 83 245.5t229 134.5q-115 43 -185.5 121t-70.5 205q0 81 35.5 149.5t97 117.5t146.5 77t182 28q105 0 191 -29.5t149.5 -80.5t99 -121t35.5 -147q0 -50 -17.5 -101.5t-51.5 -96t-83.5 -76.5t-109.5 -46q146 -37 227 -137t81 -227q0 -115 -45 -196 t-118 -132t-166 -74.5t-192 -23.5q-91 0 -184 22t-167.5 73t-120 129t-45.5 186zM413 410q0 -105 81.5 -176.5t219.5 -71.5q118 0 203.5 57.5t85.5 190.5q0 59 -24.5 102.5t-66.5 73t-94.5 45t-111.5 15.5q-124 0 -208.5 -68t-84.5 -168zM450 1094q0 -100 79.5 -156 t176.5 -56q105 0 186 48.5t81 150.5q0 105 -70 160t-189 55q-46 0 -94 -13t-85 -37.5t-61 -63.5t-24 -88z" />
<glyph unicode="9" horiz-adv-x="1311" d="M173 970q0 105 30.5 198t98.5 164q65 72 158 103t201 31q166 0 268.5 -68.5t159.5 -169.5t74.5 -218.5t17.5 -214.5q0 -121 -14 -264t-70 -265.5t-161.5 -205t-289.5 -82.5q-199 0 -318.5 103t-131.5 283h230q0 -62 26.5 -99.5t62 -56.5t73 -25.5t64.5 -6.5 q94 0 157.5 44t101 117t53 167.5t15.5 191.5q-46 -77 -147.5 -121t-216.5 -41q-195 7 -318.5 119t-123.5 317zM388 1006q0 -49 12.5 -97.5t43.5 -87.5t81.5 -62t126.5 -23q124 0 198.5 75t74.5 195q0 112 -71.5 185t-195.5 73q-114 0 -192 -67t-78 -191z" />
<glyph unicode=":" horiz-adv-x="624" d="M180 0v270h267v-270h-267zM180 814v270h267v-270h-267z" />
<glyph unicode=";" horiz-adv-x="628" d="M180 801v271h267v-271h-267zM186 0v261h264v-261q0 -118 -77 -191t-187 -89v121q56 10 90 56.5t31 102.5h-121z" />
<glyph unicode="&#x3c;" horiz-adv-x="1256" d="M97 436v160l1053 439v-184l-818 -336l818 -332v-189z" />
<glyph unicode="=" horiz-adv-x="1272" d="M114 254v166h1045v-166h-1045zM114 612v166h1045v-166h-1045z" />
<glyph unicode="&#x3e;" horiz-adv-x="1256" d="M105 -6v189l814 332l-814 336v184l1054 -439v-160z" />
<glyph unicode="?" horiz-adv-x="1349" d="M205 1013q-16 97 3 200.5t94 180.5q65 72 159.5 112.5t215.5 40.5q115 0 217.5 -42t164.5 -119q52 -65 74.5 -135t22.5 -138q0 -81 -21.5 -143t-62 -120t-102.5 -123.5t-146 -154.5q-23 -28 -36.5 -53t-13.5 -50v-118h-249v118q0 68 40.5 130t134.5 156 q84 85 125.5 143.5t56.5 80.5q20 29 28.5 87t-10 114.5t-70.5 102.5t-153 49q-71 4 -116.5 -24t-78.5 -65q-26 -31 -38 -70t-15 -73q-3 -36 3 -74l12 -50h-229zM525 0v248h253v-248h-253z" />
<glyph unicode="@" horiz-adv-x="2167" d="M68 603q4 100 39.5 209.5t94.5 210.5t133.5 187t155.5 145q65 46 145.5 86.5t166.5 68.5t172.5 42t164.5 8q81 -3 175.5 -24.5t189.5 -57.5t180.5 -91t154.5 -129q165 -186 185 -405t-95 -433q-39 -75 -102 -142t-141 -110.5t-166 -60t-179 13.5q-65 19 -97.5 59.5 t-42.5 77.5q-65 -66 -136.5 -106.5t-176.5 -33.5q-75 6 -137 37t-105.5 81t-68.5 115.5t-28 136.5q-3 75 15.5 148t54 141.5t85.5 129t109 103.5q53 39 129 68t141 32q43 3 87 -8t83 -34t68.5 -57.5t44.5 -72.5l40 124h199l-212 -642q-15 -56 -1 -98t73 -45q40 0 83 16.5 t82.5 42t73.5 59.5t54 71q62 105 77.5 194t6.5 154q-19 118 -76.5 212.5t-140 164.5t-186.5 115.5t-219 64.5q-100 15 -191.5 7.5t-171.5 -34t-146 -65.5t-116 -77q-152 -124 -235.5 -270.5t-90.5 -338.5q-3 -159 57.5 -295t168 -231.5t252 -148t305.5 -48.5q62 0 110.5 4.5 t93.5 15t94.5 23t111.5 28.5l68 -156q-137 -49 -257.5 -73.5t-257.5 -21.5q-94 3 -160.5 13.5t-155.5 38.5q-147 47 -267 128t-203.5 192t-125.5 248t-36 293zM765 515q0 -43 15 -88t40.5 -81t65 -57.5t87.5 -18.5q75 7 135.5 65.5t101 138t60 169.5t13.5 152q-6 81 -73 117 t-145 23q-68 -10 -123.5 -52.5t-94.5 -102.5t-60.5 -130t-21.5 -135z" />
<glyph unicode="A" horiz-adv-x="1558" d="M32 0l639 1520h240l617 -1520h-251q-56 137 -88.5 211.5t-48.5 111.5q-16 43 -19 52h-695q-6 -9 -22 -52q-16 -37 -45.5 -111.5t-85.5 -211.5h-241zM504 576h541q-4 6 -23 57t-46.5 124t-60.5 159.5t-60.5 161.5t-48.5 129t-24 67q-3 -10 -24.5 -65.5t-51 -130.5 t-63.5 -161.5t-63.5 -159.5t-51 -123t-24.5 -58z" />
<glyph unicode="B" horiz-adv-x="1411" d="M196 0v1520h9h544q71 0 159.5 -12.5t165 -56.5t128 -124t51.5 -214q0 -114 -68.5 -197t-174.5 -121q74 -16 128 -57.5t90 -94.5t53.5 -116.5t17.5 -128.5q0 -131 -74.5 -224t-208.5 -145q-62 -23 -130.5 -26t-136.5 -3h-553zM426 202h342q40 0 90 6.5t94.5 31t74 71.5 t29.5 128t-29.5 130.5t-74 75.5t-94.5 34t-90 8h-342v-485zM426 889h40q25 -1 76 1q17 0 38 1q41 0 97 -2q108 0 175 15t105 50q53 49 53 143q0 108 -53 161q-40 36 -106 48t-174 12h-211h-40v-429z" />
<glyph unicode="C" horiz-adv-x="1483" d="M130 758q0 206 68.5 361t176.5 258q88 84 201.5 124t256.5 40q218 0 362 -110t185 -315h-240q-29 115 -118.5 169t-197.5 54q-124 0 -210 -52.5t-140 -135.5t-79 -185.5t-25 -207.5q0 -100 23.5 -204t76 -189t138 -137t212.5 -52q134 0 222 63t104 171l240 -3 q-25 -186 -174.5 -309t-410.5 -123q-149 0 -273 51.5t-212.5 152.5t-137 245.5t-48.5 333.5z" />
<glyph unicode="D" horiz-adv-x="1548" d="M196 0v1520h9h509q108 0 214.5 -17.5t201.5 -76.5q330 -208 330 -668q0 -456 -330 -664q-93 -59 -201.5 -76.5t-214.5 -17.5h-518zM426 202h301q162 0 248.5 55.5t127.5 112.5q59 85 87 174.5t28 213.5t-28 215.5t-87 176.5q-42 58 -128 113t-248 55h-301v-1116z" />
<glyph unicode="E" horiz-adv-x="1349" d="M196 0v1520h976v-202h-746v-455h711v-202h-711v-459h763v-202h-993z" />
<glyph unicode="F" horiz-adv-x="1265" d="M196 0v1520h914h11v-202h-695v-458h652v-202h-652v-658h-230z" />
<glyph unicode="G" horiz-adv-x="1631" d="M114 752q0 186 55 332.5t153 247.5t236 155t305 54q105 0 200.5 -26.5t173.5 -79t129 -132t63 -187.5h-244q-47 221 -349 223q-130 0 -222 -51t-151 -132t-87 -185t-28 -209q0 -121 32.5 -228.5t101 -187t174.5 -125t252 -45.5q105 0 163.5 19.5t133.5 52.5v371h-348v198 h579v-730l-53 -15q-74 -23 -138 -41t-120.5 -31t-115 -19t-123.5 -6q-128 0 -264.5 32.5t-248.5 116.5t-185.5 237.5t-73.5 390.5z" />
<glyph unicode="H" horiz-adv-x="1555" d="M211 0v1520h233v-653h702v653h231v-1520h-231v665h-702v-665h-233z" />
<glyph unicode="I" horiz-adv-x="998" d="M196 0v202h189v1116h-189v202h609v-202h-190v-1116h190v-202h-609z" />
<glyph unicode="J" horiz-adv-x="1224" d="M97 417v9h242q-1 -16 -1 -32q0 -71 27 -111q33 -49 79 -75q52 -28 122 -32q105 0 168.5 63t63.5 178v1103h221h10v-1094q0 -205 -127.5 -328t-338.5 -123q-140 0 -230.5 43.5t-143 110.5t-72.5 143t-20 145z" />
<glyph unicode="K" horiz-adv-x="1497" d="M227 0v1520h233v-647q19 19 90 94q62 65 186 193.5t345 359.5h317l-558 -556q-72 -72 -88 -85l696 -879h-324l-531 717l-133 -133v-584h-233z" />
<glyph unicode="L" horiz-adv-x="1216" d="M196 0v1520h230v-1318h711v-202h-941z" />
<glyph unicode="M" horiz-adv-x="2008" d="M196 0v1520h394q78 -224 140 -396.5t105.5 -303t76 -222t52.5 -148.5q49 -140 62 -173q9 31 58 173q19 59 50 149.5t75 221t103 303t136 396.5h363h10v-1520h-233v1309q-12 -43 -68 -196q-22 -65 -56.5 -160.5t-83 -229t-112 -313t-144.5 -410.5h-238q-108 307 -183 517 t-123.5 348t-74.5 216t-40.5 122t-21.5 63.5t-17 42.5v-1309h-230z" />
<glyph unicode="N" horiz-adv-x="1634" d="M196 0v1520h305q133 -224 234 -395t176.5 -301.5t129 -221t89.5 -149.5q85 -140 101 -173v1240h198h10v-1520h-289q-134 224 -238 398t-180.5 303t-132 220.5t-92.5 153.5q-84 143 -103 175v-1250h-208z" />
<glyph unicode="O" horiz-adv-x="1607" d="M97 755q0 189 51 335.5t144 246t223.5 150.5t289.5 51q335 0 520 -207t185 -576q0 -364 -185 -572t-520 -208q-159 0 -289.5 51.5t-223.5 151t-144 244t-51 333.5zM339 755q0 -149 39 -259.5t104 -180.5t148.5 -104.5t174.5 -34.5q100 0 185 34.5t147 104.5t97.5 180.5 t35.5 259.5q0 258 -114.5 419.5t-350.5 161.5q-239 0 -352.5 -160t-113.5 -421z" />
<glyph unicode="P" horiz-adv-x="1284" d="M196 0v1520h521q137 0 244 -28.5t176 -93.5q116 -110 116 -307v-7q0 -205 -141.5 -318.5t-408.5 -119.5h-234h-43v-646h-230zM426 846h49q31 0 97 2q22 1 50 1q54 0 130 -3q81 0 129 21.5t70 46.5q62 59 62 170q0 108 -62 166q-22 25 -70 46.5t-132 21.5h-274h-49v-472z " />
<glyph unicode="Q" horiz-adv-x="1650" d="M97 758q0 147 43 285t127 249.5t214.5 178.5t310.5 67q186 0 317 -67t214.5 -178.5t121 -249.5t37.5 -285q0 -192 -70 -340t-194 -253q0 4 31 7.5t65 8.5t65 10l31 5l128 -10v-180h-509q-46 -12 -90 -18.5t-76 -9.5q-36 -3 -71 -3q-180 0 -312 68t-216 177t-125.5 250.5 t-41.5 287.5zM339 758q0 -84 21.5 -185t73 -189t139.5 -148t219 -60q146 0 233.5 65.5t137 157.5t63.5 191.5t14 167.5q0 85 -17.5 186t-66.5 187.5t-136.5 145.5t-227.5 59q-137 0 -225 -65.5t-138.5 -157t-70 -189t-19.5 -166.5z" />
<glyph unicode="R" horiz-adv-x="1486" d="M211 0v1520h10h544q257 0 394 -101t137 -292q0 -136 -75 -234t-202 -135q131 -36 193 -119t62 -192q0 -84 9 -167q6 -69 19 -145t40 -135h-235q-13 22 -19.5 61t-9.5 82q-3 49 -3 102q0 81 -8 157.5t-39 135t-94.5 93t-175.5 34.5h-314v-665h-233zM439 867q9 -4 49 -4 h103.5t182.5 4q94 0 149.5 22t85 54.5t38.5 72.5t9 75q0 39 -9 78t-38.5 72t-85 53.5t-145.5 23.5q-121 3 -187 3h-103q-40 0 -49 -3v-451z" />
<glyph unicode="S" horiz-adv-x="1486" d="M159 460h242q6 -147 82.5 -215.5t243.5 -68.5q52 0 116.5 6.5t121.5 29t96 71.5t39 130q0 169 -240 225l-338 79q-37 10 -94.5 32t-112 66.5t-93.5 108t-39 151.5q0 127 48.5 216t132 143t190.5 79t224 25q93 0 188.5 -25t170.5 -77.5t120 -132t45 -187.5h-240q1 11 1 21 q0 58 -29 94q-34 43 -83 65t-99.5 31t-83.5 9q-65 0 -126.5 -12t-110.5 -39t-78.5 -70t-29.5 -105q0 -53 15 -84.5t42 -50t63.5 -29.5t78.5 -21l361 -95q36 -10 96.5 -31t119.5 -65t101 -118.5t42 -192.5q0 -111 -36 -187.5t-94.5 -126.5t-130 -78t-140 -40.5t-130.5 -14 t-97 -1.5q-299 0 -437 146q-118 118 -118 319v20z" />
<glyph unicode="T" horiz-adv-x="1324" d="M40 1318v202h1243h10v-202h-511v-1318h-232v1318h-510z" />
<glyph unicode="U" horiz-adv-x="1634" d="M196 622v898h230v-951q0 -189 104 -291t290 -102t289 103t103 290v951h221h12v-898q0 -320 -162 -482q-159 -165 -463 -165q-302 0 -465 165q-159 162 -159 482z" />
<glyph unicode="V" horiz-adv-x="1497" d="M65 1520h234q162 -466 254.5 -727.5t133.5 -385.5q52 -146 62 -176q9 28 62 176q22 62 54.5 156.5t79 230t109 314t145.5 412.5h234l-554 -1520h-270z" />
<glyph unicode="W" horiz-adv-x="2235" d="M65 1523h231q62 -221 109.5 -392t82 -299.5t59.5 -217.5t43 -151q40 -143 44 -177q13 32 53 177q16 62 42 151t63.5 217.5t87 299.5t111.5 392h279q59 -224 106 -396.5t81 -301.5t59 -219.5t41 -152.5q39 -143 49 -176q9 31 44 176q16 62 41 152.5t60.5 219.5t83.5 301.5 t106 396.5h231l-447 -1523h-262q-62 227 -110 401.5t-82 306.5t-60 223t-42 153q-40 143 -48 177q-10 -32 -53 -177q-19 -62 -45 -153t-63.5 -223t-86.5 -306.5t-115 -401.5h-251z" />
<glyph unicode="X" horiz-adv-x="1623" d="M81 0q215 289 334 449t175 235l75 101q-13 13 -72 97q-52 72 -159.5 221.5t-306.5 419.5h296q146 -211 229.5 -328t121.5 -173q46 -65 56 -81q13 16 59 81q40 56 121 173t227 328h280q-100 -137 -178 -241t-135.5 -182t-98 -132t-67.5 -89q-62 -84 -71 -97 q12 -12 74 -101q26 -40 67.5 -96.5t100 -138.5t138 -192.5t181.5 -253.5h-291q-156 227 -242.5 351t-127.5 186q-50 72 -62 88q-10 -16 -62 -88q-47 -62 -132.5 -186t-249.5 -351h-280z" />
<glyph unicode="Y" horiz-adv-x="1486" d="M32 1523h261q168 -267 263.5 -416.5t139.5 -220.5q56 -85 66 -101q9 16 62 101q46 71 135 221.5t253 415.5h260l-602 -995v-528h-232v522z" />
<glyph unicode="Z" horiz-adv-x="1504" d="M162 0l3 199q169 205 298.5 363t227.5 275t164.5 198t111.5 134q108 127 124 152h-873v202h1162l-3 -197q-169 -205 -297.5 -361.5t-226.5 -274.5t-164.5 -199t-112.5 -136q-109 -128 -126 -153h914v-202h-1202z" />
<glyph unicode="[" horiz-adv-x="969" d="M326 -202v1733h383v-160h-181v-1417h181v-156h-383z" />
<glyph unicode="\" horiz-adv-x="500" d="M-19 1531h162l509 -1531h-164z" />
<glyph unicode="]" horiz-adv-x="969" d="M261 -46h186v1417h-186v160h385v-1733h-385v156z" />
<glyph unicode="^" horiz-adv-x="1256" d="M211 684l333 814h170l331 -814h-169l-248 602l-250 -602h-167z" />
<glyph unicode="_" horiz-adv-x="1076" d="M0 -127h1078v-137h-1078v137z" />
<glyph unicode="`" horiz-adv-x="607" d="M-25 1531h243l186 -323h-159z" />
<glyph unicode="a" horiz-adv-x="1197" d="M121 273q0 134 60.5 210.5t143 113.5t172.5 47.5t149 10.5h171q4 34 4 65q0 22 -2 42q-5 48 -28 84t-68.5 57.5t-119.5 21.5q-32 0 -70.5 -8.5t-69.5 -26t-51.5 -48.5t-20.5 -77l-232 3q6 105 54 168.5t114.5 97.5t140 45.5t128.5 11.5q444 0 442 -371v-478v-77 q0 -36 1.5 -77.5t5.5 -87.5h-212q0 22 -1.5 47t-4.5 47q-3 25 -3 55q-59 -87 -142 -129t-181 -42q-72 0 -140 16t-121.5 51.5t-86 91t-32.5 136.5zM351 313q0 -84 52.5 -122t146.5 -38q59 0 106.5 19.5t73.5 45.5q46 46 66.5 101.5t20.5 162.5v12h-28q-19 0 -57 2 q-13 1 -29 1q-32 0 -75 -3q-32 0 -79.5 -6t-91.5 -23.5t-75 -53.5t-31 -98z" />
<glyph unicode="b" horiz-adv-x="1305" d="M162 0l11 186v1328h221v-582q96 156 326 156q134 0 226 -50.5t149.5 -130.5t83.5 -179.5t26 -196.5t-23 -197t-76 -179.5t-140 -129.5t-211 -50q-254 0 -357 168v-29q0 -15 -2 -43t-5 -71h-229zM410 531q0 -159 76.5 -270.5t213.5 -111.5q97 0 154 46.5t85 107.5 t36 124.5t8 100.5q0 68 -11.5 138t-42.5 127.5t-85.5 91.5t-143.5 34q-72 0 -125 -31t-90.5 -85t-56 -124t-18.5 -148z" />
<glyph unicode="c" horiz-adv-x="1187" d="M97 531q0 118 32.5 220.5t101 178.5t171 120t244.5 44q84 0 160 -29.5t133.5 -79.5t95 -120t43.5 -148h-221q-6 94 -74.5 148t-154.5 54q-140 0 -219.5 -96t-79.5 -286q0 -205 89 -294.5t216 -89.5q105 0 170.5 68t65.5 149l221 -3q-13 -176 -138.5 -284t-321.5 -108 q-233 0 -383.5 139.5t-150.5 416.5z" />
<glyph unicode="d" horiz-adv-x="1302" d="M97 531q0 97 26 196.5t83.5 179.5t150.5 130.5t230 50.5q227 0 321 -156v582h222v-1328l10 -186h-229q-3 43 -4.5 70t-1.5 44v29q-97 -168 -355 -168q-127 0 -213 50t-140 129.5t-77 178.5t-23 198zM320 528q0 -37 7.5 -100.5t35.5 -124.5t85.5 -107.5t154.5 -46.5 q140 0 214.5 110.5t74.5 271.5q0 78 -17.5 148t-55 124t-91.5 85t-125 31q-85 0 -140.5 -34t-86.5 -91.5t-43.5 -127.5t-12.5 -138z" />
<glyph unicode="e" horiz-adv-x="1203" d="M97 525q0 105 31 206.5t94.5 182t163 127.5t236.5 47q227 -4 356 -142t129 -350v-121h-787q0 -97 31 -159t76 -99t93.5 -52.5t88.5 -15.5q72 0 118.5 17t76 42.5t44.5 62t25 74.5h221q-32 -180 -149.5 -275t-325.5 -95q-234 0 -378 138t-144 412zM335 646h551 q-4 77 -32 136q-26 53 -80 95t-155 42q-112 0 -190 -73t-94 -200z" />
<glyph unicode="f" horiz-adv-x="855" d="M91 898v164h208v156q0 134 55.5 211.5t146.5 108.5q32 9 65 12t65 3q115 0 180 -35.5t99 -85t42 -100.5q6 -38 6 -68q0 -11 -1 -21h-172h-27q0 13 -1.5 33t-11 40t-32.5 32.5t-64 12.5q-40 0 -80.5 -14.5t-50.5 -76.5q-4 -31 -4 -57q0 -14 1 -26q3 -37 3 -63v-62h247 v-164h-247v-898h-219v898h-208z" />
<glyph unicode="g" horiz-adv-x="1299" d="M105 534q0 255 135 404.5t366 149.5q90 0 167.5 -36t121.5 -101q7 -10 8.5 -14.5t4.5 -7.5q3 -4 3 -7q3 13 3 32q0 16 2.5 44t2.5 64h215l12 -3l-16 -199v-746q0 -292 -133.5 -414.5t-433.5 -122.5q-183 0 -292 87.5t-109 263.5h232q10 -186 234 -186q100 0 156 34.5 t83.5 93t34 135t6.5 160.5q-56 -90 -154.5 -126t-187.5 -36q-224 0 -342.5 135t-118.5 396zM329 544q0 -69 14.5 -135.5t48.5 -120.5t88 -88.5t132 -34.5q94 0 149.5 43t85 102.5t37.5 125t8 108.5q0 36 -8 99t-37.5 125t-85 108t-149.5 46q-78 0 -132 -32.5t-88 -86.5 t-48.5 -122.5t-14.5 -136.5z" />
<glyph unicode="h" horiz-adv-x="1246" d="M162 0v1514h223v-582q108 156 335 156q180 0 277 -98t97 -284v-706h-221v619q0 155 -52.5 220.5t-171.5 68.5h-8q-56 0 -121 -40q-70 -44 -97 -106q-29 -66 -33.5 -114.5t-4.5 -91.5v-31v-525h-223z" />
<glyph unicode="i" horiz-adv-x="556" d="M162 1277v237h258v-237h-258zM183 0v1059h211h10v-1059h-221z" />
<glyph unicode="j" horiz-adv-x="637" d="M56 -234q28 3 60.5 -0.5t60.5 5t48 34.5t20 90v1167h211h10v-1114q0 -62 -8 -126t-36 -114t-82 -81q-49 -28 -128 -28h-16l-140 7v160zM227 1280v237h258v-237h-258z" />
<glyph unicode="k" horiz-adv-x="1097" d="M162 0v1514h223v-873q13 16 59 65q39 43 114.5 125.5t206.5 227.5h291l-434 -434l443 -625h-287l-303 475l-90 -90v-385h-223z" />
<glyph unicode="l" horiz-adv-x="562" d="M180 0v1517h221v-1517h-221z" />
<glyph unicode="m" horiz-adv-x="1970" d="M169 0v1059h219v-137q52 94 133.5 130t155.5 36q290 0 379 -190q121 190 351 190q183 0 295 -98t112 -254v-736h-222v615q0 56 -6.5 109.5t-30.5 96t-73 68t-134 25.5q-19 0 -51.5 -9.5t-65 -28.5t-62 -53t-45.5 -84q-16 -62 -20 -122.5t-4 -88.5v6v-534h-221v615 q0 137 -40.5 218t-180.5 81q-25 0 -60 -8t-71 -28.5t-68.5 -54.5t-54.5 -90q-15 -34 -15 -90q1 -5 1 -11q2 -64 1 -98v-534h-222z" />
<glyph unicode="n" horiz-adv-x="1259" d="M162 0v1059h220v-140q55 87 141 126t170 39q26 0 95 -6t139 -42t125 -107.5t55 -205.5v-723h-221v658q0 256 -230 256h-4q-29 0 -90 -20.5t-99 -73.5q-10 -12 -23.5 -30.5t-26 -47t-20.5 -74.5t-8 -121v-547h-223z" />
<glyph unicode="o" horiz-adv-x="1268" d="M97 531q0 254 141.5 403.5t395.5 149.5q255 0 396.5 -141.5t141.5 -411.5t-141.5 -413t-396.5 -143q-238 0 -387.5 143t-149.5 413zM329 531q0 -59 14.5 -125.5t50 -124t94.5 -96.5t146 -39q94 0 155.5 39t95.5 96.5t45 124t11 125.5q0 65 -11 132t-45 123.5t-94.5 92 t-156.5 35.5q-87 0 -146 -35.5t-94.5 -90.5t-50 -123.5t-14.5 -133.5z" />
<glyph unicode="p" horiz-adv-x="1281" d="M153 1059h225q4 -43 4 -72.5t3 -45.5q3 -19 3 -30q110 173 355 173q117 0 201.5 -46.5t141.5 -122t85 -172.5t28 -199q0 -108 -29.5 -210.5t-86.5 -182t-141.5 -128t-195.5 -48.5q-124 0 -210 34t-151 105v-518l-223 3v1287l-6 114zM394 541q0 -206 79.5 -299t197.5 -96 q97 0 154 39t90 99.5t42.5 129t9.5 127.5q0 55 -9.5 122t-39 123.5t-85 96t-149.5 39.5q-88 0 -145 -43t-89.5 -104t-44 -124.5t-11.5 -109.5z" />
<glyph unicode="q" horiz-adv-x="1289" d="M91 544q0 100 27.5 198t85 173.5t141.5 122t202 46.5q242 0 355 -173v30q0 16 3 45.5t6 72.5h226l-3 -59l-10 -114v-1287l-219 -3v518q-131 -139 -361 -139q-112 0 -196 48.5t-141.5 128t-86.5 182t-29 210.5zM323 541q0 -59 12.5 -127.5t45 -127.5t91.5 -99.5t147 -40.5 q117 0 198 94.5t81 300.5q0 55 -12.5 122t-45 123.5t-90 96t-144.5 39.5q-88 0 -143.5 -39.5t-86.5 -96t-42 -123.5t-11 -122z" />
<glyph unicode="r" horiz-adv-x="783" d="M162 0v1059h223v-173q31 84 109 140q70 50 171 50q11 0 22 -1l81 -3v-215l-13 6q-19 7 -42 8.5t-42 1.5q-91 -3 -146.5 -28t-86.5 -68.5t-42 -110.5t-11 -151v-515h-223z" />
<glyph unicode="s" horiz-adv-x="1106" d="M114 332h231q3 -90 57 -141t148 -51q19 0 59 3t77 20t64.5 49.5t27.5 94.5t-47 90.5t-118.5 48.5t-154.5 36t-155 47t-119 86.5t-47 152.5q0 81 35.5 141.5t96 102t137 60.5t154.5 19q114 0 205.5 -31t145.5 -90q72 -75 72 -196v-19h-231v10q0 65 -35 108 q-32 32 -79.5 42t-87.5 10q-19 0 -51.5 -3t-62 -18t-49.5 -44.5t-20 -85.5q0 -58 51 -80.5t113 -38.5q105 -25 172.5 -48t113.5 -41q53 -19 78 -38q56 -37 85.5 -95t29.5 -117q0 -97 -39 -163t-106 -104.5t-153.5 -56t-180.5 -17.5q-140 0 -222 42t-125.5 99t-56.5 117 t-13 99z" />
<glyph unicode="t" horiz-adv-x="820" d="M65 902v173q69 -3 106 -5t53 -2h24v221q91 29 134.5 44t61.5 20l19 5l6 3v-293h35q25 0 74.5 2t135.5 5v-173q-84 3 -133.5 3h-76.5h-35v-641q3 -43 29 -68q22 -23 70 -35q15 -4 33 -3q42 0 102 18v-176q-83 -13 -146 -13q-27 0 -49 2q-76 8 -120 24q-53 19 -81 49 q-46 46 -52.5 93t-6.5 93v657h-30h-55t-98 -3z" />
<glyph unicode="u" horiz-adv-x="1256" d="M162 361v701h223v-618q0 -166 51.5 -228.5t172.5 -62.5q56 0 122.5 40.5t101.5 116.5q26 56 33 107.5t7 83.5v561h221v-1062h-215v143q-74 -105 -173.5 -135t-183.5 -30q-163 0 -261.5 102.5t-98.5 280.5z" />
<glyph unicode="v" horiz-adv-x="1184" d="M22 1062h245q118 -292 183 -457.5t100 -246.5q40 -94 49 -120q10 26 47 120q31 81 96.5 245.5t179.5 458.5h240l-462 -1062h-231z" />
<glyph unicode="w" horiz-adv-x="1818" d="M40 1062h240q87 -296 136.5 -463t74.5 -251q29 -97 37 -124q6 26 38 124q25 84 77.5 250.5t145.5 463.5h273q84 -289 129.5 -452t72.5 -246q29 -94 32 -119q6 25 40 119q25 81 77.5 244t143.5 454h224l-371 -1062h-257q-85 296 -131 462t-71 252q-29 97 -37 122 q-6 -25 -38 -122q-25 -84 -77.5 -251t-146.5 -463h-261z" />
<glyph unicode="x" horiz-adv-x="1233" d="M72 0q152 202 235.5 311t121.5 164q46 62 56 72q-10 9 -56 68q-39 50 -120.5 154t-230.5 293h286q100 -140 156 -218.5t83 -116.5q31 -46 43 -56q6 10 41 56q29 39 86 117t162 218h261q-153 -192 -239.5 -298t-129.5 -158q-49 -59 -56 -72q10 -12 56 -71q40 -53 121 -160 t230 -303h-283q-100 143 -157 221t-86 118q-37 46 -43 59q-6 -13 -40 -59q-25 -40 -82.5 -118t-157.5 -221h-257z" />
<glyph unicode="y" horiz-adv-x="1200" d="M37 1062h246q115 -292 180 -455t97 -246q36 -94 46 -119q9 25 49 119q37 81 101 244t182 457h237l-619 -1463h-227q59 150 91.5 233.5t48.5 118.5l19 49z" />
<glyph unicode="z" horiz-adv-x="998" d="M105 0l3 156q189 270 292.5 418.5t155.5 223.5q59 84 72 104h-514v160h762l-3 -154q-189 -270 -293.5 -418t-156.5 -223q-59 -84 -72 -108h544v-159h-790z" />
<glyph unicode="{" horiz-adv-x="904" d="M146 580v166q121 9 153.5 71t32.5 174l-3 302q0 55 23 97.5t59 75t78 49t83 16.5h137v-160h-90q-97 -13 -97 -124v-290q0 -94 -43 -168.5t-118 -127.5q75 -49 118 -125t43 -172v-286q0 -105 97 -124h90v-156h-137q-43 0 -84 16.5t-77 47t-59 75t-23 100.5l3 298 q0 112 -32.5 171.5t-153.5 73.5z" />
<glyph unicode="|" horiz-adv-x="569" d="M202 0v1531h165v-1531h-165z" />
<glyph unicode="}" horiz-adv-x="907" d="M196 -46h93q94 19 96 124v289q0 189 162 298q-78 49 -120 125.5t-42 169.5v287q0 108 -96 124h-93v160h136q43 0 85.5 -16.5t78 -49t58 -75t22.5 -97.5l-4 -299q-3 -115 31.5 -175.5t158.5 -69.5v-169q-121 -9 -155.5 -69.5t-34.5 -175.5l4 -298q0 -56 -22.5 -100.5 t-58 -75t-78 -47t-85.5 -16.5h-136v156z" />
<glyph unicode="~" horiz-adv-x="1256" d="M159 378q0 56 10.5 114t37.5 106t73 78t118 30q39 0 69.5 -11t44.5 -18l277 -165q39 -25 77.5 -23t65.5 18q25 22 31.5 63.5t0.5 78.5h130q3 -50 -5 -105.5t-32.5 -100.5t-65 -78t-105.5 -36q-43 -3 -90 6.5t-103 46.5l-227 143q-72 55 -124.5 10.5t-45.5 -157.5h-137z " />
<glyph unicode="&#xa1;" horiz-adv-x="783" d="M293 3v504l30 685h171l31 -688v-501h-190h-42zM293 1299v264h232v-264h-190h-42z" />
<glyph unicode="&#xa2;" horiz-adv-x="1197" d="M97 569q0 143 39.5 253t108 183t162.5 112t205 39h47.5t46.5 -3q16 59 39 121t40 116h166l-91 -287q180 -90 221 -367h-183q-16 65 -43.5 113.5t-59.5 75.5l-251 -760q16 -3 34 -4.5t34 -1.5q121 0 195.5 75.5t97.5 209.5h195q-12 -91 -51 -174.5t-99.5 -145.5 t-145 -99.5t-192.5 -37.5q-71 0 -121 10q-19 -65 -43.5 -136.5t-40.5 -130.5h-162l100 319q-127 75 -187.5 210t-60.5 310zM286 569q0 -94 29.5 -187t91.5 -148l245 749h-40q-84 0 -146 -36t-101 -94t-59 -132.5t-20 -151.5z" />
<glyph unicode="&#xa3;" horiz-adv-x="1240" d="M65 652v146h140v7q-29 49 -55 113.5t-26 165.5q0 177 118.5 290.5t363.5 113.5q108 0 197 -34t154 -97.5t101 -158.5t36 -211h-196q-6 163 -82.5 245.5t-209.5 82.5q-56 0 -107.5 -14.5t-94.5 -44t-67 -74.5t-24 -104t24 -111.5t61 -103.5l38 -65h353v-146h-295 q7 -26 7 -54.5v-53.5q0 -84 -32.5 -163t-80.5 -143q40 10 75 10q74 0 122.5 -15t91.5 -34q37 -16 72.5 -26.5t83.5 -10.5q62 0 114.5 38t108.5 93l103 -159q-52 -50 -96 -81t-87.5 -50t-93 -27t-114.5 -8q-37 0 -76.5 14.5t-85.5 30.5l-16 3q-43 16 -85 29.5t-95 13.5 q-46 0 -85 -15t-74 -31l-71 -29l-96 165q91 66 158.5 159t67.5 196q0 78 -33 148h-212z" />
<glyph unicode="&#xa4;" horiz-adv-x="1504" d="M162 299l167 164q-84 136 -84 280q0 139 87 279q-43 40 -88 79t-82 74l140 154l170 -167q69 46 137 63.5t143 17.5t143.5 -17.5t136.5 -63.5l167 167l143 -154l-167 -149q78 -131 78 -283q0 -72 -17.5 -140.5t-63.5 -139.5l170 -164l-143 -143l-164 164 q-140 -85 -283 -86q-146 0 -283 86q-40 -40 -85 -84t-82 -80zM439 743q0 -124 92 -221q97 -91 221 -93q56 0 106 23t102 63q96 84 96 228q0 120 -92 211q-91 91 -212 91q-68 0 -125.5 -24t-98 -65.5t-65 -96t-24.5 -116.5z" />
<glyph unicode="&#xa5;" horiz-adv-x="1327" d="M65 1528h224l301 -534q13 -23 25.5 -51.5t18.5 -44.5l31 -55q22 46 38.5 83.5t39.5 76.5l286 525h235l-421 -736h349v-164h-427v-137h427v-152h-427v-339h-196v339h-429v152h429v137h-429v164h345q-100 176 -211.5 369.5t-208.5 366.5z" />
<glyph unicode="&#xa6;" horiz-adv-x="852" d="M358 -361v821h170v-821h-170zM358 646v817h170v-817h-170z" />
<glyph unicode="&#xa7;" horiz-adv-x="1159" d="M146 49h202q16 -192 228 -192q120 0 184 47t64 115q0 59 -53.5 87t-158.5 59h3q-31 7 -57.5 14t-53.5 13q-16 7 -32 10t-33 9q-16 7 -28.5 8.5t-25.5 7.5h3q-25 10 -43.5 17t-31.5 17h3q-136 87 -136 230q0 81 35.5 149.5t94.5 124.5q-84 40 -124 98.5t-40 162.5 q0 159 121 255t329 96q417 0 433 -367h-202q-16 192 -228 192q-120 0 -184 -47.5t-64 -116.5q0 -59 54.5 -87.5t157.5 -58.5l173 -46q7 -3 16.5 -6.5t15.5 -6.5l-3 3q62 -16 98 -41l-3 3q137 -82 137 -235q0 -169 -124 -274q78 -39 117 -99t39 -158q0 -162 -120 -258.5 t-329 -96.5q-205 0 -316 93t-118 279zM378 512q-1 -64 58 -89q39 -16 95 -29q25 -6 53 -15t65 -15q149 75 149 183q0 62 -59 84q-39 16 -93 30q-26 7 -53 15t-62 14q-153 -75 -153 -178z" />
<glyph unicode="&#xa8;" horiz-adv-x="1353" d="M326 1628v270h267v-270h-267zM762 1628v270h267v-270h-267z" />
<glyph unicode="&#xa9;" horiz-adv-x="1965" d="M196 774q0 177 60 325t167.5 259t254.5 172.5t316 61.5q165 0 309.5 -64.5t253 -176t169.5 -259.5t61 -318q0 -168 -61 -317.5t-169.5 -261t-253 -176.5t-309.5 -65q-166 0 -311.5 65t-252.5 176.5t-170.5 261t-63.5 317.5zM401 774q0 -136 45 -251.5t124 -200 t188 -133.5t236 -49t234.5 49t185 133.5t123 200t45.5 251.5q0 134 -45.5 250t-123 200.5t-185 133.5t-234.5 49t-236 -47.5t-189.5 -132t-124 -200.5t-43.5 -253zM563 774q0 221 124 355.5t329 134.5q159 0 266.5 -90t131.5 -239l6 -49h-159l-34 3l-6 33q-13 75 -70 120.5 t-132 45.5q-121 0 -189 -81.5t-68 -228.5q0 -59 16.5 -117t50.5 -102t82.5 -71.5t110.5 -27.5q75 0 132.5 50t66.5 124l3 37h193l-3 -46q-16 -146 -126 -242.5t-266 -96.5q-100 0 -185 36t-145.5 101t-94.5 155t-34 196z" />
<glyph unicode="&#xaa;" horiz-adv-x="690" d="M32 572h626v96h-626v-96zM32 935q0 91 41 141.5t96 76t115.5 32.5t100.5 7h116q6 75 -17.5 128.5t-125.5 53.5q-46 0 -94.5 -22.5t-48.5 -84.5h-156q3 72 35.5 114t76.5 65t93 31t87 8q299 0 301 -251v-323v-48q0 -22 1.5 -50t1.5 -61h-143v32.5t-5 32.5q-3 16 -3 37 q-75 -118 -215 -118q-49 0 -94.5 11t-81 34.5t-58.5 62t-23 91.5zM189 960q0 -108 134 -106q40 0 72.5 14t48.5 30q31 29 44 67t13 110v9h-19q-13 0 -37.5 2t-69.5 -2q-22 0 -54 -4.5t-61 -15.5t-50 -36t-21 -68z" />
<glyph unicode="&#xab;" horiz-adv-x="1116" d="M186 463v156l342 263v-201q-65 -56 -101 -87t-52 -44t-17 -16q16 -16 45 -42t57 -53q31 -29 68 -61l-6 -189q-118 94 -185 149.5t-103 81.5q-40 32 -48 43zM619 463v156l341 263v-201q-65 -56 -100.5 -87t-51.5 -44t-16 -16q16 -16 45.5 -42t54.5 -53q32 -29 68 -61 l-6 -189q-118 94 -184.5 149.5t-101.5 81.5q-40 32 -49 43z" />
<glyph unicode="&#xac;" horiz-adv-x="1454" d="M180 919v184h1081v-599h-196v415h-885z" />
<glyph unicode="&#xad;" horiz-adv-x="740" d="M87 485v167h568v-167h-568z" />
<glyph unicode="&#xae;" horiz-adv-x="1982" d="M196 814q0 169 63.5 317.5t170.5 259t252.5 175.5t311.5 65q162 0 306.5 -65t252 -175.5t171 -259t63.5 -317.5q0 -168 -63.5 -318.5t-171 -261t-252 -175.5t-306.5 -65q-166 0 -311.5 65t-252.5 175.5t-170.5 261t-63.5 318.5zM401 814q0 -137 45 -252t124 -200 t188 -133.5t236 -48.5q117 0 216 42t176 117h-19l-149 3l-10 16q-108 183 -158 265.5t-67 115.5h-123v-400h-189v911l3 39h407q339 0 339 -273q0 -231 -235 -270q19 -29 57 -89.5t77 -122.5t70 -109t34 -50q75 85 117 195.5t42 243.5q0 134 -45.5 249t-123 200t-185 133.5 t-234.5 48.5t-236 -48.5t-188 -133.5t-124 -200t-45 -249zM860 905h113h37q52 0 105.5 3t83.5 30q25 32 25 81q0 62 -37 86.5t-131 24.5h-196v-225z" />
<glyph unicode="&#xaf;" horiz-adv-x="771" d="M97 1274v174h577v-174h-577z" />
<glyph unicode="&#xb0;" horiz-adv-x="748" d="M130 1286q0 91 62 168t190 77q127 0 189.5 -77t62.5 -168q0 -90 -63.5 -169t-188.5 -79q-128 0 -190 79t-62 169zM264 1286q0 -46 29.5 -80t88.5 -34q62 0 89 34t27 80t-27 80.5t-89 34.5q-59 0 -88.5 -34.5t-29.5 -80.5z" />
<glyph unicode="&#xb1;" horiz-adv-x="1209" d="M81 143v137h1043v-137h-1043zM81 798v166h441v434h165v-434h440v-166h-440v-434h-165v434h-441z" />
<glyph unicode="&#xb2;" horiz-adv-x="659" d="M32 590l5 119l19 21q74 75 169 156t166 182q37 47 54.5 84t14.5 79q-16 133 -147 133q-59 0 -98 -38q-37 -37 -35 -108v-6h-148v6q1 121 76 192q78 78 205 78q131 0 210.5 -70t75.5 -191q0 -65 -24.5 -118t-80.5 -115q-25 -29 -62.5 -72t-78 -83.5t-78 -74.5t-64.5 -50 h404v-124h-583z" />
<glyph unicode="&#xb3;" horiz-adv-x="699" d="M37 830h146q0 -56 32 -87q46 -47 127 -47q65 0 119 31t54 106q0 40 -12 60.5t-31 41.5q-32 25 -81 34.5t-121 9.5h-9v124h9q37 0 95 5t98 45q19 16 28.5 34t9.5 50q0 56 -39 91.5t-117 35.5q-56 0 -102.5 -32.5t-46.5 -97.5h-147q0 97 65 170q85 84 221 84 q56 0 111 -12.5t101 -43.5t74 -79t28 -116q0 -72 -48 -123.5t-122 -72.5q81 -15 133.5 -72.5t52.5 -144.5q0 -121 -85.5 -186.5t-240.5 -65.5q-69 0 -134 21.5t-105 61.5q-67 67 -63 175z" />
<glyph unicode="&#xb4;" horiz-adv-x="1057" d="M391 1208l185 323h244l-270 -323h-159z" />
<glyph unicode="&#xb5;" horiz-adv-x="1190" d="M100 -420v1550h264v-732q0 -125 49.5 -188.5t155.5 -63.5q121 0 188 102.5t67 266.5v615h264v-1130h-264v46q-46 -36 -110.5 -55.5t-160.5 -19.5q-65 0 -107 3.5t-82 15.5v-410h-264z" />
<glyph unicode="&#xb6;" horiz-adv-x="1265" d="M97 1081q0 212 130.5 329.5t362.5 117.5h439h43v-1886h-209v1660h-173v-1660h-202v1007q-71 6 -135 37t-119 79q-65 65 -101 148.5t-36 167.5z" />
<glyph unicode="&#xb7;" horiz-adv-x="672" d="M205 905v270h267v-270h-267z" />
<glyph unicode="&#xb8;" horiz-adv-x="992" d="M258 -388l35 68q12 -6 38.5 -14t23.5 -5q25 -6 54.5 -14t46.5 -8q32 0 66 20.5t34 76.5q0 46 -20.5 63.5t-47.5 17.5q-25 0 -110 -25l-43 43l128 168h136l-92 -114q13 3 43 3q84 0 136.5 -36t62.5 -74q3 -6 3 -19.5v-20.5q0 -93 -82.5 -135.5t-190.5 -42.5 q-56 0 -111 14.5t-110 33.5z" />
<glyph unicode="&#xb9;" horiz-adv-x="672" d="M134 1189v129q42 0 79.5 23t69.5 53q37 35 68 78h137v-882h-140v709q-22 -32 -59 -56q-28 -19 -67 -35t-88 -19z" />
<glyph unicode="&#xba;" horiz-adv-x="954" d="M124 572h730v96h-730v-96zM124 1110q0 173 95.5 274t268.5 101q169 0 263.5 -96t94.5 -279t-94 -278.5t-264 -95.5q-159 0 -261.5 96.5t-102.5 277.5zM280 1110q0 -40 9.5 -85.5t34 -82.5t63.5 -61t101 -24t101 24t62 61t31 83.5t8 84.5q0 43 -8 88t-31 82.5t-62 62 t-101 24.5t-101 -24.5t-63.5 -60t-34 -81t-9.5 -91.5z" />
<glyph unicode="&#xbb;" horiz-adv-x="1116" d="M186 378q37 32 68 61q26 25 55.5 52t45.5 43q0 3 -16 16t-50.5 44t-102.5 87v201l342 -263v-156q-10 -10 -49 -43q-37 -26 -101.5 -81.5t-185.5 -149.5zM619 378q36 32 68 61q25 25 54.5 52t47.5 43q0 3 -18 16q-16 13 -50 44t-102 87v201l341 -263v-156q-9 -10 -49 -43 q-37 -26 -101 -81.5t-185 -149.5z" />
<glyph unicode="&#xbc;" horiz-adv-x="1822" d="M149 1215v130q43 0 80.5 22.5t69.5 52.5q36 35 68 78h137v-883h-140v711q-22 -32 -57 -56q-29 -19 -68.5 -35.5t-89.5 -19.5zM342 -25h189l954 1520h-189zM1081 176v120l404 586h140v-583h124v-123h-124v-176h-130v176h-414zM1224 299h271l1 62q2 62 2 135t-1 103l-2 91 q-75 -111 -134 -196q-52 -74 -93 -134.5t-44 -60.5z" />
<glyph unicode="&#xbd;" horiz-adv-x="1822" d="M149 1215v130q43 0 80.5 22.5t69.5 52.5q36 35 68 78h137v-883h-140v711q-22 -32 -57 -56q-29 -19 -68.5 -35.5t-89.5 -19.5zM342 -25h189l954 1520h-189zM1159 0l3 121l19 19q75 75 169.5 156.5t166.5 182.5q36 46 53.5 83t14.5 79q-16 133 -146 133q-59 0 -97 -38 q-37 -36 -37 -108v-6h-146v6q0 121 75 192q78 78 205 78q130 0 209.5 -70t76.5 -190q0 -66 -24 -119t-79 -115q-26 -29 -64 -72t-78.5 -83.5t-78 -74.5t-62.5 -50h404v-124h-584z" />
<glyph unicode="&#xbe;" horiz-adv-x="1828" d="M100 830h148q0 -56 32 -87q46 -47 127 -47q65 0 119 31t54 106q0 40 -12 60.5t-31 41.5q-31 25 -80.5 34.5t-121.5 9.5h-9v124h9q37 0 95 5t98 45q19 16 28.5 34t9.5 50q0 56 -39 91.5t-117 35.5q-55 0 -102 -32.5t-47 -97.5h-147q0 97 66 170q84 84 221 84 q55 0 110 -12.5t101 -43.5t74 -79t28 -116q0 -72 -47.5 -123.5t-122.5 -72.5q81 -15 133.5 -72.5t52.5 -144.5q0 -121 -85 -186.5t-241 -65.5q-69 0 -134 21.5t-105 61.5q-68 67 -65 175zM420 -25l954 1520h189l-954 -1520h-189zM1081 176v120l404 586h140v-583h124v-123 h-124v-176h-130v176h-414zM1224 299h271l1 62q2 62 2 135t-1 103l-2 91q-75 -111 -134 -196q-52 -74 -93 -134.5t-44 -60.5z" />
<glyph unicode="&#xbf;" horiz-adv-x="1284" d="M130 436q0 81 21.5 143t62 120.5t104.5 124t145 152.5q22 29 35.5 54.5t13.5 50.5v118h250v-118q0 -68 -40.5 -130t-134.5 -156q-85 -84 -126 -143t-57 -83q-19 -28 -28 -85.5t9.5 -114t70 -101t153.5 -50.5q72 -3 117 24.5t79 64.5q25 36 37 73t15 70q3 37 -3 75l-11 47 h229l9 -35q16 -97 -4 -200t-94 -181q-66 -72 -159.5 -112.5t-214.5 -40.5q-115 0 -217.5 42t-164.5 117q-52 65 -74.5 135t-22.5 139zM507 1302v248h255v-248h-255z" />
<glyph unicode="&#xc0;" horiz-adv-x="1558" d="M32 0l639 1520h240l617 -1520h-251q-56 137 -88.5 211.5t-48.5 111.5q-16 43 -19 52h-695q-6 -9 -22 -52q-16 -37 -45.5 -111.5t-85.5 -211.5h-241zM504 576h541q-4 6 -23 57t-46.5 124t-60.5 159.5t-60.5 161.5t-48.5 129t-24 67q-3 -10 -24.5 -65.5t-51 -130.5 t-63.5 -161.5t-63.5 -159.5t-51 -123t-24.5 -58zM518 1992h244l186 -321h-159z" />
<glyph unicode="&#xc1;" horiz-adv-x="1558" d="M32 0l639 1520h240l617 -1520h-251q-56 137 -88.5 211.5t-48.5 111.5q-16 43 -19 52h-695q-6 -9 -22 -52q-16 -37 -45.5 -111.5t-85.5 -211.5h-241zM504 576h541q-4 6 -23 57t-46.5 124t-60.5 159.5t-60.5 161.5t-48.5 129t-24 67q-3 -10 -24.5 -65.5t-51 -130.5 t-63.5 -161.5t-63.5 -159.5t-51 -123t-24.5 -58zM622 1671l186 321h245l-271 -321h-160z" />
<glyph unicode="&#xc2;" horiz-adv-x="1558" d="M32 0l639 1520h240l617 -1520h-251q-56 137 -88.5 211.5t-48.5 111.5q-16 43 -19 52h-695q-6 -9 -22 -52q-16 -37 -45.5 -111.5t-85.5 -211.5h-241zM398 1671l305 361h157l309 -361h-172l-215 224q-55 -59 -106 -113t-107 -111h-171zM504 576h541q-4 6 -23 57t-46.5 124 t-60.5 159.5t-60.5 161.5t-48.5 129t-24 67q-3 -10 -24.5 -65.5t-51 -130.5t-63.5 -161.5t-63.5 -159.5t-51 -123t-24.5 -58z" />
<glyph unicode="&#xc3;" horiz-adv-x="1558" d="M32 0l639 1520h240l617 -1520h-251q-56 137 -88.5 211.5t-48.5 111.5q-16 43 -19 52h-695q-6 -9 -22 -52q-16 -37 -45.5 -111.5t-85.5 -211.5h-241zM439 1709q0 43 7 85t26 78t55 59t88 23q32 0 55 -8t30 -16l211 -122q29 -16 57.5 -15t47.5 12q22 16 27 48.5t-2 57.5h99 q3 -40 -3.5 -80.5t-24.5 -76t-49 -58t-80 -25.5q-37 -3 -70.5 5t-72.5 36l-172 105q-53 46 -93.5 11.5t-33.5 -119.5h-102zM504 576h541q-4 6 -23 57t-46.5 124t-60.5 159.5t-60.5 161.5t-48.5 129t-24 67q-3 -10 -24.5 -65.5t-51 -130.5t-63.5 -161.5t-63.5 -159.5 t-51 -123t-24.5 -58z" />
<glyph unicode="&#xc4;" horiz-adv-x="1558" d="M32 0l639 1520h240l617 -1520h-251q-56 137 -88.5 211.5t-48.5 111.5q-16 43 -19 52h-695q-6 -9 -22 -52q-16 -37 -45.5 -111.5t-85.5 -211.5h-241zM439 1671v270h267v-270h-267zM504 576h541q-4 6 -23 57t-46.5 124t-60.5 159.5t-60.5 161.5t-48.5 129t-24 67 q-3 -10 -24.5 -65.5t-51 -130.5t-63.5 -161.5t-63.5 -159.5t-51 -123t-24.5 -58zM876 1671v270h267v-270h-267z" />
<glyph unicode="&#xc5;" horiz-adv-x="1558" d="M32 0l639 1520h240l617 -1520h-251q-56 137 -88.5 211.5t-48.5 111.5q-16 43 -19 52h-695q-6 -9 -22 -52q-16 -37 -45.5 -111.5t-85.5 -211.5h-241zM504 576h541q-4 6 -23 57t-46.5 124t-60.5 159.5t-60.5 161.5t-48.5 129t-24 67q-3 -10 -24.5 -65.5t-51 -130.5 t-63.5 -161.5t-63.5 -159.5t-51 -123t-24.5 -58zM547 1914q0 97 71.5 172.5t170.5 75.5q97 0 167 -73t70 -175q0 -100 -70 -171.5t-167 -71.5t-169.5 71.5t-72.5 171.5zM696 1914q0 -36 28 -64.5t65 -28.5q36 0 61.5 29t25.5 64q0 37 -26 66.5t-61 29.5q-37 0 -65 -29.5 t-28 -66.5z" />
<glyph unicode="&#xc6;" horiz-adv-x="2229" d="M65 0l638 1517h1369v-202h-822v-396h749v-205h-749v-512h850v-202h-1071v469h-541q-6 -16 -28 -75q-20 -49 -59.5 -142t-107.5 -252h-228zM580 674h449v641h-159q-3 -10 -24.5 -56.5t-51 -110.5t-64 -138.5t-65.5 -141.5t-53 -121t-32 -73z" />
<glyph unicode="&#xc7;" horiz-adv-x="1483" d="M130 758q0 206 68.5 361t176.5 258q88 84 201.5 124t256.5 40q218 0 362 -110t185 -315h-240q-29 115 -118.5 169t-197.5 54q-124 0 -210 -52.5t-140 -135.5t-79 -185.5t-25 -207.5q0 -100 23.5 -204t76 -189t138 -137t212.5 -52q134 0 222 63t104 171l240 -3 q-25 -180 -163.5 -300t-382.5 -129l-69 -89q13 3 43 3q84 0 136.5 -36t62.5 -74q3 -6 3 -19.5v-20.5q0 -93 -82.5 -135.5t-190.5 -42.5q-56 0 -111.5 14.5t-109.5 33.5l34 68q13 -6 39.5 -14t23.5 -5q25 -6 54.5 -14t46.5 -8q32 0 66 20.5t34 76.5q0 46 -21 63.5t-47 17.5 q-25 0 -111 -25l-42 43l107 146q-264 29 -420 229t-156 548z" />
<glyph unicode="&#xc8;" horiz-adv-x="1349" d="M196 0v1520h976v-202h-746v-455h711v-202h-711v-459h763v-202h-993zM417 1992h244l185 -321h-159z" />
<glyph unicode="&#xc9;" horiz-adv-x="1349" d="M196 0v1520h976v-202h-746v-455h711v-202h-711v-459h763v-202h-993zM528 1671l186 321h243l-270 -321h-159z" />
<glyph unicode="&#xca;" horiz-adv-x="1349" d="M196 0v1520h976v-202h-746v-455h711v-202h-711v-459h763v-202h-993zM302 1671l307 361h156l310 -361h-173l-215 224q-56 -59 -106 -113t-106 -111h-173z" />
<glyph unicode="&#xcb;" horiz-adv-x="1349" d="M196 0v1520h976v-202h-746v-455h711v-202h-711v-459h763v-202h-993zM348 1671v270h267v-270h-267zM785 1671v270h268v-270h-268z" />
<glyph unicode="&#xcc;" horiz-adv-x="607" d="M40 1992h243l186 -321h-159zM189 0v1520h231v-1520h-231z" />
<glyph unicode="&#xcd;" horiz-adv-x="607" d="M137 1671l186 321h243l-270 -321h-159zM189 0v1520h231v-1520h-231z" />
<glyph unicode="&#xce;" horiz-adv-x="607" d="M-81 1671l305 361h158l308 -361h-172l-216 224q-56 -59 -106 -113t-105 -111h-172zM189 0v1520h231v-1520h-231z" />
<glyph unicode="&#xcf;" horiz-adv-x="607" d="M-46 1671v270h267v-270h-267zM189 0v1520h231v-1520h-231zM391 1671v270h267v-270h-267z" />
<glyph unicode="&#xd0;" horiz-adv-x="1548" d="M-25 768v161h211v602h517q108 0 217 -18t204 -77q173 -108 250.5 -280.5t77.5 -390.5t-78 -390.5t-250 -280.5q-94 -59 -203.5 -76.5t-217.5 -17.5h-517v768h-211zM417 199h300q159 0 247.5 51.5t132.5 116.5q65 94 90 194t25 204q0 105 -25 204t-90 193 q-46 65 -133.5 117.5t-246.5 52.5h-300v-403h211v-161h-211v-569z" />
<glyph unicode="&#xd1;" horiz-adv-x="1634" d="M196 0v1520h305q133 -224 234 -395t176.5 -301.5t129 -221t89.5 -149.5q85 -140 101 -173v1240h198h10v-1520h-289q-134 224 -238 398t-180.5 303t-132 220.5t-92.5 153.5q-84 143 -103 175v-1250h-208zM444 1709q0 43 6 85t25 78t55 59t89 23q31 0 54 -8t30 -16 l211 -122q29 -16 57.5 -15t47.5 12q22 16 28 48.5t-2 57.5h98q3 -40 -3 -80.5t-24.5 -76t-49.5 -58t-79 -25.5q-36 -3 -70.5 5t-73.5 36l-172 105q-52 46 -93 11.5t-34 -119.5h-100z" />
<glyph unicode="&#xd2;" horiz-adv-x="1607" d="M97 755q0 189 51 335.5t144 246t223.5 150.5t289.5 51q335 0 520 -207t185 -576q0 -364 -185 -572t-520 -208q-159 0 -289.5 51.5t-223.5 151t-144 244t-51 333.5zM339 755q0 -149 39 -259.5t104 -180.5t148.5 -104.5t174.5 -34.5q100 0 185 34.5t147 104.5t97.5 180.5 t35.5 259.5q0 258 -114.5 419.5t-350.5 161.5q-239 0 -352.5 -160t-113.5 -421zM531 1992h243l186 -321h-159z" />
<glyph unicode="&#xd3;" horiz-adv-x="1607" d="M97 755q0 189 51 335.5t144 246t223.5 150.5t289.5 51q335 0 520 -207t185 -576q0 -364 -185 -572t-520 -208q-159 0 -289.5 51.5t-223.5 151t-144 244t-51 333.5zM339 755q0 -149 39 -259.5t104 -180.5t148.5 -104.5t174.5 -34.5q100 0 185 34.5t147 104.5t97.5 180.5 t35.5 259.5q0 258 -114.5 419.5t-350.5 161.5q-239 0 -352.5 -160t-113.5 -421zM646 1671l184 321h245l-270 -321h-159z" />
<glyph unicode="&#xd4;" horiz-adv-x="1607" d="M97 755q0 189 51 335.5t144 246t223.5 150.5t289.5 51q335 0 520 -207t185 -576q0 -364 -185 -572t-520 -208q-159 0 -289.5 51.5t-223.5 151t-144 244t-51 333.5zM339 755q0 -149 39 -259.5t104 -180.5t148.5 -104.5t174.5 -34.5q100 0 185 34.5t147 104.5t97.5 180.5 t35.5 259.5q0 258 -114.5 419.5t-350.5 161.5q-239 0 -352.5 -160t-113.5 -421zM423 1671l307 361h156l310 -361h-174l-214 224q-56 -59 -106 -113t-106 -111h-173z" />
<glyph unicode="&#xd5;" horiz-adv-x="1607" d="M97 755q0 189 51 335.5t144 246t223.5 150.5t289.5 51q335 0 520 -207t185 -576q0 -364 -185 -572t-520 -208q-159 0 -289.5 51.5t-223.5 151t-144 244t-51 333.5zM339 755q0 -149 39 -259.5t104 -180.5t148.5 -104.5t174.5 -34.5q100 0 185 34.5t147 104.5t97.5 180.5 t35.5 259.5q0 258 -114.5 419.5t-350.5 161.5q-239 0 -352.5 -160t-113.5 -421zM463 1709q0 43 6 85t26 78t56 59t87 23q31 0 55 -8t30 -16l212 -122q29 -16 56.5 -15t46.5 12q23 16 28.5 48.5t-1.5 57.5h97q3 -40 -3 -80.5t-24.5 -76t-48.5 -58t-80 -25.5q-36 -3 -70 5 t-73 36l-173 105q-52 46 -93 11.5t-34 -119.5h-100z" />
<glyph unicode="&#xd6;" horiz-adv-x="1607" d="M97 755q0 189 51 335.5t144 246t223.5 150.5t289.5 51q335 0 520 -207t185 -576q0 -364 -185 -572t-520 -208q-159 0 -289.5 51.5t-223.5 151t-144 244t-51 333.5zM339 755q0 -149 39 -259.5t104 -180.5t148.5 -104.5t174.5 -34.5q100 0 185 34.5t147 104.5t97.5 180.5 t35.5 259.5q0 258 -114.5 419.5t-350.5 161.5q-239 0 -352.5 -160t-113.5 -421zM447 1671v270h267v-270h-267zM882 1671v270h268v-270h-268z" />
<glyph unicode="&#xd7;" horiz-adv-x="1812" d="M277 130l491 479q-56 56 -110.5 109t-110.5 109q-65 65 -138.5 136.5t-131.5 127.5l143 143l488 -482q78 78 156.5 154.5t159.5 155.5q37 40 88.5 88.5t85.5 83.5l143 -143l-488 -482l110 -106t111 -112q65 -62 138 -133.5t129 -127.5l-147 -136l-486 485 q-56 -56 -110.5 -112.5t-110.5 -112.5l-133.5 -133.5t-130.5 -126.5z" />
<glyph unicode="&#xd8;" horiz-adv-x="1688" d="M146 755q0 189 51 335.5t143 246t222.5 150.5t291.5 51q159 0 286 -50l68 131h159l-103 -196q143 -94 219.5 -263t76.5 -405q0 -364 -185.5 -572t-520.5 -208q-180 0 -320 65l-62 -118h-159l97 189q-124 97 -194 258.5t-70 385.5zM388 755q0 -149 36 -255t101 -177 l513 976q-81 37 -184 37q-239 0 -352.5 -160t-113.5 -421zM634 227q94 -52 220 -51q100 0 185 34.5t146.5 104.5t97 180.5t35.5 259.5q0 153 -39 274t-120 195z" />
<glyph unicode="&#xd9;" horiz-adv-x="1634" d="M196 622v898h230v-951q0 -189 104 -291t290 -102t289 103t103 290v951h221h12v-898q0 -320 -162 -482q-159 -165 -463 -165q-302 0 -465 165q-159 162 -159 482zM550 1992h245l184 -321h-159z" />
<glyph unicode="&#xda;" horiz-adv-x="1634" d="M196 622v898h230v-951q0 -189 104 -291t290 -102t289 103t103 290v951h221h12v-898q0 -320 -162 -482q-159 -165 -463 -165q-302 0 -465 165q-159 162 -159 482zM661 1671l185 321h245l-271 -321h-159z" />
<glyph unicode="&#xdb;" horiz-adv-x="1634" d="M196 622v898h230v-951q0 -189 104 -291t290 -102t289 103t103 290v951h221h12v-898q0 -320 -162 -482q-159 -165 -463 -165q-302 0 -465 165q-159 162 -159 482zM436 1671l307 361h155l310 -361h-173l-215 224q-55 -59 -105 -113t-106 -111h-173z" />
<glyph unicode="&#xdc;" horiz-adv-x="1634" d="M196 622v898h230v-951q0 -189 104 -291t290 -102t289 103t103 290v951h221h12v-898q0 -320 -162 -482q-159 -165 -463 -165q-302 0 -465 165q-159 162 -159 482zM463 1671v270h267v-270h-267zM898 1671v270h267v-270h-267z" />
<glyph unicode="&#xdd;" horiz-adv-x="1562" d="M65 1523h261q168 -267 263 -416.5t141 -220.5q55 -85 65 -101q10 16 62 101q46 71 135 221.5t251 415.5h261l-602 -995v-528h-231v522zM638 1671l186 321h244l-270 -321h-160z" />
<glyph unicode="&#xde;" horiz-adv-x="1426" d="M234 0v1520h226v-305h181q159 0 276.5 -11.5t203.5 -66.5q97 -65 151 -153.5t54 -188.5q0 -224 -163 -332t-486 -108h-217v-355h-226zM460 491h273q355 0 355 298q0 159 -87 224t-278 65h-263v-587z" />
<glyph unicode="&#xdf;" horiz-adv-x="1181" d="M146 0v1196q0 218 109 320.5t329 102.5q195 0 313.5 -109t118.5 -289q0 -192 -176 -319h-4q66 -32 112 -81.5t71.5 -102.5t37 -109t11.5 -105q0 -264 -125.5 -398.5t-358.5 -134.5h-118v143q84 -19 121 -20q90 0 152 62q56 55 92 120.5t36 173.5q0 202 -99.5 286 t-301.5 84v134q183 0 264 63.5t81 203.5q0 40 -9.5 91.5t-36 95.5t-70 75t-111.5 31q-78 0 -124.5 -27t-71 -71.5t-31 -103.5t-6.5 -116v-1196h-205z" />
<glyph unicode="&#xe0;" horiz-adv-x="1197" d="M121 273q0 134 60.5 210.5t143 113.5t172.5 47.5t149 10.5h171q7 59 2 107.5t-28 84t-68.5 57t-119.5 21.5q-32 0 -70.5 -8.5t-69.5 -26t-51.5 -48.5t-20.5 -77l-232 3q6 105 54 168.5t114.5 97.5t140 45.5t128.5 11.5q444 0 442 -371v-478v-77q0 -36 1.5 -77.5 t5.5 -87.5h-212q0 22 -1.5 47t-4.5 47q-3 25 -3 55q-59 -87 -142 -129t-181 -42q-72 0 -140 16t-121.5 51.5t-86 91t-32.5 136.5zM326 1520h243l186 -321h-159zM351 313q0 -84 52.5 -122t146.5 -38q59 0 106.5 19.5t73.5 45.5q46 46 66.5 101.5t20.5 162.5v12h-28 q-19 0 -57.5 2t-103.5 -2q-32 0 -79.5 -6t-91.5 -23.5t-75 -53.5t-31 -98z" />
<glyph unicode="&#xe1;" horiz-adv-x="1197" d="M121 273q0 134 60.5 210.5t143 113.5t172.5 47.5t149 10.5h171q7 59 2 107.5t-28 84t-68.5 57t-119.5 21.5q-32 0 -70.5 -8.5t-69.5 -26t-51.5 -48.5t-20.5 -77l-232 3q6 105 54 168.5t114.5 97.5t140 45.5t128.5 11.5q444 0 442 -371v-478v-77q0 -36 1.5 -77.5 t5.5 -87.5h-212q0 22 -1.5 47t-4.5 47q-3 25 -3 55q-59 -87 -142 -129t-181 -42q-72 0 -140 16t-121.5 51.5t-86 91t-32.5 136.5zM351 313q0 -84 52.5 -122t146.5 -38q59 0 106.5 19.5t73.5 45.5q46 46 66.5 101.5t20.5 162.5v12h-28q-19 0 -57.5 2t-103.5 -2 q-32 0 -79.5 -6t-91.5 -23.5t-75 -53.5t-31 -98zM436 1199l186 321h245l-271 -321h-160z" />
<glyph unicode="&#xe2;" horiz-adv-x="1197" d="M121 273q0 134 60.5 210.5t143 113.5t172.5 47.5t149 10.5h171q7 59 2 107.5t-28 84t-68.5 57t-119.5 21.5q-32 0 -70.5 -8.5t-69.5 -26t-51.5 -48.5t-20.5 -77l-232 3q6 105 54 168.5t114.5 97.5t140 45.5t128.5 11.5q444 0 442 -371v-478v-77q0 -36 1.5 -77.5 t5.5 -87.5h-212q0 22 -1.5 47t-4.5 47q-3 25 -3 55q-59 -87 -142 -129t-181 -42q-72 0 -140 16t-121.5 51.5t-86 91t-32.5 136.5zM211 1199l307 361h156l309 -361h-172l-215 224q-55 -59 -106 -112t-105 -112h-174zM351 313q0 -84 52.5 -122t146.5 -38q59 0 106.5 19.5 t73.5 45.5q46 46 66.5 101.5t20.5 162.5v12h-28q-19 0 -57.5 2t-103.5 -2q-32 0 -79.5 -6t-91.5 -23.5t-75 -53.5t-31 -98z" />
<glyph unicode="&#xe3;" horiz-adv-x="1197" d="M121 273q0 134 60.5 210.5t143 113.5t172.5 47.5t149 10.5h171q7 59 2 107.5t-28 84t-68.5 57t-119.5 21.5q-32 0 -70.5 -8.5t-69.5 -26t-51.5 -48.5t-20.5 -77l-232 3q6 105 54 168.5t114.5 97.5t140 45.5t128.5 11.5q444 0 442 -371v-478v-77q0 -36 1.5 -77.5 t5.5 -87.5h-212q0 22 -1.5 47t-4.5 47q-3 25 -3 55q-59 -87 -142 -129t-181 -42q-72 0 -140 16t-121.5 51.5t-86 91t-32.5 136.5zM258 1237q0 43 6 85t26 78t56 59t86 23q32 0 56 -8t30 -14l212 -124q28 -16 56 -15.5t47 11.5q22 16 28 49t-1 58h97q3 -40 -3 -80.5 t-24.5 -76t-48.5 -58t-80 -25.5q-36 -3 -70.5 5t-72.5 36l-173 105q-53 46 -93.5 11t-33.5 -119h-100zM351 313q0 -84 52.5 -122t146.5 -38q59 0 106.5 19.5t73.5 45.5q46 46 66.5 101.5t20.5 162.5v12h-28q-19 0 -57.5 2t-103.5 -2q-32 0 -79.5 -6t-91.5 -23.5t-75 -53.5 t-31 -98z" />
<glyph unicode="&#xe4;" horiz-adv-x="1197" d="M121 273q0 134 60.5 210.5t143 113.5t172.5 47.5t149 10.5h171q7 59 2 107.5t-28 84t-68.5 57t-119.5 21.5q-32 0 -70.5 -8.5t-69.5 -26t-51.5 -48.5t-20.5 -77l-232 3q6 105 54 168.5t114.5 97.5t140 45.5t128.5 11.5q444 0 442 -371v-478v-77q0 -36 1.5 -77.5 t5.5 -87.5h-212q0 22 -1.5 47t-4.5 47q-3 25 -3 55q-59 -87 -142 -129t-181 -42q-72 0 -140 16t-121.5 51.5t-86 91t-32.5 136.5zM234 1199v270h267v-270h-267zM351 313q0 -84 52.5 -122t146.5 -38q59 0 106.5 19.5t73.5 45.5q46 46 66.5 101.5t20.5 162.5v12h-28 q-19 0 -57.5 2t-103.5 -2q-32 0 -79.5 -6t-91.5 -23.5t-75 -53.5t-31 -98zM671 1199v270h267v-270h-267z" />
<glyph unicode="&#xe5;" horiz-adv-x="1197" d="M121 273q0 134 60.5 210.5t143 113.5t172.5 47.5t149 10.5h171q7 59 2 107.5t-28 84t-68.5 57t-119.5 21.5q-32 0 -70.5 -8.5t-69.5 -26t-51.5 -48.5t-20.5 -77l-232 3q6 105 54 168.5t114.5 97.5t140 45.5t128.5 11.5q444 0 442 -371v-478v-77q0 -36 1.5 -77.5 t5.5 -87.5h-212q0 22 -1.5 47t-4.5 47q-3 25 -3 55q-59 -87 -142 -129t-181 -42q-72 0 -140 16t-121.5 51.5t-86 91t-32.5 136.5zM351 313q0 -84 52.5 -122t146.5 -38q59 0 106.5 19.5t73.5 45.5q46 46 66.5 101.5t20.5 162.5v12h-28q-19 0 -57.5 2t-103.5 -2 q-32 0 -79.5 -6t-91.5 -23.5t-75 -53.5t-31 -98zM439 1448q0 97 72.5 173t169.5 76t167.5 -73.5t70.5 -175.5q0 -100 -70.5 -171.5t-167.5 -71.5t-169.5 71.5t-72.5 171.5zM590 1448q0 -36 28 -64.5t63 -28.5q36 0 61.5 29.5t25.5 63.5q0 37 -25.5 66.5t-61.5 29.5 q-37 0 -64 -29.5t-27 -66.5z" />
<glyph unicode="&#xe6;" horiz-adv-x="1946" d="M121 299q0 159 143 256t407 97h140v113q0 205 -212 205q-198 0 -214 -188h-223q16 150 130.5 226t306.5 76q209 0 315 -81q23 -16 34.5 -26t21.5 -23q65 62 159.5 96t209.5 34q230 0 370 -141.5t140 -389.5v-46h-814q6 -195 88 -302.5t225 -107.5q97 0 172.5 67t98.5 181 h221q-26 -176 -159.5 -273t-344.5 -97q-174 0 -288 68q0 -6 2.5 -21.5t2.5 -21.5h-217l-6 81q-59 -49 -140 -76t-175 -27q-186 0 -290 85.5t-104 235.5zM335 299q0 -88 51 -145t145 -57q124 0 199 90t81 211q-10 55 -10 124v15h-101q-186 0 -275.5 -65t-89.5 -173zM1041 631 h578q-10 153 -90.5 244.5t-199.5 91.5q-111 0 -186 -89t-102 -247z" />
<glyph unicode="&#xe7;" horiz-adv-x="1171" d="M91 531q0 118 32.5 220.5t101 178.5t171 120t242.5 44q84 0 161 -29.5t134.5 -79.5t94.5 -120t44 -148h-221q-7 94 -76 148t-153 54q-140 0 -219.5 -96t-79.5 -286q0 -205 89 -294.5t216 -89.5q105 0 170 68t65 149l221 -3q-12 -165 -121 -269t-282 -120l-69 -89 q13 3 43 3q84 0 136 -36t63 -74q3 -6 3 -19.5v-20.5q0 -93 -83.5 -135.5t-189.5 -42.5q-56 0 -111.5 14.5t-111.5 33.5l37 68q12 -6 38.5 -14t23.5 -5q25 -6 54.5 -14t45.5 -8q31 0 66 20.5t35 76.5q0 46 -21 63.5t-47 17.5q-25 0 -111 -25l-43 43l108 146 q-205 19 -330.5 157.5t-125.5 392.5z" />
<glyph unicode="&#xe8;" horiz-adv-x="1203" d="M97 525q0 105 31 206.5t94.5 182t163 127.5t236.5 47q227 -4 356 -142t129 -350v-121h-787q0 -97 31 -159t76 -99t93.5 -52.5t88.5 -15.5q72 0 118.5 17t76 42.5t44.5 62t25 74.5h221q-32 -180 -149.5 -275t-325.5 -95q-234 0 -378 138t-144 412zM335 646h551 q-4 77 -32 136q-26 53 -80 95t-155 42q-112 0 -190 -73t-94 -200zM355 1520h244l186 -321h-160z" />
<glyph unicode="&#xe9;" horiz-adv-x="1203" d="M97 525q0 105 31 206.5t94.5 182t163 127.5t236.5 47q227 -4 356 -142t129 -350v-121h-787q0 -97 31 -159t76 -99t93.5 -52.5t88.5 -15.5q72 0 118.5 17t76 42.5t44.5 62t25 74.5h221q-32 -180 -149.5 -275t-325.5 -95q-234 0 -378 138t-144 412zM335 646h551 q-4 77 -32 136q-26 53 -80 95t-155 42q-112 0 -190 -73t-94 -200zM460 1199l186 321h243l-270 -321h-159z" />
<glyph unicode="&#xea;" horiz-adv-x="1203" d="M97 525q0 105 31 206.5t94.5 182t163 127.5t236.5 47q227 -4 356 -142t129 -350v-121h-787q0 -97 31 -159t76 -99t93.5 -52.5t88.5 -15.5q72 0 118.5 17t76 42.5t44.5 62t25 74.5h221q-32 -180 -149.5 -275t-325.5 -95q-234 0 -378 138t-144 412zM234 1199l307 361h155 l310 -361h-173l-214 224q-56 -59 -106 -112t-106 -112h-173zM335 646h551q-4 77 -32 136q-26 53 -80 95t-155 42q-112 0 -190 -73t-94 -200z" />
<glyph unicode="&#xeb;" horiz-adv-x="1203" d="M97 525q0 105 31 206.5t94.5 182t163 127.5t236.5 47q227 -4 356 -142t129 -350v-121h-787q0 -97 31 -159t76 -99t93.5 -52.5t88.5 -15.5q72 0 118.5 17t76 42.5t44.5 62t25 74.5h221q-32 -180 -149.5 -275t-325.5 -95q-234 0 -378 138t-144 412zM254 1199v270h268v-270 h-268zM335 646h551q-4 77 -32 136q-26 53 -80 95t-155 42q-112 0 -190 -73t-94 -200zM690 1199v270h267v-270h-267z" />
<glyph unicode="&#xec;" horiz-adv-x="556" d="M40 1520h243l186 -321h-159zM169 0v1059h213h9v-1059h-222z" />
<glyph unicode="&#xed;" horiz-adv-x="556" d="M87 1199l186 321h245l-270 -321h-161zM169 0v1059h213h9v-1059h-222z" />
<glyph unicode="&#xee;" horiz-adv-x="588" d="M-91 1199l306 361h155l311 -361h-174l-214 224q-56 -59 -106 -112t-106 -112h-172zM180 0v1059h211h10v-1059h-221z" />
<glyph unicode="&#xef;" horiz-adv-x="553" d="M-75 1199v270h267v-270h-267zM162 0v1059h213h10v-1059h-223zM361 1199v270h267v-270h-267z" />
<glyph unicode="&#xf0;" horiz-adv-x="1349" d="M146 475q0 115 39 205.5t109 156t168 101t212 35.5q124 0 205 -35q-46 75 -94.5 138.5t-94.5 108.5l-335 -140l-48 108l296 121h-10q-68 55 -131.5 95.5t-129.5 75.5l85 96q93 -46 183 -94.5t174 -107.5q66 25 139.5 56t131.5 53l46 -103l-231 -98h13q332 -323 332 -740 q0 -251 -145.5 -391.5t-385.5 -140.5q-118 0 -214 35.5t-166 102.5t-109 159t-39 203zM370 485q0 -180 82 -280t222 -100t222.5 101t82.5 279q0 176 -82.5 277t-222.5 101q-137 0 -220.5 -101t-83.5 -277z" />
<glyph unicode="&#xf1;" horiz-adv-x="1259" d="M162 0v1059h220v-140q55 87 141 126t170 39q26 0 95 -6t139 -42t125 -107.5t55 -205.5v-723h-221v658q0 258 -234 256q-29 0 -90 -20.5t-99 -73.5q-10 -12 -23.5 -30.5t-26 -47t-20.5 -74.5t-8 -121v-547h-223zM273 1237q0 43 6.5 85t26.5 78t56 59t88 23q32 0 55 -8 t29 -14l212 -124q28 -16 56 -15.5t49 11.5q22 16 26.5 49t-1.5 58h97q3 -40 -3 -80.5t-23.5 -76t-48.5 -58t-81 -25.5q-36 -3 -69.5 5t-73.5 36l-173 105q-53 46 -93.5 11t-32.5 -119h-102z" />
<glyph unicode="&#xf2;" horiz-adv-x="1249" d="M87 531q0 254 141.5 403.5t396.5 149.5q254 0 395.5 -141.5t141.5 -411.5t-141.5 -413t-395.5 -143q-239 0 -388.5 143t-149.5 413zM320 531q0 -59 14 -125.5t50 -124t94.5 -96.5t146.5 -39q94 0 154.5 39t94.5 96.5t46 124t12 125.5q0 65 -12 132t-46 123.5t-94 92 t-155 35.5q-88 0 -146.5 -35.5t-94.5 -90.5t-50 -123.5t-14 -133.5zM358 1520h245l186 -321h-161z" />
<glyph unicode="&#xf3;" horiz-adv-x="1249" d="M87 531q0 254 141.5 403.5t396.5 149.5q254 0 395.5 -141.5t141.5 -411.5t-141.5 -413t-395.5 -143q-239 0 -388.5 143t-149.5 413zM320 531q0 -59 14 -125.5t50 -124t94.5 -96.5t146.5 -39q94 0 154.5 39t94.5 96.5t46 124t12 125.5q0 65 -12 132t-46 123.5t-94 92 t-155 35.5q-88 0 -146.5 -35.5t-94.5 -90.5t-50 -123.5t-14 -133.5zM466 1199l186 321h243l-270 -321h-159z" />
<glyph unicode="&#xf4;" horiz-adv-x="1249" d="M87 531q0 254 141.5 403.5t396.5 149.5q254 0 395.5 -141.5t141.5 -411.5t-141.5 -413t-395.5 -143q-239 0 -388.5 143t-149.5 413zM242 1199l305 361h156l310 -361h-173l-215 224q-56 -59 -106 -112t-106 -112h-171zM320 531q0 -59 14 -125.5t50 -124t94.5 -96.5 t146.5 -39q94 0 154.5 39t94.5 96.5t46 124t12 125.5q0 65 -12 132t-46 123.5t-94 92t-155 35.5q-88 0 -146.5 -35.5t-94.5 -90.5t-50 -123.5t-14 -133.5z" />
<glyph unicode="&#xf5;" horiz-adv-x="1249" d="M87 531q0 254 141.5 403.5t396.5 149.5q254 0 395.5 -141.5t141.5 -411.5t-141.5 -413t-395.5 -143q-239 0 -388.5 143t-149.5 413zM283 1237q0 43 6.5 85t26 78t55.5 59t89 23q31 0 54 -8t30 -14l211 -124q29 -16 57 -15.5t48 11.5q22 16 27 49t-1 58h97 q3 -40 -3.5 -80.5t-24 -76t-48.5 -58t-80 -25.5q-37 -3 -70.5 5t-72.5 36l-172 105q-52 46 -93 11t-34 -119h-102zM320 531q0 -59 14 -125.5t50 -124t94.5 -96.5t146.5 -39q94 0 154.5 39t94.5 96.5t46 124t12 125.5q0 65 -12 132t-46 123.5t-94 92t-155 35.5 q-88 0 -146.5 -35.5t-94.5 -90.5t-50 -123.5t-14 -133.5z" />
<glyph unicode="&#xf6;" horiz-adv-x="1249" d="M87 531q0 254 141.5 403.5t396.5 149.5q254 0 395.5 -141.5t141.5 -411.5t-141.5 -413t-395.5 -143q-239 0 -388.5 143t-149.5 413zM277 1199v270h267v-270h-267zM320 531q0 -59 14 -125.5t50 -124t94.5 -96.5t146.5 -39q94 0 154.5 39t94.5 96.5t46 124t12 125.5 q0 65 -12 132t-46 123.5t-94 92t-155 35.5q-88 0 -146.5 -35.5t-94.5 -90.5t-50 -123.5t-14 -133.5zM714 1199v270h265v-270h-265z" />
<glyph unicode="&#xf7;" horiz-adv-x="1259" d="M65 453v199h1088h43v-199h-1131zM469 251q0 65 43.5 110.5t109.5 45.5q65 0 108.5 -45.5t43.5 -110.5t-43.5 -111t-108.5 -46q-66 0 -109.5 46t-43.5 111zM469 854q0 65 43.5 110.5t109.5 45.5q65 0 108.5 -45.5t43.5 -110.5t-43.5 -111.5t-108.5 -46.5 q-66 0 -109.5 46.5t-43.5 111.5z" />
<glyph unicode="&#xf8;" horiz-adv-x="1203" d="M56 56q36 46 58.5 74.5t38.5 45.5q16 20 23 29q-93 153 -95 379q0 283 141.5 447.5t383.5 164.5q173 0 302 -96q9 13 24 27q9 13 23.5 29t35.5 43l3 6l22 29l134 -124q-37 -43 -59.5 -70t-34.5 -43q-13 -16 -24 -27q100 -162 102 -386q0 -283 -141.5 -446t-386.5 -163 q-115 0 -188 32.5t-116 67.5q-9 -10 -25 -29q-16 -16 -36 -43.5t-52 -64.5zM296 584q0 -66 8.5 -115t21.5 -84q25 28 93.5 113.5t145 177.5t140 172.5t77.5 95.5q-22 20 -66.5 38t-109.5 18q-84 0 -143 -37.5t-96.5 -96t-54 -133.5t-16.5 -149zM426 227q75 -54 180 -54 q87 0 146 36t94.5 94t51.5 131t16 150q0 65 -6 115t-22 93q-16 -19 -46 -56q-26 -28 -65 -77.5t-101 -124.5q-78 -94 -127 -152.5t-75 -95.5q-32 -40 -46 -59z" />
<glyph unicode="&#xf9;" horiz-adv-x="1246" d="M153 361v701h222v-618q0 -166 52 -228.5t172 -62.5q56 0 123 40.5t102 116.5q25 56 32 107.5t7 83.5v561h221v-1062h-214v143q-75 -105 -174.5 -135t-183.5 -30q-162 0 -260.5 102.5t-98.5 280.5zM332 1520h244l186 -321h-159z" />
<glyph unicode="&#xfa;" horiz-adv-x="1246" d="M153 361v701h222v-618q0 -166 52 -228.5t172 -62.5q56 0 123 40.5t102 116.5q25 56 32 107.5t7 83.5v561h221v-1062h-214v143q-75 -105 -174.5 -135t-183.5 -30q-162 0 -260.5 102.5t-98.5 280.5zM444 1199l184 321h245l-270 -321h-159z" />
<glyph unicode="&#xfb;" horiz-adv-x="1246" d="M153 361v701h222v-618q0 -166 52 -228.5t172 -62.5q56 0 123 40.5t102 116.5q25 56 32 107.5t7 83.5v561h221v-1062h-214v143q-75 -105 -174.5 -135t-183.5 -30q-162 0 -260.5 102.5t-98.5 280.5zM221 1199l307 361h156l310 -361h-174l-214 224q-56 -59 -106 -112 t-106 -112h-173z" />
<glyph unicode="&#xfc;" horiz-adv-x="1246" d="M153 361v701h222v-618q0 -166 52 -228.5t172 -62.5q56 0 123 40.5t102 116.5q25 56 32 107.5t7 83.5v561h221v-1062h-214v143q-75 -105 -174.5 -135t-183.5 -30q-162 0 -260.5 102.5t-98.5 280.5zM270 1199v270h267v-270h-267zM706 1199v270h267v-270h-267z" />
<glyph unicode="&#xfd;" horiz-adv-x="1200" d="M37 1062h246q115 -292 180 -455t97 -246q36 -94 46 -119q9 25 49 119q37 81 101 244t182 457h237l-619 -1463h-227q59 150 91.5 233.5t48.5 118.5l19 49zM447 1199l184 321h245l-270 -321h-159z" />
<glyph unicode="&#xfe;" horiz-adv-x="1327" d="M196 -407v1938h221v-606q52 101 145 138t209 37q115 0 201.5 -48.5t143 -128.5t84 -182.5t27.5 -209.5q0 -100 -26 -202t-85.5 -183t-159 -132t-247.5 -51q-65 0 -151 33t-141 109v-512h-221zM417 531q0 -71 11 -144.5t42 -129t83.5 -91.5t133.5 -36q87 0 147.5 36 t96.5 91.5t51 129t15 144.5q0 75 -13.5 146.5t-46 128.5t-88.5 93t-143 36q-81 0 -136 -36t-89 -94.5t-49 -130t-15 -143.5z" />
<glyph unicode="&#xff;" horiz-adv-x="1200" d="M37 1062h246q115 -292 180 -455t97 -246q36 -94 46 -119q9 25 49 119q37 81 101 244t182 457h237l-619 -1463h-227q59 150 91.5 233.5t48.5 118.5l19 49zM245 1199v270h267v-270h-267zM681 1199v270h267v-270h-267z" />
<glyph unicode="&#x131;" horiz-adv-x="607" d="M196 0v1541h217v-1541h-217z" />
<glyph unicode="&#x141;" horiz-adv-x="1311" d="M75 634v199l163 81v630h215v-488q37 19 87 43.5t75 37.5v-196l-162 -84v-674h794v-183h-1009v723q-42 -22 -86 -46.5t-77 -42.5z" />
<glyph unicode="&#x142;" horiz-adv-x="663" d="M87 593v199l147 81v671h195v-531q40 22 80.5 46.5t66.5 37.5v-199l-147 -81v-817h-195v677q-40 -22 -80 -45t-67 -39z" />
<glyph unicode="&#x152;" horiz-adv-x="2210" d="M97 758q0 376 175 587.5t483 211.5q81 0 182 -21.5t187 -102.5v81h905v-202h-687v-420h644v-205h-644v-485h706v-202h-924v91q-65 -56 -151.5 -95t-210.5 -39q-177 0 -303.5 68.5t-206 181.5t-117.5 257.5t-38 293.5zM323 762q0 -109 22 -216t74.5 -191.5t139.5 -138.5 t212 -54q65 0 136.5 28t124.5 74q56 46 70 102.5t14 131.5v547q0 124 -92 215.5t-269 91.5q-105 0 -186 -42.5t-136 -121t-82.5 -187.5t-27.5 -239z" />
<glyph unicode="&#x153;" horiz-adv-x="2027" d="M97 584q0 289 135 450.5t380 161.5q280 0 420 -226q75 111 176 168.5t237 57.5q121 0 204.5 -36t137 -95t82.5 -130.5t43.5 -141.5t16 -133.5t1.5 -103.5v-41h-790q0 -55 20.5 -125t73.5 -126q81 -91 214 -91q97 0 168 58t93 157l7 32h211l-9 -50q-40 -189 -163.5 -292 t-309.5 -103q-133 0 -239 61t-174 166q-68 -105 -178.5 -166t-247.5 -61q-234 0 -371.5 163.5t-137.5 445.5zM313 560q0 -209 104 -312q77 -75 198 -75q143 0 226.5 115.5t83.5 317.5q0 189 -83.5 291.5t-238.5 102.5q-115 0 -186 -71q-105 -112 -104 -339v-27v-3zM1146 703 h566q-9 143 -79 220t-194 77q-115 0 -194.5 -83.5t-98.5 -213.5z" />
<glyph unicode="&#x160;" horiz-adv-x="1486" d="M159 460h242q6 -147 82.5 -215.5t243.5 -68.5q52 0 116.5 6.5t121.5 29t96 71.5t39 130q0 169 -240 225l-338 79q-37 10 -94.5 32t-112 66.5t-93.5 108t-39 151.5q0 127 48.5 216t132 143t190.5 79t224 25q93 0 188.5 -25t170.5 -77.5t120 -132t45 -187.5h-240 q6 72 -28 115t-83 65t-99.5 31t-83.5 9q-65 0 -126.5 -12t-110.5 -39t-78.5 -70t-29.5 -105q0 -53 15 -84.5t42 -50t63.5 -29.5t78.5 -21l361 -95q36 -10 96.5 -31t119.5 -65t101 -118.5t42 -192.5q0 -111 -36 -187.5t-94.5 -126.5t-130 -78t-140 -40.5t-130.5 -14t-97 -1.5 q-299 0 -437 146q-124 124 -118 339zM394 2035h172q56 -59 106.5 -112t105.5 -112l216 224h171l-308 -361h-157z" />
<glyph unicode="&#x161;" horiz-adv-x="1109" d="M114 332h231q3 -90 57 -141t148 -51q19 0 59 3t77 20t64.5 49.5t27.5 94.5t-47 90.5t-118.5 48.5t-154.5 36t-155 47t-119 86.5t-47 152.5q0 81 35.5 141.5t96 102t137 60.5t154.5 19q114 0 205.5 -31t145.5 -90q78 -81 72 -215h-231q3 72 -35 118q-32 32 -79.5 42 t-87.5 10q-19 0 -51.5 -3t-62 -18t-49.5 -44.5t-20 -85.5q0 -58 51 -80.5t113 -38.5q105 -25 172.5 -48t113.5 -41q53 -19 78 -38q56 -37 85.5 -95t29.5 -117q0 -97 -39 -163t-106 -104.5t-153.5 -56t-180.5 -17.5q-140 0 -222 42t-125.5 99t-56.5 117t-13 99zM165 1563h174 q55 -59 105 -112t106 -112l215 224h173l-310 -361h-156z" />
<glyph unicode="&#x178;" horiz-adv-x="1486" d="M32 1523h261q168 -267 263.5 -416.5t139.5 -220.5q56 -85 66 -101q9 16 62 101q46 71 135 221.5t253 415.5h260l-602 -995v-528h-232v522zM407 1671v270h267v-270h-267zM843 1671v270h267v-270h-267z" />
<glyph unicode="&#x17d;" horiz-adv-x="1504" d="M162 0l3 199q169 205 298.5 363t227.5 275t164.5 198t111.5 134q108 127 124 152h-873v202h1162l-3 -197q-169 -205 -297.5 -361.5t-226.5 -274.5t-164.5 -199t-112.5 -136q-109 -128 -126 -153h914v-202h-1202zM404 2035h172q55 -59 106 -112t107 -112l214 224h172 l-308 -361h-158z" />
<glyph unicode="&#x17e;" horiz-adv-x="998" d="M105 0l3 156q189 270 292.5 418.5t155.5 223.5q59 84 72 104h-514v160h762l-3 -154q-189 -270 -293.5 -418t-156.5 -223q-59 -84 -72 -108h544v-159h-790zM118 1563h171q56 -59 107 -112t105 -112l216 224h172l-309 -361h-157z" />
<glyph unicode="&#x192;" horiz-adv-x="1165" d="M-49 -382l68 206l46 -29q26 -16 39.5 -17.5t41.5 -1.5q50 0 87 62t66.5 166t56 237.5t51.5 276.5q16 85 24 138t16 87q6 36 9 58h-218v182h250q0 6 3 17q3 6 3 14t4 18q19 84 43.5 178.5t69 175t117.5 132t183 51.5q78 0 161 -49l28 -16l-81 -172l-28 16 q-32 16 -57.5 22.5t-70.5 -3.5q-31 -6 -54.5 -34t-40 -70t-27.5 -92t-21 -106q-3 -16 -7 -31t-7 -28q-3 -12 -3 -23h219v-182h-251q-10 -49 -29.5 -158t-38.5 -220q-23 -130 -53 -277q-22 -111 -53 -213t-80.5 -180.5t-122.5 -125.5t-180 -47q-36 0 -67 8t-57 14z" />
<glyph unicode="&#x2c6;" horiz-adv-x="1155" d="M196 1199l305 361h157l309 -361h-172l-215 224q-55 -59 -106 -112t-107 -112h-171z" />
<glyph unicode="&#x2c7;" horiz-adv-x="1155" d="M196 1563h171q56 -59 107 -112t106 -112l215 224h172l-309 -361h-157z" />
<glyph unicode="&#x2d8;" horiz-adv-x="1125" d="M234 1541h160l4 -37q12 -65 54 -108.5t124 -43.5q77 0 117 43.5t50 108.5l3 37h152l-3 -46q-13 -124 -96 -210t-230 -86q-62 0 -118.5 20.5t-102.5 59.5t-74.5 93t-35.5 123z" />
<glyph unicode="&#x2d9;" horiz-adv-x="1063" d="M407 1199v270h267v-270h-267z" />
<glyph unicode="&#x2da;" horiz-adv-x="771" d="M146 1439q0 97 71.5 172.5t170.5 75.5q97 0 167 -73t70 -175q0 -100 -70 -171.5t-167 -71.5t-169.5 71.5t-72.5 171.5zM296 1439q0 -37 27.5 -65.5t64.5 -28.5t62 29.5t25 64.5q0 37 -26 66t-61 29q-37 0 -64.5 -29t-27.5 -66z" />
<glyph unicode="&#x2db;" horiz-adv-x="992" d="M286 -205q0 84 57.5 144.5t125.5 97.5l127 -5l16 -51q-49 -26 -105.5 -68.5t-56.5 -92.5q0 -43 32.5 -63.5t70.5 -20.5q32 0 121 40v-164q-46 -16 -80 -22.5t-60 -6.5q-94 0 -171 53.5t-77 158.5z" />
<glyph unicode="&#x2dc;" horiz-adv-x="1116" d="M208 1202q0 43 6.5 85t26.5 78t55.5 58t88.5 22q32 0 55 -8t29 -14l212 -124q28 -16 56 -14.5t48 11.5q23 16 27.5 48.5t-1.5 59.5h97q3 -40 -3.5 -80.5t-24 -76t-48.5 -59t-80 -26.5q-36 -3 -69.5 5t-73.5 38l-173 104q-53 46 -93.5 11.5t-32.5 -118.5h-102z" />
<glyph unicode="&#x2dd;" horiz-adv-x="1256" d="M293 1208l186 323h244l-270 -323h-160zM631 1208l186 323h245l-270 -323h-161z" />
<glyph unicode="&#xe00;" />
<glyph unicode="&#xe01;" horiz-adv-x="1402" d="M137 944q0 10 31 61t97.5 107.5t169 102.5t249.5 46q289 0 437 -148q105 -105 103 -270v-843h-208v840q0 68 -28 114t-70 72.5t-91 39t-88 15.5q-93 7 -183 -14.5t-139 -69.5q43 -10 77 -25t59 -31q29 -16 53 -33q9 -6 22 -16q19 -16 33 -38q-36 -7 -60.5 -18.5 t-40.5 -21.5q-19 -13 -32 -22q-43 -40 -54 -80.5t-11 -62.5v-649h-209v596q0 50 2 78.5t6.5 46.5t11 31t15.5 33q19 37 54 59.5t45 31.5q-37 19 -75 32q-36 13 -81.5 24.5t-94.5 11.5z" />
<glyph unicode="&#xe02;" horiz-adv-x="1346" d="M65 895q0 16 1.5 31t5.5 31q19 81 63.5 140t102.5 94.5t121.5 54t122.5 18.5q159 0 267 -109.5t108 -291.5q0 -78 -21.5 -119t-47.5 -73.5t-47 -67t-21 -99.5v-324h175q26 0 45.5 20.5t19.5 47.5v995h209v-1038q0 -105 -67 -155t-151 -50h-576v180h132v376q0 40 13.5 59 t29.5 43q43 37 75.5 85.5t32.5 135.5q0 69 -27.5 114t-68 68t-85.5 26.5t-76 -12.5q43 -13 68 -37.5t40.5 -54t20 -59t4.5 -51.5q0 -37 -15 -76t-43.5 -71.5t-76.5 -53t-113 -20.5q-105 0 -163 70t-58 173zM196 879q0 -46 27 -73.5t73 -27.5t74 29t28 72q0 46 -29.5 73 t-72.5 27q-46 0 -73 -28.5t-27 -71.5z" />
<glyph unicode="&#xe03;" horiz-adv-x="1415" d="M65 854q0 75 17.5 131t44 100.5t52.5 72t45 41.5q49 36 97.5 53.5t82.5 8.5l111 -89q46 36 71.5 53.5t41.5 27.5q16 13 24 11q6 0 34 -13.5t63.5 -37.5t73 -62t59.5 -86q43 -87 45 -180t-22 -146q-16 -39 -37.5 -61.5t-39 -44t-30.5 -49.5t-13 -72v-332h175q37 0 53 23.5 t16 50.5v989h208v-1038q0 -87 -58 -146t-153 -59h-579v180h129v342q0 77 23 110t52.5 59t52.5 62t23 117q0 52 -13.5 104t-82.5 107l-124 -55q-16 12 -35 24t-40 22q-22 12 -44 25q-16 10 -37.5 2t-43 -25.5t-35.5 -37.5t-14 -36q55 22 87 16q108 -6 164.5 -76t56.5 -148 q0 -91 -59.5 -166.5t-180.5 -75.5q-78 0 -129 32.5t-80.5 78t-40.5 99.5t-11 94zM215 789q0 -46 29 -74t76 -28q46 0 73 29.5t27 72.5q0 46 -28.5 73t-71.5 27q-47 0 -76 -29.5t-29 -70.5z" />
<glyph unicode="&#xe04;" horiz-adv-x="1435" d="M165 814q7 115 61 200.5t133.5 143t181 83.5t202.5 23q93 -3 184.5 -32.5t164.5 -86.5t119.5 -144t46.5 -200v-801h-210v792q0 75 -28.5 128t-76.5 89t-108.5 54t-117.5 18q-59 0 -122.5 -18t-116 -57t-86.5 -101t-34 -150q0 -97 26 -172.5t29 -94.5v-28q0 -16 2 -44 t-2 -74q16 100 25 159t15 95q7 40 10 59t14 63t37.5 88.5t73 76t126.5 31.5q65 0 110.5 -22t75 -56.5t43.5 -75t14 -76.5q0 -94 -58.5 -169.5t-175.5 -75.5q-39 0 -75 13.5t-52 29.5q-6 -37 -24 -100q-16 -56 -36.5 -149t-56.5 -233h-206v296q0 81 -15.5 133.5t-36.5 104.5 q-22 56 -42 118t-14 162zM615 674q0 -40 25 -72.5t80 -32.5q53 0 76.5 32.5t23.5 72.5q0 37 -23.5 70.5t-76.5 33.5q-55 0 -80 -34.5t-25 -69.5z" />
<glyph unicode="&#xe05;" horiz-adv-x="1454" d="M165 830q7 75 34.5 145t72 125.5t101 96t118.5 56.5q85 22 140 -22l118 -91q32 19 73 51.5t57 42.5q46 28 86.5 25t69.5 -19q111 -55 176.5 -141t65.5 -239v-860h-209v879q-3 46 -15 85q-13 36 -39.5 65.5t-75.5 38.5q-16 4 -43 -9q-22 -10 -56 -31.5t-84 -60.5 q-16 16 -39 31t-42 28q-22 12 -43 27q-9 6 -34 12.5t-60 -6.5q-22 -10 -54.5 -29.5t-62 -50.5t-51 -76.5t-21.5 -107.5q0 -49 13.5 -94.5t26.5 -90t24 -85t5 -78.5q-4 -7 -7 -46.5t-6 -49.5q3 10 12.5 61t21.5 113t23 118.5t18 79.5q6 23 21 55.5t40.5 63.5t68.5 51.5 t100 20.5q62 0 108 -20.5t77 -54.5t45.5 -78t14.5 -87q-3 -90 -65 -164t-172 -71q-52 3 -81.5 16.5t-45.5 29.5q-13 -40 -27 -103q-13 -56 -32 -149t-52 -233h-206v293q0 84 -15.5 136.5t-36.5 101.5q-25 56 -43.5 129t-12.5 170zM619 674q0 -36 24.5 -70.5t76.5 -34.5 q56 0 80 34.5t24 70.5q0 40 -24 72t-80 32q-52 0 -76.5 -32t-24.5 -72z" />
<glyph unicode="&#xe06;" horiz-adv-x="1585" d="M59 843q0 146 58.5 234t106.5 125q81 62 143 62l131 -108l143 108q16 -3 28 -8.5t21 -12.5l19 -9q7 -3 38 -24t67.5 -59t63.5 -89.5t27 -117.5q0 -84 -19 -136.5t-42.5 -88t-42.5 -62t-19 -58.5v-74q137 -37 235.5 -92t181.5 -144v954h208v-1243h-218l-11 29 q-9 28 -38.5 71t-78 88.5t-118.5 85t-161 61.5v-74q0 -105 -57 -189.5t-181 -84.5q-118 0 -192.5 78t-74.5 202t86.5 199t199.5 75h9v78q0 36 40 77q37 47 76 101t35 138q-3 59 -38.5 94.5t-59.5 51.5q-16 -3 -35 -16q-16 -9 -39 -21t-53 -28q-43 37 -68.5 52.5t-41.5 22.5 q-19 9 -30 9q-16 0 -56.5 -32.5t-53.5 -70.5q6 3 27 11t51 8q114 0 172 -68.5t58 -162.5q0 -84 -68 -153t-175 -69q-114 0 -184 78.5t-70 201.5zM208 789q0 -43 29.5 -71t75.5 -28q43 0 71.5 28t28.5 71t-28.5 71.5t-71.5 28.5q-46 0 -75.5 -29.5t-29.5 -70.5zM432 261 q0 -50 28 -84t68 -34q30 0 62 26q32 39 32 92q0 46 -19 81.5t-75 39.5q-32 0 -59 -27q-37 -37 -37 -94z" />
<glyph unicode="&#xe07;" horiz-adv-x="1050" d="M97 563l183 95q118 -173 178 -259t86 -126q32 -46 28 -46q10 -12 23.5 -14t23.5 -2q12 0 29 11.5t17 63.5v485h-46h-7q-124 0 -184.5 77t-60.5 168q0 94 62 171t183 77t191 -74t70 -196v-705q0 -52 -9.5 -102t-36 -92.5t-75.5 -71.5t-124 -36q-75 -6 -121.5 19.5 t-74.5 68.5q-15 22 -54 81q-36 52 -101.5 148.5t-179.5 258.5zM515 1016q0 -37 24 -71t76 -34q56 0 79 34t23 71q0 40 -23 74t-79 34q-52 0 -76 -34t-24 -74z" />
<glyph unicode="&#xe08;" horiz-adv-x="1243" d="M22 889q50 179 197.5 277t336.5 98q134 0 241.5 -44.5t181.5 -117.5t108 -172.5t20 -209.5q-4 -46 -19.5 -122t-34 -159.5t-36 -163t-30.5 -132.5q-6 -25 -13 -69.5t-14 -73.5h-273q-3 29 -14.5 95.5t-20.5 135.5q-13 81 -27 173q-53 -26 -121 -26q-108 0 -175.5 75 t-64.5 178q6 124 84 183t170 59q85 0 140.5 -40.5t84.5 -99.5q15 -37 27 -91.5t19 -104.5q3 -58 9 -114q7 -46 10 -93t3 -72h22q22 100 40 195q16 81 28.5 162t12.5 128q3 155 -97 245t-257 93q-78 3 -141.5 -23t-109 -65t-73.5 -86t-34 -93zM410 619q0 -37 25 -70.5 t77 -33.5q56 0 79.5 34.5t23.5 69.5q0 39 -24.5 71.5t-78.5 32.5q-52 0 -77 -32.5t-25 -71.5z" />
<glyph unicode="&#xe09;" horiz-adv-x="1504" d="M118 892v6q0 4 1.5 7t1.5 6q19 56 59.5 118t109 114.5t166 86.5t228.5 34q16 0 62 -1.5t105.5 -16.5t126.5 -43t125 -82q10 -10 30 -33t43 -58.5t37 -88t14 -117.5v-42v-97.5t-3 -183.5q69 -13 106 -53.5t53 -83.5q19 -49 24 -106q0 -105 -59 -188t-173 -83 q-100 0 -175 67t-75 200l4 13q-32 -9 -72 -30.5t-74 -46.5t-62 -50.5t-44 -45.5q-6 -13 -19 -26q-22 -28 -33 -68h-196v296q-6 -3 -64 -3t-123 42q-40 26 -69.5 75.5t-29.5 126.5q0 88 63.5 166.5t187.5 78.5t184 -75.5t60 -172.5v-257q68 62 135 97.5t122 57.5 q62 26 124 37v348q0 19 -9.5 63.5t-42 88.5t-97.5 78t-180 34q-146 0 -248.5 -66.5t-131.5 -200.5zM286 534q0 -46 31 -75.5t74 -29.5t73 28t30 77q0 50 -31 78.5t-72 28.5q-43 0 -74 -28.5t-31 -78.5zM1075 245q0 -49 25.5 -78.5t64.5 -29.5q40 0 68 29.5t28 78.5 q0 52 -28 81t-68 29q-39 0 -64.5 -29.5t-25.5 -80.5z" />
<glyph unicode="&#xe0a;" horiz-adv-x="1357" d="M65 925q0 81 36 145t93 106t125.5 63.5t133.5 21.5q127 0 210 -41.5t145 -135.5q62 0 96 37.5t53 83.5q22 56 34 121h243q-16 -94 -55 -156.5t-81 -100t-80.5 -55t-53.5 -23.5q9 -4 30.5 -17.5t47.5 -29t47 -31t32 -24.5q29 -29 41.5 -63t12.5 -103v-527q0 -94 -61 -145 t-138 -51h-615v180h157v416q0 62 24 94.5t64 77.5q22 25 42 69.5t20 97.5q0 62 -37.5 102.5t-83.5 56.5q-37 9 -76 6t-48 -19q52 -6 86.5 -60t34.5 -119q0 -109 -71.5 -170t-176.5 -61q-32 0 -72.5 12.5t-76.5 42t-59 79t-23 120.5zM208 908q-3 -43 24 -68.5t70 -25.5 q46 0 69 28t23 63q0 32 -21.5 59t-65.5 30q-40 0 -68 -21.5t-31 -64.5zM727 180h181q40 0 49.5 23t9.5 45v482q0 65 -36 90.5t-85 77.5q-3 -43 -19 -96t-45 -96q-16 -25 -35.5 -48.5t-19.5 -77.5v-400z" />
<glyph unicode="&#xe0b;" horiz-adv-x="1415" d="M65 851.5q0 83.5 29 167.5q22 62 58.5 107.5t78.5 76.5t81 46t66 15l4 -3q62 -59 93 -86q16 -13 29 -19q10 9 30 22q16 13 44 33t71 53q28 -6 62.5 -26t65.5 -44.5t57 -52.5t39 -53q3 -4 3 -7t3 -6t3 -7q43 10 78 42q29 25 57 77.5t36 138.5h240q-7 -94 -49 -158.5 t-91 -105.5q-59 -49 -127 -83q25 -15 53 -25t64 -35q49 -32 71.5 -70t22.5 -106v-557q0 -29 -12.5 -62t-39 -60t-65.5 -45.5t-91 -18.5h-582v180h133v373q0 46 8 72.5t27 58.5q16 25 37.5 45t37.5 44.5t28 62t12 99.5q0 46 -34.5 88t-64.5 58q-12 -3 -28 -13 q-16 -6 -39 -19.5t-60 -32.5q-25 19 -50 34t-41 28q-19 13 -38 22q-22 7 -63.5 -27.5t-57.5 -75.5q26 19 94 19q105 -10 161.5 -75t56.5 -156q0 -108 -70 -171.5t-167 -63.5q-87 0 -146 42t-88.5 109t-29.5 150.5zM224 785q0 -46 28 -73.5t74 -27.5t73 29.5t27 71.5 q0 47 -28.5 75.5t-71.5 28.5q-46 0 -74 -29.5t-28 -74.5zM789 180h178q19 0 40.5 17.5t21.5 53.5v463q0 36 -8 57t-23 37t-39 35.5t-54 48.5q-3 -75 -22.5 -114t-41 -70t-37 -63.5t-15.5 -97.5v-367z" />
<glyph unicode="&#xe0c;" horiz-adv-x="1936" d="M130 948q10 19 33 53t58 67q32 29 79.5 63t108 63.5t132 49.5t152.5 20q255 0 394.5 -102.5t139.5 -288.5v-366q115 -36 202.5 -104t120.5 -130v970h209v-1243h-199q0 19 -3 25l-7 15q-3 6 -21.5 37t-49.5 71.5t-73 82.5t-97 71q9 -13 9 -35v-22q0 -49 -16 -103.5 t-55 -89.5q-66 -65 -175 -65q-105 0 -178.5 73.5t-73.5 187.5q0 105 52.5 174t143.5 93v358q0 68 -37.5 108.5t-80.5 59.5q-43 20 -99 31.5t-120 8.5t-129 -21.5t-124 -59.5q56 -19 105 -43q43 -19 82 -43.5t55 -56.5l-49 -17q-7 0 -30 -10t-48.5 -33t-47 -60t-21.5 -96 v-178q16 3 31 3h22q59 -3 102.5 -24.5t73 -56t42 -76.5t12.5 -85t-14 -85t-45 -76t-75.5 -55t-102.5 -21q-127 0 -190.5 75t-63.5 169v418q0 146 111 221q-12 12 -46 25q-25 13 -74.5 26.5t-124.5 26.5zM413 228q0 -36 26.5 -67t78.5 -31q46 0 71.5 29.5t25.5 64.5 q0 37 -22 69.5t-75 32.5q-52 0 -78.5 -31t-26.5 -67zM964 248q0 -56 29 -88.5t79 -32.5q49 0 76 36t27 88q0 46 -24 86.5t-79 40.5q-53 0 -80.5 -38t-27.5 -92z" />
<glyph unicode="&#xe0d;" horiz-adv-x="1901" d="M137 941q16 32 55 87.5t105.5 108t166 90t236.5 37.5q254 0 378 -122.5t124 -298.5v-663h221q37 0 54.5 22t17.5 52v989h208v-1012q0 -43 -8 -84.5t-34 -74t-71.5 -52.5t-120.5 -20h-577v180h102v656q0 112 -70 178.5t-218 66.5q-68 0 -140 -14t-146 -70 q36 -10 115.5 -44t125.5 -99l-68 -24q-37 -13 -83.5 -56.5t-46.5 -135.5v-182q9 7 29 8.5t30 1.5q39 0 79 -17t74 -48t55.5 -76t21.5 -104q-3 -62 -27.5 -105.5t-60.5 -73t-76.5 -42.5t-80.5 -13q-100 0 -176.5 68.5t-76.5 195.5v407q0 81 36 128t98 87q-25 16 -62 29 q-32 12 -78 24t-111 15zM407 227q0 -46 29.5 -71.5t75.5 -25.5t73 28t27 69q0 46 -28.5 74t-71.5 28q-46 0 -75.5 -29.5t-29.5 -72.5zM898 -329q-3 91 60.5 166.5t184.5 75.5q100 0 167 -68.5t67 -167.5q0 -36 -14.5 -71t-41.5 -53q13 0 46.5 23t67.5 62t58 98t24 134h202 q3 -112 -37.5 -197.5t-106 -146t-149.5 -93t-168 -32.5q-62 0 -124 16.5t-114.5 50.5t-85 84t-36.5 119zM1035 -320q0 -43 29.5 -70t72.5 -27t70 28t27 69q0 40 -28 69.5t-69 29.5q-43 0 -72.5 -29.5t-29.5 -69.5z" />
<glyph unicode="&#xe0e;" horiz-adv-x="1545" d="M114 231q0 104 72 169.5t175 65.5q9 0 24.5 -1.5t21.5 -4.5v162q0 65 11 105.5t31 66.5t44.5 43t47.5 36q-4 3 -46 26t-137 36l-72 9q53 121 149 186.5t190 93.5q111 37 238 40q261 0 401 -140q103 -105 103 -238v-1322l-251 -195l-25 25q-23 22 -58.5 50t-78.5 56 t-82 52.5t-64 40.5q-29 -78 -104.5 -149.5t-205.5 -71.5q-62 0 -110.5 22t-83 60.5t-52.5 83.5t-18 95q0 130 89.5 201.5t213.5 60.5q29 -3 69 -16t55 -19q4 26 5.5 64.5t1.5 75.5h202q3 -56 -3.5 -112.5t-12.5 -102.5q68 -36 136.5 -76.5t109.5 -75.5l59 54v1176 q0 88 -47 127t-86 58q-40 19 -93.5 27.5t-115.5 5.5t-125.5 -23t-119.5 -58q59 -22 113 -46.5t80 -48.5q9 -7 20 -16q7 -7 15 -16.5t11 -18.5q-56 -13 -81 -30q-13 -10 -24 -13q-25 -19 -58 -55t-33 -122v-413q0 -100 -73 -167t-181 -67q-111 0 -179 70t-68 174zM258 221 q0 -37 22 -67t78 -30q55 0 78.5 31t23.5 66q0 37 -23.5 69.5t-78.5 32.5q-56 0 -78 -32.5t-22 -69.5zM401 -367q0 -46 28.5 -69.5t64.5 -23.5q40 0 66.5 20t40.5 45t20.5 47t9.5 35q-25 22 -61 35.5t-82 7.5q-40 -7 -63.5 -31.5t-23.5 -65.5z" />
<glyph unicode="&#xe0f;" horiz-adv-x="1545" d="M114 231q0 87 62 162.5t185 75.5q13 0 46 -6v175q0 81 26.5 130t107.5 105q-32 16 -69 29q-32 12 -78 24t-108 15q49 121 147 186t192 94q111 37 238 40q261 0 401 -140q103 -105 103 -261v-1348l-217 -134q-43 37 -72.5 62.5t-45.5 41.5q-19 16 -32 30q-13 -13 -36 -34 q-20 -15 -54 -46t-86 -78l-23 37q-19 25 -43.5 53t-48.5 52q-28 -46 -88.5 -88t-154.5 -42q-108 0 -176.5 73t-68.5 179q0 69 36 121.5t91.5 83.5t122 35.5t125.5 -27.5q10 37 13 64t6 53q4 28 4 52h208q-7 -65 -14.5 -119t-14.5 -92q-9 -47 -20 -82q12 -12 33.5 -35 t42.5 -47q13 9 32 27q16 16 43.5 39t70.5 58q46 -40 71.5 -62t41.5 -38q19 -16 30 -27q7 3 8.5 5.5t7.5 5.5v1210q0 68 -28 114t-71.5 74t-99 39t-109.5 11q-72 0 -147.5 -20t-131.5 -64q53 -16 99 -40q40 -19 80.5 -43.5t59.5 -59.5q-37 -7 -62.5 -20.5l-42.5 -22.5 q-19 -13 -32 -22q-36 -37 -47.5 -72.5t-11.5 -97.5v-395q0 -100 -73 -167t-181 -67q-124 0 -185.5 75t-61.5 166zM258 227q0 -36 22 -68t78 -32q55 0 78.5 32.5t23.5 67.5q0 37 -23.5 68t-78.5 31q-56 0 -78 -31t-22 -68zM375 -388q0 -43 27 -65t64 -22q13 0 25 3 q34 8 50 33q19 26 25 57t6 40q-39 40 -72.5 46.5t-52.5 -0.5q-72 -19 -72 -92z" />
<glyph unicode="&#xe10;" horiz-adv-x="1361" d="M97 -491q0 124 111 184q91 53 199 14q3 -3 10 -3q3 0 6 -3q3 75 1.5 125t-4.5 80h183v-43q0 -68 -9.5 -154.5t-24.5 -158.5q10 -13 25 -28.5t31 -33.5q13 3 27 14q13 7 28.5 16.5t42.5 21.5q37 -25 61 -40l40 -25q16 -12 27 -16q22 16 34.5 25t19.5 15q9 7 9 10q3 0 5 6 q0 6 1.5 11t-1.5 11q-6 0 -14 -3q-7 -3 -19 -3q-112 3 -162 68.5t-50 139.5v3q0 78 55 142t160 64q100 0 160.5 -56.5t60.5 -158.5v-205q0 -40 -19 -72t-53 -55l-178 -118q-40 25 -64.5 45t-40.5 31l-28 19q-10 -6 -31 -19q-15 -12 -41.5 -30.5t-70.5 -48.5q-20 25 -36.5 45 t-29.5 37q-12 16 -24 29q-28 -40 -72 -70t-109 -30q-94 0 -155 61t-61 157zM176 867v19v12q7 59 42.5 124.5t93.5 119.5t137 88t170 34q74 0 141 -16.5t122 -32.5q50 -13 85.5 -21.5t62 -5t47 19.5t39.5 53l148 -105l-49 -68q-37 -53 -72.5 -77t-86.5 -20q-40 3 -74 15.5 t-84 28.5q-55 16 -131.5 36t-132.5 20q-74 0 -121 -19t-63 -50q37 -3 90 -9.5t111 -16t113.5 -18t89.5 -14.5q90 -16 142 -50.5t79 -70.5q32 -43 32 -102.5t-7 -115.5l-55 -625h-218l-7 29q-12 46 -31 101q-16 46 -42.5 102.5t-65.5 122.5q-69 -62 -174 -62 q-117 3 -180 81.5t-60 166.5q0 43 14.5 86.5t47 77.5t80 55.5t113.5 21.5q84 0 141 -47.5t92 -122.5q46 -100 72.5 -163.5t42.5 -100.5q16 -43 22 -62q6 146 9.5 228t3.5 124v65q3 46 -42.5 74t-169.5 53q-87 16 -172 24.5t-153.5 10.5t-110.5 0l-42 -2h-13q-6 0 -12.5 2 t-13.5 2zM234 -485q-3 -25 15 -53t61 -28t63.5 29.5t30.5 57.5v4q-6 9 -31 33.5t-60 24.5q-40 -3 -59.5 -23t-19.5 -45zM417 537q0 -39 24.5 -72t76.5 -33q56 0 78.5 33t22.5 72q0 37 -23.5 70.5t-77.5 33.5q-52 0 -76.5 -34.5t-24.5 -69.5zM805 -264q0 -29 20.5 -55 t63.5 -26q46 0 66.5 26t20.5 55q0 32 -20.5 58t-66.5 26q-43 0 -63.5 -25.5t-20.5 -58.5z" />
<glyph unicode="&#xe11;" horiz-adv-x="1709" d="M59 840q0 124 42 209t97.5 133.5t106 68t62.5 13.5l8 -3q37 -29 59 -49t38 -34q16 -13 26 -22q9 6 30 19q16 13 43.5 34.5t69.5 54.5q19 -6 43 -17q19 -7 42 -19.5t39 -28.5q6 -7 29 -26.5t48 -52t44 -79.5t19 -109q0 -69 -13 -108t-35 -81q-19 -37 -47 -69.5t-28 -97.5 v-104l-59 -195l78 176l312 668q19 40 32.5 67t30 44.5t37.5 24.5t61 7q74 0 124 -31t79.5 -75.5t41.5 -91.5t12 -79v-987h-210v979q0 20 -11 50t-43 30q-9 0 -18 -5.5t-15 -21.5q-7 -13 -39.5 -83t-79.5 -167.5t-101 -211.5t-100.5 -218t-81 -184.5t-40.5 -111.5l-14 -56 h-206v593q0 56 18.5 79.5t40.5 50.5q19 26 55.5 77t36.5 125q0 56 -35.5 98t-62.5 58q-6 3 -25.5 -8t-43.5 -25l-58 -32q-32 25 -58.5 42t-41.5 26q-20 13 -37 16q-19 0 -40.5 -12.5t-37.5 -31t-27 -36t-8 -23.5q13 6 32 12.5t46 6.5q46 0 88 -12.5t77 -49.5q65 -65 65 -172 q0 -94 -71.5 -158t-171.5 -61q-124 3 -189 83.5t-65 193.5zM215 789q0 -46 32.5 -72.5t72.5 -26.5q43 0 71.5 26.5t28.5 72.5t-28.5 73t-71.5 27q-47 0 -76 -26.5t-29 -73.5z" />
<glyph unicode="&#xe12;" horiz-adv-x="2024" d="M165 789q0 78 29.5 154t79 141.5t113 110.5t135.5 63q19 6 62.5 6t83.5 -30q36 -26 58.5 -42.5t38.5 -26.5q16 -12 27 -19l28 19q29 20 99 69q25 19 58 26t49 1q152 -37 222 -147.5t70 -296.5v-319q59 -19 113 -45.5t98 -54.5t73 -55t36 -50v950h208v-1243h-199 q3 3 -3 19q-3 10 -3 18q-13 68 -78 149t-162 127q6 -16 7.5 -35.5t1.5 -32.5q-3 -111 -71.5 -184.5t-179.5 -73.5q-100 0 -175.5 73.5t-75.5 190.5q0 115 65 184t137 80v358q0 29 -6.5 63t-22.5 63.5t-42 49t-69 19.5q-13 0 -38 -12q-23 -10 -57.5 -30t-82.5 -56 q-49 36 -80 55.5t-51 30.5q-22 12 -36 12q-6 0 -29.5 -4.5t-48.5 -18.5q-65 -29 -121 -103.5t-56 -173.5q0 -37 10.5 -79.5t20.5 -82.5q6 -22 15.5 -60.5t21.5 -77.5t21.5 -70t12.5 -43l7 -26q6 -25 3 -46q19 22 43.5 51.5t49 56t45.5 51t32 37.5q-56 19 -102 73t-46 141 q0 105 75.5 160t153.5 52q72 -3 117 -28.5t69.5 -60t34.5 -71t10 -58.5q0 -72 -34.5 -127.5t-59.5 -80.5q3 3 -3 -7q-7 -6 -22 -21t-44 -47q-58 -62 -105 -125.5t-81.5 -117t-54 -91.5t-26.5 -48l-9 -22h-232l17 52q10 37 10 66q0 74 -17 129t-42 141q-29 94 -62.5 203 t-33.5 198zM631 684q0 -43 29.5 -70t72.5 -27t71.5 27t28.5 70t-29.5 70.5t-70.5 27.5q-43 0 -72.5 -27.5t-29.5 -70.5zM1065 254q0 -49 27 -78.5t64 -29.5q49 0 71.5 32.5t22.5 75.5q0 47 -24 75.5t-70 28.5t-68.5 -32.5t-22.5 -71.5z" />
<glyph unicode="&#xe13;" horiz-adv-x="2024" d="M146 948q16 28 54 82t104 106.5t167 90t243 37.5q251 0 376 -117.5t125 -286.5v-574q16 29 48.5 64t76 66t94.5 56.5t104 39.5v731h208v-712q28 -9 61 -29t62 -52.5t47.5 -78t18.5 -107.5q0 -53 -16.5 -103t-47.5 -89.5t-76.5 -62t-107.5 -22.5q-46 0 -91.5 16t-81 48.5 t-58.5 83.5t-23 116v22.5t6 22.5q-46 -26 -87 -69q-37 -36 -77.5 -92.5t-66.5 -134.5h-202v876q0 56 -29 95t-71.5 65t-91.5 37t-87 11q-193 0 -295 -84q23 -6 56.5 -18t66 -29.5t63.5 -42t53 -53.5q-13 -3 -26.5 -8.5t-22.5 -8.5q-13 -4 -19 -7q-47 -16 -87.5 -61 t-40.5 -120v-196q16 7 39 8.5t36 1.5q62 -6 104 -32.5t67 -60.5t34.5 -73t9.5 -73q0 -43 -16 -86.5t-47 -77.5t-76.5 -55t-100.5 -21q-46 0 -91.5 16t-83 48.5t-60.5 82t-23 117.5v417q0 55 24.5 105.5t109.5 102.5q-32 19 -72 32q-36 13 -81.5 24.5t-101.5 15.5zM420 227 q0 -43 29.5 -70t72.5 -27q42 0 71 28t29 69q0 43 -29.5 71t-70.5 28q-43 0 -72.5 -28t-29.5 -71zM1588 258q0 -47 23.5 -81t69.5 -34t68 34t22 81q0 46 -23 77.5t-67 31.5q-46 0 -69.5 -32.5t-23.5 -76.5z" />
<glyph unicode="&#xe14;" horiz-adv-x="1470" d="M173 755q0 134 48.5 228.5t131.5 158t190 93t222 29.5q97 0 192.5 -29.5t170 -85t120 -136.5t45.5 -186v-827h-209v778q0 15 -3 59.5t-33 97.5q-32 56 -102 102.5t-188 46.5q-127 0 -203 -39t-116.5 -94.5t-52 -116t-8.5 -101.5q7 -56 19.5 -119.5t29.5 -119t29.5 -94.5 t15.5 -49q3 -6 7 -19q6 -19 9 -49q32 37 81.5 95t85.5 97q-71 29 -107 89.5t-36 119.5q0 108 68.5 169t152.5 61q124 0 183.5 -71.5t59.5 -155.5q0 -65 -31 -122.5t-85 -108.5q-16 -12 -47 -45t-65 -72.5t-65 -80t-52 -72.5q-16 -22 -32 -56q-15 -25 -33.5 -59t-34.5 -71 h-232l17 49q10 37 10 75q0 25 -24.5 101.5t-52.5 172.5t-52 192.5t-24 164.5zM638 687q0 -37 26 -68.5t72 -31.5q56 0 81.5 34t25.5 72q0 32 -24 65.5t-80 33.5q-46 0 -73.5 -32.5t-27.5 -72.5z" />
<glyph unicode="&#xe15;" horiz-adv-x="1477" d="M146 789q0 78 29.5 154t78 141.5t112 110.5t135.5 63q19 6 63.5 6t84.5 -30q36 -26 58.5 -42.5t38.5 -26.5q16 -12 25 -19q13 7 30 19q16 13 41 31.5t60 43.5q49 34 104 18q153 -43 223 -137.5t70 -280.5v-840h-208v857q0 37 -6.5 73.5t-23 67.5t-42 50.5t-68.5 19.5 q-13 0 -37 -12q-19 -10 -51.5 -30t-80.5 -56q-55 36 -88 55.5t-53 30.5q-22 12 -35 12q-19 0 -30 -3q-10 -3 -13 -6q-40 -10 -76.5 -34.5t-66 -63.5t-49.5 -88t-20 -105q0 -37 8 -79.5t23 -82.5q6 -26 17 -67t24 -83.5t23 -76.5t14 -44q3 -9 6 -22q6 -19 -3 -30q19 22 45 50 t54 54t50 51t34 37q-59 19 -103.5 76.5t-44.5 141.5q0 105 71.5 165.5t160.5 55.5q71 -3 116.5 -28.5t73.5 -59.5t37.5 -73t9.5 -66q0 -56 -22.5 -101t-49.5 -71q-9 -13 -25 -30l-102 -100q-59 -59 -104 -119.5t-78 -110.5t-48.5 -86.5t-22.5 -46.5l-11 -22h-231l16 52 q13 43 11.5 80t-14.5 102q-9 52 -44 154q-32 94 -64 203t-32 198zM625 687q0 -46 31 -74.5t74 -28.5t73 28.5t30 74.5t-31 75.5t-72 29.5q-43 0 -74 -29.5t-31 -75.5z" />
<glyph unicode="&#xe16;" horiz-adv-x="1426" d="M137 944q46 121 142 184.5t193 92.5q115 37 245 40q124 0 221 -31t165.5 -86.5t106 -127.5t37.5 -156v-860h-209v860q0 62 -42 109t-85 69q-49 26 -115 36t-134.5 5.5t-133.5 -24.5t-108 -58q84 -22 151 -65t90 -78q-19 -7 -37 -12.5t-31 -11.5t-30 -13 q-53 -28 -76.5 -79t-23.5 -104v-181q9 3 26.5 6.5t28.5 3.5q75 0 125 -31t77 -77q37 -56 34.5 -129t-34.5 -129q-68 -114 -205 -113q-46 0 -93 14.5t-85 45.5t-60.5 76t-22.5 107v425q0 75 33 125t101 96q-29 16 -65 29q-32 12 -78 24t-108 18zM407 227q0 -36 24.5 -68 t75.5 -32q56 0 80.5 32.5t24.5 67.5q0 37 -24.5 68t-80.5 31q-52 0 -76 -31t-24 -68z" />
<glyph unicode="&#xe17;" horiz-adv-x="1513" d="M81 1013q0 65 26.5 112t62 76.5t79.5 44.5t77 15q130 0 195.5 -79t65.5 -179v-310l-59 -329l91 332q25 62 60 132t69 135.5t64.5 119.5t50.5 79q23 37 57 68t115 31q137 -2 218 -83t83 -224v-954h-209v967q0 6 -1.5 22.5t-10 32.5t-23 29.5t-39.5 16.5q-19 4 -26.5 0.5 t-20.5 -20.5q-52 -75 -115.5 -203t-124 -275t-109 -291.5t-70.5 -249.5l-7 -29h-202v774q-15 -6 -30.5 -6h-27.5q-37 0 -79 15t-78 46t-59 76.5t-23 107.5zM227 1013q0 -43 31 -72.5t74 -29.5q46 0 75 29.5t29 72.5t-29 73t-75 30q-43 0 -74 -30t-31 -73z" />
<glyph unicode="&#xe18;" horiz-adv-x="1275" d="M140 811l3 29l8 57t51 128.5t127 140t237 92.5q65 9 125.5 2t118 -21.5t107.5 -36t89 -37.5q13 -6 24 -6t23 -3t22 -3q6 0 19 3q9 3 26 6t33 10l-7 -172q-31 -19 -74 -20t-78 7q-43 10 -89 26q-29 13 -81.5 32.5t-115 31t-132 5t-132.5 -46.5q-23 -13 -38 -32.5 t-28 -42.5q37 -3 100 -11t136 -17.5t143 -19.5t122 -20q112 -22 155.5 -89t43.5 -184v-417q0 -62 -21.5 -101t-55.5 -62t-76.5 -31t-81.5 -8h-622v180h143v504h208v-504h236q62 0 62 68v377q0 68 -29.5 86.5t-82.5 24.5q-74 10 -171 22q-85 10 -197.5 25t-249.5 28z" />
<glyph unicode="&#xe19;" horiz-adv-x="1555" d="M82.5 989.5q-4.5 48.5 10.5 99.5t53 96q32 39 76.5 57.5t90 20t86 -9t67.5 -26.5q78 -49 99.5 -110t21.5 -123v-698q12 19 51 52.5t103 70.5t145 70t176 52v702h208v-706q29 -9 63 -29t63.5 -54t49.5 -79.5t20 -107.5q0 -52 -16.5 -102.5t-47.5 -89t-78 -63.5t-109 -25 q-43 0 -88.5 13t-83 45.5t-62 83.5t-24.5 122q0 46 10 78q-115 -46 -188 -101t-114 -101q-50 -55 -75 -108l-3 -19h-209v774q-62 -9 -119 4.5t-103 54.5q-29 26 -49 67t-24.5 89.5zM224 1014.5q0 -41.5 26.5 -74t78.5 -32.5q53 0 78 32.5t25 74t-25 74t-78 32.5 q-52 0 -78.5 -32.5t-26.5 -74zM1114.5 258.5q1.5 -43.5 28 -81t72.5 -34.5t68 39t22 78t-22 78.5t-71 36.5q-53 0 -76 -36.5t-21.5 -80z" />
<glyph unicode="&#xe1a;" horiz-adv-x="1486" d="M83.5 1017.5q-2.5 66.5 34.5 125.5q65 118 214 118q69 0 117.5 -24.5t79.5 -62t46 -83.5t15 -91v-820h386q75 0 99.5 39t24.5 94v930h209v-933q0 -72 -11.5 -129t-44 -97.5t-91.5 -62t-152 -21.5h-762v180h134v591q-13 0 -26.5 -1.5t-23.5 -1.5q-71 0 -128.5 29.5 t-89.5 94.5q-28 59 -30.5 125.5zM231 1013q0 -46 29 -75.5t75 -29.5q47 0 74 31t27 74q0 46 -29 74.5t-72 28.5q-46 0 -75 -28.5t-29 -74.5z" />
<glyph unicode="&#xe1b;" horiz-adv-x="1486" d="M83.5 1017.5q-2.5 66.5 34.5 125.5q65 118 214 118q69 0 117.5 -24.5t79.5 -62t46 -83.5t15 -91v-820h386q75 0 99.5 34t24.5 88v1385h209v-1388q0 -146 -56.5 -222.5t-226.5 -76.5h-778v180h134v591q-13 0 -26.5 -1.5t-23.5 -1.5q-71 0 -128.5 29.5t-89.5 94.5 q-28 59 -30.5 125.5zM231 1013q0 -46 29 -75.5t75 -29.5q47 0 74 31t27 74q0 46 -29 74.5t-72 28.5q-46 0 -75 -28.5t-29 -74.5z" />
<glyph unicode="&#xe1c;" horiz-adv-x="1489" d="M227 0v997q0 121 68.5 194t179.5 73q153 0 225 -121q36 -55 36 -125t-36 -129q-66 -118 -215 -118q-37 0 -49 3v-338l-19 -126l49 91l302 283l294 -283l54 -88l-13 119v811h209v-1243h-196q0 16 -6 29q-3 6 -7 11q-6 19 -22 58t-40 61q-84 87 -135.5 143t-81.5 89l-53 53 q-25 -23 -65 -66q-37 -36 -90 -93.5t-131 -141.5q-22 -25 -34 -58t-19 -53l-9 -32h-196zM382 1019q0 -46 28.5 -77t74.5 -31t74 31t28 77t-29.5 75.5t-72.5 29.5q-46 0 -74.5 -29.5t-28.5 -75.5z" />
<glyph unicode="&#xe1d;" horiz-adv-x="1500" d="M238 0v997q0 121 68.5 194t178.5 73q153 0 224 -121q32 -55 34.5 -125t-34.5 -129q-32 -56 -87.5 -87t-123.5 -31h-29t-22 3v-338l-18 -126l46 91l303 283l294 -283l58 -88l-17 119v1255h208v-1687h-194q0 16 -6 29q-3 6 -5 11q-6 19 -23.5 58t-39.5 61 q-85 87 -137.5 143t-82.5 89q-36 37 -51 53q-25 -23 -65 -66q-36 -36 -88.5 -93.5t-134.5 -141.5q-22 -25 -33 -59.5t-17 -51.5l-15 -32h-191zM394 1019q0 -46 28 -77t72 -31q47 0 74.5 31t27.5 77t-29.5 75.5t-72.5 29.5q-46 0 -73 -29.5t-27 -75.5z" />
<glyph unicode="&#xe1e;" horiz-adv-x="1617" d="M81 1006v4q0 46 13.5 89.5t42 81t78 60.5t117.5 23q66 0 114 -23t79 -60.5t46.5 -82.5t15.5 -95v-397l-27 -174l345 714l353 -717l-27 174v640h208v-1243h-202q-6 32 -11 58t-11 47q-7 22 -13 44q-10 29 -43 96q-25 56 -76 152.5t-135 254.5l-43 122l-38 -125 q-85 -166 -132.5 -261t-73.5 -143l-36 -72q-6 -16 -16 -43q-16 -46 -29 -130h-202v774q-25 -6 -46 -6q-111 0 -181 67t-70 171zM227 1019q0 -36 25 -70.5t77 -34.5q56 0 79.5 34.5t23.5 70.5q0 40 -23.5 72.5t-79.5 32.5q-52 0 -77 -32.5t-25 -72.5z" />
<glyph unicode="&#xe1f;" horiz-adv-x="1617" d="M81 1006v4q0 46 13.5 89.5t42 81t78 60.5t117.5 23q66 0 114 -23t79 -60.5t46.5 -82.5t15.5 -95v-397l-27 -174l345 714l353 -717l-27 174v1084h208v-1687h-202q-6 32 -11 58t-11 47q-7 22 -13 44q-10 29 -43 96q-25 56 -76 152.5t-135 254.5l-43 122l-38 -125 q-85 -166 -132.5 -261t-73.5 -143l-36 -72q-6 -16 -16 -43q-16 -46 -29 -130h-202v774q-25 -6 -46 -6q-111 0 -181 67t-70 171zM227 1019q0 -36 25 -70.5t77 -34.5q56 0 79.5 34.5t23.5 70.5q0 40 -23.5 72.5t-79.5 32.5q-52 0 -77 -32.5t-25 -72.5z" />
<glyph unicode="&#xe20;" horiz-adv-x="1548" d="M118 231q0 42 14 83t45 75t78 55.5t109 21.5q13 0 23.5 -1.5t22.5 -4.5v171q0 65 13 104t32.5 64t44.5 41.5t44 32.5q-32 19 -75 32.5t-81 23.5q-46 12 -95 15q49 121 145 184.5t190 92.5q111 37 239 40q124 0 229.5 -38t173.5 -107q101 -100 101 -243v-873h-209v873 q0 68 -42 108.5t-75 56.5q-46 23 -106 34.5t-125 8.5t-127 -24.5t-111 -59.5q55 -16 101 -40q40 -19 80.5 -43.5t56.5 -59.5l-43 -14q-6 -4 -30 -13.5t-52 -31t-49 -60.5t-21 -101v-413q0 -37 -14.5 -79t-45.5 -76t-80.5 -56.5t-114.5 -22.5q-124 0 -185 75t-61 169z M264 227q0 -46 27 -71.5t73 -25.5t74 28t28 69q0 43 -29.5 71t-72.5 28q-46 0 -73 -29.5t-27 -69.5z" />
<glyph unicode="&#xe21;" horiz-adv-x="1483" d="M140 1074q19 82 84 131q65 56 177 56q124 0 184.5 -82t60.5 -182q3 -177 1.5 -268t-1.5 -136v-59q68 -16 136.5 -43.5t128 -58.5t108.5 -62t78 -60v933h208v-1243h-217l-10 32q-10 25 -44 68t-89.5 88.5t-132 86.5t-166.5 64v-78q0 -105 -56 -188t-180 -83 q-114 0 -190.5 76.5t-76.5 200.5t85 199t201 75v217q-6 0 -14 -1.5t-17 -1.5q-85 -6 -151.5 37.5t-97.5 118.5q-28 81 -9 163zM286 1007.5q0 -40.5 26.5 -73t78.5 -32.5q53 0 78 32.5t25 73t-25 73t-78 32.5q-52 0 -78.5 -32.5t-26.5 -73zM299 264q0 -56 28 -88.5t67 -32.5 q10 0 24 3t29.5 16.5t28 36t12.5 65.5t-19 80.5t-75 37.5q-46 0 -70.5 -36t-24.5 -82z" />
<glyph unicode="&#xe22;" horiz-adv-x="1383" d="M180 898q0 88 31 155.5t79.5 114.5t110.5 71.5t121 24.5q149 0 221 -124q36 -59 35.5 -127.5t-32.5 -126.5q-32 -56 -86 -85.5t-123 -26.5q-52 0 -97.5 23t-69.5 57q-6 -19 11 -52.5t29 -49.5q43 -56 113 -85t200 -26v-143q-46 3 -75 -0.5t-52 -6.5q-25 -3 -43 -9 q-49 -16 -71 -55t-26 -95v-152h430q58 0 83 29t25 84v950h211v-963q0 -146 -60.5 -213t-230.5 -67h-666v339q0 100 31 155.5t76 81.5q-85 49 -130 129t-45 193zM432 1019q0 -40 25 -72.5t77 -32.5q56 0 78 32.5t22 72.5q0 37 -22 71t-78 34q-52 0 -77 -34t-25 -71z" />
<glyph unicode="&#xe23;" horiz-adv-x="1138" d="M59 814l3 29q0 3 6.5 35.5t26 82t55.5 105t95 99.5q46 37 109 68t168 31q62 0 118 -16.5t103 -35.5q36 -16 53.5 -21.5t39.5 -5.5q16 0 29.5 5.5t29.5 27.5l24 35l140 -113l-11 -27q-7 -19 -24.5 -42t-43.5 -42t-65 -30.5t-88 -7.5q-19 0 -55 11t-73.5 25t-73 27.5 t-62.5 17.5q-62 6 -102.5 3t-72.5 -22q-29 -16 -50.5 -45t-30.5 -54q32 -6 81 -13q43 -6 107.5 -12.5t159.5 -20.5q37 -3 82 -19t84 -48.5t66 -85t27 -127.5v-345q0 -56 -9.5 -110.5t-50.5 -104.5q-72 -81 -189 -81q-109 0 -182 68.5t-73 182.5q0 112 81 185 q46 43 106.5 52.5t108.5 3.5v146q0 68 -30 88t-83 26zM556 238q0 -46 29.5 -77t72.5 -31q50 0 77 31t27 77q0 43 -28 73.5t-76 30.5q-46 0 -74 -31t-28 -73z" />
<glyph unicode="&#xe24;" horiz-adv-x="1426" d="M137 944q49 124 147 189.5t193 95t132 30.5l108 5q124 0 221 -32.5t165.5 -86.5t106 -127.5t37.5 -157.5v-1364h-209v1364q0 65 -42 112t-85 69q-49 26 -115 36.5t-134.5 5.5t-133.5 -26.5t-108 -59.5q84 -22 151 -63.5t90 -76.5q-19 -6 -37 -11.5t-31 -12.5 q-13 -6 -30 -13q-53 -28 -76.5 -79t-23.5 -103v-182q6 4 25 7t30 3q75 0 125 -32.5t77 -78.5q32 -56 32 -129t-32 -129q-65 -111 -205 -110q-46 0 -93 14.5t-85 44t-60.5 76.5t-22.5 109v424q0 75 33 125t101 96q-29 16 -65 29q-32 12 -78 22.5t-108 16.5zM407 227 q0 -36 24.5 -66.5t75.5 -30.5q56 0 80.5 31t24.5 66q0 37 -24.5 68t-80.5 31q-52 0 -76 -31t-24 -68z" />
<glyph unicode="&#xe25;" horiz-adv-x="1386" d="M118 879q19 78 66 146.5t119 122.5t167.5 85t213.5 31h9q72 0 161.5 -20t167.5 -70t132 -136.5t54 -217.5v-820h-208v25q0 62 -52.5 207.5t-176.5 360.5q-6 10 -20.5 34.5t-34.5 46.5t-47.5 40.5t-56.5 18.5q-43 0 -74 -32.5t-51.5 -78.5t-30 -91.5t-9.5 -70.5 q19 3 33 4.5t38 1.5q66 0 108 -23t69.5 -57.5t39 -73.5t11.5 -67q0 -124 -63.5 -191t-175.5 -67q-94 0 -159 48.5t-90 144.5q-4 9 -8.5 45t-4.5 85q0 46 6.5 107.5t21.5 126.5q13 49 37.5 111t67 118.5t103 94t144.5 37.5q62 0 107.5 -21t79.5 -55t60 -74.5t50 -80.5 q13 -19 25.5 -50t28.5 -61q16 -37 34 -69q22 -49 37 -84t18 -40l-65 210v218q0 94 -39 149.5t-91.5 83.5t-104 37.5t-81.5 9.5h-16q-56 0 -116.5 -15t-113.5 -49.5t-92 -84.5t-57 -124zM401 227q0 -39 24.5 -71t78.5 -32q52 0 77 32.5t25 70.5q0 37 -25 71t-77 34 q-56 0 -79.5 -34t-23.5 -71z" />
<glyph unicode="&#xe26;" horiz-adv-x="1529" d="M97 231q0 42 15 84.5t46 76.5t78 55.5t109 21.5q13 0 23 -1.5t23 -4.5v168q0 65 13 106t32.5 65.5t43.5 41t45 32.5q-32 19 -75 34t-83 22q-46 9 -94 12q47 121 143 186.5t190 93.5q111 37 237 40q124 0 231 -39.5t176 -108.5q100 -100 102 -243v-1377h-212v1377 q0 68 -40.5 108.5t-73.5 56.5q-47 23 -106.5 34.5t-124.5 8.5t-127 -24.5t-112 -59.5q56 -16 102 -40q40 -19 80 -43.5t57 -56.5l-43 -14q-6 -3 -31 -13t-52.5 -33t-48.5 -62t-21 -101v-410q0 -36 -15 -77.5t-46 -78t-79.5 -59t-113.5 -22.5q-124 0 -186 76.5t-62 167.5z M245 227q0 -46 25.5 -71.5t71.5 -25.5t74 29.5t28 67.5q0 46 -28 72.5t-74 26.5t-71.5 -28t-25.5 -71z" />
<glyph unicode="&#xe27;" horiz-adv-x="1190" d="M25 873l7 19q46 149 131 224.5t169 107.5q100 37 215 40q114 0 201.5 -36t146.5 -94.5t88.5 -135t29.5 -162.5v-605q0 -37 -13 -78.5t-42 -78.5t-78.5 -62t-117.5 -25q-72 0 -129 32.5t-89 88.5q-37 59 -37 125t34 122q65 111 217 111q23 0 31.5 -1.5t15.5 -1.5v373 q0 37 -13.5 77.5t-44 74.5t-79.5 59t-121 25q-87 0 -147.5 -28t-96.5 -67t-54 -81t-25 -72v-7q0 -3 -1.5 -7.5t-4.5 -17.5zM658 231q0 -47 27 -72t73 -25q47 0 73 27.5t26 69.5t-28 70t-71 28q-46 0 -73 -29.5t-27 -68.5z" />
<glyph unicode="&#xe28;" horiz-adv-x="1448" d="M165 814q7 115 61 200.5t133.5 141.5t180.5 83.5t203 24.5q74 -3 149 -23t140 -56q16 25 29.5 50.5t22.5 44.5q13 22 19 46h223q-19 -49 -46 -95q-22 -40 -48.5 -85.5t-59.5 -83.5q40 -52 63 -117.5t23 -143.5v-801h-210v792q0 62 -26 119q-16 -13 -29.5 -21t-19.5 -14 q-9 -6 -16 -9q-6 0 -16 -7q-12 -9 -46 -24q32 -36 47 -76t15 -79q0 -91 -58.5 -168t-175.5 -77q-55 0 -87.5 18t-39.5 25q-6 -37 -24 -101q-28 -108 -93 -378h-206v296q0 81 -15.5 133.5t-36.5 104.5q-22 56 -42 118t-14 162zM358 755q0 -97 26 -174t29 -96v-29 q0 -16 2 -43.5t-2 -73.5q16 100 25 160.5t15 96.5q7 40 10 59t14 63t37.5 88.5t73 76t126.5 31.5h13q28 10 62 27q25 16 59 37.5t63 53.5q-87 49 -194 49q-59 0 -122.5 -18t-116 -57t-86.5 -101t-34 -150zM615 674q0 -40 25 -74t80 -34q53 0 76.5 34t23.5 74 q0 37 -24.5 70.5t-75.5 33.5q-55 0 -80 -34.5t-25 -69.5z" />
<glyph unicode="&#xe29;" horiz-adv-x="1535" d="M72 1019q0 43 14 87t45 78t77 57t108 23q121 0 190.5 -74t69.5 -180v-830h440q62 0 86.5 40.5t24.5 75.5v124q-39 -7 -70 -10t-78 -3q-108 0 -174 28t-103 68.5t-50.5 85.5t-13.5 79q0 78 54 149.5t168 71.5q62 0 101 -23t63 -55.5t34 -67t10 -59.5q0 -46 -23 -99.5 t-88 -69.5q26 -3 56 3q25 7 54.5 16.5t59.5 31.5v677h205v-550q26 23 45 46q16 19 32.5 44t19.5 47l134 -113q-25 -56 -66.5 -96.5t-76.5 -70.5q-43 -36 -88 -59v-208q0 -56 -11.5 -107.5t-41 -90.5t-83 -62t-137.5 -23h-825v180h133v594q-16 -3 -28.5 -3h-22.5 q-124 0 -184 79t-60 169zM218 1019q0 -46 27.5 -75.5t77.5 -29.5q46 0 73 31t27 74q0 46 -29.5 77t-70.5 31q-46 0 -75.5 -31t-29.5 -77zM758 674q0 -36 23.5 -63t72.5 -27q59 -2 81 38q25 49 0 98q-26 46 -81 45q-49 -3 -72.5 -31t-23.5 -60z" />
<glyph unicode="&#xe2a;" horiz-adv-x="1408" d="M130 879q19 78 68.5 148t122.5 122.5t171 83.5t214 31q65 0 144 -16.5t153 -55.5q19 29 28.5 55.5t16.5 41.5q6 20 11 37h221q-6 -29 -19.5 -57.5t-23.5 -50.5q-13 -27 -25 -49q-7 -16 -20 -32q-9 -16 -21 -32.5t-25 -32.5q37 -50 56 -112t19 -140v-820h-208v25 q0 62 -52.5 207.5t-175.5 360.5q-6 10 -21 34.5t-35 46.5t-47 40.5t-57 18.5q-43 0 -73 -31t-50 -74.5t-31 -90t-11 -74.5q15 3 31 4.5t40 1.5q65 0 109 -23t70 -57t39 -73t13 -68q0 -124 -64 -191t-176 -67q-94 0 -161.5 50.5t-93.5 145.5q-6 19 -11 120t30 238 q13 49 39 111t66.5 117t101 92.5t145.5 37.5q28 6 53.5 14.5t41.5 15.5q19 9 32 16q22 12 43 25q16 13 35.5 28t35.5 31q-52 25 -104 35.5t-79 10.5q-58 3 -119.5 -11t-118.5 -47t-97.5 -87t-58.5 -128zM413 231q0 -40 25 -72t80 -32q53 0 77 32.5t24 71.5q0 36 -24 70 t-77 34q-55 0 -80 -34t-25 -70zM824 820q36 -36 65.5 -77.5t51.5 -81.5q19 -28 40.5 -77.5t40.5 -93t35 -77.5l15 -35l-59 202v218q0 69 -19 116q-26 -22 -56 -38q-25 -16 -54.5 -31t-59.5 -25z" />
<glyph unicode="&#xe2b;" horiz-adv-x="1529" d="M83 993q-11 101 54 185q32 40 76.5 60t89.5 24.5t85.5 -4t71.5 -24.5q84 -49 105.5 -115t21.5 -122v-509l-53 -208q7 19 21 50t29 62t28 54l13 23q22 25 42 51.5t39 48.5q46 56 117.5 130.5t117.5 120.5q-32 26 -61 70.5t-29 122.5v6q0 111 71.5 176.5t187.5 65.5 q108 0 183 -83q65 -71 65 -165v-19q-6 -75 -35.5 -118t-58.5 -65l19 -19q37 -37 45 -74t8 -44v-674h-209v628q0 29 -20 56l-7 6l-3 3q-22 -19 -56.5 -54.5t-73 -76t-77.5 -85.5t-73 -83q-74 -90 -118 -154t-68 -106q-25 -50 -35 -82q-3 -22 -9 -39q-3 -10 -3 -13h-206v771 q-65 -6 -122 7.5t-100 54.5q-62 59 -73 160zM227 1019q0 -40 25 -74t77 -34q56 0 79.5 34t23.5 74q0 37 -23.5 71t-79.5 34q-52 0 -77 -34t-25 -71zM1003 1013q0 -40 24 -72.5t80 -32.5q52 0 76.5 32.5t24.5 72.5q0 36 -24.5 69.5t-76.5 33.5q-56 0 -80 -34t-24 -69z" />
<glyph unicode="&#xe2c;" horiz-adv-x="1675" d="M81 1006v4q0 46 13.5 89.5t42 81t78 60.5t117.5 23q66 0 114 -23t79 -60.5t46.5 -82.5t15.5 -95v-397l-27 -174l348 578l362 -612l-39 205v380q-26 -4 -49 0t-42 11q-22 6 -43 16q-40 19 -82 69.5t-42 135.5q0 40 13.5 80.5t43 74.5t73 56t105.5 22q66 0 111 -23.5 t71 -60.5q19 -19 27.5 -45t15.5 -49q6 -25 6 -55q29 40 37 74q3 16 3 37h198q-28 -94 -69.5 -149.5t-76.5 -85.5q-43 -37 -92 -46v-1045h-202q-6 32 -11 58t-11 47q-7 22 -13 44q-10 26 -45.5 93.5t-80 142.5t-86.5 144.5t-68 101.5q3 0 0 10q-3 6 -5.5 24.5t-8.5 43.5 q-6 -25 -9.5 -41t-3.5 -22v-8q-19 -32 -62.5 -105t-88 -148t-79 -137t-40.5 -75q-6 -16 -16 -43q-16 -46 -29 -130h-202v774q-25 -6 -46 -6q-111 0 -181 67t-70 171zM227 1019q0 -36 25 -70.5t77 -34.5q56 0 79.5 34.5t23.5 70.5q0 40 -23.5 72.5t-79.5 32.5 q-52 0 -77 -32.5t-25 -72.5zM1116 1218q0 -40 28 -67t68 -27q39 0 66 27t27 67t-27.5 67t-65.5 27q-40 0 -68 -27t-28 -67z" />
<glyph unicode="&#xe2d;" horiz-adv-x="1346" d="M72 892q15 62 52 121q52 84 122 135t142 76.5t141.5 32.5t122.5 7q97 0 191.5 -26t171 -80.5t123.5 -138.5t47 -199v-569q0 -114 -60 -182.5t-223 -68.5h-420q-43 0 -83.5 9.5t-73 34t-52 63.5t-19.5 98v385q0 36 11.5 84.5t42.5 92.5t81 75t129 31q59 0 103 -21.5 t75 -57.5t46.5 -81t15.5 -94q0 -88 -56 -162.5t-184 -78.5q-12 0 -33.5 5t-28.5 11v-143q0 -43 22.5 -57t49.5 -14h358q90 0 90 84v566q0 114 -92 182.5t-229 68.5q-105 0 -176.5 -24.5t-118.5 -63.5t-73 -84.5t-39 -88.5zM407 622q0 -40 24.5 -73.5t80.5 -33.5 q52 0 76 34.5t24 72.5q0 36 -24.5 70.5t-75.5 34.5q-56 0 -80.5 -34.5t-24.5 -70.5z" />
<glyph unicode="&#xe2e;" horiz-adv-x="1392" d="M186 1016q0 97 120 172.5t340 75.5q155 0 239.5 -41.5t124.5 -69.5q16 19 28 49q13 25 21.5 56t8.5 71h212q-10 -81 -34.5 -140t-49.5 -95q-29 -43 -62 -72q25 -39 38 -99t13 -77v-619q0 -31 -10 -70t-37.5 -73.5t-79.5 -59t-136 -24.5h-447q-114 0 -182.5 57t-68.5 164 v304q0 36 12 81.5t41.5 84.5t78 66.5t126.5 27.5q62 0 107 -23t76 -58.5t46.5 -77.5t15.5 -82q0 -97 -62 -169.5t-180 -72.5q-37 0 -53 8v-65q0 -46 25 -57.5t61 -11.5h374q37 0 60.5 25.5t23.5 62.5v560q0 19 -3 43.5t-9 30.5q-47 -28 -131 -53t-208 -25q-205 0 -322 51 t-117 145zM367 1032q0 -3 1.5 -3t1.5 -3v-4q13 -12 49.5 -20t77 -11.5t78 -3.5h56.5q112 0 163.5 13t78.5 29l6 3l26 16q-23 16 -32.5 23t-39.5 20q-28 12 -76 21t-119 9q-124 0 -197.5 -31t-73.5 -58zM378 544q0 -46 29 -75.5t72 -29.5q46 0 75.5 31t29.5 77q0 43 -29.5 74 t-75.5 31q-43 0 -72 -31t-29 -77z" />
<glyph unicode="&#xe2f;" horiz-adv-x="1281" d="M124 983q0 36 11 84.5t40.5 93t78 74t128.5 29.5q155 0 224 -124q28 -52 28 -121q0 -111 -93 -179q-26 -20 -49 -27.5t-60 -14.5q23 -6 51.5 -6h44.5q118 3 215 104t146 319l6 28h208v-845q0 -88 -17.5 -150t-45 -106.5t-65 -71.5t-77.5 -54l-25 -16l-153 149l51 24 l20 13t43 39t42 68t19 101v391q-46 -90 -150 -141t-208 -51q-100 0 -199.5 45.5t-154.5 139.5q-22 39 -40.5 95t-18.5 110zM283 1022q0 -46 29.5 -73t75.5 -27q49 0 76 28.5t27 71.5q0 46 -29.5 74t-73.5 28q-46 0 -75.5 -29.5t-29.5 -72.5z" />
<glyph unicode="&#xe30;" horiz-adv-x="1249" d="M166 281q-1 70 33 123q32 56 89 87t125 27q85 -3 145.5 -46t87.5 -108q15 -52 9 -104t-21 -64h21q29 6 63 24t70 48.5t68.5 81.5t54.5 125l11 32l199 -51l-14 -39q-66 -196 -209 -306.5t-361 -110.5q-84 0 -143 16t-99.5 40.5t-63.5 51t-35 48.5q-29 55 -30 125zM166 986 q-1 70 33 121q32 55 89 86t125 28q85 -3 145.5 -45t87.5 -108q15 -52 9 -104.5t-21 -65.5h21q29 7 63 25t70 49t68.5 81t54.5 125l11 34l199 -53l-14 -38q-66 -196 -209 -307t-361 -111q-84 0 -143 16.5t-99.5 41t-63.5 50t-35 49.5q-29 56 -30 126zM310 286 q0 -46 28.5 -74.5t71.5 -28.5q46 0 75.5 29.5t29.5 73.5q0 43 -29.5 72.5t-75.5 29.5q-43 0 -71.5 -29.5t-28.5 -72.5zM310 991q0 -47 28.5 -76t71.5 -29q46 0 75.5 29t29.5 76q0 43 -29.5 71.5t-75.5 28.5q-43 0 -71.5 -29.5t-28.5 -70.5z" />
<glyph unicode="&#xe31;" d="M-892 1790q0 43 12.5 87t43.5 78t76.5 57t107.5 23q75 0 122.5 -29.5t74 -66.5t34.5 -74.5t8 -56.5q0 -16 -6.5 -48t-24.5 -54q37 -6 91 13.5t105 45.5q46 25 92 62q40 32 84.5 82.5t87.5 125.5l153 -121q-88 -155 -205 -236.5t-222 -120.5q-124 -47 -249 -53 q-65 0 -133.5 13.5t-122.5 46t-90 87.5t-39 139zM-752 1801q0 -42 27 -71.5t70 -29.5t72.5 29.5t29.5 71.5q0 43 -29.5 72t-72.5 29t-70 -29.5t-27 -71.5z" />
<glyph unicode="&#xe32;" horiz-adv-x="1070" d="M16 895q6 26 11 49t13 39q9 19 16 39q117 242 400 242q196 0 311 -111.5t115 -295.5v-857h-208v863q0 105 -55.5 160t-158.5 55q-109 0 -163.5 -60.5t-85.5 -174.5l-6 -26z" />
<glyph unicode="&#xe33;" horiz-adv-x="1076" d="M-572 1728q0 108 77.5 184.5t192.5 76.5q114 0 192 -76.5t78 -184.5t-78.5 -183.5t-191.5 -75.5q-115 0 -192.5 76.5t-77.5 182.5zM-413 1733q0 -46 32.5 -77t78.5 -31t78 31t32 77t-33 76.5t-77 30.5q-46 0 -78.5 -31t-32.5 -76zM-10 895q4 26 10 49t13 39q9 19 16 39 q117 242 400 242q196 0 312 -111.5t116 -295.5v-857h-208v863q0 105 -56 160t-161 55q-108 0 -162.5 -60.5t-83.5 -174.5l-6 -26z" />
<glyph unicode="&#xe34;" d="M-1289 1544l6 48q22 93 73 170.5t121 131.5t154 85t177 31h32t33 -3q162 -19 261.5 -90t153.5 -153.5t73 -162t25 -122.5l7 -59l-58 19l-44 12q-45 12 -110 28t-147.5 32.5t-160.5 26.5q-85 6 -165 9t-152 3q-87 0 -149 -1.5t-78 -4.5h-52zM-1053 1690q26 3 69 5t89 2 q55 0 109.5 -2t82.5 -5q127 -16 205 -35.5t113 -35.5q-16 31 -40.5 68.5t-66.5 72t-104 59t-150 27.5h-16q-105 0 -182.5 -47t-108.5 -109z" />
<glyph unicode="&#xe35;" d="M-1283 1544l6 48q22 93 73 170.5t121 131.5t155 85t176 31h32.5t32.5 -3q94 -10 177.5 -46.5t124.5 -81.5v185h196v-488q6 -32 9.5 -56.5t6.5 -40.5l8 -69q-56 16 -105.5 33t-105.5 32.5t-130 31.5t-181 31q-91 12 -168 17t-142 5q-100 0 -159 -6.5t-75 -9.5h-52z M-1045 1690q26 3 60 5t77 2q56 0 109 -3.5t99 -9.5q137 -19 218 -39t118 -36q-16 32 -44 71t-72.5 74.5t-108 62t-150.5 29.5h-16q-105 0 -183 -47t-107 -109z" />
<glyph unicode="&#xe36;" d="M-1296 1544l7 48q22 100 80.5 182t136.5 137.5t174.5 81.5t197.5 14q121 -13 209 -59q12 65 45 97.5t68 48.5q43 16 92 16q59 -3 98 -28t61 -57.5t31 -65t9 -51.5q-4 -49 -21 -87q-16 -37 -48.5 -68t-94.5 -44q36 -71 47.5 -133t17.5 -97l6 -59l-58 19l-44 12t-109 28 t-148 32.5t-161 26.5q-97 9 -195.5 10.5t-176.5 1.5t-126 -3l-49 -3h-49zM-1059 1690q29 3 76.5 5t100 2t100 -2t73.5 -5q127 -16 205 -35.5t113 -35.5q-16 31 -40.5 68.5t-67 72t-104.5 59t-149 27.5q-108 6 -192.5 -42.5t-114.5 -113.5zM-382 1902q0 -37 26.5 -62.5 t62.5 -25.5q37 0 62.5 26.5t25.5 61.5q0 36 -26.5 63t-61.5 27q-36 0 -62.5 -27t-26.5 -63z" />
<glyph unicode="&#xe37;" d="M-1280 1544l6 48q23 100 81.5 182t137.5 137.5t174.5 81.5t196.5 14h16.5t18.5 -4l27 -8v128h169v-185q22 -13 50 -37.5t39 -41.5v264h168l-3 -511q10 -36 18.5 -72t11.5 -61l7 -59l-59 19l-41 12q-40 12 -107 28t-148.5 32.5t-166.5 26.5q-105 9 -204 12t-174 1.5 t-122 -4.5l-47 -3h-49zM-1041 1690q28 3 75 5t99.5 2t100 -2t73.5 -5q127 -16 205 -35.5t113 -35.5q-16 31 -40 68.5t-67 72t-105 59t-149 27.5q-108 6 -192.5 -42.5t-112.5 -113.5z" />
<glyph unicode="&#xe38;" d="M-652 -401q0 88 60.5 160t174.5 72q115 0 170 -72t55 -157l-4 -456h-186v226q-3 -3 -9 -3h-19q-121 0 -181.5 73t-60.5 157zM-518 -398q0 -36 23 -66t72 -34q25 -3 48 10q19 9 34 28.5t18 55.5q3 46 -26 75.5t-74 29.5q-49 -3 -72 -32.5t-23 -66.5z" />
<glyph unicode="&#xe39;" d="M-979 -370q0 84 59.5 157t173.5 73q115 0 168 -71.5t53 -155.5v-307h93q15 0 29.5 20t14.5 45v453h199v-434q0 -36 -6.5 -76t-29.5 -76t-68.5 -60.5t-119.5 -24.5h-296v224q0 -3 -8 -3h-22q-121 0 -180.5 73t-59.5 163zM-846 -370q0 -37 22.5 -66.5t71.5 -32.5 q9 0 27.5 3t34.5 12.5t27 30.5t11 53q0 49 -27 73t-73 24q-49 0 -71.5 -31t-22.5 -66z" />
<glyph unicode="&#xe3a;" d="M-413 -282q0 44 27.5 82t86.5 38t89 -36t30 -80.5t-27 -82t-86 -37.5q-58 0 -89 36t-31 80z" />
<glyph unicode="&#xe3b;" horiz-adv-x="1628" />
<glyph unicode="&#xe3c;" horiz-adv-x="1628" />
<glyph unicode="&#xe3d;" horiz-adv-x="1628" />
<glyph unicode="&#xe3e;" horiz-adv-x="1628" />
<glyph unicode="&#xe3f;" horiz-adv-x="1380" d="M186 0v1491h413v177h156v-177q69 -3 150.5 -19.5t151.5 -58.5t117 -120t47 -202q0 -112 -65 -193t-173 -120q74 -13 126.5 -52t88.5 -92.5t52.5 -117t16.5 -128.5q0 -124 -71.5 -217t-204.5 -142q-53 -19 -113.5 -24t-122.5 -5v-169h-156v169h-413zM413 199h186v475h-186 v-475zM413 873h186v420h-186v-420zM755 199q40 0 88.5 6t90.5 31t70 70t28 123t-28 126t-70 75.5t-90.5 35.5t-88.5 8v-475zM755 873q124 9 177 62q55 49 55 143q0 97 -55 153q-53 52 -177 62v-420z" />
<glyph unicode="&#xe40;" horiz-adv-x="755" d="M196 221v1022h208v-777q9 0 19.5 1.5t23.5 1.5q105 0 177 -70t72 -172q0 -100 -73 -170t-176 -70q-105 0 -176.5 68.5t-74.5 165.5zM355 227q0 -36 26 -61.5t66 -25.5q36 0 63 26t27 61q0 37 -27.5 63t-62.5 26q-40 0 -66 -26t-26 -63z" />
<glyph unicode="&#xe41;" horiz-adv-x="1399" d="M196 221v1022h208v-777q9 0 19.5 1.5t23.5 1.5q105 0 177 -70t72 -172q0 -100 -73 -170t-176 -70q-105 0 -176.5 68.5t-74.5 165.5zM342 227q0 -43 29.5 -71.5t75.5 -28.5q43 0 71.5 29.5t28.5 70.5q0 43 -29.5 71t-70.5 28q-46 0 -75.5 -28t-29.5 -71zM840 221v1022h208 v-777q13 0 23 1.5t20 1.5q105 0 178 -70t73 -172q0 -100 -73 -170t-178 -70t-175 68.5t-76 165.5zM991 227q0 -43 28.5 -71.5t71.5 -28.5q46 0 75.5 29.5t29.5 70.5q0 43 -29.5 71t-75.5 28q-43 0 -71.5 -28t-28.5 -71z" />
<glyph unicode="&#xe42;" horiz-adv-x="917" d="M-130 1817l19 42q3 6 34 53.5t90 101t145.5 95t196.5 31.5q133 -9 198.5 -52t107.5 -89q32 -32 66.5 -56.5t96.5 -40.5l55 -13l-111 -146l-25 6q-91 22 -127 50t-66 60q-28 32 -65.5 63.5t-129.5 41.5q-59 6 -119 -14t-96 -61q68 -29 139.5 -60.5t130.5 -75.5t96.5 -106 t37.5 -156v-1028q6 3 16 3h33q127 0 187 -75t60 -160q0 -91 -63 -167.5t-187 -76.5q-115 0 -185 63.5t-70 176.5v1258q0 59 -21 99.5t-68 74.5t-125 65t-196 73zM489.5 226.5q1.5 -27.5 14.5 -50.5q25 -46 89 -46q59 0 88 46q25 56 0 104q-26 46 -88 46t-89 -46 q-16 -26 -14.5 -53.5z" />
<glyph unicode="&#xe43;" horiz-adv-x="891" d="M-29 1790q4 69 38 131t85.5 108t117 71.5t133.5 25.5q91 0 159 -31t112.5 -79.5t67 -112t22.5 -129.5q0 -84 -24 -147.5t-67 -122.5q-28 -40 -48 -73t-20 -54v-908q13 0 25 1.5t27 1.5q121 0 182.5 -74.5t61.5 -166.5q0 -91 -61.5 -167.5t-185.5 -76.5 q-114 0 -185.5 71.5t-71.5 186.5v1135q0 37 40.5 85.5t76.5 103.5q26 43 42.5 85.5t16.5 116.5q0 78 -47.5 130.5t-119.5 52.5q-25 0 -45 -8t-23 -19q40 -9 63.5 -31.5t39 -52t20 -60.5t4.5 -55q0 -31 -11 -67t-37.5 -68.5t-65.5 -54t-97 -21.5q-40 0 -80.5 15t-75 47.5 t-53.5 84.5t-16 126zM102.5 1731q2.5 -31 23 -59t63.5 -28q46 0 67 28t21 59t-21.5 58.5t-66.5 27.5q-46 0 -67.5 -27.5t-19 -58.5zM492.5 233q1.5 -28 14.5 -50q26 -46 89 -46q59 0 88 46q25 55 0 103q-26 46 -88 46t-89 -46q-16 -25 -14.5 -53z" />
<glyph unicode="&#xe44;" horiz-adv-x="904" d="M-16 2072l169 74l23 -36q16 -22 25.5 -48.5t22.5 -81.5l49 -237q4 3 30 50t58 105q37 69 89 153q43 72 106 72h109q12 0 16 -4q49 -3 65 -34t16 -56q0 -29 -3.5 -83t-9.5 -84q0 -10 -24.5 -66.5t-51.5 -124.5t-50.5 -125.5t-26.5 -63.5q-16 -49 -28 -89.5t-12 -74.5v-852 q16 3 53 3q146 0 211 -114q37 -56 37 -124.5t-37 -125.5q-31 -56 -88.5 -87t-125.5 -31q-115 0 -186.5 70t-71.5 174v1049q0 62 8 105.5t28 94.5t52.5 118t81.5 167q13 32 26 65q9 26 18.5 52t6.5 42h-22q-6 -16 -40 -65q-25 -43 -75 -124t-146 -228q-9 -16 -18.5 -31.5 t-36.5 -15.5q-29 0 -43.5 19t-22.5 52l-103 410q-3 32 -16 62q-9 26 -24.5 45t-37.5 24zM501.5 230q-0.5 -28 16.5 -54q26 -46 88 -46q52 4 76 35t24 66q0 36 -24 65.5t-76 32.5q-62 0 -91 -49q-13 -22 -13.5 -50z" />
<glyph unicode="&#xe45;" horiz-adv-x="1116" d="M62 876l10 32q104 354 443 356q196 0 309.5 -111.5t113.5 -295.5v-1361h-208v1367q0 105 -55.5 160t-159.5 55q-97 0 -164.5 -62t-83.5 -173l-6 -45z" />
<glyph unicode="&#xe46;" horiz-adv-x="1357" d="M196 898q0 66 19 131t60 117.5t105 85t148 32.5q68 0 128.5 -29.5t82.5 -59.5q16 32 66 60.5t103 28.5q108 0 181 -70t73 -184v-1097q0 -56 -3 -98t-17.5 -82t-44 -77.5t-84.5 -81.5l-19 -18l-148 74l-51 28l65 53q26 19 44 35t27.5 37t14.5 52t5 84v1094 q0 28 -18.5 54.5t-56.5 26.5q-43 0 -63.5 -23t-30.5 -39l-8 -16q-3 -6 -6 -17.5t-6 -28.5h-42l-6 27q-19 49 -71.5 79.5t-117.5 30.5q-40 0 -74 -16t-50 -62q6 6 27.5 15t40.5 9q140 0 199 -109q32 -55 32 -122t-32 -126q-69 -114 -205 -112q-46 0 -93 17.5t-86 56t-63.5 99 t-24.5 141.5zM364 820q0 -36 23 -64.5t76 -28.5q52 0 74.5 29t22.5 64q0 37 -22.5 68t-74.5 31q-53 0 -76 -31t-23 -68z" />
<glyph unicode="&#xe47;" d="M-1048 1843q0 130 98.5 195.5t235.5 61.5l56 -3q49 -3 112.5 -14t119.5 -11q36 0 65 8t48 24q3 3 11 12q13 21 13 43l143 -43q-16 -43 -33 -76t-48 -56.5t-77.5 -34.5t-124.5 -8q-65 7 -116 13t-93 13q-22 3 -43.5 4.5t-48.5 1.5q-40 0 -73 -8t-60 -35 q-16 -16 -27.5 -56.5t-1.5 -79.5q3 -16 10 -32q6 -16 15.5 -34.5t26.5 -37.5q0 46 27.5 76.5t76.5 30.5q40 0 63.5 -17.5t43.5 -39t36.5 -42.5t39.5 -27l-7 10q-12 19 -12 47q0 19 6 46t25 52.5t53.5 44t89.5 18.5q82 0 131 -47.5t49 -122.5q0 -78 -55.5 -134.5 t-136.5 -53.5h-10q-74 3 -115 34t-77 57l-3 3q-26 16 -49 28t-53 12q-16 0 -27 -13.5t-17.5 -28t-9.5 -29.5l-3 -15l-8 -29l-85 -6q-25 13 -46.5 30.5t-37.5 37.5q-19 23 -36 45q-26 43 -43.5 88t-17.5 98zM-475 1712q0 -28 19.5 -51t54.5 -23q40 0 59 24.5t19 53.5 q0 25 -17.5 49.5t-57.5 24.5q-39 0 -58 -23.5t-19 -54.5z" />
<glyph unicode="&#xe48;" d="M-382 2231v501h196v-501h-196z" />
<glyph unicode="&#xe49;" d="M-534 2604q0 94 66.5 148t144.5 54q105 -6 157 -64t52 -144q0 -46 -19.5 -86.5t-48.5 -71t-60 -56.5t-54 -42h26q97 0 167.5 24t116 58t70 73t34.5 72l9 35l159 -62q-40 -120 -106 -188t-146 -103.5t-166 -46t-164 -13.5q-43 0 -89.5 5t-93.5 13l-49 139l46 7q19 3 43 13 q19 6 40 18.5t38 36.5q-65 7 -119 57t-54 124zM-407 2604q0 -39 24.5 -60t59.5 -21q37 0 59 23t22 58q0 40 -22 63t-59 23q-36 0 -60 -23t-24 -63z" />
<glyph unicode="&#xe4a;" d="M-774 2482v38q6 94 67 172.5t185 78.5q43 0 76 -18t61 -37q26 16 56 27.5t71 15.5q109 0 160.5 -70t51.5 -162q0 -40 -8 -75t-14 -53q6 3 19 18q6 6 9 13q40 58 40 198q0 23 -3 42q-3 16 -8 37t-11 37l195 31q7 -16 10 -37q3 -16 4.5 -40.5t1.5 -50.5q0 -62 -18 -138 t-63 -141q-32 -47 -73 -74.5t-83.5 -42t-83.5 -19t-73 -4.5q-16 0 -32.5 1.5t-26.5 1.5q26 36 37.5 81.5t18.5 83.5q9 46 9 96q0 49 -17.5 86.5t-69.5 40.5q-16 0 -34 -8q-15 -7 -31 -18t-34 -36q-9 28 -30 43.5t-45 21.5q-25 9 -52 9q-37 4 -64 -9q-25 -10 -43.5 -31.5 t-18.5 -60.5q16 16 33.5 23t35.5 13q19 7 41 7q56 0 113 -44t57 -130q0 -74 -52.5 -126t-130.5 -52q-46 0 -89.5 16t-75.5 53q-68 78 -68 192zM-619 2402q0 -25 19.5 -49.5t55.5 -24.5q40 0 60.5 21.5t20.5 56.5q0 25 -19 49t-59 24q-39 0 -58.5 -23t-19.5 -54z" />
<glyph unicode="&#xe4b;" d="M-590 2420v184h215v206h199v-206h216v-184h-216v-202h-199v202h-215z" />
<glyph unicode="&#xe4c;" d="M-619 2328q7 143 85 215.5t192 107.5q32 9 66 19.5t67 26.5t59 43.5t42 80.5l202 -53q-3 -25 -11 -48t-18 -39q-13 -21 -22 -40q-65 -75 -153.5 -107.5t-182.5 -16.5l-9 -13q29 -6 57 -16q56 -25 90 -77.5t34 -120.5q0 -29 -11 -65.5t-35.5 -69t-63.5 -58t-95 -33.5 q-121 -16 -205 59q-46 39 -68.5 95t-19.5 110zM-456 2296q0 -40 27.5 -69.5t67.5 -29.5t67 28t27 68q0 43 -28 70t-66 27q-40 0 -67.5 -28.5t-27.5 -65.5z" />
<glyph unicode="&#xe4d;" d="M-929 1728q0 108 78 184.5t193 76.5q114 0 192 -76.5t78 -184.5t-78 -183.5t-192 -75.5q-115 0 -193 76.5t-78 182.5zM-768 1733q0 -46 32 -77t78 -31t78.5 31t32.5 77t-32.5 76.5t-78.5 30.5t-78 -31t-32 -76z" />
<glyph unicode="&#xe4e;" d="M-922 1684q6 68 55.5 105.5t120.5 46.5q-16 16 -29.5 39t-13.5 49q0 22 7.5 57t32.5 64q49 55 111 64.5t137 9.5h65v-127q-55 3 -72 3h-33q-36 0 -70.5 -11t-34.5 -33q0 -49 45 -66.5t64 -17.5v-148h-128q-31 0 -68.5 -11t-37.5 -37q0 -46 34 -58.5t66 -12.5q13 0 28 1.5 t50 1.5v-108q-37 -16 -62.5 -19.5t-44.5 -3.5q-84 0 -153 48.5t-69 163.5z" />
<glyph unicode="&#xe4f;" horiz-adv-x="1666" d="M183 651q0 169 71.5 314t216 241t362.5 96t363.5 -96t217 -241t71.5 -314t-71.5 -314t-217 -241t-363.5 -96t-362.5 96t-216 241t-71.5 314zM270 651q0 -147 62 -272t188 -208.5t313 -83.5q189 0 315 83.5t188 208.5t62 272t-62 272t-188 208.5t-315 83.5t-314 -83.5 t-187 -208.5t-62 -272zM463 651q0 98 40.5 179t123 136.5t206.5 55.5t207.5 -55.5t124 -136.5t40.5 -179t-40.5 -179t-124 -136.5t-207.5 -55.5t-206.5 55.5t-123 136.5t-40.5 179z" />
<glyph unicode="&#xe50;" horiz-adv-x="1597" d="M183 518q-3 69 26 159.5t101 174t192 144t299 63.5q134 0 246 -43t195.5 -114.5t130.5 -171t47 -212.5q0 -117 -44 -215t-125.5 -168t-195.5 -107.5t-250 -37.5q-137 0 -251.5 39t-197.5 109t-128 166.5t-45 213.5zM417 522q-4 -91 33.5 -153t98 -98.5t129 -51 t127.5 -14.5q182 0 281 82.5t99 234.5q0 146 -104.5 235t-279.5 89q-176 0 -277 -87.5t-107 -236.5z" />
<glyph unicode="&#xe51;" horiz-adv-x="1562" d="M165 498q7 152 67.5 254t151.5 161.5t197 84t201 24.5q127 0 245.5 -43.5t203.5 -127.5q168 -174 170 -412q0 -156 -60.5 -258.5t-133.5 -167.5t-140 -96t-76 -41l-99 140q49 25 101 60t96.5 85t70 120t25.5 163q0 97 -36 168.5t-92.5 118.5t-131 70t-157.5 23 q-124 0 -200.5 -39t-117 -91.5t-54.5 -104.5t-14 -82q0 -81 20.5 -132.5t50 -82.5t63.5 -44.5t56 -13.5q-31 16 -67 74.5t-36 127.5q0 90 56 163q74 97 211 97q100 0 157.5 -38.5t87 -90.5t37.5 -103t8 -73q0 -52 -25 -112.5t-75 -109t-124.5 -81t-173.5 -32.5 q-78 0 -160.5 22t-151 76t-111.5 139t-40 205zM631 436q3 -50 34 -81.5t84 -31.5q56 0 83.5 34t27.5 72q0 43 -27.5 79t-89.5 36q-26 0 -65.5 -18.5t-46.5 -89.5z" />
<glyph unicode="&#xe52;" horiz-adv-x="1803" d="M97 1329l192 153q29 -26 49 -50.5t37 -45.5q16 -22 29 -44q25 -43 34 -93t9 -96v-824q0 -46 17.5 -82t104.5 -36h767q46 0 57 18.5t11 43.5l3 382q0 49 -27.5 96t-102.5 47q-37 -3 -72 -16q-28 -12 -60 -37t-54 -71q-16 49 -53.5 73t-73.5 38q-43 13 -91 13 q-56 0 -80.5 -16.5t-30.5 -32.5q6 3 22.5 6t32.5 3q69 -3 119.5 -29t81 -62t45.5 -78t15 -82q0 -68 -28 -115t-68.5 -76.5t-88 -42t-82.5 -12.5q-130 0 -208 81t-91 211q-19 209 84.5 325t273.5 116q84 0 138 -31t83 -68q28 37 84 68t146 31q78 0 135.5 -26.5t94.5 -67 t55.5 -93t18.5 -107.5v-501q0 -37 -6.5 -72.5t-26 -62.5t-57 -45.5t-102.5 -18.5h-983q-29 0 -68.5 11t-74 39t-59 71.5t-24.5 112.5v890q-3 46 -16 84q-12 37 -37 69t-74 52zM693 518q0 -43 28 -77t90 -34t91 49q31 59 0 116q-29 50 -97 50q-59 0 -85.5 -34.5t-26.5 -69.5z " />
<glyph unicode="&#xe53;" horiz-adv-x="1747" d="M146 460q0 114 36 211t101 168.5t153.5 113t188.5 41.5q124 0 202 -51t117 -103q37 55 104.5 104.5t178.5 49.5q152 -2 245 -96q69 -71 101.5 -181.5t26.5 -287.5q-4 -81 -15 -159q-6 -65 -20.5 -139.5t-41.5 -130.5h-221q56 218 64 359.5t-2 227.5q-12 100 -46 156 q-40 46 -94 46q-87 0 -127.5 -70t-40.5 -139v-580h-210v584q0 84 -56.5 144.5t-158.5 60.5q-59 0 -109 -25t-84 -65.5t-52.5 -93t-10.5 -111.5q26 20 63 35t93 15q65 0 112 -25t81 -63.5t51 -89t17 -102.5q0 -105 -68.5 -189.5t-216.5 -87.5q-133 0 -221 88 q-140 136 -140 385zM407 270q0 -49 31 -80t87 -31q52 0 74.5 36t22.5 75q0 43 -25 77.5t-72 34.5q-7 0 -25 -2t-37 -13.5t-36 -34t-20 -62.5z" />
<glyph unicode="&#xe54;" horiz-adv-x="1764" d="M183 498q3 211 152 345q105 94 259.5 135t343.5 22q153 -16 260 -8t182 47t121 110.5t68 182.5l196 -36q-13 -115 -52 -194.5t-82 -128.5q-49 -59 -103 -91q-72 -36 -163 -63t-190 -21q-19 0 -59 3q-36 4 -92.5 5.5t-147.5 7.5q-43 0 -93 -1.5t-101 -11t-101 -34 t-93 -74.5q-36 -46 -63 -99t-21 -125q6 -91 57 -149.5t119.5 -89.5t135 -37.5t101.5 3.5q-9 6 -38.5 24t-62 50t-59 80t-29.5 116q-6 114 72 192t195 78q124 0 199 -73t75 -172q0 -93 -48.5 -152t-104.5 -75q16 -26 42 -34.5t55.5 -8.5t62 5t61.5 5q65 0 148.5 -8t180.5 -54 l-52 -185q-37 19 -85.5 28.5t-89.5 12.5q-50 4 -99 0q-133 -9 -227 -15.5t-159 -9.5q-75 -3 -124 -3q-127 -7 -233 35.5t-181 116.5q-68 69 -102 151t-31 198zM798 444q10 -37 39.5 -55.5t64.5 -18.5q55 0 83 37t28 72q0 43 -28 78.5t-83 35.5q-72 0 -94.5 -53t-9.5 -96z " />
<glyph unicode="&#xe55;" horiz-adv-x="1768" d="M183 491q3 212 152 345q121 108 311 147q-23 39 -31 85q-3 23 -3 42q0 46 18.5 93t54 88t90.5 66.5t127 25.5q58 0 109 -22t88.5 -61t56.5 -88.5t19 -101.5q0 -19 -3 -42q-7 -46 -29 -85q199 6 294.5 86.5t131.5 256.5l199 -37q-16 -104 -48.5 -177.5t-69.5 -117.5 q-39 -56 -84 -92q-78 -56 -185 -86.5t-206 -23.5q-46 6 -97 9q-46 4 -96 7t-106 3q-84 3 -188 -17t-200 -107q-36 -32 -63 -92.5t-21 -131.5q6 -91 57 -150t119.5 -90t135 -37t101.5 3q-9 7 -38.5 24.5t-62 50t-59 80t-29.5 116.5q-6 114 72 192t195 78q124 0 200.5 -73 t76.5 -172q0 -94 -50 -153t-106 -74q16 -26 42 -34.5t55.5 -8.5t62 4.5t61.5 4.5q65 0 148.5 -8t180.5 -54l-52 -184q-37 19 -85.5 28.5t-89.5 12.5q-50 3 -99 0q-133 -9 -227 -15.5t-159 -9.5q-75 -4 -124 -4q-127 -6 -233 36t-181 117q-68 68 -102 150t-31 198zM782 1107 q0 -46 32 -78t78 -32t80 32.5t34 77.5q0 46 -34 80t-80 34t-78 -34t-32 -80zM798 439q10 -37 39.5 -54.5t64.5 -17.5q55 0 83 36t28 72q0 43 -28 79t-83 36q-72 0 -94.5 -54t-9.5 -97z" />
<glyph unicode="&#xe56;" horiz-adv-x="1601" d="M143 1345l150 156l30 -16q68 -40 105.5 -102t58 -132t29.5 -138t18 -122q209 55 395 37t335 -123q46 -29 84 -78t64.5 -107.5t38.5 -126.5t-3 -137q-22 -140 -98 -229.5t-177 -142t-214 -71.5t-210 -19q-78 0 -160 15.5t-148 53t-109 101t-43 159.5q0 111 79 187.5 t192 76.5q146 0 211 -82t65 -182q0 -37 -12.5 -74.5t-28.5 -52.5q10 -10 50.5 -5t89 20.5t97.5 38.5t78 52q36 29 69 78t33 132q0 121 -72 191q-62 62 -150 83.5t-163 24.5q-159 6 -258.5 -21.5t-193.5 -86.5q3 195 -29.5 314.5t-68.5 187.5q-43 81 -97 116zM456 316 q0 -39 24 -75t80 -36q55 0 83 34t28 74q0 43 -28 78t-83 35q-56 0 -80 -35.5t-24 -74.5z" />
<glyph unicode="&#xe57;" horiz-adv-x="1806" d="M146 494q0 88 23 173t70 152t123.5 107.5t184.5 40.5q75 0 125.5 -34.5t76.5 -62.5q105 97 221 97q94 0 161.5 -32.5t112.5 -87.5t66.5 -128t21.5 -159v-7q0 -136 -19.5 -235.5t-51.5 -137.5q49 -7 94 38q46 49 60 140.5t14 204.5q0 59 -1.5 122.5t-4.5 128.5 q-9 134 -9 258q0 152 27.5 243.5t111.5 147.5l26 16l146 -134q-22 -6 -38 -21t-27 -28q-13 -13 -16 -32q-22 -75 -20.5 -189.5t7.5 -220.5q7 -105 11.5 -212.5t-1.5 -205t-29.5 -180.5t-73.5 -142q-62 -68 -145.5 -91t-158.5 -23q-32 0 -69 3q-31 3 -74 9.5t-94 16.5 q46 49 68.5 132.5t34.5 164.5q13 94 13 196q0 90 -27 160t-113 76q-68 7 -115 -38.5t-47 -113.5v-26h-134v26q0 43 -35.5 93t-104.5 59q-36 7 -75 -9t-70 -53.5t-45.5 -101t1.5 -150.5q29 36 80 63t125 27q66 0 115 -23t81.5 -60.5t48.5 -82.5t16 -95q0 -52 -20 -100.5 t-54 -87.5t-87.5 -63.5t-121.5 -24.5q-105 0 -178 40.5t-118.5 110.5t-67 160t-21.5 186zM444 267q0 -43 27 -77t79 -34q56 0 83.5 34t27.5 77t-27.5 77t-83.5 34q-52 0 -79 -34t-27 -77z" />
<glyph unicode="&#xe58;" horiz-adv-x="1725" d="M149 472q0 180 67 290.5t174.5 169.5t239.5 74.5t256 6.5q19 0 43 -3q19 -4 45 -4t52 -3q55 -3 110.5 -4.5t106 6.5t94 31t73.5 64q16 26 29 62q13 29 23 73.5t10 100.5l205 -99q0 -25 -3 -50t-9 -47q-7 -25 -15 -49q-31 -88 -82 -146.5t-110.5 -93t-125 -48.5 t-124.5 -14q-84 0 -177 15.5t-195 15.5q-375 0 -448 -227q-16 -49 -18 -95q0 -75 18.5 -117t24.5 -55q26 75 70.5 132t138.5 64q36 3 70.5 -14t67 -43t63.5 -58t63 -68q22 -26 50 -57t55.5 -57t52 -39t37.5 -3q-43 25 -66.5 56t-35.5 57q-12 32 -12 62q0 59 23 108t62 85 t91.5 55t109.5 19q43 0 90 -17.5t88 -53.5t69 -91.5t28 -133.5q0 -153 -108 -254q-46 -46 -102.5 -71.5t-132.5 -25.5q-59 0 -109 12.5t-102 43.5t-112.5 85t-134.5 139q-29 31 -61 44.5t-54 -3.5q-16 -13 -28 -42.5t-16.5 -65t0 -73t19.5 -66.5l22 -49l-153 -13h-17l-19 13 q-162 111 -216.5 239t-54.5 230zM1134 343.5q0 -41.5 27.5 -77t85.5 -35.5t86 35.5t28 77t-29.5 77t-84.5 35.5q-56 0 -84.5 -35.5t-28.5 -77z" />
<glyph unicode="&#xe59;" horiz-adv-x="1706" d="M149 512q0 105 42.5 195.5t134.5 162.5q59 46 129 70t141.5 28.5t141.5 -8t125 -41.5q32 -16 61.5 -44.5t39.5 -38.5q15 53 58 92t118 51q49 7 94.5 -6t79.5 -32t57 -37t27 -22q6 7 17 25t20.5 57t14.5 102.5t-2 154.5q-3 43 -15 81q-13 37 -36 69.5t-65 48.5l196 68 q16 -6 25.5 -17t19.5 -23q12 -12 19 -22q31 -46 43 -111t19 -126q6 -73 0 -151q-7 -62 -27.5 -143t-53.5 -124q-37 -49 -69 -68t-68 -26q-46 -6 -78 15.5t-62 46.5q-69 56 -100 50q-37 -7 -51.5 -39.5t1.5 -111.5q23 -124 83 -239.5t145 -190.5q16 -12 33 -28q16 -16 36 -33 t45 -36l-111 -133q-49 25 -101 73.5t-95 101.5q-49 58 -97 130q-43 65 -70 144.5t-76 156.5q-97 152 -238 181q-56 13 -117 5t-114 -43q-84 -56 -110.5 -130.5t-21.5 -146.5t28 -126t36 -70q6 -6 12 -16q7 -12 31 -27q-19 56 -12 113.5t36.5 102.5t80 76t119.5 34 q111 7 189 -68q49 -46 68 -116t7 -145q-16 -100 -101 -160.5t-190 -60.5q-97 0 -187 32.5t-158.5 98t-109 163t-37.5 231.5zM560 267q0 -40 27.5 -74t83.5 -34q49 0 78 31t29 77q0 49 -30.5 80t-76.5 31q-56 0 -83.5 -34t-27.5 -77z" />
<glyph unicode="&#xe5a;" horiz-adv-x="1647" d="M180 983q0 36 11 84.5t40.5 93t78 74t126.5 29.5q155 0 225 -124q29 -52 29 -121q0 -111 -94 -179q-25 -20 -48 -27.5t-60 -14.5q22 -6 50 -6h46q117 3 214 104t146 319l7 28h208v-845q0 -88 -17.5 -150t-45.5 -106.5t-65 -71.5t-77 -54l-25 -16l-155 149l53 24l20 13 t42 39t42 68t20 101v391q-46 -90 -150.5 -141t-207.5 -51q-100 0 -200 45.5t-155 139.5q-22 39 -40 95t-18 110zM339 1022q0 -46 29.5 -73t75.5 -27q49 0 76 28.5t27 71.5q0 46 -29.5 74t-73.5 28q-46 0 -75.5 -29.5t-29.5 -72.5zM1261 3v1244h208v-1244h-208z" />
<glyph unicode="&#xe5b;" horiz-adv-x="2578" d="M180 587q0 62 22 133.5t71.5 132.5t122.5 102.5t170 41.5q94 0 158.5 -29.5t100 -75.5t50 -101t14.5 -107q0 -29 -14.5 -73.5t-44 -83.5t-75.5 -68.5t-109 -29.5q-72 0 -127.5 44.5t-55.5 113.5q0 52 27.5 105.5t102.5 53.5q62 0 91.5 -26.5t35.5 -70.5q10 19 10 41 q0 46 -36 96t-122 50q-62 0 -101 -25.5t-61 -65t-31 -83t-9 -75.5q0 -69 23.5 -116.5t62 -77t88 -42t102.5 -12.5q68 0 118 27.5t87.5 74.5t62 106t40.5 121q37 146 37 329h194l68 -398q13 85 31 178t31 171h127l62 -336q13 72 33 146.5t32 139.5h99l60 -286q7 59 22 121 t21 110h99l75 -263q100 -6 228.5 -15t225.5 -15v-111l-494 -22l-56 127q-9 -65 -28.5 -137t-26.5 -130h-140l-26 186q-13 -69 -29.5 -134t-29.5 -127h-127l-65 323q-19 -91 -47 -191t-44 -185h-140l-49 398q-25 -81 -62.5 -154t-93 -127.5t-129 -85.5t-166.5 -31 q-82 0 -165 23.5t-150 73.5t-109 135t-42 206z" />
<glyph unicode="&#x2000;" horiz-adv-x="1410" />
<glyph unicode="&#x2001;" horiz-adv-x="2821" />
<glyph unicode="&#x2002;" horiz-adv-x="1410" />
<glyph unicode="&#x2003;" horiz-adv-x="2821" />
<glyph unicode="&#x2004;" horiz-adv-x="940" />
<glyph unicode="&#x2005;" horiz-adv-x="705" />
<glyph unicode="&#x2006;" horiz-adv-x="470" />
<glyph unicode="&#x2007;" horiz-adv-x="470" />
<glyph unicode="&#x2008;" horiz-adv-x="352" />
<glyph unicode="&#x2009;" horiz-adv-x="564" />
<glyph unicode="&#x200a;" horiz-adv-x="156" />
<glyph unicode="&#x200c;" horiz-adv-x="488" />
<glyph unicode="&#x200d;" horiz-adv-x="686" />
<glyph unicode="&#x200e;" horiz-adv-x="1090" />
<glyph unicode="&#x200f;" horiz-adv-x="1132" />
<glyph unicode="&#x2010;" horiz-adv-x="740" d="M87 485v167h568v-167h-568z" />
<glyph unicode="&#x2011;" horiz-adv-x="740" d="M87 485v167h568v-167h-568z" />
<glyph unicode="&#x2012;" horiz-adv-x="740" d="M87 485v167h568v-167h-568z" />
<glyph unicode="&#x2013;" horiz-adv-x="1076" d="M0 485v137h1078v-137h-1078z" />
<glyph unicode="&#x2014;" horiz-adv-x="2106" d="M0 485v137h2107v-137h-2107z" />
<glyph unicode="&#x2018;" horiz-adv-x="849" d="M293 979v261q0 118 77 191t186 89v-119q-55 -10 -89.5 -57.5t-30.5 -103.5h120v-261h-263z" />
<glyph unicode="&#x2019;" horiz-adv-x="849" d="M293 979v121q55 10 89.5 57.5t30.5 103.5h-120v259h263v-259q0 -118 -76 -191t-187 -91z" />
<glyph unicode="&#x201a;" horiz-adv-x="849" d="M293 0v261h263v-261q0 -118 -76 -191t-187 -89v121q55 10 89.5 56.5t30.5 102.5h-120z" />
<glyph unicode="&#x201c;" horiz-adv-x="1221" d="M261 979v261q0 118 76 191t188 89v-119q-56 -10 -90 -57.5t-31 -103.5h121v-261h-264zM665 979v261q0 118 76 191t188 89v-119q-56 -10 -90 -57.5t-31 -103.5h121v-261h-264z" />
<glyph unicode="&#x201d;" horiz-adv-x="1221" d="M293 979v121q55 10 89.5 57.5t30.5 103.5h-120v259h263v-259q0 -118 -76 -191t-187 -91zM696 979v121q56 10 90 57.5t31 103.5h-121v259h264v-259q0 -118 -76 -191t-188 -91z" />
<glyph unicode="&#x201e;" horiz-adv-x="1221" d="M293 0v261h263v-261q0 -118 -76 -191t-187 -89v121q55 10 89.5 56.5t30.5 102.5h-120zM696 0v261h264v-261q0 -118 -76 -191t-188 -89v121q56 10 90 56.5t31 102.5h-121z" />
<glyph unicode="&#x2020;" horiz-adv-x="1155" d="M49 846v199h423v478h166h43v-478h426v-199h-426v-1250h-209v1250h-423z" />
<glyph unicode="&#x2021;" horiz-adv-x="1151" d="M49 56v198h426v609h-426v199h426v461h159h47v-461h422v-199h-422v-609h422v-198h-422v-460h-206v460h-426z" />
<glyph unicode="&#x2022;" horiz-adv-x="992" d="M97 739q0 85 31 161t85 132t127 88.5t154 32.5q85 0 157 -32.5t127 -88.5t86 -132t31 -161q0 -84 -31 -159.5t-86 -130.5t-126.5 -87.5t-157.5 -32.5q-81 0 -154 32.5t-127 87.5t-85 130.5t-31 159.5z" />
<glyph unicode="&#x2026;" horiz-adv-x="2109" d="M261 0v270h233v-270h-233zM932 0v270h233v-270h-233zM1606 0v270h230v-270h-230z" />
<glyph unicode="&#x202f;" horiz-adv-x="564" />
<glyph unicode="&#x2030;" horiz-adv-x="2715" d="M97 1113q0 159 82 272t274 113q193 0 274 -113t81 -272t-81 -271t-274 -112q-192 0 -274 112t-82 271zM283 1113q0 -43 6.5 -84.5t26 -75.5t52.5 -55.5t85 -21.5q53 0 84.5 21.5t51.5 55.5t26.5 76.5t6.5 83.5q0 43 -6.5 85t-26.5 76.5t-52.5 57.5t-83.5 23 q-52 0 -85 -23t-52.5 -57.5t-26 -76.5t-6.5 -85zM370 -81l948 1631h161l-945 -1631h-164zM1084 351q0 159 81.5 272t273.5 113t273.5 -113t81.5 -272t-81.5 -271t-273.5 -112t-273.5 112t-81.5 271zM1270 351q0 -43 6.5 -85t25.5 -76t51.5 -55t85.5 -21q52 0 85 21t52.5 55 t26 77t6.5 84q0 43 -6.5 85.5t-26 76.5t-52.5 57t-85 23q-53 0 -85.5 -23t-51.5 -57t-25.5 -76.5t-6.5 -85.5zM1908 351q0 159 82 272t273 113q192 0 274 -113t82 -272t-82 -271t-274 -112q-193 0 -274 112t-81 271zM2094 351q0 -43 6.5 -85t26 -76t52.5 -55t84 -21 q52 0 84.5 21t52.5 55t26.5 77t6.5 84q0 43 -6.5 85.5t-26.5 76.5t-52.5 57t-84.5 23q-53 0 -85 -23t-51.5 -57t-26 -76.5t-6.5 -85.5z" />
<glyph unicode="&#x2032;" horiz-adv-x="718" d="M261 979v121q55 10 89.5 57.5t31.5 103.5h-121v259h264v-259q0 -118 -77.5 -191t-186.5 -91z" />
<glyph unicode="&#x2033;" horiz-adv-x="1122" d="M261 979v121q55 10 89.5 57.5t31.5 103.5h-121v259h264v-259q0 -118 -77.5 -191t-186.5 -91zM665 979v121q55 10 89.5 57.5t30.5 103.5h-120v259h264v-259q0 -118 -77.5 -191t-186.5 -91z" />
<glyph unicode="&#x2039;" horiz-adv-x="923" d="M146 522v159l616 446v-216l-414 -312l414 -303v-212z" />
<glyph unicode="&#x203a;" horiz-adv-x="923" d="M162 84v215l414 313l-414 302v213l616 -437v-159z" />
<glyph unicode="&#x2044;" horiz-adv-x="1038" d="M-6 0l895 1697h159l-895 -1697h-159z" />
<glyph unicode="&#x205f;" horiz-adv-x="705" />
<glyph unicode="&#x20ac;" horiz-adv-x="1380" d="M59 491l65 186h62q0 10 -1.5 25t-1.5 34q0 7 -1.5 18t1.5 38h-124l65 178h84q26 114 88 216.5t148 177.5q195 159 445 159q137 0 228 -25.5t166 -64.5v-221h-65q-75 55 -145 87.5t-175 36.5q-152 -4 -282.5 -87.5t-186.5 -278.5h466l-59 -178h-445v-53v-32.5t3 -29.5h398 l-65 -186h-295q66 -186 180 -260q69 -47 145 -70.5t141 -26.5q69 3 116.5 7.5t73.5 20.5q28 16 60.5 37.5t69.5 54.5h65v-217q-62 -29 -107.5 -47.5t-88 -30t-89.5 -15t-112 -3.5q-252 0 -434 140t-244 410h-149z" />
<glyph unicode="&#x2113;" horiz-adv-x="709" d="M49 563v215q29 25 63 53.5t71 60.5v196q0 84 4.5 170.5t29.5 155t78 112t152 43.5q97 0 157.5 -68t60.5 -180q0 -39 -9.5 -85.5t-36.5 -95.5q-37 -72 -95 -145t-126 -138v-537q0 -75 20.5 -109.5t79.5 -34.5q22 0 58.5 8t95.5 27v-198q-68 -13 -113 -19.5t-73 -6.5 q-280 0 -280 277v397q-25 -19 -50 -35.5t-45 -32.5q-23 -16 -42 -30zM398 1116q22 26 37 51t25 45q22 52 22 93q0 29 -8 52t-24 23q-37 0 -44.5 -70t-7.5 -148v-46z" />
<glyph unicode="&#x2122;" horiz-adv-x="1865" d="M261 1394v126h528h31v-126h-208v-605h-143v605h-208zM873 789v731h205q46 -124 76.5 -206.5t50.5 -135.5q22 -59 35 -94q13 37 37 94q19 53 48.5 136.5t75.5 205.5h172h33v-731h-146v454q-19 -52 -46 -119q-23 -59 -54 -142.5t-74 -192.5h-97q-39 111 -70 193.5 t-54 141.5q-25 68 -46 119v-454h-146z" />
<glyph unicode="&#x2126;" horiz-adv-x="1357" d="M16 0v186h410v56q-43 9 -107.5 40t-126.5 96.5t-107 171t-45 264.5q0 177 64.5 295t162 190t210.5 101t204 29q93 0 206 -29t209 -101t159 -190t63 -295q0 -165 -47 -275t-110.5 -173.5t-127 -90.5t-98.5 -33v-56h407v-186h-596v385q55 0 125 20.5t132 70t102.5 132 t40.5 206.5q0 49 -18 127t-68 149.5t-141.5 124t-237.5 52.5q-147 0 -240 -52.5t-143 -124t-68.5 -149.5t-18.5 -127q0 -124 42.5 -206.5t103 -132t130 -70t125.5 -20.5v-385h-596z" />
<glyph unicode="&#x212e;" horiz-adv-x="1405" d="M97 638q0 127 36 249.5t114.5 218.5t197 154t285.5 58q137 -3 245.5 -48.5t183.5 -125t115.5 -186.5t40.5 -235v-143h-951q0 -117 37.5 -193.5t91.5 -121t114.5 -62t106.5 -17.5q84 0 140.5 19t92.5 51.5t55.5 75.5t29.5 91h267q-40 -218 -180 -333t-392 -115 q-283 0 -456.5 169t-173.5 494zM385 785h663q-3 94 -38 166q-29 62 -94 112t-189 50q-134 0 -230 -87.5t-112 -240.5z" />
<glyph unicode="&#x2202;" horiz-adv-x="1147" d="M78 375q-10 124 29 226t89 167q139 169 322 167q85 -6 142 -31t125 -77q7 36 10 76.5t3 87.5v6q0 40 -6.5 83.5t-16.5 87.5t-19.5 79.5t-19.5 54.5q-16 46 -65 99.5t-124 61.5q-40 3 -65.5 3t-47 -3t-40.5 -12t-46 -22l-84 -39l-134 170l46 25q78 37 185.5 56t210.5 -6 q121 -29 209.5 -104t156.5 -199q37 -65 57.5 -138t30 -138t11 -116t1.5 -70q0 -37 -4.5 -103.5t-17.5 -144.5t-34.5 -161t-49.5 -151q-46 -94 -90 -163t-139 -125q-62 -36 -125 -47.5t-120 -4t-106.5 26.5t-87.5 46q-173 124 -186 332zM335 361q0 -16 2 -47t8 -63.5 t21.5 -63.5t40.5 -50q32 -23 61.5 -23t65.5 16q85 35 140 169q56 140 84 362l-6 7q-25 36 -62.5 68t-102.5 29q-91 0 -161 -94q-49 -65 -70 -140t-21 -170z" />
<glyph unicode="&#x2206;" horiz-adv-x="1408" d="M32 0l528 1504h286l531 -1504h-1345zM296 183h814q-105 292 -202 570.5t-199 567.5h-6z" />
<glyph unicode="&#x220f;" horiz-adv-x="1448" d="M146 -211v1749h1156v-1756h-211v1554h-736v-1547h-209z" />
<glyph unicode="&#x2211;" horiz-adv-x="1308" d="M97 25l574 636q-140 147 -283 298t-280 302v202h1064v-213h-736q124 -134 252.5 -266.5t252.5 -266.5v-95l-537 -593h808v-209h-1115v205z" />
<glyph unicode="&#x2212;" horiz-adv-x="1756" d="M254 590v137h1250v-137h-1250z" />
<glyph unicode="&#x221a;" horiz-adv-x="1442" d="M68 218v164h349l173 -428q146 420 287.5 837t287.5 834h225l-700 -1983h-205l-243 576h-174z" />
<glyph unicode="&#x221e;" horiz-adv-x="1663" d="M127 463q0 93 31 157t79.5 106t106 60.5t109.5 18.5q97 0 191.5 -45.5t191.5 -166.5q124 118 212.5 171t198.5 53q55 0 112.5 -21.5t102.5 -65t74.5 -110.5t29.5 -157q0 -150 -90 -236.5t-255 -86.5q-111 0 -200 60.5t-158 119.5q-6 6 -13 12.5t-14 9.5 q-6 -7 -12.5 -14.5t-12.5 -14.5l-16 -17q-25 -26 -57 -53.5t-69.5 -50.5t-87.5 -37.5t-115 -14.5q-72 0 -134 31t-107 76.5t-71.5 104t-26.5 111.5zM313 469q0 -65 53.5 -110.5t108.5 -45.5q66 0 120 44t119 109q-13 16 -36 42t-54 52.5t-68.5 45.5t-80.5 19 q-49 0 -81.5 -16t-50 -40.5t-24 -52.5t-6.5 -47zM960 463q43 -40 74 -64t56.5 -40.5t53.5 -26t61 -19.5h-6q32 -6 61 0.5t55 31.5q52 49 52 118q0 55 -40.5 108.5t-95.5 53.5q-37 0 -82.5 -24.5t-86.5 -56.5q-49 -37 -102 -81z" />
<glyph unicode="&#x222b;" horiz-adv-x="871" d="M-78 -401l62 190q49 -32 71.5 -41t52.5 -9q49 0 86 56t71 155t63.5 239t59.5 305l75 435q6 15 7.5 34.5t8.5 39.5q19 88 45 184t71.5 174t119.5 129t187 51q49 0 91 -15.5t95 -40.5l-66 -167q-39 22 -69.5 35.5t-57.5 13.5h-19t-22 -3q-32 -9 -57.5 -40t-43 -75 t-32.5 -95t-25 -101q-9 -43 -15.5 -79t-12.5 -63v3q-37 -198 -76 -394.5t-74 -392.5q-22 -114 -54 -216.5t-82 -179t-123 -120t-181 -43.5q-65 0 -156 31z" />
<glyph unicode="&#x2248;" horiz-adv-x="1243" d="M159 313q0 56 10.5 114t37.5 105.5t73 78t118 30.5q39 0 69.5 -11t44.5 -18l277 -165q39 -26 77.5 -23.5t65.5 20.5q25 22 31.5 62.5t0.5 77.5h130q3 -50 -5 -105.5t-32.5 -101t-65 -78t-105.5 -35.5q-43 -3 -90 6.5t-103 45.5l-227 144q-72 55 -124.5 10.5t-45.5 -157.5 h-137zM159 693q0 56 10.5 115t37.5 105.5t73 77.5t118 31q39 0 69.5 -11t44.5 -17l277 -167q39 -26 77.5 -22.5t65.5 19.5q25 22 31.5 63.5t0.5 76.5h130q3 -50 -5 -104.5t-32.5 -100t-65 -78t-105.5 -35.5q-43 -4 -90 5.5t-103 44.5l-227 144q-72 55 -124.5 11.5 t-45.5 -158.5h-137z" />
<glyph unicode="&#x2260;" horiz-adv-x="1272" d="M114 254v166h365l101 192h-466v166h554l87 163h159l-87 -163h332v-166h-420l-101 -192h521v-166h-609l-78 -149h-159l78 149h-277z" />
<glyph unicode="&#x2264;" horiz-adv-x="1249" d="M94 0v137h1056v-137h-1056zM94 649v159l1052 439v-185l-817 -335l817 -333v-189z" />
<glyph unicode="&#x2265;" horiz-adv-x="1249" d="M100 0v137h1056v-137h-1056zM105 205v189l817 333l-817 335v185l1051 -439v-159z" />
<glyph unicode="&#x25ca;" horiz-adv-x="1477" d="M87 638l649 739l647 -739l-647 -735zM335 638q105 -118 200.5 -221.5t200.5 -224.5l401 446q-105 120 -201 224.5t-200 225.5q-105 -115 -201 -222.5t-200 -227.5z" />
<glyph unicode="&#x25cc;" horiz-adv-x="1628" d="M97 736q0 97 105 97q100 0 100 -97t-100 -98q-105 0 -105 98zM146 501q0 100 102 102q100 -2 100 -102q0 -97 -100 -97t-102 97zM146 970q0 97 102 98q100 -1 100 -98q0 -100 -97 -100q-105 0 -105 100zM280 299q0 100 102 102q100 -2 100 -102q0 -97 -100 -97 q-101 0 -102 97zM280 1165q0 105 102 105q100 0 100 -105q0 -90 -100 -90q-101 0 -102 90zM479 165q0 101 101 102q101 0 101 -94q0 -97 -101 -98q-100 0 -101 90zM479 1299q0 100 101 102q101 -2 101 -102q0 -94 -101 -94q-100 0 -101 94zM714 127q0 97 97 97 q103 0 103 -97q0 -100 -103 -102q-97 0 -97 102zM714 1352q0 96 97 96q103 0 103 -96q0 -101 -103 -102q-97 0 -97 102zM948 1299q0 100 105 102q93 -2 93 -102q0 -94 -93 -94q-105 0 -105 94zM951 165q0 101 102 102q93 -1 93 -102q0 -90 -93 -90q-101 0 -102 90z M1143 1165q0 105 104 105q98 0 98 -105q0 -90 -98 -90q-105 0 -104 90zM1146 299q0 100 101 102q98 -2 98 -102q0 -97 -98 -97q-101 0 -101 97zM1277 501q0 100 100 102q105 -2 105 -102q0 -97 -105 -97q-100 0 -100 97zM1277 970q0 97 103 98q102 -1 102 -98 q0 -100 -105 -100q-100 0 -100 100zM1329 736q0 97 104 97q98 0 98 -97t-98 -98q-105 0 -104 98z" />
<glyph unicode="&#x25fc;" horiz-adv-x="1057" d="M0 0v1059h1059v-1059h-1059z" />
<glyph unicode="&#xf700;" horiz-adv-x="1281" d="M97 867v31q6 59 42.5 124.5t93 119.5t134 88t167.5 34h7q74 0 141 -16.5t123 -32.5q46 -13 76 -19.5t57 -6.5q54 0 100 72l147 -105l-48 -68q-37 -50 -71 -73.5t-79 -23.5h-11q-39 3 -72.5 15.5t-83.5 28.5q-55 16 -131.5 36t-132.5 20q-74 0 -121 -19t-65 -50 q43 -3 113 -12.5t138.5 -20t124 -20t68.5 -12.5q137 -46 176 -102.5t39 -145.5q0 -19 -1.5 -39.5t-5.5 -44.5l-55 -625h-218l-6 29q-13 46 -34 101q-16 46 -42 102.5t-64 122.5q-69 -62 -174 -62q-59 0 -102.5 23t-74.5 57t-47 76t-16 85v7q0 43 14.5 86.5t47 77.5t80 55.5 t113.5 21.5q84 0 140.5 -47.5t92.5 -122.5q46 -100 71.5 -163.5t43.5 -100.5q16 -43 22 -62q10 205 11.5 292t1.5 109v22q0 43 -45.5 69.5t-166.5 51.5q-114 22 -223 27.5t-177 5.5h-75zM339 537q0 -39 23.5 -72t76.5 -33q55 0 78.5 33t23.5 72q0 37 -23.5 70.5t-78.5 33.5 q-53 0 -76.5 -34.5t-23.5 -69.5z" />
<glyph unicode="&#xf701;" d="M-1615 1541l6 47q22 101 81 182.5t137.5 137.5t174 82t197.5 13q162 -19 261.5 -89.5t153.5 -153.5t74 -162.5t26 -121.5l6 -59l-58 19l-45 12t-109 27.5t-147.5 31.5t-161.5 27q-97 10 -195 11.5t-176.5 1.5t-127.5 -3l-48 -3h-49zM-1377 1687q29 3 76.5 4.5t99 1.5 t99.5 -1.5t73 -4.5q127 -16 205 -36t115 -36q-16 32 -40.5 69.5t-67.5 71.5t-104.5 59t-150.5 28q-108 6 -192 -42.5t-113 -113.5z" />
<glyph unicode="&#xf702;" d="M-1603 1541l7 47q22 101 81.5 182.5t137.5 137.5t174 82t197 13q93 -9 176.5 -45.5t126.5 -81.5v185h196v-488q6 -32 9.5 -57t6.5 -40l6 -69q-56 16 -104.5 32t-105.5 32.5t-130 32.5t-181 30q-124 16 -225 19.5t-173 0t-110 -8.5l-39 -4h-50zM-1364 1687q28 3 71 4.5 t90 1.5t95.5 -3t88.5 -9q137 -19 218 -39t117 -36q-16 32 -43.5 71t-71.5 74.5t-107.5 62t-152.5 29.5q-108 6 -192.5 -42.5t-112.5 -113.5z" />
<glyph unicode="&#xf703;" d="M-1603 1531l7 48q22 100 81.5 182t137.5 137.5t174 82t197 11.5q120 -12 208 -57q13 65 45.5 97t68.5 49q43 16 91 16q59 -3 98 -27.5t62 -57t31 -65.5t8 -52q-4 -49 -19 -87q-16 -37 -48.5 -68t-94.5 -43q36 -72 47 -134t18 -97l6 -59l-59 19l-44 13q-43 13 -108.5 29.5 t-149 32.5t-160.5 22q-109 10 -206 12.5t-174 2.5t-122 -4l-45 -3h-50zM-1364 1677q28 4 76 5.5t99.5 1.5t99.5 -1.5t73 -5.5q127 -15 205 -35t115 -36q-16 32 -41 69t-67 71.5t-104 59t-151 27.5q-108 7 -192.5 -41.5t-112.5 -114.5zM-687 1889q0 -37 25.5 -62.5 t62.5 -25.5q36 0 61.5 25.5t25.5 62.5q0 36 -25.5 63.5t-61.5 27.5q-37 0 -62.5 -28t-25.5 -63z" />
<glyph unicode="&#xf704;" d="M-1600 1528l8 48q26 100 83 183.5t136.5 139t176 82t196.5 11.5q16 -3 31 -4.5t28 -4.5v127h170v-189q49 -26 78 -51v240h168v-482q19 -52 26.5 -94.5t10.5 -67.5l6 -59l-59 16l-42 13q-42 12 -108.5 29t-148.5 33t-163 25q-97 10 -195 14t-176 1q-90 -4 -173 -7z M-1358 1674q26 7 73.5 8.5t99 1.5t99.5 -1.5t73 -5.5q127 -12 205 -33.5t115 -37.5q-16 32 -40.5 69t-65.5 71.5t-103 59t-154 27.5q-52 3 -100.5 -9.5t-87.5 -35.5t-70 -52.5t-44 -61.5z" />
<glyph unicode="&#xf705;" d="M-749 1482v501h205v-501h-205z" />
<glyph unicode="&#xf706;" d="M-1181 1859q0 94 64 148t141 54q105 -4 159.5 -63.5t54.5 -145.5q0 -43 -19.5 -81t-45.5 -71q-32 -40 -62 -64t-55 -40h25q97 0 167.5 24t116 58t70 73t34.5 73l9 35l161 -62l-9 -29q-29 -91 -85.5 -149.5t-131 -91t-165.5 -45.5t-192 -16q-43 0 -90 5t-93 11l-48 121 q37 6 82 15.5t80 58.5q-65 7 -116.5 57t-51.5 125zM-1059 1862q0 -29 21.5 -55t61.5 -26q46 0 66.5 26t20.5 55q0 22 -9 40q-7 16 -25 29.5t-50 13.5q-43 0 -64.5 -25t-21.5 -58z" />
<glyph unicode="&#xf707;" d="M-1348 1733v38q6 94 68 172.5t186 78.5q46 0 80.5 -19.5t56.5 -35.5q22 13 59.5 31t92.5 12q97 -13 141.5 -80.5t44.5 -151.5q0 -43 -7.5 -76.5t-14.5 -51.5q7 4 19 18q7 6 10 13q22 31 32.5 87t7.5 111q0 19 -4 39q-3 15 -8.5 38.5t-11.5 38.5l195 31l7 -37 q6 -25 7.5 -69t-5 -95t-23.5 -104t-54 -102q-40 -59 -95 -88.5t-109 -40.5t-97.5 -11t-65.5 3q25 36 36 81.5t18 83.5q9 46 11 96q0 49 -18.5 86.5t-70.5 40.5q-16 0 -32 -8q-16 -6 -32.5 -19t-32.5 -38q-10 28 -31.5 42.5t-43.5 22.5q-25 9 -52 9q-37 0 -66 -12 q-25 -10 -45 -30t-17 -56q16 16 34.5 23t34.5 13q19 7 43 7q55 0 111.5 -44t56.5 -130q0 -74 -51.5 -126t-129.5 -52q-46 0 -90 16t-77 53q-68 78 -68 192zM-1192 1654.5q0 -29.5 18 -52.5t58 -23t59 23t20.5 52.5t-17.5 51.5t-59 22t-59.5 -22t-19.5 -51.5z" />
<glyph unicode="&#xf708;" d="M-1088 1684v189h215v202h202v-202h215v-189h-215v-202h-202v202h-215z" />
<glyph unicode="&#xf709;" d="M-1084 1765q6 149 89.5 225.5t199.5 113.5q37 9 68 17t60 20t53 32.5t48 57.5l19 52l215 -59q-7 -25 -15 -46.5t-17 -42.5q-14 -22 -24 -41q-68 -78 -160.5 -113.5t-194.5 -20.5l-9 -12q22 0 56 -13l28 -14q49 -37 78.5 -87t29.5 -112q0 -29 -12 -68t-37 -73t-66.5 -60 t-98.5 -36q-124 -16 -217 62q-49 46 -73 102.5t-20 115.5zM-908 1728q0 -43 28.5 -71.5t71.5 -28.5q40 0 69.5 29.5t29.5 70.5q0 40 -29.5 69.5t-69.5 29.5q-43 0 -71.5 -29.5t-28.5 -69.5z" />
<glyph unicode="&#xf70a;" d="M-382 1507v503h206v-503h-206z" />
<glyph unicode="&#xf70b;" d="M-755 1924q0 105 73 162t154 54q105 -6 163 -73.5t58 -148.5q0 -50 -20.5 -93.5t-50 -79.5t-62 -63.5t-58.5 -43.5q59 -10 130.5 -5t140 31t126.5 79.5t88 145.5l134 -92q-37 -105 -100.5 -166.5t-141.5 -92.5t-169.5 -42t-184.5 -11q-53 0 -109.5 5t-111.5 14l-53 131 l49 6q23 6 45 19q19 10 42 26.5t44 41.5q-65 4 -125.5 58t-60.5 138zM-622 1929.5q0 -34.5 21 -62t64 -27.5q46 0 69.5 26t23.5 58.5t-20.5 60.5t-63.5 31q-46 3 -70 -24.5t-24 -62z" />
<glyph unicode="&#xf70c;" d="M-957 1768v40q6 94 68 171.5t186 77.5q46 0 79.5 -19t57.5 -35q22 13 59.5 30.5t93.5 11.5q97 -13 141.5 -80t44.5 -151q0 -43 -9 -77t-15 -50q6 3 20 16q7 6 10 13q22 31 31.5 87t6.5 111q0 19 -3 40q-3 16 -8 39t-11 39l195 29l7 -35q6 -26 7.5 -70.5t-4.5 -94.5 t-24.5 -104t-53.5 -103q-40 -59 -94.5 -87.5t-108.5 -40.5t-98 -12t-68 3q26 36 37.5 81.5t18.5 85.5q9 46 9 94q0 49 -17.5 86.5t-69.5 40.5q-16 0 -32 -7q-16 -6 -32.5 -18.5t-32.5 -39.5q-10 28 -31.5 43t-43.5 22q-25 9 -52 9q-37 0 -65 -12q-26 -10 -46 -30t-16 -55 q15 16 33.5 22.5t34.5 12.5q19 7 43 7q56 0 112 -44t56 -128q0 -75 -52.5 -127.5t-129.5 -52.5q-47 0 -90.5 17t-75.5 52q-68 78 -68 192zM-801 1689.5q0 -29.5 18 -52t56 -22.5q40 0 59 22.5t20.5 52t-17.5 52.5t-58 23q-40 0 -59 -23t-19 -52.5z" />
<glyph unicode="&#xf70d;" d="M-606 1706v189h215v202h202v-202h214v-189h-214v-202h-202v202h-215z" />
<glyph unicode="&#xf70e;" d="M-687 1797q6 149 89 226t200 112q37 10 68 18.5t59.5 20t53.5 33t48 56.5l20 52l214 -59q-3 -25 -12.5 -46.5t-20.5 -40.5q-13 -24 -22 -43q-69 -78 -162 -114t-193 -20l-10 -12q23 0 56 -13q13 -7 29 -13q49 -36 78.5 -86.5t29.5 -112.5q0 -28 -12 -68t-38 -74 t-67 -59.5t-99 -36.5q-124 -16 -215 62q-49 46 -73 103t-21 115zM-515 1762q0 -43 29.5 -72.5t72.5 -29.5q39 0 68 29.5t29 72.5q0 39 -29.5 68t-67.5 29q-43 0 -72.5 -29t-29.5 -68z" />
<glyph unicode="&#xf70f;" horiz-adv-x="1890" d="M146 941q16 32 56 87.5t106.5 108t165 90t235.5 37.5q255 0 379 -122.5t124 -298.5v-663h221q36 0 53.5 22t17.5 52v989h208v-1012q0 -43 -7.5 -84.5t-34 -74t-72 -52.5t-119.5 -20h-577v180h101v656q0 112 -70 178.5t-216 66.5q-68 0 -140.5 -14t-147.5 -70 q37 -10 116.5 -44t125.5 -99l-68 -24q-37 -13 -84 -56.5t-47 -135.5v-178q16 6 33 7.5t26 1.5q40 0 80.5 -15t74.5 -45.5t55 -75t21 -102.5v-7q-4 -62 -28.5 -105.5t-60 -73t-76.5 -42.5t-79 -13q-100 0 -177 68.5t-77 195.5v404q0 81 35.5 128t98.5 87q-26 16 -63 29 q-31 12 -77.5 24t-111.5 15zM417 231q0 -47 29 -72t76 -25q46 0 73 27.5t27 69.5q0 46 -29 73.5t-71 27.5q-47 0 -76 -29.5t-29 -71.5z" />
<glyph unicode="&#xf710;" d="M-1116 1784q0 94 58 169.5t182 75.5q75 0 122.5 -29.5t73 -67t34 -74.5t8.5 -61q0 -16 -3 -32q-6 -32 -30 -65q3 -3 22 -3q91 3 177 39q74 29 157.5 97.5t155.5 195.5l156 -121q-72 -149 -188 -232.5t-228 -122.5t-196.5 -47t-93.5 -8q-65 0 -137.5 15t-130.5 47 t-97 87.5t-42 136.5zM-976 1794q0 -43 27 -72t70 -29t72 26.5t29 74.5q0 46 -29 73.5t-72 27.5t-70 -29.5t-27 -71.5z" />
<glyph unicode="&#xf711;" d="M-1016 1709q0 108 78 184.5t192 76.5q115 0 193 -76.5t78 -184.5t-78 -184.5t-193 -76.5q-114 0 -192 77.5t-78 183.5zM-857 1709q0 -46 32.5 -76t78.5 -30t79 31t33 75q0 46 -33 77t-79 31t-78.5 -31t-32.5 -77z" />
<glyph unicode="&#xf712;" d="M-1342 1749q0 130 99.5 195.5t236.5 62.5l55 -4q49 -3 113 -15t118 -12q36 0 65.5 8t48.5 26q3 3 10 12q12 20 12 42l145 -42q-16 -42 -32.5 -76.5t-47.5 -56.5t-79 -34t-125 -9q-66 6 -116 13.5t-93 13.5q-22 3 -43.5 4.5t-46.5 1.5q-40 0 -74 -8.5t-60 -34.5 q-16 -15 -28 -56t-1 -80q4 -16 10 -32t15.5 -34.5t25.5 -37.5q0 46 28 76.5t77 30.5q40 0 64 -17.5t43.5 -39t35.5 -43t40 -27.5l-8 9q-13 19 -13 50q0 19 6.5 45t26.5 52.5t54 44t90 17.5q81 0 129.5 -47t48.5 -122q0 -78 -55 -135t-136 -54h-11q-75 3 -115.5 34t-75.5 58 l-3 3q-25 16 -48 27t-54 11q-16 0 -27 -12.5t-18 -27.5t-10 -30l-3 -14l-7 -30l-84 -7q-26 13 -47 31.5t-37 37.5q-19 22 -37 46q-25 43 -43.5 88.5t-18.5 97.5zM-768 1619q0 -29 19 -52t56 -23q40 0 59 24t19 54q0 25 -17.5 50t-57.5 25t-59 -25t-19 -53z" />
<glyph unicode="&#xf713;" d="M-703 2169v494h196v-494h-196z" />
<glyph unicode="&#xf714;" d="M-801 2563q0 94 66.5 148t144.5 54q97 -6 152.5 -65t55.5 -143q0 -46 -19 -86.5t-48.5 -71.5t-60.5 -57.5t-53 -42.5h26q97 0 167.5 24.5t116 59t70 73.5t34.5 71l9 36l159 -62q-46 -159 -153 -232q-97 -68 -216 -82.5t-213 -17.5q-43 0 -90 4.5t-93 11.5l-49 121l46 6 q19 3 43 13q19 6 39.5 19.5t38.5 35.5q-65 7 -119 57.5t-54 125.5zM-674 2563q0 -40 24.5 -60.5t59.5 -20.5q37 0 60 20.5t23 60.5t-23 62t-60 22q-36 0 -60 -22t-24 -62z" />
<glyph unicode="&#xf715;" d="M-960 2420v38q6 94 68 172.5t186 78.5q43 0 75 -18t62 -37q25 16 54.5 27.5t70.5 15.5q109 0 161 -70t52 -163q0 -39 -8.5 -74t-14.5 -53q6 3 20 18q7 6 10 13q40 58 38 198q0 23 -3 42q-3 16 -8 37t-11 39l195 29q3 -16 7 -37q3 -16 6 -40.5t3 -50.5q0 -62 -17.5 -138 t-63.5 -141q-32 -47 -73 -74.5t-83.5 -42t-83 -19t-73.5 -4.5q-16 0 -32 1.5t-27 1.5q25 36 37 81.5t19 83.5q9 46 9 96q0 49 -17.5 86.5t-69.5 40.5q-16 0 -32 -7q-16 -6 -32.5 -18t-32.5 -37q-10 28 -31.5 43.5t-45.5 21.5q-25 9 -50 9q-37 4 -66 -9q-25 -10 -43.5 -31.5 t-18.5 -60.5q16 16 34.5 23t34.5 13q19 7 41 7q56 0 113 -44t57 -130q0 -74 -52.5 -126t-130.5 -52q-46 0 -89.5 16t-75.5 53q-68 78 -68 192zM-805 2342q0 -25 20 -50.5t55 -25.5q40 0 60.5 21.5t20.5 57.5q0 26 -19 49t-59 23q-39 0 -58.5 -23t-19.5 -52z" />
<glyph unicode="&#xf716;" d="M-919 2420v184h216v206h199v-206h215v-184h-215v-202h-199v202h-216z" />
<glyph unicode="&#xf717;" d="M-827 2283q7 143 84.5 214.5t192.5 106.5q32 10 66 20.5t66.5 26t59 43.5t42.5 81l202 -53q-4 -25 -12 -48t-17 -39q-13 -21 -22 -40q-66 -75 -154 -107.5t-182 -16.5l-11 -13q29 -6 59 -16q55 -25 89.5 -77.5t34.5 -121.5q0 -28 -11 -64t-36 -68.5t-64 -58.5t-94 -33 q-121 -16 -205 59q-46 40 -68.5 95t-19.5 110zM-661 2250q0 -40 27.5 -68.5t67.5 -28.5t67 28t27 66q0 43 -28 70.5t-66 27.5q-40 0 -67.5 -29.5t-27.5 -65.5z" />
<glyph unicode="&#xf718;" d="M-566 -863q0 68 47 127t141 59q90 0 133 -59t43 -124v-318h-149v130q-4 -3 -7 -5h-17q-94 0 -142.5 59t-48.5 131zM-460 -863q0 -26 20 -52t58 -26q47 0 65 26t18 52q0 36 -23 57t-60 21q-39 0 -58.5 -24t-19.5 -54z" />
<glyph unicode="&#xf719;" d="M-830 -879q0 68 47 127t137 59q94 0 137 -57.5t43 -125.5v-212h75q16 0 26 16t10 37v329h159v-316q0 -29 -4.5 -61.5t-24.5 -60.5t-55.5 -48t-97.5 -20h-237v150q-4 -3 -7 -3h-16q-93 0 -142.5 58.5t-49.5 127.5zM-723 -879q0 -26 19.5 -50.5t57.5 -27.5q23 0 53 16 t30 62q0 78 -83 78q-39 0 -58 -25t-19 -53z" />
<glyph unicode="&#xf71a;" d="M-410 -802q0 44 27.5 81t86.5 37t89.5 -35.5t30.5 -79.5t-27.5 -82t-85.5 -38q-59 0 -90 36.5t-31 80.5z" />
<glyph unicode="&#xf71b;" horiz-adv-x="1545" d="M114 226q0 67 32 122q65 118 215 118q13 0 46 -6v162q0 65 11 105.5t31 66.5t44.5 43t47.5 36q-4 3 -62.5 35.5t-192.5 35.5q56 124 152 189.5t190 93.5q111 37 235 37q97 0 187 -23t158.5 -70t112 -119.5t46.5 -165.5v-1322l-251 -195q-19 28 -59.5 62.5t-86 64 t-91.5 55.5t-71 42q-29 -78 -104.5 -149.5t-205.5 -71.5q-62 0 -110.5 22t-83 60.5t-52.5 83.5t-18 95q0 130 88 196t215 66q29 0 69 -14.5t55 -20.5q4 26 5.5 64.5t1.5 75.5h202q3 -56 -3.5 -112.5t-12.5 -102.5q68 -36 136.5 -76.5t109.5 -75.5l59 54v1176q0 88 -47 127 t-86 58q-40 19 -93.5 27.5t-115.5 5.5t-125.5 -23t-119.5 -58q59 -22 113 -46.5t80 -48.5q9 -7 20 -16q7 -7 15 -16.5t11 -18.5q-56 -13 -81 -30q-13 -10 -24 -13q-25 -19 -58 -55t-33 -122v-413q0 -100 -73 -167t-181 -67q-146 0 -215 113q-32 59 -32 126zM258 221 q0 -37 22 -67t78 -30q55 0 78.5 31t23.5 66q0 37 -23.5 69.5t-78.5 32.5q-56 0 -78 -32.5t-22 -69.5zM401 -367q0 -46 25.5 -69.5t67.5 -23.5q40 0 65 18.5t40.5 42.5t22 48.5t9.5 37.5q-25 22 -61 35.5t-82 7.5q-87 -16 -87 -97z" />
<glyph unicode="&#xf71c;" horiz-adv-x="1551" d="M114 231q0 87 62 162.5t185 75.5q13 0 46 -6v175q0 81 26.5 130t107.5 105q-32 16 -69 29q-32 12 -78 24t-108 15q49 121 147 186t192 94q111 37 238 40q105 0 194 -24.5t157.5 -75.5t109 -126t43.5 -175v-1348l-217 -134q-43 37 -72.5 62.5t-45.5 41.5q-19 16 -32 30 q-13 -13 -36 -34q-20 -15 -54 -46t-86 -78q-37 53 -64 85.5t-51 56.5q-28 -46 -88.5 -88t-154.5 -42q-108 0 -176.5 73t-68.5 179q0 140 134 209q117 62 241 4q10 37 13 64t6 53q4 28 4 52h208q-7 -65 -14.5 -119t-14.5 -92q-9 -47 -20 -82q12 -12 33.5 -35t42.5 -47 q13 9 32 27q16 16 43.5 39t70.5 58q46 -40 71.5 -62t41.5 -38q19 -16 30 -27q7 3 8.5 5.5t7.5 5.5v1210q0 84 -39 123.5t-75 65.5q-37 25 -95 38.5t-125 10.5t-133.5 -23t-119.5 -61q53 -16 99 -40q40 -19 80.5 -43.5t59.5 -59.5q-37 -7 -62.5 -20.5l-42.5 -22.5 q-19 -13 -32 -22q-36 -37 -47.5 -72.5t-11.5 -97.5v-395q0 -100 -73 -167t-181 -67q-124 0 -185.5 75t-61.5 166zM258 227q0 -36 22 -68t78 -32q55 0 78.5 32.5t23.5 67.5q0 37 -23.5 68t-78.5 31q-56 0 -78 -31t-22 -68zM375 -388q0 -52 47 -79t93 1q40 26 48.5 68.5 t8.5 55.5q-39 40 -72.5 46.5t-52.5 -0.5q-72 -19 -72 -92z" />
<glyph unicode="&#xf71d;" horiz-adv-x="1613" d="M72 1010q0 46 12.5 89.5t42 81t78.5 60.5t118 23q65 0 113.5 -23t79.5 -60.5t45.5 -82.5t14.5 -95v-397l-26 -174l348 578l363 -612l-40 205v380q-25 -4 -48 0t-43 11q-22 6 -42 16q-40 19 -82 69.5t-42 135.5q0 43 13.5 83.5t42 74.5t73 54.5t106.5 20.5 q65 0 110.5 -23.5t70.5 -60.5q19 -19 28 -45t15 -49q6 -25 6 -55q29 40 37 74q3 16 3 37h199q-29 -94 -70 -149.5t-78 -85.5q-43 -37 -91 -46v-1045h-202q-6 32 -10.5 58t-11.5 47q-6 22 -13 44q-9 26 -45.5 93.5t-80.5 142.5t-86 144.5t-69 101.5q3 0 0 10q-3 6 -4.5 24.5 t-8.5 43.5q-6 -25 -9 -41t-3 -22v-8q-19 -32 -63.5 -105t-88.5 -148t-78 -137t-41 -75q-6 -16 -16 -43q-15 -46 -30 -130h-202v774q-25 -6 -44 -6q-112 0 -181.5 68.5t-69.5 173.5zM218 1019q0 -36 24.5 -70.5t77.5 -34.5q55 0 79 34.5t24 70.5q0 40 -24 72.5t-79 32.5 q-53 0 -77.5 -32.5t-24.5 -72.5zM1107 1218q0 -40 27.5 -67t67.5 -27t67 27t27 67t-28 67t-66 27q-46 0 -70.5 -27t-24.5 -67z" />
<glyph horiz-adv-x="1100" d="M-1045 1728q0 108 78 184.5t193 76.5q114 0 192 -76.5t78 -184.5t-78.5 -183.5t-191.5 -75.5q-115 0 -193 76.5t-78 182.5zM-886 1733q0 -46 33 -77t79 -31t77.5 31t31.5 77t-32.5 76.5t-76.5 30.5q-46 0 -79 -31t-33 -76zM6 895q7 26 11.5 49t11.5 39q9 19 17 39 q118 242 401 242q195 0 310.5 -111.5t115.5 -295.5v-857h-208v863q0 105 -56 160t-159 55q-108 0 -163.5 -60.5t-84.5 -174.5l-6 -26z" />
<glyph d="M-948 1684q7 68 56 105.5t121 46.5q-16 16 -29.5 39t-13.5 49q0 22 6.5 57t33.5 64q49 55 110 64.5t136 9.5h65v-127q-55 3 -71 3h-32q-37 0 -71 -11t-34 -33q0 -49 43.5 -66.5t64.5 -17.5v-148h-127q-32 0 -70 -11t-38 -37q0 -46 34 -58.5t68 -12.5q12 0 26.5 1.5 t50.5 1.5v-108q-36 -16 -61.5 -19.5t-46.5 -3.5q-84 0 -152.5 48.5t-68.5 163.5z" />
</font>
</defs>
</svg>
